<?xml version="1.0" encoding="UTF-8"?>
<svg xmlns="http://www.w3.org/2000/svg" xmlns:xlink="http://www.w3.org/1999/xlink" width="471pt" height="275pt" viewBox="0 0 471 275" version="1.1">
<g id="surface806392">
<path style="fill:none;stroke-width:0.00393701;stroke-linecap:round;stroke-linejoin:miter;stroke:rgb(83.529412%,99.215686%,20%);stroke-opacity:1;stroke-miterlimit:10;" d="M 6.211625 -4.800178 L 6.212764 -5.410421 " transform="matrix(72,0,0,-72,-40.436221,-310.538583)"/>
<path style="fill:none;stroke-width:0.00393701;stroke-linecap:round;stroke-linejoin:miter;stroke:rgb(83.529412%,99.215686%,20%);stroke-opacity:1;stroke-miterlimit:10;" d="M 4.92126 -5.344503 L 4.232296 -5.344503 " transform="matrix(72,0,0,-72,-40.436221,-310.538583)"/>
<path style="fill:none;stroke-width:0.00393701;stroke-linecap:round;stroke-linejoin:miter;stroke:rgb(83.529412%,99.215686%,20%);stroke-opacity:1;stroke-miterlimit:10;" d="M 6.212764 -5.410421 C 6.212764 -5.433804 6.19383 -5.452739 6.170447 -5.452739 " transform="matrix(72,0,0,-72,-40.436221,-310.538583)"/>
<path style="fill:none;stroke-width:0.00393701;stroke-linecap:round;stroke-linejoin:miter;stroke:rgb(83.529412%,99.215686%,20%);stroke-opacity:1;stroke-miterlimit:10;" d="M 4.92126 -5.344503 C 4.986853 -5.344503 4.986853 -5.442919 4.92126 -5.442919 " transform="matrix(72,0,0,-72,-40.436221,-310.538583)"/>
<path style="fill:none;stroke-width:0.00393701;stroke-linecap:round;stroke-linejoin:miter;stroke:rgb(83.529412%,99.215686%,20%);stroke-opacity:1;stroke-miterlimit:10;" d="M 5.611799 -5.453824 L 6.170447 -5.452739 " transform="matrix(72,0,0,-72,-40.436221,-310.538583)"/>
<path style="fill:none;stroke-width:0.011811;stroke-linecap:round;stroke-linejoin:miter;stroke:rgb(83.529412%,99.215686%,20%);stroke-opacity:1;stroke-miterlimit:10;" d="M 2.165347 -5.098409 C 2.252315 -5.098409 2.322845 -5.168939 2.322845 -5.255907 " transform="matrix(72,0,0,-72,-40.436221,-310.538583)"/>
<path style="fill:none;stroke-width:0.011811;stroke-linecap:round;stroke-linejoin:miter;stroke:rgb(83.529412%,99.215686%,20%);stroke-opacity:1;stroke-miterlimit:10;" d="M 0.865379 -4.488166 L 6.810258 -4.488166 " transform="matrix(72,0,0,-72,-40.436221,-310.538583)"/>
<path style="fill:none;stroke-width:0.011811;stroke-linecap:round;stroke-linejoin:miter;stroke:rgb(83.529412%,99.215686%,20%);stroke-opacity:1;stroke-miterlimit:10;" d="M 6.810258 -4.488166 L 6.810258 -7.952739 " transform="matrix(72,0,0,-72,-40.436221,-310.538583)"/>
<path style="fill:none;stroke-width:0.011811;stroke-linecap:round;stroke-linejoin:miter;stroke:rgb(83.529412%,99.215686%,20%);stroke-opacity:1;stroke-miterlimit:10;" d="M 6.810258 -7.952739 L 0.865379 -7.952739 " transform="matrix(72,0,0,-72,-40.436221,-310.538583)"/>
<path style="fill:none;stroke-width:0.011811;stroke-linecap:round;stroke-linejoin:miter;stroke:rgb(83.529412%,99.215686%,20%);stroke-opacity:1;stroke-miterlimit:10;" d="M 0.865379 -7.952739 L 0.865379 -4.488166 " transform="matrix(72,0,0,-72,-40.436221,-310.538583)"/>
<path style="fill:none;stroke-width:0.00787402;stroke-linecap:round;stroke-linejoin:miter;stroke:rgb(83.529412%,99.215686%,20%);stroke-opacity:1;stroke-miterlimit:10;" d="M 1.732296 -5.590542 L 1.259856 -5.590542 " transform="matrix(72,0,0,-72,-40.436221,-310.538583)"/>
<path style="fill:none;stroke-width:0.011811;stroke-linecap:round;stroke-linejoin:miter;stroke:rgb(83.529412%,99.215686%,20%);stroke-opacity:1;stroke-miterlimit:10;" d="M 2.322845 -5.472433 L 2.322845 -5.531515 " transform="matrix(72,0,0,-72,-40.436221,-310.538583)"/>
<path style="fill:none;stroke-width:0.00393701;stroke-linecap:round;stroke-linejoin:miter;stroke:rgb(83.529412%,99.215686%,20%);stroke-opacity:1;stroke-miterlimit:10;" d="M 5.49179 -5.573832 C 5.49179 -5.507535 5.545501 -5.453824 5.611799 -5.453824 " transform="matrix(72,0,0,-72,-40.436221,-310.538583)"/>
<path style="fill:none;stroke-width:0.011811;stroke-linecap:round;stroke-linejoin:miter;stroke:rgb(83.529412%,99.215686%,20%);stroke-opacity:1;stroke-miterlimit:10;" d="M 2.204735 -5.472433 L 2.204735 -5.688958 " transform="matrix(72,0,0,-72,-40.436221,-310.538583)"/>
<path style="fill:none;stroke-width:0.011811;stroke-linecap:round;stroke-linejoin:miter;stroke:rgb(83.529412%,99.215686%,20%);stroke-opacity:1;stroke-miterlimit:10;" d="M 2.263763 -5.472433 L 2.263763 -5.590542 " transform="matrix(72,0,0,-72,-40.436221,-310.538583)"/>
<path style=" stroke:none;fill-rule:evenodd;fill:rgb(83.529412%,99.215686%,20%);fill-opacity:1;" d="M 86.289063 164.945313 L 85.632813 164.945313 L 86.160156 163.984375 Z "/>
<path style=" stroke:none;fill-rule:evenodd;fill:rgb(83.529412%,99.215686%,20%);fill-opacity:1;" d="M 90.132813 166.222656 L 81.441406 166.222656 L 81.441406 165.910156 L 82.226563 165.910156 L 82.636719 163.945313 L 82.800781 165.59375 L 83.257813 165.59375 L 84.117188 163.910156 L 83.703125 165.910156 L 85.101563 165.910156 L 85.351563 165.457031 L 86.359375 165.457031 L 86.421875 165.910156 L 87.621094 165.910156 L 88.371094 164.949219 L 88.726563 165.910156 L 89.273438 165.910156 L 88.738281 164.472656 L 89.816406 163.09375 L 89.269531 163.09375 L 88.5625 164 L 88.226563 163.09375 L 87.679688 163.09375 L 88.191406 164.472656 L 87.074219 165.910156 L 86.980469 165.910156 L 86.511719 163.09375 L 86.183594 163.09375 L 85.101563 164.945313 L 84.542969 165.910156 L 84.171875 165.910156 L 84.757813 163.09375 L 84.074219 163.09375 L 83.15625 164.992188 L 83.027344 163.09375 L 82.34375 163.09375 L 81.757813 165.910156 L 81.441406 165.910156 L 81.441406 162.777344 L 90.132813 162.777344 Z "/>
<path style=" stroke:none;fill-rule:evenodd;fill:rgb(83.529412%,99.215686%,20%);fill-opacity:1;" d="M 173.492188 163.09375 L 174.175781 163.09375 L 173.59375 165.910156 L 173.121094 165.910156 L 173.574219 163.722656 L 173.566406 163.847656 L 172.679688 165.59375 L 172.21875 165.59375 L 172.046875 163.886719 L 172.101563 163.722656 L 171.648438 165.910156 L 171.175781 165.910156 L 171.761719 163.09375 L 172.445313 163.09375 L 172.574219 164.992188 Z "/>
<path style=" stroke:none;fill-rule:evenodd;fill:rgb(83.529412%,99.215686%,20%);fill-opacity:1;" d="M 174.765625 165.910156 L 174.226563 165.910156 L 174.8125 163.09375 L 175.351563 163.09375 Z "/>
<path style=" stroke:none;fill-rule:evenodd;fill:rgb(83.529412%,99.215686%,20%);fill-opacity:1;" d="M 175.941406 163.09375 L 176.578125 163.09375 L 177.152344 165.25 L 177.097656 165.300781 L 177.554688 163.09375 L 178.050781 163.09375 L 177.46875 165.90625 L 176.828125 165.90625 L 176.25 163.78125 L 176.304688 163.730469 L 175.851563 165.90625 L 175.355469 165.90625 Z "/>
<path style=" stroke:none;fill-rule:evenodd;fill:rgb(83.529412%,99.215686%,20%);fill-opacity:1;" d="M 281.882813 233.6875 L 281.222656 233.6875 L 281.75 232.726563 Z "/>
<path style=" stroke:none;fill-rule:evenodd;fill:rgb(83.529412%,99.215686%,20%);fill-opacity:1;" d="M 285.722656 234.964844 L 277.03125 234.964844 L 277.03125 234.648438 L 277.820313 234.648438 L 278.226563 232.6875 L 278.390625 234.335938 L 278.851563 234.335938 L 279.707031 232.648438 L 279.292969 234.648438 L 280.691406 234.648438 L 280.941406 234.199219 L 281.949219 234.199219 L 282.011719 234.648438 L 283.210938 234.648438 L 283.960938 233.6875 L 284.316406 234.648438 L 284.863281 234.648438 L 284.332031 233.214844 L 285.40625 231.832031 L 284.859375 231.832031 L 284.152344 232.738281 L 283.820313 231.832031 L 283.269531 231.832031 L 283.785156 233.214844 L 282.664063 234.648438 L 282.570313 234.648438 L 282.101563 231.832031 L 281.773438 231.832031 L 280.695313 233.6875 L 280.132813 234.648438 L 279.765625 234.648438 L 280.347656 231.832031 L 279.664063 231.832031 L 278.746094 233.730469 L 278.617188 231.832031 L 277.933594 231.832031 L 277.347656 234.648438 L 277.03125 234.648438 L 277.03125 231.519531 L 285.722656 231.519531 Z "/>
<path style=" stroke:none;fill-rule:evenodd;fill:rgb(83.529412%,99.215686%,20%);fill-opacity:1;" d="M 43.101563 163.09375 L 43.785156 163.09375 L 43.199219 165.910156 L 42.726563 165.910156 L 43.179688 163.722656 L 43.175781 163.847656 L 42.285156 165.59375 L 41.824219 165.59375 L 41.65625 163.886719 L 41.707031 163.722656 L 41.253906 165.910156 L 40.78125 165.910156 L 41.367188 163.09375 L 42.050781 163.09375 L 42.179688 164.992188 Z "/>
<path style=" stroke:none;fill-rule:evenodd;fill:rgb(83.529412%,99.215686%,20%);fill-opacity:1;" d="M 44.371094 165.910156 L 43.835938 165.910156 L 44.417969 163.09375 L 44.957031 163.09375 Z "/>
<path style=" stroke:none;fill-rule:evenodd;fill:rgb(83.529412%,99.215686%,20%);fill-opacity:1;" d="M 45.546875 163.09375 L 46.183594 163.09375 L 46.757813 165.25 L 46.703125 165.300781 L 47.164063 163.09375 L 47.660156 163.09375 L 47.074219 165.90625 L 46.433594 165.90625 L 45.855469 163.78125 L 45.910156 163.730469 L 45.460938 165.90625 L 44.964844 165.90625 Z "/>
<path style=" stroke:none;fill-rule:evenodd;fill:rgb(83.529412%,99.215686%,20%);fill-opacity:1;" d="M 71.460938 24.003906 L 71.5625 24.050781 L 71.640625 24.121094 L 71.6875 24.222656 L 71.707031 24.339844 L 71.691406 24.480469 L 71.523438 25.308594 L 71.476563 25.445313 L 71.410156 25.566406 L 71.320313 25.667969 L 71.210938 25.738281 L 71.085938 25.785156 L 70.949219 25.800781 L 70.820313 25.785156 L 70.71875 25.738281 L 70.640625 25.667969 L 70.589844 25.566406 L 70.570313 25.449219 L 70.585938 25.308594 L 70.757813 24.480469 L 70.800781 24.34375 L 70.871094 24.222656 L 70.960938 24.121094 L 71.070313 24.050781 L 71.191406 24.003906 L 71.328125 23.988281 Z "/>
<path style=" stroke:none;fill-rule:evenodd;fill:rgb(83.529412%,99.215686%,20%);fill-opacity:1;" d="M 66.746094 24.015625 L 66.867188 24.058594 L 66.949219 24.125 L 67.007813 24.214844 L 67.03125 24.328125 L 67.015625 24.480469 L 66.84375 25.308594 L 66.796875 25.453125 L 66.726563 25.570313 L 66.628906 25.664063 L 66.511719 25.734375 L 66.375 25.777344 L 66.207031 25.792969 L 65.804688 25.792969 L 66.175781 24 L 66.582031 24 Z "/>
<path style=" stroke:none;fill-rule:evenodd;fill:rgb(83.529412%,99.215686%,20%);fill-opacity:1;" d="M 77.523438 26.644531 L 60.683594 26.644531 L 60.683594 26.300781 L 61.46875 26.300781 L 61.875 24.339844 L 62.042969 25.988281 L 62.5 25.988281 L 63.359375 24.300781 L 62.941406 26.300781 L 68.242188 26.300781 L 68.410156 25.5 L 70.023438 25.5 L 70.027344 25.679688 L 70.0625 25.839844 L 70.128906 25.984375 L 70.21875 26.105469 L 70.339844 26.203125 L 70.480469 26.273438 L 70.644531 26.316406 L 70.839844 26.332031 L 71.039063 26.316406 L 71.222656 26.273438 L 71.394531 26.203125 L 71.554688 26.105469 L 71.699219 25.984375 L 71.824219 25.839844 L 71.925781 25.675781 L 72 25.503906 L 72.523438 25.503906 L 72.527344 25.691406 L 72.554688 25.851563 L 72.617188 25.996094 L 72.707031 26.113281 L 72.824219 26.207031 L 72.960938 26.273438 L 73.132813 26.316406 L 73.34375 26.332031 L 73.550781 26.316406 L 73.742188 26.277344 L 73.910156 26.207031 L 74.070313 26.113281 L 74.210938 25.996094 L 74.332031 25.851563 L 74.429688 25.6875 L 74.507813 25.5 L 74.566406 25.285156 L 74.835938 24 L 75.832031 24 L 75.355469 26.300781 L 75.871094 26.300781 L 76.351563 24 L 77.101563 24 L 77.207031 23.488281 L 75.1875 23.488281 L 75.082031 24 L 74.835938 24 L 74.941406 23.488281 L 74.421875 23.488281 L 74.046875 25.296875 L 74 25.453125 L 73.929688 25.574219 L 73.839844 25.671875 L 73.730469 25.746094 L 73.601563 25.789063 L 73.449219 25.808594 L 73.304688 25.789063 L 73.195313 25.746094 L 73.121094 25.671875 L 73.074219 25.578125 L 73.054688 25.457031 L 73.074219 25.296875 L 73.449219 23.488281 L 72.929688 23.488281 L 72.554688 25.285156 L 72.523438 25.503906 L 72 25.503906 L 72.007813 25.496094 L 72.0625 25.292969 L 72.226563 24.496094 L 72.257813 24.289063 L 72.25 24.109375 L 72.214844 23.949219 L 72.152344 23.804688 L 72.058594 23.683594 L 71.9375 23.585938 L 71.800781 23.515625 L 71.632813 23.472656 L 71.4375 23.457031 L 71.242188 23.472656 L 71.058594 23.515625 L 70.882813 23.585938 L 70.722656 23.683594 L 70.582031 23.804688 L 70.453125 23.949219 L 70.351563 24.113281 L 70.273438 24.292969 L 70.214844 24.496094 L 70.050781 25.292969 L 70.03125 25.449219 L 70.023438 25.5 L 68.410156 25.5 L 68.828125 23.488281 L 68.289063 23.488281 L 67.707031 26.300781 L 66.089844 26.300781 L 66.320313 26.289063 L 66.527344 26.246094 L 66.710938 26.175781 L 66.882813 26.082031 L 67.03125 25.964844 L 67.152344 25.824219 L 67.253906 25.667969 L 67.332031 25.492188 L 67.386719 25.292969 L 67.550781 24.496094 L 67.578125 24.28125 L 67.574219 24.101563 L 67.539063 23.949219 L 67.46875 23.8125 L 67.371094 23.695313 L 67.238281 23.605469 L 67.089844 23.542969 L 66.902344 23.5 L 66.675781 23.488281 L 65.765625 23.488281 L 65.285156 25.792969 L 65.179688 26.300781 L 64.589844 26.300781 L 65.171875 23.488281 L 64.636719 23.488281 L 64.050781 26.300781 L 63.414063 26.300781 L 64 23.488281 L 63.316406 23.488281 L 62.398438 25.382813 L 62.265625 23.488281 L 61.582031 23.488281 L 60.996094 26.300781 L 60.683594 26.300781 L 60.683594 23.144531 L 77.523438 23.144531 Z "/>
<path style=" stroke:none;fill-rule:evenodd;fill:rgb(83.529412%,99.215686%,20%);fill-opacity:1;" d="M 86.289063 233.6875 L 85.632813 233.6875 L 86.160156 232.726563 Z "/>
<path style=" stroke:none;fill-rule:evenodd;fill:rgb(83.529412%,99.215686%,20%);fill-opacity:1;" d="M 90.132813 234.964844 L 81.441406 234.964844 L 81.441406 234.648438 L 82.226563 234.648438 L 82.636719 232.6875 L 82.800781 234.335938 L 83.257813 234.335938 L 84.117188 232.648438 L 83.703125 234.648438 L 85.101563 234.648438 L 85.351563 234.199219 L 86.359375 234.199219 L 86.421875 234.648438 L 87.621094 234.648438 L 88.371094 233.6875 L 88.726563 234.648438 L 89.273438 234.648438 L 88.738281 233.214844 L 89.816406 231.832031 L 89.269531 231.832031 L 88.5625 232.738281 L 88.226563 231.832031 L 87.679688 231.832031 L 88.191406 233.214844 L 87.074219 234.648438 L 86.980469 234.648438 L 86.511719 231.832031 L 86.183594 231.832031 L 85.101563 233.6875 L 84.542969 234.648438 L 84.171875 234.648438 L 84.757813 231.832031 L 84.074219 231.832031 L 83.15625 233.730469 L 83.027344 231.832031 L 82.34375 231.832031 L 81.757813 234.648438 L 81.441406 234.648438 L 81.441406 231.519531 L 90.132813 231.519531 Z "/>
<path style=" stroke:none;fill-rule:evenodd;fill:rgb(83.529412%,99.215686%,20%);fill-opacity:1;" d="M 216.683594 164.945313 L 216.027344 164.945313 L 216.554688 163.984375 Z "/>
<path style=" stroke:none;fill-rule:evenodd;fill:rgb(83.529412%,99.215686%,20%);fill-opacity:1;" d="M 220.527344 166.222656 L 211.835938 166.222656 L 211.835938 165.910156 L 212.621094 165.910156 L 213.03125 163.945313 L 213.195313 165.59375 L 213.652344 165.59375 L 214.511719 163.910156 L 214.09375 165.910156 L 215.496094 165.910156 L 215.746094 165.457031 L 216.753906 165.457031 L 216.8125 165.910156 L 218.011719 165.910156 L 218.765625 164.949219 L 219.121094 165.910156 L 219.667969 165.910156 L 219.132813 164.472656 L 220.210938 163.09375 L 219.664063 163.09375 L 218.957031 164 L 218.621094 163.09375 L 218.074219 163.09375 L 218.585938 164.472656 L 217.464844 165.910156 L 217.371094 165.910156 L 216.90625 163.09375 L 216.574219 163.09375 L 215.496094 164.945313 L 214.9375 165.910156 L 214.566406 165.910156 L 215.152344 163.09375 L 214.46875 163.09375 L 213.550781 164.992188 L 213.417969 163.09375 L 212.734375 163.09375 L 212.148438 165.910156 L 211.835938 165.910156 L 211.835938 162.777344 L 220.527344 162.777344 Z "/>
<path style=" stroke:none;fill-rule:evenodd;fill:rgb(83.529412%,99.215686%,20%);fill-opacity:1;" d="M 281.882813 164.945313 L 281.222656 164.945313 L 281.75 163.984375 Z "/>
<path style=" stroke:none;fill-rule:evenodd;fill:rgb(83.529412%,99.215686%,20%);fill-opacity:1;" d="M 285.722656 166.222656 L 277.03125 166.222656 L 277.03125 165.910156 L 277.820313 165.910156 L 278.226563 163.945313 L 278.390625 165.59375 L 278.851563 165.59375 L 279.707031 163.910156 L 279.292969 165.910156 L 280.691406 165.910156 L 280.941406 165.457031 L 281.949219 165.457031 L 282.011719 165.910156 L 283.210938 165.910156 L 283.960938 164.949219 L 284.316406 165.910156 L 284.863281 165.910156 L 284.332031 164.472656 L 285.40625 163.09375 L 284.859375 163.09375 L 284.152344 164 L 283.820313 163.09375 L 283.269531 163.09375 L 283.785156 164.472656 L 282.664063 165.910156 L 282.570313 165.910156 L 282.101563 163.09375 L 281.773438 163.09375 L 280.695313 164.945313 L 280.132813 165.910156 L 279.765625 165.910156 L 280.347656 163.09375 L 279.664063 163.09375 L 278.746094 164.992188 L 278.617188 163.09375 L 277.933594 163.09375 L 277.347656 165.910156 L 277.03125 165.910156 L 277.03125 162.777344 L 285.722656 162.777344 Z "/>
<path style=" stroke:none;fill-rule:evenodd;fill:rgb(83.529412%,99.215686%,20%);fill-opacity:1;" d="M 238.691406 231.832031 L 239.375 231.832031 L 238.789063 234.648438 L 238.316406 234.648438 L 238.773438 232.460938 L 238.765625 232.585938 L 237.875 234.335938 L 237.417969 234.335938 L 237.246094 232.625 L 237.296875 232.460938 L 236.84375 234.648438 L 236.371094 234.648438 L 236.957031 231.832031 L 237.640625 231.832031 L 237.769531 233.730469 Z "/>
<path style=" stroke:none;fill-rule:evenodd;fill:rgb(83.529412%,99.215686%,20%);fill-opacity:1;" d="M 239.960938 234.648438 L 239.425781 234.648438 L 240.011719 231.832031 L 240.546875 231.832031 Z "/>
<path style=" stroke:none;fill-rule:evenodd;fill:rgb(83.529412%,99.215686%,20%);fill-opacity:1;" d="M 241.140625 231.832031 L 241.773438 231.832031 L 242.351563 233.992188 L 242.292969 234.039063 L 242.753906 231.832031 L 243.25 231.832031 L 242.664063 234.648438 L 242.027344 234.648438 L 241.445313 232.523438 L 241.503906 232.472656 L 241.050781 234.648438 L 240.554688 234.648438 Z "/>
<path style=" stroke:none;fill-rule:evenodd;fill:rgb(83.529412%,99.215686%,20%);fill-opacity:1;" d="M 238.691406 163.09375 L 239.375 163.09375 L 238.789063 165.910156 L 238.316406 165.910156 L 238.773438 163.722656 L 238.765625 163.847656 L 237.875 165.59375 L 237.417969 165.59375 L 237.246094 163.886719 L 237.296875 163.722656 L 236.84375 165.910156 L 236.371094 165.910156 L 236.957031 163.09375 L 237.640625 163.09375 L 237.769531 164.992188 Z "/>
<path style=" stroke:none;fill-rule:evenodd;fill:rgb(83.529412%,99.215686%,20%);fill-opacity:1;" d="M 239.960938 165.910156 L 239.425781 165.910156 L 240.011719 163.09375 L 240.546875 163.09375 Z "/>
<path style=" stroke:none;fill-rule:evenodd;fill:rgb(83.529412%,99.215686%,20%);fill-opacity:1;" d="M 241.140625 163.09375 L 241.773438 163.09375 L 242.351563 165.25 L 242.292969 165.300781 L 242.753906 163.09375 L 243.25 163.09375 L 242.664063 165.90625 L 242.027344 165.90625 L 241.445313 163.78125 L 241.503906 163.730469 L 241.050781 165.90625 L 240.554688 165.90625 Z "/>
<path style=" stroke:none;fill-rule:evenodd;fill:rgb(83.529412%,99.215686%,20%);fill-opacity:1;" d="M 151.488281 164.945313 L 150.828125 164.945313 L 151.359375 163.984375 Z "/>
<path style=" stroke:none;fill-rule:evenodd;fill:rgb(83.529412%,99.215686%,20%);fill-opacity:1;" d="M 155.328125 166.222656 L 146.636719 166.222656 L 146.636719 165.910156 L 147.425781 165.910156 L 147.832031 163.945313 L 147.996094 165.59375 L 148.457031 165.59375 L 149.316406 163.910156 L 148.898438 165.910156 L 150.300781 165.910156 L 150.546875 165.457031 L 151.554688 165.457031 L 151.617188 165.910156 L 152.816406 165.910156 L 153.566406 164.949219 L 153.921875 165.910156 L 154.46875 165.910156 L 153.9375 164.472656 L 155.015625 163.09375 L 154.464844 163.09375 L 153.761719 164 L 153.425781 163.09375 L 152.878906 163.09375 L 153.390625 164.472656 L 152.269531 165.910156 L 152.175781 165.910156 L 151.707031 163.09375 L 151.378906 163.09375 L 150.300781 164.945313 L 149.738281 165.910156 L 149.371094 165.910156 L 149.957031 163.09375 L 149.273438 163.09375 L 148.351563 164.992188 L 148.222656 163.09375 L 147.539063 163.09375 L 146.953125 165.910156 L 146.636719 165.910156 L 146.636719 162.777344 L 155.328125 162.777344 Z "/>
<path style=" stroke:none;fill-rule:evenodd;fill:rgb(83.529412%,99.215686%,20%);fill-opacity:1;" d="M 151.488281 233.6875 L 150.828125 233.6875 L 151.359375 232.726563 Z "/>
<path style=" stroke:none;fill-rule:evenodd;fill:rgb(83.529412%,99.215686%,20%);fill-opacity:1;" d="M 155.328125 234.964844 L 146.636719 234.964844 L 146.636719 234.648438 L 147.425781 234.648438 L 147.832031 232.6875 L 147.996094 234.335938 L 148.457031 234.335938 L 149.316406 232.648438 L 148.898438 234.648438 L 150.300781 234.648438 L 150.546875 234.199219 L 151.554688 234.199219 L 151.617188 234.648438 L 152.816406 234.648438 L 153.566406 233.6875 L 153.921875 234.648438 L 154.46875 234.648438 L 153.9375 233.214844 L 155.015625 231.832031 L 154.464844 231.832031 L 153.761719 232.738281 L 153.425781 231.832031 L 152.878906 231.832031 L 153.390625 233.214844 L 152.269531 234.648438 L 152.175781 234.648438 L 151.707031 231.832031 L 151.378906 231.832031 L 150.300781 233.6875 L 149.738281 234.648438 L 149.371094 234.648438 L 149.957031 231.832031 L 149.273438 231.832031 L 148.351563 233.730469 L 148.222656 231.832031 L 147.539063 231.832031 L 146.953125 234.648438 L 146.636719 234.648438 L 146.636719 231.519531 L 155.328125 231.519531 Z "/>
<path style=" stroke:none;fill-rule:evenodd;fill:rgb(83.529412%,99.215686%,20%);fill-opacity:1;" d="M 108.296875 163.09375 L 108.980469 163.09375 L 108.394531 165.910156 L 107.921875 165.910156 L 108.378906 163.722656 L 108.371094 163.847656 L 107.480469 165.59375 L 107.023438 165.59375 L 106.851563 163.886719 L 106.90625 163.722656 L 106.449219 165.910156 L 105.976563 165.910156 L 106.5625 163.09375 L 107.246094 163.09375 L 107.378906 164.992188 Z "/>
<path style=" stroke:none;fill-rule:evenodd;fill:rgb(83.529412%,99.215686%,20%);fill-opacity:1;" d="M 109.570313 165.910156 L 109.03125 165.910156 L 109.617188 163.09375 L 110.15625 163.09375 Z "/>
<path style=" stroke:none;fill-rule:evenodd;fill:rgb(83.529412%,99.215686%,20%);fill-opacity:1;" d="M 110.746094 163.09375 L 111.378906 163.09375 L 111.957031 165.25 L 111.898438 165.300781 L 112.359375 163.09375 L 112.855469 163.09375 L 112.269531 165.90625 L 111.632813 165.90625 L 111.054688 163.78125 L 111.109375 163.730469 L 110.65625 165.90625 L 110.160156 165.90625 Z "/>
<path style=" stroke:none;fill-rule:evenodd;fill:rgb(83.529412%,99.215686%,20%);fill-opacity:1;" d="M 43.101563 231.832031 L 43.785156 231.832031 L 43.199219 234.648438 L 42.726563 234.648438 L 43.179688 232.460938 L 43.175781 232.585938 L 42.285156 234.335938 L 41.824219 234.335938 L 41.65625 232.625 L 41.707031 232.460938 L 41.253906 234.648438 L 40.78125 234.648438 L 41.367188 231.832031 L 42.050781 231.832031 L 42.179688 233.730469 Z "/>
<path style=" stroke:none;fill-rule:evenodd;fill:rgb(83.529412%,99.215686%,20%);fill-opacity:1;" d="M 44.371094 234.648438 L 43.835938 234.648438 L 44.417969 231.832031 L 44.957031 231.832031 Z "/>
<path style=" stroke:none;fill-rule:evenodd;fill:rgb(83.529412%,99.215686%,20%);fill-opacity:1;" d="M 45.546875 231.832031 L 46.183594 231.832031 L 46.757813 233.992188 L 46.703125 234.039063 L 47.164063 231.832031 L 47.660156 231.832031 L 47.074219 234.648438 L 46.433594 234.648438 L 45.855469 232.523438 L 45.910156 232.472656 L 45.460938 234.648438 L 44.964844 234.648438 Z "/>
<path style=" stroke:none;fill-rule:evenodd;fill:rgb(83.529412%,99.215686%,20%);fill-opacity:1;" d="M 216.683594 233.6875 L 216.027344 233.6875 L 216.554688 232.726563 Z "/>
<path style=" stroke:none;fill-rule:evenodd;fill:rgb(83.529412%,99.215686%,20%);fill-opacity:1;" d="M 220.527344 234.964844 L 211.835938 234.964844 L 211.835938 234.648438 L 212.621094 234.648438 L 213.03125 232.6875 L 213.195313 234.335938 L 213.652344 234.335938 L 214.511719 232.648438 L 214.09375 234.648438 L 215.496094 234.648438 L 215.746094 234.199219 L 216.753906 234.199219 L 216.8125 234.648438 L 218.011719 234.648438 L 218.765625 233.6875 L 219.121094 234.648438 L 219.667969 234.648438 L 219.132813 233.214844 L 220.210938 231.832031 L 219.664063 231.832031 L 218.957031 232.738281 L 218.621094 231.832031 L 218.074219 231.832031 L 218.585938 233.214844 L 217.464844 234.648438 L 217.371094 234.648438 L 216.90625 231.832031 L 216.574219 231.832031 L 215.496094 233.6875 L 214.9375 234.648438 L 214.566406 234.648438 L 215.152344 231.832031 L 214.46875 231.832031 L 213.550781 233.730469 L 213.417969 231.832031 L 212.734375 231.832031 L 212.148438 234.648438 L 211.835938 234.648438 L 211.835938 231.519531 L 220.527344 231.519531 Z "/>
<path style=" stroke:none;fill-rule:evenodd;fill:rgb(83.529412%,99.215686%,20%);fill-opacity:1;" d="M 63.617188 28.679688 L 64.136719 28.679688 L 63.597656 31.261719 L 63.078125 31.261719 Z "/>
<path style=" stroke:none;fill-rule:evenodd;fill:rgb(83.529412%,99.215686%,20%);fill-opacity:1;" d="M 62.914063 28.449219 L 64.933594 28.449219 L 64.828125 28.957031 L 62.808594 28.957031 Z "/>
<path style=" stroke:none;fill-rule:evenodd;fill:rgb(83.529412%,99.215686%,20%);fill-opacity:1;" d="M 66.003906 30.175781 L 65.78125 31.261719 L 65.261719 31.261719 L 65.488281 30.175781 L 65.035156 28.449219 L 65.578125 28.449219 L 65.855469 29.660156 L 66.632813 28.449219 L 67.175781 28.449219 Z "/>
<path style=" stroke:none;fill-rule:evenodd;fill:rgb(83.529412%,99.215686%,20%);fill-opacity:1;" d="M 67.429688 29.660156 L 68.3125 29.660156 L 68.402344 29.648438 L 68.484375 29.617188 L 68.558594 29.5625 L 68.621094 29.492188 L 68.667969 29.410156 L 68.699219 29.3125 L 68.710938 29.210938 L 68.699219 29.125 L 68.667969 29.054688 L 68.613281 29.003906 L 68.546875 28.96875 L 68.457031 28.957031 L 67.578125 28.957031 L 67.683594 28.449219 L 68.550781 28.449219 L 68.71875 28.460938 L 68.863281 28.496094 L 68.980469 28.554688 L 69.085938 28.636719 L 69.167969 28.738281 L 69.222656 28.859375 L 69.253906 28.988281 L 69.257813 29.140625 L 69.238281 29.3125 L 69.191406 29.476563 L 69.121094 29.628906 L 69.035156 29.761719 L 68.929688 29.882813 L 68.804688 29.984375 L 68.667969 30.0625 L 68.519531 30.125 L 68.363281 30.160156 L 68.191406 30.171875 L 67.324219 30.171875 Z "/>
<path style=" stroke:none;fill-rule:evenodd;fill:rgb(83.529412%,99.215686%,20%);fill-opacity:1;" d="M 67.445313 28.449219 L 67.964844 28.449219 L 67.378906 31.261719 L 66.863281 31.261719 Z "/>
<path style=" stroke:none;fill-rule:evenodd;fill:rgb(83.529412%,99.215686%,20%);fill-opacity:1;" d="M 69.878906 28.449219 L 70.398438 28.449219 L 69.8125 31.261719 L 69.292969 31.261719 Z "/>
<path style=" stroke:none;fill-rule:evenodd;fill:rgb(83.529412%,99.215686%,20%);fill-opacity:1;" d="M 69.585938 30.75 L 71.242188 30.75 L 71.136719 31.261719 L 69.480469 31.261719 Z "/>
<path style=" stroke:none;fill-rule:evenodd;fill:rgb(83.529412%,99.215686%,20%);fill-opacity:1;" d="M 69.824219 29.609375 L 71.273438 29.609375 L 71.167969 30.121094 L 69.71875 30.121094 Z "/>
<path style=" stroke:none;fill-rule:evenodd;fill:rgb(83.529412%,99.215686%,20%);fill-opacity:1;" d="M 70.066406 28.449219 L 71.722656 28.449219 L 71.617188 28.957031 L 69.960938 28.957031 Z "/>
<path style=" stroke:none;fill-rule:evenodd;fill:rgb(83.529412%,99.215686%,20%);fill-opacity:1;" d="M 74.101563 28.449219 L 74.429688 28.449219 L 74.898438 31.261719 L 74.339844 31.261719 L 74.078125 29.339844 L 73.019531 31.261719 L 72.460938 31.261719 Z "/>
<path style=" stroke:none;fill-rule:evenodd;fill:rgb(83.529412%,99.215686%,20%);fill-opacity:1;" d="M 73.167969 30.300781 L 74.617188 30.300781 L 74.511719 30.8125 L 73.0625 30.8125 Z "/>
</g>
</svg>
