<?xml version="1.0" encoding="UTF-8"?>
<svg xmlns="http://www.w3.org/2000/svg" xmlns:xlink="http://www.w3.org/1999/xlink" width="461pt" height="270pt" viewBox="0 0 461 270" version="1.1">
<g id="surface772144">
<path style=" stroke:none;fill-rule:evenodd;fill:rgb(75.686275%,0%,87.843137%);fill-opacity:1;" d="M 44.859375 245.386719 L 45.542969 245.386719 L 44.957031 248.203125 L 44.484375 248.203125 L 44.9375 246.015625 L 44.933594 246.140625 L 44.042969 247.886719 L 43.582031 247.886719 L 43.414063 246.179688 L 43.464844 246.015625 L 43.011719 248.203125 L 42.539063 248.203125 L 43.125 245.386719 L 43.808594 245.386719 L 43.9375 247.285156 Z "/>
<path style=" stroke:none;fill-rule:evenodd;fill:rgb(75.686275%,0%,87.843137%);fill-opacity:1;" d="M 46.5625 248.230469 L 46.355469 248.214844 L 46.1875 248.171875 L 46.050781 248.109375 L 45.933594 248.011719 L 45.84375 247.894531 L 45.785156 247.75 L 45.753906 247.589844 L 45.753906 247.402344 L 45.785156 247.179688 L 45.945313 246.410156 L 46.003906 246.191406 L 46.082031 246.003906 L 46.179688 245.839844 L 46.300781 245.695313 L 46.441406 245.574219 L 46.597656 245.480469 L 46.765625 245.414063 L 46.953125 245.371094 L 47.160156 245.355469 L 47.332031 245.371094 L 47.476563 245.410156 L 47.601563 245.472656 L 47.710938 245.558594 L 47.800781 245.667969 L 47.871094 245.804688 L 47.917969 245.953125 L 47.941406 246.125 L 47.945313 246.328125 L 47.40625 246.328125 L 47.394531 246.195313 L 47.363281 246.089844 L 47.308594 246.003906 L 47.242188 245.941406 L 47.15625 245.902344 L 47.050781 245.886719 L 46.910156 245.902344 L 46.789063 245.949219 L 46.683594 246.023438 L 46.597656 246.125 L 46.53125 246.253906 L 46.484375 246.410156 L 46.324219 247.179688 L 46.304688 247.339844 L 46.320313 247.460938 L 46.363281 247.566406 L 46.4375 247.640625 L 46.539063 247.683594 L 46.671875 247.699219 L 46.785156 247.6875 L 46.890625 247.648438 L 46.984375 247.585938 L 47.074219 247.5 L 47.148438 247.390625 L 47.214844 247.257813 L 47.753906 247.257813 L 47.664063 247.457031 L 47.566406 247.632813 L 47.457031 247.785156 L 47.328125 247.921875 L 47.195313 248.03125 L 47.050781 248.117188 L 46.894531 248.179688 L 46.734375 248.21875 Z "/>
<path style=" stroke:none;fill-rule:evenodd;fill:rgb(75.686275%,0%,87.843137%);fill-opacity:1;" d="M 49.625 245.367188 L 49.757813 245.398438 L 49.871094 245.449219 L 49.972656 245.519531 L 50.050781 245.605469 L 50.105469 245.707031 L 50.136719 245.820313 L 50.144531 245.949219 L 50.125 246.097656 L 50.109375 246.171875 L 50.078125 246.28125 L 50.019531 246.390625 L 49.941406 246.496094 L 49.796875 246.628906 L 49.628906 246.722656 L 49.734375 246.796875 L 49.816406 246.890625 L 49.878906 247.007813 L 49.914063 247.132813 L 49.925781 247.261719 L 49.910156 247.402344 L 49.902344 247.449219 L 49.859375 247.597656 L 49.792969 247.734375 L 49.707031 247.859375 L 49.605469 247.96875 L 49.484375 248.058594 L 49.34375 248.132813 L 49.195313 248.1875 L 49.039063 248.21875 L 48.867188 248.230469 L 48.691406 248.21875 L 48.546875 248.1875 L 48.425781 248.132813 L 48.316406 248.058594 L 48.234375 247.96875 L 48.175781 247.859375 L 48.144531 247.738281 L 48.136719 247.605469 L 48.152344 247.472656 L 48.679688 247.472656 L 48.695313 247.554688 L 48.734375 247.625 L 48.796875 247.675781 L 48.875 247.707031 L 48.972656 247.71875 L 49.074219 247.707031 L 49.164063 247.675781 L 49.246094 247.625 L 49.316406 247.554688 L 49.367188 247.46875 L 49.398438 247.371094 L 49.402344 247.34375 L 49.410156 247.253906 L 49.394531 247.175781 L 49.355469 247.113281 L 49.292969 247.066406 L 49.214844 247.035156 L 49.117188 247.027344 L 49.011719 247.035156 L 48.921875 247.066406 L 48.839844 247.113281 L 48.773438 247.179688 L 48.726563 247.257813 L 48.695313 247.34375 L 48.6875 247.375 L 48.679688 247.472656 L 48.152344 247.472656 L 48.164063 247.402344 L 48.207031 247.265625 L 48.269531 247.132813 L 48.359375 247.003906 L 48.46875 246.890625 L 48.589844 246.796875 L 48.722656 246.722656 L 48.632813 246.660156 L 48.5625 246.585938 L 48.507813 246.492188 L 48.476563 246.390625 L 48.464844 246.285156 L 48.980469 246.285156 L 48.992188 246.359375 L 49.027344 246.425781 L 49.074219 246.472656 L 49.140625 246.5 L 49.222656 246.511719 L 49.308594 246.5 L 49.386719 246.472656 L 49.457031 246.425781 L 49.515625 246.359375 L 49.558594 246.28125 L 49.585938 246.191406 L 49.59375 246.164063 L 49.601563 246.078125 L 49.585938 246.007813 L 49.554688 245.949219 L 49.503906 245.90625 L 49.441406 245.878906 L 49.355469 245.867188 L 49.269531 245.878906 L 49.191406 245.90625 L 49.125 245.949219 L 49.066406 246.007813 L 49.023438 246.082031 L 48.996094 246.167969 L 48.992188 246.195313 L 48.980469 246.285156 L 48.464844 246.285156 L 48.464844 246.28125 L 48.476563 246.171875 L 48.492188 246.097656 L 48.535156 245.953125 L 48.59375 245.824219 L 48.675781 245.707031 L 48.773438 245.605469 L 48.886719 245.519531 L 49.015625 245.449219 L 49.152344 245.398438 L 49.300781 245.367188 L 49.460938 245.355469 Z "/>
<path style=" stroke:none;fill-rule:evenodd;fill:rgb(75.686275%,0%,87.843137%);fill-opacity:1;" d="M 50.886719 246.597656 L 51.765625 246.597656 L 51.855469 246.585938 L 51.9375 246.554688 L 52.011719 246.503906 L 52.074219 246.433594 L 52.121094 246.347656 L 52.152344 246.25 L 52.164063 246.148438 L 52.152344 246.066406 L 52.121094 245.992188 L 52.070313 245.941406 L 52 245.910156 L 51.914063 245.898438 L 51.03125 245.898438 L 51.136719 245.386719 L 52.003906 245.386719 L 52.175781 245.398438 L 52.316406 245.433594 L 52.4375 245.492188 L 52.539063 245.574219 L 52.621094 245.675781 L 52.675781 245.796875 L 52.707031 245.929688 L 52.714844 246.078125 L 52.691406 246.25 L 52.644531 246.417969 L 52.578125 246.566406 L 52.488281 246.703125 L 52.382813 246.820313 L 52.261719 246.921875 L 52.121094 247.003906 L 51.972656 247.0625 L 51.816406 247.097656 L 51.648438 247.109375 L 50.78125 247.109375 Z "/>
<path style=" stroke:none;fill-rule:evenodd;fill:rgb(75.686275%,0%,87.843137%);fill-opacity:1;" d="M 50.902344 245.386719 L 51.421875 245.386719 L 50.835938 248.203125 L 50.316406 248.203125 Z "/>
<path style=" stroke:none;fill-rule:evenodd;fill:rgb(75.686275%,0%,87.843137%);fill-opacity:1;" d="M 56.167969 245.386719 L 56.851563 245.386719 L 56.265625 248.203125 L 55.792969 248.203125 L 56.25 246.015625 L 56.242188 246.140625 L 55.351563 247.886719 L 54.894531 247.886719 L 54.722656 246.179688 L 54.777344 246.015625 L 54.320313 248.203125 L 53.847656 248.203125 L 54.433594 245.386719 L 55.117188 245.386719 L 55.25 247.285156 Z "/>
<path style=" stroke:none;fill-rule:evenodd;fill:rgb(75.686275%,0%,87.843137%);fill-opacity:1;" d="M 57.441406 248.203125 L 56.902344 248.203125 L 57.488281 245.386719 L 58.027344 245.386719 Z "/>
<path style=" stroke:none;fill-rule:evenodd;fill:rgb(75.686275%,0%,87.843137%);fill-opacity:1;" d="M 58.398438 247.691406 L 59.058594 247.691406 L 59.226563 247.675781 L 59.363281 247.632813 L 59.480469 247.5625 L 59.578125 247.46875 L 59.648438 247.351563 L 59.695313 247.207031 L 59.867188 246.378906 L 59.882813 246.230469 L 59.859375 246.113281 L 59.800781 246.023438 L 59.71875 245.957031 L 59.597656 245.914063 L 59.433594 245.898438 L 58.773438 245.898438 L 58.878906 245.386719 L 59.527344 245.386719 L 59.753906 245.402344 L 59.941406 245.441406 L 60.089844 245.503906 L 60.222656 245.597656 L 60.320313 245.710938 L 60.390625 245.847656 L 60.425781 246 L 60.433594 246.179688 L 60.402344 246.394531 L 60.238281 247.191406 L 60.183594 247.390625 L 60.105469 247.566406 L 60.003906 247.722656 L 59.882813 247.863281 L 59.734375 247.980469 L 59.566406 248.074219 L 59.378906 248.144531 L 59.171875 248.1875 L 58.941406 248.203125 L 58.292969 248.203125 Z "/>
<path style=" stroke:none;fill-rule:evenodd;fill:rgb(75.686275%,0%,87.843137%);fill-opacity:1;" d="M 58.617188 245.386719 L 59.136719 245.386719 L 58.550781 248.203125 L 58.03125 248.203125 Z "/>
<path style=" stroke:none;fill-rule:evenodd;fill:rgb(75.686275%,0%,87.843137%);fill-opacity:1;" d="M 61.09375 248.203125 L 60.558594 248.203125 L 61.144531 245.386719 L 61.679688 245.386719 Z "/>
<path style=" stroke:none;fill-rule:evenodd;fill:rgb(75.686275%,0%,87.843137%);fill-opacity:1;" d="M 63.683594 248.230469 L 63.476563 248.214844 L 63.308594 248.171875 L 63.171875 248.109375 L 63.054688 248.011719 L 62.964844 247.894531 L 62.90625 247.75 L 62.875 247.589844 L 62.875 247.402344 L 62.90625 247.179688 L 63.066406 246.410156 L 63.125 246.191406 L 63.203125 246.003906 L 63.300781 245.839844 L 63.421875 245.695313 L 63.5625 245.574219 L 63.71875 245.480469 L 63.886719 245.414063 L 64.074219 245.371094 L 64.28125 245.355469 L 64.449219 245.371094 L 64.597656 245.410156 L 64.722656 245.472656 L 64.832031 245.558594 L 64.917969 245.667969 L 64.988281 245.804688 L 65.035156 245.953125 L 65.0625 246.125 L 65.066406 246.328125 L 64.527344 246.328125 L 64.515625 246.195313 L 64.484375 246.089844 L 64.429688 246.003906 L 64.363281 245.941406 L 64.277344 245.902344 L 64.171875 245.886719 L 64.03125 245.902344 L 63.910156 245.949219 L 63.804688 246.023438 L 63.714844 246.125 L 63.652344 246.253906 L 63.605469 246.410156 L 63.445313 247.179688 L 63.425781 247.339844 L 63.4375 247.460938 L 63.484375 247.566406 L 63.558594 247.640625 L 63.65625 247.683594 L 63.792969 247.699219 L 63.90625 247.6875 L 64.007813 247.648438 L 64.105469 247.585938 L 64.195313 247.5 L 64.269531 247.390625 L 64.335938 247.257813 L 64.871094 247.257813 L 64.785156 247.457031 L 64.6875 247.632813 L 64.578125 247.785156 L 64.449219 247.921875 L 64.3125 248.03125 L 64.171875 248.117188 L 64.015625 248.179688 L 63.855469 248.21875 Z "/>
<path style=" stroke:none;fill-rule:evenodd;fill:rgb(75.686275%,0%,87.843137%);fill-opacity:1;" d="M 66.558594 246.175781 L 66.703125 246.210938 L 66.820313 246.265625 L 66.921875 246.34375 L 66.996094 246.441406 L 67.046875 246.5625 L 67.074219 246.691406 L 67.074219 246.84375 L 67.050781 247.027344 L 66.980469 247.359375 L 66.933594 247.539063 L 66.867188 247.695313 L 66.785156 247.832031 L 66.683594 247.949219 L 66.566406 248.050781 L 66.433594 248.128906 L 66.289063 248.183594 L 66.128906 248.21875 L 65.953125 248.230469 L 65.773438 248.21875 L 65.628906 248.183594 L 65.511719 248.128906 L 65.414063 248.050781 L 65.339844 247.949219 L 65.285156 247.828125 L 65.261719 247.695313 L 65.257813 247.539063 L 65.269531 247.472656 L 65.789063 247.472656 L 65.800781 247.558594 L 65.832031 247.625 L 65.882813 247.675781 L 65.957031 247.707031 L 66.054688 247.71875 L 66.15625 247.707031 L 66.242188 247.675781 L 66.320313 247.625 L 66.382813 247.558594 L 66.429688 247.46875 L 66.460938 247.359375 L 66.53125 247.027344 L 66.542969 246.917969 L 66.53125 246.832031 L 66.5 246.765625 L 66.445313 246.71875 L 66.375 246.683594 L 66.273438 246.671875 L 66.171875 246.683594 L 66.085938 246.714844 L 66.011719 246.765625 L 65.953125 246.835938 L 65.90625 246.921875 L 65.871094 247.027344 L 65.800781 247.359375 L 65.789063 247.472656 L 65.269531 247.472656 L 65.285156 247.355469 L 65.351563 247.027344 L 65.402344 246.851563 L 65.46875 246.695313 L 65.550781 246.5625 L 65.652344 246.441406 L 65.769531 246.34375 L 65.902344 246.265625 L 66.046875 246.207031 L 66.203125 246.175781 L 66.382813 246.164063 Z "/>
<path style=" stroke:none;fill-rule:evenodd;fill:rgb(75.686275%,0%,87.843137%);fill-opacity:1;" d="M 67.742188 246.191406 L 68.261719 246.191406 L 67.84375 248.203125 L 67.324219 248.203125 Z "/>
<path style=" stroke:none;fill-rule:evenodd;fill:rgb(75.686275%,0%,87.843137%);fill-opacity:1;" d="M 68.714844 246.984375 L 68.726563 246.886719 L 68.710938 246.8125 L 68.679688 246.753906 L 68.632813 246.710938 L 68.5625 246.683594 L 68.464844 246.671875 L 68.371094 246.683594 L 68.292969 246.710938 L 68.222656 246.757813 L 68.167969 246.816406 L 68.125 246.890625 L 68.097656 246.988281 L 68.148438 246.542969 L 68.289063 246.371094 L 68.421875 246.257813 L 68.523438 246.207031 L 68.632813 246.171875 L 68.753906 246.164063 L 68.90625 246.179688 L 69.023438 246.21875 L 69.117188 246.285156 L 69.191406 246.375 L 69.238281 246.484375 L 69.261719 246.617188 L 69.265625 246.777344 L 69.234375 246.980469 L 68.980469 248.203125 L 68.460938 248.203125 Z "/>
<path style=" stroke:none;fill-rule:evenodd;fill:rgb(75.686275%,0%,87.843137%);fill-opacity:1;" d="M 70.089844 248.210938 L 69.921875 248.195313 L 69.8125 248.148438 L 69.738281 248.078125 L 69.695313 247.984375 L 69.679688 247.855469 L 69.703125 247.679688 L 70.132813 245.605469 L 70.652344 245.605469 L 70.246094 247.546875 L 70.242188 247.617188 L 70.253906 247.660156 L 70.28125 247.691406 L 70.328125 247.699219 L 70.457031 247.699219 L 70.351563 248.210938 Z "/>
<path style=" stroke:none;fill-rule:evenodd;fill:rgb(75.686275%,0%,87.843137%);fill-opacity:1;" d="M 69.808594 246.191406 L 70.769531 246.191406 L 70.675781 246.644531 L 69.714844 246.644531 Z "/>
<path style=" stroke:none;fill-rule:evenodd;fill:rgb(75.686275%,0%,87.843137%);fill-opacity:1;" d="M 71.253906 246.191406 L 71.808594 246.191406 L 71.390625 248.203125 L 70.835938 248.203125 Z "/>
<path style=" stroke:none;fill-rule:evenodd;fill:rgb(75.686275%,0%,87.843137%);fill-opacity:1;" d="M 72.242188 246.75 L 72.207031 246.71875 L 72.160156 246.691406 L 72.109375 246.679688 L 72.039063 246.671875 L 71.9375 246.6875 L 71.851563 246.71875 L 71.773438 246.777344 L 71.710938 246.851563 L 71.664063 246.945313 L 71.628906 247.066406 L 71.695313 246.542969 L 71.828125 246.378906 L 71.964844 246.261719 L 72.070313 246.207031 L 72.171875 246.171875 L 72.273438 246.164063 L 72.390625 246.171875 L 72.484375 246.203125 L 72.570313 246.25 L 72.636719 246.320313 Z "/>
<path style=" stroke:none;fill-rule:evenodd;fill:rgb(75.686275%,0%,87.843137%);fill-opacity:1;" d="M 73.878906 246.175781 L 74.023438 246.210938 L 74.140625 246.265625 L 74.242188 246.34375 L 74.316406 246.441406 L 74.371094 246.5625 L 74.394531 246.691406 L 74.398438 246.84375 L 74.371094 247.027344 L 74.304688 247.359375 L 74.253906 247.539063 L 74.1875 247.695313 L 74.105469 247.832031 L 74.003906 247.949219 L 73.886719 248.050781 L 73.753906 248.128906 L 73.609375 248.183594 L 73.449219 248.21875 L 73.273438 248.230469 L 73.097656 248.21875 L 72.953125 248.183594 L 72.835938 248.128906 L 72.734375 248.050781 L 72.660156 247.949219 L 72.609375 247.828125 L 72.582031 247.695313 L 72.582031 247.539063 L 72.589844 247.472656 L 73.113281 247.472656 L 73.125 247.558594 L 73.15625 247.625 L 73.207031 247.675781 L 73.277344 247.707031 L 73.378906 247.71875 L 73.480469 247.707031 L 73.566406 247.675781 L 73.640625 247.625 L 73.703125 247.558594 L 73.75 247.46875 L 73.785156 247.359375 L 73.851563 247.027344 L 73.867188 246.917969 L 73.851563 246.832031 L 73.820313 246.765625 L 73.769531 246.71875 L 73.695313 246.683594 L 73.59375 246.671875 L 73.496094 246.683594 L 73.410156 246.714844 L 73.335938 246.765625 L 73.273438 246.835938 L 73.226563 246.921875 L 73.195313 247.027344 L 73.125 247.359375 L 73.113281 247.472656 L 72.589844 247.472656 L 72.605469 247.355469 L 72.675781 247.027344 L 72.722656 246.851563 L 72.789063 246.695313 L 72.871094 246.5625 L 72.972656 246.441406 L 73.089844 246.34375 L 73.222656 246.265625 L 73.367188 246.207031 L 73.527344 246.175781 L 73.703125 246.164063 Z "/>
<path style=" stroke:none;fill-rule:evenodd;fill:rgb(75.686275%,0%,87.843137%);fill-opacity:1;" d="M 75.304688 247.539063 L 75.300781 247.605469 L 75.324219 247.652344 L 75.363281 247.679688 L 75.429688 247.691406 L 75.519531 247.691406 L 75.410156 248.203125 L 75.144531 248.203125 L 74.996094 248.183594 L 74.886719 248.136719 L 74.808594 248.0625 L 74.757813 247.964844 L 74.742188 247.835938 L 74.757813 247.667969 L 75.234375 245.386719 L 75.753906 245.386719 Z "/>
<path style=" stroke:none;fill-rule:evenodd;fill:rgb(75.686275%,0%,87.843137%);fill-opacity:1;" d="M 76.453125 247.539063 L 76.449219 247.605469 L 76.46875 247.652344 L 76.507813 247.679688 L 76.578125 247.691406 L 76.664063 247.691406 L 76.558594 248.203125 L 76.292969 248.203125 L 76.140625 248.183594 L 76.03125 248.136719 L 75.953125 248.0625 L 75.90625 247.964844 L 75.886719 247.835938 L 75.90625 247.667969 L 76.378906 245.386719 L 76.898438 245.386719 Z "/>
<path style=" stroke:none;fill-rule:evenodd;fill:rgb(75.686275%,0%,87.843137%);fill-opacity:1;" d="M 77.777344 248.230469 L 77.589844 248.21875 L 77.4375 248.179688 L 77.3125 248.125 L 77.207031 248.042969 L 77.125 247.941406 L 77.070313 247.816406 L 77.042969 247.679688 L 77.039063 247.519531 L 77.066406 247.332031 L 77.113281 247.105469 L 77.164063 246.910156 L 77.234375 246.742188 L 77.320313 246.59375 L 77.425781 246.464844 L 77.546875 246.355469 L 77.683594 246.273438 L 77.832031 246.210938 L 77.992188 246.175781 L 78.171875 246.164063 L 78.339844 246.179688 L 78.476563 246.222656 L 78.585938 246.292969 L 78.675781 246.390625 L 78.742188 246.515625 L 78.789063 246.675781 L 78.804688 246.84375 L 78.796875 247.042969 L 78.757813 247.28125 L 78.730469 247.414063 L 77.386719 247.414063 L 77.460938 247.054688 L 78.332031 247.054688 L 78.335938 247.007813 L 78.335938 246.894531 L 78.316406 246.804688 L 78.285156 246.738281 L 78.234375 246.6875 L 78.164063 246.65625 L 78.074219 246.644531 L 77.953125 246.65625 L 77.847656 246.695313 L 77.757813 246.757813 L 77.6875 246.84375 L 77.628906 246.949219 L 77.589844 247.082031 L 77.535156 247.335938 L 77.523438 247.472656 L 77.539063 247.574219 L 77.582031 247.65625 L 77.648438 247.714844 L 77.746094 247.753906 L 77.875 247.769531 L 77.976563 247.757813 L 78.089844 247.730469 L 78.195313 247.683594 L 78.296875 247.621094 L 78.570313 247.929688 L 78.382813 248.058594 L 78.179688 248.152344 L 77.972656 248.210938 Z "/>
<path style=" stroke:none;fill-rule:evenodd;fill:rgb(75.686275%,0%,87.843137%);fill-opacity:1;" d="M 79.484375 246.191406 L 80.042969 246.191406 L 79.625 248.203125 L 79.066406 248.203125 Z "/>
<path style=" stroke:none;fill-rule:evenodd;fill:rgb(75.686275%,0%,87.843137%);fill-opacity:1;" d="M 80.476563 246.75 L 80.441406 246.71875 L 80.394531 246.691406 L 80.339844 246.679688 L 80.273438 246.671875 L 80.171875 246.6875 L 80.085938 246.71875 L 80.007813 246.777344 L 79.945313 246.851563 L 79.894531 246.945313 L 79.859375 247.066406 L 79.929688 246.542969 L 80.058594 246.378906 L 80.199219 246.261719 L 80.304688 246.207031 L 80.40625 246.171875 L 80.503906 246.164063 L 80.625 246.171875 L 80.71875 246.203125 L 80.800781 246.25 L 80.867188 246.320313 Z "/>
<path style=" stroke:none;fill-rule:evenodd;fill:rgb(75.686275%,0%,87.843137%);fill-opacity:1;" d="M 42.527344 252.433594 L 43.046875 252.433594 L 42.933594 252.964844 L 42.417969 252.964844 Z "/>
<path style=" stroke:none;fill-rule:evenodd;fill:rgb(75.686275%,0%,87.843137%);fill-opacity:1;" d="M 44.808594 250.148438 L 45.140625 250.148438 L 45.605469 252.964844 L 45.046875 252.964844 L 44.789063 251.039063 L 43.730469 252.964844 L 43.171875 252.964844 Z "/>
<path style=" stroke:none;fill-rule:evenodd;fill:rgb(75.686275%,0%,87.843137%);fill-opacity:1;" d="M 43.878906 252 L 45.324219 252 L 45.21875 252.511719 L 43.769531 252.511719 Z "/>
<path style=" stroke:none;fill-rule:evenodd;fill:rgb(75.686275%,0%,87.843137%);fill-opacity:1;" d="M 46.925781 251.8125 L 46.894531 251.71875 L 46.308594 250.148438 L 46.855469 250.148438 L 47.25 251.214844 L 47.296875 251.339844 L 47.902344 252.964844 L 47.355469 252.964844 Z "/>
<path style=" stroke:none;fill-rule:evenodd;fill:rgb(75.686275%,0%,87.843137%);fill-opacity:1;" d="M 47.054688 251.230469 L 47.898438 250.148438 L 48.445313 250.148438 L 47.203125 251.738281 L 46.246094 252.964844 L 45.699219 252.964844 Z "/>
<path style=" stroke:none;fill-rule:evenodd;fill:rgb(75.686275%,0%,87.843137%);fill-opacity:1;" d="M 49 252.992188 L 48.804688 252.984375 L 48.621094 252.953125 L 48.449219 252.902344 L 48.292969 252.832031 L 48.152344 252.746094 L 48.035156 252.644531 L 48.367188 252.207031 L 48.511719 252.324219 L 48.691406 252.414063 L 48.890625 252.46875 L 49.105469 252.484375 L 49.269531 252.472656 L 49.40625 252.445313 L 49.515625 252.398438 L 49.609375 252.328125 L 49.671875 252.246094 L 49.707031 252.148438 L 49.714844 252.042969 L 49.683594 251.96875 L 49.625 251.914063 L 49.539063 251.871094 L 49.292969 251.816406 L 49.285156 251.8125 L 49.273438 251.8125 L 48.980469 251.753906 L 48.796875 251.695313 L 48.695313 251.640625 L 48.609375 251.5625 L 48.539063 251.460938 L 48.496094 251.34375 L 48.484375 251.191406 L 48.511719 250.984375 L 48.5625 250.804688 L 48.632813 250.652344 L 48.726563 250.515625 L 48.84375 250.398438 L 48.976563 250.300781 L 49.136719 250.222656 L 49.304688 250.164063 L 49.492188 250.132813 L 49.707031 250.121094 L 49.851563 250.128906 L 50 250.152344 L 50.144531 250.195313 L 50.28125 250.253906 L 50.410156 250.328125 L 50.527344 250.414063 L 50.214844 250.863281 L 50.074219 250.761719 L 49.917969 250.6875 L 49.757813 250.640625 L 49.601563 250.625 L 49.441406 250.636719 L 49.316406 250.664063 L 49.214844 250.707031 L 49.125 250.769531 L 49.070313 250.84375 L 49.035156 250.933594 L 49.03125 251.046875 L 49.0625 251.128906 L 49.125 251.1875 L 49.210938 251.230469 L 49.480469 251.300781 L 49.492188 251.304688 L 49.507813 251.304688 L 49.527344 251.3125 L 49.550781 251.316406 L 49.789063 251.375 L 49.960938 251.441406 L 50.058594 251.503906 L 50.136719 251.582031 L 50.203125 251.683594 L 50.242188 251.796875 L 50.25 251.945313 L 50.226563 252.136719 L 50.226563 252.140625 L 50.175781 252.3125 L 50.101563 252.464844 L 50.007813 252.601563 L 49.890625 252.714844 L 49.75 252.8125 L 49.585938 252.890625 L 49.414063 252.945313 L 49.21875 252.980469 Z "/>
<path style=" stroke:none;fill-rule:evenodd;fill:rgb(75.686275%,0%,87.843137%);fill-opacity:1;" d="M 52.144531 252.964844 L 51.605469 252.964844 L 52.191406 250.148438 L 52.730469 250.148438 Z "/>
<path style=" stroke:none;fill-rule:evenodd;fill:rgb(75.686275%,0%,87.843137%);fill-opacity:1;" d="M 53.117188 250.953125 L 53.636719 250.953125 L 53.21875 252.964844 L 52.699219 252.964844 Z "/>
<path style=" stroke:none;fill-rule:evenodd;fill:rgb(75.686275%,0%,87.843137%);fill-opacity:1;" d="M 54.089844 251.746094 L 54.097656 251.648438 L 54.085938 251.574219 L 54.054688 251.515625 L 54.003906 251.472656 L 53.933594 251.445313 L 53.835938 251.4375 L 53.742188 251.445313 L 53.664063 251.472656 L 53.597656 251.519531 L 53.542969 251.578125 L 53.5 251.65625 L 53.46875 251.75 L 53.523438 251.304688 L 53.660156 251.132813 L 53.792969 251.019531 L 53.894531 250.96875 L 54.003906 250.9375 L 54.125 250.925781 L 54.277344 250.941406 L 54.398438 250.980469 L 54.492188 251.046875 L 54.5625 251.140625 L 54.609375 251.246094 L 54.636719 251.378906 L 54.636719 251.542969 L 54.605469 251.742188 L 54.355469 252.964844 L 53.835938 252.964844 Z "/>
<path style=" stroke:none;fill-rule:evenodd;fill:rgb(75.686275%,0%,87.843137%);fill-opacity:1;" d="M 55.660156 252.992188 L 55.484375 252.984375 L 55.324219 252.960938 L 55.167969 252.921875 L 55.03125 252.867188 L 54.90625 252.796875 L 54.804688 252.71875 L 55.207031 252.308594 L 55.335938 252.390625 L 55.476563 252.453125 L 55.621094 252.492188 L 55.761719 252.503906 L 55.933594 252.492188 L 56.050781 252.460938 L 56.140625 252.40625 L 56.175781 252.347656 L 56.175781 252.285156 L 56.15625 252.242188 L 56.113281 252.214844 L 56.054688 252.195313 L 55.867188 252.167969 L 55.800781 252.160156 L 55.730469 252.152344 L 55.714844 252.148438 L 55.699219 252.148438 L 55.496094 252.113281 L 55.359375 252.078125 L 55.285156 252.039063 L 55.222656 251.984375 L 55.171875 251.914063 L 55.140625 251.828125 L 55.132813 251.714844 L 55.152344 251.5625 L 55.191406 251.433594 L 55.246094 251.316406 L 55.320313 251.21875 L 55.40625 251.128906 L 55.515625 251.058594 L 55.636719 251 L 55.84375 250.945313 L 56.089844 250.925781 L 56.238281 250.933594 L 56.382813 250.957031 L 56.519531 250.992188 L 56.648438 251.046875 L 56.765625 251.109375 L 56.871094 251.183594 L 56.480469 251.570313 L 56.363281 251.503906 L 56.238281 251.457031 L 56.105469 251.425781 L 55.976563 251.414063 L 55.828125 251.425781 L 55.722656 251.453125 L 55.648438 251.5 L 55.617188 251.554688 L 55.617188 251.597656 L 55.644531 251.632813 L 55.691406 251.65625 L 55.753906 251.671875 L 55.949219 251.703125 L 55.980469 251.707031 L 56.015625 251.707031 L 56.03125 251.710938 L 56.050781 251.710938 L 56.261719 251.746094 L 56.40625 251.78125 L 56.492188 251.820313 L 56.558594 251.875 L 56.617188 251.953125 L 56.652344 252.042969 L 56.660156 252.164063 L 56.640625 252.328125 L 56.601563 252.464844 L 56.542969 252.582031 L 56.46875 252.6875 L 56.375 252.777344 L 56.261719 252.851563 L 56.132813 252.914063 L 55.992188 252.957031 L 55.835938 252.984375 Z "/>
<path style=" stroke:none;fill-rule:evenodd;fill:rgb(75.686275%,0%,87.843137%);fill-opacity:1;" d="M 57.519531 252.972656 L 57.351563 252.957031 L 57.242188 252.910156 L 57.167969 252.839844 L 57.125 252.746094 L 57.109375 252.617188 L 57.132813 252.441406 L 57.5625 250.367188 L 58.082031 250.367188 L 57.675781 252.308594 L 57.671875 252.378906 L 57.683594 252.421875 L 57.710938 252.453125 L 57.757813 252.460938 L 57.886719 252.460938 L 57.78125 252.972656 Z "/>
<path style=" stroke:none;fill-rule:evenodd;fill:rgb(75.686275%,0%,87.843137%);fill-opacity:1;" d="M 57.238281 250.953125 L 58.199219 250.953125 L 58.105469 251.40625 L 57.144531 251.40625 Z "/>
<path style=" stroke:none;fill-rule:evenodd;fill:rgb(75.686275%,0%,87.843137%);fill-opacity:1;" d="M 58.683594 250.953125 L 59.238281 250.953125 L 58.820313 252.964844 L 58.265625 252.964844 Z "/>
<path style=" stroke:none;fill-rule:evenodd;fill:rgb(75.686275%,0%,87.843137%);fill-opacity:1;" d="M 59.671875 251.511719 L 59.636719 251.480469 L 59.589844 251.457031 L 59.539063 251.441406 L 59.46875 251.4375 L 59.367188 251.449219 L 59.28125 251.480469 L 59.203125 251.539063 L 59.140625 251.613281 L 59.09375 251.707031 L 59.058594 251.828125 L 59.125 251.304688 L 59.257813 251.140625 L 59.394531 251.023438 L 59.5 250.96875 L 59.601563 250.933594 L 59.703125 250.925781 L 59.820313 250.933594 L 59.917969 250.964844 L 60 251.015625 L 60.066406 251.082031 Z "/>
<path style=" stroke:none;fill-rule:evenodd;fill:rgb(75.686275%,0%,87.843137%);fill-opacity:1;" d="M 61.503906 250.953125 L 62.019531 250.953125 L 61.601563 252.964844 L 61.085938 252.964844 Z "/>
<path style=" stroke:none;fill-rule:evenodd;fill:rgb(75.686275%,0%,87.843137%);fill-opacity:1;" d="M 60.640625 252.175781 L 60.628906 252.269531 L 60.640625 252.34375 L 60.671875 252.402344 L 60.722656 252.445313 L 60.789063 252.472656 L 60.882813 252.480469 L 60.976563 252.472656 L 61.054688 252.445313 L 61.125 252.398438 L 61.179688 252.339844 L 61.222656 252.261719 L 61.25 252.164063 L 61.1875 252.605469 L 61.082031 252.753906 L 60.945313 252.878906 L 60.839844 252.941406 L 60.730469 252.980469 L 60.613281 252.992188 L 60.457031 252.976563 L 60.335938 252.9375 L 60.238281 252.871094 L 60.167969 252.785156 L 60.117188 252.679688 L 60.089844 252.550781 L 60.089844 252.390625 L 60.117188 252.195313 L 60.375 250.953125 L 60.894531 250.953125 Z "/>
<path style=" stroke:none;fill-rule:evenodd;fill:rgb(75.686275%,0%,87.843137%);fill-opacity:1;" d="M 64.695313 251.804688 L 64.707031 251.6875 L 64.699219 251.597656 L 64.667969 251.53125 L 64.621094 251.480469 L 64.550781 251.449219 L 64.453125 251.4375 L 64.359375 251.445313 L 64.277344 251.476563 L 64.203125 251.527344 L 64.148438 251.59375 L 64.101563 251.679688 L 64.070313 251.789063 L 64.070313 251.324219 L 64.164063 251.203125 L 64.265625 251.105469 L 64.375 251.027344 L 64.488281 250.96875 L 64.605469 250.9375 L 64.726563 250.925781 L 64.863281 250.9375 L 64.976563 250.972656 L 65.066406 251.027344 L 65.140625 251.105469 L 65.195313 251.203125 L 65.234375 251.328125 L 65.246094 251.460938 L 65.242188 251.617188 L 65.214844 251.800781 L 64.972656 252.964844 L 64.453125 252.964844 Z "/>
<path style=" stroke:none;fill-rule:evenodd;fill:rgb(75.686275%,0%,87.843137%);fill-opacity:1;" d="M 62.578125 250.953125 L 63.097656 250.953125 L 62.679688 252.964844 L 62.160156 252.964844 Z "/>
<path style=" stroke:none;fill-rule:evenodd;fill:rgb(75.686275%,0%,87.843137%);fill-opacity:1;" d="M 63.546875 251.804688 L 63.5625 251.6875 L 63.550781 251.597656 L 63.519531 251.53125 L 63.46875 251.480469 L 63.398438 251.449219 L 63.296875 251.4375 L 63.207031 251.445313 L 63.128906 251.472656 L 63.058594 251.519531 L 63.003906 251.578125 L 62.960938 251.65625 L 62.933594 251.75 L 62.984375 251.304688 L 63.121094 251.136719 L 63.261719 251.023438 L 63.367188 250.96875 L 63.472656 250.9375 L 63.589844 250.925781 L 63.722656 250.9375 L 63.835938 250.972656 L 63.925781 251.027344 L 63.996094 251.105469 L 64.050781 251.203125 L 64.089844 251.328125 L 64.101563 251.460938 L 64.097656 251.617188 L 64.066406 251.800781 L 63.824219 252.964844 L 63.308594 252.964844 Z "/>
<path style=" stroke:none;fill-rule:evenodd;fill:rgb(75.686275%,0%,87.843137%);fill-opacity:1;" d="M 66.394531 252.992188 L 66.207031 252.980469 L 66.054688 252.945313 L 65.933594 252.886719 L 65.824219 252.804688 L 65.746094 252.703125 L 65.6875 252.578125 L 65.660156 252.441406 L 65.65625 252.28125 L 65.683594 252.09375 L 65.730469 251.867188 L 65.78125 251.671875 L 65.851563 251.503906 L 65.9375 251.355469 L 66.042969 251.226563 L 66.164063 251.121094 L 66.300781 251.035156 L 66.449219 250.976563 L 66.613281 250.9375 L 66.792969 250.925781 L 66.957031 250.941406 L 67.09375 250.984375 L 67.207031 251.054688 L 67.292969 251.152344 L 67.363281 251.277344 L 67.40625 251.4375 L 67.421875 251.605469 L 67.414063 251.804688 L 67.375 252.042969 L 67.347656 252.175781 L 66.003906 252.175781 L 66.078125 251.816406 L 66.949219 251.816406 L 66.953125 251.769531 L 66.953125 251.65625 L 66.933594 251.570313 L 66.902344 251.5 L 66.851563 251.449219 L 66.78125 251.417969 L 66.691406 251.40625 L 66.570313 251.421875 L 66.46875 251.457031 L 66.378906 251.519531 L 66.304688 251.605469 L 66.246094 251.710938 L 66.207031 251.84375 L 66.152344 252.101563 L 66.140625 252.234375 L 66.15625 252.339844 L 66.199219 252.417969 L 66.269531 252.476563 L 66.363281 252.515625 L 66.492188 252.53125 L 66.597656 252.519531 L 66.707031 252.492188 L 66.8125 252.445313 L 66.914063 252.386719 L 67.1875 252.691406 L 67 252.820313 L 66.796875 252.914063 L 66.589844 252.972656 Z "/>
<path style=" stroke:none;fill-rule:evenodd;fill:rgb(75.686275%,0%,87.843137%);fill-opacity:1;" d="M 68.105469 250.953125 L 68.621094 250.953125 L 68.207031 252.964844 L 67.6875 252.964844 Z "/>
<path style=" stroke:none;fill-rule:evenodd;fill:rgb(75.686275%,0%,87.843137%);fill-opacity:1;" d="M 69.074219 251.746094 L 69.085938 251.648438 L 69.074219 251.574219 L 69.039063 251.515625 L 68.992188 251.472656 L 68.921875 251.445313 L 68.824219 251.4375 L 68.730469 251.445313 L 68.652344 251.472656 L 68.582031 251.519531 L 68.527344 251.578125 L 68.488281 251.65625 L 68.457031 251.75 L 68.511719 251.304688 L 68.648438 251.132813 L 68.78125 251.019531 L 68.882813 250.96875 L 68.992188 250.9375 L 69.113281 250.925781 L 69.265625 250.941406 L 69.386719 250.980469 L 69.476563 251.046875 L 69.550781 251.140625 L 69.597656 251.246094 L 69.621094 251.378906 L 69.625 251.542969 L 69.59375 251.742188 L 69.339844 252.964844 L 68.824219 252.964844 Z "/>
<path style=" stroke:none;fill-rule:evenodd;fill:rgb(75.686275%,0%,87.843137%);fill-opacity:1;" d="M 70.449219 252.972656 L 70.28125 252.957031 L 70.171875 252.910156 L 70.097656 252.839844 L 70.054688 252.746094 L 70.039063 252.617188 L 70.0625 252.441406 L 70.492188 250.367188 L 71.011719 250.367188 L 70.609375 252.308594 L 70.601563 252.378906 L 70.613281 252.421875 L 70.640625 252.453125 L 70.6875 252.460938 L 70.816406 252.460938 L 70.710938 252.972656 Z "/>
<path style=" stroke:none;fill-rule:evenodd;fill:rgb(75.686275%,0%,87.843137%);fill-opacity:1;" d="M 70.167969 250.953125 L 71.128906 250.953125 L 71.035156 251.40625 L 70.074219 251.40625 Z "/>
<path style=" stroke:none;fill-rule:evenodd;fill:rgb(75.686275%,0%,87.843137%);fill-opacity:1;" d="M 71.941406 252.992188 L 71.765625 252.984375 L 71.605469 252.960938 L 71.449219 252.921875 L 71.3125 252.867188 L 71.1875 252.796875 L 71.085938 252.71875 L 71.488281 252.308594 L 71.617188 252.390625 L 71.757813 252.453125 L 71.902344 252.492188 L 72.042969 252.503906 L 72.214844 252.492188 L 72.332031 252.460938 L 72.421875 252.40625 L 72.457031 252.347656 L 72.457031 252.285156 L 72.433594 252.242188 L 72.394531 252.214844 L 72.332031 252.195313 L 72.148438 252.167969 L 72.082031 252.160156 L 72.011719 252.152344 L 71.996094 252.148438 L 71.980469 252.148438 L 71.777344 252.113281 L 71.640625 252.078125 L 71.566406 252.039063 L 71.503906 251.984375 L 71.453125 251.914063 L 71.421875 251.828125 L 71.414063 251.714844 L 71.433594 251.5625 L 71.472656 251.433594 L 71.527344 251.316406 L 71.601563 251.21875 L 71.6875 251.128906 L 71.796875 251.058594 L 71.917969 251 L 72.125 250.945313 L 72.371094 250.925781 L 72.519531 250.933594 L 72.664063 250.957031 L 72.800781 250.992188 L 72.929688 251.046875 L 73.046875 251.109375 L 73.152344 251.183594 L 72.761719 251.570313 L 72.644531 251.503906 L 72.519531 251.457031 L 72.386719 251.425781 L 72.257813 251.414063 L 72.109375 251.425781 L 72.003906 251.453125 L 71.929688 251.5 L 71.898438 251.554688 L 71.898438 251.597656 L 71.925781 251.632813 L 71.972656 251.65625 L 72.035156 251.671875 L 72.230469 251.703125 L 72.261719 251.707031 L 72.296875 251.707031 L 72.3125 251.710938 L 72.328125 251.710938 L 72.542969 251.746094 L 72.6875 251.78125 L 72.773438 251.820313 L 72.839844 251.875 L 72.898438 251.953125 L 72.933594 252.042969 L 72.941406 252.164063 L 72.921875 252.328125 L 72.882813 252.464844 L 72.824219 252.582031 L 72.75 252.6875 L 72.65625 252.777344 L 72.542969 252.851563 L 72.414063 252.914063 L 72.273438 252.957031 L 72.117188 252.984375 Z "/>
<path style=" stroke:none;fill-rule:evenodd;fill:rgb(75.686275%,0%,87.843137%);fill-opacity:1;" d="M 51.304688 75.203125 C 51.304688 72.5625 47.34375 72.5625 47.34375 75.203125 C 47.34375 77.84375 51.304688 77.84375 51.304688 75.203125 "/>
<path style=" stroke:none;fill-rule:evenodd;fill:rgb(75.686275%,0%,87.843137%);fill-opacity:1;" d="M 51.304688 53.601563 C 51.304688 50.964844 47.34375 50.964844 47.34375 53.601563 C 47.34375 56.242188 51.304688 56.242188 51.304688 53.601563 "/>
<path style=" stroke:none;fill-rule:evenodd;fill:rgb(75.686275%,0%,87.843137%);fill-opacity:1;" d="M 313.507813 74.863281 C 313.507813 72.222656 309.546875 72.222656 309.546875 74.863281 C 309.546875 77.503906 313.507813 77.503906 313.507813 74.863281 "/>
<path style=" stroke:none;fill-rule:evenodd;fill:rgb(75.686275%,0%,87.843137%);fill-opacity:1;" d="M 291.90625 74.863281 C 291.90625 72.222656 287.949219 72.222656 287.949219 74.863281 C 287.949219 77.503906 291.90625 77.503906 291.90625 74.863281 "/>
<path style=" stroke:none;fill-rule:evenodd;fill:rgb(75.686275%,0%,87.843137%);fill-opacity:1;" d="M 313.507813 86.203125 C 313.507813 83.5625 309.546875 83.5625 309.546875 86.203125 C 309.546875 88.839844 313.507813 88.839844 313.507813 86.203125 "/>
<path style=" stroke:none;fill-rule:evenodd;fill:rgb(75.686275%,0%,87.843137%);fill-opacity:1;" d="M 291.90625 86.203125 C 291.90625 83.5625 287.949219 83.5625 287.949219 86.203125 C 287.949219 88.839844 291.90625 88.839844 291.90625 86.203125 "/>
<path style=" stroke:none;fill-rule:evenodd;fill:rgb(75.686275%,0%,87.843137%);fill-opacity:1;" d="M 76.796875 213.800781 C 76.796875 208.546875 68.917969 208.546875 68.917969 213.800781 L 68.917969 215.105469 C 68.917969 220.359375 76.796875 220.359375 76.796875 215.105469 L 76.796875 213.800781 "/>
<path style=" stroke:none;fill-rule:evenodd;fill:rgb(75.686275%,0%,87.843137%);fill-opacity:1;" d="M 49.585938 213.800781 C 49.585938 208.546875 41.707031 208.546875 41.707031 213.800781 L 41.707031 215.105469 C 41.707031 220.359375 49.585938 220.359375 49.585938 215.105469 L 49.585938 213.800781 "/>
<path style=" stroke:none;fill-rule:evenodd;fill:rgb(75.686275%,0%,87.843137%);fill-opacity:1;" d="M 63.503906 196.027344 L 69.171875 196.027344 L 69.171875 190.359375 L 63.503906 190.359375 Z "/>
<path style=" stroke:none;fill-rule:evenodd;fill:rgb(75.686275%,0%,87.843137%);fill-opacity:1;" d="M 62.085938 193.191406 C 62.085938 189.414063 56.417969 189.414063 56.417969 193.191406 C 56.417969 196.972656 62.085938 196.972656 62.085938 193.191406 "/>
<path style=" stroke:none;fill-rule:evenodd;fill:rgb(75.686275%,0%,87.843137%);fill-opacity:1;" d="M 55 193.191406 C 55 189.414063 49.332031 189.414063 49.332031 193.191406 C 49.332031 196.972656 55 196.972656 55 193.191406 "/>
<path style=" stroke:none;fill-rule:evenodd;fill:rgb(75.686275%,0%,87.843137%);fill-opacity:1;" d="M 141.996094 213.800781 C 141.996094 208.546875 134.113281 208.546875 134.113281 213.800781 L 134.113281 215.105469 C 134.113281 220.359375 141.996094 220.359375 141.996094 215.105469 L 141.996094 213.800781 "/>
<path style=" stroke:none;fill-rule:evenodd;fill:rgb(75.686275%,0%,87.843137%);fill-opacity:1;" d="M 114.78125 213.800781 C 114.78125 208.546875 106.902344 208.546875 106.902344 213.800781 L 106.902344 215.105469 C 106.902344 220.359375 114.78125 220.359375 114.78125 215.105469 L 114.78125 213.800781 "/>
<path style=" stroke:none;fill-rule:evenodd;fill:rgb(75.686275%,0%,87.843137%);fill-opacity:1;" d="M 128.699219 196.027344 L 134.367188 196.027344 L 134.367188 190.359375 L 128.699219 190.359375 Z "/>
<path style=" stroke:none;fill-rule:evenodd;fill:rgb(75.686275%,0%,87.843137%);fill-opacity:1;" d="M 127.285156 193.191406 C 127.285156 189.414063 121.613281 189.414063 121.613281 193.191406 C 121.613281 196.972656 127.285156 196.972656 127.285156 193.191406 "/>
<path style=" stroke:none;fill-rule:evenodd;fill:rgb(75.686275%,0%,87.843137%);fill-opacity:1;" d="M 120.195313 193.191406 C 120.195313 189.414063 114.527344 189.414063 114.527344 193.191406 C 114.527344 196.972656 120.195313 196.972656 120.195313 193.191406 "/>
<path style=" stroke:none;fill-rule:evenodd;fill:rgb(75.686275%,0%,87.843137%);fill-opacity:1;" d="M 396.453125 96.988281 C 396.453125 91.695313 388.515625 91.695313 388.515625 96.988281 C 388.515625 102.277344 396.453125 102.277344 396.453125 96.988281 "/>
<path style=" stroke:none;fill-rule:evenodd;fill:rgb(75.686275%,0%,87.843137%);fill-opacity:1;" d="M 396.453125 30.375 C 396.453125 25.082031 388.515625 25.082031 388.515625 30.375 C 388.515625 35.664063 396.453125 35.664063 396.453125 30.375 "/>
<path style=" stroke:none;fill-rule:evenodd;fill:rgb(75.686275%,0%,87.843137%);fill-opacity:1;" d="M 329.839844 96.988281 C 329.839844 91.695313 321.902344 91.695313 321.902344 96.988281 C 321.902344 102.277344 329.839844 102.277344 329.839844 96.988281 "/>
<path style=" stroke:none;fill-rule:evenodd;fill:rgb(75.686275%,0%,87.843137%);fill-opacity:1;" d="M 329.839844 30.375 C 329.839844 25.082031 321.902344 25.082031 321.902344 30.375 C 321.902344 35.664063 329.839844 35.664063 329.839844 30.375 "/>
<path style=" stroke:none;fill-rule:evenodd;fill:rgb(75.686275%,0%,87.843137%);fill-opacity:1;" d="M 372.246094 30.375 C 372.246094 27.347656 367.710938 27.347656 367.710938 30.375 C 367.710938 33.398438 372.246094 33.398438 372.246094 30.375 "/>
<path style=" stroke:none;fill-rule:evenodd;fill:rgb(75.686275%,0%,87.843137%);fill-opacity:1;" d="M 365.046875 30.375 C 365.046875 27.347656 360.511719 27.347656 360.511719 30.375 C 360.511719 33.398438 365.046875 33.398438 365.046875 30.375 "/>
<path style=" stroke:none;fill-rule:evenodd;fill:rgb(75.686275%,0%,87.843137%);fill-opacity:1;" d="M 357.84375 30.375 C 357.84375 27.347656 353.308594 27.347656 353.308594 30.375 C 353.308594 33.398438 357.84375 33.398438 357.84375 30.375 "/>
<path style=" stroke:none;fill-rule:evenodd;fill:rgb(75.686275%,0%,87.843137%);fill-opacity:1;" d="M 350.644531 30.375 C 350.644531 27.347656 346.109375 27.347656 346.109375 30.375 C 346.109375 33.398438 350.644531 33.398438 350.644531 30.375 "/>
<path style=" stroke:none;fill-rule:evenodd;fill:rgb(75.686275%,0%,87.843137%);fill-opacity:1;" d="M 35.148438 23.839844 C 35.148438 19.925781 31.976563 16.753906 28.0625 16.753906 C 24.148438 16.753906 20.976563 19.925781 20.976563 23.839844 C 20.976563 27.753906 24.148438 30.925781 28.0625 30.925781 C 31.976563 30.925781 35.148438 27.753906 35.148438 23.839844 "/>
<path style=" stroke:none;fill-rule:evenodd;fill:rgb(75.686275%,0%,87.843137%);fill-opacity:1;" d="M 313.507813 97.824219 C 313.507813 95.183594 309.546875 95.183594 309.546875 97.824219 C 309.546875 100.464844 313.507813 100.464844 313.507813 97.824219 "/>
<path style=" stroke:none;fill-rule:evenodd;fill:rgb(75.686275%,0%,87.843137%);fill-opacity:1;" d="M 291.90625 97.824219 C 291.90625 95.183594 287.949219 95.183594 287.949219 97.824219 C 287.949219 100.464844 291.90625 100.464844 291.90625 97.824219 "/>
<path style=" stroke:none;fill-rule:evenodd;fill:rgb(75.686275%,0%,87.843137%);fill-opacity:1;" d="M 375.308594 152.105469 C 375.308594 148.894531 370.488281 148.894531 370.488281 152.105469 C 370.488281 155.320313 375.308594 155.320313 375.308594 152.105469 "/>
<path style=" stroke:none;fill-rule:evenodd;fill:rgb(75.686275%,0%,87.843137%);fill-opacity:1;" d="M 392.96875 152.105469 C 392.96875 148.976563 390.429688 146.4375 387.296875 146.4375 C 384.167969 146.4375 381.628906 148.976563 381.628906 152.105469 C 381.628906 155.238281 384.167969 157.777344 387.296875 157.777344 C 390.429688 157.777344 392.96875 155.238281 392.96875 152.105469 "/>
<path style=" stroke:none;fill-rule:evenodd;fill:rgb(75.686275%,0%,87.843137%);fill-opacity:1;" d="M 404.105469 152.105469 C 404.105469 148.894531 399.289063 148.894531 399.289063 152.105469 C 399.289063 155.320313 404.105469 155.320313 404.105469 152.105469 "/>
<path style=" stroke:none;fill-rule:evenodd;fill:rgb(75.686275%,0%,87.843137%);fill-opacity:1;" d="M 397.617188 137.707031 C 397.617188 133.550781 391.378906 133.550781 391.378906 137.707031 C 391.378906 141.863281 397.617188 141.863281 397.617188 137.707031 "/>
<path style=" stroke:none;fill-rule:evenodd;fill:rgb(75.686275%,0%,87.843137%);fill-opacity:1;" d="M 379.617188 144.90625 C 379.617188 140.75 373.378906 140.75 373.378906 144.90625 C 373.378906 149.066406 379.617188 149.066406 379.617188 144.90625 "/>
<path style=" stroke:none;fill-rule:evenodd;fill:rgb(75.686275%,0%,87.843137%);fill-opacity:1;" d="M 200.410156 100.375 C 200.410156 97.351563 195.875 97.351563 195.875 100.375 C 195.875 103.398438 200.410156 103.398438 200.410156 100.375 "/>
<path style=" stroke:none;fill-rule:evenodd;fill:rgb(75.686275%,0%,87.843137%);fill-opacity:1;" d="M 200.410156 79.113281 C 200.410156 76.089844 195.875 76.089844 195.875 79.113281 C 195.875 82.136719 200.410156 82.136719 200.410156 79.113281 "/>
<path style=" stroke:none;fill-rule:evenodd;fill:rgb(75.686275%,0%,87.843137%);fill-opacity:1;" d="M 440.503906 23.839844 C 440.503906 19.925781 437.332031 16.753906 433.417969 16.753906 C 429.503906 16.753906 426.332031 19.925781 426.332031 23.839844 C 426.332031 27.753906 429.503906 30.925781 433.417969 30.925781 C 437.332031 30.925781 440.503906 27.753906 440.503906 23.839844 "/>
<path style=" stroke:none;fill-rule:evenodd;fill:rgb(75.686275%,0%,87.843137%);fill-opacity:1;" d="M 141.996094 145.882813 C 141.996094 140.628906 134.113281 140.628906 134.113281 145.882813 L 134.113281 147.1875 C 134.113281 152.441406 141.996094 152.441406 141.996094 147.1875 L 141.996094 145.882813 "/>
<path style=" stroke:none;fill-rule:evenodd;fill:rgb(75.686275%,0%,87.843137%);fill-opacity:1;" d="M 114.78125 145.882813 C 114.78125 140.628906 106.902344 140.628906 106.902344 145.882813 L 106.902344 147.1875 C 106.902344 152.441406 114.78125 152.441406 114.78125 147.1875 L 114.78125 145.882813 "/>
<path style=" stroke:none;fill-rule:evenodd;fill:rgb(75.686275%,0%,87.843137%);fill-opacity:1;" d="M 128.699219 128.109375 L 134.367188 128.109375 L 134.367188 122.441406 L 128.699219 122.441406 Z "/>
<path style=" stroke:none;fill-rule:evenodd;fill:rgb(75.686275%,0%,87.843137%);fill-opacity:1;" d="M 127.285156 125.273438 C 127.285156 121.496094 121.613281 121.496094 121.613281 125.273438 C 121.613281 129.054688 127.285156 129.054688 127.285156 125.273438 "/>
<path style=" stroke:none;fill-rule:evenodd;fill:rgb(75.686275%,0%,87.843137%);fill-opacity:1;" d="M 120.195313 125.273438 C 120.195313 121.496094 114.527344 121.496094 114.527344 125.273438 C 114.527344 129.054688 120.195313 129.054688 120.195313 125.273438 "/>
<path style=" stroke:none;fill-rule:evenodd;fill:rgb(75.686275%,0%,87.843137%);fill-opacity:1;" d="M 242.929688 100.375 C 242.929688 97.351563 238.394531 97.351563 238.394531 100.375 C 238.394531 103.398438 242.929688 103.398438 242.929688 100.375 "/>
<path style=" stroke:none;fill-rule:evenodd;fill:rgb(75.686275%,0%,87.843137%);fill-opacity:1;" d="M 242.929688 79.113281 C 242.929688 76.089844 238.394531 76.089844 238.394531 79.113281 C 238.394531 82.136719 242.929688 82.136719 242.929688 79.113281 "/>
<path style=" stroke:none;fill-rule:evenodd;fill:rgb(75.686275%,0%,87.843137%);fill-opacity:1;" d="M 272.390625 145.882813 C 272.390625 140.628906 264.507813 140.628906 264.507813 145.882813 L 264.507813 147.1875 C 264.507813 152.441406 272.390625 152.441406 272.390625 147.1875 L 272.390625 145.882813 "/>
<path style=" stroke:none;fill-rule:evenodd;fill:rgb(75.686275%,0%,87.843137%);fill-opacity:1;" d="M 245.175781 145.882813 C 245.175781 140.628906 237.296875 140.628906 237.296875 145.882813 L 237.296875 147.1875 C 237.296875 152.441406 245.175781 152.441406 245.175781 147.1875 L 245.175781 145.882813 "/>
<path style=" stroke:none;fill-rule:evenodd;fill:rgb(75.686275%,0%,87.843137%);fill-opacity:1;" d="M 259.09375 128.109375 L 264.761719 128.109375 L 264.761719 122.441406 L 259.09375 122.441406 Z "/>
<path style=" stroke:none;fill-rule:evenodd;fill:rgb(75.686275%,0%,87.843137%);fill-opacity:1;" d="M 257.675781 125.273438 C 257.675781 121.496094 252.007813 121.496094 252.007813 125.273438 C 252.007813 129.054688 257.675781 129.054688 257.675781 125.273438 "/>
<path style=" stroke:none;fill-rule:evenodd;fill:rgb(75.686275%,0%,87.843137%);fill-opacity:1;" d="M 250.589844 125.273438 C 250.589844 121.496094 244.921875 121.496094 244.921875 125.273438 C 244.921875 129.054688 250.589844 129.054688 250.589844 125.273438 "/>
<path style=" stroke:none;fill-rule:evenodd;fill:rgb(75.686275%,0%,87.843137%);fill-opacity:1;" d="M 172.0625 100.375 C 172.0625 97.351563 167.527344 97.351563 167.527344 100.375 C 167.527344 103.398438 172.0625 103.398438 172.0625 100.375 "/>
<path style=" stroke:none;fill-rule:evenodd;fill:rgb(75.686275%,0%,87.843137%);fill-opacity:1;" d="M 172.0625 79.113281 C 172.0625 76.089844 167.527344 76.089844 167.527344 79.113281 C 167.527344 82.136719 172.0625 82.136719 172.0625 79.113281 "/>
<path style=" stroke:none;fill-rule:evenodd;fill:rgb(75.686275%,0%,87.843137%);fill-opacity:1;" d="M 317.960938 208.800781 C 317.960938 205.585938 313.144531 205.585938 313.144531 208.800781 C 313.144531 212.011719 317.960938 212.011719 317.960938 208.800781 "/>
<path style=" stroke:none;fill-rule:evenodd;fill:rgb(75.686275%,0%,87.843137%);fill-opacity:1;" d="M 335.621094 208.800781 C 335.621094 205.667969 333.082031 203.128906 329.953125 203.128906 C 326.820313 203.128906 324.285156 205.667969 324.285156 208.800781 C 324.285156 211.929688 326.820313 214.46875 329.953125 214.46875 C 333.082031 214.46875 335.621094 211.929688 335.621094 208.800781 "/>
<path style=" stroke:none;fill-rule:evenodd;fill:rgb(75.686275%,0%,87.843137%);fill-opacity:1;" d="M 346.761719 208.800781 C 346.761719 205.585938 341.941406 205.585938 341.941406 208.800781 C 341.941406 212.011719 346.761719 212.011719 346.761719 208.800781 "/>
<path style=" stroke:none;fill-rule:evenodd;fill:rgb(75.686275%,0%,87.843137%);fill-opacity:1;" d="M 340.269531 194.398438 C 340.269531 190.242188 334.035156 190.242188 334.035156 194.398438 C 334.035156 198.558594 340.269531 198.558594 340.269531 194.398438 "/>
<path style=" stroke:none;fill-rule:evenodd;fill:rgb(75.686275%,0%,87.843137%);fill-opacity:1;" d="M 322.269531 201.601563 C 322.269531 197.441406 316.035156 197.441406 316.035156 201.601563 C 316.035156 205.757813 322.269531 205.757813 322.269531 201.601563 "/>
<path style=" stroke:none;fill-rule:evenodd;fill:rgb(75.686275%,0%,87.843137%);fill-opacity:1;" d="M 272.390625 213.800781 C 272.390625 208.546875 264.507813 208.546875 264.507813 213.800781 L 264.507813 215.105469 C 264.507813 220.359375 272.390625 220.359375 272.390625 215.105469 L 272.390625 213.800781 "/>
<path style=" stroke:none;fill-rule:evenodd;fill:rgb(75.686275%,0%,87.843137%);fill-opacity:1;" d="M 245.175781 213.800781 C 245.175781 208.546875 237.296875 208.546875 237.296875 213.800781 L 237.296875 215.105469 C 237.296875 220.359375 245.175781 220.359375 245.175781 215.105469 L 245.175781 213.800781 "/>
<path style=" stroke:none;fill-rule:evenodd;fill:rgb(75.686275%,0%,87.843137%);fill-opacity:1;" d="M 259.09375 196.027344 L 264.761719 196.027344 L 264.761719 190.359375 L 259.09375 190.359375 Z "/>
<path style=" stroke:none;fill-rule:evenodd;fill:rgb(75.686275%,0%,87.843137%);fill-opacity:1;" d="M 257.675781 193.191406 C 257.675781 189.414063 252.007813 189.414063 252.007813 193.191406 C 252.007813 196.972656 257.675781 196.972656 257.675781 193.191406 "/>
<path style=" stroke:none;fill-rule:evenodd;fill:rgb(75.686275%,0%,87.843137%);fill-opacity:1;" d="M 250.589844 193.191406 C 250.589844 189.414063 244.921875 189.414063 244.921875 193.191406 C 244.921875 196.972656 250.589844 196.972656 250.589844 193.191406 "/>
<path style=" stroke:none;fill-rule:evenodd;fill:rgb(75.686275%,0%,87.843137%);fill-opacity:1;" d="M 214.582031 100.375 C 214.582031 97.351563 210.046875 97.351563 210.046875 100.375 C 210.046875 103.398438 214.582031 103.398438 214.582031 100.375 "/>
<path style=" stroke:none;fill-rule:evenodd;fill:rgb(75.686275%,0%,87.843137%);fill-opacity:1;" d="M 214.582031 79.113281 C 214.582031 76.089844 210.046875 76.089844 210.046875 79.113281 C 210.046875 82.136719 214.582031 82.136719 214.582031 79.113281 "/>
<path style=" stroke:none;fill-rule:evenodd;fill:rgb(75.686275%,0%,87.843137%);fill-opacity:1;" d="M 317.960938 152.105469 C 317.960938 148.894531 313.144531 148.894531 313.144531 152.105469 C 313.144531 155.320313 317.960938 155.320313 317.960938 152.105469 "/>
<path style=" stroke:none;fill-rule:evenodd;fill:rgb(75.686275%,0%,87.843137%);fill-opacity:1;" d="M 335.621094 152.105469 C 335.621094 148.976563 333.082031 146.4375 329.953125 146.4375 C 326.820313 146.4375 324.285156 148.976563 324.285156 152.105469 C 324.285156 155.238281 326.820313 157.777344 329.953125 157.777344 C 333.082031 157.777344 335.621094 155.238281 335.621094 152.105469 "/>
<path style=" stroke:none;fill-rule:evenodd;fill:rgb(75.686275%,0%,87.843137%);fill-opacity:1;" d="M 346.761719 152.105469 C 346.761719 148.894531 341.941406 148.894531 341.941406 152.105469 C 341.941406 155.320313 346.761719 155.320313 346.761719 152.105469 "/>
<path style=" stroke:none;fill-rule:evenodd;fill:rgb(75.686275%,0%,87.843137%);fill-opacity:1;" d="M 340.269531 137.707031 C 340.269531 133.550781 334.035156 133.550781 334.035156 137.707031 C 334.035156 141.863281 340.269531 141.863281 340.269531 137.707031 "/>
<path style=" stroke:none;fill-rule:evenodd;fill:rgb(75.686275%,0%,87.843137%);fill-opacity:1;" d="M 322.269531 144.90625 C 322.269531 140.75 316.035156 140.75 316.035156 144.90625 C 316.035156 149.066406 322.269531 149.066406 322.269531 144.90625 "/>
<path style=" stroke:none;fill-rule:evenodd;fill:rgb(75.686275%,0%,87.843137%);fill-opacity:1;" d="M 35.148438 250.609375 C 35.148438 246.695313 31.976563 243.523438 28.0625 243.523438 C 24.148438 243.523438 20.976563 246.695313 20.976563 250.609375 C 20.976563 254.523438 24.148438 257.699219 28.0625 257.699219 C 31.976563 257.699219 35.148438 254.523438 35.148438 250.609375 "/>
<path style=" stroke:none;fill-rule:evenodd;fill:rgb(75.686275%,0%,87.843137%);fill-opacity:1;" d="M 228.757813 100.375 C 228.757813 97.351563 224.21875 97.351563 224.21875 100.375 C 224.21875 103.398438 228.757813 103.398438 228.757813 100.375 "/>
<path style=" stroke:none;fill-rule:evenodd;fill:rgb(75.686275%,0%,87.843137%);fill-opacity:1;" d="M 228.757813 79.113281 C 228.757813 76.089844 224.21875 76.089844 224.21875 79.113281 C 224.21875 82.136719 228.757813 82.136719 228.757813 79.113281 "/>
<path style=" stroke:none;fill-rule:evenodd;fill:rgb(75.686275%,0%,87.843137%);fill-opacity:1;" d="M 76.796875 145.882813 C 76.796875 140.628906 68.917969 140.628906 68.917969 145.882813 L 68.917969 147.1875 C 68.917969 152.441406 76.796875 152.441406 76.796875 147.1875 L 76.796875 145.882813 "/>
<path style=" stroke:none;fill-rule:evenodd;fill:rgb(75.686275%,0%,87.843137%);fill-opacity:1;" d="M 49.585938 145.882813 C 49.585938 140.628906 41.707031 140.628906 41.707031 145.882813 L 41.707031 147.1875 C 41.707031 152.441406 49.585938 152.441406 49.585938 147.1875 L 49.585938 145.882813 "/>
<path style=" stroke:none;fill-rule:evenodd;fill:rgb(75.686275%,0%,87.843137%);fill-opacity:1;" d="M 63.503906 128.109375 L 69.171875 128.109375 L 69.171875 122.441406 L 63.503906 122.441406 Z "/>
<path style=" stroke:none;fill-rule:evenodd;fill:rgb(75.686275%,0%,87.843137%);fill-opacity:1;" d="M 62.085938 125.273438 C 62.085938 121.496094 56.417969 121.496094 56.417969 125.273438 C 56.417969 129.054688 62.085938 129.054688 62.085938 125.273438 "/>
<path style=" stroke:none;fill-rule:evenodd;fill:rgb(75.686275%,0%,87.843137%);fill-opacity:1;" d="M 55 125.273438 C 55 121.496094 49.332031 121.496094 49.332031 125.273438 C 49.332031 129.054688 55 129.054688 55 125.273438 "/>
<path style=" stroke:none;fill-rule:evenodd;fill:rgb(75.686275%,0%,87.843137%);fill-opacity:1;" d="M 104.03125 13.917969 C 104.03125 10.894531 99.496094 10.894531 99.496094 13.917969 C 99.496094 16.941406 104.03125 16.941406 104.03125 13.917969 "/>
<path style=" stroke:none;fill-rule:evenodd;fill:rgb(75.686275%,0%,87.843137%);fill-opacity:1;" d="M 104.03125 21.117188 C 104.03125 18.09375 99.496094 18.09375 99.496094 21.117188 C 99.496094 24.140625 104.03125 24.140625 104.03125 21.117188 "/>
<path style=" stroke:none;fill-rule:evenodd;fill:rgb(75.686275%,0%,87.843137%);fill-opacity:1;" d="M 104.03125 28.316406 C 104.03125 25.292969 99.496094 25.292969 99.496094 28.316406 C 99.496094 31.339844 104.03125 31.339844 104.03125 28.316406 "/>
<path style=" stroke:none;fill-rule:evenodd;fill:rgb(75.686275%,0%,87.843137%);fill-opacity:1;" d="M 104.03125 35.519531 C 104.03125 32.496094 99.496094 32.496094 99.496094 35.519531 C 99.496094 38.542969 104.03125 38.542969 104.03125 35.519531 "/>
<path style=" stroke:none;fill-rule:evenodd;fill:rgb(75.686275%,0%,87.843137%);fill-opacity:1;" d="M 104.03125 42.71875 C 104.03125 39.695313 99.496094 39.695313 99.496094 42.71875 C 99.496094 45.742188 104.03125 45.742188 104.03125 42.71875 "/>
<path style=" stroke:none;fill-rule:evenodd;fill:rgb(75.686275%,0%,87.843137%);fill-opacity:1;" d="M 104.03125 49.917969 C 104.03125 46.894531 99.496094 46.894531 99.496094 49.917969 C 99.496094 52.941406 104.03125 52.941406 104.03125 49.917969 "/>
<path style=" stroke:none;fill-rule:evenodd;fill:rgb(75.686275%,0%,87.843137%);fill-opacity:1;" d="M 104.03125 57.117188 C 104.03125 54.09375 99.496094 54.09375 99.496094 57.117188 C 99.496094 60.140625 104.03125 60.140625 104.03125 57.117188 "/>
<path style=" stroke:none;fill-rule:evenodd;fill:rgb(75.686275%,0%,87.843137%);fill-opacity:1;" d="M 104.03125 64.316406 C 104.03125 61.292969 99.496094 61.292969 99.496094 64.316406 C 99.496094 67.339844 104.03125 67.339844 104.03125 64.316406 "/>
<path style=" stroke:none;fill-rule:evenodd;fill:rgb(75.686275%,0%,87.843137%);fill-opacity:1;" d="M 104.03125 71.519531 C 104.03125 68.496094 99.496094 68.496094 99.496094 71.519531 C 99.496094 74.542969 104.03125 74.542969 104.03125 71.519531 "/>
<path style=" stroke:none;fill-rule:evenodd;fill:rgb(75.686275%,0%,87.843137%);fill-opacity:1;" d="M 104.03125 78.71875 C 104.03125 75.695313 99.496094 75.695313 99.496094 78.71875 C 99.496094 81.742188 104.03125 81.742188 104.03125 78.71875 "/>
<path style=" stroke:none;fill-rule:evenodd;fill:rgb(75.686275%,0%,87.843137%);fill-opacity:1;" d="M 104.03125 85.917969 C 104.03125 82.894531 99.496094 82.894531 99.496094 85.917969 C 99.496094 88.941406 104.03125 88.941406 104.03125 85.917969 "/>
<path style=" stroke:none;fill-rule:evenodd;fill:rgb(75.686275%,0%,87.843137%);fill-opacity:1;" d="M 104.03125 93.117188 C 104.03125 90.09375 99.496094 90.09375 99.496094 93.117188 C 99.496094 96.140625 104.03125 96.140625 104.03125 93.117188 "/>
<path style=" stroke:none;fill-rule:evenodd;fill:rgb(75.686275%,0%,87.843137%);fill-opacity:1;" d="M 104.03125 100.316406 C 104.03125 97.292969 99.496094 97.292969 99.496094 100.316406 C 99.496094 103.339844 104.03125 103.339844 104.03125 100.316406 "/>
<path style=" stroke:none;fill-rule:evenodd;fill:rgb(75.686275%,0%,87.843137%);fill-opacity:1;" d="M 104.03125 107.519531 C 104.03125 104.496094 99.496094 104.496094 99.496094 107.519531 C 99.496094 110.542969 104.03125 110.542969 104.03125 107.519531 "/>
<path style=" stroke:none;fill-rule:evenodd;fill:rgb(75.686275%,0%,87.843137%);fill-opacity:1;" d="M 111.230469 107.519531 C 111.230469 104.496094 106.695313 104.496094 106.695313 107.519531 C 106.695313 110.542969 111.230469 110.542969 111.230469 107.519531 "/>
<path style=" stroke:none;fill-rule:evenodd;fill:rgb(75.686275%,0%,87.843137%);fill-opacity:1;" d="M 118.429688 107.519531 C 118.429688 104.496094 113.894531 104.496094 113.894531 107.519531 C 113.894531 110.542969 118.429688 110.542969 118.429688 107.519531 "/>
<path style=" stroke:none;fill-rule:evenodd;fill:rgb(75.686275%,0%,87.843137%);fill-opacity:1;" d="M 125.632813 107.519531 C 125.632813 104.496094 121.097656 104.496094 121.097656 107.519531 C 121.097656 110.542969 125.632813 110.542969 125.632813 107.519531 "/>
<path style=" stroke:none;fill-rule:evenodd;fill:rgb(75.686275%,0%,87.843137%);fill-opacity:1;" d="M 132.832031 107.519531 C 132.832031 104.496094 128.296875 104.496094 128.296875 107.519531 C 128.296875 110.542969 132.832031 110.542969 132.832031 107.519531 "/>
<path style=" stroke:none;fill-rule:evenodd;fill:rgb(75.686275%,0%,87.843137%);fill-opacity:1;" d="M 140.03125 107.519531 C 140.03125 104.496094 135.496094 104.496094 135.496094 107.519531 C 135.496094 110.542969 140.03125 110.542969 140.03125 107.519531 "/>
<path style=" stroke:none;fill-rule:evenodd;fill:rgb(75.686275%,0%,87.843137%);fill-opacity:1;" d="M 147.230469 107.519531 C 147.230469 104.496094 142.695313 104.496094 142.695313 107.519531 C 142.695313 110.542969 147.230469 110.542969 147.230469 107.519531 "/>
<path style=" stroke:none;fill-rule:evenodd;fill:rgb(75.686275%,0%,87.843137%);fill-opacity:1;" d="M 147.230469 100.316406 C 147.230469 97.292969 142.695313 97.292969 142.695313 100.316406 C 142.695313 103.339844 147.230469 103.339844 147.230469 100.316406 "/>
<path style=" stroke:none;fill-rule:evenodd;fill:rgb(75.686275%,0%,87.843137%);fill-opacity:1;" d="M 147.230469 93.117188 C 147.230469 90.09375 142.695313 90.09375 142.695313 93.117188 C 142.695313 96.140625 147.230469 96.140625 147.230469 93.117188 "/>
<path style=" stroke:none;fill-rule:evenodd;fill:rgb(75.686275%,0%,87.843137%);fill-opacity:1;" d="M 147.230469 85.917969 C 147.230469 82.894531 142.695313 82.894531 142.695313 85.917969 C 142.695313 88.941406 147.230469 88.941406 147.230469 85.917969 "/>
<path style=" stroke:none;fill-rule:evenodd;fill:rgb(75.686275%,0%,87.843137%);fill-opacity:1;" d="M 147.230469 78.71875 C 147.230469 75.695313 142.695313 75.695313 142.695313 78.71875 C 142.695313 81.742188 147.230469 81.742188 147.230469 78.71875 "/>
<path style=" stroke:none;fill-rule:evenodd;fill:rgb(75.686275%,0%,87.843137%);fill-opacity:1;" d="M 147.230469 71.519531 C 147.230469 68.496094 142.695313 68.496094 142.695313 71.519531 C 142.695313 74.542969 147.230469 74.542969 147.230469 71.519531 "/>
<path style=" stroke:none;fill-rule:evenodd;fill:rgb(75.686275%,0%,87.843137%);fill-opacity:1;" d="M 147.230469 64.316406 C 147.230469 61.292969 142.695313 61.292969 142.695313 64.316406 C 142.695313 67.339844 147.230469 67.339844 147.230469 64.316406 "/>
<path style=" stroke:none;fill-rule:evenodd;fill:rgb(75.686275%,0%,87.843137%);fill-opacity:1;" d="M 147.230469 57.117188 C 147.230469 54.09375 142.695313 54.09375 142.695313 57.117188 C 142.695313 60.140625 147.230469 60.140625 147.230469 57.117188 "/>
<path style=" stroke:none;fill-rule:evenodd;fill:rgb(75.686275%,0%,87.843137%);fill-opacity:1;" d="M 147.230469 49.917969 C 147.230469 46.894531 142.695313 46.894531 142.695313 49.917969 C 142.695313 52.941406 147.230469 52.941406 147.230469 49.917969 "/>
<path style=" stroke:none;fill-rule:evenodd;fill:rgb(75.686275%,0%,87.843137%);fill-opacity:1;" d="M 147.230469 42.71875 C 147.230469 39.695313 142.695313 39.695313 142.695313 42.71875 C 142.695313 45.742188 147.230469 45.742188 147.230469 42.71875 "/>
<path style=" stroke:none;fill-rule:evenodd;fill:rgb(75.686275%,0%,87.843137%);fill-opacity:1;" d="M 147.230469 35.519531 C 147.230469 32.496094 142.695313 32.496094 142.695313 35.519531 C 142.695313 38.542969 147.230469 38.542969 147.230469 35.519531 "/>
<path style=" stroke:none;fill-rule:evenodd;fill:rgb(75.686275%,0%,87.843137%);fill-opacity:1;" d="M 147.230469 28.316406 C 147.230469 25.292969 142.695313 25.292969 142.695313 28.316406 C 142.695313 31.339844 147.230469 31.339844 147.230469 28.316406 "/>
<path style=" stroke:none;fill-rule:evenodd;fill:rgb(75.686275%,0%,87.843137%);fill-opacity:1;" d="M 147.230469 21.117188 C 147.230469 18.09375 142.695313 18.09375 142.695313 21.117188 C 142.695313 24.140625 147.230469 24.140625 147.230469 21.117188 "/>
<path style=" stroke:none;fill-rule:evenodd;fill:rgb(75.686275%,0%,87.843137%);fill-opacity:1;" d="M 147.230469 13.917969 C 147.230469 10.894531 142.695313 10.894531 142.695313 13.917969 C 142.695313 16.941406 147.230469 16.941406 147.230469 13.917969 "/>
<path style=" stroke:none;fill-rule:evenodd;fill:rgb(75.686275%,0%,87.843137%);fill-opacity:1;" d="M 140.03125 21.117188 C 140.03125 18.09375 135.496094 18.09375 135.496094 21.117188 C 135.496094 24.140625 140.03125 24.140625 140.03125 21.117188 "/>
<path style=" stroke:none;fill-rule:evenodd;fill:rgb(75.686275%,0%,87.843137%);fill-opacity:1;" d="M 140.03125 93.117188 C 140.03125 90.09375 135.496094 90.09375 135.496094 93.117188 C 135.496094 96.140625 140.03125 96.140625 140.03125 93.117188 "/>
<path style=" stroke:none;fill-rule:evenodd;fill:rgb(75.686275%,0%,87.843137%);fill-opacity:1;" d="M 140.03125 85.917969 C 140.03125 82.894531 135.496094 82.894531 135.496094 85.917969 C 135.496094 88.941406 140.03125 88.941406 140.03125 85.917969 "/>
<path style=" stroke:none;fill-rule:evenodd;fill:rgb(75.686275%,0%,87.843137%);fill-opacity:1;" d="M 132.832031 93.117188 C 132.832031 90.09375 128.296875 90.09375 128.296875 93.117188 C 128.296875 96.140625 132.832031 96.140625 132.832031 93.117188 "/>
<path style=" stroke:none;fill-rule:evenodd;fill:rgb(75.686275%,0%,87.843137%);fill-opacity:1;" d="M 132.832031 85.917969 C 132.832031 82.894531 128.296875 82.894531 128.296875 85.917969 C 128.296875 88.941406 132.832031 88.941406 132.832031 85.917969 "/>
<path style=" stroke:none;fill-rule:evenodd;fill:rgb(75.686275%,0%,87.843137%);fill-opacity:1;" d="M 125.632813 93.117188 C 125.632813 90.09375 121.097656 90.09375 121.097656 93.117188 C 121.097656 96.140625 125.632813 96.140625 125.632813 93.117188 "/>
<path style=" stroke:none;fill-rule:evenodd;fill:rgb(75.686275%,0%,87.843137%);fill-opacity:1;" d="M 125.632813 85.917969 C 125.632813 82.894531 121.097656 82.894531 121.097656 85.917969 C 121.097656 88.941406 125.632813 88.941406 125.632813 85.917969 "/>
<path style=" stroke:none;fill-rule:evenodd;fill:rgb(75.686275%,0%,87.843137%);fill-opacity:1;" d="M 118.429688 93.117188 C 118.429688 90.09375 113.894531 90.09375 113.894531 93.117188 C 113.894531 96.140625 118.429688 96.140625 118.429688 93.117188 "/>
<path style=" stroke:none;fill-rule:evenodd;fill:rgb(75.686275%,0%,87.843137%);fill-opacity:1;" d="M 118.429688 85.917969 C 118.429688 82.894531 113.894531 82.894531 113.894531 85.917969 C 113.894531 88.941406 118.429688 88.941406 118.429688 85.917969 "/>
<path style=" stroke:none;fill-rule:evenodd;fill:rgb(75.686275%,0%,87.843137%);fill-opacity:1;" d="M 111.230469 93.117188 C 111.230469 90.09375 106.695313 90.09375 106.695313 93.117188 C 106.695313 96.140625 111.230469 96.140625 111.230469 93.117188 "/>
<path style=" stroke:none;fill-rule:evenodd;fill:rgb(75.686275%,0%,87.843137%);fill-opacity:1;" d="M 111.230469 85.917969 C 111.230469 82.894531 106.695313 82.894531 106.695313 85.917969 C 106.695313 88.941406 111.230469 88.941406 111.230469 85.917969 "/>
<path style=" stroke:none;fill-rule:evenodd;fill:rgb(75.686275%,0%,87.843137%);fill-opacity:1;" d="M 313.507813 63.523438 C 313.507813 60.882813 309.546875 60.882813 309.546875 63.523438 C 309.546875 66.164063 313.507813 66.164063 313.507813 63.523438 "/>
<path style=" stroke:none;fill-rule:evenodd;fill:rgb(75.686275%,0%,87.843137%);fill-opacity:1;" d="M 291.90625 63.523438 C 291.90625 60.882813 287.949219 60.882813 287.949219 63.523438 C 287.949219 66.164063 291.90625 66.164063 291.90625 63.523438 "/>
<path style=" stroke:none;fill-rule:evenodd;fill:rgb(75.686275%,0%,87.843137%);fill-opacity:1;" d="M 186.234375 100.375 C 186.234375 97.351563 181.699219 97.351563 181.699219 100.375 C 181.699219 103.398438 186.234375 103.398438 186.234375 100.375 "/>
<path style=" stroke:none;fill-rule:evenodd;fill:rgb(75.686275%,0%,87.843137%);fill-opacity:1;" d="M 186.234375 79.113281 C 186.234375 76.089844 181.699219 76.089844 181.699219 79.113281 C 181.699219 82.136719 186.234375 82.136719 186.234375 79.113281 "/>
<path style=" stroke:none;fill-rule:evenodd;fill:rgb(75.686275%,0%,87.843137%);fill-opacity:1;" d="M 207.191406 213.800781 C 207.191406 208.546875 199.3125 208.546875 199.3125 213.800781 L 199.3125 215.105469 C 199.3125 220.359375 207.191406 220.359375 207.191406 215.105469 L 207.191406 213.800781 "/>
<path style=" stroke:none;fill-rule:evenodd;fill:rgb(75.686275%,0%,87.843137%);fill-opacity:1;" d="M 179.980469 213.800781 C 179.980469 208.546875 172.097656 208.546875 172.097656 213.800781 L 172.097656 215.105469 C 172.097656 220.359375 179.980469 220.359375 179.980469 215.105469 L 179.980469 213.800781 "/>
<path style=" stroke:none;fill-rule:evenodd;fill:rgb(75.686275%,0%,87.843137%);fill-opacity:1;" d="M 193.898438 196.027344 L 199.566406 196.027344 L 199.566406 190.359375 L 193.898438 190.359375 Z "/>
<path style=" stroke:none;fill-rule:evenodd;fill:rgb(75.686275%,0%,87.843137%);fill-opacity:1;" d="M 192.480469 193.191406 C 192.480469 189.414063 186.8125 189.414063 186.8125 193.191406 C 186.8125 196.972656 192.480469 196.972656 192.480469 193.191406 "/>
<path style=" stroke:none;fill-rule:evenodd;fill:rgb(75.686275%,0%,87.843137%);fill-opacity:1;" d="M 185.394531 193.191406 C 185.394531 189.414063 179.722656 189.414063 179.722656 193.191406 C 179.722656 196.972656 185.394531 196.972656 185.394531 193.191406 "/>
<path style=" stroke:none;fill-rule:evenodd;fill:rgb(75.686275%,0%,87.843137%);fill-opacity:1;" d="M 375.308594 208.800781 C 375.308594 205.585938 370.488281 205.585938 370.488281 208.800781 C 370.488281 212.011719 375.308594 212.011719 375.308594 208.800781 "/>
<path style=" stroke:none;fill-rule:evenodd;fill:rgb(75.686275%,0%,87.843137%);fill-opacity:1;" d="M 392.96875 208.800781 C 392.96875 205.667969 390.429688 203.128906 387.296875 203.128906 C 384.167969 203.128906 381.628906 205.667969 381.628906 208.800781 C 381.628906 211.929688 384.167969 214.46875 387.296875 214.46875 C 390.429688 214.46875 392.96875 211.929688 392.96875 208.800781 "/>
<path style=" stroke:none;fill-rule:evenodd;fill:rgb(75.686275%,0%,87.843137%);fill-opacity:1;" d="M 404.105469 208.800781 C 404.105469 205.585938 399.289063 205.585938 399.289063 208.800781 C 399.289063 212.011719 404.105469 212.011719 404.105469 208.800781 "/>
<path style=" stroke:none;fill-rule:evenodd;fill:rgb(75.686275%,0%,87.843137%);fill-opacity:1;" d="M 397.617188 194.398438 C 397.617188 190.242188 391.378906 190.242188 391.378906 194.398438 C 391.378906 198.558594 397.617188 198.558594 397.617188 194.398438 "/>
<path style=" stroke:none;fill-rule:evenodd;fill:rgb(75.686275%,0%,87.843137%);fill-opacity:1;" d="M 379.617188 201.601563 C 379.617188 197.441406 373.378906 197.441406 373.378906 201.601563 C 373.378906 205.757813 379.617188 205.757813 379.617188 201.601563 "/>
<path style=" stroke:none;fill-rule:evenodd;fill:rgb(75.686275%,0%,87.843137%);fill-opacity:1;" d="M 207.191406 145.882813 C 207.191406 140.628906 199.3125 140.628906 199.3125 145.882813 L 199.3125 147.1875 C 199.3125 152.441406 207.191406 152.441406 207.191406 147.1875 L 207.191406 145.882813 "/>
<path style=" stroke:none;fill-rule:evenodd;fill:rgb(75.686275%,0%,87.843137%);fill-opacity:1;" d="M 179.980469 145.882813 C 179.980469 140.628906 172.097656 140.628906 172.097656 145.882813 L 172.097656 147.1875 C 172.097656 152.441406 179.980469 152.441406 179.980469 147.1875 L 179.980469 145.882813 "/>
<path style=" stroke:none;fill-rule:evenodd;fill:rgb(75.686275%,0%,87.843137%);fill-opacity:1;" d="M 193.898438 128.109375 L 199.566406 128.109375 L 199.566406 122.441406 L 193.898438 122.441406 Z "/>
<path style=" stroke:none;fill-rule:evenodd;fill:rgb(75.686275%,0%,87.843137%);fill-opacity:1;" d="M 192.480469 125.273438 C 192.480469 121.496094 186.8125 121.496094 186.8125 125.273438 C 186.8125 129.054688 192.480469 129.054688 192.480469 125.273438 "/>
<path style=" stroke:none;fill-rule:evenodd;fill:rgb(75.686275%,0%,87.843137%);fill-opacity:1;" d="M 185.394531 125.273438 C 185.394531 121.496094 179.722656 121.496094 179.722656 125.273438 C 179.722656 129.054688 185.394531 129.054688 185.394531 125.273438 "/>
<path style=" stroke:none;fill-rule:evenodd;fill:rgb(75.686275%,0%,87.843137%);fill-opacity:1;" d="M 79.371094 25.257813 C 79.371094 22.988281 75.96875 22.988281 75.96875 25.257813 C 75.96875 27.523438 79.371094 27.523438 79.371094 25.257813 "/>
<path style=" stroke:none;fill-rule:evenodd;fill:rgb(75.686275%,0%,87.843137%);fill-opacity:1;" d="M 79.371094 18.171875 C 79.371094 15.902344 75.96875 15.902344 75.96875 18.171875 C 75.96875 20.4375 79.371094 20.4375 79.371094 18.171875 "/>
<path style=" stroke:none;fill-rule:evenodd;fill:rgb(75.686275%,0%,87.843137%);fill-opacity:1;" d="M 65.195313 39.429688 C 65.195313 37.164063 61.796875 37.164063 61.796875 39.429688 C 61.796875 41.699219 65.195313 41.699219 65.195313 39.429688 "/>
<path style=" stroke:none;fill-rule:evenodd;fill:rgb(75.686275%,0%,87.843137%);fill-opacity:1;" d="M 51.023438 25.257813 C 51.023438 22.988281 47.621094 22.988281 47.621094 25.257813 C 47.621094 27.523438 51.023438 27.523438 51.023438 25.257813 "/>
<path style=" stroke:none;fill-rule:evenodd;fill:rgb(75.686275%,0%,87.843137%);fill-opacity:1;" d="M 51.023438 18.171875 C 51.023438 15.902344 47.621094 15.902344 47.621094 18.171875 C 47.621094 20.4375 51.023438 20.4375 51.023438 18.171875 "/>
<path style=" stroke:none;fill-rule:evenodd;fill:rgb(75.686275%,0%,87.843137%);fill-opacity:1;" d="M 79.371094 38.011719 C 79.371094 35.746094 75.96875 35.746094 75.96875 38.011719 L 75.96875 40.847656 C 75.96875 43.113281 79.371094 43.113281 79.371094 40.847656 L 79.371094 38.011719 "/>
<path style=" stroke:none;fill-rule:evenodd;fill:rgb(75.686275%,0%,87.843137%);fill-opacity:1;" d="M 72.851563 38.4375 C 72.851563 35.414063 68.316406 35.414063 68.316406 38.4375 L 68.316406 40.421875 C 68.316406 43.445313 72.851563 43.445313 72.851563 40.421875 L 72.851563 38.4375 "/>
<path style=" stroke:none;fill-rule:evenodd;fill:rgb(75.686275%,0%,87.843137%);fill-opacity:1;" d="M 62.078125 23.554688 C 59.8125 23.554688 59.8125 26.957031 62.078125 26.957031 L 64.914063 26.957031 C 67.179688 26.957031 67.179688 23.554688 64.914063 23.554688 L 62.078125 23.554688 "/>
<path style=" stroke:none;fill-rule:evenodd;fill:rgb(75.686275%,0%,87.843137%);fill-opacity:1;" d="M 51.023438 38.011719 C 51.023438 35.746094 47.621094 35.746094 47.621094 38.011719 L 47.621094 40.847656 C 47.621094 43.113281 51.023438 43.113281 51.023438 40.847656 L 51.023438 38.011719 "/>
<path style=" stroke:none;fill-rule:evenodd;fill:rgb(75.686275%,0%,87.843137%);fill-opacity:1;" d="M 58.675781 38.15625 C 58.675781 35.128906 54.140625 35.128906 54.140625 38.15625 L 54.140625 40.707031 C 54.140625 43.730469 58.675781 43.730469 58.675781 40.707031 L 58.675781 38.15625 "/>
<path style=" stroke:none;fill-rule:evenodd;fill:rgb(75.686275%,0%,87.843137%);fill-opacity:1;" d="M 440.503906 250.609375 C 440.503906 246.695313 437.332031 243.523438 433.417969 243.523438 C 429.503906 243.523438 426.332031 246.695313 426.332031 250.609375 C 426.332031 254.523438 429.503906 257.699219 433.417969 257.699219 C 437.332031 257.699219 440.503906 254.523438 440.503906 250.609375 "/>
<path style=" stroke:none;fill-rule:evenodd;fill:rgb(75.686275%,0%,87.843137%);fill-opacity:1;" d="M 257.101563 100.375 C 257.101563 97.351563 252.566406 97.351563 252.566406 100.375 C 252.566406 103.398438 257.101563 103.398438 257.101563 100.375 "/>
<path style=" stroke:none;fill-rule:evenodd;fill:rgb(75.686275%,0%,87.843137%);fill-opacity:1;" d="M 257.101563 79.113281 C 257.101563 76.089844 252.566406 76.089844 252.566406 79.113281 C 252.566406 82.136719 257.101563 82.136719 257.101563 79.113281 "/>
<path style=" stroke:none;fill-rule:evenodd;fill:rgb(75.686275%,0%,87.843137%);fill-opacity:1;" d="M 72.5625 73.785156 C 72.5625 71.144531 68.601563 71.144531 68.601563 73.785156 C 68.601563 76.425781 72.5625 76.425781 72.5625 73.785156 "/>
<path style=" stroke:none;fill-rule:evenodd;fill:rgb(75.686275%,0%,87.843137%);fill-opacity:1;" d="M 72.5625 52.1875 C 72.5625 49.546875 68.601563 49.546875 68.601563 52.1875 C 68.601563 54.824219 72.5625 54.824219 72.5625 52.1875 "/>
<path style=" stroke:none;fill-rule:evenodd;fill:rgb(75.686275%,0%,87.843137%);fill-opacity:1;" d="M 271.277344 100.375 C 271.277344 97.351563 266.738281 97.351563 266.738281 100.375 C 266.738281 103.398438 271.277344 103.398438 271.277344 100.375 "/>
<path style=" stroke:none;fill-rule:evenodd;fill:rgb(75.686275%,0%,87.843137%);fill-opacity:1;" d="M 271.277344 79.113281 C 271.277344 76.089844 266.738281 76.089844 266.738281 79.113281 C 266.738281 82.136719 271.277344 82.136719 271.277344 79.113281 "/>
</g>
</svg>
