<?xml version="1.0" encoding="UTF-8"?>
<svg xmlns="http://www.w3.org/2000/svg" xmlns:xlink="http://www.w3.org/1999/xlink" width="471pt" height="275pt" viewBox="0 0 471 275" version="1.1">
<g id="surface863710">
<path style="fill:none;stroke-width:0.00393701;stroke-linecap:round;stroke-linejoin:miter;stroke:rgb(100%,77.254902%,20%);stroke-opacity:1;stroke-miterlimit:10;" d="M 4.193695 -8.622041 L 4.193695 -8.661429 " transform="matrix(72,0,0,-72,-40.492914,-571.325984)"/>
<path style="fill:none;stroke-width:0.00393701;stroke-linecap:round;stroke-linejoin:miter;stroke:rgb(100%,77.254902%,20%);stroke-opacity:1;stroke-miterlimit:10;" d="M 4.223209 -9.005884 L 4.224023 -9.005884 " transform="matrix(72,0,0,-72,-40.492914,-571.325984)"/>
<path style="fill:none;stroke-width:0.00393701;stroke-linecap:round;stroke-linejoin:miter;stroke:rgb(100%,77.254902%,20%);stroke-opacity:1;stroke-miterlimit:10;" d="M 4.239756 -9.005884 L 4.24057 -9.005884 " transform="matrix(72,0,0,-72,-40.492914,-571.325984)"/>
<path style="fill:none;stroke-width:0.00393701;stroke-linecap:round;stroke-linejoin:miter;stroke:rgb(100%,77.254902%,20%);stroke-opacity:1;stroke-miterlimit:10;" d="M 4.256303 -9.005884 L 4.257063 -9.005884 " transform="matrix(72,0,0,-72,-40.492914,-571.325984)"/>
<path style="fill:none;stroke-width:0.00393701;stroke-linecap:round;stroke-linejoin:miter;stroke:rgb(100%,77.254902%,20%);stroke-opacity:1;stroke-miterlimit:10;" d="M 4.272851 -9.005884 L 4.27361 -9.005884 " transform="matrix(72,0,0,-72,-40.492914,-571.325984)"/>
<path style="fill:none;stroke-width:0.00393701;stroke-linecap:round;stroke-linejoin:miter;stroke:rgb(100%,77.254902%,20%);stroke-opacity:1;stroke-miterlimit:10;" d="M 4.289344 -9.005884 L 4.290158 -9.005884 " transform="matrix(72,0,0,-72,-40.492914,-571.325984)"/>
<path style="fill:none;stroke-width:0.00393701;stroke-linecap:round;stroke-linejoin:miter;stroke:rgb(100%,77.254902%,20%);stroke-opacity:1;stroke-miterlimit:10;" d="M 4.305891 -9.005884 L 4.306705 -9.005884 " transform="matrix(72,0,0,-72,-40.492914,-571.325984)"/>
<path style="fill:none;stroke-width:0.00393701;stroke-linecap:round;stroke-linejoin:miter;stroke:rgb(100%,77.254902%,20%);stroke-opacity:1;stroke-miterlimit:10;" d="M 4.322438 -9.005884 L 4.323252 -9.005884 " transform="matrix(72,0,0,-72,-40.492914,-571.325984)"/>
<path style="fill:none;stroke-width:0.00393701;stroke-linecap:round;stroke-linejoin:miter;stroke:rgb(100%,77.254902%,20%);stroke-opacity:1;stroke-miterlimit:10;" d="M 4.338986 -9.005884 L 4.339745 -9.005884 " transform="matrix(72,0,0,-72,-40.492914,-571.325984)"/>
<path style="fill:none;stroke-width:0.00393701;stroke-linecap:round;stroke-linejoin:miter;stroke:rgb(100%,77.254902%,20%);stroke-opacity:1;stroke-miterlimit:10;" d="M 4.355533 -9.005884 L 4.356293 -9.005884 " transform="matrix(72,0,0,-72,-40.492914,-571.325984)"/>
<path style="fill:none;stroke-width:0.00393701;stroke-linecap:round;stroke-linejoin:miter;stroke:rgb(100%,77.254902%,20%);stroke-opacity:1;stroke-miterlimit:10;" d="M 4.372026 -9.005884 L 4.37284 -9.005884 " transform="matrix(72,0,0,-72,-40.492914,-571.325984)"/>
<path style="fill:none;stroke-width:0.00393701;stroke-linecap:round;stroke-linejoin:miter;stroke:rgb(100%,77.254902%,20%);stroke-opacity:1;stroke-miterlimit:10;" d="M 4.388573 -9.005884 L 4.389387 -9.005884 " transform="matrix(72,0,0,-72,-40.492914,-571.325984)"/>
<path style="fill:none;stroke-width:0.00393701;stroke-linecap:round;stroke-linejoin:miter;stroke:rgb(100%,77.254902%,20%);stroke-opacity:1;stroke-miterlimit:10;" d="M 4.405121 -9.005884 L 4.40588 -9.005884 " transform="matrix(72,0,0,-72,-40.492914,-571.325984)"/>
<path style="fill:none;stroke-width:0.00393701;stroke-linecap:round;stroke-linejoin:miter;stroke:rgb(100%,77.254902%,20%);stroke-opacity:1;stroke-miterlimit:10;" d="M 4.421668 -9.005884 L 4.422428 -9.005884 " transform="matrix(72,0,0,-72,-40.492914,-571.325984)"/>
<path style="fill:none;stroke-width:0.00393701;stroke-linecap:round;stroke-linejoin:miter;stroke:rgb(100%,77.254902%,20%);stroke-opacity:1;stroke-miterlimit:10;" d="M 4.438215 -9.005884 L 4.438975 -9.005884 " transform="matrix(72,0,0,-72,-40.492914,-571.325984)"/>
<path style="fill:none;stroke-width:0.00393701;stroke-linecap:round;stroke-linejoin:miter;stroke:rgb(100%,77.254902%,20%);stroke-opacity:1;stroke-miterlimit:10;" d="M 5.483083 -8.503931 L 6.527788 -8.503931 " transform="matrix(72,0,0,-72,-40.492914,-571.325984)"/>
<path style="fill:none;stroke-width:0.011811;stroke-linecap:round;stroke-linejoin:miter;stroke:rgb(100%,77.254902%,20%);stroke-opacity:1;stroke-miterlimit:10;" d="M 2.34924 -8.503931 C 2.34924 -8.511798 2.337412 -8.511798 2.337412 -8.503931 " transform="matrix(72,0,0,-72,-40.492914,-571.325984)"/>
<path style="fill:none;stroke-width:0.011811;stroke-linecap:round;stroke-linejoin:miter;stroke:rgb(100%,77.254902%,20%);stroke-opacity:1;stroke-miterlimit:10;" d="M 2.337412 -8.503931 C 2.337412 -8.496064 2.34924 -8.496064 2.34924 -8.503931 " transform="matrix(72,0,0,-72,-40.492914,-571.325984)"/>
<path style="fill:none;stroke-width:0.0314961;stroke-linecap:round;stroke-linejoin:miter;stroke:rgb(100%,77.254902%,20%);stroke-opacity:1;stroke-miterlimit:10;" d="M 2.722449 -8.779538 C 2.722449 -8.800535 2.690928 -8.800535 2.690928 -8.779538 " transform="matrix(72,0,0,-72,-40.492914,-571.325984)"/>
<path style="fill:none;stroke-width:0.0314961;stroke-linecap:round;stroke-linejoin:miter;stroke:rgb(100%,77.254902%,20%);stroke-opacity:1;stroke-miterlimit:10;" d="M 2.690928 -8.779538 C 2.690928 -8.758542 2.722449 -8.758542 2.722449 -8.779538 " transform="matrix(72,0,0,-72,-40.492914,-571.325984)"/>
<path style="fill:none;stroke-width:0.00393701;stroke-linecap:round;stroke-linejoin:miter;stroke:rgb(100%,77.254902%,20%);stroke-opacity:1;stroke-miterlimit:10;" d="M 5.965342 -9.114174 C 5.965342 -9.166691 5.88662 -9.166691 5.88662 -9.114174 " transform="matrix(72,0,0,-72,-40.492914,-571.325984)"/>
<path style="fill:none;stroke-width:0.00393701;stroke-linecap:round;stroke-linejoin:miter;stroke:rgb(100%,77.254902%,20%);stroke-opacity:1;stroke-miterlimit:10;" d="M 5.88662 -9.114174 C 5.88662 -9.061656 5.965342 -9.061656 5.965342 -9.114174 " transform="matrix(72,0,0,-72,-40.492914,-571.325984)"/>
<path style="fill:none;stroke-width:0.00393701;stroke-linecap:round;stroke-linejoin:miter;stroke:rgb(100%,77.254902%,20%);stroke-opacity:1;stroke-miterlimit:10;" d="M 5.788205 -9.114174 C 5.788205 -9.168536 5.744096 -9.21259 5.689789 -9.21259 C 5.635427 -9.21259 5.591319 -9.168536 5.591319 -9.114174 " transform="matrix(72,0,0,-72,-40.492914,-571.325984)"/>
<path style="fill:none;stroke-width:0.00393701;stroke-linecap:round;stroke-linejoin:miter;stroke:rgb(100%,77.254902%,20%);stroke-opacity:1;stroke-miterlimit:10;" d="M 5.591319 -9.114174 C 5.591319 -9.059812 5.635427 -9.015758 5.689789 -9.015758 C 5.744096 -9.015758 5.788205 -9.059812 5.788205 -9.114174 " transform="matrix(72,0,0,-72,-40.492914,-571.325984)"/>
<path style="fill:none;stroke-width:0.00393701;stroke-linecap:round;stroke-linejoin:miter;stroke:rgb(100%,77.254902%,20%);stroke-opacity:1;stroke-miterlimit:10;" d="M 5.04504 -8.894339 C 5.039561 -8.902531 5.030338 -8.907468 5.020464 -8.907468 " transform="matrix(72,0,0,-72,-40.492914,-571.325984)"/>
<path style="fill:none;stroke-width:0.00393701;stroke-linecap:round;stroke-linejoin:miter;stroke:rgb(100%,77.254902%,20%);stroke-opacity:1;stroke-miterlimit:10;" d="M 5.788205 -9.114174 C 5.788205 -9.157685 5.75294 -9.192896 5.709428 -9.192896 C 5.665971 -9.192896 5.630707 -9.157685 5.630707 -9.114174 " transform="matrix(72,0,0,-72,-40.492914,-571.325984)"/>
<path style="fill:none;stroke-width:0.00393701;stroke-linecap:round;stroke-linejoin:miter;stroke:rgb(100%,77.254902%,20%);stroke-opacity:1;stroke-miterlimit:10;" d="M 5.630707 -9.114174 C 5.630707 -9.070663 5.665971 -9.035452 5.709428 -9.035452 C 5.75294 -9.035452 5.788205 -9.070663 5.788205 -9.114174 " transform="matrix(72,0,0,-72,-40.492914,-571.325984)"/>
<path style="fill:none;stroke-width:0.00393701;stroke-linecap:round;stroke-linejoin:miter;stroke:rgb(100%,77.254902%,20%);stroke-opacity:1;stroke-miterlimit:10;" d="M 4.291731 -8.720456 C 4.291731 -8.702607 4.313378 -8.693601 4.326019 -8.706296 C 4.33866 -8.718937 4.329708 -8.74053 4.311805 -8.74053 " transform="matrix(72,0,0,-72,-40.492914,-571.325984)"/>
<path style="fill:none;stroke-width:0.00393701;stroke-linecap:round;stroke-linejoin:miter;stroke:rgb(100%,77.254902%,20%);stroke-opacity:1;stroke-miterlimit:10;" d="M 4.508636 -9.045272 C 4.49236 -9.045272 4.479123 -9.032034 4.479123 -9.015758 " transform="matrix(72,0,0,-72,-40.492914,-571.325984)"/>
<path style="fill:none;stroke-width:0.00393701;stroke-linecap:round;stroke-linejoin:miter;stroke:rgb(100%,77.254902%,20%);stroke-opacity:1;stroke-miterlimit:10;" d="M 5.788205 -9.114174 C 5.788205 -9.140433 5.748817 -9.140433 5.748817 -9.114174 " transform="matrix(72,0,0,-72,-40.492914,-571.325984)"/>
<path style="fill:none;stroke-width:0.00393701;stroke-linecap:round;stroke-linejoin:miter;stroke:rgb(100%,77.254902%,20%);stroke-opacity:1;stroke-miterlimit:10;" d="M 5.748817 -9.114174 C 5.748817 -9.087915 5.788205 -9.087915 5.788205 -9.114174 " transform="matrix(72,0,0,-72,-40.492914,-571.325984)"/>
<path style="fill:none;stroke-width:0.00393701;stroke-linecap:round;stroke-linejoin:miter;stroke:rgb(100%,77.254902%,20%);stroke-opacity:1;stroke-miterlimit:10;" d="M 5.591319 -8.491832 L 6.527788 -8.491832 " transform="matrix(72,0,0,-72,-40.492914,-571.325984)"/>
<path style="fill:none;stroke-width:0.00393701;stroke-linecap:round;stroke-linejoin:miter;stroke:rgb(100%,77.254902%,20%);stroke-opacity:1;stroke-miterlimit:10;" d="M 6.548079 -8.430797 C 6.582313 -8.451359 6.567718 -8.503931 6.527788 -8.503931 " transform="matrix(72,0,0,-72,-40.492914,-571.325984)"/>
<path style="fill:none;stroke-width:0.00393701;stroke-linecap:round;stroke-linejoin:miter;stroke:rgb(100%,77.254902%,20%);stroke-opacity:1;stroke-miterlimit:10;" d="M 6.044118 -9.114174 C 6.044118 -9.157685 6.008853 -9.192896 5.965342 -9.192896 C 5.921885 -9.192896 5.88662 -9.157685 5.88662 -9.114174 " transform="matrix(72,0,0,-72,-40.492914,-571.325984)"/>
<path style="fill:none;stroke-width:0.00393701;stroke-linecap:round;stroke-linejoin:miter;stroke:rgb(100%,77.254902%,20%);stroke-opacity:1;stroke-miterlimit:10;" d="M 5.88662 -9.114174 C 5.88662 -9.070663 5.921885 -9.035452 5.965342 -9.035452 C 6.008853 -9.035452 6.044118 -9.070663 6.044118 -9.114174 " transform="matrix(72,0,0,-72,-40.492914,-571.325984)"/>
<path style="fill:none;stroke-width:0.00393701;stroke-linecap:round;stroke-linejoin:miter;stroke:rgb(100%,77.254902%,20%);stroke-opacity:1;stroke-miterlimit:10;" d="M 5.788205 -9.114174 C 5.788205 -9.192896 5.670095 -9.192896 5.670095 -9.114174 " transform="matrix(72,0,0,-72,-40.492914,-571.325984)"/>
<path style="fill:none;stroke-width:0.00393701;stroke-linecap:round;stroke-linejoin:miter;stroke:rgb(100%,77.254902%,20%);stroke-opacity:1;stroke-miterlimit:10;" d="M 5.670095 -9.114174 C 5.670095 -9.035452 5.788205 -9.035452 5.788205 -9.114174 " transform="matrix(72,0,0,-72,-40.492914,-571.325984)"/>
<path style="fill:none;stroke-width:0.00393701;stroke-linecap:round;stroke-linejoin:miter;stroke:rgb(100%,77.254902%,20%);stroke-opacity:1;stroke-miterlimit:10;" d="M 4.262597 -8.917342 C 4.262597 -8.930472 4.242903 -8.930472 4.242903 -8.917342 " transform="matrix(72,0,0,-72,-40.492914,-571.325984)"/>
<path style="fill:none;stroke-width:0.00393701;stroke-linecap:round;stroke-linejoin:miter;stroke:rgb(100%,77.254902%,20%);stroke-opacity:1;stroke-miterlimit:10;" d="M 4.242903 -8.917342 C 4.242903 -8.904213 4.262597 -8.904213 4.262597 -8.917342 " transform="matrix(72,0,0,-72,-40.492914,-571.325984)"/>
<path style="fill:none;stroke-width:0.00393701;stroke-linecap:round;stroke-linejoin:miter;stroke:rgb(100%,77.254902%,20%);stroke-opacity:1;stroke-miterlimit:10;" d="M 4.036197 -8.622041 C 4.036197 -8.578584 4.071462 -8.543319 4.114973 -8.543319 C 4.15843 -8.543319 4.193695 -8.578584 4.193695 -8.622041 " transform="matrix(72,0,0,-72,-40.492914,-571.325984)"/>
<path style="fill:none;stroke-width:0.0216535;stroke-linecap:round;stroke-linejoin:miter;stroke:rgb(100%,77.254902%,20%);stroke-opacity:1;stroke-miterlimit:10;" d="M 1.911197 -8.96655 C 1.911197 -8.980982 1.88955 -8.980982 1.88955 -8.96655 " transform="matrix(72,0,0,-72,-40.492914,-571.325984)"/>
<path style="fill:none;stroke-width:0.0216535;stroke-linecap:round;stroke-linejoin:miter;stroke:rgb(100%,77.254902%,20%);stroke-opacity:1;stroke-miterlimit:10;" d="M 1.88955 -8.96655 C 1.88955 -8.952119 1.911197 -8.952119 1.911197 -8.96655 " transform="matrix(72,0,0,-72,-40.492914,-571.325984)"/>
<path style="fill:none;stroke-width:0.011811;stroke-linecap:round;stroke-linejoin:miter;stroke:rgb(100%,77.254902%,20%);stroke-opacity:1;stroke-miterlimit:10;" d="M 2.909461 -8.779538 C 2.909461 -8.787405 2.897634 -8.787405 2.897634 -8.779538 " transform="matrix(72,0,0,-72,-40.492914,-571.325984)"/>
<path style="fill:none;stroke-width:0.011811;stroke-linecap:round;stroke-linejoin:miter;stroke:rgb(100%,77.254902%,20%);stroke-opacity:1;stroke-miterlimit:10;" d="M 2.897634 -8.779538 C 2.897634 -8.771672 2.909461 -8.771672 2.909461 -8.779538 " transform="matrix(72,0,0,-72,-40.492914,-571.325984)"/>
<path style="fill:none;stroke-width:0.011811;stroke-linecap:round;stroke-linejoin:miter;stroke:rgb(100%,77.254902%,20%);stroke-opacity:1;stroke-miterlimit:10;" d="M 1.807899 -8.96655 C 1.807899 -8.974417 1.796071 -8.974417 1.796071 -8.96655 " transform="matrix(72,0,0,-72,-40.492914,-571.325984)"/>
<path style="fill:none;stroke-width:0.011811;stroke-linecap:round;stroke-linejoin:miter;stroke:rgb(100%,77.254902%,20%);stroke-opacity:1;stroke-miterlimit:10;" d="M 1.796071 -8.96655 C 1.796071 -8.958683 1.807899 -8.958683 1.807899 -8.96655 " transform="matrix(72,0,0,-72,-40.492914,-571.325984)"/>
<path style=" stroke:none;fill-rule:evenodd;fill:rgb(100%,77.254902%,20%);fill-opacity:1;" d="M 52.066406 254.292969 L 51.765625 254.277344 L 51.472656 254.234375 L 51.191406 254.15625 L 50.929688 254.054688 L 50.6875 253.921875 L 50.476563 253.769531 L 50.84375 253.113281 L 51.105469 253.292969 L 51.40625 253.425781 L 51.730469 253.503906 L 52.066406 253.53125 L 52.320313 253.515625 L 52.519531 253.46875 L 52.667969 253.402344 L 52.789063 253.296875 L 52.859375 253.175781 L 52.882813 253.027344 L 52.882813 253.023438 L 52.859375 252.871094 L 52.789063 252.757813 L 52.679688 252.671875 L 52.539063 252.613281 L 52.144531 252.527344 L 52.128906 252.523438 L 52.109375 252.523438 L 52.046875 252.511719 L 51.640625 252.433594 L 51.34375 252.347656 L 51.167969 252.265625 L 51.011719 252.148438 L 50.871094 251.996094 L 50.769531 251.816406 L 50.699219 251.585938 L 50.675781 251.28125 L 50.675781 251.277344 L 50.699219 251.011719 L 50.757813 250.78125 L 50.859375 250.578125 L 50.996094 250.402344 L 51.171875 250.253906 L 51.390625 250.136719 L 51.628906 250.054688 L 51.90625 250.003906 L 52.234375 249.984375 L 52.460938 249.996094 L 52.695313 250.035156 L 52.929688 250.097656 L 53.160156 250.1875 L 53.378906 250.296875 L 53.589844 250.425781 L 53.253906 251.097656 L 53 250.949219 L 52.742188 250.835938 L 52.476563 250.765625 L 52.234375 250.746094 L 51.992188 250.761719 L 51.804688 250.800781 L 51.667969 250.863281 L 51.554688 250.957031 L 51.488281 251.070313 L 51.464844 251.203125 L 51.464844 251.207031 L 51.492188 251.375 L 51.570313 251.496094 L 51.6875 251.585938 L 51.828125 251.652344 L 52.261719 251.753906 L 52.285156 251.761719 L 52.308594 251.765625 L 52.34375 251.769531 L 52.375 251.777344 L 52.757813 251.871094 L 53.042969 251.96875 L 53.214844 252.058594 L 53.363281 252.175781 L 53.492188 252.328125 L 53.589844 252.503906 L 53.652344 252.726563 L 53.671875 253.007813 L 53.671875 253.011719 L 53.652344 253.277344 L 53.585938 253.503906 L 53.484375 253.703125 L 53.34375 253.878906 L 53.160156 254.023438 L 52.933594 254.144531 L 52.6875 254.222656 L 52.402344 254.277344 Z "/>
<path style=" stroke:none;fill-rule:evenodd;fill:rgb(100%,77.254902%,20%);fill-opacity:1;" d="M 54.34375 250.027344 L 55.316406 250.027344 L 56.886719 253.261719 L 56.816406 253.339844 L 56.816406 250.027344 L 57.578125 250.027344 L 57.578125 254.246094 L 56.601563 254.246094 L 55.035156 251.0625 L 55.105469 250.984375 L 55.105469 254.246094 L 54.34375 254.246094 Z "/>
<path style=" stroke:none;fill-rule:evenodd;fill:rgb(100%,77.254902%,20%);fill-opacity:1;" d="M 59.9375 251.210938 L 60.167969 251.261719 L 60.371094 251.34375 L 60.550781 251.460938 L 60.695313 251.609375 L 60.8125 251.789063 L 60.898438 251.988281 L 60.949219 252.21875 L 60.964844 252.488281 L 60.964844 252.988281 L 60.949219 253.261719 L 60.898438 253.492188 L 60.8125 253.695313 L 60.695313 253.875 L 60.550781 254.023438 L 60.371094 254.140625 L 60.167969 254.222656 L 59.9375 254.277344 L 59.664063 254.292969 L 59.394531 254.277344 L 59.160156 254.222656 L 58.960938 254.140625 L 58.78125 254.019531 L 58.632813 253.871094 L 58.515625 253.691406 L 58.433594 253.488281 L 58.382813 253.253906 L 58.363281 252.980469 L 58.363281 252.488281 L 59.160156 252.488281 L 59.160156 252.988281 L 59.175781 253.15625 L 59.21875 253.285156 L 59.289063 253.386719 L 59.386719 253.460938 L 59.507813 253.511719 L 59.664063 253.527344 L 59.816406 253.511719 L 59.941406 253.460938 L 60.035156 253.386719 L 60.109375 253.285156 L 60.152344 253.15625 L 60.171875 252.988281 L 60.171875 252.488281 L 60.15625 252.328125 L 60.109375 252.199219 L 60.035156 252.097656 L 59.941406 252.023438 L 59.816406 251.976563 L 59.664063 251.957031 L 59.507813 251.976563 L 59.386719 252.023438 L 59.292969 252.097656 L 59.222656 252.199219 L 59.175781 252.328125 L 59.160156 252.488281 L 58.363281 252.488281 L 58.382813 252.21875 L 58.433594 251.988281 L 58.515625 251.789063 L 58.632813 251.609375 L 58.78125 251.460938 L 58.960938 251.34375 L 59.160156 251.261719 L 59.394531 251.210938 L 59.664063 251.191406 Z "/>
<path style=" stroke:none;fill-rule:evenodd;fill:rgb(100%,77.254902%,20%);fill-opacity:1;" d="M 61.445313 253.453125 L 62.242188 253.453125 L 62.242188 254.25 L 61.445313 254.25 Z "/>
<path style="fill:none;stroke-width:0.00393701;stroke-linecap:round;stroke-linejoin:miter;stroke:rgb(100%,77.254902%,20%);stroke-opacity:1;stroke-miterlimit:10;" d="M 1.457475 -11.387774 L 2.343326 -11.387774 " transform="matrix(72,0,0,-72,-40.492914,-571.325984)"/>
<path style="fill:none;stroke-width:0.00393701;stroke-linecap:round;stroke-linejoin:miter;stroke:rgb(100%,77.254902%,20%);stroke-opacity:1;stroke-miterlimit:10;" d="M 2.343326 -11.387774 L 2.343326 -11.486244 " transform="matrix(72,0,0,-72,-40.492914,-571.325984)"/>
<path style="fill:none;stroke-width:0.00393701;stroke-linecap:round;stroke-linejoin:miter;stroke:rgb(100%,77.254902%,20%);stroke-opacity:1;stroke-miterlimit:10;" d="M 2.343326 -11.486244 L 1.457475 -11.486244 " transform="matrix(72,0,0,-72,-40.492914,-571.325984)"/>
<path style="fill:none;stroke-width:0.00393701;stroke-linecap:round;stroke-linejoin:miter;stroke:rgb(100%,77.254902%,20%);stroke-opacity:1;stroke-miterlimit:10;" d="M 1.457475 -11.486244 L 1.457475 -11.387774 " transform="matrix(72,0,0,-72,-40.492914,-571.325984)"/>
<path style=" stroke:none;fill-rule:evenodd;fill:rgb(100%,77.254902%,20%);fill-opacity:1;" d="M 64.445313 248.59375 L 128.226563 248.59375 L 128.226563 255.683594 L 64.445313 255.683594 Z "/>
<path style="fill:none;stroke-width:0.00393701;stroke-linecap:round;stroke-linejoin:miter;stroke:rgb(100%,77.254902%,20%);stroke-opacity:1;stroke-miterlimit:10;" d="M 4.88266 -8.917342 C 4.88266 -8.960799 4.847449 -8.996064 4.803938 -8.996064 C 4.760427 -8.996064 4.725216 -8.960799 4.725216 -8.917342 " transform="matrix(72,0,0,-72,-40.492914,-571.325984)"/>
<path style="fill:none;stroke-width:0.00393701;stroke-linecap:round;stroke-linejoin:miter;stroke:rgb(100%,77.254902%,20%);stroke-opacity:1;stroke-miterlimit:10;" d="M 4.725216 -8.917342 C 4.725216 -8.873831 4.760427 -8.838566 4.803938 -8.838566 C 4.847449 -8.838566 4.88266 -8.873831 4.88266 -8.917342 " transform="matrix(72,0,0,-72,-40.492914,-571.325984)"/>
<path style="fill:none;stroke-width:0.00393701;stroke-linecap:round;stroke-linejoin:miter;stroke:rgb(100%,77.254902%,20%);stroke-opacity:1;stroke-miterlimit:10;" d="M 5.689789 -8.996064 C 5.745344 -8.996064 5.793413 -9.034855 5.805186 -9.089163 C 5.816959 -9.143525 5.789235 -9.198701 5.738617 -9.221704 " transform="matrix(72,0,0,-72,-40.492914,-571.325984)"/>
<path style="fill:none;stroke-width:0.00393701;stroke-linecap:round;stroke-linejoin:miter;stroke:rgb(100%,77.254902%,20%);stroke-opacity:1;stroke-miterlimit:10;" d="M 6.00473 -9.114174 C 6.00473 -9.192896 5.88662 -9.192896 5.88662 -9.114174 " transform="matrix(72,0,0,-72,-40.492914,-571.325984)"/>
<path style="fill:none;stroke-width:0.00393701;stroke-linecap:round;stroke-linejoin:miter;stroke:rgb(100%,77.254902%,20%);stroke-opacity:1;stroke-miterlimit:10;" d="M 5.88662 -9.114174 C 5.88662 -9.035452 6.00473 -9.035452 6.00473 -9.114174 " transform="matrix(72,0,0,-72,-40.492914,-571.325984)"/>
<path style="fill:none;stroke-width:0.00393701;stroke-linecap:round;stroke-linejoin:miter;stroke:rgb(100%,77.254902%,20%);stroke-opacity:1;stroke-miterlimit:10;" d="M 4.272037 -8.74015 C 4.228851 -8.74015 4.193803 -8.705157 4.193803 -8.661917 " transform="matrix(72,0,0,-72,-40.492914,-571.325984)"/>
<path style="fill:none;stroke-width:0.00393701;stroke-linecap:round;stroke-linejoin:miter;stroke:rgb(100%,77.254902%,20%);stroke-opacity:1;stroke-miterlimit:10;" d="M 5.935828 -9.221704 C 5.88521 -9.198701 5.857486 -9.143525 5.869259 -9.089163 C 5.881032 -9.034855 5.929101 -8.996064 5.984711 -8.996064 " transform="matrix(72,0,0,-72,-40.492914,-571.325984)"/>
<path style="fill:none;stroke-width:0.0216535;stroke-linecap:round;stroke-linejoin:miter;stroke:rgb(100%,77.254902%,20%);stroke-opacity:1;stroke-miterlimit:10;" d="M 2.815928 -8.779538 C 2.815928 -8.79397 2.794281 -8.79397 2.794281 -8.779538 " transform="matrix(72,0,0,-72,-40.492914,-571.325984)"/>
<path style="fill:none;stroke-width:0.0216535;stroke-linecap:round;stroke-linejoin:miter;stroke:rgb(100%,77.254902%,20%);stroke-opacity:1;stroke-miterlimit:10;" d="M 2.794281 -8.779538 C 2.794281 -8.765107 2.815928 -8.765107 2.815928 -8.779538 " transform="matrix(72,0,0,-72,-40.492914,-571.325984)"/>
<path style="fill:none;stroke-width:0.00393701;stroke-linecap:round;stroke-linejoin:miter;stroke:rgb(100%,77.254902%,20%);stroke-opacity:1;stroke-miterlimit:10;" d="M 4.262597 -8.917342 C 4.262597 -8.943547 4.223209 -8.943547 4.223209 -8.917342 " transform="matrix(72,0,0,-72,-40.492914,-571.325984)"/>
<path style="fill:none;stroke-width:0.00393701;stroke-linecap:round;stroke-linejoin:miter;stroke:rgb(100%,77.254902%,20%);stroke-opacity:1;stroke-miterlimit:10;" d="M 4.223209 -8.917342 C 4.223209 -8.891084 4.262597 -8.891084 4.262597 -8.917342 " transform="matrix(72,0,0,-72,-40.492914,-571.325984)"/>
<path style="fill:none;stroke-width:0.00393701;stroke-linecap:round;stroke-linejoin:miter;stroke:rgb(100%,77.254902%,20%);stroke-opacity:1;stroke-miterlimit:10;" d="M 4.262597 -8.917342 C 4.262597 -8.982935 4.164181 -8.982935 4.164181 -8.917342 " transform="matrix(72,0,0,-72,-40.492914,-571.325984)"/>
<path style="fill:none;stroke-width:0.00393701;stroke-linecap:round;stroke-linejoin:miter;stroke:rgb(100%,77.254902%,20%);stroke-opacity:1;stroke-miterlimit:10;" d="M 4.164181 -8.917342 C 4.164181 -8.851696 4.262597 -8.851696 4.262597 -8.917342 " transform="matrix(72,0,0,-72,-40.492914,-571.325984)"/>
<path style="fill:none;stroke-width:0.00393701;stroke-linecap:round;stroke-linejoin:miter;stroke:rgb(100%,77.254902%,20%);stroke-opacity:1;stroke-miterlimit:10;" d="M 5.945648 -9.114174 C 5.945648 -9.153562 5.88662 -9.153562 5.88662 -9.114174 " transform="matrix(72,0,0,-72,-40.492914,-571.325984)"/>
<path style="fill:none;stroke-width:0.00393701;stroke-linecap:round;stroke-linejoin:miter;stroke:rgb(100%,77.254902%,20%);stroke-opacity:1;stroke-miterlimit:10;" d="M 5.88662 -9.114174 C 5.88662 -9.074786 5.945648 -9.074786 5.945648 -9.114174 " transform="matrix(72,0,0,-72,-40.492914,-571.325984)"/>
<path style="fill:none;stroke-width:0.00393701;stroke-linecap:round;stroke-linejoin:miter;stroke:rgb(100%,77.254902%,20%);stroke-opacity:1;stroke-miterlimit:10;" d="M 5.926008 -9.114174 C 5.926008 -9.140433 5.88662 -9.140433 5.88662 -9.114174 " transform="matrix(72,0,0,-72,-40.492914,-571.325984)"/>
<path style="fill:none;stroke-width:0.00393701;stroke-linecap:round;stroke-linejoin:miter;stroke:rgb(100%,77.254902%,20%);stroke-opacity:1;stroke-miterlimit:10;" d="M 5.88662 -9.114174 C 5.88662 -9.087915 5.926008 -9.087915 5.926008 -9.114174 " transform="matrix(72,0,0,-72,-40.492914,-571.325984)"/>
<path style="fill:none;stroke-width:0.00393701;stroke-linecap:round;stroke-linejoin:miter;stroke:rgb(100%,77.254902%,20%);stroke-opacity:1;stroke-miterlimit:10;" d="M 6.506683 -8.445608 C 6.52003 -8.4302 6.544769 -8.433781 6.553233 -8.452281 C 6.561696 -8.470782 6.548133 -8.491832 6.527788 -8.491832 " transform="matrix(72,0,0,-72,-40.492914,-571.325984)"/>
<path style="fill:none;stroke-width:0.00393701;stroke-linecap:round;stroke-linejoin:miter;stroke:rgb(100%,77.254902%,20%);stroke-opacity:1;stroke-miterlimit:10;" d="M 5.788205 -9.114174 C 5.788205 -9.166691 5.709428 -9.166691 5.709428 -9.114174 " transform="matrix(72,0,0,-72,-40.492914,-571.325984)"/>
<path style="fill:none;stroke-width:0.00393701;stroke-linecap:round;stroke-linejoin:miter;stroke:rgb(100%,77.254902%,20%);stroke-opacity:1;stroke-miterlimit:10;" d="M 5.709428 -9.114174 C 5.709428 -9.061656 5.788205 -9.061656 5.788205 -9.114174 " transform="matrix(72,0,0,-72,-40.492914,-571.325984)"/>
<path style="fill:none;stroke-width:0.0314961;stroke-linecap:round;stroke-linejoin:miter;stroke:rgb(100%,77.254902%,20%);stroke-opacity:1;stroke-miterlimit:10;" d="M 2.555891 -8.503931 C 2.555891 -8.524927 2.524424 -8.524927 2.524424 -8.503931 " transform="matrix(72,0,0,-72,-40.492914,-571.325984)"/>
<path style="fill:none;stroke-width:0.0314961;stroke-linecap:round;stroke-linejoin:miter;stroke:rgb(100%,77.254902%,20%);stroke-opacity:1;stroke-miterlimit:10;" d="M 2.524424 -8.503931 C 2.524424 -8.482935 2.555891 -8.482935 2.555891 -8.503931 " transform="matrix(72,0,0,-72,-40.492914,-571.325984)"/>
<path style="fill:none;stroke-width:0.0314961;stroke-linecap:round;stroke-linejoin:miter;stroke:rgb(100%,77.254902%,20%);stroke-opacity:1;stroke-miterlimit:10;" d="M 2.01455 -8.96655 C 2.01455 -8.987546 1.983083 -8.987546 1.983083 -8.96655 " transform="matrix(72,0,0,-72,-40.492914,-571.325984)"/>
<path style="fill:none;stroke-width:0.0314961;stroke-linecap:round;stroke-linejoin:miter;stroke:rgb(100%,77.254902%,20%);stroke-opacity:1;stroke-miterlimit:10;" d="M 1.983083 -8.96655 C 1.983083 -8.945554 2.01455 -8.945554 2.01455 -8.96655 " transform="matrix(72,0,0,-72,-40.492914,-571.325984)"/>
<path style="fill:none;stroke-width:0.00393701;stroke-linecap:round;stroke-linejoin:miter;stroke:rgb(100%,77.254902%,20%);stroke-opacity:1;stroke-miterlimit:10;" d="M 4.262597 -8.917342 C 4.262597 -8.956676 4.203569 -8.956676 4.203569 -8.917342 " transform="matrix(72,0,0,-72,-40.492914,-571.325984)"/>
<path style="fill:none;stroke-width:0.00393701;stroke-linecap:round;stroke-linejoin:miter;stroke:rgb(100%,77.254902%,20%);stroke-opacity:1;stroke-miterlimit:10;" d="M 4.203569 -8.917342 C 4.203569 -8.877954 4.262597 -8.877954 4.262597 -8.917342 " transform="matrix(72,0,0,-72,-40.492914,-571.325984)"/>
<path style="fill:none;stroke-width:0.0216535;stroke-linecap:round;stroke-linejoin:miter;stroke:rgb(100%,77.254902%,20%);stroke-opacity:1;stroke-miterlimit:10;" d="M 2.452538 -8.503931 C 2.452538 -8.518362 2.430891 -8.518362 2.430891 -8.503931 " transform="matrix(72,0,0,-72,-40.492914,-571.325984)"/>
<path style="fill:none;stroke-width:0.0216535;stroke-linecap:round;stroke-linejoin:miter;stroke:rgb(100%,77.254902%,20%);stroke-opacity:1;stroke-miterlimit:10;" d="M 2.430891 -8.503931 C 2.430891 -8.489499 2.452538 -8.489499 2.452538 -8.503931 " transform="matrix(72,0,0,-72,-40.492914,-571.325984)"/>
<path style="fill:none;stroke-width:0.00393701;stroke-linecap:round;stroke-linejoin:miter;stroke:rgb(100%,77.254902%,20%);stroke-opacity:1;stroke-miterlimit:10;" d="M 4.291731 -8.720456 C 4.291731 -8.731361 4.282942 -8.74015 4.272037 -8.74015 " transform="matrix(72,0,0,-72,-40.492914,-571.325984)"/>
<path style="fill:none;stroke-width:0.00393701;stroke-linecap:round;stroke-linejoin:miter;stroke:rgb(100%,77.254902%,20%);stroke-opacity:1;stroke-miterlimit:10;" d="M 4.262597 -8.917342 C 4.262597 -8.969805 4.183875 -8.969805 4.183875 -8.917342 " transform="matrix(72,0,0,-72,-40.492914,-571.325984)"/>
<path style="fill:none;stroke-width:0.00393701;stroke-linecap:round;stroke-linejoin:miter;stroke:rgb(100%,77.254902%,20%);stroke-opacity:1;stroke-miterlimit:10;" d="M 4.183875 -8.917342 C 4.183875 -8.864825 4.262597 -8.864825 4.262597 -8.917342 " transform="matrix(72,0,0,-72,-40.492914,-571.325984)"/>
<path style="fill:none;stroke-width:0.00393701;stroke-linecap:round;stroke-linejoin:miter;stroke:rgb(100%,77.254902%,20%);stroke-opacity:1;stroke-miterlimit:10;" d="M 5.788205 -9.114174 C 5.788205 -9.153562 5.729123 -9.153562 5.729123 -9.114174 " transform="matrix(72,0,0,-72,-40.492914,-571.325984)"/>
<path style="fill:none;stroke-width:0.00393701;stroke-linecap:round;stroke-linejoin:miter;stroke:rgb(100%,77.254902%,20%);stroke-opacity:1;stroke-miterlimit:10;" d="M 5.729123 -9.114174 C 5.729123 -9.074786 5.788205 -9.074786 5.788205 -9.114174 " transform="matrix(72,0,0,-72,-40.492914,-571.325984)"/>
<path style="fill:none;stroke-width:0.00393701;stroke-linecap:round;stroke-linejoin:miter;stroke:rgb(100%,77.254902%,20%);stroke-opacity:1;stroke-miterlimit:10;" d="M 4.922048 -8.907468 L 5.020464 -8.907468 " transform="matrix(72,0,0,-72,-40.492914,-571.325984)"/>
<path style="fill:none;stroke-width:0.00393701;stroke-linecap:round;stroke-linejoin:miter;stroke:rgb(100%,77.254902%,20%);stroke-opacity:1;stroke-miterlimit:10;" d="M 6.083452 -9.114174 C 6.083452 -9.168536 6.039398 -9.21259 5.985036 -9.21259 C 5.930674 -9.21259 5.88662 -9.168536 5.88662 -9.114174 " transform="matrix(72,0,0,-72,-40.492914,-571.325984)"/>
<path style="fill:none;stroke-width:0.00393701;stroke-linecap:round;stroke-linejoin:miter;stroke:rgb(100%,77.254902%,20%);stroke-opacity:1;stroke-miterlimit:10;" d="M 5.88662 -9.114174 C 5.88662 -9.059812 5.930674 -9.015758 5.985036 -9.015758 C 6.039398 -9.015758 6.083452 -9.059812 6.083452 -9.114174 " transform="matrix(72,0,0,-72,-40.492914,-571.325984)"/>
<path style="fill:none;stroke-width:0.00393701;stroke-linecap:round;stroke-linejoin:miter;stroke:rgb(100%,77.254902%,20%);stroke-opacity:1;stroke-miterlimit:10;" d="M 4.078786 -8.712535 C 4.04835 -8.700328 4.026106 -8.673744 4.019541 -8.641626 C 4.012922 -8.609562 4.022905 -8.576305 4.046071 -8.553139 " transform="matrix(72,0,0,-72,-40.492914,-571.325984)"/>
<path style="fill:none;stroke-width:0.011811;stroke-linecap:round;stroke-linejoin:miter;stroke:rgb(100%,77.254902%,20%);stroke-opacity:1;stroke-miterlimit:10;" d="M 0.866167 -8.110213 L 6.811045 -8.110213 " transform="matrix(72,0,0,-72,-40.492914,-571.325984)"/>
<path style="fill:none;stroke-width:0.011811;stroke-linecap:round;stroke-linejoin:miter;stroke:rgb(100%,77.254902%,20%);stroke-opacity:1;stroke-miterlimit:10;" d="M 6.811045 -8.110213 L 6.811045 -11.574786 " transform="matrix(72,0,0,-72,-40.492914,-571.325984)"/>
<path style="fill:none;stroke-width:0.011811;stroke-linecap:round;stroke-linejoin:miter;stroke:rgb(100%,77.254902%,20%);stroke-opacity:1;stroke-miterlimit:10;" d="M 6.811045 -11.574786 L 0.866167 -11.574786 " transform="matrix(72,0,0,-72,-40.492914,-571.325984)"/>
<path style="fill:none;stroke-width:0.011811;stroke-linecap:round;stroke-linejoin:miter;stroke:rgb(100%,77.254902%,20%);stroke-opacity:1;stroke-miterlimit:10;" d="M 0.866167 -11.574786 L 0.866167 -8.110213 " transform="matrix(72,0,0,-72,-40.492914,-571.325984)"/>
<path style=" stroke:none;fill-rule:evenodd;fill:rgb(100%,77.254902%,20%);fill-opacity:1;" d="M 312.289063 37.722656 L 312.289063 38.382813 L 310.964844 38.382813 L 310.964844 37.058594 L 312.289063 37.058594 Z "/>
<path style=" stroke:none;fill-rule:evenodd;fill:rgb(100%,77.254902%,20%);fill-opacity:1;" d="M 312.289063 45.96875 L 312.289063 46.691406 L 310.964844 46.691406 L 310.964844 45.246094 L 312.289063 45.246094 Z "/>
<path style=" stroke:none;fill-rule:evenodd;fill:rgb(100%,77.254902%,20%);fill-opacity:1;" d="M 316.382813 41.875 L 316.382813 42.597656 L 315.058594 42.597656 L 315.058594 41.152344 L 316.382813 41.152344 Z "/>
<path style=" stroke:none;fill-rule:evenodd;fill:rgb(100%,77.254902%,20%);fill-opacity:1;" d="M 343.109375 48.675781 L 343.109375 52.109375 L 341.785156 52.109375 L 341.785156 45.246094 L 343.109375 45.246094 Z "/>
<path style=" stroke:none;fill-rule:evenodd;fill:rgb(100%,77.254902%,20%);fill-opacity:1;" d="M 308.195313 41.867188 L 308.195313 42.597656 L 307.527344 42.597656 L 307.074219 42.570313 L 306.835938 42.484375 L 306.796875 42.429688 L 306.765625 42.210938 L 306.765625 41.867188 L 306.773438 41.738281 L 306.808594 41.210938 L 307.503906 41.175781 L 308.195313 41.140625 Z "/>
<path style=" stroke:none;fill-rule:evenodd;fill:rgb(100%,77.254902%,20%);fill-opacity:1;" d="M 303.128906 51.453125 L 303.128906 52.113281 L 304.453125 52.113281 L 304.453125 53.4375 L 303.128906 53.4375 L 303.128906 54.882813 L 301.683594 54.882813 L 301.683594 53.4375 L 300.359375 53.4375 L 300.359375 52.113281 L 301.683594 52.113281 L 301.683594 50.789063 L 303.128906 50.789063 Z "/>
<path style=" stroke:none;fill-rule:evenodd;fill:rgb(100%,77.254902%,20%);fill-opacity:1;" d="M 291.699219 62.464844 L 291.699219 63.1875 L 293.085938 63.1875 L 293.042969 63.847656 L 293 64.511719 L 291.699219 64.511719 L 291.699219 65.835938 L 290.375 65.835938 L 290.375 64.511719 L 291.699219 64.511719 L 291.699219 63.1875 L 290.375 63.1875 L 290.375 64.511719 L 288.929688 64.511719 L 288.929688 63.199219 L 289.621094 63.160156 L 290.316406 63.125 L 290.386719 61.742188 L 291.699219 61.742188 Z "/>
<path style=" stroke:none;fill-rule:evenodd;fill:rgb(100%,77.254902%,20%);fill-opacity:1;" d="M 336.246094 39.136719 L 336.246094 39.828125 L 339.015625 39.828125 L 339.015625 41.140625 L 339.710938 41.175781 L 340.402344 41.210938 L 340.4375 41.90625 L 340.472656 42.597656 L 341.785156 42.597656 L 341.785156 45.222656 L 341.125 45.265625 L 340.460938 45.304688 L 340.460938 42.597656 L 339.015625 42.597656 L 339.015625 41.152344 L 336.246094 41.152344 L 336.246094 39.824219 L 332.847656 39.855469 L 329.445313 39.886719 L 329.410156 40.519531 L 329.371094 41.152344 L 326.75 41.152344 L 326.710938 41.84375 L 326.675781 42.535156 L 325.984375 42.574219 L 325.292969 42.609375 L 325.292969 45.234375 L 324.027344 45.304688 L 324.027344 52.167969 L 325.292969 52.167969 L 325.292969 54.878906 L 326.734375 54.878906 L 326.734375 56.324219 L 328.109375 56.324219 L 328.738281 56.332031 L 329.160156 56.355469 L 329.394531 56.398438 L 329.472656 56.464844 L 329.472656 56.683594 L 329.484375 57.019531 L 329.488281 57.136719 L 329.503906 57.648438 L 336.246094 57.648438 L 336.246094 56.324219 L 339.015625 56.324219 L 339.015625 54.878906 L 340.460938 54.878906 L 340.460938 52.230469 L 341.785156 52.230469 L 341.785156 54.878906 L 340.472656 54.878906 L 340.402344 56.261719 L 339.710938 56.300781 L 339.015625 56.335938 L 339.015625 57.648438 L 336.246094 57.648438 L 336.246094 58.972656 L 329.519531 58.972656 L 329.480469 58.339844 L 329.445313 57.707031 L 328.089844 57.671875 L 326.734375 57.640625 L 326.734375 56.980469 L 326.722656 56.59375 L 326.671875 56.390625 L 326.566406 56.316406 L 326.527344 56.3125 L 326.269531 56.300781 L 325.910156 56.285156 L 325.832031 56.28125 L 325.351563 56.261719 L 325.28125 54.878906 L 323.976563 54.878906 L 323.90625 52.167969 L 322.640625 52.097656 L 322.640625 45.246094 L 323.96875 45.246094 L 323.96875 42.597656 L 325.292969 42.597656 L 325.292969 41.152344 L 326.734375 41.152344 L 326.734375 39.835938 L 328.089844 39.800781 L 329.445313 39.769531 L 329.46875 38.496094 L 332.859375 38.46875 L 336.246094 38.445313 Z "/>
<path style=" stroke:none;fill-rule:evenodd;fill:rgb(100%,77.254902%,20%);fill-opacity:1;" d="M 191.257813 43.308594 L 191.257813 45.878906 L 186.121094 45.878906 L 186.125 43.316406 L 186.132813 40.753906 L 188.695313 40.75 L 191.257813 40.742188 Z "/>
<path style=" stroke:none;fill-rule:evenodd;fill:rgb(100%,77.254902%,20%);fill-opacity:1;" d="M 191.257813 81.132813 L 191.257813 83.707031 L 186.121094 83.707031 L 186.121094 78.554688 L 191.257813 78.554688 Z "/>
<path style=" stroke:none;fill-rule:evenodd;fill:rgb(100%,77.254902%,20%);fill-opacity:1;" d="M 213.660156 77.710938 L 213.660156 78.582031 L 211.890625 78.582031 L 211.886719 77.710938 L 211.886719 76.839844 L 213.660156 76.839844 Z "/>
<path style=" stroke:none;fill-rule:evenodd;fill:rgb(100%,77.254902%,20%);fill-opacity:1;" d="M 217.09375 86.308594 L 217.09375 87.195313 L 215.347656 87.195313 L 215.347656 85.421875 L 217.09375 85.421875 Z "/>
<path style=" stroke:none;fill-rule:evenodd;fill:rgb(100%,77.254902%,20%);fill-opacity:1;" d="M 220.527344 86.308594 L 220.527344 87.195313 L 218.78125 87.195313 L 218.78125 85.421875 L 220.527344 85.421875 Z "/>
<path style=" stroke:none;fill-rule:evenodd;fill:rgb(100%,77.254902%,20%);fill-opacity:1;" d="M 222.246094 75.996094 L 222.246094 76.867188 L 220.5 76.867188 L 220.5 75.121094 L 222.246094 75.121094 Z "/>
<path style=" stroke:none;fill-rule:evenodd;fill:rgb(100%,77.254902%,20%);fill-opacity:1;" d="M 229.085938 43.308594 L 229.085938 45.878906 L 223.933594 45.878906 L 223.933594 40.742188 L 229.085938 40.742188 Z "/>
<path style=" stroke:none;fill-rule:evenodd;fill:rgb(100%,77.254902%,20%);fill-opacity:1;" d="M 210.226563 39.039063 L 210.226563 40.785156 L 206.738281 40.785156 L 206.738281 39.039063 L 208.453125 39.039063 L 208.453125 37.292969 L 210.226563 37.292969 Z "/>
<path style=" stroke:none;fill-rule:evenodd;fill:rgb(100%,77.254902%,20%);fill-opacity:1;" d="M 194.691406 43.304688 L 194.691406 49.3125 L 182.671875 49.3125 L 182.671875 47.625 L 193 47.625 L 193 39.011719 L 184.390625 39.011719 L 184.390625 47.625 L 182.671875 47.625 L 182.671875 37.292969 L 194.691406 37.292969 Z "/>
<path style=" stroke:none;fill-rule:evenodd;fill:rgb(100%,77.254902%,20%);fill-opacity:1;" d="M 194.691406 81.132813 L 194.691406 87.140625 L 182.671875 87.140625 L 182.671875 76.8125 L 184.390625 76.8125 L 184.390625 84.074219 L 184.394531 84.390625 L 184.394531 85.105469 L 184.398438 85.261719 L 184.398438 85.417969 L 184.402344 85.425781 L 184.429688 85.425781 L 184.511719 85.429688 L 185.296875 85.429688 L 185.597656 85.433594 L 187.542969 85.433594 L 188.003906 85.429688 L 188.707031 85.429688 L 193 85.421875 L 193 76.8125 L 182.671875 76.8125 L 182.671875 75.121094 L 194.691406 75.121094 Z "/>
<path style=" stroke:none;fill-rule:evenodd;fill:rgb(100%,77.254902%,20%);fill-opacity:1;" d="M 232.519531 43.304688 L 232.519531 49.3125 L 220.5 49.3125 L 220.5 47.625 L 230.800781 47.625 L 230.808594 43.328125 L 230.808594 39.339844 L 230.804688 39.1875 L 230.804688 39.023438 L 230.773438 39.019531 L 230.386719 39.019531 L 230.167969 39.015625 L 229.277344 39.015625 L 228.910156 39.011719 L 222.1875 39.011719 L 222.1875 47.625 L 220.5 47.625 L 220.5 37.292969 L 232.519531 37.292969 Z "/>
<path style=" stroke:none;fill-rule:evenodd;fill:rgb(100%,77.254902%,20%);fill-opacity:1;" d="M 215.375 38.167969 L 215.375 39.039063 L 216.214844 39.03125 L 217.050781 39.023438 L 217.058594 38.160156 L 217.066406 37.292969 L 218.8125 37.292969 L 218.8125 39.066406 L 217.09375 39.066406 L 217.101563 39.902344 L 217.109375 40.742188 L 218.8125 40.742188 L 218.8125 42.5 L 217.09375 42.5 L 217.09375 45.933594 L 215.375 45.933594 L 215.375 49.339844 L 217.066406 49.339844 L 217.066406 47.625 L 218.8125 47.625 L 218.8125 49.367188 L 217.09375 49.367188 L 217.09375 51.085938 L 215.375 51.085938 L 215.375 52.800781 L 213.660156 52.800781 L 213.644531 54.519531 L 208.507813 54.519531 L 208.507813 56.207031 L 210.226563 56.207031 L 210.226563 57.925781 L 211.902344 57.925781 L 211.886719 56.207031 L 213.660156 56.207031 L 213.660156 57.980469 L 211.941406 57.964844 L 211.941406 59.640625 L 222.21875 59.640625 L 222.21875 57.980469 L 221.382813 57.972656 L 220.6875 57.972656 L 220.589844 57.976563 L 220.539063 57.976563 L 220.535156 58.007813 L 220.535156 58.085938 L 220.53125 58.207031 L 220.53125 58.359375 L 220.527344 58.542969 L 220.527344 59.640625 L 217.066406 59.640625 L 217.058594 58.816406 L 217.058594 58.808594 L 217.050781 57.976563 L 216.199219 57.980469 L 215.347656 57.980469 L 215.347656 57.925781 L 223.960938 57.925781 L 223.960938 59.640625 L 227.367188 59.640625 L 227.367188 57.980469 L 225.652344 57.980469 L 225.652344 57.925781 L 229.085938 57.925781 L 229.085938 56.234375 L 228.246094 56.242188 L 227.410156 56.25 L 227.402344 57.085938 L 227.394531 57.925781 L 225.652344 57.925781 L 225.652344 56.207031 L 227.367188 56.207031 L 227.367188 54.519531 L 225.671875 54.527344 L 223.976563 54.53125 L 223.960938 55.390625 L 223.949219 56.25 L 222.257813 56.25 L 222.25 57.085938 L 222.242188 57.925781 L 215.347656 57.925781 L 215.347656 56.207031 L 217.066406 56.207031 L 217.066406 54.492188 L 222.21875 54.492188 L 222.21875 52.800781 L 220.789063 52.800781 L 220.46875 52.804688 L 219.847656 52.804688 L 219.648438 52.800781 L 218.78125 52.800781 L 218.78125 51.058594 L 223.960938 51.058594 L 223.960938 52.773438 L 227.367188 52.773438 L 227.367188 51.058594 L 232.574219 51.058594 L 232.574219 54.53125 L 231.695313 54.527344 L 230.816406 54.519531 L 230.800781 52.800781 L 229.140625 52.800781 L 229.140625 56.207031 L 229.984375 56.214844 L 230.832031 56.222656 L 230.828125 57.074219 L 230.828125 57.925781 L 232.574219 57.925781 L 232.574219 61.414063 L 229.085938 61.414063 L 229.085938 59.699219 L 227.394531 59.699219 L 227.394531 61.414063 L 223.960938 61.414063 L 223.960938 63.074219 L 227.394531 63.074219 L 227.402344 63.941406 L 227.410156 64.804688 L 232.574219 64.804688 L 232.574219 68.28125 L 229.140625 68.28125 L 229.140625 69.972656 L 229.992188 69.972656 L 230.261719 69.96875 L 231.707031 69.96875 L 232.574219 69.972656 L 232.574219 71.714844 L 229.140625 71.714844 L 229.140625 73.40625 L 232.574219 73.40625 L 232.574219 75.148438 L 229.085938 75.148438 L 229.085938 73.433594 L 227.394531 73.433594 L 227.394531 75.148438 L 225.691406 75.164063 L 225.691406 76.824219 L 227.394531 76.839844 L 227.394531 78.554688 L 229.085938 78.554688 L 229.085938 76.839844 L 230.84375 76.839844 L 230.84375 78.542969 L 231.707031 78.550781 L 232.574219 78.554688 L 232.574219 80.3125 L 231.695313 80.308594 L 230.816406 80.300781 L 230.808594 79.449219 L 230.804688 78.597656 L 229.140625 78.582031 L 229.140625 81.988281 L 229.984375 81.996094 L 230.832031 82.003906 L 230.832031 85.453125 L 229.957031 85.457031 L 229.085938 85.464844 L 229.085938 83.761719 L 227.394531 83.761719 L 227.394531 85.1875 L 227.398438 85.511719 L 227.398438 86.132813 L 227.394531 86.332031 L 227.394531 87.195313 L 223.933594 87.195313 L 223.933594 83.761719 L 213.632813 83.761719 L 213.632813 81.988281 L 225.652344 81.988281 L 225.652344 80.300781 L 224.8125 80.308594 L 223.976563 80.3125 L 223.96875 81.152344 L 223.960938 81.988281 L 222.21875 81.988281 L 222.210938 81.152344 L 222.203125 80.3125 L 220.542969 80.3125 L 220.535156 81.152344 L 220.527344 81.988281 L 213.632813 81.988281 L 213.632813 80.273438 L 217.066406 80.273438 L 217.066406 78.582031 L 215.335938 78.582031 L 215.335938 78.554688 L 223.933594 78.554688 L 223.933594 73.433594 L 218.8125 73.433594 L 218.8125 78.554688 L 215.335938 78.554688 L 215.335938 75.164063 L 213.609375 75.15625 L 211.886719 75.148438 L 211.886719 74.296875 L 211.890625 73.445313 L 211.058594 73.4375 L 210.226563 73.433594 L 210.226563 80.273438 L 211.941406 80.273438 L 211.941406 82.03125 L 211.085938 82.023438 L 210.226563 82.015625 L 210.226563 83.707031 L 211.941406 83.707031 L 211.941406 85.4375 L 213.660156 85.421875 L 213.660156 87.195313 L 210.183594 87.195313 L 210.191406 85.480469 L 210.199219 83.761719 L 208.507813 83.761719 L 208.507813 85.464844 L 205.933594 85.457031 L 203.359375 85.453125 L 203.359375 87.195313 L 199.867188 87.195313 L 199.867188 83.761719 L 196.433594 83.761719 L 196.433594 83.707031 L 201.585938 83.707031 L 201.585938 82.015625 L 200.75 82.023438 L 199.910156 82.03125 L 199.902344 82.867188 L 199.894531 83.707031 L 196.433594 83.707031 L 196.433594 81.144531 L 203.355469 81.144531 L 203.355469 81.976563 L 205.074219 81.992188 L 205.074219 83.707031 L 206.738281 83.707031 L 206.738281 81.988281 L 210.199219 81.988281 L 210.191406 81.152344 L 210.183594 80.3125 L 209.347656 80.308594 L 208.507813 80.300781 L 208.507813 81.988281 L 206.738281 81.988281 L 206.738281 80.273438 L 208.453125 80.273438 L 208.453125 78.582031 L 205.070313 78.597656 L 205.078125 80.300781 L 204.214844 80.308594 L 203.355469 80.3125 L 203.355469 81.144531 L 196.433594 81.144531 L 196.433594 78.554688 L 198.179688 78.554688 L 198.179688 80.273438 L 199.867188 80.273438 L 199.867188 78.554688 L 201.613281 78.554688 L 201.613281 80.273438 L 203.304688 80.273438 L 203.304688 78.554688 L 205.019531 78.554688 L 205.019531 75.542969 L 206.785156 75.542969 L 206.785156 76.003906 L 206.792969 76.839844 L 208.453125 76.839844 L 208.453125 75.148438 L 207.417969 75.148438 L 207.230469 75.152344 L 207.066406 75.152344 L 206.933594 75.15625 L 206.839844 75.15625 L 206.792969 75.160156 L 206.789063 75.160156 L 206.789063 75.191406 L 206.785156 75.269531 L 206.785156 75.542969 L 205.019531 75.542969 L 205.019531 75.148438 L 203.355469 75.164063 L 203.359375 76.015625 L 203.359375 76.867188 L 198.152344 76.867188 L 198.152344 75.148438 L 196.433594 75.148438 L 196.433594 75.121094 L 199.867188 75.121094 L 199.867188 73.40625 L 201.585938 73.40625 L 201.585938 71.730469 L 205.074219 71.730469 L 205.074219 73.390625 L 205.101563 73.394531 L 205.175781 73.398438 L 205.292969 73.402344 L 205.625 73.402344 L 205.828125 73.40625 L 206.738281 73.40625 L 206.738281 71.75 L 206.710938 71.746094 L 206.636719 71.742188 L 206.519531 71.738281 L 206.367188 71.734375 L 206.183594 71.730469 L 201.585938 71.730469 L 201.585938 71.714844 L 199.867188 71.714844 L 199.867188 70 L 198.179688 70 L 198.179688 75.121094 L 196.433594 75.121094 L 196.433594 70 L 191.3125 70 L 191.3125 71.6875 L 194.746094 71.6875 L 194.746094 73.433594 L 191.285156 73.433594 L 191.285156 71.714844 L 189.59375 71.714844 L 189.59375 73.433594 L 187.851563 73.433594 L 187.851563 71.714844 L 186.121094 71.714844 L 186.125 70 L 186.132813 68.28125 L 184.445313 68.28125 L 184.445313 73.433594 L 182.671875 73.433594 L 182.679688 69.976563 L 182.6875 66.523438 L 183.542969 66.519531 L 184.402344 66.511719 L 184.417969 64.847656 L 182.671875 64.847656 L 182.671875 63.074219 L 184.445313 63.074219 L 184.445313 64.820313 L 185.28125 64.8125 L 186.121094 64.804688 L 186.125 63.949219 L 186.132813 63.089844 L 187.003906 63.082031 L 187.878906 63.074219 L 187.878906 66.566406 L 186.160156 66.566406 L 186.160156 68.253906 L 187.878906 68.253906 L 187.878906 69.972656 L 188.714844 69.964844 L 189.554688 69.957031 L 189.558594 69.109375 L 189.558594 68.28125 L 196.464844 68.28125 L 196.464844 69.507813 L 196.46875 69.671875 L 196.472656 69.804688 L 196.476563 69.898438 L 196.480469 69.949219 L 196.480469 69.953125 L 196.511719 69.957031 L 196.59375 69.960938 L 196.714844 69.964844 L 196.871094 69.96875 L 197.050781 69.96875 L 197.253906 69.972656 L 198.152344 69.972656 L 198.152344 68.28125 L 189.558594 68.28125 L 189.558594 68.253906 L 196.433594 68.253906 L 196.433594 66.566406 L 193.027344 66.566406 L 193.027344 68.253906 L 189.558594 68.253906 L 189.558594 68.242188 L 189.5625 67.90625 L 189.5625 66.878906 L 189.566406 66.558594 L 189.566406 64.804688 L 194.703125 64.804688 L 194.71875 63.132813 L 191.285156 63.132813 L 191.285156 63.074219 L 196.433594 63.074219 L 196.433594 61.414063 L 194.746094 61.414063 L 194.746094 63.074219 L 191.285156 63.074219 L 191.285156 61.359375 L 198.152344 61.359375 L 198.152344 59.699219 L 197.320313 59.691406 L 197.109375 59.691406 L 196.917969 59.6875 L 196.753906 59.6875 L 196.621094 59.691406 L 196.527344 59.691406 L 196.480469 59.695313 L 196.472656 59.695313 L 196.472656 59.722656 L 196.46875 59.800781 L 196.464844 59.921875 L 196.464844 61.359375 L 194.71875 61.359375 L 194.710938 60.53125 L 194.710938 60.527344 L 194.703125 59.695313 L 193.042969 59.695313 L 193.027344 61.359375 L 191.285156 61.359375 L 191.285156 60.832031 L 191.28125 60.566406 L 191.28125 60.121094 L 191.277344 59.949219 L 191.277344 59.816406 L 191.273438 59.730469 L 191.273438 59.695313 L 191.242188 59.691406 L 191.164063 59.691406 L 191.046875 59.6875 L 190.710938 59.6875 L 190.507813 59.691406 L 190.429688 59.691406 L 189.59375 59.699219 L 189.59375 61.414063 L 187.863281 61.40625 L 186.128906 61.402344 L 186.136719 59.699219 L 184.417969 59.699219 L 184.417969 58.8125 L 186.160156 58.8125 L 186.160156 59.640625 L 201.613281 59.640625 L 201.621094 60.515625 L 201.621094 61.101563 L 201.625 61.425781 L 201.621094 61.753906 L 201.621094 62.257813 L 201.613281 63.132813 L 199.867188 63.132813 L 199.867188 61.414063 L 198.179688 61.414063 L 198.179688 68.253906 L 199.910156 68.253906 L 199.910156 69.957031 L 201.613281 69.972656 L 201.613281 71.6875 L 203.304688 71.6875 L 203.304688 69.972656 L 205.019531 69.972656 L 205.019531 69.125 L 206.792969 69.125 L 206.792969 69.972656 L 208.507813 69.972656 L 208.507813 71.6875 L 209.347656 71.679688 L 210.183594 71.675781 L 210.183594 68.253906 L 211.941406 68.253906 L 211.941406 73.40625 L 213.640625 73.398438 L 215.335938 73.390625 L 215.34375 71.695313 L 215.34375 71.6875 L 220.5 71.6875 L 220.5 70 L 225.679688 70 L 225.679688 72.269531 L 225.683594 72.53125 L 225.683594 72.765625 L 225.6875 72.972656 L 225.6875 73.140625 L 225.691406 73.269531 L 225.695313 73.355469 L 225.695313 73.386719 L 225.726563 73.390625 L 225.808594 73.394531 L 225.929688 73.398438 L 226.085938 73.402344 L 226.265625 73.402344 L 226.472656 73.40625 L 227.367188 73.40625 L 227.367188 71.6875 L 229.085938 71.6875 L 229.085938 70 L 220.5 70 L 220.5 68.28125 L 222.246094 68.28125 L 222.246094 69.507813 L 222.25 69.671875 L 222.253906 69.804688 L 222.257813 69.898438 L 222.261719 69.949219 L 222.261719 69.953125 L 222.292969 69.957031 L 222.375 69.960938 L 222.496094 69.964844 L 222.652344 69.96875 L 222.832031 69.96875 L 223.035156 69.972656 L 223.933594 69.972656 L 223.933594 68.28125 L 220.5 68.28125 L 220.5 66.566406 L 225.679688 66.566406 L 225.679688 67.789063 L 225.683594 67.957031 L 225.6875 68.089844 L 225.691406 68.183594 L 225.695313 68.230469 L 225.695313 68.234375 L 225.726563 68.242188 L 225.808594 68.246094 L 225.929688 68.25 L 226.085938 68.25 L 226.265625 68.253906 L 227.367188 68.253906 L 227.367188 66.566406 L 218.8125 66.566406 L 218.8125 71.6875 L 215.34375 71.6875 L 215.347656 70 L 213.632813 70 L 213.632813 69.972656 L 217.066406 69.972656 L 217.066406 68.28125 L 215.375 68.28125 L 215.375 69.972656 L 213.632813 69.972656 L 213.632813 66.566406 L 210.183594 66.566406 L 210.191406 65.707031 L 210.191406 65.675781 L 213.660156 65.675781 L 213.660156 66.070313 L 213.664063 66.238281 L 213.664063 66.367188 L 213.667969 66.460938 L 213.671875 66.507813 L 213.671875 66.511719 L 213.699219 66.511719 L 213.78125 66.515625 L 214.078125 66.515625 L 214.292969 66.519531 L 215.808594 66.519531 L 216.175781 66.515625 L 216.226563 66.515625 L 218.769531 66.511719 L 218.777344 65.675781 L 220.527344 65.675781 L 220.527344 66.070313 L 220.53125 66.238281 L 220.53125 66.367188 L 220.535156 66.460938 L 220.539063 66.507813 L 220.539063 66.511719 L 220.566406 66.511719 L 220.648438 66.515625 L 220.777344 66.515625 L 220.949219 66.519531 L 221.40625 66.519531 L 221.6875 66.523438 L 225.652344 66.523438 L 225.652344 64.847656 L 223.933594 64.847656 L 223.933594 63.132813 L 222.246094 63.132813 L 222.246094 64.847656 L 220.527344 64.847656 L 220.527344 65.675781 L 218.777344 65.675781 L 218.777344 65.664063 L 218.785156 64.847656 L 218.785156 64.820313 L 220.5 64.820313 L 220.5 63.132813 L 217.066406 63.132813 L 217.066406 63.074219 L 222.21875 63.074219 L 222.21875 61.414063 L 220.527344 61.414063 L 220.527344 63.074219 L 217.066406 63.074219 L 217.066406 61.414063 L 215.375 61.414063 L 215.375 64.847656 L 213.660156 64.847656 L 213.660156 65.675781 L 210.191406 65.675781 L 210.199219 64.847656 L 208.507813 64.847656 L 208.507813 68.28125 L 206.792969 68.28125 L 206.792969 69.125 L 205.019531 69.125 L 205.019531 68.253906 L 206.738281 68.253906 L 206.738281 66.566406 L 205.019531 66.566406 L 205.019531 64.847656 L 203.359375 64.847656 L 203.359375 68.28125 L 201.585938 68.28125 L 201.585938 64.820313 L 203.304688 64.820313 L 203.304688 61.359375 L 205.074219 61.359375 L 205.925781 61.367188 L 206.777344 61.371094 L 206.792969 63.074219 L 210.226563 63.074219 L 210.226563 64.820313 L 211.058594 64.8125 L 211.886719 64.804688 L 211.886719 61.359375 L 223.933594 61.359375 L 223.933594 59.699219 L 222.246094 59.699219 L 222.246094 61.359375 L 211.886719 61.359375 L 211.886719 60.597656 L 211.882813 60.527344 L 211.882813 60.128906 L 211.878906 59.953125 L 211.878906 59.820313 L 211.875 59.734375 L 211.875 59.699219 L 210.226563 59.699219 L 210.226563 61.414063 L 208.453125 61.414063 L 208.453125 59.699219 L 205.074219 59.699219 L 205.074219 61.359375 L 203.304688 61.359375 L 203.304688 59.640625 L 205.019531 59.640625 L 205.019531 57.980469 L 198.179688 57.980469 L 198.179688 59.640625 L 187.851563 59.640625 L 187.851563 58.609375 L 187.847656 58.417969 L 187.847656 58.253906 L 187.84375 58.121094 L 187.84375 58.027344 L 187.839844 57.980469 L 187.839844 57.976563 L 187.808594 57.976563 L 187.730469 57.972656 L 186.996094 57.972656 L 186.160156 57.980469 L 186.160156 58.8125 L 184.417969 58.8125 L 184.417969 57.925781 L 186.132813 57.925781 L 186.128906 57.085938 L 186.121094 56.25 L 185.269531 56.242188 L 184.414063 56.238281 L 184.414063 53.835938 L 184.417969 53.640625 L 184.417969 52.773438 L 185.269531 52.769531 L 186.121094 52.761719 L 186.121094 51.058594 L 191.3125 51.058594 L 191.3125 52.800781 L 190.445313 52.800781 L 190.175781 52.804688 L 189.542969 52.804688 L 189.222656 52.800781 L 187.878906 52.800781 L 187.878906 54.53125 L 186.160156 54.515625 L 186.160156 56.207031 L 187.878906 56.207031 L 187.878906 57.925781 L 208.453125 57.925781 L 208.453125 56.238281 L 205.074219 56.238281 L 205.074219 57.925781 L 198.152344 57.925781 L 198.152344 56.207031 L 199.867188 56.207031 L 199.867188 54.515625 L 199.019531 54.519531 L 198.167969 54.523438 L 198.164063 54.492188 L 201.628906 54.492188 L 201.621094 55.351563 L 201.613281 56.207031 L 203.304688 56.207031 L 203.304688 52.773438 L 205.074219 52.773438 L 205.074219 54.492188 L 208.453125 54.492188 L 208.453125 52.800781 L 206.738281 52.800781 L 206.738281 51.929688 L 210.226563 51.929688 L 210.226563 52.773438 L 213.632813 52.773438 L 213.632813 51.058594 L 215.347656 51.058594 L 215.347656 49.367188 L 213.632813 49.367188 L 213.632813 44.21875 L 211.941406 44.21875 L 211.941406 51.085938 L 210.226563 51.085938 L 210.226563 51.929688 L 206.738281 51.929688 L 206.738281 49.339844 L 208.507813 49.339844 L 209.347656 49.332031 L 210.183594 49.328125 L 210.183594 47.664063 L 209.347656 47.65625 L 208.507813 47.648438 L 208.507813 49.339844 L 206.738281 49.339844 L 206.738281 47.648438 L 205.074219 47.664063 L 205.074219 51.085938 L 203.617188 51.085938 L 203.296875 51.089844 L 202.683594 51.089844 L 202.472656 51.09375 L 201.628906 51.097656 L 201.628906 52.789063 L 200.769531 52.800781 L 199.910156 52.816406 L 199.902344 53.652344 L 199.894531 54.492188 L 198.164063 54.492188 L 198.160156 53.660156 L 198.152344 52.800781 L 196.464844 52.800781 L 196.464844 54.53125 L 194.761719 54.53125 L 194.746094 56.25 L 193.007813 56.242188 L 192.324219 56.242188 L 191.980469 56.238281 L 190.417969 56.238281 L 189.566406 56.234375 L 189.566406 54.492188 L 194.71875 54.492188 L 194.71875 52.800781 L 193 52.800781 L 193 51.058594 L 194.746094 51.058594 L 194.746094 52.773438 L 196.433594 52.773438 L 196.433594 51.058594 L 199.867188 51.058594 L 199.867188 47.652344 L 198.179688 47.652344 L 198.179688 51.058594 L 196.433594 51.058594 L 196.433594 45.933594 L 201.613281 45.933594 L 201.613281 47.917969 L 201.617188 48.203125 L 201.617188 48.703125 L 201.621094 48.90625 L 201.625 49.078125 L 201.625 49.207031 L 201.628906 49.289063 L 201.632813 49.320313 L 201.632813 49.324219 L 201.664063 49.328125 L 201.742188 49.332031 L 201.863281 49.335938 L 202.019531 49.335938 L 202.203125 49.339844 L 203.304688 49.339844 L 203.304688 45.933594 L 196.433594 45.933594 L 196.433594 45.90625 L 199.867188 45.90625 L 199.867188 45.449219 L 206.785156 45.449219 L 206.785156 45.84375 L 206.789063 45.890625 L 206.789063 45.894531 L 206.820313 45.898438 L 207.023438 45.898438 L 207.191406 45.902344 L 208.171875 45.902344 L 208.46875 45.898438 L 208.492188 45.898438 L 210.183594 45.894531 L 210.183594 44.230469 L 208.488281 44.222656 L 206.792969 44.21875 L 206.785156 45.050781 L 206.785156 45.449219 L 199.867188 45.449219 L 199.867188 44.191406 L 213.660156 44.191406 L 214.496094 44.183594 L 215.335938 44.175781 L 215.34375 43.339844 L 215.351563 42.5 L 213.660156 42.5 L 213.660156 44.191406 L 199.867188 44.191406 L 199.867188 42.894531 L 203.351563 42.894531 L 203.351563 43.355469 L 203.359375 44.191406 L 205.019531 44.191406 L 205.019531 42.5 L 203.796875 42.5 L 203.632813 42.503906 L 203.5 42.503906 L 203.40625 42.507813 L 203.359375 42.511719 L 203.355469 42.511719 L 203.351563 42.542969 L 203.351563 42.894531 L 199.867188 42.894531 L 199.867188 42.457031 L 201.585938 42.472656 L 201.585938 40.785156 L 198.179688 40.785156 L 198.179688 42.5 L 196.433594 42.5 L 196.433594 37.292969 L 198.179688 37.292969 L 198.1875 38.160156 L 198.195313 39.023438 L 199.867188 39.039063 L 199.867188 37.292969 L 205.074219 37.292969 L 205.074219 39.066406 L 203.355469 39.082031 L 203.355469 40.742188 L 204.210938 40.746094 L 205.0625 40.753906 L 205.066406 41.605469 L 205.074219 42.457031 L 213.617188 42.457031 L 213.632813 40.785156 L 211.886719 40.785156 L 211.886719 40.757813 L 213.660156 40.757813 L 214.496094 40.75 L 215.335938 40.742188 L 215.34375 39.902344 L 215.351563 39.066406 L 213.660156 39.066406 L 213.660156 40.757813 L 211.886719 40.757813 L 211.890625 39.910156 L 211.894531 39.046875 L 211.902344 37.308594 L 213.640625 37.300781 L 215.375 37.292969 Z "/>
</g>
</svg>
