%TF.GenerationSoftware,KiCad,Pcbnew,9.0.2*%
%TF.CreationDate,2025-08-22T18:27:14+01:00*%
%TF.ProjectId,MC8P_MIDI_CONTROLLER,4d433850-5f4d-4494-9449-5f434f4e5452,rev?*%
%TF.SameCoordinates,Original*%
%TF.FileFunction,Legend,Top*%
%TF.FilePolarity,Positive*%
%FSLAX46Y46*%
G04 Gerber Fmt 4.6, Leading zero omitted, Abs format (unit mm)*
G04 Created by KiCad (PCBNEW 9.0.2) date 2025-08-22 18:27:14*
%MOMM*%
%LPD*%
G01*
G04 APERTURE LIST*
%ADD10C,0.100000*%
%ADD11C,0.300000*%
%ADD12C,0.800000*%
%ADD13C,0.550000*%
%ADD14C,0.200000*%
%ADD15C,0.000000*%
G04 APERTURE END LIST*
D10*
X106520000Y-219000000D02*
X106520000Y-220000000D01*
X107270000Y-228750000D02*
X107290000Y-228750000D01*
X107690000Y-228750000D02*
X107710000Y-228750000D01*
X108110000Y-228750000D02*
X108130000Y-228750000D01*
X108530000Y-228750000D02*
X108550000Y-228750000D01*
X108950000Y-228750000D02*
X108970000Y-228750000D01*
X109370000Y-228750000D02*
X109390000Y-228750000D01*
X109790000Y-228750000D02*
X109810000Y-228750000D01*
X110210000Y-228750000D02*
X110230000Y-228750000D01*
X110630000Y-228750000D02*
X110650000Y-228750000D01*
X111050000Y-228750000D02*
X111070000Y-228750000D01*
X111470000Y-228750000D02*
X111490000Y-228750000D01*
X111890000Y-228750000D02*
X111910000Y-228750000D01*
X112310000Y-228750000D02*
X112330000Y-228750000D01*
X112730000Y-228750000D02*
X112750000Y-228750000D01*
X139270000Y-216000000D02*
X165806285Y-216000000D01*
D11*
X59670000Y-216000000D02*
G75*
G02*
X59370000Y-216000000I-150000J0D01*
G01*
X59370000Y-216000000D02*
G75*
G02*
X59670000Y-216000000I150000J0D01*
G01*
D12*
X69150000Y-223000000D02*
G75*
G02*
X68350000Y-223000000I-400000J0D01*
G01*
X68350000Y-223000000D02*
G75*
G02*
X69150000Y-223000000I400000J0D01*
G01*
D10*
X151520000Y-231500000D02*
G75*
G02*
X149520000Y-231500000I-1000000J0D01*
G01*
X149520000Y-231500000D02*
G75*
G02*
X151520000Y-231500000I1000000J0D01*
G01*
X147020000Y-231500000D02*
G75*
G02*
X142020000Y-231500000I-2500000J0D01*
G01*
X142020000Y-231500000D02*
G75*
G02*
X147020000Y-231500000I2500000J0D01*
G01*
X128144038Y-225916025D02*
G75*
G02*
X127520000Y-226250000I-624038J416025D01*
G01*
X147020000Y-231500000D02*
G75*
G02*
X143020000Y-231500000I-2000000J0D01*
G01*
X143020000Y-231500000D02*
G75*
G02*
X147020000Y-231500000I2000000J0D01*
G01*
X109010000Y-221500000D02*
G75*
G02*
X109520000Y-222010000I510000J0D01*
G01*
X114520000Y-229750000D02*
G75*
G02*
X113770000Y-229000000I0J750000D01*
G01*
X147020000Y-231500000D02*
G75*
G02*
X146020000Y-231500000I-500000J0D01*
G01*
X146020000Y-231500000D02*
G75*
G02*
X147020000Y-231500000I500000J0D01*
G01*
X142020000Y-215692718D02*
X165806285Y-215692718D01*
X166320781Y-214142507D02*
G75*
G02*
X165806285Y-215999992I-514481J-857493D01*
G01*
X153520000Y-231500000D02*
G75*
G02*
X149520000Y-231500000I-2000000J0D01*
G01*
X149520000Y-231500000D02*
G75*
G02*
X153520000Y-231500000I2000000J0D01*
G01*
X147020000Y-231500000D02*
G75*
G02*
X144020000Y-231500000I-1500000J0D01*
G01*
X144020000Y-231500000D02*
G75*
G02*
X147020000Y-231500000I1500000J0D01*
G01*
X108270000Y-226500000D02*
G75*
G02*
X107770000Y-226500000I-250000J0D01*
G01*
X107770000Y-226500000D02*
G75*
G02*
X108270000Y-226500000I250000J0D01*
G01*
X102520000Y-219000000D02*
G75*
G02*
X106520000Y-219000000I2000000J0D01*
G01*
D13*
X48545000Y-227750000D02*
G75*
G02*
X47995000Y-227750000I-275000J0D01*
G01*
X47995000Y-227750000D02*
G75*
G02*
X48545000Y-227750000I275000J0D01*
G01*
D11*
X73900000Y-223000000D02*
G75*
G02*
X73600000Y-223000000I-150000J0D01*
G01*
X73600000Y-223000000D02*
G75*
G02*
X73900000Y-223000000I150000J0D01*
G01*
X45920000Y-227750000D02*
G75*
G02*
X45620000Y-227750000I-150000J0D01*
G01*
X45620000Y-227750000D02*
G75*
G02*
X45920000Y-227750000I150000J0D01*
G01*
D14*
G36*
X32652253Y-291260387D02*
G01*
X32546522Y-291254976D01*
X32443700Y-291238863D01*
X32344213Y-291212145D01*
X32252091Y-291175848D01*
X32166439Y-291129670D01*
X32091715Y-291075922D01*
X32221866Y-290844380D01*
X32313802Y-290906588D01*
X32420619Y-290953557D01*
X32534927Y-290982343D01*
X32652253Y-290991933D01*
X32743074Y-290985901D01*
X32812651Y-290969673D01*
X32865385Y-290945314D01*
X32908130Y-290909234D01*
X32932764Y-290866148D01*
X32941222Y-290813606D01*
X32941222Y-290812598D01*
X32932300Y-290758082D01*
X32907334Y-290718351D01*
X32869260Y-290688579D01*
X32819223Y-290667060D01*
X32679913Y-290637384D01*
X32674234Y-290636377D01*
X32668647Y-290635278D01*
X32646116Y-290632255D01*
X32503276Y-290604323D01*
X32398087Y-290573362D01*
X32336321Y-290544179D01*
X32280882Y-290503219D01*
X32231025Y-290449348D01*
X32194802Y-290386572D01*
X32171143Y-290304487D01*
X32162424Y-290197747D01*
X32162424Y-290196740D01*
X32170072Y-290102289D01*
X32191889Y-290020739D01*
X32226995Y-289949810D01*
X32275757Y-289887689D01*
X32337625Y-289835761D01*
X32414482Y-289793556D01*
X32498182Y-289764723D01*
X32596415Y-289746331D01*
X32711695Y-289739792D01*
X32791797Y-289744318D01*
X32875094Y-289758202D01*
X32957526Y-289780673D01*
X33038492Y-289811508D01*
X33116416Y-289849921D01*
X33190167Y-289895497D01*
X33071282Y-290133267D01*
X32982779Y-290080205D01*
X32891489Y-290041035D01*
X32798032Y-290016151D01*
X32711695Y-290008245D01*
X32626155Y-290013772D01*
X32560949Y-290028594D01*
X32511844Y-290050744D01*
X32471836Y-290083728D01*
X32448951Y-290122786D01*
X32441135Y-290170087D01*
X32441135Y-290171094D01*
X32450863Y-290230247D01*
X32478046Y-290273127D01*
X32518832Y-290305231D01*
X32569180Y-290327898D01*
X32721862Y-290364809D01*
X32730105Y-290366366D01*
X32738257Y-290367832D01*
X32750072Y-290370488D01*
X32761887Y-290372961D01*
X32896896Y-290405086D01*
X32998009Y-290440097D01*
X33057399Y-290471545D01*
X33109958Y-290513597D01*
X33156370Y-290567226D01*
X33190117Y-290628773D01*
X33211963Y-290707076D01*
X33219934Y-290806461D01*
X33219934Y-290808476D01*
X33212076Y-290901437D01*
X33189596Y-290981987D01*
X33153256Y-291052383D01*
X33103164Y-291113573D01*
X33039156Y-291165035D01*
X32959083Y-291207081D01*
X32872473Y-291235664D01*
X32771028Y-291253904D01*
X32652253Y-291260387D01*
G37*
G36*
X33455964Y-289755088D02*
G01*
X33799248Y-289755088D01*
X34353557Y-290896587D01*
X34329010Y-290923240D01*
X34329010Y-289755088D01*
X34597464Y-289755088D01*
X34597464Y-291243992D01*
X34252165Y-291243992D01*
X33699871Y-290119895D01*
X33724418Y-290093242D01*
X33724418Y-291243992D01*
X33455964Y-291243992D01*
X33455964Y-289755088D01*
G37*
G36*
X35429428Y-290172521D02*
G01*
X35511501Y-290190815D01*
X35582068Y-290219821D01*
X35645481Y-290261296D01*
X35697396Y-290313212D01*
X35738872Y-290376625D01*
X35767959Y-290447188D01*
X35786268Y-290528947D01*
X35792727Y-290624012D01*
X35792727Y-290800325D01*
X35786254Y-290896075D01*
X35767932Y-290978181D01*
X35738872Y-291048811D01*
X35697421Y-291112204D01*
X35645505Y-291164282D01*
X35582068Y-291206073D01*
X35511468Y-291235386D01*
X35429397Y-291253861D01*
X35333673Y-291260387D01*
X35237886Y-291253861D01*
X35155754Y-291235387D01*
X35085095Y-291206073D01*
X35021786Y-291164233D01*
X34969890Y-291111841D01*
X34928382Y-291047804D01*
X34899373Y-290976522D01*
X34881080Y-290893712D01*
X34874618Y-290797211D01*
X34874618Y-290624012D01*
X35155345Y-290624012D01*
X35155345Y-290800325D01*
X35161041Y-290858711D01*
X35176735Y-290904392D01*
X35201415Y-290940184D01*
X35235205Y-290967027D01*
X35278025Y-290983792D01*
X35332574Y-290989827D01*
X35387206Y-290983811D01*
X35430391Y-290967058D01*
X35464740Y-290940184D01*
X35490053Y-290904306D01*
X35506096Y-290858623D01*
X35511909Y-290800325D01*
X35511909Y-290624012D01*
X35506106Y-290566408D01*
X35490075Y-290521233D01*
X35464740Y-290485710D01*
X35430427Y-290459104D01*
X35387243Y-290442494D01*
X35332574Y-290436525D01*
X35278658Y-290442478D01*
X35235975Y-290459071D01*
X35201965Y-290485710D01*
X35176947Y-290521189D01*
X35161090Y-290566364D01*
X35155345Y-290624012D01*
X34874618Y-290624012D01*
X34881067Y-290528942D01*
X34899346Y-290447182D01*
X34928382Y-290376625D01*
X34969853Y-290313205D01*
X35021740Y-290261291D01*
X35085095Y-290219821D01*
X35155721Y-290190814D01*
X35237855Y-290172521D01*
X35333673Y-290166057D01*
X35429428Y-290172521D01*
G37*
G36*
X35961255Y-290964273D02*
G01*
X36241981Y-290964273D01*
X36241981Y-291245000D01*
X35961255Y-291245000D01*
X35961255Y-290964273D01*
G37*
D10*
X37020000Y-289250000D02*
X59520000Y-289250000D01*
X59520000Y-291750000D01*
X37020000Y-291750000D01*
X37020000Y-289250000D01*
G36*
X37020000Y-289250000D02*
G01*
X59520000Y-289250000D01*
X59520000Y-291750000D01*
X37020000Y-291750000D01*
X37020000Y-289250000D01*
G37*
X124020000Y-226500000D02*
G75*
G02*
X120020000Y-226500000I-2000000J0D01*
G01*
X120020000Y-226500000D02*
G75*
G02*
X124020000Y-226500000I2000000J0D01*
G01*
X144520000Y-228500000D02*
G75*
G02*
X145761409Y-234231099I0J-3000000D01*
G01*
X152520000Y-231500000D02*
G75*
G02*
X149520000Y-231500000I-1500000J0D01*
G01*
X149520000Y-231500000D02*
G75*
G02*
X152520000Y-231500000I1500000J0D01*
G01*
X108510000Y-222000000D02*
G75*
G02*
X106522900Y-220012917I0J1987100D01*
G01*
X150770000Y-234231099D02*
G75*
G02*
X152011409Y-228500004I1241400J2731099D01*
G01*
D13*
X71525000Y-223000000D02*
G75*
G02*
X70975000Y-223000000I-275000J0D01*
G01*
X70975000Y-223000000D02*
G75*
G02*
X71525000Y-223000000I275000J0D01*
G01*
D10*
X108270000Y-226500000D02*
G75*
G02*
X107270000Y-226500000I-500000J0D01*
G01*
X107270000Y-226500000D02*
G75*
G02*
X108270000Y-226500000I500000J0D01*
G01*
X108270000Y-226500000D02*
G75*
G02*
X105770000Y-226500000I-1250000J0D01*
G01*
X105770000Y-226500000D02*
G75*
G02*
X108270000Y-226500000I1250000J0D01*
G01*
X151020000Y-231500000D02*
G75*
G02*
X149520000Y-231500000I-750000J0D01*
G01*
X149520000Y-231500000D02*
G75*
G02*
X151020000Y-231500000I750000J0D01*
G01*
X150520000Y-231500000D02*
G75*
G02*
X149520000Y-231500000I-500000J0D01*
G01*
X149520000Y-231500000D02*
G75*
G02*
X150520000Y-231500000I500000J0D01*
G01*
X165270000Y-214518003D02*
G75*
G02*
X165806285Y-215692651I536300J-464897D01*
G01*
X147020000Y-231500000D02*
G75*
G02*
X145020000Y-231500000I-1000000J0D01*
G01*
X145020000Y-231500000D02*
G75*
G02*
X147020000Y-231500000I1000000J0D01*
G01*
D12*
X64920000Y-216000000D02*
G75*
G02*
X64120000Y-216000000I-400000J0D01*
G01*
X64120000Y-216000000D02*
G75*
G02*
X64920000Y-216000000I400000J0D01*
G01*
X51170000Y-227750000D02*
G75*
G02*
X50370000Y-227750000I-400000J0D01*
G01*
X50370000Y-227750000D02*
G75*
G02*
X51170000Y-227750000I400000J0D01*
G01*
D10*
X108270000Y-226500000D02*
G75*
G02*
X106770000Y-226500000I-750000J0D01*
G01*
X106770000Y-226500000D02*
G75*
G02*
X108270000Y-226500000I750000J0D01*
G01*
D13*
X62295000Y-216000000D02*
G75*
G02*
X61745000Y-216000000I-275000J0D01*
G01*
X61745000Y-216000000D02*
G75*
G02*
X62295000Y-216000000I275000J0D01*
G01*
D10*
X109010000Y-221500000D02*
G75*
G02*
X108510000Y-222000000I-500000J0D01*
G01*
X108270000Y-226500000D02*
G75*
G02*
X106270000Y-226500000I-1000000J0D01*
G01*
X106270000Y-226500000D02*
G75*
G02*
X108270000Y-226500000I1000000J0D01*
G01*
X147020000Y-231500000D02*
G75*
G02*
X145520000Y-231500000I-750000J0D01*
G01*
X145520000Y-231500000D02*
G75*
G02*
X147020000Y-231500000I750000J0D01*
G01*
X125020000Y-226250000D02*
X127520000Y-226250000D01*
X154520000Y-231500000D02*
G75*
G02*
X149520000Y-231500000I-2500000J0D01*
G01*
X149520000Y-231500000D02*
G75*
G02*
X154520000Y-231500000I2500000J0D01*
G01*
X103600855Y-221297863D02*
G75*
G02*
X102770000Y-217250000I919145J2297863D01*
G01*
D11*
X22000000Y-206000000D02*
X173000000Y-206000000D01*
X173000000Y-294000000D01*
X22000000Y-294000000D01*
X22000000Y-206000000D01*
D15*
%TO.C,G\u002A\u002A\u002A*%
G36*
X124453277Y-214858256D02*
G01*
X124453277Y-215091868D01*
X124219665Y-215091868D01*
X123986053Y-215091868D01*
X123986053Y-214858256D01*
X123986053Y-214624644D01*
X124219665Y-214624644D01*
X124453277Y-214624644D01*
X124453277Y-214858256D01*
G37*
G36*
X124453277Y-217767787D02*
G01*
X124453277Y-218022637D01*
X124219665Y-218022637D01*
X123986053Y-218022637D01*
X123986053Y-217767787D01*
X123986053Y-217512938D01*
X124219665Y-217512938D01*
X124453277Y-217512938D01*
X124453277Y-217767787D01*
G37*
G36*
X125897425Y-216323640D02*
G01*
X125897425Y-216578490D01*
X125663813Y-216578490D01*
X125430200Y-216578490D01*
X125430200Y-216323640D01*
X125430200Y-216068791D01*
X125663813Y-216068791D01*
X125897425Y-216068791D01*
X125897425Y-216323640D01*
G37*
G36*
X135326856Y-218723473D02*
G01*
X135326856Y-219934008D01*
X135093244Y-219934008D01*
X134859632Y-219934008D01*
X134859632Y-218719542D01*
X134859632Y-217512938D01*
X135093244Y-217512938D01*
X135326856Y-217512938D01*
X135326856Y-218723473D01*
G37*
G36*
X123009130Y-216321521D02*
G01*
X123009130Y-216578490D01*
X122774185Y-216578490D01*
X122613952Y-216568679D01*
X122530262Y-216538297D01*
X122516656Y-216519637D01*
X122505519Y-216442634D01*
X122504871Y-216320843D01*
X122507370Y-216275406D01*
X122520669Y-216090028D01*
X122764899Y-216077290D01*
X123009130Y-216064551D01*
X123009130Y-216321521D01*
G37*
G36*
X121222208Y-219702504D02*
G01*
X121222208Y-219936116D01*
X121455820Y-219936116D01*
X121689432Y-219936116D01*
X121689432Y-220169728D01*
X121689432Y-220403340D01*
X121455820Y-220403340D01*
X121222208Y-220403340D01*
X121222208Y-220658190D01*
X121222208Y-220913039D01*
X120967359Y-220913039D01*
X120712509Y-220913039D01*
X120712509Y-220658190D01*
X120712509Y-220403340D01*
X120478897Y-220403340D01*
X120245285Y-220403340D01*
X120245285Y-220169728D01*
X120245285Y-219936116D01*
X120478897Y-219936116D01*
X120712509Y-219936116D01*
X120712509Y-219702504D01*
X120712509Y-219468892D01*
X120967359Y-219468892D01*
X121222208Y-219468892D01*
X121222208Y-219702504D01*
G37*
G36*
X117190067Y-223586851D02*
G01*
X117190067Y-223841700D01*
X117434297Y-223841643D01*
X117678528Y-223841585D01*
X117663978Y-224075255D01*
X117649429Y-224308925D01*
X117419748Y-224308925D01*
X117190067Y-224308925D01*
X117190067Y-224542537D01*
X117190067Y-224776149D01*
X116956455Y-224776149D01*
X116722843Y-224776149D01*
X116722843Y-224542537D01*
X116722843Y-224308925D01*
X116956455Y-224308925D01*
X117190067Y-224308925D01*
X117190067Y-224075313D01*
X117190067Y-223841700D01*
X116956455Y-223841700D01*
X116722843Y-223841700D01*
X116722843Y-224075313D01*
X116722843Y-224308925D01*
X116467993Y-224308925D01*
X116213144Y-224308925D01*
X116213144Y-224077432D01*
X116213144Y-224075313D01*
X116213144Y-223845940D01*
X116457374Y-223833201D01*
X116701605Y-223820463D01*
X116714344Y-223576232D01*
X116727082Y-223332001D01*
X116958574Y-223332001D01*
X117190067Y-223332001D01*
X117190067Y-223586851D01*
G37*
G36*
X132905787Y-215357336D02*
G01*
X132905786Y-215601567D01*
X133394247Y-215601567D01*
X133882709Y-215601567D01*
X133882709Y-215833059D01*
X133882709Y-216064551D01*
X134126940Y-216077290D01*
X134371170Y-216090028D01*
X134383909Y-216334259D01*
X134396647Y-216578490D01*
X134628140Y-216578490D01*
X134859632Y-216578490D01*
X134859632Y-217045714D01*
X134859632Y-217505076D01*
X134625962Y-217519626D01*
X134392292Y-217534175D01*
X134392350Y-217056333D01*
X134392408Y-216578490D01*
X134137558Y-216578490D01*
X133882709Y-216578490D01*
X133882709Y-216323640D01*
X133882709Y-216068791D01*
X133394247Y-216068791D01*
X132905786Y-216068791D01*
X132905786Y-215834517D01*
X132905786Y-215600244D01*
X131705869Y-215611524D01*
X130505953Y-215622804D01*
X130493115Y-215845797D01*
X130480276Y-216068791D01*
X130017391Y-216068791D01*
X129554507Y-216068791D01*
X129541768Y-216313022D01*
X129529030Y-216557252D01*
X129284799Y-216569991D01*
X129040568Y-216582729D01*
X129040568Y-217045614D01*
X129040568Y-217508499D01*
X128817575Y-217521337D01*
X128594582Y-217534175D01*
X128594582Y-218744711D01*
X128594582Y-219955246D01*
X128817650Y-219955246D01*
X129040719Y-219955246D01*
X129040644Y-220433088D01*
X129040568Y-220910931D01*
X129295418Y-220910931D01*
X129550267Y-220910931D01*
X129550267Y-221165781D01*
X129550267Y-221420630D01*
X130034009Y-221420630D01*
X130257221Y-221423253D01*
X130405393Y-221431839D01*
X130488296Y-221447466D01*
X130515700Y-221471209D01*
X130515780Y-221473724D01*
X130516036Y-221547399D01*
X130519081Y-221666495D01*
X130520499Y-221707336D01*
X130527190Y-221887854D01*
X131716488Y-221887854D01*
X132905786Y-221887854D01*
X132905786Y-221654242D01*
X132905786Y-221420630D01*
X133394247Y-221420630D01*
X133882709Y-221420630D01*
X133882709Y-221165781D01*
X133882709Y-220910931D01*
X134137558Y-220910931D01*
X134392408Y-220910931D01*
X134392408Y-220443707D01*
X134392408Y-219976483D01*
X134626020Y-219976483D01*
X134859632Y-219976483D01*
X134859632Y-220443707D01*
X134859632Y-220910931D01*
X134628140Y-220910931D01*
X134396647Y-220910931D01*
X134383909Y-221155162D01*
X134371170Y-221399393D01*
X134126940Y-221412131D01*
X133882709Y-221424870D01*
X133882709Y-221656362D01*
X133882709Y-221887854D01*
X133394247Y-221887854D01*
X132905786Y-221887854D01*
X132905786Y-222121466D01*
X132905786Y-222355078D01*
X131718708Y-222355078D01*
X130531630Y-222355078D01*
X130518791Y-222132085D01*
X130505953Y-221909092D01*
X130028110Y-221897082D01*
X129550267Y-221885072D01*
X129550267Y-221652851D01*
X129545585Y-221515891D01*
X129527480Y-221444267D01*
X129489867Y-221418685D01*
X129475936Y-221417185D01*
X129385906Y-221413183D01*
X129258587Y-221407704D01*
X129231706Y-221406566D01*
X129061806Y-221399393D01*
X129049067Y-221155162D01*
X129036329Y-220910931D01*
X128806228Y-220910931D01*
X128576127Y-220910931D01*
X128564117Y-220433088D01*
X128552107Y-219955246D01*
X128329114Y-219942407D01*
X128106120Y-219929569D01*
X128106120Y-218721253D01*
X128106120Y-217512938D01*
X128339732Y-217512938D01*
X128573344Y-217512938D01*
X128573344Y-217045714D01*
X128573344Y-216578490D01*
X128806956Y-216578490D01*
X129040568Y-216578490D01*
X129040568Y-216323640D01*
X129040568Y-216068791D01*
X129295418Y-216068791D01*
X129550267Y-216068791D01*
X129550267Y-215836570D01*
X129550267Y-215604349D01*
X130028110Y-215592339D01*
X130505953Y-215580329D01*
X130510173Y-215355983D01*
X130514392Y-215131636D01*
X131710090Y-215122371D01*
X132905788Y-215113105D01*
X132905787Y-215357336D01*
G37*
G36*
X81756154Y-216830058D02*
G01*
X81756154Y-217736154D01*
X80850058Y-217736154D01*
X79943961Y-217736154D01*
X79946302Y-216832398D01*
X79948642Y-215928642D01*
X80852398Y-215926302D01*
X81756154Y-215923961D01*
X81756154Y-216830058D01*
G37*
G36*
X81756154Y-230172384D02*
G01*
X81756154Y-231080923D01*
X80850058Y-231080923D01*
X79943961Y-231080923D01*
X79943961Y-230172384D01*
X79943961Y-229263846D01*
X80850058Y-229263846D01*
X81756154Y-229263846D01*
X81756154Y-230172384D01*
G37*
G36*
X89659461Y-228965884D02*
G01*
X89659461Y-229273615D01*
X89347363Y-229273615D01*
X89035264Y-229273615D01*
X89034505Y-228965884D01*
X89033746Y-228658154D01*
X89346603Y-228658154D01*
X89659461Y-228658154D01*
X89659461Y-228965884D01*
G37*
G36*
X90870846Y-231999231D02*
G01*
X90870846Y-232311846D01*
X90563115Y-232311846D01*
X90255384Y-232311846D01*
X90255384Y-231999231D01*
X90255384Y-231686615D01*
X90563115Y-231686615D01*
X90870846Y-231686615D01*
X90870846Y-231999231D01*
G37*
G36*
X92082231Y-231999231D02*
G01*
X92082231Y-232311846D01*
X91774500Y-232311846D01*
X91466769Y-232311846D01*
X91466769Y-231999231D01*
X91466769Y-231686615D01*
X91774500Y-231686615D01*
X92082231Y-231686615D01*
X92082231Y-231999231D01*
G37*
G36*
X92687923Y-228360192D02*
G01*
X92687923Y-228667923D01*
X92380192Y-228667923D01*
X92072461Y-228667923D01*
X92072461Y-228360192D01*
X92072461Y-228052461D01*
X92380192Y-228052461D01*
X92687923Y-228052461D01*
X92687923Y-228360192D01*
G37*
G36*
X95100923Y-216830058D02*
G01*
X95100923Y-217736154D01*
X94192384Y-217736154D01*
X93283846Y-217736154D01*
X93283846Y-216830058D01*
X93283846Y-215923961D01*
X94192384Y-215923961D01*
X95100923Y-215923961D01*
X95100923Y-216830058D01*
G37*
G36*
X88448077Y-215323154D02*
G01*
X88448077Y-215938615D01*
X87832615Y-215938615D01*
X87217154Y-215938615D01*
X87217154Y-215630884D01*
X87217154Y-215323154D01*
X87520000Y-215323154D01*
X87822846Y-215323154D01*
X87822846Y-215015423D01*
X87822846Y-214707692D01*
X88135461Y-214707692D01*
X88448077Y-214707692D01*
X88448077Y-215323154D01*
G37*
G36*
X82967538Y-216827615D02*
G01*
X82967538Y-218947538D01*
X80847615Y-218947538D01*
X78727692Y-218947538D01*
X78727692Y-218351615D01*
X79333384Y-218351615D01*
X80852500Y-218351615D01*
X82371615Y-218351615D01*
X82371615Y-216832500D01*
X82371615Y-215313384D01*
X80852500Y-215313384D01*
X79333384Y-215313384D01*
X79333384Y-216832500D01*
X79333384Y-218351615D01*
X78727692Y-218351615D01*
X78727692Y-216832500D01*
X78727692Y-216827615D01*
X78727692Y-214707692D01*
X80847615Y-214707692D01*
X82967538Y-214707692D01*
X82967538Y-216827615D01*
G37*
G36*
X82967538Y-230172384D02*
G01*
X82967538Y-232292308D01*
X80847615Y-232292308D01*
X78727692Y-232292308D01*
X78727692Y-230172384D01*
X78727692Y-230165872D01*
X78727692Y-228648384D01*
X79333384Y-228648384D01*
X79333384Y-230165872D01*
X79333410Y-230336507D01*
X79333486Y-230501798D01*
X79333608Y-230660690D01*
X79333774Y-230812131D01*
X79333981Y-230955067D01*
X79334227Y-231088446D01*
X79334508Y-231211213D01*
X79334822Y-231322316D01*
X79335166Y-231420701D01*
X79335537Y-231505316D01*
X79335932Y-231575107D01*
X79336348Y-231629022D01*
X79336784Y-231666006D01*
X79337235Y-231685007D01*
X79337454Y-231687429D01*
X79347512Y-231687871D01*
X79376054Y-231688269D01*
X79422027Y-231688619D01*
X79484376Y-231688923D01*
X79562047Y-231689179D01*
X79653987Y-231689384D01*
X79759140Y-231689540D01*
X79876455Y-231689644D01*
X80004875Y-231689695D01*
X80143347Y-231689692D01*
X80290818Y-231689635D01*
X80446233Y-231689522D01*
X80608538Y-231689351D01*
X80776680Y-231689123D01*
X80856570Y-231688996D01*
X82371615Y-231686493D01*
X82371615Y-230167439D01*
X82371615Y-228648384D01*
X80852500Y-228648384D01*
X79333384Y-228648384D01*
X78727692Y-228648384D01*
X78727692Y-228052461D01*
X80847615Y-228052461D01*
X82967538Y-228052461D01*
X82967538Y-230172384D01*
G37*
G36*
X96312308Y-216827615D02*
G01*
X96312308Y-218947538D01*
X94192384Y-218947538D01*
X92072461Y-218947538D01*
X92072461Y-218351615D01*
X92668384Y-218351615D01*
X94187439Y-218351615D01*
X95706493Y-218351615D01*
X95708996Y-216836570D01*
X95709252Y-216666073D01*
X95709450Y-216500923D01*
X95709589Y-216342172D01*
X95709673Y-216190876D01*
X95709701Y-216048087D01*
X95709674Y-215914861D01*
X95709595Y-215792251D01*
X95709463Y-215681310D01*
X95709281Y-215583094D01*
X95709048Y-215498656D01*
X95708767Y-215429050D01*
X95708438Y-215375330D01*
X95708062Y-215338551D01*
X95707640Y-215319766D01*
X95707429Y-215317454D01*
X95697372Y-215316997D01*
X95668829Y-215316554D01*
X95622854Y-215316128D01*
X95560500Y-215315722D01*
X95482820Y-215315339D01*
X95390868Y-215314982D01*
X95285696Y-215314654D01*
X95168358Y-215314357D01*
X95039906Y-215314094D01*
X94901395Y-215313868D01*
X94753877Y-215313682D01*
X94598406Y-215313538D01*
X94436034Y-215313440D01*
X94267815Y-215313390D01*
X94185872Y-215313384D01*
X92668384Y-215313384D01*
X92668384Y-216832500D01*
X92668384Y-218351615D01*
X92072461Y-218351615D01*
X92072461Y-216832500D01*
X92072461Y-216827615D01*
X92072461Y-214707692D01*
X94192384Y-214707692D01*
X96312308Y-214707692D01*
X96312308Y-216827615D01*
G37*
G36*
X90265154Y-215015493D02*
G01*
X90265154Y-215323440D01*
X90560673Y-215320855D01*
X90856192Y-215318269D01*
X90858774Y-215012981D01*
X90861355Y-214707692D01*
X91168947Y-214707692D01*
X91476538Y-214707692D01*
X91476538Y-215020308D01*
X91476538Y-215332923D01*
X91173549Y-215332923D01*
X90870559Y-215332923D01*
X90873145Y-215628442D01*
X90875731Y-215923961D01*
X91176137Y-215923961D01*
X91476544Y-215923961D01*
X91476541Y-216234134D01*
X91476538Y-216544308D01*
X91173692Y-216544308D01*
X90870846Y-216544308D01*
X90870846Y-217150000D01*
X90870846Y-217755692D01*
X90568000Y-217755692D01*
X90265154Y-217755692D01*
X90265154Y-218356500D01*
X90265154Y-218957308D01*
X90563115Y-218957308D01*
X90861077Y-218957308D01*
X90861077Y-218654461D01*
X90861077Y-218351615D01*
X91168808Y-218351615D01*
X91476538Y-218351615D01*
X91476538Y-218659346D01*
X91476538Y-218967077D01*
X91173692Y-218967077D01*
X90870846Y-218967077D01*
X90870846Y-219269923D01*
X90870846Y-219572769D01*
X90568000Y-219572769D01*
X90265154Y-219572769D01*
X90265154Y-219875615D01*
X90265154Y-220178461D01*
X89962447Y-220178461D01*
X89659740Y-220178461D01*
X89657158Y-220481654D01*
X89654577Y-220784847D01*
X88748481Y-220784562D01*
X87842384Y-220784276D01*
X87842384Y-221082177D01*
X87842384Y-221380077D01*
X88145231Y-221380077D01*
X88448077Y-221380077D01*
X88448077Y-221682923D01*
X88448077Y-221985769D01*
X88743596Y-221985776D01*
X89039115Y-221985782D01*
X89036273Y-221682929D01*
X89033431Y-221380077D01*
X89346446Y-221380077D01*
X89659461Y-221380077D01*
X89659461Y-221692965D01*
X89659461Y-222005852D01*
X89356610Y-222003138D01*
X89053759Y-222000423D01*
X89053764Y-222295942D01*
X89053769Y-222591461D01*
X89957566Y-222591461D01*
X90861363Y-222591461D01*
X92082231Y-222591461D01*
X92380192Y-222591461D01*
X92678154Y-222591461D01*
X92678154Y-222298665D01*
X92678154Y-222005868D01*
X92384252Y-222003145D01*
X92310491Y-222002594D01*
X92243242Y-222002342D01*
X92184935Y-222002381D01*
X92137997Y-222002699D01*
X92104857Y-222003284D01*
X92087943Y-222004126D01*
X92086290Y-222004493D01*
X92085269Y-222014916D01*
X92084342Y-222042438D01*
X92083543Y-222084619D01*
X92082904Y-222139020D01*
X92082461Y-222203203D01*
X92082246Y-222274727D01*
X92082231Y-222300013D01*
X92082231Y-222591461D01*
X90861363Y-222591461D01*
X90858797Y-222300013D01*
X90858778Y-222297833D01*
X90856192Y-222004205D01*
X90555788Y-222005017D01*
X90255384Y-222005829D01*
X90255384Y-221985769D01*
X92687636Y-221985769D01*
X92990626Y-221985769D01*
X93293615Y-221985769D01*
X93293615Y-222288615D01*
X93293615Y-222591461D01*
X93894423Y-222591461D01*
X94495231Y-222591461D01*
X94495231Y-222298384D01*
X94495231Y-222005308D01*
X94192384Y-222005308D01*
X93889538Y-222005308D01*
X93889538Y-221985769D01*
X94504713Y-221985769D01*
X94802818Y-221985769D01*
X95100923Y-221985769D01*
X95100923Y-221687664D01*
X95100923Y-221389559D01*
X94805404Y-221392145D01*
X94509884Y-221394731D01*
X94507299Y-221690250D01*
X94504713Y-221985769D01*
X93889538Y-221985769D01*
X93889538Y-221692692D01*
X93889538Y-221380077D01*
X94192384Y-221380077D01*
X94495231Y-221380077D01*
X94495231Y-221082159D01*
X94495231Y-220784240D01*
X93896865Y-220786639D01*
X93298500Y-220789038D01*
X93293615Y-221091884D01*
X93288731Y-221394731D01*
X92990769Y-221394731D01*
X92692808Y-221394731D01*
X92690222Y-221690250D01*
X92687636Y-221985769D01*
X90255384Y-221985769D01*
X90255384Y-221692953D01*
X90255384Y-221380077D01*
X90558231Y-221380077D01*
X90861077Y-221380077D01*
X90861077Y-221077231D01*
X90861077Y-220774384D01*
X91769615Y-220774384D01*
X92678154Y-220774384D01*
X92678154Y-220476166D01*
X92678154Y-220177947D01*
X92377750Y-220178468D01*
X92282767Y-220178602D01*
X92174968Y-220178701D01*
X92061071Y-220178764D01*
X91947800Y-220178788D01*
X91841875Y-220178768D01*
X91772058Y-220178725D01*
X91466769Y-220178461D01*
X91466769Y-219870731D01*
X91466769Y-219563000D01*
X92380192Y-219563000D01*
X93293615Y-219563000D01*
X93293615Y-219865846D01*
X93293615Y-220168692D01*
X93894423Y-220168692D01*
X94495231Y-220168692D01*
X94495231Y-219865846D01*
X94495231Y-219563000D01*
X95413538Y-219563000D01*
X96331846Y-219563000D01*
X96331848Y-220176019D01*
X96331851Y-220789038D01*
X96021675Y-220786764D01*
X95711500Y-220784489D01*
X95708918Y-220481475D01*
X95706337Y-220178461D01*
X95413399Y-220178461D01*
X95120461Y-220178461D01*
X95120461Y-220779128D01*
X95120461Y-221379794D01*
X95418974Y-221382378D01*
X95717486Y-221384961D01*
X95716675Y-221685365D01*
X95715863Y-221985769D01*
X96023855Y-221985769D01*
X96331846Y-221985769D01*
X96331846Y-222601231D01*
X96331846Y-223216692D01*
X95716384Y-223216692D01*
X95100923Y-223216692D01*
X95100923Y-222913846D01*
X95100923Y-222611000D01*
X94802961Y-222611000D01*
X94505000Y-222611000D01*
X94505000Y-222913846D01*
X94505000Y-223216692D01*
X93899308Y-223216692D01*
X93293615Y-223216692D01*
X93293615Y-223509769D01*
X93293615Y-223802846D01*
X93899168Y-223802846D01*
X94504721Y-223802846D01*
X94507303Y-224108134D01*
X94509884Y-224413423D01*
X95420866Y-224413423D01*
X96331847Y-224413423D01*
X96331846Y-225026442D01*
X96331846Y-225639461D01*
X95726154Y-225639461D01*
X95120461Y-225639461D01*
X95120461Y-225937800D01*
X95120461Y-226236139D01*
X95420865Y-226235370D01*
X95515848Y-226235172D01*
X95623647Y-226235025D01*
X95737543Y-226234933D01*
X95850814Y-226234899D01*
X95956740Y-226234928D01*
X96026558Y-226234993D01*
X96331846Y-226235384D01*
X96331846Y-226543115D01*
X96331846Y-226850846D01*
X95726154Y-226850846D01*
X95120461Y-226850846D01*
X95120461Y-227148808D01*
X95120461Y-227446769D01*
X95726154Y-227446769D01*
X96331846Y-227446769D01*
X96331846Y-227754500D01*
X96331846Y-228062231D01*
X95716384Y-228062231D01*
X95100923Y-228062231D01*
X95100923Y-227759384D01*
X95100923Y-227456538D01*
X94802961Y-227456538D01*
X94505000Y-227456538D01*
X94505000Y-227759243D01*
X94505000Y-228061948D01*
X94204596Y-228064532D01*
X93904192Y-228067115D01*
X93904192Y-228360192D01*
X93904192Y-228653269D01*
X94204596Y-228655853D01*
X94505000Y-228658436D01*
X94505000Y-228961141D01*
X94505000Y-229263846D01*
X94802961Y-229263846D01*
X95100923Y-229263846D01*
X95100923Y-228961000D01*
X95100923Y-228658154D01*
X95411096Y-228658149D01*
X95721269Y-228658144D01*
X95721269Y-228958553D01*
X95721269Y-229258961D01*
X96026558Y-229261543D01*
X96331846Y-229264124D01*
X96331846Y-229574158D01*
X96331846Y-229884192D01*
X96021673Y-229882027D01*
X95711500Y-229879861D01*
X95709472Y-229579181D01*
X95707445Y-229278500D01*
X95413953Y-229275914D01*
X95120461Y-229273329D01*
X95120461Y-229874138D01*
X95120461Y-230474948D01*
X95418687Y-230477532D01*
X95716913Y-230480115D01*
X95716910Y-231088417D01*
X95716906Y-231696720D01*
X95408912Y-231698994D01*
X95100918Y-231701269D01*
X95100920Y-231400865D01*
X95100923Y-231100461D01*
X94802584Y-231100461D01*
X94504246Y-231100461D01*
X94505015Y-231400865D01*
X94505212Y-231495848D01*
X94505359Y-231603647D01*
X94505451Y-231717543D01*
X94505485Y-231830814D01*
X94505456Y-231936740D01*
X94505392Y-232006558D01*
X94505000Y-232311846D01*
X93894423Y-232311846D01*
X93283846Y-232311846D01*
X93283846Y-231706154D01*
X93283846Y-231100461D01*
X91466769Y-231100461D01*
X89649692Y-231100461D01*
X89649692Y-230485000D01*
X89649692Y-230475231D01*
X92081944Y-230475231D01*
X92380192Y-230475231D01*
X92678440Y-230475231D01*
X93293329Y-230475231D01*
X93591433Y-230475231D01*
X93889538Y-230475231D01*
X93889538Y-230177126D01*
X93889538Y-229879021D01*
X93594019Y-229881607D01*
X93298500Y-229884192D01*
X93295914Y-230179711D01*
X93293329Y-230475231D01*
X92678440Y-230475231D01*
X92675855Y-230179711D01*
X92673269Y-229884192D01*
X92380192Y-229884192D01*
X92087115Y-229884192D01*
X92084530Y-230179711D01*
X92081944Y-230475231D01*
X89649692Y-230475231D01*
X89649692Y-229869538D01*
X90255384Y-229869538D01*
X90861077Y-229869538D01*
X90861077Y-229571577D01*
X90861077Y-229273615D01*
X90555788Y-229273616D01*
X90250500Y-229273617D01*
X90250500Y-229263846D01*
X91476538Y-229263846D01*
X92380192Y-229263846D01*
X93283846Y-229263846D01*
X93283846Y-228360192D01*
X93283846Y-227456538D01*
X92380192Y-227456538D01*
X91476538Y-227456538D01*
X91476538Y-228360192D01*
X91476538Y-229263846D01*
X90250500Y-229263846D01*
X90250500Y-228670366D01*
X90250500Y-228360192D01*
X90250500Y-228067115D01*
X89642105Y-228064599D01*
X89033710Y-228062082D01*
X89034521Y-227761753D01*
X89035333Y-227461423D01*
X88741705Y-227458837D01*
X88448077Y-227456252D01*
X88448077Y-228662895D01*
X88448077Y-229869538D01*
X88750923Y-229869538D01*
X89053769Y-229869538D01*
X89053774Y-230179711D01*
X89053779Y-230489884D01*
X88750928Y-230487170D01*
X88448077Y-230484455D01*
X88448077Y-230782689D01*
X88448077Y-231080923D01*
X88750923Y-231080923D01*
X89053769Y-231080923D01*
X89053764Y-231386211D01*
X89053759Y-231691500D01*
X89356610Y-231688785D01*
X89659461Y-231686070D01*
X89659461Y-231998958D01*
X89659461Y-232311846D01*
X89046442Y-232311847D01*
X88433423Y-232311849D01*
X88435890Y-231706155D01*
X88438357Y-231100461D01*
X88140371Y-231100461D01*
X87842384Y-231100461D01*
X87842385Y-231400865D01*
X87842386Y-231701269D01*
X86933847Y-231698838D01*
X86025308Y-231696406D01*
X86025308Y-232004126D01*
X86025308Y-232311846D01*
X85409846Y-232311846D01*
X84794384Y-232311846D01*
X84794384Y-231706154D01*
X84794384Y-231100461D01*
X84188692Y-231100461D01*
X83583000Y-231100461D01*
X83583000Y-231080923D01*
X84803867Y-231080923D01*
X85101972Y-231080923D01*
X85400077Y-231080923D01*
X85400077Y-230782818D01*
X85400077Y-230484713D01*
X85104558Y-230487299D01*
X84809038Y-230489884D01*
X84806453Y-230785404D01*
X84803867Y-231080923D01*
X83583000Y-231080923D01*
X83583000Y-230182154D01*
X83583000Y-230177269D01*
X86024691Y-230177269D01*
X86024691Y-230470346D01*
X86327845Y-230472927D01*
X86631000Y-230475509D01*
X86631000Y-230778216D01*
X86631000Y-231080923D01*
X86924077Y-231080923D01*
X87217154Y-231080923D01*
X87217154Y-230475231D01*
X87842384Y-230475231D01*
X88140489Y-230475231D01*
X88438594Y-230475231D01*
X88436008Y-230179711D01*
X88433423Y-229884192D01*
X88137904Y-229881607D01*
X87842384Y-229879021D01*
X87842384Y-230177126D01*
X87842384Y-230475231D01*
X87217154Y-230475231D01*
X87217154Y-230177126D01*
X87217154Y-229869538D01*
X87520000Y-229869538D01*
X87822846Y-229869538D01*
X87822846Y-229571502D01*
X87822846Y-229273465D01*
X87226374Y-229275982D01*
X86629902Y-229278500D01*
X86630711Y-229578764D01*
X86631520Y-229879028D01*
X86328106Y-229881610D01*
X86024691Y-229884192D01*
X86024691Y-230177269D01*
X83583000Y-230177269D01*
X83583000Y-229884192D01*
X83583000Y-229263846D01*
X83890731Y-229263846D01*
X84198461Y-229263846D01*
X84198461Y-229566692D01*
X84198461Y-229869538D01*
X84496423Y-229869538D01*
X84794384Y-229869538D01*
X84794384Y-229566692D01*
X84794384Y-229263846D01*
X85102115Y-229263846D01*
X85409846Y-229263846D01*
X85409846Y-229566692D01*
X85409846Y-229869538D01*
X85707808Y-229869538D01*
X86005769Y-229869538D01*
X86005769Y-229566692D01*
X86005769Y-229263846D01*
X86308615Y-229263846D01*
X86611461Y-229263846D01*
X86611461Y-228662895D01*
X86611461Y-228200894D01*
X87233708Y-228200894D01*
X87233853Y-228265174D01*
X87234294Y-228336849D01*
X87234530Y-228364252D01*
X87237253Y-228658154D01*
X87530049Y-228658154D01*
X87822846Y-228658154D01*
X87822846Y-228360192D01*
X87822846Y-228062231D01*
X87531397Y-228062231D01*
X87457952Y-228062361D01*
X87391027Y-228062732D01*
X87333062Y-228063308D01*
X87286498Y-228064057D01*
X87253772Y-228064945D01*
X87237325Y-228065938D01*
X87235878Y-228066290D01*
X87234945Y-228076707D01*
X87234265Y-228104232D01*
X87233849Y-228146437D01*
X87233708Y-228200894D01*
X86611461Y-228200894D01*
X86611461Y-228061944D01*
X86317833Y-228064530D01*
X86024205Y-228067115D01*
X86025017Y-228367519D01*
X86025829Y-228667923D01*
X85717837Y-228668067D01*
X85620897Y-228668106D01*
X85511230Y-228668142D01*
X85395624Y-228668171D01*
X85280865Y-228668194D01*
X85173740Y-228668207D01*
X85102115Y-228668210D01*
X85005615Y-228668205D01*
X84896757Y-228668189D01*
X84782236Y-228668165D01*
X84668747Y-228668134D01*
X84562986Y-228668097D01*
X84491538Y-228668067D01*
X84188692Y-228667923D01*
X84188692Y-228365077D01*
X84188692Y-228062231D01*
X83885846Y-228062231D01*
X83583000Y-228062231D01*
X83583000Y-228052461D01*
X84198667Y-228052461D01*
X84496526Y-228052461D01*
X84794384Y-228052461D01*
X84794384Y-227749615D01*
X84794384Y-227446769D01*
X85097231Y-227446769D01*
X85400077Y-227446769D01*
X85400077Y-227148808D01*
X85400077Y-226855731D01*
X86630389Y-226855731D01*
X86630542Y-227146365D01*
X86630585Y-227219753D01*
X86630634Y-227286661D01*
X86630686Y-227344637D01*
X86630738Y-227391228D01*
X86630788Y-227423982D01*
X86630834Y-227440448D01*
X86630847Y-227441884D01*
X86640258Y-227443108D01*
X86666817Y-227444220D01*
X86708135Y-227445179D01*
X86761824Y-227445947D01*
X86825492Y-227446483D01*
X86896751Y-227446748D01*
X86924077Y-227446769D01*
X87217154Y-227446769D01*
X87217154Y-227158577D01*
X87217154Y-227085361D01*
X87217154Y-227018502D01*
X87217154Y-226960491D01*
X87217154Y-226913818D01*
X87217154Y-226880973D01*
X87217154Y-226864448D01*
X87217154Y-226863058D01*
X87207782Y-226861223D01*
X87181259Y-226859557D01*
X87139972Y-226858118D01*
X87086306Y-226856966D01*
X87022648Y-226856161D01*
X86951385Y-226855763D01*
X86923771Y-226855731D01*
X86630389Y-226855731D01*
X85400077Y-226855731D01*
X85400077Y-226850846D01*
X85097231Y-226850846D01*
X84794384Y-226850846D01*
X84794384Y-226548000D01*
X84794384Y-226245154D01*
X84496526Y-226245154D01*
X84198667Y-226245154D01*
X84198667Y-227148808D01*
X84198667Y-228052461D01*
X83583000Y-228052461D01*
X83583000Y-227153692D01*
X83583000Y-227148808D01*
X83583000Y-226245154D01*
X82679346Y-226245154D01*
X81775692Y-226245154D01*
X81775692Y-226543115D01*
X81775692Y-226841077D01*
X82381384Y-226841077D01*
X82987077Y-226841077D01*
X82987077Y-227148808D01*
X82987077Y-227456538D01*
X82376500Y-227456538D01*
X81765923Y-227456538D01*
X81765923Y-227153692D01*
X81765923Y-226850846D01*
X81467961Y-226850846D01*
X81170000Y-226850846D01*
X81170000Y-227153692D01*
X81170000Y-227456538D01*
X80862269Y-227456538D01*
X80554538Y-227456538D01*
X80554538Y-227153692D01*
X80554538Y-226850846D01*
X80249250Y-226850847D01*
X79943961Y-226850849D01*
X79946391Y-226245155D01*
X79948821Y-225639461D01*
X79650872Y-225639461D01*
X79352923Y-225639461D01*
X79352923Y-226548000D01*
X79352923Y-227456538D01*
X79040269Y-227456538D01*
X78727616Y-227456538D01*
X78730096Y-226237827D01*
X78732577Y-225019115D01*
X79035423Y-225017350D01*
X79338269Y-225015584D01*
X79340855Y-224721830D01*
X79343440Y-224428077D01*
X79035566Y-224428077D01*
X78727692Y-224428077D01*
X78727692Y-224115461D01*
X78727692Y-223802846D01*
X79040308Y-223802846D01*
X79352923Y-223802846D01*
X79352923Y-224110720D01*
X79352923Y-224418594D01*
X79648442Y-224416008D01*
X79943961Y-224413423D01*
X79945989Y-224110577D01*
X79948017Y-223807731D01*
X80256162Y-223805151D01*
X80564307Y-223802572D01*
X80564308Y-224418170D01*
X80564308Y-225033769D01*
X80261461Y-225033769D01*
X79958615Y-225033769D01*
X79958615Y-225331731D01*
X79958615Y-225629692D01*
X80261461Y-225629692D01*
X80564308Y-225629692D01*
X80564308Y-225932682D01*
X80564308Y-226235671D01*
X80859827Y-226233085D01*
X81155346Y-226230500D01*
X81156450Y-225930910D01*
X81157523Y-225639461D01*
X83592769Y-225639461D01*
X83592769Y-225930910D01*
X83592979Y-226004500D01*
X83593575Y-226071700D01*
X83594501Y-226130042D01*
X83595704Y-226177059D01*
X83597131Y-226210287D01*
X83598726Y-226227258D01*
X83599282Y-226228872D01*
X83610337Y-226230511D01*
X83638465Y-226232000D01*
X83681198Y-226233283D01*
X83736070Y-226234307D01*
X83800614Y-226235017D01*
X83872365Y-226235361D01*
X83897243Y-226235384D01*
X84188692Y-226235384D01*
X84188692Y-225937423D01*
X84188692Y-225639461D01*
X83890731Y-225639461D01*
X83592769Y-225639461D01*
X81157523Y-225639461D01*
X81157560Y-225629537D01*
X82381384Y-225629537D01*
X82982192Y-225629537D01*
X83583000Y-225629537D01*
X83583000Y-225331653D01*
X83583000Y-225033769D01*
X82982192Y-225033769D01*
X82381384Y-225033769D01*
X82381384Y-225331653D01*
X82381384Y-225629537D01*
X81157560Y-225629537D01*
X81157577Y-225624808D01*
X81157997Y-225506386D01*
X81158399Y-225384832D01*
X81158563Y-225331653D01*
X81158774Y-225263119D01*
X81159116Y-225144219D01*
X81159415Y-225031105D01*
X81159664Y-224926751D01*
X81159854Y-224834128D01*
X81159978Y-224756212D01*
X81160019Y-224716269D01*
X81160230Y-224413423D01*
X82066327Y-224413423D01*
X82972423Y-224413423D01*
X82975008Y-224117904D01*
X82977594Y-223822384D01*
X82371758Y-223822384D01*
X81765923Y-223822384D01*
X81765923Y-223802846D01*
X82987077Y-223802846D01*
X83285038Y-223802846D01*
X83583000Y-223802846D01*
X83583000Y-223509769D01*
X83583000Y-223216692D01*
X83285038Y-223216692D01*
X82987077Y-223216692D01*
X82987077Y-223509769D01*
X82987077Y-223802846D01*
X81765923Y-223802846D01*
X81765923Y-223509769D01*
X81765923Y-223218320D01*
X81765910Y-223197154D01*
X82381098Y-223197154D01*
X82679346Y-223197154D01*
X82977594Y-223197154D01*
X83592769Y-223197154D01*
X83890731Y-223197154D01*
X84188692Y-223197154D01*
X84188692Y-222904357D01*
X84188692Y-222611560D01*
X83894790Y-222608838D01*
X83821029Y-222608286D01*
X83753781Y-222608035D01*
X83695474Y-222608073D01*
X83648536Y-222608391D01*
X83615395Y-222608976D01*
X83598481Y-222609818D01*
X83596829Y-222610186D01*
X83595807Y-222620608D01*
X83594880Y-222648130D01*
X83594081Y-222690311D01*
X83593443Y-222744713D01*
X83592999Y-222808895D01*
X83592784Y-222880420D01*
X83592769Y-222905705D01*
X83592769Y-223197154D01*
X82977594Y-223197154D01*
X82975025Y-222905705D01*
X82975008Y-222903768D01*
X82972423Y-222610383D01*
X82679346Y-222610383D01*
X82386269Y-222610383D01*
X82383683Y-222903768D01*
X82381098Y-223197154D01*
X81765910Y-223197154D01*
X81765859Y-223111536D01*
X81765675Y-223010646D01*
X81765382Y-222917329D01*
X81764990Y-222833263D01*
X81764512Y-222760127D01*
X81763959Y-222699599D01*
X81763341Y-222653357D01*
X81762671Y-222623080D01*
X81761958Y-222610445D01*
X81761863Y-222610186D01*
X81751447Y-222609253D01*
X81723922Y-222608573D01*
X81681717Y-222608157D01*
X81627260Y-222608016D01*
X81562980Y-222608160D01*
X81491304Y-222608602D01*
X81463902Y-222608838D01*
X81170000Y-222611560D01*
X81170000Y-222914200D01*
X81170000Y-223216839D01*
X80558874Y-223214323D01*
X79947749Y-223211808D01*
X79948558Y-222911404D01*
X79949367Y-222611000D01*
X79646260Y-222611000D01*
X79343154Y-222611000D01*
X79343154Y-222298665D01*
X79958615Y-222298665D01*
X79958615Y-222591461D01*
X80256577Y-222591461D01*
X80554538Y-222591461D01*
X84198461Y-222591461D01*
X84803885Y-222591461D01*
X85409308Y-222591461D01*
X85412020Y-222899192D01*
X85412662Y-222996113D01*
X85413034Y-223105776D01*
X85413136Y-223221388D01*
X85412967Y-223336156D01*
X85412528Y-223443286D01*
X85412020Y-223514654D01*
X85409308Y-223822384D01*
X85101846Y-223822384D01*
X84794384Y-223822384D01*
X84794384Y-223519538D01*
X84794384Y-223216692D01*
X84496500Y-223216692D01*
X84198616Y-223216692D01*
X84198616Y-224423192D01*
X84198616Y-225629692D01*
X84503827Y-225629689D01*
X84809038Y-225629687D01*
X84809038Y-225930093D01*
X84809038Y-226230500D01*
X85109442Y-226233083D01*
X85409846Y-226235667D01*
X85409846Y-226538372D01*
X85409846Y-226841077D01*
X85707808Y-226841077D01*
X86005769Y-226841077D01*
X86005769Y-226538231D01*
X86005769Y-226235384D01*
X86308615Y-226235384D01*
X86611461Y-226235384D01*
X86611461Y-225937423D01*
X87236692Y-225937423D01*
X87236692Y-226235384D01*
X87539538Y-226235384D01*
X87842384Y-226235384D01*
X87842384Y-226538374D01*
X87842384Y-226841363D01*
X88137904Y-226838778D01*
X88433423Y-226836192D01*
X88433423Y-226232941D01*
X88433423Y-225629691D01*
X88743596Y-225629691D01*
X89053769Y-225629692D01*
X89053769Y-226538306D01*
X89053769Y-227446919D01*
X89652134Y-227444402D01*
X90250500Y-227441884D01*
X90252940Y-226843519D01*
X90252950Y-226841077D01*
X91476538Y-226841077D01*
X91774500Y-226841077D01*
X92072461Y-226841077D01*
X92072461Y-226245154D01*
X93899613Y-226245154D01*
X93899620Y-226839609D01*
X93899723Y-226945602D01*
X93900017Y-227045752D01*
X93900485Y-227138358D01*
X93901107Y-227221719D01*
X93901867Y-227294134D01*
X93902747Y-227353903D01*
X93903727Y-227399326D01*
X93904791Y-227428701D01*
X93905919Y-227440328D01*
X93905980Y-227440416D01*
X93916994Y-227442016D01*
X93945082Y-227443467D01*
X93987779Y-227444719D01*
X94042620Y-227445717D01*
X94107141Y-227446411D01*
X94178877Y-227446746D01*
X94203782Y-227446769D01*
X94495231Y-227446769D01*
X94495231Y-227143923D01*
X94495231Y-226841077D01*
X94798077Y-226841077D01*
X95100923Y-226841077D01*
X95100923Y-226543115D01*
X95100923Y-226245154D01*
X94500268Y-226245154D01*
X93899613Y-226245154D01*
X92072461Y-226245154D01*
X92072461Y-225937423D01*
X92072461Y-225930910D01*
X92072461Y-225639461D01*
X92687923Y-225639461D01*
X92687923Y-225930910D01*
X92688133Y-226004500D01*
X92688729Y-226071700D01*
X92689655Y-226130042D01*
X92690858Y-226177059D01*
X92692285Y-226210287D01*
X92693880Y-226227258D01*
X92694436Y-226228872D01*
X92705491Y-226230511D01*
X92733619Y-226232000D01*
X92776351Y-226233283D01*
X92831223Y-226234307D01*
X92895768Y-226235017D01*
X92967519Y-226235361D01*
X92992397Y-226235384D01*
X93283846Y-226235384D01*
X93283846Y-225937423D01*
X93283846Y-225639461D01*
X92985884Y-225639461D01*
X92687923Y-225639461D01*
X92072461Y-225639461D01*
X92072461Y-225325218D01*
X92072461Y-225033769D01*
X93899308Y-225033769D01*
X93899308Y-225325218D01*
X93899518Y-225398808D01*
X93900113Y-225466007D01*
X93901039Y-225524349D01*
X93902243Y-225571367D01*
X93903669Y-225604595D01*
X93905265Y-225621566D01*
X93905820Y-225623179D01*
X93916876Y-225624819D01*
X93945003Y-225626307D01*
X93987736Y-225627590D01*
X94042608Y-225628614D01*
X94107153Y-225629325D01*
X94178903Y-225629668D01*
X94203782Y-225629692D01*
X94495231Y-225629692D01*
X94495231Y-225331731D01*
X94495231Y-225033769D01*
X94197269Y-225033769D01*
X93899308Y-225033769D01*
X92072461Y-225033769D01*
X91774500Y-225033769D01*
X91476538Y-225033769D01*
X91476538Y-225937423D01*
X91476538Y-226841077D01*
X90252950Y-226841077D01*
X90255381Y-226245154D01*
X89952536Y-226245154D01*
X89649692Y-226245154D01*
X89649684Y-226235384D01*
X90265154Y-226235384D01*
X90563115Y-226235384D01*
X90861077Y-226235384D01*
X90861077Y-225937423D01*
X90861077Y-225639461D01*
X90563115Y-225639461D01*
X90265154Y-225639461D01*
X90265154Y-225937423D01*
X90265154Y-226235384D01*
X89649684Y-226235384D01*
X89649428Y-225939865D01*
X89649427Y-225937423D01*
X89649376Y-225843723D01*
X89649368Y-225735253D01*
X89649402Y-225621176D01*
X89649475Y-225508213D01*
X89649583Y-225403084D01*
X89649686Y-225334173D01*
X89650207Y-225033769D01*
X89041815Y-225033774D01*
X88433423Y-225033779D01*
X88436138Y-224730928D01*
X88436240Y-224719525D01*
X89659461Y-224719525D01*
X89659593Y-224792971D01*
X89659964Y-224859896D01*
X89660542Y-224917860D01*
X89661293Y-224964425D01*
X89662183Y-224997151D01*
X89663179Y-225013598D01*
X89663532Y-225015045D01*
X89673676Y-225015612D01*
X89701985Y-225016107D01*
X89747086Y-225016525D01*
X89807606Y-225016865D01*
X89882173Y-225017124D01*
X89969412Y-225017299D01*
X90067951Y-225017387D01*
X90176417Y-225017386D01*
X90293436Y-225017294D01*
X90417636Y-225017107D01*
X90547643Y-225016823D01*
X90564743Y-225016779D01*
X91461884Y-225014443D01*
X91464441Y-224719525D01*
X92082231Y-224719525D01*
X92082362Y-224792971D01*
X92082733Y-224859896D01*
X92083311Y-224917860D01*
X92084062Y-224964425D01*
X92084953Y-224997151D01*
X92085949Y-225013598D01*
X92086302Y-225015045D01*
X92096445Y-225015637D01*
X92124756Y-225016202D01*
X92169863Y-225016736D01*
X92230394Y-225017232D01*
X92304980Y-225017684D01*
X92392247Y-225018084D01*
X92490826Y-225018429D01*
X92599345Y-225018710D01*
X92716432Y-225018922D01*
X92840717Y-225019059D01*
X92970828Y-225019114D01*
X92989956Y-225019115D01*
X93889539Y-225019115D01*
X93889539Y-224723596D01*
X93889538Y-224428077D01*
X93586692Y-224428077D01*
X93283846Y-224428077D01*
X93283846Y-224125231D01*
X93283846Y-223822384D01*
X92985884Y-223822384D01*
X92687923Y-223822384D01*
X92687923Y-224125231D01*
X92687923Y-224428077D01*
X92385077Y-224428077D01*
X92082231Y-224428077D01*
X92082231Y-224719525D01*
X91464441Y-224719525D01*
X91464468Y-224716375D01*
X91466966Y-224428077D01*
X91467051Y-224418308D01*
X91769756Y-224418308D01*
X92072461Y-224418308D01*
X92072461Y-224120346D01*
X92072461Y-223822384D01*
X91466769Y-223822384D01*
X90861077Y-223822384D01*
X90861077Y-223802846D01*
X92082231Y-223802846D01*
X92380192Y-223802846D01*
X92678154Y-223802846D01*
X92678154Y-223509769D01*
X92678154Y-223216692D01*
X92380192Y-223216692D01*
X92082231Y-223216692D01*
X92082231Y-223509769D01*
X92082231Y-223802846D01*
X90861077Y-223802846D01*
X90861077Y-223519538D01*
X90861077Y-223509769D01*
X90861077Y-223216692D01*
X90563115Y-223216692D01*
X90265154Y-223216692D01*
X90265154Y-223822384D01*
X90265154Y-224428077D01*
X89962308Y-224428077D01*
X89659461Y-224428077D01*
X89659461Y-224719525D01*
X88436240Y-224719525D01*
X88438852Y-224428077D01*
X88140618Y-224428077D01*
X87842384Y-224428077D01*
X87842384Y-225033769D01*
X87842384Y-225639461D01*
X87539538Y-225639461D01*
X87236692Y-225639461D01*
X87236692Y-225937423D01*
X86611461Y-225937423D01*
X86611461Y-225932538D01*
X86611461Y-225639461D01*
X86611461Y-225629692D01*
X86914308Y-225629692D01*
X87217154Y-225629692D01*
X87217154Y-225331731D01*
X87217154Y-225033769D01*
X86914308Y-225033769D01*
X86611461Y-225033769D01*
X86611461Y-224730923D01*
X86611461Y-224428077D01*
X86318384Y-224428077D01*
X86025308Y-224428077D01*
X86025308Y-225033769D01*
X86025308Y-225639461D01*
X85712692Y-225639461D01*
X85400077Y-225639461D01*
X85400077Y-225028884D01*
X85400077Y-224418308D01*
X85702923Y-224418308D01*
X86005769Y-224418308D01*
X86005769Y-223504884D01*
X86005769Y-223196871D01*
X86631000Y-223196871D01*
X86931404Y-223199455D01*
X87231808Y-223202038D01*
X87234391Y-223502442D01*
X87236974Y-223802846D01*
X87842526Y-223802846D01*
X88448077Y-223802846D01*
X88448077Y-224110720D01*
X88448077Y-224418594D01*
X88741312Y-224416008D01*
X89034547Y-224413423D01*
X89034544Y-223512211D01*
X89034490Y-223381361D01*
X89034335Y-223256215D01*
X89034210Y-223197154D01*
X92687923Y-223197154D01*
X92985884Y-223197154D01*
X93283846Y-223197154D01*
X93283846Y-222904077D01*
X93283846Y-222611000D01*
X92985884Y-222611000D01*
X92687923Y-222611000D01*
X92687923Y-222904077D01*
X92687923Y-223197154D01*
X89034210Y-223197154D01*
X89034085Y-223138134D01*
X89033749Y-223028480D01*
X89033335Y-222928615D01*
X89033201Y-222904077D01*
X89032849Y-222839900D01*
X89032300Y-222763698D01*
X89031694Y-222701370D01*
X89031041Y-222654278D01*
X89030347Y-222623783D01*
X89029620Y-222611248D01*
X89029501Y-222611000D01*
X89018822Y-222611000D01*
X88991070Y-222611000D01*
X88948708Y-222611000D01*
X88894201Y-222611000D01*
X88830013Y-222611000D01*
X88758610Y-222611000D01*
X88736269Y-222611000D01*
X88448077Y-222611000D01*
X88448077Y-222913846D01*
X88448077Y-223216692D01*
X88135461Y-223216692D01*
X87822846Y-223216692D01*
X87822846Y-222913846D01*
X87822846Y-222611000D01*
X87226923Y-222611000D01*
X86631000Y-222611000D01*
X86631000Y-222903936D01*
X86631000Y-223196871D01*
X86005769Y-223196871D01*
X86005769Y-222903936D01*
X86005769Y-222591461D01*
X86308615Y-222591461D01*
X86611461Y-222591461D01*
X86611461Y-222298384D01*
X86611461Y-222005308D01*
X85404961Y-222005308D01*
X84198461Y-222005308D01*
X84198461Y-222298384D01*
X84198461Y-222591461D01*
X80554538Y-222591461D01*
X80554538Y-222300013D01*
X80554535Y-222298384D01*
X80554407Y-222226567D01*
X80554037Y-222159642D01*
X80553461Y-222101678D01*
X80552712Y-222055113D01*
X80551824Y-222022387D01*
X80550831Y-222005940D01*
X80550479Y-222004493D01*
X80540062Y-222003561D01*
X80512537Y-222002881D01*
X80470332Y-222002465D01*
X80415875Y-222002324D01*
X80351595Y-222002468D01*
X80279920Y-222002909D01*
X80252517Y-222003145D01*
X79958615Y-222005868D01*
X79958615Y-222298665D01*
X79343154Y-222298665D01*
X79343154Y-222298384D01*
X79343154Y-222005868D01*
X79343154Y-221985769D01*
X79646143Y-221985769D01*
X79949132Y-221985769D01*
X79946547Y-221690250D01*
X79943961Y-221394731D01*
X79643376Y-221392697D01*
X79342791Y-221390663D01*
X79342705Y-221084966D01*
X79342692Y-220988385D01*
X79342700Y-220879126D01*
X79342728Y-220763996D01*
X79342773Y-220649801D01*
X79342834Y-220543345D01*
X79342887Y-220474122D01*
X79343154Y-220168974D01*
X79643558Y-220166391D01*
X79943961Y-220163808D01*
X79943961Y-219863401D01*
X79943961Y-219562994D01*
X80859827Y-219562997D01*
X81775692Y-219563000D01*
X81775692Y-219870731D01*
X81775692Y-220178461D01*
X81470404Y-220178725D01*
X81374262Y-220178778D01*
X81265792Y-220178786D01*
X81151714Y-220178752D01*
X81038751Y-220178679D01*
X80933623Y-220178570D01*
X80864711Y-220178468D01*
X80564308Y-220177947D01*
X80564313Y-220483493D01*
X80564318Y-220789038D01*
X80261467Y-220786323D01*
X79958615Y-220783609D01*
X79958615Y-221081843D01*
X79958615Y-221380077D01*
X80261461Y-221380077D01*
X80564308Y-221380077D01*
X80564308Y-221682923D01*
X80564308Y-221985769D01*
X82376500Y-221985769D01*
X84188692Y-221985769D01*
X86631000Y-221985769D01*
X87226923Y-221985769D01*
X87822846Y-221985769D01*
X87822846Y-221687925D01*
X87822846Y-221390080D01*
X87226923Y-221390080D01*
X86631000Y-221390080D01*
X86631000Y-221687925D01*
X86631000Y-221985769D01*
X84188692Y-221985769D01*
X84188692Y-221687925D01*
X84188692Y-221682923D01*
X84188692Y-221380077D01*
X84491538Y-221380077D01*
X84794384Y-221380077D01*
X84794384Y-221081855D01*
X84794384Y-220783632D01*
X84493981Y-220784444D01*
X84193577Y-220785255D01*
X84193484Y-220774384D01*
X84803867Y-220774384D01*
X85109299Y-220774379D01*
X85414731Y-220774374D01*
X85412016Y-221077225D01*
X85409301Y-221380077D01*
X85707535Y-221380077D01*
X86005769Y-221380077D01*
X86005769Y-220774384D01*
X86005769Y-220168692D01*
X86318384Y-220168692D01*
X86631000Y-220168692D01*
X86631000Y-220471538D01*
X86631000Y-220774384D01*
X87226923Y-220774384D01*
X87822846Y-220774384D01*
X87822846Y-220476423D01*
X87822846Y-220178461D01*
X87520000Y-220178461D01*
X87217154Y-220178461D01*
X87217154Y-219870731D01*
X88448077Y-219870731D01*
X88448077Y-220168692D01*
X89048884Y-220168692D01*
X89649692Y-220168692D01*
X89649692Y-219865846D01*
X89649692Y-219563000D01*
X89952538Y-219563000D01*
X90255384Y-219563000D01*
X90255384Y-219265038D01*
X90255384Y-218967077D01*
X89952538Y-218967077D01*
X89649692Y-218967077D01*
X89649514Y-218661788D01*
X89649485Y-218593957D01*
X89649465Y-218509585D01*
X89649456Y-218411670D01*
X89649456Y-218303211D01*
X89649466Y-218187205D01*
X89649485Y-218066651D01*
X89649513Y-217944546D01*
X89649550Y-217823888D01*
X89649576Y-217753250D01*
X89649816Y-217150000D01*
X89351793Y-217150000D01*
X89053769Y-217150000D01*
X89053769Y-218361384D01*
X89053769Y-219572769D01*
X88750923Y-219572769D01*
X88448077Y-219572769D01*
X88448077Y-219870731D01*
X87217154Y-219870731D01*
X87217154Y-219572769D01*
X87217154Y-219269780D01*
X87217154Y-218957594D01*
X87842384Y-218957594D01*
X88137904Y-218955008D01*
X88433423Y-218952423D01*
X88433423Y-218659346D01*
X88433423Y-218366269D01*
X88137904Y-218363683D01*
X87842384Y-218361098D01*
X87842384Y-218659346D01*
X87842384Y-218957594D01*
X87217154Y-218957594D01*
X87217154Y-218659346D01*
X87217154Y-218361098D01*
X86923781Y-218363683D01*
X86630408Y-218366269D01*
X86630847Y-218969519D01*
X86631286Y-219572769D01*
X86320970Y-219572972D01*
X86224733Y-219573113D01*
X86116686Y-219573403D01*
X86003350Y-219573817D01*
X85891244Y-219574328D01*
X85786888Y-219574910D01*
X85712692Y-219575414D01*
X85414731Y-219577654D01*
X85414731Y-219875615D01*
X85414731Y-220173577D01*
X85111884Y-220178461D01*
X84809038Y-220183346D01*
X84806453Y-220478865D01*
X84803867Y-220774384D01*
X84193484Y-220774384D01*
X84190995Y-220481858D01*
X84188414Y-220178461D01*
X83890591Y-220178461D01*
X83592769Y-220178461D01*
X83592772Y-220483750D01*
X83592775Y-220789038D01*
X83292368Y-220789038D01*
X82991961Y-220789038D01*
X82989383Y-221091884D01*
X82986804Y-221394731D01*
X82373921Y-221392500D01*
X82255065Y-221392083D01*
X82133260Y-221391684D01*
X82011430Y-221391310D01*
X81892502Y-221390971D01*
X81779400Y-221390672D01*
X81675050Y-221390423D01*
X81582377Y-221390231D01*
X81504306Y-221390104D01*
X81460634Y-221390058D01*
X81160231Y-221389846D01*
X81160231Y-221082115D01*
X81160231Y-220774384D01*
X82068769Y-220774384D01*
X82977308Y-220774384D01*
X82977308Y-220476423D01*
X82977308Y-220178461D01*
X82674461Y-220178461D01*
X82371615Y-220178461D01*
X82371615Y-219870731D01*
X82371615Y-219563000D01*
X82679346Y-219563000D01*
X82987077Y-219563000D01*
X82987077Y-219865846D01*
X82987077Y-220168692D01*
X83285038Y-220168692D01*
X83583000Y-220168692D01*
X83583000Y-219563000D01*
X84198616Y-219563000D01*
X84496500Y-219563000D01*
X84794384Y-219563000D01*
X84794384Y-218962192D01*
X84794384Y-218361384D01*
X84496500Y-218361384D01*
X84198616Y-218361384D01*
X84198616Y-218962192D01*
X84198616Y-219563000D01*
X83583000Y-219563000D01*
X83583000Y-218962192D01*
X83583000Y-218957308D01*
X83583000Y-217755692D01*
X85410151Y-217755692D01*
X85410159Y-218350147D01*
X85410262Y-218456141D01*
X85410556Y-218556290D01*
X85411023Y-218648896D01*
X85411646Y-218732257D01*
X85412406Y-218804673D01*
X85413285Y-218864442D01*
X85414265Y-218909864D01*
X85415329Y-218939239D01*
X85416458Y-218950867D01*
X85416519Y-218950955D01*
X85427533Y-218952554D01*
X85455621Y-218954006D01*
X85498317Y-218955257D01*
X85553158Y-218956256D01*
X85617679Y-218956949D01*
X85689415Y-218957284D01*
X85714320Y-218957308D01*
X86005769Y-218957308D01*
X86005769Y-218356500D01*
X86005769Y-217755692D01*
X85707960Y-217755692D01*
X85410151Y-217755692D01*
X83583000Y-217755692D01*
X83583000Y-217745923D01*
X84188692Y-217745923D01*
X84794384Y-217745923D01*
X84794383Y-217584868D01*
X87233736Y-217584868D01*
X87233785Y-217643198D01*
X87234116Y-217690161D01*
X87234717Y-217723329D01*
X87235577Y-217740273D01*
X87235952Y-217741938D01*
X87246194Y-217742632D01*
X87274284Y-217743210D01*
X87318535Y-217743666D01*
X87377256Y-217743995D01*
X87448759Y-217744194D01*
X87531355Y-217744257D01*
X87623355Y-217744180D01*
X87723069Y-217743959D01*
X87828809Y-217743588D01*
X87836760Y-217743555D01*
X88433423Y-217741038D01*
X88433423Y-217447961D01*
X88433423Y-217154884D01*
X87835338Y-217152367D01*
X87237253Y-217149850D01*
X87234530Y-217443827D01*
X87233981Y-217517602D01*
X87233736Y-217584868D01*
X84794383Y-217584868D01*
X84794379Y-217140517D01*
X89659461Y-217140517D01*
X89954981Y-217137932D01*
X90250500Y-217135346D01*
X90253085Y-216839827D01*
X90255671Y-216544308D01*
X89957566Y-216544308D01*
X89659461Y-216544308D01*
X89659461Y-216842412D01*
X89659461Y-217140517D01*
X84794379Y-217140517D01*
X84794379Y-217137788D01*
X84794375Y-216682971D01*
X86022324Y-216682971D01*
X86022468Y-216747251D01*
X86022909Y-216818926D01*
X86023145Y-216846329D01*
X86025868Y-217140231D01*
X86318665Y-217140231D01*
X86611461Y-217140231D01*
X86611461Y-216842412D01*
X86611461Y-216842269D01*
X86611461Y-216544308D01*
X86320013Y-216544308D01*
X86246567Y-216544438D01*
X86179642Y-216544809D01*
X86121678Y-216545385D01*
X86075113Y-216546134D01*
X86042387Y-216547022D01*
X86025940Y-216548015D01*
X86024493Y-216548367D01*
X86023561Y-216558783D01*
X86022881Y-216586308D01*
X86022465Y-216628514D01*
X86022324Y-216682971D01*
X84794375Y-216682971D01*
X84794374Y-216529654D01*
X85097225Y-216532368D01*
X85400077Y-216535083D01*
X85400077Y-216236849D01*
X85400077Y-215938615D01*
X84799269Y-215938615D01*
X84198461Y-215938615D01*
X84198461Y-216241461D01*
X84198461Y-216544308D01*
X83890731Y-216544308D01*
X83583000Y-216544308D01*
X83583000Y-215626000D01*
X83583000Y-214707692D01*
X83890591Y-214707692D01*
X84198183Y-214707692D01*
X84200764Y-215012981D01*
X84203346Y-215318269D01*
X84498865Y-215320855D01*
X84794384Y-215323440D01*
X84794384Y-215015566D01*
X84794384Y-214707692D01*
X85712692Y-214707692D01*
X86631000Y-214707692D01*
X86631000Y-215020168D01*
X86631000Y-215332645D01*
X86327845Y-215335226D01*
X86024691Y-215337808D01*
X86024697Y-215630884D01*
X86024703Y-215923961D01*
X86325409Y-215925995D01*
X86626115Y-215928029D01*
X86628146Y-216228841D01*
X86630177Y-216529654D01*
X88137492Y-216529654D01*
X89644808Y-216529654D01*
X89647393Y-216234134D01*
X89649979Y-215938615D01*
X89342031Y-215938615D01*
X89034084Y-215938615D01*
X89034123Y-215929132D01*
X89659461Y-215929132D01*
X89954981Y-215926547D01*
X90250500Y-215923961D01*
X90253085Y-215628442D01*
X90255671Y-215332923D01*
X89957566Y-215332923D01*
X89659461Y-215332923D01*
X89659461Y-215631028D01*
X89659461Y-215929132D01*
X89034123Y-215929132D01*
X89035346Y-215631028D01*
X89036599Y-215325596D01*
X89039115Y-214712577D01*
X89652134Y-214710061D01*
X90265154Y-214707545D01*
X90265154Y-215015493D01*
G37*
%TD*%
M02*
