%TF.GenerationSoftware,KiCad,Pcbnew,9.0.2*%
%TF.CreationDate,2025-08-22T18:27:14+01:00*%
%TF.ProjectId,MC8P_MIDI_CONTROLLER,4d433850-5f4d-4494-9449-5f434f4e5452,rev?*%
%TF.SameCoordinates,Original*%
%TF.FileFunction,Legend,Bot*%
%TF.FilePolarity,Positive*%
%FSLAX46Y46*%
G04 Gerber Fmt 4.6, Leading zero omitted, Abs format (unit mm)*
G04 Created by KiCad (PCBNEW 9.0.2) date 2025-08-22 18:27:14*
%MOMM*%
%LPD*%
G01*
G04 APERTURE LIST*
%ADD10C,0.300000*%
%ADD11C,0.200000*%
G04 APERTURE END LIST*
D10*
X22000000Y-206000000D02*
X173000000Y-206000000D01*
X173000000Y-294000000D01*
X22000000Y-294000000D01*
X22000000Y-206000000D01*
D11*
G36*
X164275418Y-210149626D02*
G01*
X163965352Y-210149626D01*
X163924533Y-210145904D01*
X163890433Y-210135392D01*
X163861732Y-210118546D01*
X163837994Y-210095410D01*
X163820539Y-210066762D01*
X163809220Y-210031474D01*
X163808792Y-210029398D01*
X163805434Y-209993334D01*
X163810807Y-209965223D01*
X163824697Y-209941931D01*
X163847444Y-209924617D01*
X163876520Y-209914375D01*
X163915648Y-209910573D01*
X164225715Y-209910573D01*
X164188224Y-209730200D01*
X163878157Y-209730200D01*
X163841351Y-209726706D01*
X163810441Y-209716800D01*
X163784246Y-209700830D01*
X163762712Y-209679066D01*
X163746623Y-209651900D01*
X163735947Y-209618215D01*
X163733378Y-209587038D01*
X163738886Y-209562896D01*
X163751578Y-209543721D01*
X163770395Y-209529776D01*
X163796937Y-209520568D01*
X163833827Y-209517098D01*
X164143893Y-209517098D01*
X164106402Y-209336725D01*
X163790352Y-209336725D01*
X163728103Y-209340685D01*
X163677293Y-209351634D01*
X163635929Y-209368538D01*
X163599563Y-209393292D01*
X163572459Y-209423779D01*
X163553558Y-209460739D01*
X163543465Y-209501564D01*
X163541502Y-209549380D01*
X163548979Y-209605881D01*
X163566147Y-209661109D01*
X163592759Y-209708707D01*
X163628559Y-209749312D01*
X163673176Y-209782163D01*
X163724487Y-209805938D01*
X163784124Y-209821058D01*
X163726119Y-209836097D01*
X163682519Y-209861053D01*
X163659218Y-209883833D01*
X163641777Y-209910599D01*
X163629884Y-209942020D01*
X163623307Y-209993858D01*
X163630190Y-210057424D01*
X163630617Y-210059501D01*
X163646192Y-210114803D01*
X163668058Y-210163232D01*
X163696074Y-210205680D01*
X163730612Y-210242857D01*
X163770877Y-210273615D01*
X163817524Y-210298248D01*
X163867630Y-210315533D01*
X163923328Y-210326271D01*
X163985502Y-210330000D01*
X164312909Y-210330000D01*
X164275418Y-210149626D01*
G37*
G36*
X164186575Y-209336725D02*
G01*
X164003515Y-209336725D01*
X164210022Y-210330000D01*
X164393082Y-210330000D01*
X164186575Y-209336725D01*
G37*
G36*
X163027826Y-209880532D02*
G01*
X163025178Y-209848511D01*
X163030931Y-209823976D01*
X163044129Y-209804694D01*
X163063580Y-209790757D01*
X163091102Y-209781505D01*
X163129431Y-209778011D01*
X163168225Y-209781184D01*
X163208993Y-209791017D01*
X163248250Y-209806643D01*
X163283975Y-209827226D01*
X163373857Y-209713164D01*
X163317612Y-209670509D01*
X163248621Y-209637693D01*
X163173085Y-209617540D01*
X163091939Y-209610704D01*
X163031932Y-209614577D01*
X162983088Y-209625276D01*
X162943440Y-209641784D01*
X162908638Y-209665941D01*
X162882576Y-209695751D01*
X162864305Y-209731971D01*
X162854582Y-209771839D01*
X162852759Y-209818739D01*
X162860153Y-209874364D01*
X162954858Y-210330000D01*
X163121249Y-210330000D01*
X163027826Y-209880532D01*
G37*
G36*
X163316460Y-210340258D02*
G01*
X163373068Y-210336092D01*
X163415980Y-210324899D01*
X163448159Y-210308039D01*
X163471859Y-210285975D01*
X163488428Y-210258144D01*
X163498232Y-210222899D01*
X163500309Y-210178073D01*
X163492681Y-210120989D01*
X163477817Y-210069686D01*
X163456999Y-210027112D01*
X163430499Y-209991932D01*
X163398098Y-209963208D01*
X163346986Y-209935181D01*
X163282664Y-209917130D01*
X163201788Y-209910573D01*
X163028009Y-209910573D01*
X163048342Y-210053333D01*
X163230792Y-210053333D01*
X163269338Y-210057897D01*
X163296371Y-210070064D01*
X163315927Y-210090596D01*
X163327634Y-210120989D01*
X163329054Y-210143277D01*
X163323811Y-210159838D01*
X163312369Y-210172524D01*
X163285357Y-210184334D01*
X163236959Y-210189255D01*
X163168049Y-210184362D01*
X163124241Y-210172219D01*
X163100884Y-210158144D01*
X163085709Y-210140577D01*
X163077346Y-210118913D01*
X163084734Y-210222044D01*
X163102408Y-210256973D01*
X163132667Y-210286952D01*
X163171120Y-210309964D01*
X163217175Y-210326946D01*
X163266220Y-210336923D01*
X163316460Y-210340258D01*
G37*
G36*
X162467105Y-210340258D02*
G01*
X162532079Y-210335495D01*
X162585145Y-210322274D01*
X162628489Y-210301667D01*
X162665486Y-210272122D01*
X162693242Y-210235105D01*
X162712386Y-210189316D01*
X162721594Y-210139733D01*
X162722041Y-210081172D01*
X162712142Y-210011690D01*
X162696388Y-209935853D01*
X162678104Y-209868636D01*
X162653574Y-209810374D01*
X162623115Y-209759937D01*
X162585318Y-209715041D01*
X162542034Y-209678252D01*
X162492751Y-209648989D01*
X162439232Y-209628038D01*
X162380442Y-209615151D01*
X162315430Y-209610704D01*
X162259978Y-209614149D01*
X162210956Y-209624016D01*
X162165769Y-209640656D01*
X162128463Y-209662606D01*
X162097392Y-209690798D01*
X162074424Y-209724094D01*
X162217062Y-209841575D01*
X162239987Y-209820474D01*
X162268841Y-209804328D01*
X162301283Y-209794421D01*
X162337534Y-209791017D01*
X162382539Y-209795492D01*
X162420570Y-209808238D01*
X162453061Y-209828935D01*
X162479589Y-209856887D01*
X162499706Y-209892026D01*
X162513328Y-209935853D01*
X162529082Y-210011690D01*
X162533915Y-210058533D01*
X162528209Y-210094030D01*
X162513817Y-210121294D01*
X162490974Y-210141774D01*
X162458859Y-210154964D01*
X162414227Y-210159884D01*
X162376576Y-210156334D01*
X162339061Y-210145535D01*
X162303750Y-210128153D01*
X162271711Y-210104563D01*
X162179387Y-210228883D01*
X162216578Y-210261633D01*
X162259438Y-210289394D01*
X162306270Y-210311212D01*
X162357501Y-210327313D01*
X162410981Y-210336986D01*
X162467105Y-210340258D01*
G37*
G36*
X161923115Y-210074521D02*
G01*
X161505399Y-209620901D01*
X161311653Y-209620901D01*
X161941250Y-210280785D01*
X161923115Y-210074521D01*
G37*
G36*
X161855216Y-209336725D02*
G01*
X161672095Y-209336725D01*
X161878602Y-210330000D01*
X162061723Y-210330000D01*
X161855216Y-209336725D01*
G37*
G36*
X161735720Y-209963818D02*
G01*
X161565361Y-209870945D01*
X161424921Y-210330000D01*
X161636741Y-210330000D01*
X161735720Y-209963818D01*
G37*
G36*
X160732554Y-209764394D02*
G01*
X160421755Y-209764394D01*
X160390087Y-209760530D01*
X160360816Y-209749007D01*
X160334838Y-209730643D01*
X160312700Y-209705654D01*
X160296063Y-209675872D01*
X160285345Y-209641418D01*
X160281534Y-209605644D01*
X160285467Y-209576205D01*
X160296979Y-209550807D01*
X160315143Y-209532486D01*
X160339097Y-209521165D01*
X160370341Y-209517098D01*
X160681140Y-209517098D01*
X160643649Y-209336725D01*
X160337613Y-209336725D01*
X160278013Y-209341303D01*
X160227848Y-209354199D01*
X160185450Y-209374644D01*
X160148684Y-209403450D01*
X160120580Y-209438768D01*
X160100453Y-209481561D01*
X160089609Y-209528058D01*
X160087625Y-209580853D01*
X160095629Y-209641418D01*
X160112197Y-209700280D01*
X160135931Y-209753215D01*
X160166826Y-209800969D01*
X160204580Y-209843393D01*
X160247528Y-209878642D01*
X160296153Y-209907154D01*
X160348565Y-209927884D01*
X160404279Y-209940436D01*
X160464009Y-209944706D01*
X160770045Y-209944706D01*
X160732554Y-209764394D01*
G37*
G36*
X160727119Y-209336725D02*
G01*
X160544059Y-209336725D01*
X160750566Y-210330000D01*
X160933627Y-210330000D01*
X160727119Y-209336725D01*
G37*
G36*
X159634804Y-209880532D02*
G01*
X159632156Y-209848511D01*
X159637909Y-209823976D01*
X159651107Y-209804694D01*
X159670558Y-209790757D01*
X159698080Y-209781505D01*
X159736409Y-209778011D01*
X159775203Y-209781184D01*
X159815971Y-209791017D01*
X159855229Y-209806643D01*
X159890954Y-209827226D01*
X159980835Y-209713164D01*
X159924590Y-209670509D01*
X159855600Y-209637693D01*
X159780063Y-209617540D01*
X159698918Y-209610704D01*
X159638910Y-209614577D01*
X159590066Y-209625276D01*
X159550418Y-209641784D01*
X159515617Y-209665941D01*
X159489554Y-209695751D01*
X159471284Y-209731971D01*
X159461560Y-209771839D01*
X159459737Y-209818739D01*
X159467131Y-209874364D01*
X159561837Y-210330000D01*
X159728227Y-210330000D01*
X159634804Y-209880532D01*
G37*
G36*
X159923438Y-210340258D02*
G01*
X159980047Y-210336092D01*
X160022959Y-210324899D01*
X160055137Y-210308039D01*
X160078838Y-210285975D01*
X160095406Y-210258144D01*
X160105210Y-210222899D01*
X160107287Y-210178073D01*
X160099659Y-210120989D01*
X160084795Y-210069686D01*
X160063977Y-210027112D01*
X160037477Y-209991932D01*
X160005076Y-209963208D01*
X159953965Y-209935181D01*
X159889643Y-209917130D01*
X159808766Y-209910573D01*
X159634987Y-209910573D01*
X159655321Y-210053333D01*
X159837770Y-210053333D01*
X159876317Y-210057897D01*
X159903349Y-210070064D01*
X159922905Y-210090596D01*
X159934612Y-210120989D01*
X159936033Y-210143277D01*
X159930789Y-210159838D01*
X159919347Y-210172524D01*
X159892336Y-210184334D01*
X159843937Y-210189255D01*
X159775027Y-210184362D01*
X159731219Y-210172219D01*
X159707862Y-210158144D01*
X159692688Y-210140577D01*
X159684324Y-210118913D01*
X159691713Y-210222044D01*
X159709386Y-210256973D01*
X159739645Y-210286952D01*
X159778098Y-210309964D01*
X159824153Y-210326946D01*
X159873198Y-210336923D01*
X159923438Y-210340258D01*
G37*
G36*
X159217882Y-209620901D02*
G01*
X159034760Y-209620901D01*
X159182161Y-210330000D01*
X159365282Y-210330000D01*
X159217882Y-209620901D01*
G37*
G36*
X158875026Y-209900315D02*
G01*
X158871637Y-209866168D01*
X158876169Y-209840041D01*
X158887360Y-209819715D01*
X158904863Y-209804532D01*
X158929549Y-209794697D01*
X158963930Y-209791017D01*
X158996717Y-209794423D01*
X159024558Y-209804163D01*
X159048499Y-209820081D01*
X159067950Y-209841351D01*
X159082869Y-209868158D01*
X159093135Y-209901659D01*
X159074511Y-209744549D01*
X159026084Y-209684147D01*
X158978524Y-209644166D01*
X158943391Y-209625741D01*
X158904704Y-209614552D01*
X158861592Y-209610704D01*
X158807945Y-209616039D01*
X158765961Y-209630755D01*
X158733046Y-209653951D01*
X158707597Y-209686175D01*
X158691097Y-209723947D01*
X158682007Y-209770555D01*
X158681575Y-209828245D01*
X158691844Y-209899644D01*
X158781297Y-210330000D01*
X158964357Y-210330000D01*
X158875026Y-209900315D01*
G37*
G36*
X158288476Y-210340258D02*
G01*
X158354459Y-210335643D01*
X158408273Y-210322859D01*
X158452119Y-210303011D01*
X158489903Y-210274326D01*
X158518304Y-210238500D01*
X158538093Y-210194384D01*
X158548032Y-210146353D01*
X158549120Y-210089742D01*
X158539802Y-210022620D01*
X158523194Y-209942691D01*
X158504713Y-209874050D01*
X158480235Y-209814547D01*
X158450104Y-209763051D01*
X158412711Y-209716899D01*
X158370255Y-209679338D01*
X158322304Y-209649661D01*
X158269988Y-209628326D01*
X158212508Y-209615223D01*
X158148892Y-209610704D01*
X158089921Y-209616337D01*
X158042002Y-209632089D01*
X158002834Y-209657172D01*
X157971391Y-209691461D01*
X157947771Y-209735657D01*
X157932309Y-209792055D01*
X157926758Y-209851075D01*
X157929725Y-209921526D01*
X157942934Y-210005523D01*
X157952581Y-210051990D01*
X158426962Y-210051990D01*
X158400706Y-209925594D01*
X158093387Y-209925594D01*
X158091922Y-209909169D01*
X158091779Y-209868662D01*
X158098205Y-209837782D01*
X158109996Y-209814281D01*
X158127985Y-209796112D01*
X158152056Y-209784851D01*
X158184246Y-209780758D01*
X158226739Y-209785423D01*
X158263260Y-209798861D01*
X158295132Y-209821058D01*
X158320936Y-209850476D01*
X158341100Y-209887946D01*
X158355338Y-209935181D01*
X158374084Y-210025307D01*
X158378874Y-210073008D01*
X158372770Y-210109310D01*
X158357597Y-210137353D01*
X158333712Y-210158408D01*
X158300433Y-210171945D01*
X158254527Y-210176981D01*
X158217816Y-210173745D01*
X158178995Y-210163670D01*
X158141332Y-210147604D01*
X158105600Y-210125751D01*
X158008574Y-210234378D01*
X158075771Y-210279437D01*
X158146449Y-210312597D01*
X158219691Y-210333561D01*
X158288476Y-210340258D01*
G37*
G36*
X157601543Y-210095710D02*
G01*
X157602598Y-210119697D01*
X157595560Y-210135643D01*
X157581270Y-210145754D01*
X157557397Y-210149626D01*
X157526622Y-210149626D01*
X157564113Y-210330000D01*
X157657658Y-210330000D01*
X157710989Y-210323798D01*
X157749522Y-210307084D01*
X157777093Y-210280846D01*
X157794136Y-210246281D01*
X157800663Y-210201309D01*
X157794312Y-210142116D01*
X157626884Y-209336725D01*
X157443763Y-209336725D01*
X157601543Y-210095710D01*
G37*
M02*
