%TF.GenerationSoftware,KiCad,Pcbnew,9.0.2*%
%TF.CreationDate,2025-08-22T18:27:14+01:00*%
%TF.ProjectId,MC8P_MIDI_CONTROLLER,4d433850-5f4d-4494-9449-5f434f4e5452,rev?*%
%TF.SameCoordinates,Original*%
%TF.FileFunction,Copper,L1,Top*%
%TF.FilePolarity,Positive*%
%FSLAX46Y46*%
G04 Gerber Fmt 4.6, Leading zero omitted, Abs format (unit mm)*
G04 Created by KiCad (PCBNEW 9.0.2) date 2025-08-22 18:27:14*
%MOMM*%
%LPD*%
G01*
G04 APERTURE LIST*
%TA.AperFunction,ComponentPad*%
%ADD10C,5.000000*%
%TD*%
G04 APERTURE END LIST*
D10*
%TO.P,,*%
%TO.N,GND*%
X169000000Y-290000000D03*
%TD*%
%TO.P,,*%
%TO.N,GND*%
X169000000Y-210000000D03*
%TD*%
%TO.P,,*%
%TO.N,GND*%
X26000000Y-210000000D03*
%TD*%
%TO.P,,*%
%TO.N,GND*%
X26000000Y-290000000D03*
%TD*%
%TA.AperFunction,Conductor*%
%TO.N,GND*%
G36*
X172943039Y-206019685D02*
G01*
X172988794Y-206072489D01*
X173000000Y-206124000D01*
X173000000Y-293876000D01*
X172980315Y-293943039D01*
X172927511Y-293988794D01*
X172876000Y-294000000D01*
X22124000Y-294000000D01*
X22056961Y-293980315D01*
X22011206Y-293927511D01*
X22000000Y-293876000D01*
X22000000Y-289831519D01*
X23000000Y-289831519D01*
X23000000Y-290168480D01*
X23037725Y-290503297D01*
X23037727Y-290503313D01*
X23112705Y-290831814D01*
X23112709Y-290831826D01*
X23223995Y-291149862D01*
X23370191Y-291453440D01*
X23549461Y-291738747D01*
X23708397Y-291938048D01*
X24705747Y-290940697D01*
X24779588Y-291042330D01*
X24957670Y-291220412D01*
X25059300Y-291294251D01*
X24061950Y-292291601D01*
X24261252Y-292450538D01*
X24546559Y-292629808D01*
X24850137Y-292776004D01*
X25168173Y-292887290D01*
X25168185Y-292887294D01*
X25496686Y-292962272D01*
X25496702Y-292962274D01*
X25831519Y-292999999D01*
X25831521Y-293000000D01*
X26168479Y-293000000D01*
X26168480Y-292999999D01*
X26503297Y-292962274D01*
X26503313Y-292962272D01*
X26831814Y-292887294D01*
X26831826Y-292887290D01*
X27149862Y-292776004D01*
X27453440Y-292629808D01*
X27738747Y-292450538D01*
X27938048Y-292291600D01*
X26940698Y-291294251D01*
X27042330Y-291220412D01*
X27220412Y-291042330D01*
X27294251Y-290940699D01*
X28291600Y-291938048D01*
X28450538Y-291738747D01*
X28629808Y-291453440D01*
X28776004Y-291149862D01*
X28887290Y-290831826D01*
X28887294Y-290831814D01*
X28962272Y-290503313D01*
X28962274Y-290503297D01*
X28999999Y-290168480D01*
X29000000Y-290168478D01*
X29000000Y-289831521D01*
X28999999Y-289831519D01*
X166000000Y-289831519D01*
X166000000Y-290168480D01*
X166037725Y-290503297D01*
X166037727Y-290503313D01*
X166112705Y-290831814D01*
X166112709Y-290831826D01*
X166223995Y-291149862D01*
X166370191Y-291453440D01*
X166549461Y-291738747D01*
X166708397Y-291938048D01*
X167705747Y-290940697D01*
X167779588Y-291042330D01*
X167957670Y-291220412D01*
X168059300Y-291294251D01*
X167061950Y-292291601D01*
X167261252Y-292450538D01*
X167546559Y-292629808D01*
X167850137Y-292776004D01*
X168168173Y-292887290D01*
X168168185Y-292887294D01*
X168496686Y-292962272D01*
X168496702Y-292962274D01*
X168831519Y-292999999D01*
X168831521Y-293000000D01*
X169168479Y-293000000D01*
X169168480Y-292999999D01*
X169503297Y-292962274D01*
X169503313Y-292962272D01*
X169831814Y-292887294D01*
X169831826Y-292887290D01*
X170149862Y-292776004D01*
X170453440Y-292629808D01*
X170738747Y-292450538D01*
X170938048Y-292291600D01*
X169940698Y-291294251D01*
X170042330Y-291220412D01*
X170220412Y-291042330D01*
X170294251Y-290940699D01*
X171291600Y-291938048D01*
X171450538Y-291738747D01*
X171629808Y-291453440D01*
X171776004Y-291149862D01*
X171887290Y-290831826D01*
X171887294Y-290831814D01*
X171962272Y-290503313D01*
X171962274Y-290503297D01*
X171999999Y-290168480D01*
X172000000Y-290168478D01*
X172000000Y-289831521D01*
X171999999Y-289831519D01*
X171962274Y-289496702D01*
X171962272Y-289496686D01*
X171887294Y-289168185D01*
X171887290Y-289168173D01*
X171776004Y-288850137D01*
X171629808Y-288546559D01*
X171450538Y-288261252D01*
X171291601Y-288061950D01*
X170294250Y-289059300D01*
X170220412Y-288957670D01*
X170042330Y-288779588D01*
X169940697Y-288705747D01*
X170938048Y-287708397D01*
X170738747Y-287549461D01*
X170453440Y-287370191D01*
X170149862Y-287223995D01*
X169831826Y-287112709D01*
X169831814Y-287112705D01*
X169503313Y-287037727D01*
X169503297Y-287037725D01*
X169168480Y-287000000D01*
X168831519Y-287000000D01*
X168496702Y-287037725D01*
X168496686Y-287037727D01*
X168168185Y-287112705D01*
X168168173Y-287112709D01*
X167850137Y-287223995D01*
X167546559Y-287370191D01*
X167261252Y-287549461D01*
X167061950Y-287708397D01*
X168059301Y-288705748D01*
X167957670Y-288779588D01*
X167779588Y-288957670D01*
X167705748Y-289059301D01*
X166708397Y-288061950D01*
X166549461Y-288261252D01*
X166370191Y-288546559D01*
X166223995Y-288850137D01*
X166112709Y-289168173D01*
X166112705Y-289168185D01*
X166037727Y-289496686D01*
X166037725Y-289496702D01*
X166000000Y-289831519D01*
X28999999Y-289831519D01*
X28962274Y-289496702D01*
X28962272Y-289496686D01*
X28887294Y-289168185D01*
X28887290Y-289168173D01*
X28776004Y-288850137D01*
X28629808Y-288546559D01*
X28450538Y-288261252D01*
X28291601Y-288061950D01*
X27294250Y-289059300D01*
X27220412Y-288957670D01*
X27042330Y-288779588D01*
X26940697Y-288705747D01*
X27938048Y-287708397D01*
X27738747Y-287549461D01*
X27453440Y-287370191D01*
X27149862Y-287223995D01*
X26831826Y-287112709D01*
X26831814Y-287112705D01*
X26503313Y-287037727D01*
X26503297Y-287037725D01*
X26168480Y-287000000D01*
X25831519Y-287000000D01*
X25496702Y-287037725D01*
X25496686Y-287037727D01*
X25168185Y-287112705D01*
X25168173Y-287112709D01*
X24850137Y-287223995D01*
X24546559Y-287370191D01*
X24261252Y-287549461D01*
X24061950Y-287708397D01*
X25059301Y-288705748D01*
X24957670Y-288779588D01*
X24779588Y-288957670D01*
X24705748Y-289059301D01*
X23708397Y-288061950D01*
X23549461Y-288261252D01*
X23370191Y-288546559D01*
X23223995Y-288850137D01*
X23112709Y-289168173D01*
X23112705Y-289168185D01*
X23037727Y-289496686D01*
X23037725Y-289496702D01*
X23000000Y-289831519D01*
X22000000Y-289831519D01*
X22000000Y-209831519D01*
X23000000Y-209831519D01*
X23000000Y-210168480D01*
X23037725Y-210503297D01*
X23037727Y-210503313D01*
X23112705Y-210831814D01*
X23112709Y-210831826D01*
X23223995Y-211149862D01*
X23370191Y-211453440D01*
X23549461Y-211738747D01*
X23708397Y-211938048D01*
X24705747Y-210940697D01*
X24779588Y-211042330D01*
X24957670Y-211220412D01*
X25059300Y-211294251D01*
X24061950Y-212291601D01*
X24261252Y-212450538D01*
X24546559Y-212629808D01*
X24850137Y-212776004D01*
X25168173Y-212887290D01*
X25168185Y-212887294D01*
X25496686Y-212962272D01*
X25496702Y-212962274D01*
X25831519Y-212999999D01*
X25831521Y-213000000D01*
X26168479Y-213000000D01*
X26168480Y-212999999D01*
X26503297Y-212962274D01*
X26503313Y-212962272D01*
X26831814Y-212887294D01*
X26831826Y-212887290D01*
X27149862Y-212776004D01*
X27453440Y-212629808D01*
X27738747Y-212450538D01*
X27938048Y-212291600D01*
X26940698Y-211294251D01*
X27042330Y-211220412D01*
X27220412Y-211042330D01*
X27294251Y-210940699D01*
X28291600Y-211938048D01*
X28450538Y-211738747D01*
X28629808Y-211453440D01*
X28776004Y-211149862D01*
X28887290Y-210831826D01*
X28887294Y-210831814D01*
X28962272Y-210503313D01*
X28962274Y-210503297D01*
X28999999Y-210168480D01*
X29000000Y-210168478D01*
X29000000Y-209831521D01*
X28999999Y-209831519D01*
X166000000Y-209831519D01*
X166000000Y-210168480D01*
X166037725Y-210503297D01*
X166037727Y-210503313D01*
X166112705Y-210831814D01*
X166112709Y-210831826D01*
X166223995Y-211149862D01*
X166370191Y-211453440D01*
X166549461Y-211738747D01*
X166708397Y-211938048D01*
X167705747Y-210940697D01*
X167779588Y-211042330D01*
X167957670Y-211220412D01*
X168059300Y-211294251D01*
X167061950Y-212291601D01*
X167261252Y-212450538D01*
X167546559Y-212629808D01*
X167850137Y-212776004D01*
X168168173Y-212887290D01*
X168168185Y-212887294D01*
X168496686Y-212962272D01*
X168496702Y-212962274D01*
X168831519Y-212999999D01*
X168831521Y-213000000D01*
X169168479Y-213000000D01*
X169168480Y-212999999D01*
X169503297Y-212962274D01*
X169503313Y-212962272D01*
X169831814Y-212887294D01*
X169831826Y-212887290D01*
X170149862Y-212776004D01*
X170453440Y-212629808D01*
X170738747Y-212450538D01*
X170938048Y-212291600D01*
X169940698Y-211294251D01*
X170042330Y-211220412D01*
X170220412Y-211042330D01*
X170294251Y-210940699D01*
X171291600Y-211938048D01*
X171450538Y-211738747D01*
X171629808Y-211453440D01*
X171776004Y-211149862D01*
X171887290Y-210831826D01*
X171887294Y-210831814D01*
X171962272Y-210503313D01*
X171962274Y-210503297D01*
X171999999Y-210168480D01*
X172000000Y-210168478D01*
X172000000Y-209831521D01*
X171999999Y-209831519D01*
X171962274Y-209496702D01*
X171962272Y-209496686D01*
X171887294Y-209168185D01*
X171887290Y-209168173D01*
X171776004Y-208850137D01*
X171629808Y-208546559D01*
X171450538Y-208261252D01*
X171291601Y-208061950D01*
X170294250Y-209059300D01*
X170220412Y-208957670D01*
X170042330Y-208779588D01*
X169940697Y-208705747D01*
X170938048Y-207708397D01*
X170738747Y-207549461D01*
X170453440Y-207370191D01*
X170149862Y-207223995D01*
X169831826Y-207112709D01*
X169831814Y-207112705D01*
X169503313Y-207037727D01*
X169503297Y-207037725D01*
X169168480Y-207000000D01*
X168831519Y-207000000D01*
X168496702Y-207037725D01*
X168496686Y-207037727D01*
X168168185Y-207112705D01*
X168168173Y-207112709D01*
X167850137Y-207223995D01*
X167546559Y-207370191D01*
X167261252Y-207549461D01*
X167061950Y-207708397D01*
X168059301Y-208705748D01*
X167957670Y-208779588D01*
X167779588Y-208957670D01*
X167705748Y-209059301D01*
X166708397Y-208061950D01*
X166549461Y-208261252D01*
X166370191Y-208546559D01*
X166223995Y-208850137D01*
X166112709Y-209168173D01*
X166112705Y-209168185D01*
X166037727Y-209496686D01*
X166037725Y-209496702D01*
X166000000Y-209831519D01*
X28999999Y-209831519D01*
X28962274Y-209496702D01*
X28962272Y-209496686D01*
X28887294Y-209168185D01*
X28887290Y-209168173D01*
X28776004Y-208850137D01*
X28629808Y-208546559D01*
X28450538Y-208261252D01*
X28291601Y-208061950D01*
X27294250Y-209059300D01*
X27220412Y-208957670D01*
X27042330Y-208779588D01*
X26940697Y-208705747D01*
X27938048Y-207708397D01*
X27738747Y-207549461D01*
X27453440Y-207370191D01*
X27149862Y-207223995D01*
X26831826Y-207112709D01*
X26831814Y-207112705D01*
X26503313Y-207037727D01*
X26503297Y-207037725D01*
X26168480Y-207000000D01*
X25831519Y-207000000D01*
X25496702Y-207037725D01*
X25496686Y-207037727D01*
X25168185Y-207112705D01*
X25168173Y-207112709D01*
X24850137Y-207223995D01*
X24546559Y-207370191D01*
X24261252Y-207549461D01*
X24061950Y-207708397D01*
X25059301Y-208705748D01*
X24957670Y-208779588D01*
X24779588Y-208957670D01*
X24705748Y-209059301D01*
X23708397Y-208061950D01*
X23549461Y-208261252D01*
X23370191Y-208546559D01*
X23223995Y-208850137D01*
X23112709Y-209168173D01*
X23112705Y-209168185D01*
X23037727Y-209496686D01*
X23037725Y-209496702D01*
X23000000Y-209831519D01*
X22000000Y-209831519D01*
X22000000Y-206124000D01*
X22019685Y-206056961D01*
X22072489Y-206011206D01*
X22124000Y-206000000D01*
X172876000Y-206000000D01*
X172943039Y-206019685D01*
G37*
%TD.AperFunction*%
%TD*%
M02*
