%TF.GenerationSoftware,KiCad,Pcbnew,9.0.2*%
%TF.CreationDate,2025-08-22T18:26:34+01:00*%
%TF.ProjectId,MC8P_MIDI_CONTROLLER,4d433850-5f4d-4494-9449-5f434f4e5452,rev?*%
%TF.SameCoordinates,Original*%
%TF.FileFunction,Legend,Top*%
%TF.FilePolarity,Positive*%
%FSLAX46Y46*%
G04 Gerber Fmt 4.6, Leading zero omitted, Abs format (unit mm)*
G04 Created by KiCad (PCBNEW 9.0.2) date 2025-08-22 18:26:34*
%MOMM*%
%LPD*%
G01*
G04 APERTURE LIST*
%ADD10C,0.100000*%
%ADD11C,0.300000*%
%ADD12C,0.200000*%
G04 APERTURE END LIST*
D10*
X157775373Y-121925100D02*
X157804897Y-137425100D01*
X125000000Y-135749999D02*
X107500000Y-135750000D01*
X157804897Y-137425104D02*
G75*
G02*
X156730001Y-138499997I-1074897J4D01*
G01*
X125000000Y-135749999D02*
G75*
G02*
X125000000Y-138250001I0J-1250001D01*
G01*
X142539299Y-138526813D02*
X156730000Y-138500000D01*
D11*
X55000000Y-129500000D02*
G75*
G02*
X59000000Y-133500000I0J-4000000D01*
G01*
X21980000Y-114000000D02*
X172980000Y-114000000D01*
X172980000Y-202000000D01*
X21980000Y-202000000D01*
X21980000Y-114000000D01*
D12*
X44000000Y-142000000D02*
X32000000Y-142000000D01*
D11*
X59000000Y-139000000D02*
X59000000Y-140500000D01*
D10*
X139491213Y-141574899D02*
G75*
G02*
X142539299Y-138526813I3048087J-1D01*
G01*
D11*
X56000000Y-139000000D02*
X56000000Y-144500000D01*
X57500000Y-139000000D02*
X57500000Y-142000000D01*
D12*
G36*
X44706388Y-167740502D02*
G01*
X44474068Y-167740502D01*
X44660668Y-167401676D01*
X44706388Y-167740502D01*
G37*
G36*
X46061625Y-168191111D02*
G01*
X42995806Y-168191111D01*
X42995806Y-168080000D01*
X43106917Y-168080000D01*
X43273307Y-168080000D01*
X43417202Y-167387869D01*
X43475357Y-167969357D01*
X43637046Y-167969357D01*
X43939887Y-167374334D01*
X43793178Y-168080000D01*
X43959508Y-168080000D01*
X44089994Y-168080000D01*
X44287098Y-168080000D01*
X44374766Y-167920814D01*
X44730718Y-167920814D01*
X44752198Y-168080000D01*
X44949302Y-168080000D01*
X44982274Y-168080000D01*
X45175348Y-168080000D01*
X45439968Y-167741026D01*
X45565587Y-168080000D01*
X45758722Y-168080000D01*
X45570346Y-167573975D01*
X45950514Y-167086725D01*
X45757440Y-167086725D01*
X45508316Y-167406057D01*
X45389855Y-167086725D01*
X45196781Y-167086725D01*
X45377586Y-167573569D01*
X44982274Y-168080000D01*
X44949302Y-168080000D01*
X44784316Y-167086725D01*
X44667995Y-167086725D01*
X44287553Y-167740502D01*
X44089994Y-168080000D01*
X43959508Y-168080000D01*
X44166015Y-167086725D01*
X43924825Y-167086725D01*
X43600532Y-167756195D01*
X43554675Y-167086725D01*
X43313424Y-167086725D01*
X43106917Y-168080000D01*
X42995806Y-168080000D01*
X42995806Y-166975614D01*
X46061625Y-166975614D01*
X46061625Y-168191111D01*
G37*
G36*
X75469696Y-167086725D02*
G01*
X75710886Y-167086725D01*
X75504379Y-168080000D01*
X75338049Y-168080000D01*
X75498395Y-167308742D01*
X75495891Y-167352461D01*
X75181917Y-167969357D01*
X75020228Y-167969357D01*
X74959900Y-167366139D01*
X74978524Y-167308742D01*
X74818178Y-168080000D01*
X74651788Y-168080000D01*
X74858295Y-167086725D01*
X75099546Y-167086725D01*
X75145403Y-167756195D01*
X75469696Y-167086725D01*
G37*
G36*
X75918492Y-168080000D02*
G01*
X75728716Y-168080000D01*
X75935223Y-167086725D01*
X76125000Y-167086725D01*
X75918492Y-168080000D01*
G37*
G36*
X76333522Y-167086725D02*
G01*
X76557371Y-167086725D01*
X76760642Y-167847725D01*
X76740858Y-167865493D01*
X76902791Y-167086725D01*
X77077852Y-167086725D01*
X76871467Y-168079328D01*
X76646336Y-168079328D01*
X76442027Y-167329930D01*
X76461688Y-167312161D01*
X76302198Y-168079328D01*
X76127137Y-168079328D01*
X76333522Y-167086725D01*
G37*
G36*
X113706388Y-191990502D02*
G01*
X113474068Y-191990502D01*
X113660668Y-191651676D01*
X113706388Y-191990502D01*
G37*
G36*
X115061625Y-192441111D02*
G01*
X111995806Y-192441111D01*
X111995806Y-192330000D01*
X112106917Y-192330000D01*
X112273307Y-192330000D01*
X112417202Y-191637869D01*
X112475357Y-192219357D01*
X112637046Y-192219357D01*
X112939887Y-191624334D01*
X112793178Y-192330000D01*
X112959508Y-192330000D01*
X113089994Y-192330000D01*
X113287098Y-192330000D01*
X113374766Y-192170814D01*
X113730718Y-192170814D01*
X113752198Y-192330000D01*
X113949302Y-192330000D01*
X113982274Y-192330000D01*
X114175348Y-192330000D01*
X114439968Y-191991026D01*
X114565587Y-192330000D01*
X114758722Y-192330000D01*
X114570346Y-191823975D01*
X114950514Y-191336725D01*
X114757440Y-191336725D01*
X114508316Y-191656057D01*
X114389855Y-191336725D01*
X114196781Y-191336725D01*
X114377586Y-191823569D01*
X113982274Y-192330000D01*
X113949302Y-192330000D01*
X113784316Y-191336725D01*
X113667995Y-191336725D01*
X113287553Y-191990502D01*
X113089994Y-192330000D01*
X112959508Y-192330000D01*
X113166015Y-191336725D01*
X112924825Y-191336725D01*
X112600532Y-192006195D01*
X112554675Y-191336725D01*
X112313424Y-191336725D01*
X112106917Y-192330000D01*
X111995806Y-192330000D01*
X111995806Y-191225614D01*
X115061625Y-191225614D01*
X115061625Y-192441111D01*
G37*
G36*
X29469696Y-167086725D02*
G01*
X29710886Y-167086725D01*
X29504379Y-168080000D01*
X29338049Y-168080000D01*
X29498395Y-167308742D01*
X29495891Y-167352461D01*
X29181917Y-167969357D01*
X29020228Y-167969357D01*
X28959900Y-167366139D01*
X28978524Y-167308742D01*
X28818178Y-168080000D01*
X28651788Y-168080000D01*
X28858295Y-167086725D01*
X29099546Y-167086725D01*
X29145403Y-167756195D01*
X29469696Y-167086725D01*
G37*
G36*
X29918492Y-168080000D02*
G01*
X29728716Y-168080000D01*
X29935223Y-167086725D01*
X30125000Y-167086725D01*
X29918492Y-168080000D01*
G37*
G36*
X30333522Y-167086725D02*
G01*
X30557371Y-167086725D01*
X30760642Y-167847725D01*
X30740858Y-167865493D01*
X30902791Y-167086725D01*
X31077852Y-167086725D01*
X30871467Y-168079328D01*
X30646336Y-168079328D01*
X30442027Y-167329930D01*
X30461688Y-167312161D01*
X30302198Y-168079328D01*
X30127137Y-168079328D01*
X30333522Y-167086725D01*
G37*
G36*
X39474435Y-118019384D02*
G01*
X39510338Y-118035233D01*
X39537944Y-118061062D01*
X39555401Y-118096355D01*
X39561785Y-118137573D01*
X39556744Y-118187885D01*
X39496233Y-118478900D01*
X39480819Y-118528186D01*
X39456849Y-118570430D01*
X39424775Y-118605659D01*
X39386324Y-118631552D01*
X39342819Y-118647607D01*
X39294977Y-118653046D01*
X39248453Y-118647353D01*
X39212606Y-118631552D01*
X39185037Y-118605730D01*
X39167544Y-118570430D01*
X39161189Y-118529168D01*
X39166200Y-118478900D01*
X39226711Y-118187885D01*
X39242164Y-118138552D01*
X39266096Y-118096355D01*
X39298198Y-118061115D01*
X39336560Y-118035233D01*
X39380068Y-118019132D01*
X39427906Y-118013679D01*
X39474435Y-118019384D01*
G37*
G36*
X37811623Y-118022851D02*
G01*
X37853701Y-118038158D01*
X37883559Y-118061489D01*
X37903281Y-118093295D01*
X37911656Y-118134005D01*
X37906884Y-118187213D01*
X37846068Y-118479572D01*
X37829628Y-118530817D01*
X37804483Y-118572136D01*
X37770474Y-118605235D01*
X37729301Y-118629283D01*
X37680314Y-118644304D01*
X37621608Y-118649626D01*
X37479286Y-118649626D01*
X37610792Y-118017098D01*
X37753133Y-118017098D01*
X37811623Y-118022851D01*
G37*
G36*
X41613433Y-118951369D02*
G01*
X35672387Y-118951369D01*
X35672387Y-118830000D01*
X35783498Y-118830000D01*
X35949888Y-118830000D01*
X36093783Y-118137869D01*
X36151938Y-118719357D01*
X36313627Y-118719357D01*
X36616468Y-118124334D01*
X36469759Y-118830000D01*
X36636089Y-118830000D01*
X36860426Y-118830000D01*
X37050202Y-118830000D01*
X37258725Y-118830000D01*
X37350926Y-118830000D01*
X37579415Y-118830000D01*
X38150028Y-118830000D01*
X38339805Y-118830000D01*
X38398643Y-118546995D01*
X38967587Y-118546995D01*
X38969401Y-118610536D01*
X38981492Y-118666418D01*
X39004592Y-118718035D01*
X39037009Y-118760419D01*
X39079433Y-118794829D01*
X39128731Y-118819356D01*
X39186963Y-118834787D01*
X39256082Y-118840258D01*
X39325408Y-118835112D01*
X39390317Y-118819951D01*
X39451659Y-118794829D01*
X39508341Y-118760445D01*
X39558605Y-118717841D01*
X39602967Y-118666418D01*
X39639226Y-118608814D01*
X39665576Y-118548841D01*
X39850049Y-118548841D01*
X39850603Y-118614729D01*
X39861010Y-118670509D01*
X39882600Y-118722008D01*
X39913908Y-118763655D01*
X39955654Y-118796905D01*
X40004539Y-118820025D01*
X40064633Y-118834892D01*
X40138470Y-118840258D01*
X40212279Y-118835218D01*
X40278940Y-118820621D01*
X40339543Y-118796905D01*
X40395360Y-118763657D01*
X40444466Y-118721755D01*
X40487432Y-118670509D01*
X40522149Y-118612938D01*
X40550024Y-118546730D01*
X40570719Y-118470657D01*
X40665039Y-118017098D01*
X40752619Y-118017098D01*
X41017182Y-118017098D01*
X40848179Y-118830000D01*
X41031239Y-118830000D01*
X41200242Y-118017098D01*
X41464831Y-118017098D01*
X41502322Y-117836725D01*
X40790110Y-117836725D01*
X40752619Y-118017098D01*
X40665039Y-118017098D01*
X40702549Y-117836725D01*
X40519489Y-117836725D01*
X40386682Y-118475481D01*
X40369989Y-118529865D01*
X40345704Y-118573409D01*
X40314019Y-118607983D01*
X40275114Y-118633814D01*
X40229978Y-118649605D01*
X40176938Y-118655122D01*
X40124816Y-118649153D01*
X40087240Y-118633098D01*
X40060434Y-118607983D01*
X40043766Y-118574835D01*
X40037310Y-118531873D01*
X40043276Y-118475481D01*
X40176083Y-117836725D01*
X39992962Y-117836725D01*
X39861132Y-118470657D01*
X39850049Y-118548841D01*
X39665576Y-118548841D01*
X39667268Y-118544990D01*
X39687048Y-118474077D01*
X39745544Y-118192648D01*
X39755351Y-118119731D01*
X39753515Y-118056212D01*
X39741392Y-118000368D01*
X39718321Y-117948715D01*
X39685924Y-117906335D01*
X39643512Y-117871957D01*
X39594252Y-117847434D01*
X39536023Y-117832001D01*
X39466863Y-117826528D01*
X39397576Y-117831672D01*
X39332666Y-117846831D01*
X39271286Y-117871957D01*
X39214610Y-117906309D01*
X39164346Y-117948911D01*
X39119977Y-118000368D01*
X39083721Y-118057933D01*
X39055679Y-118121736D01*
X39035897Y-118192648D01*
X38977400Y-118474077D01*
X38969986Y-118529168D01*
X38967587Y-118546995D01*
X38398643Y-118546995D01*
X38546312Y-117836725D01*
X38356535Y-117836725D01*
X38150028Y-118830000D01*
X37579415Y-118830000D01*
X37661792Y-118824762D01*
X37734796Y-118809735D01*
X37799784Y-118785608D01*
X37860050Y-118751654D01*
X37911471Y-118710328D01*
X37954939Y-118661289D01*
X37990198Y-118605766D01*
X38017585Y-118543672D01*
X38037004Y-118474077D01*
X38095501Y-118192648D01*
X38105613Y-118117384D01*
X38103454Y-118053922D01*
X38090799Y-118000001D01*
X38066605Y-117951010D01*
X38031892Y-117910844D01*
X37985408Y-117878429D01*
X37932314Y-117856275D01*
X37866921Y-117841921D01*
X37786594Y-117836725D01*
X37648292Y-117836725D01*
X37465232Y-117836725D01*
X37296226Y-118649626D01*
X37258725Y-118830000D01*
X37050202Y-118830000D01*
X37256710Y-117836725D01*
X37066933Y-117836725D01*
X36860426Y-118830000D01*
X36636089Y-118830000D01*
X36842596Y-117836725D01*
X36601406Y-117836725D01*
X36277113Y-118506195D01*
X36231256Y-117836725D01*
X35990005Y-117836725D01*
X35783498Y-118830000D01*
X35672387Y-118830000D01*
X35672387Y-117715417D01*
X41613433Y-117715417D01*
X41613433Y-118951369D01*
G37*
G36*
X44706388Y-191990502D02*
G01*
X44474068Y-191990502D01*
X44660668Y-191651676D01*
X44706388Y-191990502D01*
G37*
G36*
X46061625Y-192441111D02*
G01*
X42995806Y-192441111D01*
X42995806Y-192330000D01*
X43106917Y-192330000D01*
X43273307Y-192330000D01*
X43417202Y-191637869D01*
X43475357Y-192219357D01*
X43637046Y-192219357D01*
X43939887Y-191624334D01*
X43793178Y-192330000D01*
X43959508Y-192330000D01*
X44089994Y-192330000D01*
X44287098Y-192330000D01*
X44374766Y-192170814D01*
X44730718Y-192170814D01*
X44752198Y-192330000D01*
X44949302Y-192330000D01*
X44982274Y-192330000D01*
X45175348Y-192330000D01*
X45439968Y-191991026D01*
X45565587Y-192330000D01*
X45758722Y-192330000D01*
X45570346Y-191823975D01*
X45950514Y-191336725D01*
X45757440Y-191336725D01*
X45508316Y-191656057D01*
X45389855Y-191336725D01*
X45196781Y-191336725D01*
X45377586Y-191823569D01*
X44982274Y-192330000D01*
X44949302Y-192330000D01*
X44784316Y-191336725D01*
X44667995Y-191336725D01*
X44287553Y-191990502D01*
X44089994Y-192330000D01*
X43959508Y-192330000D01*
X44166015Y-191336725D01*
X43924825Y-191336725D01*
X43600532Y-192006195D01*
X43554675Y-191336725D01*
X43313424Y-191336725D01*
X43106917Y-192330000D01*
X42995806Y-192330000D01*
X42995806Y-191225614D01*
X46061625Y-191225614D01*
X46061625Y-192441111D01*
G37*
G36*
X90706388Y-167740502D02*
G01*
X90474068Y-167740502D01*
X90660668Y-167401676D01*
X90706388Y-167740502D01*
G37*
G36*
X92061625Y-168191111D02*
G01*
X88995806Y-168191111D01*
X88995806Y-168080000D01*
X89106917Y-168080000D01*
X89273307Y-168080000D01*
X89417202Y-167387869D01*
X89475357Y-167969357D01*
X89637046Y-167969357D01*
X89939887Y-167374334D01*
X89793178Y-168080000D01*
X89959508Y-168080000D01*
X90089994Y-168080000D01*
X90287098Y-168080000D01*
X90374766Y-167920814D01*
X90730718Y-167920814D01*
X90752198Y-168080000D01*
X90949302Y-168080000D01*
X90982274Y-168080000D01*
X91175348Y-168080000D01*
X91439968Y-167741026D01*
X91565587Y-168080000D01*
X91758722Y-168080000D01*
X91570346Y-167573975D01*
X91950514Y-167086725D01*
X91757440Y-167086725D01*
X91508316Y-167406057D01*
X91389855Y-167086725D01*
X91196781Y-167086725D01*
X91377586Y-167573569D01*
X90982274Y-168080000D01*
X90949302Y-168080000D01*
X90784316Y-167086725D01*
X90667995Y-167086725D01*
X90287553Y-167740502D01*
X90089994Y-168080000D01*
X89959508Y-168080000D01*
X90166015Y-167086725D01*
X89924825Y-167086725D01*
X89600532Y-167756195D01*
X89554675Y-167086725D01*
X89313424Y-167086725D01*
X89106917Y-168080000D01*
X88995806Y-168080000D01*
X88995806Y-166975614D01*
X92061625Y-166975614D01*
X92061625Y-168191111D01*
G37*
G36*
X113706388Y-167740502D02*
G01*
X113474068Y-167740502D01*
X113660668Y-167401676D01*
X113706388Y-167740502D01*
G37*
G36*
X115061625Y-168191111D02*
G01*
X111995806Y-168191111D01*
X111995806Y-168080000D01*
X112106917Y-168080000D01*
X112273307Y-168080000D01*
X112417202Y-167387869D01*
X112475357Y-167969357D01*
X112637046Y-167969357D01*
X112939887Y-167374334D01*
X112793178Y-168080000D01*
X112959508Y-168080000D01*
X113089994Y-168080000D01*
X113287098Y-168080000D01*
X113374766Y-167920814D01*
X113730718Y-167920814D01*
X113752198Y-168080000D01*
X113949302Y-168080000D01*
X113982274Y-168080000D01*
X114175348Y-168080000D01*
X114439968Y-167741026D01*
X114565587Y-168080000D01*
X114758722Y-168080000D01*
X114570346Y-167573975D01*
X114950514Y-167086725D01*
X114757440Y-167086725D01*
X114508316Y-167406057D01*
X114389855Y-167086725D01*
X114196781Y-167086725D01*
X114377586Y-167573569D01*
X113982274Y-168080000D01*
X113949302Y-168080000D01*
X113784316Y-167086725D01*
X113667995Y-167086725D01*
X113287553Y-167740502D01*
X113089994Y-168080000D01*
X112959508Y-168080000D01*
X113166015Y-167086725D01*
X112924825Y-167086725D01*
X112600532Y-167756195D01*
X112554675Y-167086725D01*
X112313424Y-167086725D01*
X112106917Y-168080000D01*
X111995806Y-168080000D01*
X111995806Y-166975614D01*
X115061625Y-166975614D01*
X115061625Y-168191111D01*
G37*
G36*
X98469696Y-191336725D02*
G01*
X98710886Y-191336725D01*
X98504379Y-192330000D01*
X98338049Y-192330000D01*
X98498395Y-191558742D01*
X98495891Y-191602461D01*
X98181917Y-192219357D01*
X98020228Y-192219357D01*
X97959900Y-191616139D01*
X97978524Y-191558742D01*
X97818178Y-192330000D01*
X97651788Y-192330000D01*
X97858295Y-191336725D01*
X98099546Y-191336725D01*
X98145403Y-192006195D01*
X98469696Y-191336725D01*
G37*
G36*
X98918492Y-192330000D02*
G01*
X98728716Y-192330000D01*
X98935223Y-191336725D01*
X99125000Y-191336725D01*
X98918492Y-192330000D01*
G37*
G36*
X99333522Y-191336725D02*
G01*
X99557371Y-191336725D01*
X99760642Y-192097725D01*
X99740858Y-192115493D01*
X99902791Y-191336725D01*
X100077852Y-191336725D01*
X99871467Y-192329328D01*
X99646336Y-192329328D01*
X99442027Y-191579930D01*
X99461688Y-191562161D01*
X99302198Y-192329328D01*
X99127137Y-192329328D01*
X99333522Y-191336725D01*
G37*
G36*
X98469696Y-167086725D02*
G01*
X98710886Y-167086725D01*
X98504379Y-168080000D01*
X98338049Y-168080000D01*
X98498395Y-167308742D01*
X98495891Y-167352461D01*
X98181917Y-167969357D01*
X98020228Y-167969357D01*
X97959900Y-167366139D01*
X97978524Y-167308742D01*
X97818178Y-168080000D01*
X97651788Y-168080000D01*
X97858295Y-167086725D01*
X98099546Y-167086725D01*
X98145403Y-167756195D01*
X98469696Y-167086725D01*
G37*
G36*
X98918492Y-168080000D02*
G01*
X98728716Y-168080000D01*
X98935223Y-167086725D01*
X99125000Y-167086725D01*
X98918492Y-168080000D01*
G37*
G36*
X99333522Y-167086725D02*
G01*
X99557371Y-167086725D01*
X99760642Y-167847725D01*
X99740858Y-167865493D01*
X99902791Y-167086725D01*
X100077852Y-167086725D01*
X99871467Y-168079328D01*
X99646336Y-168079328D01*
X99442027Y-167329930D01*
X99461688Y-167312161D01*
X99302198Y-168079328D01*
X99127137Y-168079328D01*
X99333522Y-167086725D01*
G37*
G36*
X67706388Y-167740502D02*
G01*
X67474068Y-167740502D01*
X67660668Y-167401676D01*
X67706388Y-167740502D01*
G37*
G36*
X69061625Y-168191111D02*
G01*
X65995806Y-168191111D01*
X65995806Y-168080000D01*
X66106917Y-168080000D01*
X66273307Y-168080000D01*
X66417202Y-167387869D01*
X66475357Y-167969357D01*
X66637046Y-167969357D01*
X66939887Y-167374334D01*
X66793178Y-168080000D01*
X66959508Y-168080000D01*
X67089994Y-168080000D01*
X67287098Y-168080000D01*
X67374766Y-167920814D01*
X67730718Y-167920814D01*
X67752198Y-168080000D01*
X67949302Y-168080000D01*
X67982274Y-168080000D01*
X68175348Y-168080000D01*
X68439968Y-167741026D01*
X68565587Y-168080000D01*
X68758722Y-168080000D01*
X68570346Y-167573975D01*
X68950514Y-167086725D01*
X68757440Y-167086725D01*
X68508316Y-167406057D01*
X68389855Y-167086725D01*
X68196781Y-167086725D01*
X68377586Y-167573569D01*
X67982274Y-168080000D01*
X67949302Y-168080000D01*
X67784316Y-167086725D01*
X67667995Y-167086725D01*
X67287553Y-167740502D01*
X67089994Y-168080000D01*
X66959508Y-168080000D01*
X67166015Y-167086725D01*
X66924825Y-167086725D01*
X66600532Y-167756195D01*
X66554675Y-167086725D01*
X66313424Y-167086725D01*
X66106917Y-168080000D01*
X65995806Y-168080000D01*
X65995806Y-166975614D01*
X69061625Y-166975614D01*
X69061625Y-168191111D01*
G37*
G36*
X67706388Y-191990502D02*
G01*
X67474068Y-191990502D01*
X67660668Y-191651676D01*
X67706388Y-191990502D01*
G37*
G36*
X69061625Y-192441111D02*
G01*
X65995806Y-192441111D01*
X65995806Y-192330000D01*
X66106917Y-192330000D01*
X66273307Y-192330000D01*
X66417202Y-191637869D01*
X66475357Y-192219357D01*
X66637046Y-192219357D01*
X66939887Y-191624334D01*
X66793178Y-192330000D01*
X66959508Y-192330000D01*
X67089994Y-192330000D01*
X67287098Y-192330000D01*
X67374766Y-192170814D01*
X67730718Y-192170814D01*
X67752198Y-192330000D01*
X67949302Y-192330000D01*
X67982274Y-192330000D01*
X68175348Y-192330000D01*
X68439968Y-191991026D01*
X68565587Y-192330000D01*
X68758722Y-192330000D01*
X68570346Y-191823975D01*
X68950514Y-191336725D01*
X68757440Y-191336725D01*
X68508316Y-191656057D01*
X68389855Y-191336725D01*
X68196781Y-191336725D01*
X68377586Y-191823569D01*
X67982274Y-192330000D01*
X67949302Y-192330000D01*
X67784316Y-191336725D01*
X67667995Y-191336725D01*
X67287553Y-191990502D01*
X67089994Y-192330000D01*
X66959508Y-192330000D01*
X67166015Y-191336725D01*
X66924825Y-191336725D01*
X66600532Y-192006195D01*
X66554675Y-191336725D01*
X66313424Y-191336725D01*
X66106917Y-192330000D01*
X65995806Y-192330000D01*
X65995806Y-191225614D01*
X69061625Y-191225614D01*
X69061625Y-192441111D01*
G37*
G36*
X52469696Y-167086725D02*
G01*
X52710886Y-167086725D01*
X52504379Y-168080000D01*
X52338049Y-168080000D01*
X52498395Y-167308742D01*
X52495891Y-167352461D01*
X52181917Y-167969357D01*
X52020228Y-167969357D01*
X51959900Y-167366139D01*
X51978524Y-167308742D01*
X51818178Y-168080000D01*
X51651788Y-168080000D01*
X51858295Y-167086725D01*
X52099546Y-167086725D01*
X52145403Y-167756195D01*
X52469696Y-167086725D01*
G37*
G36*
X52918492Y-168080000D02*
G01*
X52728716Y-168080000D01*
X52935223Y-167086725D01*
X53125000Y-167086725D01*
X52918492Y-168080000D01*
G37*
G36*
X53333522Y-167086725D02*
G01*
X53557371Y-167086725D01*
X53760642Y-167847725D01*
X53740858Y-167865493D01*
X53902791Y-167086725D01*
X54077852Y-167086725D01*
X53871467Y-168079328D01*
X53646336Y-168079328D01*
X53442027Y-167329930D01*
X53461688Y-167312161D01*
X53302198Y-168079328D01*
X53127137Y-168079328D01*
X53333522Y-167086725D01*
G37*
G36*
X29469696Y-191336725D02*
G01*
X29710886Y-191336725D01*
X29504379Y-192330000D01*
X29338049Y-192330000D01*
X29498395Y-191558742D01*
X29495891Y-191602461D01*
X29181917Y-192219357D01*
X29020228Y-192219357D01*
X28959900Y-191616139D01*
X28978524Y-191558742D01*
X28818178Y-192330000D01*
X28651788Y-192330000D01*
X28858295Y-191336725D01*
X29099546Y-191336725D01*
X29145403Y-192006195D01*
X29469696Y-191336725D01*
G37*
G36*
X29918492Y-192330000D02*
G01*
X29728716Y-192330000D01*
X29935223Y-191336725D01*
X30125000Y-191336725D01*
X29918492Y-192330000D01*
G37*
G36*
X30333522Y-191336725D02*
G01*
X30557371Y-191336725D01*
X30760642Y-192097725D01*
X30740858Y-192115493D01*
X30902791Y-191336725D01*
X31077852Y-191336725D01*
X30871467Y-192329328D01*
X30646336Y-192329328D01*
X30442027Y-191579930D01*
X30461688Y-191562161D01*
X30302198Y-192329328D01*
X30127137Y-192329328D01*
X30333522Y-191336725D01*
G37*
G36*
X90706388Y-191990502D02*
G01*
X90474068Y-191990502D01*
X90660668Y-191651676D01*
X90706388Y-191990502D01*
G37*
G36*
X92061625Y-192441111D02*
G01*
X88995806Y-192441111D01*
X88995806Y-192330000D01*
X89106917Y-192330000D01*
X89273307Y-192330000D01*
X89417202Y-191637869D01*
X89475357Y-192219357D01*
X89637046Y-192219357D01*
X89939887Y-191624334D01*
X89793178Y-192330000D01*
X89959508Y-192330000D01*
X90089994Y-192330000D01*
X90287098Y-192330000D01*
X90374766Y-192170814D01*
X90730718Y-192170814D01*
X90752198Y-192330000D01*
X90949302Y-192330000D01*
X90982274Y-192330000D01*
X91175348Y-192330000D01*
X91439968Y-191991026D01*
X91565587Y-192330000D01*
X91758722Y-192330000D01*
X91570346Y-191823975D01*
X91950514Y-191336725D01*
X91757440Y-191336725D01*
X91508316Y-191656057D01*
X91389855Y-191336725D01*
X91196781Y-191336725D01*
X91377586Y-191823569D01*
X90982274Y-192330000D01*
X90949302Y-192330000D01*
X90784316Y-191336725D01*
X90667995Y-191336725D01*
X90287553Y-191990502D01*
X90089994Y-192330000D01*
X89959508Y-192330000D01*
X90166015Y-191336725D01*
X89924825Y-191336725D01*
X89600532Y-192006195D01*
X89554675Y-191336725D01*
X89313424Y-191336725D01*
X89106917Y-192330000D01*
X88995806Y-192330000D01*
X88995806Y-191225614D01*
X92061625Y-191225614D01*
X92061625Y-192441111D01*
G37*
G36*
X36707319Y-119668058D02*
G01*
X36890379Y-119668058D01*
X36700785Y-120580000D01*
X36517725Y-120580000D01*
X36707319Y-119668058D01*
G37*
G36*
X36459656Y-119586725D02*
G01*
X37171868Y-119586725D01*
X37134377Y-119767098D01*
X36422165Y-119767098D01*
X36459656Y-119586725D01*
G37*
G36*
X37550384Y-120196782D02*
G01*
X37470700Y-120580000D01*
X37287640Y-120580000D01*
X37367324Y-120196782D01*
X37208139Y-119586725D01*
X37399869Y-119586725D01*
X37496772Y-120014394D01*
X37771424Y-119586725D01*
X37963215Y-119586725D01*
X37550384Y-120196782D01*
G37*
G36*
X38053280Y-120014394D02*
G01*
X38364079Y-120014394D01*
X38395746Y-120010530D01*
X38425017Y-119999007D01*
X38450995Y-119980643D01*
X38473133Y-119955654D01*
X38489770Y-119925872D01*
X38500488Y-119891418D01*
X38504299Y-119855644D01*
X38500366Y-119826205D01*
X38488854Y-119800807D01*
X38470691Y-119782486D01*
X38446737Y-119771165D01*
X38415492Y-119767098D01*
X38104693Y-119767098D01*
X38142184Y-119586725D01*
X38448220Y-119586725D01*
X38507820Y-119591303D01*
X38557986Y-119604199D01*
X38600384Y-119624644D01*
X38637149Y-119653450D01*
X38665253Y-119688768D01*
X38685380Y-119731561D01*
X38696225Y-119778058D01*
X38698208Y-119830853D01*
X38690204Y-119891418D01*
X38673636Y-119950280D01*
X38649902Y-120003215D01*
X38619007Y-120050969D01*
X38581253Y-120093393D01*
X38538305Y-120128642D01*
X38489681Y-120157154D01*
X38437268Y-120177884D01*
X38381555Y-120190436D01*
X38321825Y-120194706D01*
X38015789Y-120194706D01*
X38053280Y-120014394D01*
G37*
G36*
X38058714Y-119586725D02*
G01*
X38241774Y-119586725D01*
X38035267Y-120580000D01*
X37852207Y-120580000D01*
X38058714Y-119586725D01*
G37*
G36*
X38916495Y-119586725D02*
G01*
X39099555Y-119586725D01*
X38893048Y-120580000D01*
X38709988Y-120580000D01*
X38916495Y-119586725D01*
G37*
G36*
X38813669Y-120399626D02*
G01*
X39398325Y-120399626D01*
X39360834Y-120580000D01*
X38776178Y-120580000D01*
X38813669Y-120399626D01*
G37*
G36*
X38897444Y-119996625D02*
G01*
X39408583Y-119996625D01*
X39371092Y-120176938D01*
X38859953Y-120176938D01*
X38897444Y-119996625D01*
G37*
G36*
X38982685Y-119586725D02*
G01*
X39567341Y-119586725D01*
X39529850Y-119767098D01*
X38945194Y-119767098D01*
X38982685Y-119586725D01*
G37*
G36*
X40405888Y-119586725D02*
G01*
X40522209Y-119586725D01*
X40687195Y-120580000D01*
X40490091Y-120580000D01*
X40398561Y-119901676D01*
X40024991Y-120580000D01*
X39827887Y-120580000D01*
X40405888Y-119586725D01*
G37*
G36*
X40076893Y-120240502D02*
G01*
X40588032Y-120240502D01*
X40550541Y-120420814D01*
X40039402Y-120420814D01*
X40076893Y-120240502D01*
G37*
M02*
