%TF.GenerationSoftware,KiCad,Pcbnew,9.0.1*%
%TF.CreationDate,2025-10-30T12:58:23+00:00*%
%TF.ProjectId,MC8P_MIDI_CONTROLLER,4d433850-5f4d-4494-9449-5f434f4e5452,rev?*%
%TF.SameCoordinates,Original*%
%TF.FileFunction,Legend,Bot*%
%TF.FilePolarity,Positive*%
%FSLAX46Y46*%
G04 Gerber Fmt 4.6, Leading zero omitted, Abs format (unit mm)*
G04 Created by KiCad (PCBNEW 9.0.1) date 2025-10-30 12:58:23*
%MOMM*%
%LPD*%
G01*
G04 APERTURE LIST*
%ADD10C,0.200000*%
%ADD11C,0.300000*%
G04 APERTURE END LIST*
D10*
G36*
X164873021Y-118330000D02*
G01*
X164666392Y-117336053D01*
X164483148Y-117336053D01*
X164689778Y-118330000D01*
X164873021Y-118330000D01*
G37*
G36*
X164724155Y-117935547D02*
G01*
X164686664Y-117755113D01*
X164188531Y-117755113D01*
X164226022Y-117935547D01*
X164724155Y-117935547D01*
G37*
G36*
X164637021Y-117516549D02*
G01*
X164599530Y-117336053D01*
X164027819Y-117336053D01*
X164065310Y-117516549D01*
X164637021Y-117516549D01*
G37*
G36*
X164103839Y-118330000D02*
G01*
X163956317Y-117620413D01*
X163759701Y-117620413D01*
X163907224Y-118330000D01*
X164103839Y-118330000D01*
G37*
G36*
X163606927Y-117818005D02*
G01*
X163618758Y-117806337D01*
X163635076Y-117797611D01*
X163654204Y-117792522D01*
X163678796Y-117790650D01*
X163714204Y-117794823D01*
X163744977Y-117806946D01*
X163772219Y-117827226D01*
X163794181Y-117853682D01*
X163811472Y-117887037D01*
X163823815Y-117928709D01*
X163799452Y-117744183D01*
X163753858Y-117687108D01*
X163704563Y-117645753D01*
X163667919Y-117625530D01*
X163632095Y-117613938D01*
X163596425Y-117610155D01*
X163554913Y-117613854D01*
X163520954Y-117624199D01*
X163491595Y-117641587D01*
X163468197Y-117665537D01*
X163606927Y-117818005D01*
G37*
G36*
X163162081Y-117615501D02*
G01*
X163224396Y-117630868D01*
X163279772Y-117655714D01*
X163329284Y-117690144D01*
X163371663Y-117732926D01*
X163406663Y-117783956D01*
X163434425Y-117844386D01*
X163454581Y-117915764D01*
X163478578Y-118031290D01*
X163488378Y-118106475D01*
X163485215Y-118167688D01*
X163471289Y-118217839D01*
X163447559Y-118259291D01*
X163413913Y-118293053D01*
X163370353Y-118318115D01*
X163314545Y-118334333D01*
X163243250Y-118340258D01*
X163172605Y-118334893D01*
X163110278Y-118319472D01*
X163054887Y-118294532D01*
X163005357Y-118259963D01*
X162962964Y-118217007D01*
X162927923Y-118165753D01*
X162900102Y-118105038D01*
X162879877Y-118033306D01*
X162855453Y-117915764D01*
X162850347Y-117876449D01*
X163034426Y-117876449D01*
X163038635Y-117915764D01*
X163063060Y-118033306D01*
X163074694Y-118071623D01*
X163091463Y-118102260D01*
X163113190Y-118126545D01*
X163139931Y-118144831D01*
X163170546Y-118155914D01*
X163206125Y-118159762D01*
X163241044Y-118155598D01*
X163266372Y-118144334D01*
X163284588Y-118126545D01*
X163295804Y-118103264D01*
X163300054Y-118073023D01*
X163295762Y-118033306D01*
X163271338Y-117915764D01*
X163259776Y-117877799D01*
X163243150Y-117847486D01*
X163221634Y-117823501D01*
X163195117Y-117805422D01*
X163164743Y-117794458D01*
X163129433Y-117790650D01*
X163094178Y-117794782D01*
X163068613Y-117805939D01*
X163050237Y-117823501D01*
X163038812Y-117846536D01*
X163034426Y-117876449D01*
X162850347Y-117876449D01*
X162845781Y-117841297D01*
X162849052Y-117780720D01*
X162863069Y-117731122D01*
X162886899Y-117690144D01*
X162920561Y-117656838D01*
X162964162Y-117632068D01*
X163020047Y-117616021D01*
X163091453Y-117610155D01*
X163162081Y-117615501D01*
G37*
G36*
X162758550Y-118330000D02*
G01*
X162611027Y-117620413D01*
X162427784Y-117620413D01*
X162575307Y-118330000D01*
X162758550Y-118330000D01*
G37*
G36*
X162357320Y-118330000D02*
G01*
X162267927Y-117900010D01*
X162264478Y-117865362D01*
X162269020Y-117839158D01*
X162280200Y-117819043D01*
X162297715Y-117804038D01*
X162322439Y-117794298D01*
X162356892Y-117790650D01*
X162389761Y-117794059D01*
X162417640Y-117803802D01*
X162441584Y-117819715D01*
X162461033Y-117841023D01*
X162475953Y-117867870D01*
X162486219Y-117901414D01*
X162467534Y-117744183D01*
X162420922Y-117685744D01*
X162373745Y-117645020D01*
X162338716Y-117625903D01*
X162299314Y-117614209D01*
X162254494Y-117610155D01*
X162200683Y-117615500D01*
X162158618Y-117630235D01*
X162125680Y-117653451D01*
X162100254Y-117685687D01*
X162083784Y-117723482D01*
X162074722Y-117770128D01*
X162074320Y-117827869D01*
X162084623Y-117899338D01*
X162174138Y-118330000D01*
X162357320Y-118330000D01*
G37*
G36*
X161783777Y-118333419D02*
G01*
X161843310Y-118326937D01*
X161882728Y-118310159D01*
X161907913Y-118284876D01*
X161922518Y-118251046D01*
X161927613Y-118205902D01*
X161920553Y-118145413D01*
X161768450Y-117413967D01*
X161585268Y-117413967D01*
X161727662Y-118098946D01*
X161729776Y-118122746D01*
X161725891Y-118138574D01*
X161716082Y-118149138D01*
X161699391Y-118152923D01*
X161653961Y-118152923D01*
X161691514Y-118333419D01*
X161783777Y-118333419D01*
G37*
G36*
X161916217Y-117780392D02*
G01*
X161882939Y-117620413D01*
X161543258Y-117620413D01*
X161576536Y-117780392D01*
X161916217Y-117780392D01*
G37*
G36*
X160968433Y-117944462D02*
G01*
X160930942Y-117763967D01*
X160620081Y-117763967D01*
X160588352Y-117760190D01*
X160559524Y-117749018D01*
X160532765Y-117730017D01*
X160510718Y-117705396D01*
X160494294Y-117676000D01*
X160483428Y-117640929D01*
X160479494Y-117603480D01*
X160483779Y-117573983D01*
X160495029Y-117550376D01*
X160512989Y-117531994D01*
X160536859Y-117520655D01*
X160568607Y-117516549D01*
X160879467Y-117516549D01*
X160841976Y-117336053D01*
X160535757Y-117336053D01*
X160475331Y-117340670D01*
X160424989Y-117353614D01*
X160382922Y-117374033D01*
X160346442Y-117402771D01*
X160318453Y-117437896D01*
X160298292Y-117480340D01*
X160287434Y-117526410D01*
X160285448Y-117579400D01*
X160293590Y-117640929D01*
X160310309Y-117700263D01*
X160334155Y-117753325D01*
X160365092Y-117800908D01*
X160402842Y-117843179D01*
X160445674Y-117878348D01*
X160494052Y-117906849D01*
X160546201Y-117927579D01*
X160602003Y-117940168D01*
X160662213Y-117944462D01*
X160968433Y-117944462D01*
G37*
G36*
X161132198Y-118330000D02*
G01*
X160925568Y-117336053D01*
X160742325Y-117336053D01*
X160948954Y-118330000D01*
X161132198Y-118330000D01*
G37*
G36*
X159926493Y-118330000D02*
G01*
X159832948Y-117880165D01*
X159830335Y-117848147D01*
X159836107Y-117823610D01*
X159849312Y-117804328D01*
X159868800Y-117790388D01*
X159896345Y-117781137D01*
X159934675Y-117777644D01*
X159973679Y-117780737D01*
X160014359Y-117790284D01*
X160053476Y-117805781D01*
X160089342Y-117826859D01*
X160179284Y-117712737D01*
X160122917Y-117670048D01*
X160054049Y-117637205D01*
X159978575Y-117617015D01*
X159897184Y-117610155D01*
X159828217Y-117615295D01*
X159774212Y-117629312D01*
X159732148Y-117650768D01*
X159699713Y-117679214D01*
X159675849Y-117715085D01*
X159661568Y-117758068D01*
X159657401Y-117810194D01*
X159665214Y-117874059D01*
X159759980Y-118330000D01*
X159926493Y-118330000D01*
G37*
G36*
X160121887Y-118340258D02*
G01*
X160178199Y-118336127D01*
X160221037Y-118325009D01*
X160253290Y-118308241D01*
X160277165Y-118286280D01*
X160293855Y-118258578D01*
X160303759Y-118223337D01*
X160305893Y-118178331D01*
X160298230Y-118120806D01*
X160283251Y-118069106D01*
X160262351Y-118026357D01*
X160235824Y-117991179D01*
X160203464Y-117962597D01*
X160152412Y-117934748D01*
X160088076Y-117916795D01*
X160007093Y-117910268D01*
X159833192Y-117910268D01*
X159853586Y-118053150D01*
X160036097Y-118053150D01*
X160074506Y-118057689D01*
X160101615Y-118069820D01*
X160121272Y-118090330D01*
X160133061Y-118120806D01*
X160134426Y-118143118D01*
X160129108Y-118159723D01*
X160117552Y-118172463D01*
X160090479Y-118184286D01*
X160042386Y-118189193D01*
X159974165Y-118184313D01*
X159929973Y-118172096D01*
X159906265Y-118157985D01*
X159890954Y-118140414D01*
X159882590Y-118118790D01*
X159889979Y-118221983D01*
X159908335Y-118258534D01*
X159939377Y-118288661D01*
X159978623Y-118311321D01*
X160024678Y-118327618D01*
X160073295Y-118337115D01*
X160121887Y-118340258D01*
G37*
G36*
X159563853Y-118330000D02*
G01*
X159416331Y-117620413D01*
X159233087Y-117620413D01*
X159380610Y-118330000D01*
X159563853Y-118330000D01*
G37*
G36*
X159162623Y-118330000D02*
G01*
X159073230Y-117900010D01*
X159069782Y-117865362D01*
X159074323Y-117839158D01*
X159085504Y-117819043D01*
X159103018Y-117804038D01*
X159127742Y-117794298D01*
X159162196Y-117790650D01*
X159195065Y-117794059D01*
X159222943Y-117803802D01*
X159246887Y-117819715D01*
X159266337Y-117841023D01*
X159281257Y-117867870D01*
X159291523Y-117901414D01*
X159272838Y-117744183D01*
X159226226Y-117685744D01*
X159179049Y-117645020D01*
X159144020Y-117625903D01*
X159104617Y-117614209D01*
X159059797Y-117610155D01*
X159005987Y-117615500D01*
X158963921Y-117630235D01*
X158930984Y-117653451D01*
X158905558Y-117685687D01*
X158889088Y-117723482D01*
X158880026Y-117770128D01*
X158879624Y-117827869D01*
X158889926Y-117899338D01*
X158979441Y-118330000D01*
X159162623Y-118330000D01*
G37*
G36*
X158486864Y-118340258D02*
G01*
X158562538Y-118334156D01*
X158621847Y-118317466D01*
X158668173Y-118291733D01*
X158703996Y-118257215D01*
X158729539Y-118214528D01*
X158744636Y-118162903D01*
X158748366Y-118099874D01*
X158738435Y-118022376D01*
X158721765Y-117942386D01*
X158700048Y-117864276D01*
X158670756Y-117798421D01*
X158634362Y-117743099D01*
X158590851Y-117696983D01*
X158539537Y-117659394D01*
X158482580Y-117632461D01*
X158418904Y-117615897D01*
X158347096Y-117610155D01*
X158292391Y-117614826D01*
X158247520Y-117627885D01*
X158210576Y-117648528D01*
X158180191Y-117676839D01*
X158155671Y-117713775D01*
X158136046Y-117765188D01*
X158125730Y-117828841D01*
X158126496Y-117907722D01*
X158141017Y-118005279D01*
X158150725Y-118051746D01*
X158625472Y-118051746D01*
X158599155Y-117925289D01*
X158291592Y-117925289D01*
X158290127Y-117908925D01*
X158290037Y-117868776D01*
X158296382Y-117837916D01*
X158308018Y-117814220D01*
X158325832Y-117795914D01*
X158349950Y-117784540D01*
X158382512Y-117780392D01*
X158425123Y-117785067D01*
X158461701Y-117798528D01*
X158493581Y-117820753D01*
X158519349Y-117850166D01*
X158539493Y-117887636D01*
X158553726Y-117934876D01*
X158572472Y-118025123D01*
X158577298Y-118072869D01*
X158571211Y-118109188D01*
X158556046Y-118137231D01*
X158532159Y-118158283D01*
X158498863Y-118171821D01*
X158452915Y-118176859D01*
X158416143Y-118173622D01*
X158377260Y-118163548D01*
X158339588Y-118147484D01*
X158303804Y-118125629D01*
X158206718Y-118234317D01*
X158273931Y-118279383D01*
X158344715Y-118312597D01*
X158418017Y-118333560D01*
X158486864Y-118340258D01*
G37*
G36*
X157642090Y-117336053D02*
G01*
X157799993Y-118095526D01*
X157800894Y-118118967D01*
X157793703Y-118135155D01*
X157779314Y-118145563D01*
X157755724Y-118149504D01*
X157724949Y-118149504D01*
X157762501Y-118330000D01*
X157856107Y-118330000D01*
X157909473Y-118323790D01*
X157948025Y-118307056D01*
X157975603Y-118280785D01*
X157992678Y-118246214D01*
X157999226Y-118201224D01*
X157992883Y-118141994D01*
X157825333Y-117336053D01*
X157642090Y-117336053D01*
G37*
D11*
X21980000Y-114000000D02*
X172980000Y-114000000D01*
X172980000Y-202000000D01*
X21980000Y-202000000D01*
X21980000Y-114000000D01*
M02*
