%TF.GenerationSoftware,KiCad,Pcbnew,9.0.2*%
%TF.CreationDate,2025-08-22T18:26:34+01:00*%
%TF.ProjectId,MC8P_MIDI_CONTROLLER,4d433850-5f4d-4494-9449-5f434f4e5452,rev?*%
%TF.SameCoordinates,Original*%
%TF.FileFunction,Copper,L2,Bot*%
%TF.FilePolarity,Positive*%
%FSLAX46Y46*%
G04 Gerber Fmt 4.6, Leading zero omitted, Abs format (unit mm)*
G04 Created by KiCad (PCBNEW 9.0.2) date 2025-08-22 18:26:34*
%MOMM*%
%LPD*%
G01*
G04 APERTURE LIST*
%TA.AperFunction,ComponentPad*%
%ADD10C,8.000000*%
%TD*%
%TA.AperFunction,ComponentPad*%
%ADD11C,5.000000*%
%TD*%
%TA.AperFunction,WasherPad*%
%ADD12C,2.800000*%
%TD*%
G04 APERTURE END LIST*
D10*
%TO.P,REF\u002A\u002A,*%
%TO.N,*%
X82980000Y-161284200D03*
%TD*%
%TO.P,REF\u002A\u002A,*%
%TO.N,*%
X105982700Y-161284200D03*
%TD*%
%TO.P,REF\u002A\u002A,*%
%TO.N,*%
X82982700Y-185244200D03*
%TD*%
D11*
%TO.P,,*%
%TO.N,GND*%
X168980000Y-198000000D03*
%TD*%
D10*
%TO.P,REF\u002A\u002A,*%
%TO.N,*%
X59982700Y-185244200D03*
%TD*%
D11*
%TO.P,,*%
%TO.N,GND*%
X25980000Y-198000000D03*
%TD*%
D10*
%TO.P,REF\u002A\u002A,*%
%TO.N,*%
X59980000Y-161284200D03*
%TD*%
D11*
%TO.P,,*%
%TO.N,GND*%
X168980000Y-118000000D03*
%TD*%
D10*
%TO.P,REF\u002A\u002A,*%
%TO.N,*%
X36982700Y-185244200D03*
%TD*%
%TO.P,REF\u002A\u002A,*%
%TO.N,*%
X36982700Y-161284200D03*
%TD*%
%TO.P,REF\u002A\u002A,*%
%TO.N,*%
X105982700Y-185244200D03*
%TD*%
D11*
%TO.P,,*%
%TO.N,GND*%
X25980000Y-118000000D03*
%TD*%
D12*
%TO.P,SSD1306,*%
%TO.N,*%
X154540000Y-143805000D03*
X154540000Y-120305000D03*
X131040000Y-143805000D03*
X131040000Y-120305000D03*
%TD*%
%TA.AperFunction,Conductor*%
%TO.N,GND*%
G36*
X172923039Y-114019685D02*
G01*
X172968794Y-114072489D01*
X172980000Y-114124000D01*
X172980000Y-201876000D01*
X172960315Y-201943039D01*
X172907511Y-201988794D01*
X172856000Y-202000000D01*
X22104000Y-202000000D01*
X22036961Y-201980315D01*
X21991206Y-201927511D01*
X21980000Y-201876000D01*
X21980000Y-197831519D01*
X22980000Y-197831519D01*
X22980000Y-198168480D01*
X23017725Y-198503297D01*
X23017727Y-198503313D01*
X23092705Y-198831814D01*
X23092709Y-198831826D01*
X23203995Y-199149862D01*
X23350191Y-199453440D01*
X23529461Y-199738747D01*
X23688397Y-199938048D01*
X24685747Y-198940697D01*
X24759588Y-199042330D01*
X24937670Y-199220412D01*
X25039300Y-199294251D01*
X24041950Y-200291601D01*
X24241252Y-200450538D01*
X24526559Y-200629808D01*
X24830137Y-200776004D01*
X25148173Y-200887290D01*
X25148185Y-200887294D01*
X25476686Y-200962272D01*
X25476702Y-200962274D01*
X25811519Y-200999999D01*
X25811521Y-201000000D01*
X26148479Y-201000000D01*
X26148480Y-200999999D01*
X26483297Y-200962274D01*
X26483313Y-200962272D01*
X26811814Y-200887294D01*
X26811826Y-200887290D01*
X27129862Y-200776004D01*
X27433440Y-200629808D01*
X27718747Y-200450538D01*
X27918048Y-200291600D01*
X26920698Y-199294251D01*
X27022330Y-199220412D01*
X27200412Y-199042330D01*
X27274251Y-198940698D01*
X28271600Y-199938048D01*
X28430538Y-199738747D01*
X28609808Y-199453440D01*
X28756004Y-199149862D01*
X28867290Y-198831826D01*
X28867294Y-198831814D01*
X28942272Y-198503313D01*
X28942274Y-198503297D01*
X28979999Y-198168480D01*
X28980000Y-198168478D01*
X28980000Y-197831521D01*
X28979999Y-197831519D01*
X165980000Y-197831519D01*
X165980000Y-198168480D01*
X166017725Y-198503297D01*
X166017727Y-198503313D01*
X166092705Y-198831814D01*
X166092709Y-198831826D01*
X166203995Y-199149862D01*
X166350191Y-199453440D01*
X166529461Y-199738747D01*
X166688397Y-199938048D01*
X167685747Y-198940697D01*
X167759588Y-199042330D01*
X167937670Y-199220412D01*
X168039300Y-199294251D01*
X167041950Y-200291601D01*
X167241252Y-200450538D01*
X167526559Y-200629808D01*
X167830137Y-200776004D01*
X168148173Y-200887290D01*
X168148185Y-200887294D01*
X168476686Y-200962272D01*
X168476702Y-200962274D01*
X168811519Y-200999999D01*
X168811521Y-201000000D01*
X169148479Y-201000000D01*
X169148480Y-200999999D01*
X169483297Y-200962274D01*
X169483313Y-200962272D01*
X169811814Y-200887294D01*
X169811826Y-200887290D01*
X170129862Y-200776004D01*
X170433440Y-200629808D01*
X170718747Y-200450538D01*
X170918048Y-200291600D01*
X169920698Y-199294251D01*
X170022330Y-199220412D01*
X170200412Y-199042330D01*
X170274251Y-198940699D01*
X171271600Y-199938048D01*
X171430538Y-199738747D01*
X171609808Y-199453440D01*
X171756004Y-199149862D01*
X171867290Y-198831826D01*
X171867294Y-198831814D01*
X171942272Y-198503313D01*
X171942274Y-198503297D01*
X171979999Y-198168480D01*
X171980000Y-198168478D01*
X171980000Y-197831521D01*
X171979999Y-197831519D01*
X171942274Y-197496702D01*
X171942272Y-197496686D01*
X171867294Y-197168185D01*
X171867290Y-197168173D01*
X171756004Y-196850137D01*
X171609808Y-196546559D01*
X171430538Y-196261252D01*
X171271601Y-196061950D01*
X170274250Y-197059300D01*
X170200412Y-196957670D01*
X170022330Y-196779588D01*
X169920697Y-196705747D01*
X170918048Y-195708397D01*
X170718747Y-195549461D01*
X170433440Y-195370191D01*
X170129862Y-195223995D01*
X169811826Y-195112709D01*
X169811814Y-195112705D01*
X169483313Y-195037727D01*
X169483297Y-195037725D01*
X169148480Y-195000000D01*
X168811519Y-195000000D01*
X168476702Y-195037725D01*
X168476686Y-195037727D01*
X168148185Y-195112705D01*
X168148173Y-195112709D01*
X167830137Y-195223995D01*
X167526559Y-195370191D01*
X167241252Y-195549461D01*
X167041950Y-195708397D01*
X168039301Y-196705748D01*
X167937670Y-196779588D01*
X167759588Y-196957670D01*
X167685748Y-197059301D01*
X166688397Y-196061950D01*
X166529461Y-196261252D01*
X166350191Y-196546559D01*
X166203995Y-196850137D01*
X166092709Y-197168173D01*
X166092705Y-197168185D01*
X166017727Y-197496686D01*
X166017725Y-197496702D01*
X165980000Y-197831519D01*
X28979999Y-197831519D01*
X28942274Y-197496702D01*
X28942272Y-197496686D01*
X28867294Y-197168185D01*
X28867290Y-197168173D01*
X28756004Y-196850137D01*
X28609808Y-196546559D01*
X28430538Y-196261252D01*
X28271601Y-196061950D01*
X27274250Y-197059300D01*
X27200412Y-196957670D01*
X27022330Y-196779588D01*
X26920697Y-196705747D01*
X27918048Y-195708397D01*
X27718747Y-195549461D01*
X27433440Y-195370191D01*
X27129862Y-195223995D01*
X26811826Y-195112709D01*
X26811814Y-195112705D01*
X26483313Y-195037727D01*
X26483297Y-195037725D01*
X26148480Y-195000000D01*
X25811519Y-195000000D01*
X25476702Y-195037725D01*
X25476686Y-195037727D01*
X25148185Y-195112705D01*
X25148173Y-195112709D01*
X24830137Y-195223995D01*
X24526559Y-195370191D01*
X24241252Y-195549461D01*
X24041950Y-195708397D01*
X25039301Y-196705748D01*
X24937670Y-196779588D01*
X24759588Y-196957670D01*
X24685748Y-197059301D01*
X23688397Y-196061950D01*
X23529461Y-196261252D01*
X23350191Y-196546559D01*
X23203995Y-196850137D01*
X23092709Y-197168173D01*
X23092705Y-197168185D01*
X23017727Y-197496686D01*
X23017725Y-197496702D01*
X22980000Y-197831519D01*
X21980000Y-197831519D01*
X21980000Y-185047699D01*
X32482200Y-185047699D01*
X32482200Y-185440700D01*
X32516451Y-185832195D01*
X32516451Y-185832199D01*
X32584691Y-186219205D01*
X32584693Y-186219215D01*
X32686407Y-186598816D01*
X32686408Y-186598818D01*
X32686408Y-186598819D01*
X32820824Y-186968121D01*
X32986895Y-187324262D01*
X32986907Y-187324286D01*
X33183395Y-187664612D01*
X33183404Y-187664627D01*
X33408815Y-187986547D01*
X33601493Y-188216171D01*
X33661422Y-188287591D01*
X33939309Y-188565478D01*
X34046438Y-188655370D01*
X34240352Y-188818084D01*
X34240358Y-188818088D01*
X34240359Y-188818089D01*
X34562279Y-189043500D01*
X34902620Y-189239996D01*
X34902634Y-189240002D01*
X34902637Y-189240004D01*
X35258778Y-189406075D01*
X35258783Y-189406076D01*
X35258792Y-189406081D01*
X35628084Y-189540493D01*
X36007685Y-189642207D01*
X36394707Y-189710449D01*
X36786202Y-189744699D01*
X36786203Y-189744700D01*
X36786204Y-189744700D01*
X37179197Y-189744700D01*
X37179197Y-189744699D01*
X37570693Y-189710449D01*
X37957715Y-189642207D01*
X38337316Y-189540493D01*
X38706608Y-189406081D01*
X39062780Y-189239996D01*
X39403121Y-189043500D01*
X39725041Y-188818089D01*
X40026091Y-188565478D01*
X40303978Y-188287591D01*
X40556589Y-187986541D01*
X40782000Y-187664621D01*
X40978496Y-187324280D01*
X41144581Y-186968108D01*
X41278993Y-186598816D01*
X41380707Y-186219215D01*
X41448949Y-185832193D01*
X41483200Y-185440696D01*
X41483200Y-185047704D01*
X41483200Y-185047699D01*
X55482200Y-185047699D01*
X55482200Y-185440700D01*
X55516451Y-185832195D01*
X55516451Y-185832199D01*
X55584691Y-186219205D01*
X55584693Y-186219215D01*
X55686407Y-186598816D01*
X55686408Y-186598818D01*
X55686408Y-186598819D01*
X55820824Y-186968121D01*
X55986895Y-187324262D01*
X55986907Y-187324286D01*
X56183395Y-187664612D01*
X56183404Y-187664627D01*
X56408815Y-187986547D01*
X56601493Y-188216171D01*
X56661422Y-188287591D01*
X56939309Y-188565478D01*
X57046438Y-188655370D01*
X57240352Y-188818084D01*
X57240358Y-188818088D01*
X57240359Y-188818089D01*
X57562279Y-189043500D01*
X57902620Y-189239996D01*
X57902634Y-189240002D01*
X57902637Y-189240004D01*
X58258778Y-189406075D01*
X58258783Y-189406076D01*
X58258792Y-189406081D01*
X58628084Y-189540493D01*
X59007685Y-189642207D01*
X59394707Y-189710449D01*
X59786202Y-189744699D01*
X59786203Y-189744700D01*
X59786204Y-189744700D01*
X60179197Y-189744700D01*
X60179197Y-189744699D01*
X60570693Y-189710449D01*
X60957715Y-189642207D01*
X61337316Y-189540493D01*
X61706608Y-189406081D01*
X62062780Y-189239996D01*
X62403121Y-189043500D01*
X62725041Y-188818089D01*
X63026091Y-188565478D01*
X63303978Y-188287591D01*
X63556589Y-187986541D01*
X63782000Y-187664621D01*
X63978496Y-187324280D01*
X64144581Y-186968108D01*
X64278993Y-186598816D01*
X64380707Y-186219215D01*
X64448949Y-185832193D01*
X64483200Y-185440696D01*
X64483200Y-185047704D01*
X64483200Y-185047699D01*
X78482200Y-185047699D01*
X78482200Y-185440700D01*
X78516451Y-185832195D01*
X78516451Y-185832199D01*
X78584691Y-186219205D01*
X78584693Y-186219215D01*
X78686407Y-186598816D01*
X78686408Y-186598818D01*
X78686408Y-186598819D01*
X78820824Y-186968121D01*
X78986895Y-187324262D01*
X78986907Y-187324286D01*
X79183395Y-187664612D01*
X79183404Y-187664627D01*
X79408815Y-187986547D01*
X79601493Y-188216171D01*
X79661422Y-188287591D01*
X79939309Y-188565478D01*
X80046438Y-188655370D01*
X80240352Y-188818084D01*
X80240358Y-188818088D01*
X80240359Y-188818089D01*
X80562279Y-189043500D01*
X80902620Y-189239996D01*
X80902634Y-189240002D01*
X80902637Y-189240004D01*
X81258778Y-189406075D01*
X81258783Y-189406076D01*
X81258792Y-189406081D01*
X81628084Y-189540493D01*
X82007685Y-189642207D01*
X82394707Y-189710449D01*
X82786202Y-189744699D01*
X82786203Y-189744700D01*
X82786204Y-189744700D01*
X83179197Y-189744700D01*
X83179197Y-189744699D01*
X83570693Y-189710449D01*
X83957715Y-189642207D01*
X84337316Y-189540493D01*
X84706608Y-189406081D01*
X85062780Y-189239996D01*
X85403121Y-189043500D01*
X85725041Y-188818089D01*
X86026091Y-188565478D01*
X86303978Y-188287591D01*
X86556589Y-187986541D01*
X86782000Y-187664621D01*
X86978496Y-187324280D01*
X87144581Y-186968108D01*
X87278993Y-186598816D01*
X87380707Y-186219215D01*
X87448949Y-185832193D01*
X87483200Y-185440696D01*
X87483200Y-185047704D01*
X87483200Y-185047699D01*
X101482200Y-185047699D01*
X101482200Y-185440700D01*
X101516451Y-185832195D01*
X101516451Y-185832199D01*
X101584691Y-186219205D01*
X101584693Y-186219215D01*
X101686407Y-186598816D01*
X101686408Y-186598818D01*
X101686408Y-186598819D01*
X101820824Y-186968121D01*
X101986895Y-187324262D01*
X101986907Y-187324286D01*
X102183395Y-187664612D01*
X102183404Y-187664627D01*
X102408815Y-187986547D01*
X102601493Y-188216171D01*
X102661422Y-188287591D01*
X102939309Y-188565478D01*
X103046438Y-188655370D01*
X103240352Y-188818084D01*
X103240358Y-188818088D01*
X103240359Y-188818089D01*
X103562279Y-189043500D01*
X103902620Y-189239996D01*
X103902634Y-189240002D01*
X103902637Y-189240004D01*
X104258778Y-189406075D01*
X104258783Y-189406076D01*
X104258792Y-189406081D01*
X104628084Y-189540493D01*
X105007685Y-189642207D01*
X105394707Y-189710449D01*
X105786202Y-189744699D01*
X105786203Y-189744700D01*
X105786204Y-189744700D01*
X106179197Y-189744700D01*
X106179197Y-189744699D01*
X106570693Y-189710449D01*
X106957715Y-189642207D01*
X107337316Y-189540493D01*
X107706608Y-189406081D01*
X108062780Y-189239996D01*
X108403121Y-189043500D01*
X108725041Y-188818089D01*
X109026091Y-188565478D01*
X109303978Y-188287591D01*
X109556589Y-187986541D01*
X109782000Y-187664621D01*
X109978496Y-187324280D01*
X110144581Y-186968108D01*
X110278993Y-186598816D01*
X110380707Y-186219215D01*
X110448949Y-185832193D01*
X110483200Y-185440696D01*
X110483200Y-185047704D01*
X110448949Y-184656207D01*
X110380707Y-184269185D01*
X110278993Y-183889584D01*
X110144581Y-183520292D01*
X110144576Y-183520283D01*
X110144575Y-183520278D01*
X109978504Y-183164137D01*
X109978492Y-183164113D01*
X109966155Y-183142746D01*
X109782000Y-182823779D01*
X109556589Y-182501859D01*
X109556588Y-182501858D01*
X109556584Y-182501852D01*
X109303975Y-182200806D01*
X109026093Y-181922924D01*
X108725047Y-181670315D01*
X108403127Y-181444904D01*
X108403124Y-181444902D01*
X108403121Y-181444900D01*
X108302005Y-181386520D01*
X108062786Y-181248407D01*
X108062762Y-181248395D01*
X107706621Y-181082324D01*
X107706610Y-181082320D01*
X107706608Y-181082319D01*
X107337316Y-180947907D01*
X107096660Y-180883423D01*
X106957716Y-180846193D01*
X106957705Y-180846191D01*
X106570697Y-180777951D01*
X106179200Y-180743700D01*
X106179196Y-180743700D01*
X105786204Y-180743700D01*
X105786199Y-180743700D01*
X105394704Y-180777951D01*
X105394700Y-180777951D01*
X105007694Y-180846191D01*
X105007683Y-180846193D01*
X104804255Y-180900702D01*
X104628084Y-180947907D01*
X104628081Y-180947908D01*
X104628080Y-180947908D01*
X104258778Y-181082324D01*
X103902637Y-181248395D01*
X103902613Y-181248407D01*
X103562287Y-181444895D01*
X103562272Y-181444904D01*
X103240352Y-181670315D01*
X102939306Y-181922924D01*
X102661424Y-182200806D01*
X102408815Y-182501852D01*
X102183404Y-182823772D01*
X102183395Y-182823787D01*
X101986907Y-183164113D01*
X101986895Y-183164137D01*
X101820824Y-183520278D01*
X101686408Y-183889580D01*
X101686408Y-183889582D01*
X101584693Y-184269183D01*
X101584691Y-184269194D01*
X101516451Y-184656200D01*
X101516451Y-184656204D01*
X101482200Y-185047699D01*
X87483200Y-185047699D01*
X87448949Y-184656207D01*
X87380707Y-184269185D01*
X87278993Y-183889584D01*
X87144581Y-183520292D01*
X87144576Y-183520283D01*
X87144575Y-183520278D01*
X86978504Y-183164137D01*
X86978492Y-183164113D01*
X86966155Y-183142746D01*
X86782000Y-182823779D01*
X86556589Y-182501859D01*
X86556588Y-182501858D01*
X86556584Y-182501852D01*
X86303975Y-182200806D01*
X86026093Y-181922924D01*
X85725047Y-181670315D01*
X85403127Y-181444904D01*
X85403124Y-181444902D01*
X85403121Y-181444900D01*
X85302005Y-181386520D01*
X85062786Y-181248407D01*
X85062762Y-181248395D01*
X84706621Y-181082324D01*
X84706610Y-181082320D01*
X84706608Y-181082319D01*
X84337316Y-180947907D01*
X84096660Y-180883423D01*
X83957716Y-180846193D01*
X83957705Y-180846191D01*
X83570697Y-180777951D01*
X83179200Y-180743700D01*
X83179196Y-180743700D01*
X82786204Y-180743700D01*
X82786199Y-180743700D01*
X82394704Y-180777951D01*
X82394700Y-180777951D01*
X82007694Y-180846191D01*
X82007683Y-180846193D01*
X81804255Y-180900702D01*
X81628084Y-180947907D01*
X81628081Y-180947908D01*
X81628080Y-180947908D01*
X81258778Y-181082324D01*
X80902637Y-181248395D01*
X80902613Y-181248407D01*
X80562287Y-181444895D01*
X80562272Y-181444904D01*
X80240352Y-181670315D01*
X79939306Y-181922924D01*
X79661424Y-182200806D01*
X79408815Y-182501852D01*
X79183404Y-182823772D01*
X79183395Y-182823787D01*
X78986907Y-183164113D01*
X78986895Y-183164137D01*
X78820824Y-183520278D01*
X78686408Y-183889580D01*
X78686408Y-183889582D01*
X78584693Y-184269183D01*
X78584691Y-184269194D01*
X78516451Y-184656200D01*
X78516451Y-184656204D01*
X78482200Y-185047699D01*
X64483200Y-185047699D01*
X64448949Y-184656207D01*
X64380707Y-184269185D01*
X64278993Y-183889584D01*
X64144581Y-183520292D01*
X64144576Y-183520283D01*
X64144575Y-183520278D01*
X63978504Y-183164137D01*
X63978492Y-183164113D01*
X63966155Y-183142746D01*
X63782000Y-182823779D01*
X63556589Y-182501859D01*
X63556588Y-182501858D01*
X63556584Y-182501852D01*
X63303975Y-182200806D01*
X63026093Y-181922924D01*
X62725047Y-181670315D01*
X62403127Y-181444904D01*
X62403124Y-181444902D01*
X62403121Y-181444900D01*
X62302005Y-181386520D01*
X62062786Y-181248407D01*
X62062762Y-181248395D01*
X61706621Y-181082324D01*
X61706610Y-181082320D01*
X61706608Y-181082319D01*
X61337316Y-180947907D01*
X61096660Y-180883423D01*
X60957716Y-180846193D01*
X60957705Y-180846191D01*
X60570697Y-180777951D01*
X60179200Y-180743700D01*
X60179196Y-180743700D01*
X59786204Y-180743700D01*
X59786199Y-180743700D01*
X59394704Y-180777951D01*
X59394700Y-180777951D01*
X59007694Y-180846191D01*
X59007683Y-180846193D01*
X58804255Y-180900702D01*
X58628084Y-180947907D01*
X58628081Y-180947908D01*
X58628080Y-180947908D01*
X58258778Y-181082324D01*
X57902637Y-181248395D01*
X57902613Y-181248407D01*
X57562287Y-181444895D01*
X57562272Y-181444904D01*
X57240352Y-181670315D01*
X56939306Y-181922924D01*
X56661424Y-182200806D01*
X56408815Y-182501852D01*
X56183404Y-182823772D01*
X56183395Y-182823787D01*
X55986907Y-183164113D01*
X55986895Y-183164137D01*
X55820824Y-183520278D01*
X55686408Y-183889580D01*
X55686408Y-183889582D01*
X55584693Y-184269183D01*
X55584691Y-184269194D01*
X55516451Y-184656200D01*
X55516451Y-184656204D01*
X55482200Y-185047699D01*
X41483200Y-185047699D01*
X41448949Y-184656207D01*
X41380707Y-184269185D01*
X41278993Y-183889584D01*
X41144581Y-183520292D01*
X41144576Y-183520283D01*
X41144575Y-183520278D01*
X40978504Y-183164137D01*
X40978492Y-183164113D01*
X40966155Y-183142746D01*
X40782000Y-182823779D01*
X40556589Y-182501859D01*
X40556588Y-182501858D01*
X40556584Y-182501852D01*
X40303975Y-182200806D01*
X40026093Y-181922924D01*
X39725047Y-181670315D01*
X39403127Y-181444904D01*
X39403124Y-181444902D01*
X39403121Y-181444900D01*
X39302005Y-181386520D01*
X39062786Y-181248407D01*
X39062762Y-181248395D01*
X38706621Y-181082324D01*
X38706610Y-181082320D01*
X38706608Y-181082319D01*
X38337316Y-180947907D01*
X38096660Y-180883423D01*
X37957716Y-180846193D01*
X37957705Y-180846191D01*
X37570697Y-180777951D01*
X37179200Y-180743700D01*
X37179196Y-180743700D01*
X36786204Y-180743700D01*
X36786199Y-180743700D01*
X36394704Y-180777951D01*
X36394700Y-180777951D01*
X36007694Y-180846191D01*
X36007683Y-180846193D01*
X35804255Y-180900702D01*
X35628084Y-180947907D01*
X35628081Y-180947908D01*
X35628080Y-180947908D01*
X35258778Y-181082324D01*
X34902637Y-181248395D01*
X34902613Y-181248407D01*
X34562287Y-181444895D01*
X34562272Y-181444904D01*
X34240352Y-181670315D01*
X33939306Y-181922924D01*
X33661424Y-182200806D01*
X33408815Y-182501852D01*
X33183404Y-182823772D01*
X33183395Y-182823787D01*
X32986907Y-183164113D01*
X32986895Y-183164137D01*
X32820824Y-183520278D01*
X32686408Y-183889580D01*
X32686408Y-183889582D01*
X32584693Y-184269183D01*
X32584691Y-184269194D01*
X32516451Y-184656200D01*
X32516451Y-184656204D01*
X32482200Y-185047699D01*
X21980000Y-185047699D01*
X21980000Y-161087699D01*
X32482200Y-161087699D01*
X32482200Y-161480700D01*
X32516451Y-161872195D01*
X32516451Y-161872199D01*
X32584691Y-162259205D01*
X32584693Y-162259215D01*
X32686407Y-162638816D01*
X32686408Y-162638818D01*
X32686408Y-162638819D01*
X32820824Y-163008121D01*
X32986895Y-163364262D01*
X32986907Y-163364286D01*
X33183395Y-163704612D01*
X33183404Y-163704627D01*
X33408815Y-164026547D01*
X33601493Y-164256171D01*
X33661422Y-164327591D01*
X33939309Y-164605478D01*
X34046438Y-164695370D01*
X34240352Y-164858084D01*
X34240358Y-164858088D01*
X34240359Y-164858089D01*
X34562279Y-165083500D01*
X34902620Y-165279996D01*
X34902634Y-165280002D01*
X34902637Y-165280004D01*
X35258778Y-165446075D01*
X35258783Y-165446076D01*
X35258792Y-165446081D01*
X35628084Y-165580493D01*
X36007685Y-165682207D01*
X36394707Y-165750449D01*
X36786202Y-165784699D01*
X36786203Y-165784700D01*
X36786204Y-165784700D01*
X37179197Y-165784700D01*
X37179197Y-165784699D01*
X37570693Y-165750449D01*
X37957715Y-165682207D01*
X38337316Y-165580493D01*
X38706608Y-165446081D01*
X39062780Y-165279996D01*
X39403121Y-165083500D01*
X39725041Y-164858089D01*
X40026091Y-164605478D01*
X40303978Y-164327591D01*
X40556589Y-164026541D01*
X40782000Y-163704621D01*
X40978496Y-163364280D01*
X41144581Y-163008108D01*
X41278993Y-162638816D01*
X41380707Y-162259215D01*
X41448949Y-161872193D01*
X41483200Y-161480696D01*
X41483200Y-161087704D01*
X41483200Y-161087699D01*
X55479500Y-161087699D01*
X55479500Y-161480700D01*
X55513751Y-161872195D01*
X55513751Y-161872199D01*
X55581991Y-162259205D01*
X55581993Y-162259215D01*
X55683707Y-162638816D01*
X55683708Y-162638818D01*
X55683708Y-162638819D01*
X55818124Y-163008121D01*
X55984195Y-163364262D01*
X55984207Y-163364286D01*
X56180695Y-163704612D01*
X56180704Y-163704627D01*
X56406115Y-164026547D01*
X56598793Y-164256171D01*
X56658722Y-164327591D01*
X56936609Y-164605478D01*
X57043738Y-164695370D01*
X57237652Y-164858084D01*
X57237658Y-164858088D01*
X57237659Y-164858089D01*
X57559579Y-165083500D01*
X57899920Y-165279996D01*
X57899934Y-165280002D01*
X57899937Y-165280004D01*
X58256078Y-165446075D01*
X58256083Y-165446076D01*
X58256092Y-165446081D01*
X58625384Y-165580493D01*
X59004985Y-165682207D01*
X59392007Y-165750449D01*
X59783502Y-165784699D01*
X59783503Y-165784700D01*
X59783504Y-165784700D01*
X60176497Y-165784700D01*
X60176497Y-165784699D01*
X60567993Y-165750449D01*
X60955015Y-165682207D01*
X61334616Y-165580493D01*
X61703908Y-165446081D01*
X62060080Y-165279996D01*
X62400421Y-165083500D01*
X62722341Y-164858089D01*
X63023391Y-164605478D01*
X63301278Y-164327591D01*
X63553889Y-164026541D01*
X63779300Y-163704621D01*
X63975796Y-163364280D01*
X64141881Y-163008108D01*
X64276293Y-162638816D01*
X64378007Y-162259215D01*
X64446249Y-161872193D01*
X64480500Y-161480696D01*
X64480500Y-161087704D01*
X64480500Y-161087699D01*
X78479500Y-161087699D01*
X78479500Y-161480700D01*
X78513751Y-161872195D01*
X78513751Y-161872199D01*
X78581991Y-162259205D01*
X78581993Y-162259215D01*
X78683707Y-162638816D01*
X78683708Y-162638818D01*
X78683708Y-162638819D01*
X78818124Y-163008121D01*
X78984195Y-163364262D01*
X78984207Y-163364286D01*
X79180695Y-163704612D01*
X79180704Y-163704627D01*
X79406115Y-164026547D01*
X79598793Y-164256171D01*
X79658722Y-164327591D01*
X79936609Y-164605478D01*
X80043738Y-164695370D01*
X80237652Y-164858084D01*
X80237658Y-164858088D01*
X80237659Y-164858089D01*
X80559579Y-165083500D01*
X80899920Y-165279996D01*
X80899934Y-165280002D01*
X80899937Y-165280004D01*
X81256078Y-165446075D01*
X81256083Y-165446076D01*
X81256092Y-165446081D01*
X81625384Y-165580493D01*
X82004985Y-165682207D01*
X82392007Y-165750449D01*
X82783502Y-165784699D01*
X82783503Y-165784700D01*
X82783504Y-165784700D01*
X83176497Y-165784700D01*
X83176497Y-165784699D01*
X83567993Y-165750449D01*
X83955015Y-165682207D01*
X84334616Y-165580493D01*
X84703908Y-165446081D01*
X85060080Y-165279996D01*
X85400421Y-165083500D01*
X85722341Y-164858089D01*
X86023391Y-164605478D01*
X86301278Y-164327591D01*
X86553889Y-164026541D01*
X86779300Y-163704621D01*
X86975796Y-163364280D01*
X87141881Y-163008108D01*
X87276293Y-162638816D01*
X87378007Y-162259215D01*
X87446249Y-161872193D01*
X87480500Y-161480696D01*
X87480500Y-161087704D01*
X87480500Y-161087699D01*
X101482200Y-161087699D01*
X101482200Y-161480700D01*
X101516451Y-161872195D01*
X101516451Y-161872199D01*
X101584691Y-162259205D01*
X101584693Y-162259215D01*
X101686407Y-162638816D01*
X101686408Y-162638818D01*
X101686408Y-162638819D01*
X101820824Y-163008121D01*
X101986895Y-163364262D01*
X101986907Y-163364286D01*
X102183395Y-163704612D01*
X102183404Y-163704627D01*
X102408815Y-164026547D01*
X102601493Y-164256171D01*
X102661422Y-164327591D01*
X102939309Y-164605478D01*
X103046438Y-164695370D01*
X103240352Y-164858084D01*
X103240358Y-164858088D01*
X103240359Y-164858089D01*
X103562279Y-165083500D01*
X103902620Y-165279996D01*
X103902634Y-165280002D01*
X103902637Y-165280004D01*
X104258778Y-165446075D01*
X104258783Y-165446076D01*
X104258792Y-165446081D01*
X104628084Y-165580493D01*
X105007685Y-165682207D01*
X105394707Y-165750449D01*
X105786202Y-165784699D01*
X105786203Y-165784700D01*
X105786204Y-165784700D01*
X106179197Y-165784700D01*
X106179197Y-165784699D01*
X106570693Y-165750449D01*
X106957715Y-165682207D01*
X107337316Y-165580493D01*
X107706608Y-165446081D01*
X108062780Y-165279996D01*
X108403121Y-165083500D01*
X108725041Y-164858089D01*
X109026091Y-164605478D01*
X109303978Y-164327591D01*
X109556589Y-164026541D01*
X109782000Y-163704621D01*
X109978496Y-163364280D01*
X110144581Y-163008108D01*
X110278993Y-162638816D01*
X110380707Y-162259215D01*
X110448949Y-161872193D01*
X110483200Y-161480696D01*
X110483200Y-161087704D01*
X110448949Y-160696207D01*
X110380707Y-160309185D01*
X110278993Y-159929584D01*
X110144581Y-159560292D01*
X110144576Y-159560283D01*
X110144575Y-159560278D01*
X109978504Y-159204137D01*
X109978492Y-159204113D01*
X109966155Y-159182746D01*
X109782000Y-158863779D01*
X109556589Y-158541859D01*
X109556588Y-158541858D01*
X109556584Y-158541852D01*
X109303975Y-158240806D01*
X109026093Y-157962924D01*
X108725047Y-157710315D01*
X108403127Y-157484904D01*
X108403124Y-157484902D01*
X108403121Y-157484900D01*
X108302005Y-157426520D01*
X108062786Y-157288407D01*
X108062762Y-157288395D01*
X107706621Y-157122324D01*
X107706610Y-157122320D01*
X107706608Y-157122319D01*
X107337316Y-156987907D01*
X107096660Y-156923423D01*
X106957716Y-156886193D01*
X106957705Y-156886191D01*
X106570697Y-156817951D01*
X106179200Y-156783700D01*
X106179196Y-156783700D01*
X105786204Y-156783700D01*
X105786199Y-156783700D01*
X105394704Y-156817951D01*
X105394700Y-156817951D01*
X105007694Y-156886191D01*
X105007683Y-156886193D01*
X104804255Y-156940702D01*
X104628084Y-156987907D01*
X104628081Y-156987908D01*
X104628080Y-156987908D01*
X104258778Y-157122324D01*
X103902637Y-157288395D01*
X103902613Y-157288407D01*
X103562287Y-157484895D01*
X103562272Y-157484904D01*
X103240352Y-157710315D01*
X102939306Y-157962924D01*
X102661424Y-158240806D01*
X102408815Y-158541852D01*
X102183404Y-158863772D01*
X102183395Y-158863787D01*
X101986907Y-159204113D01*
X101986895Y-159204137D01*
X101820824Y-159560278D01*
X101686408Y-159929580D01*
X101686408Y-159929582D01*
X101584693Y-160309183D01*
X101584691Y-160309194D01*
X101516451Y-160696200D01*
X101516451Y-160696204D01*
X101482200Y-161087699D01*
X87480500Y-161087699D01*
X87446249Y-160696207D01*
X87378007Y-160309185D01*
X87276293Y-159929584D01*
X87141881Y-159560292D01*
X87141876Y-159560283D01*
X87141875Y-159560278D01*
X86975804Y-159204137D01*
X86975792Y-159204113D01*
X86963455Y-159182746D01*
X86779300Y-158863779D01*
X86553889Y-158541859D01*
X86553888Y-158541858D01*
X86553884Y-158541852D01*
X86301275Y-158240806D01*
X86023393Y-157962924D01*
X85722347Y-157710315D01*
X85400427Y-157484904D01*
X85400424Y-157484902D01*
X85400421Y-157484900D01*
X85299305Y-157426520D01*
X85060086Y-157288407D01*
X85060062Y-157288395D01*
X84703921Y-157122324D01*
X84703910Y-157122320D01*
X84703908Y-157122319D01*
X84334616Y-156987907D01*
X84093960Y-156923423D01*
X83955016Y-156886193D01*
X83955005Y-156886191D01*
X83567997Y-156817951D01*
X83176500Y-156783700D01*
X83176496Y-156783700D01*
X82783504Y-156783700D01*
X82783499Y-156783700D01*
X82392004Y-156817951D01*
X82392000Y-156817951D01*
X82004994Y-156886191D01*
X82004983Y-156886193D01*
X81801555Y-156940702D01*
X81625384Y-156987907D01*
X81625381Y-156987908D01*
X81625380Y-156987908D01*
X81256078Y-157122324D01*
X80899937Y-157288395D01*
X80899913Y-157288407D01*
X80559587Y-157484895D01*
X80559572Y-157484904D01*
X80237652Y-157710315D01*
X79936606Y-157962924D01*
X79658724Y-158240806D01*
X79406115Y-158541852D01*
X79180704Y-158863772D01*
X79180695Y-158863787D01*
X78984207Y-159204113D01*
X78984195Y-159204137D01*
X78818124Y-159560278D01*
X78683708Y-159929580D01*
X78683708Y-159929582D01*
X78581993Y-160309183D01*
X78581991Y-160309194D01*
X78513751Y-160696200D01*
X78513751Y-160696204D01*
X78479500Y-161087699D01*
X64480500Y-161087699D01*
X64446249Y-160696207D01*
X64378007Y-160309185D01*
X64276293Y-159929584D01*
X64141881Y-159560292D01*
X64141876Y-159560283D01*
X64141875Y-159560278D01*
X63975804Y-159204137D01*
X63975792Y-159204113D01*
X63963455Y-159182746D01*
X63779300Y-158863779D01*
X63553889Y-158541859D01*
X63553888Y-158541858D01*
X63553884Y-158541852D01*
X63301275Y-158240806D01*
X63023393Y-157962924D01*
X62722347Y-157710315D01*
X62400427Y-157484904D01*
X62400424Y-157484902D01*
X62400421Y-157484900D01*
X62299305Y-157426520D01*
X62060086Y-157288407D01*
X62060062Y-157288395D01*
X61703921Y-157122324D01*
X61703910Y-157122320D01*
X61703908Y-157122319D01*
X61334616Y-156987907D01*
X61093960Y-156923423D01*
X60955016Y-156886193D01*
X60955005Y-156886191D01*
X60567997Y-156817951D01*
X60176500Y-156783700D01*
X60176496Y-156783700D01*
X59783504Y-156783700D01*
X59783499Y-156783700D01*
X59392004Y-156817951D01*
X59392000Y-156817951D01*
X59004994Y-156886191D01*
X59004983Y-156886193D01*
X58801555Y-156940702D01*
X58625384Y-156987907D01*
X58625381Y-156987908D01*
X58625380Y-156987908D01*
X58256078Y-157122324D01*
X57899937Y-157288395D01*
X57899913Y-157288407D01*
X57559587Y-157484895D01*
X57559572Y-157484904D01*
X57237652Y-157710315D01*
X56936606Y-157962924D01*
X56658724Y-158240806D01*
X56406115Y-158541852D01*
X56180704Y-158863772D01*
X56180695Y-158863787D01*
X55984207Y-159204113D01*
X55984195Y-159204137D01*
X55818124Y-159560278D01*
X55683708Y-159929580D01*
X55683708Y-159929582D01*
X55581993Y-160309183D01*
X55581991Y-160309194D01*
X55513751Y-160696200D01*
X55513751Y-160696204D01*
X55479500Y-161087699D01*
X41483200Y-161087699D01*
X41448949Y-160696207D01*
X41380707Y-160309185D01*
X41278993Y-159929584D01*
X41144581Y-159560292D01*
X41144576Y-159560283D01*
X41144575Y-159560278D01*
X40978504Y-159204137D01*
X40978492Y-159204113D01*
X40966155Y-159182746D01*
X40782000Y-158863779D01*
X40556589Y-158541859D01*
X40556588Y-158541858D01*
X40556584Y-158541852D01*
X40303975Y-158240806D01*
X40026093Y-157962924D01*
X39725047Y-157710315D01*
X39403127Y-157484904D01*
X39403124Y-157484902D01*
X39403121Y-157484900D01*
X39302005Y-157426520D01*
X39062786Y-157288407D01*
X39062762Y-157288395D01*
X38706621Y-157122324D01*
X38706610Y-157122320D01*
X38706608Y-157122319D01*
X38337316Y-156987907D01*
X38096660Y-156923423D01*
X37957716Y-156886193D01*
X37957705Y-156886191D01*
X37570697Y-156817951D01*
X37179200Y-156783700D01*
X37179196Y-156783700D01*
X36786204Y-156783700D01*
X36786199Y-156783700D01*
X36394704Y-156817951D01*
X36394700Y-156817951D01*
X36007694Y-156886191D01*
X36007683Y-156886193D01*
X35804255Y-156940702D01*
X35628084Y-156987907D01*
X35628081Y-156987908D01*
X35628080Y-156987908D01*
X35258778Y-157122324D01*
X34902637Y-157288395D01*
X34902613Y-157288407D01*
X34562287Y-157484895D01*
X34562272Y-157484904D01*
X34240352Y-157710315D01*
X33939306Y-157962924D01*
X33661424Y-158240806D01*
X33408815Y-158541852D01*
X33183404Y-158863772D01*
X33183395Y-158863787D01*
X32986907Y-159204113D01*
X32986895Y-159204137D01*
X32820824Y-159560278D01*
X32686408Y-159929580D01*
X32686408Y-159929582D01*
X32584693Y-160309183D01*
X32584691Y-160309194D01*
X32516451Y-160696200D01*
X32516451Y-160696204D01*
X32482200Y-161087699D01*
X21980000Y-161087699D01*
X21980000Y-153684108D01*
X122479500Y-153684108D01*
X122479500Y-192840891D01*
X122513608Y-192968187D01*
X122546554Y-193025250D01*
X122579500Y-193082314D01*
X122672686Y-193175500D01*
X122786814Y-193241392D01*
X122914108Y-193275500D01*
X122914110Y-193275500D01*
X162300890Y-193275500D01*
X162300892Y-193275500D01*
X162428186Y-193241392D01*
X162542314Y-193175500D01*
X162635500Y-193082314D01*
X162701392Y-192968186D01*
X162735500Y-192840892D01*
X162735500Y-153684108D01*
X162701392Y-153556814D01*
X162635500Y-153442686D01*
X162542314Y-153349500D01*
X162485250Y-153316554D01*
X162428187Y-153283608D01*
X162364539Y-153266554D01*
X162300892Y-153249500D01*
X123045892Y-153249500D01*
X122914108Y-153249500D01*
X122786812Y-153283608D01*
X122672686Y-153349500D01*
X122672683Y-153349502D01*
X122579502Y-153442683D01*
X122579500Y-153442686D01*
X122513608Y-153556812D01*
X122479500Y-153684108D01*
X21980000Y-153684108D01*
X21980000Y-143680441D01*
X129139500Y-143680441D01*
X129139500Y-143929558D01*
X129139501Y-143929575D01*
X129172017Y-144176561D01*
X129236498Y-144417207D01*
X129331830Y-144647361D01*
X129331837Y-144647376D01*
X129456400Y-144863126D01*
X129608060Y-145060774D01*
X129608066Y-145060781D01*
X129784218Y-145236933D01*
X129784225Y-145236939D01*
X129981873Y-145388599D01*
X130197623Y-145513162D01*
X130197638Y-145513169D01*
X130296825Y-145554253D01*
X130427793Y-145608502D01*
X130668435Y-145672982D01*
X130915435Y-145705500D01*
X130915442Y-145705500D01*
X131164558Y-145705500D01*
X131164565Y-145705500D01*
X131411565Y-145672982D01*
X131652207Y-145608502D01*
X131882373Y-145513164D01*
X132098127Y-145388599D01*
X132295776Y-145236938D01*
X132471938Y-145060776D01*
X132623599Y-144863127D01*
X132748164Y-144647373D01*
X132843502Y-144417207D01*
X132907982Y-144176565D01*
X132940500Y-143929565D01*
X132940500Y-143680441D01*
X152639500Y-143680441D01*
X152639500Y-143929558D01*
X152639501Y-143929575D01*
X152672017Y-144176561D01*
X152736498Y-144417207D01*
X152831830Y-144647361D01*
X152831837Y-144647376D01*
X152956400Y-144863126D01*
X153108060Y-145060774D01*
X153108066Y-145060781D01*
X153284218Y-145236933D01*
X153284225Y-145236939D01*
X153481873Y-145388599D01*
X153697623Y-145513162D01*
X153697638Y-145513169D01*
X153796825Y-145554253D01*
X153927793Y-145608502D01*
X154168435Y-145672982D01*
X154415435Y-145705500D01*
X154415442Y-145705500D01*
X154664558Y-145705500D01*
X154664565Y-145705500D01*
X154911565Y-145672982D01*
X155152207Y-145608502D01*
X155382373Y-145513164D01*
X155598127Y-145388599D01*
X155795776Y-145236938D01*
X155971938Y-145060776D01*
X156123599Y-144863127D01*
X156248164Y-144647373D01*
X156343502Y-144417207D01*
X156407982Y-144176565D01*
X156440500Y-143929565D01*
X156440500Y-143680435D01*
X156407982Y-143433435D01*
X156343502Y-143192793D01*
X156248164Y-142962627D01*
X156123599Y-142746873D01*
X155971938Y-142549224D01*
X155971933Y-142549218D01*
X155795781Y-142373066D01*
X155795774Y-142373060D01*
X155598126Y-142221400D01*
X155382376Y-142096837D01*
X155382361Y-142096830D01*
X155152207Y-142001498D01*
X154911561Y-141937017D01*
X154664575Y-141904501D01*
X154664570Y-141904500D01*
X154664565Y-141904500D01*
X154415435Y-141904500D01*
X154415429Y-141904500D01*
X154415424Y-141904501D01*
X154168438Y-141937017D01*
X153927792Y-142001498D01*
X153697638Y-142096830D01*
X153697623Y-142096837D01*
X153481873Y-142221400D01*
X153284225Y-142373060D01*
X153284218Y-142373066D01*
X153108066Y-142549218D01*
X153108060Y-142549225D01*
X152956400Y-142746873D01*
X152831837Y-142962623D01*
X152831830Y-142962638D01*
X152736498Y-143192792D01*
X152672017Y-143433438D01*
X152639501Y-143680424D01*
X152639500Y-143680441D01*
X132940500Y-143680441D01*
X132940500Y-143680435D01*
X132907982Y-143433435D01*
X132843502Y-143192793D01*
X132748164Y-142962627D01*
X132623599Y-142746873D01*
X132471938Y-142549224D01*
X132471933Y-142549218D01*
X132295781Y-142373066D01*
X132295774Y-142373060D01*
X132098126Y-142221400D01*
X131882376Y-142096837D01*
X131882361Y-142096830D01*
X131652207Y-142001498D01*
X131411561Y-141937017D01*
X131164575Y-141904501D01*
X131164570Y-141904500D01*
X131164565Y-141904500D01*
X130915435Y-141904500D01*
X130915429Y-141904500D01*
X130915424Y-141904501D01*
X130668438Y-141937017D01*
X130427792Y-142001498D01*
X130197638Y-142096830D01*
X130197623Y-142096837D01*
X129981873Y-142221400D01*
X129784225Y-142373060D01*
X129784218Y-142373066D01*
X129608066Y-142549218D01*
X129608060Y-142549225D01*
X129456400Y-142746873D01*
X129331837Y-142962623D01*
X129331830Y-142962638D01*
X129236498Y-143192792D01*
X129172017Y-143433438D01*
X129139501Y-143680424D01*
X129139500Y-143680441D01*
X21980000Y-143680441D01*
X21980000Y-122439108D01*
X128939500Y-122439108D01*
X128939500Y-137065891D01*
X128973608Y-137193187D01*
X129006554Y-137250250D01*
X129039500Y-137307314D01*
X129132686Y-137400500D01*
X129246814Y-137466392D01*
X129374108Y-137500500D01*
X129374110Y-137500500D01*
X156205890Y-137500500D01*
X156205892Y-137500500D01*
X156333186Y-137466392D01*
X156447314Y-137400500D01*
X156540500Y-137307314D01*
X156606392Y-137193186D01*
X156640500Y-137065892D01*
X156640500Y-122439108D01*
X156606392Y-122311814D01*
X156540500Y-122197686D01*
X156447314Y-122104500D01*
X156390250Y-122071554D01*
X156333187Y-122038608D01*
X156269539Y-122021554D01*
X156205892Y-122004500D01*
X156205891Y-122004500D01*
X155812375Y-122004500D01*
X155745336Y-121984815D01*
X155699581Y-121932011D01*
X155689637Y-121862853D01*
X155718662Y-121799297D01*
X155736889Y-121782124D01*
X155766433Y-121759453D01*
X155795776Y-121736938D01*
X155971938Y-121560776D01*
X156123599Y-121363127D01*
X156248164Y-121147373D01*
X156343502Y-120917207D01*
X156407982Y-120676565D01*
X156440500Y-120429565D01*
X156440500Y-120180435D01*
X156407982Y-119933435D01*
X156343502Y-119692793D01*
X156288747Y-119560603D01*
X156248169Y-119462638D01*
X156248162Y-119462623D01*
X156123599Y-119246873D01*
X155971939Y-119049225D01*
X155971933Y-119049218D01*
X155795781Y-118873066D01*
X155795774Y-118873060D01*
X155598126Y-118721400D01*
X155382376Y-118596837D01*
X155382361Y-118596830D01*
X155152207Y-118501498D01*
X154911561Y-118437017D01*
X154664575Y-118404501D01*
X154664570Y-118404500D01*
X154664565Y-118404500D01*
X154415435Y-118404500D01*
X154415429Y-118404500D01*
X154415424Y-118404501D01*
X154168438Y-118437017D01*
X153927792Y-118501498D01*
X153697638Y-118596830D01*
X153697623Y-118596837D01*
X153481873Y-118721400D01*
X153284225Y-118873060D01*
X153284218Y-118873066D01*
X153108066Y-119049218D01*
X153108060Y-119049225D01*
X152956400Y-119246873D01*
X152831837Y-119462623D01*
X152831830Y-119462638D01*
X152736498Y-119692792D01*
X152672017Y-119933438D01*
X152639501Y-120180424D01*
X152639500Y-120180441D01*
X152639500Y-120429558D01*
X152639501Y-120429575D01*
X152672017Y-120676561D01*
X152736498Y-120917207D01*
X152831830Y-121147361D01*
X152831837Y-121147376D01*
X152956400Y-121363126D01*
X153108060Y-121560774D01*
X153108066Y-121560781D01*
X153284218Y-121736933D01*
X153284225Y-121736939D01*
X153343111Y-121782124D01*
X153384314Y-121838552D01*
X153388469Y-121908298D01*
X153354257Y-121969218D01*
X153292540Y-122001971D01*
X153267625Y-122004500D01*
X132312375Y-122004500D01*
X132245336Y-121984815D01*
X132199581Y-121932011D01*
X132189637Y-121862853D01*
X132218662Y-121799297D01*
X132236889Y-121782124D01*
X132266433Y-121759453D01*
X132295776Y-121736938D01*
X132471938Y-121560776D01*
X132623599Y-121363127D01*
X132748164Y-121147373D01*
X132843502Y-120917207D01*
X132907982Y-120676565D01*
X132940500Y-120429565D01*
X132940500Y-120180435D01*
X132907982Y-119933435D01*
X132843502Y-119692793D01*
X132788747Y-119560603D01*
X132748169Y-119462638D01*
X132748162Y-119462623D01*
X132623599Y-119246873D01*
X132471939Y-119049225D01*
X132471933Y-119049218D01*
X132295781Y-118873066D01*
X132295774Y-118873060D01*
X132098126Y-118721400D01*
X131882376Y-118596837D01*
X131882361Y-118596830D01*
X131652207Y-118501498D01*
X131411561Y-118437017D01*
X131164575Y-118404501D01*
X131164570Y-118404500D01*
X131164565Y-118404500D01*
X130915435Y-118404500D01*
X130915429Y-118404500D01*
X130915424Y-118404501D01*
X130668438Y-118437017D01*
X130427792Y-118501498D01*
X130197638Y-118596830D01*
X130197623Y-118596837D01*
X129981873Y-118721400D01*
X129784225Y-118873060D01*
X129784218Y-118873066D01*
X129608066Y-119049218D01*
X129608060Y-119049225D01*
X129456400Y-119246873D01*
X129331837Y-119462623D01*
X129331830Y-119462638D01*
X129236498Y-119692792D01*
X129172017Y-119933438D01*
X129139501Y-120180424D01*
X129139500Y-120180441D01*
X129139500Y-120429558D01*
X129139501Y-120429575D01*
X129172017Y-120676561D01*
X129236498Y-120917207D01*
X129331830Y-121147361D01*
X129331837Y-121147376D01*
X129456400Y-121363126D01*
X129608060Y-121560774D01*
X129608066Y-121560781D01*
X129784218Y-121736933D01*
X129784225Y-121736939D01*
X129843111Y-121782124D01*
X129884314Y-121838552D01*
X129888469Y-121908298D01*
X129854257Y-121969218D01*
X129792540Y-122001971D01*
X129767625Y-122004500D01*
X129374108Y-122004500D01*
X129246812Y-122038608D01*
X129132686Y-122104500D01*
X129132683Y-122104502D01*
X129039502Y-122197683D01*
X129039500Y-122197686D01*
X128973608Y-122311812D01*
X128939500Y-122439108D01*
X21980000Y-122439108D01*
X21980000Y-117831519D01*
X22980000Y-117831519D01*
X22980000Y-118168480D01*
X23017725Y-118503297D01*
X23017727Y-118503313D01*
X23092705Y-118831814D01*
X23092709Y-118831826D01*
X23203995Y-119149862D01*
X23350191Y-119453440D01*
X23529461Y-119738747D01*
X23688397Y-119938048D01*
X24685747Y-118940697D01*
X24759588Y-119042330D01*
X24937670Y-119220412D01*
X25039300Y-119294251D01*
X24041950Y-120291601D01*
X24241252Y-120450538D01*
X24526559Y-120629808D01*
X24830137Y-120776004D01*
X25148173Y-120887290D01*
X25148185Y-120887294D01*
X25476686Y-120962272D01*
X25476702Y-120962274D01*
X25811519Y-120999999D01*
X25811521Y-121000000D01*
X26148479Y-121000000D01*
X26148480Y-120999999D01*
X26483297Y-120962274D01*
X26483313Y-120962272D01*
X26811814Y-120887294D01*
X26811826Y-120887290D01*
X27129862Y-120776004D01*
X27433440Y-120629808D01*
X27718747Y-120450538D01*
X27918048Y-120291600D01*
X26920698Y-119294251D01*
X27022330Y-119220412D01*
X27200412Y-119042330D01*
X27274251Y-118940698D01*
X28271600Y-119938048D01*
X28430538Y-119738747D01*
X28609808Y-119453440D01*
X28756004Y-119149862D01*
X28867290Y-118831826D01*
X28867294Y-118831814D01*
X28942272Y-118503313D01*
X28942274Y-118503297D01*
X28979999Y-118168480D01*
X28980000Y-118168478D01*
X28980000Y-117831521D01*
X28979999Y-117831519D01*
X165980000Y-117831519D01*
X165980000Y-118168480D01*
X166017725Y-118503297D01*
X166017727Y-118503313D01*
X166092705Y-118831814D01*
X166092709Y-118831826D01*
X166203995Y-119149862D01*
X166350191Y-119453440D01*
X166529461Y-119738747D01*
X166688397Y-119938048D01*
X167685747Y-118940697D01*
X167759588Y-119042330D01*
X167937670Y-119220412D01*
X168039300Y-119294251D01*
X167041950Y-120291601D01*
X167241252Y-120450538D01*
X167526559Y-120629808D01*
X167830137Y-120776004D01*
X168148173Y-120887290D01*
X168148185Y-120887294D01*
X168476686Y-120962272D01*
X168476702Y-120962274D01*
X168811519Y-120999999D01*
X168811521Y-121000000D01*
X169148479Y-121000000D01*
X169148480Y-120999999D01*
X169483297Y-120962274D01*
X169483313Y-120962272D01*
X169811814Y-120887294D01*
X169811826Y-120887290D01*
X170129862Y-120776004D01*
X170433440Y-120629808D01*
X170718747Y-120450538D01*
X170918048Y-120291600D01*
X169920698Y-119294251D01*
X170022330Y-119220412D01*
X170200412Y-119042330D01*
X170274251Y-118940699D01*
X171271600Y-119938048D01*
X171430538Y-119738747D01*
X171609808Y-119453440D01*
X171756004Y-119149862D01*
X171867290Y-118831826D01*
X171867294Y-118831814D01*
X171942272Y-118503313D01*
X171942274Y-118503297D01*
X171979999Y-118168480D01*
X171980000Y-118168478D01*
X171980000Y-117831521D01*
X171979999Y-117831519D01*
X171942274Y-117496702D01*
X171942272Y-117496686D01*
X171867294Y-117168185D01*
X171867290Y-117168173D01*
X171756004Y-116850137D01*
X171609808Y-116546559D01*
X171430538Y-116261252D01*
X171271601Y-116061950D01*
X170274250Y-117059300D01*
X170200412Y-116957670D01*
X170022330Y-116779588D01*
X169920697Y-116705747D01*
X170918048Y-115708397D01*
X170718747Y-115549461D01*
X170433440Y-115370191D01*
X170129862Y-115223995D01*
X169811826Y-115112709D01*
X169811814Y-115112705D01*
X169483313Y-115037727D01*
X169483297Y-115037725D01*
X169148480Y-115000000D01*
X168811519Y-115000000D01*
X168476702Y-115037725D01*
X168476686Y-115037727D01*
X168148185Y-115112705D01*
X168148173Y-115112709D01*
X167830137Y-115223995D01*
X167526559Y-115370191D01*
X167241252Y-115549461D01*
X167041950Y-115708397D01*
X168039301Y-116705748D01*
X167937670Y-116779588D01*
X167759588Y-116957670D01*
X167685748Y-117059301D01*
X166688397Y-116061950D01*
X166529461Y-116261252D01*
X166350191Y-116546559D01*
X166203995Y-116850137D01*
X166092709Y-117168173D01*
X166092705Y-117168185D01*
X166017727Y-117496686D01*
X166017725Y-117496702D01*
X165980000Y-117831519D01*
X28979999Y-117831519D01*
X28942274Y-117496702D01*
X28942272Y-117496686D01*
X28867294Y-117168185D01*
X28867290Y-117168173D01*
X28756004Y-116850137D01*
X28609808Y-116546559D01*
X28430538Y-116261252D01*
X28271601Y-116061950D01*
X27274250Y-117059300D01*
X27200412Y-116957670D01*
X27022330Y-116779588D01*
X26920697Y-116705747D01*
X27918048Y-115708397D01*
X27718747Y-115549461D01*
X27433440Y-115370191D01*
X27129862Y-115223995D01*
X26811826Y-115112709D01*
X26811814Y-115112705D01*
X26483313Y-115037727D01*
X26483297Y-115037725D01*
X26148480Y-115000000D01*
X25811519Y-115000000D01*
X25476702Y-115037725D01*
X25476686Y-115037727D01*
X25148185Y-115112705D01*
X25148173Y-115112709D01*
X24830137Y-115223995D01*
X24526559Y-115370191D01*
X24241252Y-115549461D01*
X24041950Y-115708397D01*
X25039301Y-116705748D01*
X24937670Y-116779588D01*
X24759588Y-116957670D01*
X24685748Y-117059301D01*
X23688397Y-116061950D01*
X23529461Y-116261252D01*
X23350191Y-116546559D01*
X23203995Y-116850137D01*
X23092709Y-117168173D01*
X23092705Y-117168185D01*
X23017727Y-117496686D01*
X23017725Y-117496702D01*
X22980000Y-117831519D01*
X21980000Y-117831519D01*
X21980000Y-114124000D01*
X21999685Y-114056961D01*
X22052489Y-114011206D01*
X22104000Y-114000000D01*
X172856000Y-114000000D01*
X172923039Y-114019685D01*
G37*
%TD.AperFunction*%
%TD*%
M02*
