%TF.GenerationSoftware,KiCad,Pcbnew,9.0.7*%
%TF.CreationDate,2026-03-23T14:49:23+00:00*%
%TF.ProjectId,MC8P_MIDI_CONTROLLER,4d433850-5f4d-4494-9449-5f434f4e5452,rev?*%
%TF.SameCoordinates,Original*%
%TF.FileFunction,Legend,Bot*%
%TF.FilePolarity,Positive*%
%FSLAX46Y46*%
G04 Gerber Fmt 4.6, Leading zero omitted, Abs format (unit mm)*
G04 Created by KiCad (PCBNEW 9.0.7) date 2026-03-23 14:49:23*
%MOMM*%
%LPD*%
G01*
G04 APERTURE LIST*
%ADD10C,0.300000*%
%ADD11C,0.200000*%
G04 APERTURE END LIST*
D10*
X22000000Y-206000000D02*
X173000000Y-206000000D01*
X173000000Y-294000000D01*
X22000000Y-294000000D01*
X22000000Y-206000000D01*
X21980000Y-114000000D02*
X172980000Y-114000000D01*
X172980000Y-202000000D01*
X21980000Y-202000000D01*
X21980000Y-114000000D01*
X21980000Y-22000000D02*
X172980000Y-22000000D01*
X172980000Y-110000000D01*
X21980000Y-110000000D01*
X21980000Y-22000000D01*
D11*
G36*
X164379467Y-26006439D02*
G01*
X164055296Y-25337397D01*
X163814106Y-25337397D01*
X164020491Y-26330000D01*
X164186821Y-26330000D01*
X164026598Y-25559291D01*
X164029101Y-25602950D01*
X164342953Y-26219419D01*
X164504642Y-26219419D01*
X164565092Y-25616627D01*
X164546468Y-25559291D01*
X164706692Y-26330000D01*
X164873082Y-26330000D01*
X164666697Y-25337397D01*
X164425446Y-25337397D01*
X164379467Y-26006439D01*
G37*
G36*
X163414647Y-26330000D02*
G01*
X163321346Y-25881264D01*
X163318726Y-25849325D01*
X163324477Y-25824848D01*
X163337650Y-25805610D01*
X163357096Y-25791710D01*
X163384635Y-25782477D01*
X163423012Y-25778988D01*
X163461955Y-25782080D01*
X163502575Y-25791627D01*
X163541691Y-25807124D01*
X163577557Y-25828203D01*
X163667438Y-25714202D01*
X163611129Y-25671627D01*
X163542264Y-25638853D01*
X163466864Y-25618754D01*
X163385582Y-25611926D01*
X163316667Y-25617054D01*
X163262709Y-25631037D01*
X163220689Y-25652437D01*
X163188295Y-25680802D01*
X163164419Y-25716588D01*
X163150119Y-25759466D01*
X163145918Y-25811459D01*
X163153674Y-25875158D01*
X163248257Y-26330000D01*
X163414647Y-26330000D01*
G37*
G36*
X163609980Y-26340746D02*
G01*
X163666249Y-26336607D01*
X163709052Y-26325468D01*
X163741280Y-26308663D01*
X163765136Y-26286646D01*
X163781792Y-26258922D01*
X163791670Y-26223629D01*
X163793776Y-26178532D01*
X163786079Y-26120867D01*
X163771069Y-26069031D01*
X163750157Y-26026179D01*
X163723638Y-25990926D01*
X163691313Y-25962292D01*
X163640258Y-25934404D01*
X163575959Y-25916433D01*
X163495064Y-25909902D01*
X163321285Y-25909902D01*
X163341557Y-26052540D01*
X163524007Y-26052540D01*
X163562356Y-26057120D01*
X163589525Y-26069392D01*
X163609190Y-26090051D01*
X163620971Y-26120561D01*
X163622376Y-26143007D01*
X163617091Y-26159688D01*
X163605584Y-26172463D01*
X163578491Y-26184374D01*
X163530357Y-26189316D01*
X163462248Y-26184452D01*
X163418128Y-26172280D01*
X163394454Y-26158174D01*
X163379138Y-26140602D01*
X163370744Y-26118974D01*
X163378133Y-26222044D01*
X163396482Y-26258726D01*
X163427470Y-26288967D01*
X163466719Y-26311688D01*
X163512772Y-26328046D01*
X163561434Y-26337591D01*
X163609980Y-26340746D01*
G37*
G36*
X162894410Y-25524975D02*
G01*
X162855392Y-25337397D01*
X162672271Y-25337397D01*
X162711289Y-25524975D01*
X162894410Y-25524975D01*
G37*
G36*
X163061777Y-26330000D02*
G01*
X162914743Y-25622672D01*
X162731622Y-25622672D01*
X162878656Y-26330000D01*
X163061777Y-26330000D01*
G37*
G36*
X162700969Y-26330000D02*
G01*
X162553935Y-25622672D01*
X162370814Y-25622672D01*
X162517848Y-26330000D01*
X162700969Y-26330000D01*
G37*
G36*
X162300045Y-26330000D02*
G01*
X162211018Y-25901659D01*
X162207569Y-25867136D01*
X162212108Y-25841010D01*
X162223292Y-25820936D01*
X162240759Y-25806004D01*
X162265459Y-25796302D01*
X162299923Y-25792665D01*
X162332749Y-25796074D01*
X162360587Y-25805816D01*
X162384492Y-25821730D01*
X162403942Y-25842999D01*
X162418862Y-25869806D01*
X162429127Y-25903307D01*
X162410382Y-25745587D01*
X162363874Y-25687332D01*
X162316714Y-25646730D01*
X162281728Y-25627649D01*
X162242347Y-25615974D01*
X162197524Y-25611926D01*
X162143766Y-25617258D01*
X162101735Y-25631961D01*
X162068821Y-25655121D01*
X162043407Y-25687274D01*
X162026927Y-25724986D01*
X162017847Y-25771517D01*
X162017409Y-25829106D01*
X162027653Y-25900376D01*
X162116985Y-26330000D01*
X162300045Y-26330000D01*
G37*
G36*
X161450690Y-26330000D02*
G01*
X161413138Y-26149260D01*
X161103072Y-26149260D01*
X161062236Y-26145564D01*
X161028136Y-26135130D01*
X160999452Y-26118424D01*
X160975741Y-26095412D01*
X160958332Y-26066944D01*
X160947062Y-26031901D01*
X160946634Y-26029886D01*
X160943323Y-25993070D01*
X160949167Y-25964851D01*
X160962937Y-25942752D01*
X160983719Y-25926512D01*
X161012994Y-25915859D01*
X161053674Y-25911856D01*
X161363740Y-25911856D01*
X161326188Y-25731116D01*
X161016121Y-25731116D01*
X160979311Y-25727628D01*
X160948401Y-25717742D01*
X160922210Y-25701807D01*
X160900682Y-25680042D01*
X160884614Y-25652876D01*
X160873972Y-25619192D01*
X160871318Y-25587608D01*
X160876834Y-25563424D01*
X160889542Y-25544453D01*
X160908369Y-25530680D01*
X160934932Y-25521571D01*
X160971852Y-25518136D01*
X161281919Y-25518136D01*
X161244305Y-25337397D01*
X160928255Y-25337397D01*
X160856748Y-25342649D01*
X160800723Y-25356971D01*
X160757070Y-25378874D01*
X160723396Y-25407861D01*
X160698483Y-25444515D01*
X160683539Y-25488404D01*
X160679057Y-25541605D01*
X160686943Y-25606796D01*
X160704085Y-25661998D01*
X160730513Y-25709340D01*
X160766505Y-25750045D01*
X160810189Y-25782548D01*
X160861590Y-25806641D01*
X160922149Y-25822158D01*
X160862829Y-25837615D01*
X160819196Y-25862855D01*
X160787815Y-25897506D01*
X160768387Y-25940326D01*
X160761152Y-25992749D01*
X160768093Y-26058035D01*
X160768520Y-26060050D01*
X160786725Y-26122601D01*
X160812756Y-26175863D01*
X160846432Y-26221180D01*
X160888138Y-26259474D01*
X160935992Y-26289495D01*
X160990341Y-26311458D01*
X161052310Y-26325188D01*
X161123283Y-26330000D01*
X161450690Y-26330000D01*
G37*
G36*
X161530863Y-26330000D02*
G01*
X161324478Y-25337397D01*
X161141418Y-25337397D01*
X161347803Y-26330000D01*
X161530863Y-26330000D01*
G37*
G36*
X160282524Y-25617265D02*
G01*
X160344778Y-25632610D01*
X160400092Y-25657418D01*
X160449539Y-25691793D01*
X160491892Y-25734487D01*
X160526861Y-25785416D01*
X160554590Y-25845734D01*
X160574713Y-25916985D01*
X160598649Y-26032267D01*
X160608454Y-26107325D01*
X160605304Y-26168438D01*
X160591397Y-26218510D01*
X160567691Y-26259902D01*
X160534054Y-26293611D01*
X160490514Y-26318637D01*
X160434742Y-26334830D01*
X160363504Y-26340746D01*
X160292917Y-26335389D01*
X160230639Y-26319991D01*
X160175289Y-26295089D01*
X160125795Y-26260573D01*
X160083425Y-26217708D01*
X160048403Y-26166554D01*
X160020596Y-26105950D01*
X160000376Y-26034344D01*
X159976013Y-25916985D01*
X159970964Y-25878062D01*
X160154989Y-25878062D01*
X160159134Y-25917168D01*
X160183497Y-26034160D01*
X160195091Y-26072353D01*
X160211818Y-26102868D01*
X160233506Y-26127034D01*
X160260191Y-26145174D01*
X160290786Y-26156182D01*
X160326379Y-26160006D01*
X160361280Y-26155868D01*
X160386588Y-26144680D01*
X160404781Y-26127034D01*
X160416003Y-26103868D01*
X160420273Y-26073751D01*
X160416017Y-26034160D01*
X160391653Y-25917168D01*
X160380170Y-25879413D01*
X160363588Y-25849239D01*
X160342072Y-25825333D01*
X160315607Y-25807360D01*
X160285273Y-25796454D01*
X160249993Y-25792665D01*
X160214721Y-25796778D01*
X160189158Y-25807879D01*
X160170797Y-25825333D01*
X160159389Y-25848284D01*
X160154989Y-25878062D01*
X159970964Y-25878062D01*
X159966370Y-25842648D01*
X159969659Y-25782185D01*
X159983685Y-25732685D01*
X160007520Y-25691793D01*
X160041174Y-25658539D01*
X160084754Y-25633805D01*
X160140604Y-25617782D01*
X160211952Y-25611926D01*
X160282524Y-25617265D01*
G37*
G36*
X159496992Y-26330000D02*
G01*
X159403691Y-25881264D01*
X159401071Y-25849325D01*
X159406822Y-25824848D01*
X159419994Y-25805610D01*
X159439441Y-25791710D01*
X159466980Y-25782477D01*
X159505357Y-25778988D01*
X159544300Y-25782080D01*
X159584919Y-25791627D01*
X159624036Y-25807124D01*
X159659902Y-25828203D01*
X159749783Y-25714202D01*
X159693474Y-25671627D01*
X159624609Y-25638853D01*
X159549209Y-25618754D01*
X159467927Y-25611926D01*
X159399011Y-25617054D01*
X159345054Y-25631037D01*
X159303034Y-25652437D01*
X159270640Y-25680802D01*
X159246764Y-25716588D01*
X159232464Y-25759466D01*
X159228263Y-25811459D01*
X159236018Y-25875158D01*
X159330601Y-26330000D01*
X159496992Y-26330000D01*
G37*
G36*
X159692325Y-26340746D02*
G01*
X159748593Y-26336607D01*
X159791397Y-26325468D01*
X159823624Y-26308663D01*
X159847480Y-26286646D01*
X159864137Y-26258922D01*
X159874014Y-26223629D01*
X159876121Y-26178532D01*
X159868424Y-26120867D01*
X159853414Y-26069031D01*
X159832502Y-26026179D01*
X159805982Y-25990926D01*
X159773658Y-25962292D01*
X159722603Y-25934404D01*
X159658304Y-25916433D01*
X159577409Y-25909902D01*
X159403630Y-25909902D01*
X159423902Y-26052540D01*
X159606352Y-26052540D01*
X159644700Y-26057120D01*
X159671870Y-26069392D01*
X159691535Y-26090051D01*
X159703316Y-26120561D01*
X159704721Y-26143007D01*
X159699436Y-26159688D01*
X159687929Y-26172463D01*
X159660836Y-26184374D01*
X159612702Y-26189316D01*
X159544592Y-26184452D01*
X159500472Y-26172280D01*
X159476798Y-26158174D01*
X159461483Y-26140602D01*
X159453089Y-26118974D01*
X159460478Y-26222044D01*
X159478826Y-26258726D01*
X159509815Y-26288967D01*
X159549064Y-26311688D01*
X159595116Y-26328046D01*
X159643779Y-26337591D01*
X159692325Y-26340746D01*
G37*
G36*
X159134047Y-26330000D02*
G01*
X158987013Y-25622672D01*
X158790580Y-25622672D01*
X158937615Y-26330000D01*
X159134047Y-26330000D01*
G37*
G36*
X158637807Y-25820020D02*
G01*
X158649588Y-25808355D01*
X158665894Y-25799626D01*
X158685022Y-25794537D01*
X158709614Y-25792665D01*
X158744982Y-25796837D01*
X158775735Y-25808958D01*
X158802976Y-25829241D01*
X158824936Y-25855660D01*
X158842227Y-25888992D01*
X158854572Y-25930662D01*
X158830148Y-25745587D01*
X158784574Y-25688672D01*
X158735321Y-25647402D01*
X158698683Y-25627248D01*
X158662879Y-25615696D01*
X158627243Y-25611926D01*
X158585793Y-25615625D01*
X158551894Y-25625969D01*
X158522533Y-25643406D01*
X158499138Y-25667369D01*
X158637807Y-25820020D01*
G37*
G36*
X158176615Y-26330000D02*
G01*
X157970230Y-25337397D01*
X157787109Y-25337397D01*
X157993494Y-26330000D01*
X158176615Y-26330000D01*
G37*
G36*
X158339891Y-26340746D02*
G01*
X158393926Y-26335138D01*
X158436261Y-26319627D01*
X158469532Y-26295031D01*
X158495291Y-26260573D01*
X158511664Y-26220610D01*
X158520492Y-26171215D01*
X158520424Y-26110037D01*
X158509335Y-26034344D01*
X158485826Y-25921076D01*
X158466225Y-25847519D01*
X158441289Y-25786023D01*
X158411559Y-25734922D01*
X158377260Y-25692831D01*
X158335669Y-25657053D01*
X158290888Y-25632085D01*
X158242147Y-25617060D01*
X158188339Y-25611926D01*
X158152807Y-25615803D01*
X158121802Y-25627040D01*
X158094305Y-25645692D01*
X158071694Y-25670401D01*
X158053598Y-25701898D01*
X158040205Y-25741557D01*
X158086917Y-25898545D01*
X158083033Y-25863929D01*
X158086306Y-25837484D01*
X158096631Y-25815123D01*
X158113417Y-25799077D01*
X158135733Y-25789405D01*
X158166418Y-25785826D01*
X158199302Y-25789867D01*
X158228063Y-25801663D01*
X158253735Y-25821547D01*
X158274270Y-25847294D01*
X158290794Y-25880246D01*
X158302950Y-25921931D01*
X158326275Y-26034160D01*
X158331291Y-26076287D01*
X158328036Y-26108075D01*
X158318276Y-26132163D01*
X158301501Y-26150915D01*
X158278064Y-26162567D01*
X158245614Y-26166845D01*
X158214128Y-26163517D01*
X158187178Y-26153961D01*
X158163758Y-26138282D01*
X158144375Y-26116653D01*
X158129915Y-26090248D01*
X158119951Y-26057547D01*
X158144253Y-26219296D01*
X158168641Y-26255682D01*
X158196527Y-26285366D01*
X158228089Y-26309056D01*
X158263234Y-26326675D01*
X158300289Y-26337192D01*
X158339891Y-26340746D01*
G37*
G36*
X164873082Y-118330000D02*
G01*
X164666697Y-117337397D01*
X164483637Y-117337397D01*
X164690022Y-118330000D01*
X164873082Y-118330000D01*
G37*
G36*
X164724216Y-117935303D02*
G01*
X164686664Y-117754563D01*
X164188897Y-117754563D01*
X164226449Y-117935303D01*
X164724216Y-117935303D01*
G37*
G36*
X164637510Y-117518136D02*
G01*
X164599897Y-117337397D01*
X164028613Y-117337397D01*
X164066226Y-117518136D01*
X164637510Y-117518136D01*
G37*
G36*
X164103900Y-118330000D02*
G01*
X163956866Y-117622672D01*
X163760434Y-117622672D01*
X163907468Y-118330000D01*
X164103900Y-118330000D01*
G37*
G36*
X163607660Y-117820020D02*
G01*
X163619442Y-117808355D01*
X163635748Y-117799626D01*
X163654875Y-117794537D01*
X163679467Y-117792665D01*
X163714835Y-117796837D01*
X163745588Y-117808958D01*
X163772829Y-117829241D01*
X163794789Y-117855660D01*
X163812080Y-117888992D01*
X163824426Y-117930662D01*
X163800001Y-117745587D01*
X163754428Y-117688672D01*
X163705174Y-117647402D01*
X163668537Y-117627248D01*
X163632733Y-117615696D01*
X163597096Y-117611926D01*
X163555646Y-117615625D01*
X163521748Y-117625969D01*
X163492387Y-117643406D01*
X163468991Y-117667369D01*
X163607660Y-117820020D01*
G37*
G36*
X163162635Y-117617265D02*
G01*
X163224890Y-117632610D01*
X163280203Y-117657418D01*
X163329651Y-117691793D01*
X163372003Y-117734487D01*
X163406973Y-117785416D01*
X163434702Y-117845734D01*
X163454825Y-117916985D01*
X163478761Y-118032267D01*
X163488566Y-118107325D01*
X163485416Y-118168438D01*
X163471509Y-118218510D01*
X163447803Y-118259902D01*
X163414166Y-118293611D01*
X163370625Y-118318637D01*
X163314853Y-118334830D01*
X163243616Y-118340746D01*
X163173029Y-118335389D01*
X163110750Y-118319991D01*
X163055401Y-118295089D01*
X163005907Y-118260573D01*
X162963537Y-118217708D01*
X162928515Y-118166554D01*
X162900708Y-118105950D01*
X162880488Y-118034344D01*
X162856125Y-117916985D01*
X162851076Y-117878062D01*
X163035101Y-117878062D01*
X163039246Y-117917168D01*
X163063609Y-118034160D01*
X163075203Y-118072353D01*
X163091930Y-118102868D01*
X163113618Y-118127034D01*
X163140303Y-118145174D01*
X163170898Y-118156182D01*
X163206491Y-118160006D01*
X163241392Y-118155868D01*
X163266699Y-118144680D01*
X163284893Y-118127034D01*
X163296114Y-118103868D01*
X163300384Y-118073751D01*
X163296128Y-118034160D01*
X163271765Y-117917168D01*
X163260282Y-117879413D01*
X163243700Y-117849239D01*
X163222184Y-117825333D01*
X163195718Y-117807360D01*
X163165385Y-117796454D01*
X163130104Y-117792665D01*
X163094833Y-117796778D01*
X163069269Y-117807879D01*
X163050908Y-117825333D01*
X163039501Y-117848284D01*
X163035101Y-117878062D01*
X162851076Y-117878062D01*
X162846482Y-117842648D01*
X162849770Y-117782185D01*
X162863797Y-117732685D01*
X162887632Y-117691793D01*
X162921286Y-117658539D01*
X162964866Y-117633805D01*
X163020715Y-117617782D01*
X163092063Y-117611926D01*
X163162635Y-117617265D01*
G37*
G36*
X162758611Y-118330000D02*
G01*
X162611577Y-117622672D01*
X162428456Y-117622672D01*
X162575490Y-118330000D01*
X162758611Y-118330000D01*
G37*
G36*
X162357686Y-118330000D02*
G01*
X162268660Y-117901659D01*
X162265210Y-117867136D01*
X162269749Y-117841010D01*
X162280933Y-117820936D01*
X162298400Y-117806004D01*
X162323100Y-117796302D01*
X162357564Y-117792665D01*
X162390390Y-117796074D01*
X162418228Y-117805816D01*
X162442133Y-117821730D01*
X162461584Y-117842999D01*
X162476503Y-117869806D01*
X162486769Y-117903307D01*
X162468023Y-117745587D01*
X162421516Y-117687332D01*
X162374356Y-117646730D01*
X162339369Y-117627649D01*
X162299988Y-117615974D01*
X162255165Y-117611926D01*
X162201407Y-117617258D01*
X162159376Y-117631961D01*
X162126462Y-117655121D01*
X162101048Y-117687274D01*
X162084569Y-117724986D01*
X162075488Y-117771517D01*
X162075051Y-117829106D01*
X162085294Y-117900376D01*
X162174626Y-118330000D01*
X162357686Y-118330000D01*
G37*
G36*
X161783227Y-118330000D02*
G01*
X161842762Y-118323561D01*
X161882204Y-118306900D01*
X161907424Y-118281823D01*
X161922072Y-118248187D01*
X161927202Y-118203322D01*
X161920186Y-118143215D01*
X161769122Y-117416531D01*
X161586001Y-117416531D01*
X161727173Y-118095710D01*
X161729287Y-118119333D01*
X161725403Y-118135033D01*
X161715606Y-118145500D01*
X161698902Y-118149260D01*
X161653473Y-118149260D01*
X161691025Y-118330000D01*
X161783227Y-118330000D01*
G37*
G36*
X161916767Y-117782896D02*
G01*
X161883489Y-117622672D01*
X161543991Y-117622672D01*
X161577269Y-117782896D01*
X161916767Y-117782896D01*
G37*
G36*
X160968372Y-117943119D02*
G01*
X160930758Y-117762379D01*
X160619959Y-117762379D01*
X160588281Y-117758656D01*
X160559530Y-117747654D01*
X160532887Y-117728979D01*
X160510956Y-117704715D01*
X160494635Y-117675668D01*
X160483855Y-117640929D01*
X160480000Y-117603987D01*
X160484336Y-117574871D01*
X160495640Y-117551536D01*
X160513634Y-117533400D01*
X160537509Y-117522195D01*
X160569218Y-117518136D01*
X160880017Y-117518136D01*
X160842404Y-117337397D01*
X160536367Y-117337397D01*
X160475930Y-117341994D01*
X160425610Y-117354879D01*
X160383593Y-117375193D01*
X160347132Y-117403804D01*
X160319146Y-117438770D01*
X160298963Y-117481011D01*
X160288067Y-117526884D01*
X160286040Y-117579649D01*
X160294139Y-117640929D01*
X160310780Y-117700015D01*
X160334564Y-117752854D01*
X160365458Y-117800237D01*
X160403157Y-117842306D01*
X160445947Y-117877315D01*
X160494296Y-117905689D01*
X160546396Y-117926315D01*
X160602159Y-117938844D01*
X160662336Y-117943119D01*
X160968372Y-117943119D01*
G37*
G36*
X161132259Y-118330000D02*
G01*
X160925874Y-117337397D01*
X160742814Y-117337397D01*
X160949199Y-118330000D01*
X161132259Y-118330000D01*
G37*
G36*
X159926859Y-118330000D02*
G01*
X159833558Y-117881264D01*
X159830938Y-117849325D01*
X159836689Y-117824848D01*
X159849862Y-117805610D01*
X159869308Y-117791710D01*
X159896847Y-117782477D01*
X159935225Y-117778988D01*
X159974168Y-117782080D01*
X160014787Y-117791627D01*
X160053903Y-117807124D01*
X160089769Y-117828203D01*
X160179651Y-117714202D01*
X160123341Y-117671627D01*
X160054476Y-117638853D01*
X159979076Y-117618754D01*
X159897794Y-117611926D01*
X159828879Y-117617054D01*
X159774921Y-117631037D01*
X159732901Y-117652437D01*
X159700507Y-117680802D01*
X159676632Y-117716588D01*
X159662331Y-117759466D01*
X159658130Y-117811459D01*
X159665886Y-117875158D01*
X159760469Y-118330000D01*
X159926859Y-118330000D01*
G37*
G36*
X160122192Y-118340746D02*
G01*
X160178461Y-118336607D01*
X160221264Y-118325468D01*
X160253492Y-118308663D01*
X160277348Y-118286646D01*
X160294004Y-118258922D01*
X160303882Y-118223629D01*
X160305988Y-118178532D01*
X160298292Y-118120867D01*
X160283282Y-118069031D01*
X160262369Y-118026179D01*
X160235850Y-117990926D01*
X160203525Y-117962292D01*
X160152470Y-117934404D01*
X160088171Y-117916433D01*
X160007276Y-117909902D01*
X159833497Y-117909902D01*
X159853770Y-118052540D01*
X160036219Y-118052540D01*
X160074568Y-118057120D01*
X160101737Y-118069392D01*
X160121402Y-118090051D01*
X160133183Y-118120561D01*
X160134589Y-118143007D01*
X160129303Y-118159688D01*
X160117796Y-118172463D01*
X160090703Y-118184374D01*
X160042569Y-118189316D01*
X159974460Y-118184452D01*
X159930340Y-118172280D01*
X159906666Y-118158174D01*
X159891351Y-118140602D01*
X159882957Y-118118974D01*
X159890345Y-118222044D01*
X159908694Y-118258726D01*
X159939682Y-118288967D01*
X159978931Y-118311688D01*
X160024984Y-118328046D01*
X160073646Y-118337591D01*
X160122192Y-118340746D01*
G37*
G36*
X159563914Y-118330000D02*
G01*
X159416880Y-117622672D01*
X159233759Y-117622672D01*
X159380793Y-118330000D01*
X159563914Y-118330000D01*
G37*
G36*
X159162990Y-118330000D02*
G01*
X159073963Y-117901659D01*
X159070514Y-117867136D01*
X159075053Y-117841010D01*
X159086236Y-117820936D01*
X159103704Y-117806004D01*
X159128403Y-117796302D01*
X159162868Y-117792665D01*
X159195694Y-117796074D01*
X159223532Y-117805816D01*
X159247437Y-117821730D01*
X159266887Y-117842999D01*
X159281807Y-117869806D01*
X159292072Y-117903307D01*
X159273326Y-117745587D01*
X159226819Y-117687332D01*
X159179659Y-117646730D01*
X159144673Y-117627649D01*
X159105292Y-117615974D01*
X159060469Y-117611926D01*
X159006711Y-117617258D01*
X158964680Y-117631961D01*
X158931765Y-117655121D01*
X158906352Y-117687274D01*
X158889872Y-117724986D01*
X158880792Y-117771517D01*
X158880354Y-117829106D01*
X158890598Y-117900376D01*
X158979930Y-118330000D01*
X159162990Y-118330000D01*
G37*
G36*
X158487231Y-118340746D02*
G01*
X158562882Y-118334652D01*
X158622162Y-118317983D01*
X158668454Y-118292287D01*
X158704241Y-118257826D01*
X158729757Y-118215228D01*
X158744836Y-118163704D01*
X158748554Y-118100789D01*
X158738618Y-118023414D01*
X158722009Y-117943607D01*
X158700328Y-117865619D01*
X158671078Y-117799875D01*
X158634734Y-117744656D01*
X158591278Y-117698632D01*
X158540029Y-117661099D01*
X158483135Y-117634203D01*
X158419519Y-117617661D01*
X158347768Y-117611926D01*
X158293074Y-117616588D01*
X158248214Y-117629621D01*
X158211282Y-117650221D01*
X158180912Y-117678465D01*
X158156404Y-117715301D01*
X158136796Y-117766597D01*
X158126480Y-117830103D01*
X158127221Y-117908802D01*
X158141688Y-118006133D01*
X158151336Y-118052540D01*
X158625717Y-118052540D01*
X158599521Y-117926510D01*
X158292203Y-117926510D01*
X158290737Y-117910146D01*
X158290646Y-117870123D01*
X158296990Y-117839341D01*
X158308628Y-117815685D01*
X158326438Y-117797416D01*
X158350555Y-117786061D01*
X158383122Y-117781919D01*
X158425619Y-117786577D01*
X158462141Y-117799996D01*
X158494009Y-117822158D01*
X158519811Y-117851536D01*
X158539953Y-117888947D01*
X158554153Y-117936097D01*
X158572838Y-118026161D01*
X158577657Y-118073777D01*
X158571554Y-118110018D01*
X158556352Y-118138025D01*
X158532471Y-118159044D01*
X158499193Y-118172562D01*
X158453281Y-118177592D01*
X158416570Y-118174355D01*
X158377749Y-118164281D01*
X158340074Y-118148170D01*
X158304293Y-118126301D01*
X158207329Y-118234867D01*
X158274484Y-118279919D01*
X158345204Y-118313086D01*
X158418445Y-118334049D01*
X158487231Y-118340746D01*
G37*
G36*
X157642517Y-117337397D02*
G01*
X157800115Y-118095343D01*
X157801032Y-118118789D01*
X157793886Y-118134972D01*
X157779553Y-118145330D01*
X157755968Y-118149260D01*
X157725193Y-118149260D01*
X157762745Y-118330000D01*
X157856290Y-118330000D01*
X157909621Y-118323798D01*
X157948154Y-118307084D01*
X157975725Y-118280846D01*
X157992774Y-118246319D01*
X157999320Y-118201387D01*
X157993005Y-118142238D01*
X157825638Y-117337397D01*
X157642517Y-117337397D01*
G37*
G36*
X164312909Y-210330000D02*
G01*
X164275357Y-210149260D01*
X163965291Y-210149260D01*
X163924455Y-210145564D01*
X163890355Y-210135130D01*
X163861671Y-210118424D01*
X163837960Y-210095412D01*
X163820551Y-210066944D01*
X163809281Y-210031901D01*
X163808853Y-210029886D01*
X163805542Y-209993070D01*
X163811386Y-209964851D01*
X163825157Y-209942752D01*
X163845938Y-209926512D01*
X163875213Y-209915859D01*
X163915893Y-209911856D01*
X164225959Y-209911856D01*
X164188407Y-209731116D01*
X163878340Y-209731116D01*
X163841530Y-209727628D01*
X163810620Y-209717742D01*
X163784429Y-209701807D01*
X163762901Y-209680042D01*
X163746833Y-209652876D01*
X163736191Y-209619192D01*
X163733537Y-209587608D01*
X163739053Y-209563424D01*
X163751762Y-209544453D01*
X163770588Y-209530680D01*
X163797151Y-209521571D01*
X163834071Y-209518136D01*
X164144138Y-209518136D01*
X164106524Y-209337397D01*
X163790474Y-209337397D01*
X163718967Y-209342649D01*
X163662942Y-209356971D01*
X163619289Y-209378874D01*
X163585615Y-209407861D01*
X163560703Y-209444515D01*
X163545758Y-209488404D01*
X163541276Y-209541605D01*
X163549162Y-209606796D01*
X163566304Y-209661998D01*
X163592732Y-209709340D01*
X163628724Y-209750045D01*
X163672408Y-209782548D01*
X163723809Y-209806641D01*
X163784368Y-209822158D01*
X163725048Y-209837615D01*
X163681415Y-209862855D01*
X163650034Y-209897506D01*
X163630607Y-209940326D01*
X163623371Y-209992749D01*
X163630312Y-210058035D01*
X163630739Y-210060050D01*
X163648944Y-210122601D01*
X163674975Y-210175863D01*
X163708651Y-210221180D01*
X163750357Y-210259474D01*
X163798212Y-210289495D01*
X163852560Y-210311458D01*
X163914529Y-210325188D01*
X163985502Y-210330000D01*
X164312909Y-210330000D01*
G37*
G36*
X164393082Y-210330000D02*
G01*
X164186697Y-209337397D01*
X164003637Y-209337397D01*
X164210022Y-210330000D01*
X164393082Y-210330000D01*
G37*
G36*
X163121249Y-210330000D02*
G01*
X163027948Y-209881264D01*
X163025327Y-209849325D01*
X163031079Y-209824848D01*
X163044251Y-209805610D01*
X163063698Y-209791710D01*
X163091237Y-209782477D01*
X163129614Y-209778988D01*
X163168557Y-209782080D01*
X163209176Y-209791627D01*
X163248292Y-209807124D01*
X163284159Y-209828203D01*
X163374040Y-209714202D01*
X163317731Y-209671627D01*
X163248866Y-209638853D01*
X163173465Y-209618754D01*
X163092184Y-209611926D01*
X163023268Y-209617054D01*
X162969311Y-209631037D01*
X162927291Y-209652437D01*
X162894897Y-209680802D01*
X162871021Y-209716588D01*
X162856721Y-209759466D01*
X162852520Y-209811459D01*
X162860275Y-209875158D01*
X162954858Y-210330000D01*
X163121249Y-210330000D01*
G37*
G36*
X163316582Y-210340746D02*
G01*
X163372850Y-210336607D01*
X163415653Y-210325468D01*
X163447881Y-210308663D01*
X163471737Y-210286646D01*
X163488393Y-210258922D01*
X163498271Y-210223629D01*
X163500378Y-210178532D01*
X163492681Y-210120867D01*
X163477671Y-210069031D01*
X163456758Y-210026179D01*
X163430239Y-209990926D01*
X163397915Y-209962292D01*
X163346860Y-209934404D01*
X163282560Y-209916433D01*
X163201666Y-209909902D01*
X163027887Y-209909902D01*
X163048159Y-210052540D01*
X163230608Y-210052540D01*
X163268957Y-210057120D01*
X163296127Y-210069392D01*
X163315791Y-210090051D01*
X163327573Y-210120561D01*
X163328978Y-210143007D01*
X163323692Y-210159688D01*
X163312185Y-210172463D01*
X163285093Y-210184374D01*
X163236959Y-210189316D01*
X163168849Y-210184452D01*
X163124729Y-210172280D01*
X163101055Y-210158174D01*
X163085740Y-210140602D01*
X163077346Y-210118974D01*
X163084734Y-210222044D01*
X163103083Y-210258726D01*
X163134071Y-210288967D01*
X163173321Y-210311688D01*
X163219373Y-210328046D01*
X163268036Y-210337591D01*
X163316582Y-210340746D01*
G37*
G36*
X162467227Y-210340746D02*
G01*
X162541510Y-210334478D01*
X162599734Y-210317303D01*
X162645268Y-210290703D01*
X162680512Y-210254773D01*
X162705232Y-210210862D01*
X162719697Y-210157621D01*
X162722846Y-210092527D01*
X162712325Y-210012484D01*
X162696571Y-209936769D01*
X162675201Y-209860747D01*
X162645909Y-209796470D01*
X162609107Y-209742277D01*
X162564680Y-209696922D01*
X162512653Y-209660287D01*
X162454569Y-209633894D01*
X162389309Y-209617592D01*
X162315430Y-209611926D01*
X162259162Y-209615430D01*
X162210095Y-209625409D01*
X162167175Y-209641296D01*
X162128139Y-209664214D01*
X162097674Y-209692074D01*
X162074668Y-209725193D01*
X162217245Y-209842552D01*
X162239681Y-209821825D01*
X162268597Y-209805854D01*
X162301238Y-209796044D01*
X162337840Y-209792665D01*
X162382691Y-209797120D01*
X162420691Y-209809821D01*
X162453244Y-209830462D01*
X162479850Y-209858305D01*
X162499981Y-209893285D01*
X162513572Y-209936891D01*
X162529204Y-210012362D01*
X162533985Y-210059026D01*
X162528225Y-210094405D01*
X162513756Y-210121599D01*
X162490826Y-210141991D01*
X162458713Y-210155115D01*
X162414227Y-210160006D01*
X162376940Y-210156509D01*
X162339488Y-210145840D01*
X162304079Y-210128622D01*
X162271894Y-210105296D01*
X162179509Y-210229494D01*
X162216169Y-210261944D01*
X162258292Y-210289339D01*
X162306516Y-210311742D01*
X162383691Y-210333389D01*
X162467227Y-210340746D01*
G37*
G36*
X161941311Y-210280907D02*
G01*
X161923237Y-210075132D01*
X161505765Y-209622672D01*
X161312020Y-209622672D01*
X161941311Y-210280907D01*
G37*
G36*
X162061723Y-210330000D02*
G01*
X161855338Y-209337397D01*
X161672217Y-209337397D01*
X161878602Y-210330000D01*
X162061723Y-210330000D01*
G37*
G36*
X161636741Y-210330000D02*
G01*
X161735903Y-209964734D01*
X161565605Y-209872105D01*
X161424921Y-210330000D01*
X161636741Y-210330000D01*
G37*
G36*
X160769740Y-209943119D02*
G01*
X160732126Y-209762379D01*
X160421327Y-209762379D01*
X160389648Y-209758656D01*
X160360898Y-209747654D01*
X160334255Y-209728979D01*
X160312323Y-209704715D01*
X160296003Y-209675668D01*
X160285223Y-209640929D01*
X160281368Y-209603987D01*
X160285704Y-209574871D01*
X160297008Y-209551536D01*
X160315002Y-209533400D01*
X160338877Y-209522195D01*
X160370586Y-209518136D01*
X160681385Y-209518136D01*
X160643771Y-209337397D01*
X160337735Y-209337397D01*
X160277297Y-209341994D01*
X160226978Y-209354879D01*
X160184961Y-209375193D01*
X160148500Y-209403804D01*
X160120513Y-209438770D01*
X160100331Y-209481011D01*
X160089434Y-209526884D01*
X160087408Y-209579649D01*
X160095507Y-209640929D01*
X160112148Y-209700015D01*
X160135932Y-209752854D01*
X160166826Y-209800237D01*
X160204525Y-209842306D01*
X160247314Y-209877315D01*
X160295664Y-209905689D01*
X160347764Y-209926315D01*
X160403527Y-209938844D01*
X160463703Y-209943119D01*
X160769740Y-209943119D01*
G37*
G36*
X160933627Y-210330000D02*
G01*
X160727241Y-209337397D01*
X160544181Y-209337397D01*
X160750566Y-210330000D01*
X160933627Y-210330000D01*
G37*
G36*
X159728227Y-210330000D02*
G01*
X159634926Y-209881264D01*
X159632306Y-209849325D01*
X159638057Y-209824848D01*
X159651229Y-209805610D01*
X159670676Y-209791710D01*
X159698215Y-209782477D01*
X159736592Y-209778988D01*
X159775535Y-209782080D01*
X159816154Y-209791627D01*
X159855271Y-209807124D01*
X159891137Y-209828203D01*
X159981018Y-209714202D01*
X159924709Y-209671627D01*
X159855844Y-209638853D01*
X159780444Y-209618754D01*
X159699162Y-209611926D01*
X159630247Y-209617054D01*
X159576289Y-209631037D01*
X159534269Y-209652437D01*
X159501875Y-209680802D01*
X159477999Y-209716588D01*
X159463699Y-209759466D01*
X159459498Y-209811459D01*
X159467254Y-209875158D01*
X159561837Y-210330000D01*
X159728227Y-210330000D01*
G37*
G36*
X159923560Y-210340746D02*
G01*
X159979829Y-210336607D01*
X160022632Y-210325468D01*
X160054859Y-210308663D01*
X160078715Y-210286646D01*
X160095372Y-210258922D01*
X160105250Y-210223629D01*
X160107356Y-210178532D01*
X160099659Y-210120867D01*
X160084649Y-210069031D01*
X160063737Y-210026179D01*
X160037218Y-209990926D01*
X160004893Y-209962292D01*
X159953838Y-209934404D01*
X159889539Y-209916433D01*
X159808644Y-209909902D01*
X159634865Y-209909902D01*
X159655137Y-210052540D01*
X159837587Y-210052540D01*
X159875935Y-210057120D01*
X159903105Y-210069392D01*
X159922770Y-210090051D01*
X159934551Y-210120561D01*
X159935956Y-210143007D01*
X159930671Y-210159688D01*
X159919164Y-210172463D01*
X159892071Y-210184374D01*
X159843937Y-210189316D01*
X159775828Y-210184452D01*
X159731707Y-210172280D01*
X159708034Y-210158174D01*
X159692718Y-210140602D01*
X159684324Y-210118974D01*
X159691713Y-210222044D01*
X159710062Y-210258726D01*
X159741050Y-210288967D01*
X159780299Y-210311688D01*
X159826352Y-210328046D01*
X159875014Y-210337591D01*
X159923560Y-210340746D01*
G37*
G36*
X159365282Y-210330000D02*
G01*
X159218248Y-209622672D01*
X159035127Y-209622672D01*
X159182161Y-210330000D01*
X159365282Y-210330000D01*
G37*
G36*
X158964357Y-210330000D02*
G01*
X158875331Y-209901659D01*
X158871882Y-209867136D01*
X158876421Y-209841010D01*
X158887604Y-209820936D01*
X158905072Y-209806004D01*
X158929771Y-209796302D01*
X158964235Y-209792665D01*
X158997062Y-209796074D01*
X159024900Y-209805816D01*
X159048804Y-209821730D01*
X159068255Y-209842999D01*
X159083174Y-209869806D01*
X159093440Y-209903307D01*
X159074694Y-209745587D01*
X159028187Y-209687332D01*
X158981027Y-209646730D01*
X158946040Y-209627649D01*
X158906659Y-209615974D01*
X158861837Y-209611926D01*
X158808078Y-209617258D01*
X158766047Y-209631961D01*
X158733133Y-209655121D01*
X158707719Y-209687274D01*
X158691240Y-209724986D01*
X158682160Y-209771517D01*
X158681722Y-209829106D01*
X158691966Y-209900376D01*
X158781297Y-210330000D01*
X158964357Y-210330000D01*
G37*
G36*
X158288599Y-210340746D02*
G01*
X158364250Y-210334652D01*
X158423530Y-210317983D01*
X158469821Y-210292287D01*
X158505608Y-210257826D01*
X158531125Y-210215228D01*
X158546203Y-210163704D01*
X158549921Y-210100789D01*
X158539986Y-210023414D01*
X158523377Y-209943607D01*
X158501696Y-209865619D01*
X158472446Y-209799875D01*
X158436102Y-209744656D01*
X158392646Y-209698632D01*
X158341397Y-209661099D01*
X158284503Y-209634203D01*
X158220887Y-209617661D01*
X158149136Y-209611926D01*
X158094442Y-209616588D01*
X158049581Y-209629621D01*
X158012650Y-209650221D01*
X157982280Y-209678465D01*
X157957772Y-209715301D01*
X157938164Y-209766597D01*
X157927847Y-209830103D01*
X157928589Y-209908802D01*
X157943056Y-210006133D01*
X157952704Y-210052540D01*
X158427084Y-210052540D01*
X158400889Y-209926510D01*
X158093571Y-209926510D01*
X158092105Y-209910146D01*
X158092014Y-209870123D01*
X158098358Y-209839341D01*
X158109996Y-209815685D01*
X158127805Y-209797416D01*
X158151923Y-209786061D01*
X158184490Y-209781919D01*
X158226987Y-209786577D01*
X158263508Y-209799996D01*
X158295376Y-209822158D01*
X158321178Y-209851536D01*
X158341321Y-209888947D01*
X158355521Y-209936097D01*
X158374206Y-210026161D01*
X158379024Y-210073777D01*
X158372922Y-210110018D01*
X158357719Y-210138025D01*
X158333839Y-210159044D01*
X158300561Y-210172562D01*
X158254649Y-210177592D01*
X158217938Y-210174355D01*
X158179117Y-210164281D01*
X158141442Y-210148170D01*
X158105661Y-210126301D01*
X158008696Y-210234867D01*
X158075852Y-210279919D01*
X158146571Y-210313086D01*
X158219813Y-210334049D01*
X158288599Y-210340746D01*
G37*
G36*
X157443885Y-209337397D02*
G01*
X157601482Y-210095343D01*
X157602400Y-210118789D01*
X157595254Y-210134972D01*
X157580921Y-210145330D01*
X157557336Y-210149260D01*
X157526561Y-210149260D01*
X157564113Y-210330000D01*
X157657658Y-210330000D01*
X157710989Y-210323798D01*
X157749522Y-210307084D01*
X157777093Y-210280846D01*
X157794142Y-210246319D01*
X157800688Y-210201387D01*
X157794373Y-210142238D01*
X157627006Y-209337397D01*
X157443885Y-209337397D01*
G37*
M02*
