M48
; DRILL file {KiCad 9.0.2} date 2025-08-22T18:27:50+0100
; FORMAT={-:-/ absolute / inch / decimal}
; #@! TF.CreationDate,2025-08-22T18:27:50+01:00
; #@! TF.GenerationSoftware,Kicad,Pcbnew,9.0.2
; #@! TF.FileFunction,NonPlated,1,2,NPTH
FMAT,2
INCH
; #@! TA.AperFunction,NonPlated,NPTH,ComponentDrill
T1C0.0472
; #@! TA.AperFunction,NonPlated,NPTH,ComponentDrill
T2C0.0669
; #@! TA.AperFunction,NonPlated,NPTH,ComponentDrill
T3C0.0984
; #@! TA.AperFunction,NonPlated,NPTH,ComponentDrill
T4C0.1575
%
G90
G05
T1
X1.3181Y-0.9449
X1.3181Y-1.0433
X1.515Y-1.2402
X1.7118Y-0.9449
X1.7118Y-1.0433
T2
X5.0157Y-2.8051
X5.0157Y-3.5925
X5.4157Y-2.8051
X5.4157Y-3.5925
X5.8122Y-2.8051
X5.8122Y-3.5925
X6.2122Y-2.8051
X6.2122Y-3.5925
T3
X5.1591Y-1.1144
X5.1591Y-2.0396
X6.0843Y-1.1144
X6.0843Y-2.0396
T4
X5.2157Y-2.8051
X5.2157Y-3.5925
X6.0122Y-2.8051
X6.0122Y-3.5925
M30
