%TF.GenerationSoftware,KiCad,Pcbnew,9.0.2*%
%TF.CreationDate,2025-08-22T18:27:53+01:00*%
%TF.ProjectId,MC8P_MIDI_CONTROLLER,4d433850-5f4d-4494-9449-5f434f4e5452,rev?*%
%TF.SameCoordinates,Original*%
%TF.FileFunction,Legend,Top*%
%TF.FilePolarity,Positive*%
%FSLAX46Y46*%
G04 Gerber Fmt 4.6, Leading zero omitted, Abs format (unit mm)*
G04 Created by KiCad (PCBNEW 9.0.2) date 2025-08-22 18:27:53*
%MOMM*%
%LPD*%
G01*
G04 APERTURE LIST*
%ADD10C,0.300000*%
%ADD11C,0.200000*%
%ADD12C,0.152400*%
%ADD13C,0.150000*%
%ADD14C,0.114000*%
%ADD15C,0.120000*%
%ADD16C,0.100000*%
G04 APERTURE END LIST*
D10*
X21980000Y-22000000D02*
X172980000Y-22000000D01*
X172980000Y-110000000D01*
X21980000Y-110000000D01*
X21980000Y-22000000D01*
D11*
G36*
X158814944Y-25336725D02*
G01*
X159056134Y-25336725D01*
X158849627Y-26330000D01*
X158683297Y-26330000D01*
X158843643Y-25558742D01*
X158841139Y-25602461D01*
X158527165Y-26219357D01*
X158365476Y-26219357D01*
X158305148Y-25616139D01*
X158323772Y-25558742D01*
X158163426Y-26330000D01*
X157997036Y-26330000D01*
X158203543Y-25336725D01*
X158444794Y-25336725D01*
X158490651Y-26006195D01*
X158814944Y-25336725D01*
G37*
G36*
X159548894Y-25880532D02*
G01*
X159551542Y-25848511D01*
X159545789Y-25823976D01*
X159532591Y-25804694D01*
X159513140Y-25790757D01*
X159485618Y-25781505D01*
X159447289Y-25778011D01*
X159408494Y-25781184D01*
X159367727Y-25791017D01*
X159328469Y-25806643D01*
X159292744Y-25827226D01*
X159202863Y-25713164D01*
X159259108Y-25670509D01*
X159328098Y-25637693D01*
X159403635Y-25617540D01*
X159484780Y-25610704D01*
X159544788Y-25614577D01*
X159593632Y-25625276D01*
X159633280Y-25641784D01*
X159668081Y-25665941D01*
X159694144Y-25695751D01*
X159712414Y-25731971D01*
X159722137Y-25771839D01*
X159723961Y-25818739D01*
X159716567Y-25874364D01*
X159621861Y-26330000D01*
X159455471Y-26330000D01*
X159548894Y-25880532D01*
G37*
G36*
X159260260Y-26340258D02*
G01*
X159203651Y-26336092D01*
X159160739Y-26324899D01*
X159128561Y-26308039D01*
X159104860Y-26285975D01*
X159088292Y-26258144D01*
X159078488Y-26222899D01*
X159076411Y-26178073D01*
X159084039Y-26120989D01*
X159098903Y-26069686D01*
X159119721Y-26027112D01*
X159146221Y-25991932D01*
X159178622Y-25963208D01*
X159229733Y-25935181D01*
X159294055Y-25917130D01*
X159374932Y-25910573D01*
X159548711Y-25910573D01*
X159528377Y-26053333D01*
X159345928Y-26053333D01*
X159307381Y-26057897D01*
X159280349Y-26070064D01*
X159260793Y-26090596D01*
X159249086Y-26120989D01*
X159247665Y-26143277D01*
X159252909Y-26159838D01*
X159264351Y-26172524D01*
X159291362Y-26184334D01*
X159339761Y-26189255D01*
X159408671Y-26184362D01*
X159452479Y-26172219D01*
X159475836Y-26158144D01*
X159491010Y-26140577D01*
X159499374Y-26118913D01*
X159491985Y-26222044D01*
X159474312Y-26256973D01*
X159444053Y-26286952D01*
X159405600Y-26309964D01*
X159359545Y-26326946D01*
X159310499Y-26336923D01*
X159260260Y-26340258D01*
G37*
G36*
X160014848Y-25336725D02*
G01*
X160197969Y-25336725D01*
X160159073Y-25523937D01*
X159975952Y-25523937D01*
X160014848Y-25336725D01*
G37*
G36*
X159955741Y-25620901D02*
G01*
X160138862Y-25620901D01*
X159991462Y-26330000D01*
X159808341Y-26330000D01*
X159955741Y-25620901D01*
G37*
G36*
X160316549Y-25620901D02*
G01*
X160499670Y-25620901D01*
X160352270Y-26330000D01*
X160169149Y-26330000D01*
X160316549Y-25620901D01*
G37*
G36*
X160659405Y-25900315D02*
G01*
X160662793Y-25866168D01*
X160658262Y-25840041D01*
X160647071Y-25819715D01*
X160629567Y-25804532D01*
X160604881Y-25794697D01*
X160570501Y-25791017D01*
X160537714Y-25794423D01*
X160509873Y-25804163D01*
X160485931Y-25820081D01*
X160466481Y-25841351D01*
X160451562Y-25868158D01*
X160441296Y-25901659D01*
X160459920Y-25744549D01*
X160508347Y-25684147D01*
X160555907Y-25644166D01*
X160591040Y-25625741D01*
X160629726Y-25614552D01*
X160672838Y-25610704D01*
X160726486Y-25616039D01*
X160768470Y-25630755D01*
X160801384Y-25653951D01*
X160826833Y-25686175D01*
X160843334Y-25723947D01*
X160852423Y-25770555D01*
X160852855Y-25828245D01*
X160842587Y-25899644D01*
X160753133Y-26330000D01*
X160570073Y-26330000D01*
X160659405Y-25900315D01*
G37*
G36*
X161456919Y-26149626D02*
G01*
X161766985Y-26149626D01*
X161807805Y-26145904D01*
X161841904Y-26135392D01*
X161870605Y-26118546D01*
X161894343Y-26095410D01*
X161911798Y-26066762D01*
X161923117Y-26031474D01*
X161923545Y-26029398D01*
X161926903Y-25993334D01*
X161921530Y-25965223D01*
X161907640Y-25941931D01*
X161884893Y-25924617D01*
X161855817Y-25914375D01*
X161816689Y-25910573D01*
X161506622Y-25910573D01*
X161544114Y-25730200D01*
X161854180Y-25730200D01*
X161890986Y-25726706D01*
X161921896Y-25716800D01*
X161948091Y-25700830D01*
X161969625Y-25679066D01*
X161985714Y-25651900D01*
X161996390Y-25618215D01*
X161998959Y-25587038D01*
X161993451Y-25562896D01*
X161980759Y-25543721D01*
X161961942Y-25529776D01*
X161935400Y-25520568D01*
X161898510Y-25517098D01*
X161588444Y-25517098D01*
X161625935Y-25336725D01*
X161941985Y-25336725D01*
X162004234Y-25340685D01*
X162055044Y-25351634D01*
X162096408Y-25368538D01*
X162132775Y-25393292D01*
X162159879Y-25423779D01*
X162178779Y-25460739D01*
X162188872Y-25501564D01*
X162190835Y-25549380D01*
X162183358Y-25605881D01*
X162166191Y-25661109D01*
X162139578Y-25708707D01*
X162103778Y-25749312D01*
X162059161Y-25782163D01*
X162007851Y-25805938D01*
X161948213Y-25821058D01*
X162006218Y-25836097D01*
X162049818Y-25861053D01*
X162073119Y-25883833D01*
X162090561Y-25910599D01*
X162102453Y-25942020D01*
X162109030Y-25993858D01*
X162102147Y-26057424D01*
X162101720Y-26059501D01*
X162086145Y-26114803D01*
X162064279Y-26163232D01*
X162036263Y-26205680D01*
X162001725Y-26242857D01*
X161961460Y-26273615D01*
X161914813Y-26298248D01*
X161864707Y-26315533D01*
X161809009Y-26326271D01*
X161746835Y-26330000D01*
X161419428Y-26330000D01*
X161456919Y-26149626D01*
G37*
G36*
X161545762Y-25336725D02*
G01*
X161728822Y-25336725D01*
X161522315Y-26330000D01*
X161339255Y-26330000D01*
X161545762Y-25336725D01*
G37*
G36*
X162720858Y-25615146D02*
G01*
X162771685Y-25627446D01*
X162813016Y-25646547D01*
X162848498Y-25674090D01*
X162875098Y-25708549D01*
X162893494Y-25751083D01*
X162902581Y-25797223D01*
X162903355Y-25851594D01*
X162894349Y-25916008D01*
X162869864Y-26033550D01*
X162852630Y-26096674D01*
X162829374Y-26151548D01*
X162800377Y-26199207D01*
X162764466Y-26241556D01*
X162723275Y-26276328D01*
X162676301Y-26304049D01*
X162625368Y-26323837D01*
X162569158Y-26336039D01*
X162506736Y-26340258D01*
X162444313Y-26335773D01*
X162393509Y-26323351D01*
X162352191Y-26304049D01*
X162316826Y-26276269D01*
X162290296Y-26241495D01*
X162271957Y-26198536D01*
X162263004Y-26151921D01*
X162262381Y-26096850D01*
X162265692Y-26073344D01*
X162449869Y-26073344D01*
X162453964Y-26103582D01*
X162464909Y-26126789D01*
X162482879Y-26144459D01*
X162508222Y-26155705D01*
X162543555Y-26159884D01*
X162579263Y-26156043D01*
X162609914Y-26144993D01*
X162636612Y-26126789D01*
X162658334Y-26102540D01*
X162675103Y-26071906D01*
X162686743Y-26033550D01*
X162711228Y-25916008D01*
X162715409Y-25876733D01*
X162711025Y-25846837D01*
X162699627Y-25823806D01*
X162681251Y-25806290D01*
X162655632Y-25795147D01*
X162620248Y-25791017D01*
X162584977Y-25794819D01*
X162554665Y-25805764D01*
X162528229Y-25823806D01*
X162506788Y-25847782D01*
X162490222Y-25878075D01*
X162478709Y-25916008D01*
X162454224Y-26033550D01*
X162449869Y-26073344D01*
X162265692Y-26073344D01*
X162271591Y-26031474D01*
X162295649Y-25916008D01*
X162312756Y-25853337D01*
X162335945Y-25798696D01*
X162364953Y-25751083D01*
X162400875Y-25708716D01*
X162442026Y-25674053D01*
X162488906Y-25646547D01*
X162539780Y-25626966D01*
X162595971Y-25614884D01*
X162658411Y-25610704D01*
X162720858Y-25615146D01*
G37*
G36*
X163466549Y-25880532D02*
G01*
X163469197Y-25848511D01*
X163463444Y-25823976D01*
X163450246Y-25804694D01*
X163430795Y-25790757D01*
X163403273Y-25781505D01*
X163364944Y-25778011D01*
X163326150Y-25781184D01*
X163285382Y-25791017D01*
X163246125Y-25806643D01*
X163210399Y-25827226D01*
X163120518Y-25713164D01*
X163176763Y-25670509D01*
X163245754Y-25637693D01*
X163321290Y-25617540D01*
X163402435Y-25610704D01*
X163462443Y-25614577D01*
X163511287Y-25625276D01*
X163550935Y-25641784D01*
X163585736Y-25665941D01*
X163611799Y-25695751D01*
X163630070Y-25731971D01*
X163639793Y-25771839D01*
X163641616Y-25818739D01*
X163634222Y-25874364D01*
X163539517Y-26330000D01*
X163373126Y-26330000D01*
X163466549Y-25880532D01*
G37*
G36*
X163177915Y-26340258D02*
G01*
X163121307Y-26336092D01*
X163078394Y-26324899D01*
X163046216Y-26308039D01*
X163022516Y-26285975D01*
X163005947Y-26258144D01*
X162996143Y-26222899D01*
X162994066Y-26178073D01*
X163001694Y-26120989D01*
X163016558Y-26069686D01*
X163037376Y-26027112D01*
X163063876Y-25991932D01*
X163096277Y-25963208D01*
X163147388Y-25935181D01*
X163211710Y-25917130D01*
X163292587Y-25910573D01*
X163466366Y-25910573D01*
X163446033Y-26053333D01*
X163263583Y-26053333D01*
X163225036Y-26057897D01*
X163198004Y-26070064D01*
X163178448Y-26090596D01*
X163166741Y-26120989D01*
X163165320Y-26143277D01*
X163170564Y-26159838D01*
X163182006Y-26172524D01*
X163209018Y-26184334D01*
X163257416Y-26189255D01*
X163326326Y-26184362D01*
X163370134Y-26172219D01*
X163393491Y-26158144D01*
X163408665Y-26140577D01*
X163417029Y-26118913D01*
X163409640Y-26222044D01*
X163391967Y-26256973D01*
X163361708Y-26286952D01*
X163323255Y-26309964D01*
X163277200Y-26326946D01*
X163228155Y-26336923D01*
X163177915Y-26340258D01*
G37*
G36*
X163883472Y-25620901D02*
G01*
X164079904Y-25620901D01*
X163932503Y-26330000D01*
X163736071Y-26330000D01*
X163883472Y-25620901D01*
G37*
G36*
X164232678Y-25818372D02*
G01*
X164220494Y-25806546D01*
X164204162Y-25797855D01*
X164185131Y-25792852D01*
X164160809Y-25791017D01*
X164125322Y-25795194D01*
X164094532Y-25807321D01*
X164067325Y-25827592D01*
X164045438Y-25854002D01*
X164028186Y-25887333D01*
X164015851Y-25929014D01*
X164040153Y-25744549D01*
X164085995Y-25687025D01*
X164135225Y-25645875D01*
X164171804Y-25625899D01*
X164207550Y-25614444D01*
X164243119Y-25610704D01*
X164284734Y-25614393D01*
X164318651Y-25624687D01*
X164347986Y-25642081D01*
X164371286Y-25666025D01*
X164232678Y-25818372D01*
G37*
G36*
X164900010Y-25336725D02*
G01*
X165083131Y-25336725D01*
X164876624Y-26330000D01*
X164693503Y-26330000D01*
X164900010Y-25336725D01*
G37*
G36*
X164530349Y-26340258D02*
G01*
X164482562Y-26335857D01*
X164443683Y-26323562D01*
X164411891Y-26304049D01*
X164386146Y-26277187D01*
X164366761Y-26242799D01*
X164353883Y-26199207D01*
X164348922Y-26153342D01*
X164350807Y-26098679D01*
X164360905Y-26033550D01*
X164384536Y-25920099D01*
X164401110Y-25856015D01*
X164421950Y-25800585D01*
X164446696Y-25752793D01*
X164477496Y-25708981D01*
X164511396Y-25674029D01*
X164548545Y-25646913D01*
X164589798Y-25626882D01*
X164634029Y-25614814D01*
X164682024Y-25610704D01*
X164717710Y-25614596D01*
X164748749Y-25625860D01*
X164776179Y-25644532D01*
X164798709Y-25669235D01*
X164816746Y-25700749D01*
X164830096Y-25740458D01*
X164783384Y-25897568D01*
X164787379Y-25862709D01*
X164784178Y-25836079D01*
X164773930Y-25813611D01*
X164757128Y-25797489D01*
X164734704Y-25787768D01*
X164704005Y-25784178D01*
X164671212Y-25788232D01*
X164642470Y-25800080D01*
X164616750Y-25820081D01*
X164596149Y-25845918D01*
X164579584Y-25878990D01*
X164567413Y-25920832D01*
X164543965Y-26033550D01*
X164538912Y-26075845D01*
X164542151Y-26107752D01*
X164551903Y-26131919D01*
X164568720Y-26150753D01*
X164592145Y-26162438D01*
X164624504Y-26166723D01*
X164656004Y-26163383D01*
X164683062Y-26153778D01*
X164706568Y-26137970D01*
X164725926Y-26116226D01*
X164740334Y-26089690D01*
X164750289Y-26056753D01*
X164725987Y-26218625D01*
X164687619Y-26270754D01*
X164641785Y-26308506D01*
X164606870Y-26326149D01*
X164569941Y-26336691D01*
X164530349Y-26340258D01*
G37*
D12*
X35832095Y-40479332D02*
X35348286Y-40817999D01*
X35832095Y-41059904D02*
X34816095Y-41059904D01*
X34816095Y-41059904D02*
X34816095Y-40672856D01*
X34816095Y-40672856D02*
X34864476Y-40576094D01*
X34864476Y-40576094D02*
X34912857Y-40527713D01*
X34912857Y-40527713D02*
X35009619Y-40479332D01*
X35009619Y-40479332D02*
X35154762Y-40479332D01*
X35154762Y-40479332D02*
X35251524Y-40527713D01*
X35251524Y-40527713D02*
X35299905Y-40576094D01*
X35299905Y-40576094D02*
X35348286Y-40672856D01*
X35348286Y-40672856D02*
X35348286Y-41059904D01*
X34816095Y-39560094D02*
X34816095Y-40043904D01*
X34816095Y-40043904D02*
X35299905Y-40092285D01*
X35299905Y-40092285D02*
X35251524Y-40043904D01*
X35251524Y-40043904D02*
X35203143Y-39947142D01*
X35203143Y-39947142D02*
X35203143Y-39705237D01*
X35203143Y-39705237D02*
X35251524Y-39608475D01*
X35251524Y-39608475D02*
X35299905Y-39560094D01*
X35299905Y-39560094D02*
X35396667Y-39511713D01*
X35396667Y-39511713D02*
X35638572Y-39511713D01*
X35638572Y-39511713D02*
X35735334Y-39560094D01*
X35735334Y-39560094D02*
X35783715Y-39608475D01*
X35783715Y-39608475D02*
X35832095Y-39705237D01*
X35832095Y-39705237D02*
X35832095Y-39947142D01*
X35832095Y-39947142D02*
X35783715Y-40043904D01*
X35783715Y-40043904D02*
X35735334Y-40092285D01*
X32232095Y-43237046D02*
X32232095Y-43817618D01*
X32232095Y-43527332D02*
X31216095Y-43527332D01*
X31216095Y-43527332D02*
X31361238Y-43624094D01*
X31361238Y-43624094D02*
X31458000Y-43720856D01*
X31458000Y-43720856D02*
X31506381Y-43817618D01*
X31216095Y-42608094D02*
X31216095Y-42511332D01*
X31216095Y-42511332D02*
X31264476Y-42414570D01*
X31264476Y-42414570D02*
X31312857Y-42366189D01*
X31312857Y-42366189D02*
X31409619Y-42317808D01*
X31409619Y-42317808D02*
X31603143Y-42269427D01*
X31603143Y-42269427D02*
X31845048Y-42269427D01*
X31845048Y-42269427D02*
X32038572Y-42317808D01*
X32038572Y-42317808D02*
X32135334Y-42366189D01*
X32135334Y-42366189D02*
X32183715Y-42414570D01*
X32183715Y-42414570D02*
X32232095Y-42511332D01*
X32232095Y-42511332D02*
X32232095Y-42608094D01*
X32232095Y-42608094D02*
X32183715Y-42704856D01*
X32183715Y-42704856D02*
X32135334Y-42753237D01*
X32135334Y-42753237D02*
X32038572Y-42801618D01*
X32038572Y-42801618D02*
X31845048Y-42849999D01*
X31845048Y-42849999D02*
X31603143Y-42849999D01*
X31603143Y-42849999D02*
X31409619Y-42801618D01*
X31409619Y-42801618D02*
X31312857Y-42753237D01*
X31312857Y-42753237D02*
X31264476Y-42704856D01*
X31264476Y-42704856D02*
X31216095Y-42608094D01*
X32232095Y-41833999D02*
X31216095Y-41833999D01*
X31845048Y-41737237D02*
X32232095Y-41446951D01*
X31554762Y-41446951D02*
X31941810Y-41833999D01*
X32328857Y-41253428D02*
X32328857Y-40479332D01*
X31216095Y-40043904D02*
X31216095Y-39947142D01*
X31216095Y-39947142D02*
X31264476Y-39850380D01*
X31264476Y-39850380D02*
X31312857Y-39801999D01*
X31312857Y-39801999D02*
X31409619Y-39753618D01*
X31409619Y-39753618D02*
X31603143Y-39705237D01*
X31603143Y-39705237D02*
X31845048Y-39705237D01*
X31845048Y-39705237D02*
X32038572Y-39753618D01*
X32038572Y-39753618D02*
X32135334Y-39801999D01*
X32135334Y-39801999D02*
X32183715Y-39850380D01*
X32183715Y-39850380D02*
X32232095Y-39947142D01*
X32232095Y-39947142D02*
X32232095Y-40043904D01*
X32232095Y-40043904D02*
X32183715Y-40140666D01*
X32183715Y-40140666D02*
X32135334Y-40189047D01*
X32135334Y-40189047D02*
X32038572Y-40237428D01*
X32038572Y-40237428D02*
X31845048Y-40285809D01*
X31845048Y-40285809D02*
X31603143Y-40285809D01*
X31603143Y-40285809D02*
X31409619Y-40237428D01*
X31409619Y-40237428D02*
X31312857Y-40189047D01*
X31312857Y-40189047D02*
X31264476Y-40140666D01*
X31264476Y-40140666D02*
X31216095Y-40043904D01*
X31554762Y-38834380D02*
X32232095Y-38834380D01*
X31167715Y-39076285D02*
X31893429Y-39318190D01*
X31893429Y-39318190D02*
X31893429Y-38689237D01*
X31216095Y-38108666D02*
X31216095Y-38011904D01*
X31216095Y-38011904D02*
X31264476Y-37915142D01*
X31264476Y-37915142D02*
X31312857Y-37866761D01*
X31312857Y-37866761D02*
X31409619Y-37818380D01*
X31409619Y-37818380D02*
X31603143Y-37769999D01*
X31603143Y-37769999D02*
X31845048Y-37769999D01*
X31845048Y-37769999D02*
X32038572Y-37818380D01*
X32038572Y-37818380D02*
X32135334Y-37866761D01*
X32135334Y-37866761D02*
X32183715Y-37915142D01*
X32183715Y-37915142D02*
X32232095Y-38011904D01*
X32232095Y-38011904D02*
X32232095Y-38108666D01*
X32232095Y-38108666D02*
X32183715Y-38205428D01*
X32183715Y-38205428D02*
X32135334Y-38253809D01*
X32135334Y-38253809D02*
X32038572Y-38302190D01*
X32038572Y-38302190D02*
X31845048Y-38350571D01*
X31845048Y-38350571D02*
X31603143Y-38350571D01*
X31603143Y-38350571D02*
X31409619Y-38302190D01*
X31409619Y-38302190D02*
X31312857Y-38253809D01*
X31312857Y-38253809D02*
X31264476Y-38205428D01*
X31264476Y-38205428D02*
X31216095Y-38108666D01*
X31312857Y-37382952D02*
X31264476Y-37334571D01*
X31264476Y-37334571D02*
X31216095Y-37237809D01*
X31216095Y-37237809D02*
X31216095Y-36995904D01*
X31216095Y-36995904D02*
X31264476Y-36899142D01*
X31264476Y-36899142D02*
X31312857Y-36850761D01*
X31312857Y-36850761D02*
X31409619Y-36802380D01*
X31409619Y-36802380D02*
X31506381Y-36802380D01*
X31506381Y-36802380D02*
X31651524Y-36850761D01*
X31651524Y-36850761D02*
X32232095Y-37431333D01*
X32232095Y-37431333D02*
X32232095Y-36802380D01*
X122000667Y-44462095D02*
X121662000Y-43978286D01*
X121420095Y-44462095D02*
X121420095Y-43446095D01*
X121420095Y-43446095D02*
X121807143Y-43446095D01*
X121807143Y-43446095D02*
X121903905Y-43494476D01*
X121903905Y-43494476D02*
X121952286Y-43542857D01*
X121952286Y-43542857D02*
X122000667Y-43639619D01*
X122000667Y-43639619D02*
X122000667Y-43784762D01*
X122000667Y-43784762D02*
X121952286Y-43881524D01*
X121952286Y-43881524D02*
X121903905Y-43929905D01*
X121903905Y-43929905D02*
X121807143Y-43978286D01*
X121807143Y-43978286D02*
X121420095Y-43978286D01*
X122339333Y-43446095D02*
X122968286Y-43446095D01*
X122968286Y-43446095D02*
X122629619Y-43833143D01*
X122629619Y-43833143D02*
X122774762Y-43833143D01*
X122774762Y-43833143D02*
X122871524Y-43881524D01*
X122871524Y-43881524D02*
X122919905Y-43929905D01*
X122919905Y-43929905D02*
X122968286Y-44026667D01*
X122968286Y-44026667D02*
X122968286Y-44268572D01*
X122968286Y-44268572D02*
X122919905Y-44365334D01*
X122919905Y-44365334D02*
X122871524Y-44413715D01*
X122871524Y-44413715D02*
X122774762Y-44462095D01*
X122774762Y-44462095D02*
X122484476Y-44462095D01*
X122484476Y-44462095D02*
X122387714Y-44413715D01*
X122387714Y-44413715D02*
X122339333Y-44365334D01*
X119242953Y-46172095D02*
X118662381Y-46172095D01*
X118952667Y-46172095D02*
X118952667Y-45156095D01*
X118952667Y-45156095D02*
X118855905Y-45301238D01*
X118855905Y-45301238D02*
X118759143Y-45398000D01*
X118759143Y-45398000D02*
X118662381Y-45446381D01*
X119871905Y-45156095D02*
X119968667Y-45156095D01*
X119968667Y-45156095D02*
X120065429Y-45204476D01*
X120065429Y-45204476D02*
X120113810Y-45252857D01*
X120113810Y-45252857D02*
X120162191Y-45349619D01*
X120162191Y-45349619D02*
X120210572Y-45543143D01*
X120210572Y-45543143D02*
X120210572Y-45785048D01*
X120210572Y-45785048D02*
X120162191Y-45978572D01*
X120162191Y-45978572D02*
X120113810Y-46075334D01*
X120113810Y-46075334D02*
X120065429Y-46123715D01*
X120065429Y-46123715D02*
X119968667Y-46172095D01*
X119968667Y-46172095D02*
X119871905Y-46172095D01*
X119871905Y-46172095D02*
X119775143Y-46123715D01*
X119775143Y-46123715D02*
X119726762Y-46075334D01*
X119726762Y-46075334D02*
X119678381Y-45978572D01*
X119678381Y-45978572D02*
X119630000Y-45785048D01*
X119630000Y-45785048D02*
X119630000Y-45543143D01*
X119630000Y-45543143D02*
X119678381Y-45349619D01*
X119678381Y-45349619D02*
X119726762Y-45252857D01*
X119726762Y-45252857D02*
X119775143Y-45204476D01*
X119775143Y-45204476D02*
X119871905Y-45156095D01*
X120646000Y-46172095D02*
X120646000Y-45156095D01*
X120742762Y-45785048D02*
X121033048Y-46172095D01*
X121033048Y-45494762D02*
X120646000Y-45881810D01*
X121226572Y-46268857D02*
X122000667Y-46268857D01*
X122436095Y-45156095D02*
X122532857Y-45156095D01*
X122532857Y-45156095D02*
X122629619Y-45204476D01*
X122629619Y-45204476D02*
X122678000Y-45252857D01*
X122678000Y-45252857D02*
X122726381Y-45349619D01*
X122726381Y-45349619D02*
X122774762Y-45543143D01*
X122774762Y-45543143D02*
X122774762Y-45785048D01*
X122774762Y-45785048D02*
X122726381Y-45978572D01*
X122726381Y-45978572D02*
X122678000Y-46075334D01*
X122678000Y-46075334D02*
X122629619Y-46123715D01*
X122629619Y-46123715D02*
X122532857Y-46172095D01*
X122532857Y-46172095D02*
X122436095Y-46172095D01*
X122436095Y-46172095D02*
X122339333Y-46123715D01*
X122339333Y-46123715D02*
X122290952Y-46075334D01*
X122290952Y-46075334D02*
X122242571Y-45978572D01*
X122242571Y-45978572D02*
X122194190Y-45785048D01*
X122194190Y-45785048D02*
X122194190Y-45543143D01*
X122194190Y-45543143D02*
X122242571Y-45349619D01*
X122242571Y-45349619D02*
X122290952Y-45252857D01*
X122290952Y-45252857D02*
X122339333Y-45204476D01*
X122339333Y-45204476D02*
X122436095Y-45156095D01*
X123645619Y-45494762D02*
X123645619Y-46172095D01*
X123403714Y-45107715D02*
X123161809Y-45833429D01*
X123161809Y-45833429D02*
X123790762Y-45833429D01*
X124371333Y-45156095D02*
X124468095Y-45156095D01*
X124468095Y-45156095D02*
X124564857Y-45204476D01*
X124564857Y-45204476D02*
X124613238Y-45252857D01*
X124613238Y-45252857D02*
X124661619Y-45349619D01*
X124661619Y-45349619D02*
X124710000Y-45543143D01*
X124710000Y-45543143D02*
X124710000Y-45785048D01*
X124710000Y-45785048D02*
X124661619Y-45978572D01*
X124661619Y-45978572D02*
X124613238Y-46075334D01*
X124613238Y-46075334D02*
X124564857Y-46123715D01*
X124564857Y-46123715D02*
X124468095Y-46172095D01*
X124468095Y-46172095D02*
X124371333Y-46172095D01*
X124371333Y-46172095D02*
X124274571Y-46123715D01*
X124274571Y-46123715D02*
X124226190Y-46075334D01*
X124226190Y-46075334D02*
X124177809Y-45978572D01*
X124177809Y-45978572D02*
X124129428Y-45785048D01*
X124129428Y-45785048D02*
X124129428Y-45543143D01*
X124129428Y-45543143D02*
X124177809Y-45349619D01*
X124177809Y-45349619D02*
X124226190Y-45252857D01*
X124226190Y-45252857D02*
X124274571Y-45204476D01*
X124274571Y-45204476D02*
X124371333Y-45156095D01*
X125097047Y-45252857D02*
X125145428Y-45204476D01*
X125145428Y-45204476D02*
X125242190Y-45156095D01*
X125242190Y-45156095D02*
X125484095Y-45156095D01*
X125484095Y-45156095D02*
X125580857Y-45204476D01*
X125580857Y-45204476D02*
X125629238Y-45252857D01*
X125629238Y-45252857D02*
X125677619Y-45349619D01*
X125677619Y-45349619D02*
X125677619Y-45446381D01*
X125677619Y-45446381D02*
X125629238Y-45591524D01*
X125629238Y-45591524D02*
X125048666Y-46172095D01*
X125048666Y-46172095D02*
X125677619Y-46172095D01*
X121810667Y-48462095D02*
X121472000Y-47978286D01*
X121230095Y-48462095D02*
X121230095Y-47446095D01*
X121230095Y-47446095D02*
X121617143Y-47446095D01*
X121617143Y-47446095D02*
X121713905Y-47494476D01*
X121713905Y-47494476D02*
X121762286Y-47542857D01*
X121762286Y-47542857D02*
X121810667Y-47639619D01*
X121810667Y-47639619D02*
X121810667Y-47784762D01*
X121810667Y-47784762D02*
X121762286Y-47881524D01*
X121762286Y-47881524D02*
X121713905Y-47929905D01*
X121713905Y-47929905D02*
X121617143Y-47978286D01*
X121617143Y-47978286D02*
X121230095Y-47978286D01*
X122197714Y-47542857D02*
X122246095Y-47494476D01*
X122246095Y-47494476D02*
X122342857Y-47446095D01*
X122342857Y-47446095D02*
X122584762Y-47446095D01*
X122584762Y-47446095D02*
X122681524Y-47494476D01*
X122681524Y-47494476D02*
X122729905Y-47542857D01*
X122729905Y-47542857D02*
X122778286Y-47639619D01*
X122778286Y-47639619D02*
X122778286Y-47736381D01*
X122778286Y-47736381D02*
X122729905Y-47881524D01*
X122729905Y-47881524D02*
X122149333Y-48462095D01*
X122149333Y-48462095D02*
X122778286Y-48462095D01*
X119242953Y-50172095D02*
X118662381Y-50172095D01*
X118952667Y-50172095D02*
X118952667Y-49156095D01*
X118952667Y-49156095D02*
X118855905Y-49301238D01*
X118855905Y-49301238D02*
X118759143Y-49398000D01*
X118759143Y-49398000D02*
X118662381Y-49446381D01*
X119871905Y-49156095D02*
X119968667Y-49156095D01*
X119968667Y-49156095D02*
X120065429Y-49204476D01*
X120065429Y-49204476D02*
X120113810Y-49252857D01*
X120113810Y-49252857D02*
X120162191Y-49349619D01*
X120162191Y-49349619D02*
X120210572Y-49543143D01*
X120210572Y-49543143D02*
X120210572Y-49785048D01*
X120210572Y-49785048D02*
X120162191Y-49978572D01*
X120162191Y-49978572D02*
X120113810Y-50075334D01*
X120113810Y-50075334D02*
X120065429Y-50123715D01*
X120065429Y-50123715D02*
X119968667Y-50172095D01*
X119968667Y-50172095D02*
X119871905Y-50172095D01*
X119871905Y-50172095D02*
X119775143Y-50123715D01*
X119775143Y-50123715D02*
X119726762Y-50075334D01*
X119726762Y-50075334D02*
X119678381Y-49978572D01*
X119678381Y-49978572D02*
X119630000Y-49785048D01*
X119630000Y-49785048D02*
X119630000Y-49543143D01*
X119630000Y-49543143D02*
X119678381Y-49349619D01*
X119678381Y-49349619D02*
X119726762Y-49252857D01*
X119726762Y-49252857D02*
X119775143Y-49204476D01*
X119775143Y-49204476D02*
X119871905Y-49156095D01*
X120646000Y-50172095D02*
X120646000Y-49156095D01*
X120742762Y-49785048D02*
X121033048Y-50172095D01*
X121033048Y-49494762D02*
X120646000Y-49881810D01*
X121226572Y-50268857D02*
X122000667Y-50268857D01*
X122436095Y-49156095D02*
X122532857Y-49156095D01*
X122532857Y-49156095D02*
X122629619Y-49204476D01*
X122629619Y-49204476D02*
X122678000Y-49252857D01*
X122678000Y-49252857D02*
X122726381Y-49349619D01*
X122726381Y-49349619D02*
X122774762Y-49543143D01*
X122774762Y-49543143D02*
X122774762Y-49785048D01*
X122774762Y-49785048D02*
X122726381Y-49978572D01*
X122726381Y-49978572D02*
X122678000Y-50075334D01*
X122678000Y-50075334D02*
X122629619Y-50123715D01*
X122629619Y-50123715D02*
X122532857Y-50172095D01*
X122532857Y-50172095D02*
X122436095Y-50172095D01*
X122436095Y-50172095D02*
X122339333Y-50123715D01*
X122339333Y-50123715D02*
X122290952Y-50075334D01*
X122290952Y-50075334D02*
X122242571Y-49978572D01*
X122242571Y-49978572D02*
X122194190Y-49785048D01*
X122194190Y-49785048D02*
X122194190Y-49543143D01*
X122194190Y-49543143D02*
X122242571Y-49349619D01*
X122242571Y-49349619D02*
X122290952Y-49252857D01*
X122290952Y-49252857D02*
X122339333Y-49204476D01*
X122339333Y-49204476D02*
X122436095Y-49156095D01*
X123645619Y-49494762D02*
X123645619Y-50172095D01*
X123403714Y-49107715D02*
X123161809Y-49833429D01*
X123161809Y-49833429D02*
X123790762Y-49833429D01*
X124371333Y-49156095D02*
X124468095Y-49156095D01*
X124468095Y-49156095D02*
X124564857Y-49204476D01*
X124564857Y-49204476D02*
X124613238Y-49252857D01*
X124613238Y-49252857D02*
X124661619Y-49349619D01*
X124661619Y-49349619D02*
X124710000Y-49543143D01*
X124710000Y-49543143D02*
X124710000Y-49785048D01*
X124710000Y-49785048D02*
X124661619Y-49978572D01*
X124661619Y-49978572D02*
X124613238Y-50075334D01*
X124613238Y-50075334D02*
X124564857Y-50123715D01*
X124564857Y-50123715D02*
X124468095Y-50172095D01*
X124468095Y-50172095D02*
X124371333Y-50172095D01*
X124371333Y-50172095D02*
X124274571Y-50123715D01*
X124274571Y-50123715D02*
X124226190Y-50075334D01*
X124226190Y-50075334D02*
X124177809Y-49978572D01*
X124177809Y-49978572D02*
X124129428Y-49785048D01*
X124129428Y-49785048D02*
X124129428Y-49543143D01*
X124129428Y-49543143D02*
X124177809Y-49349619D01*
X124177809Y-49349619D02*
X124226190Y-49252857D01*
X124226190Y-49252857D02*
X124274571Y-49204476D01*
X124274571Y-49204476D02*
X124371333Y-49156095D01*
X125097047Y-49252857D02*
X125145428Y-49204476D01*
X125145428Y-49204476D02*
X125242190Y-49156095D01*
X125242190Y-49156095D02*
X125484095Y-49156095D01*
X125484095Y-49156095D02*
X125580857Y-49204476D01*
X125580857Y-49204476D02*
X125629238Y-49252857D01*
X125629238Y-49252857D02*
X125677619Y-49349619D01*
X125677619Y-49349619D02*
X125677619Y-49446381D01*
X125677619Y-49446381D02*
X125629238Y-49591524D01*
X125629238Y-49591524D02*
X125048666Y-50172095D01*
X125048666Y-50172095D02*
X125677619Y-50172095D01*
D13*
X44937519Y-93839438D02*
X44461328Y-94172771D01*
X44937519Y-94410866D02*
X43937519Y-94410866D01*
X43937519Y-94410866D02*
X43937519Y-94029914D01*
X43937519Y-94029914D02*
X43985138Y-93934676D01*
X43985138Y-93934676D02*
X44032757Y-93887057D01*
X44032757Y-93887057D02*
X44127995Y-93839438D01*
X44127995Y-93839438D02*
X44270852Y-93839438D01*
X44270852Y-93839438D02*
X44366090Y-93887057D01*
X44366090Y-93887057D02*
X44413709Y-93934676D01*
X44413709Y-93934676D02*
X44461328Y-94029914D01*
X44461328Y-94029914D02*
X44461328Y-94410866D01*
X43937519Y-93553723D02*
X44937519Y-93220390D01*
X44937519Y-93220390D02*
X43937519Y-92887057D01*
X43937519Y-92077533D02*
X43937519Y-92553723D01*
X43937519Y-92553723D02*
X44413709Y-92601342D01*
X44413709Y-92601342D02*
X44366090Y-92553723D01*
X44366090Y-92553723D02*
X44318471Y-92458485D01*
X44318471Y-92458485D02*
X44318471Y-92220390D01*
X44318471Y-92220390D02*
X44366090Y-92125152D01*
X44366090Y-92125152D02*
X44413709Y-92077533D01*
X44413709Y-92077533D02*
X44508947Y-92029914D01*
X44508947Y-92029914D02*
X44747042Y-92029914D01*
X44747042Y-92029914D02*
X44842280Y-92077533D01*
X44842280Y-92077533D02*
X44889900Y-92125152D01*
X44889900Y-92125152D02*
X44937519Y-92220390D01*
X44937519Y-92220390D02*
X44937519Y-92458485D01*
X44937519Y-92458485D02*
X44889900Y-92553723D01*
X44889900Y-92553723D02*
X44842280Y-92601342D01*
X29413709Y-95006104D02*
X29461328Y-94863247D01*
X29461328Y-94863247D02*
X29508947Y-94815628D01*
X29508947Y-94815628D02*
X29604185Y-94768009D01*
X29604185Y-94768009D02*
X29747042Y-94768009D01*
X29747042Y-94768009D02*
X29842280Y-94815628D01*
X29842280Y-94815628D02*
X29889900Y-94863247D01*
X29889900Y-94863247D02*
X29937519Y-94958485D01*
X29937519Y-94958485D02*
X29937519Y-95339437D01*
X29937519Y-95339437D02*
X28937519Y-95339437D01*
X28937519Y-95339437D02*
X28937519Y-95006104D01*
X28937519Y-95006104D02*
X28985138Y-94910866D01*
X28985138Y-94910866D02*
X29032757Y-94863247D01*
X29032757Y-94863247D02*
X29127995Y-94815628D01*
X29127995Y-94815628D02*
X29223233Y-94815628D01*
X29223233Y-94815628D02*
X29318471Y-94863247D01*
X29318471Y-94863247D02*
X29366090Y-94910866D01*
X29366090Y-94910866D02*
X29413709Y-95006104D01*
X29413709Y-95006104D02*
X29413709Y-95339437D01*
X29937519Y-93815628D02*
X29937519Y-94387056D01*
X29937519Y-94101342D02*
X28937519Y-94101342D01*
X28937519Y-94101342D02*
X29080376Y-94196580D01*
X29080376Y-94196580D02*
X29175614Y-94291818D01*
X29175614Y-94291818D02*
X29223233Y-94387056D01*
X28937519Y-93196580D02*
X28937519Y-93101342D01*
X28937519Y-93101342D02*
X28985138Y-93006104D01*
X28985138Y-93006104D02*
X29032757Y-92958485D01*
X29032757Y-92958485D02*
X29127995Y-92910866D01*
X29127995Y-92910866D02*
X29318471Y-92863247D01*
X29318471Y-92863247D02*
X29556566Y-92863247D01*
X29556566Y-92863247D02*
X29747042Y-92910866D01*
X29747042Y-92910866D02*
X29842280Y-92958485D01*
X29842280Y-92958485D02*
X29889900Y-93006104D01*
X29889900Y-93006104D02*
X29937519Y-93101342D01*
X29937519Y-93101342D02*
X29937519Y-93196580D01*
X29937519Y-93196580D02*
X29889900Y-93291818D01*
X29889900Y-93291818D02*
X29842280Y-93339437D01*
X29842280Y-93339437D02*
X29747042Y-93387056D01*
X29747042Y-93387056D02*
X29556566Y-93434675D01*
X29556566Y-93434675D02*
X29318471Y-93434675D01*
X29318471Y-93434675D02*
X29127995Y-93387056D01*
X29127995Y-93387056D02*
X29032757Y-93339437D01*
X29032757Y-93339437D02*
X28985138Y-93291818D01*
X28985138Y-93291818D02*
X28937519Y-93196580D01*
X28937519Y-92244199D02*
X28937519Y-92148961D01*
X28937519Y-92148961D02*
X28985138Y-92053723D01*
X28985138Y-92053723D02*
X29032757Y-92006104D01*
X29032757Y-92006104D02*
X29127995Y-91958485D01*
X29127995Y-91958485D02*
X29318471Y-91910866D01*
X29318471Y-91910866D02*
X29556566Y-91910866D01*
X29556566Y-91910866D02*
X29747042Y-91958485D01*
X29747042Y-91958485D02*
X29842280Y-92006104D01*
X29842280Y-92006104D02*
X29889900Y-92053723D01*
X29889900Y-92053723D02*
X29937519Y-92148961D01*
X29937519Y-92148961D02*
X29937519Y-92244199D01*
X29937519Y-92244199D02*
X29889900Y-92339437D01*
X29889900Y-92339437D02*
X29842280Y-92387056D01*
X29842280Y-92387056D02*
X29747042Y-92434675D01*
X29747042Y-92434675D02*
X29556566Y-92482294D01*
X29556566Y-92482294D02*
X29318471Y-92482294D01*
X29318471Y-92482294D02*
X29127995Y-92434675D01*
X29127995Y-92434675D02*
X29032757Y-92387056D01*
X29032757Y-92387056D02*
X28985138Y-92339437D01*
X28985138Y-92339437D02*
X28937519Y-92244199D01*
X29937519Y-91482294D02*
X28937519Y-91482294D01*
X29556566Y-91387056D02*
X29937519Y-91101342D01*
X29270852Y-91101342D02*
X29651804Y-91482294D01*
X67937519Y-93839438D02*
X67461328Y-94172771D01*
X67937519Y-94410866D02*
X66937519Y-94410866D01*
X66937519Y-94410866D02*
X66937519Y-94029914D01*
X66937519Y-94029914D02*
X66985138Y-93934676D01*
X66985138Y-93934676D02*
X67032757Y-93887057D01*
X67032757Y-93887057D02*
X67127995Y-93839438D01*
X67127995Y-93839438D02*
X67270852Y-93839438D01*
X67270852Y-93839438D02*
X67366090Y-93887057D01*
X67366090Y-93887057D02*
X67413709Y-93934676D01*
X67413709Y-93934676D02*
X67461328Y-94029914D01*
X67461328Y-94029914D02*
X67461328Y-94410866D01*
X66937519Y-93553723D02*
X67937519Y-93220390D01*
X67937519Y-93220390D02*
X66937519Y-92887057D01*
X66937519Y-92125152D02*
X66937519Y-92315628D01*
X66937519Y-92315628D02*
X66985138Y-92410866D01*
X66985138Y-92410866D02*
X67032757Y-92458485D01*
X67032757Y-92458485D02*
X67175614Y-92553723D01*
X67175614Y-92553723D02*
X67366090Y-92601342D01*
X67366090Y-92601342D02*
X67747042Y-92601342D01*
X67747042Y-92601342D02*
X67842280Y-92553723D01*
X67842280Y-92553723D02*
X67889900Y-92506104D01*
X67889900Y-92506104D02*
X67937519Y-92410866D01*
X67937519Y-92410866D02*
X67937519Y-92220390D01*
X67937519Y-92220390D02*
X67889900Y-92125152D01*
X67889900Y-92125152D02*
X67842280Y-92077533D01*
X67842280Y-92077533D02*
X67747042Y-92029914D01*
X67747042Y-92029914D02*
X67508947Y-92029914D01*
X67508947Y-92029914D02*
X67413709Y-92077533D01*
X67413709Y-92077533D02*
X67366090Y-92125152D01*
X67366090Y-92125152D02*
X67318471Y-92220390D01*
X67318471Y-92220390D02*
X67318471Y-92410866D01*
X67318471Y-92410866D02*
X67366090Y-92506104D01*
X67366090Y-92506104D02*
X67413709Y-92553723D01*
X67413709Y-92553723D02*
X67508947Y-92601342D01*
X52413709Y-95006104D02*
X52461328Y-94863247D01*
X52461328Y-94863247D02*
X52508947Y-94815628D01*
X52508947Y-94815628D02*
X52604185Y-94768009D01*
X52604185Y-94768009D02*
X52747042Y-94768009D01*
X52747042Y-94768009D02*
X52842280Y-94815628D01*
X52842280Y-94815628D02*
X52889900Y-94863247D01*
X52889900Y-94863247D02*
X52937519Y-94958485D01*
X52937519Y-94958485D02*
X52937519Y-95339437D01*
X52937519Y-95339437D02*
X51937519Y-95339437D01*
X51937519Y-95339437D02*
X51937519Y-95006104D01*
X51937519Y-95006104D02*
X51985138Y-94910866D01*
X51985138Y-94910866D02*
X52032757Y-94863247D01*
X52032757Y-94863247D02*
X52127995Y-94815628D01*
X52127995Y-94815628D02*
X52223233Y-94815628D01*
X52223233Y-94815628D02*
X52318471Y-94863247D01*
X52318471Y-94863247D02*
X52366090Y-94910866D01*
X52366090Y-94910866D02*
X52413709Y-95006104D01*
X52413709Y-95006104D02*
X52413709Y-95339437D01*
X52937519Y-93815628D02*
X52937519Y-94387056D01*
X52937519Y-94101342D02*
X51937519Y-94101342D01*
X51937519Y-94101342D02*
X52080376Y-94196580D01*
X52080376Y-94196580D02*
X52175614Y-94291818D01*
X52175614Y-94291818D02*
X52223233Y-94387056D01*
X51937519Y-93196580D02*
X51937519Y-93101342D01*
X51937519Y-93101342D02*
X51985138Y-93006104D01*
X51985138Y-93006104D02*
X52032757Y-92958485D01*
X52032757Y-92958485D02*
X52127995Y-92910866D01*
X52127995Y-92910866D02*
X52318471Y-92863247D01*
X52318471Y-92863247D02*
X52556566Y-92863247D01*
X52556566Y-92863247D02*
X52747042Y-92910866D01*
X52747042Y-92910866D02*
X52842280Y-92958485D01*
X52842280Y-92958485D02*
X52889900Y-93006104D01*
X52889900Y-93006104D02*
X52937519Y-93101342D01*
X52937519Y-93101342D02*
X52937519Y-93196580D01*
X52937519Y-93196580D02*
X52889900Y-93291818D01*
X52889900Y-93291818D02*
X52842280Y-93339437D01*
X52842280Y-93339437D02*
X52747042Y-93387056D01*
X52747042Y-93387056D02*
X52556566Y-93434675D01*
X52556566Y-93434675D02*
X52318471Y-93434675D01*
X52318471Y-93434675D02*
X52127995Y-93387056D01*
X52127995Y-93387056D02*
X52032757Y-93339437D01*
X52032757Y-93339437D02*
X51985138Y-93291818D01*
X51985138Y-93291818D02*
X51937519Y-93196580D01*
X51937519Y-92244199D02*
X51937519Y-92148961D01*
X51937519Y-92148961D02*
X51985138Y-92053723D01*
X51985138Y-92053723D02*
X52032757Y-92006104D01*
X52032757Y-92006104D02*
X52127995Y-91958485D01*
X52127995Y-91958485D02*
X52318471Y-91910866D01*
X52318471Y-91910866D02*
X52556566Y-91910866D01*
X52556566Y-91910866D02*
X52747042Y-91958485D01*
X52747042Y-91958485D02*
X52842280Y-92006104D01*
X52842280Y-92006104D02*
X52889900Y-92053723D01*
X52889900Y-92053723D02*
X52937519Y-92148961D01*
X52937519Y-92148961D02*
X52937519Y-92244199D01*
X52937519Y-92244199D02*
X52889900Y-92339437D01*
X52889900Y-92339437D02*
X52842280Y-92387056D01*
X52842280Y-92387056D02*
X52747042Y-92434675D01*
X52747042Y-92434675D02*
X52556566Y-92482294D01*
X52556566Y-92482294D02*
X52318471Y-92482294D01*
X52318471Y-92482294D02*
X52127995Y-92434675D01*
X52127995Y-92434675D02*
X52032757Y-92387056D01*
X52032757Y-92387056D02*
X51985138Y-92339437D01*
X51985138Y-92339437D02*
X51937519Y-92244199D01*
X52937519Y-91482294D02*
X51937519Y-91482294D01*
X52556566Y-91387056D02*
X52937519Y-91101342D01*
X52270852Y-91101342D02*
X52651804Y-91482294D01*
D11*
G36*
X140658910Y-43425258D02*
G01*
X140588422Y-43421651D01*
X140519874Y-43410908D01*
X140453550Y-43393097D01*
X140392135Y-43368899D01*
X140335034Y-43338113D01*
X140285218Y-43302281D01*
X140371985Y-43147920D01*
X140433276Y-43189392D01*
X140504487Y-43220704D01*
X140580692Y-43239895D01*
X140658910Y-43246289D01*
X140719457Y-43242267D01*
X140765842Y-43231448D01*
X140800998Y-43215209D01*
X140829494Y-43191156D01*
X140845917Y-43162432D01*
X140851556Y-43127404D01*
X140851556Y-43126732D01*
X140845608Y-43090388D01*
X140828964Y-43063900D01*
X140803581Y-43044053D01*
X140770223Y-43029706D01*
X140677350Y-43009923D01*
X140673564Y-43009251D01*
X140669839Y-43008518D01*
X140654819Y-43006503D01*
X140559592Y-42987882D01*
X140489466Y-42967241D01*
X140448288Y-42947786D01*
X140411329Y-42920479D01*
X140378091Y-42884565D01*
X140353943Y-42842714D01*
X140338170Y-42787991D01*
X140332357Y-42716831D01*
X140332357Y-42716160D01*
X140337456Y-42653192D01*
X140352001Y-42598826D01*
X140375405Y-42551540D01*
X140407912Y-42510126D01*
X140449158Y-42475507D01*
X140500396Y-42447370D01*
X140556196Y-42428148D01*
X140621684Y-42415887D01*
X140698538Y-42411528D01*
X140751939Y-42414545D01*
X140807470Y-42423801D01*
X140862425Y-42438782D01*
X140916403Y-42459338D01*
X140968352Y-42484947D01*
X141017519Y-42515331D01*
X140938262Y-42673845D01*
X140879260Y-42638470D01*
X140818400Y-42612356D01*
X140756096Y-42595767D01*
X140698538Y-42590497D01*
X140641511Y-42594181D01*
X140598041Y-42604063D01*
X140565304Y-42618829D01*
X140538632Y-42640819D01*
X140523375Y-42666857D01*
X140518165Y-42698391D01*
X140518165Y-42699063D01*
X140524650Y-42738498D01*
X140542772Y-42767084D01*
X140569963Y-42788487D01*
X140603528Y-42803599D01*
X140705316Y-42828206D01*
X140710811Y-42829244D01*
X140716246Y-42830221D01*
X140724122Y-42831992D01*
X140731999Y-42833640D01*
X140822005Y-42855057D01*
X140889414Y-42878398D01*
X140929007Y-42899363D01*
X140964046Y-42927398D01*
X140994988Y-42963150D01*
X141017486Y-43004182D01*
X141032050Y-43056384D01*
X141037364Y-43122641D01*
X141037364Y-43123984D01*
X141032125Y-43185958D01*
X141017139Y-43239658D01*
X140992912Y-43286589D01*
X140959517Y-43327382D01*
X140916845Y-43361690D01*
X140863463Y-43389720D01*
X140805723Y-43408776D01*
X140738093Y-43420936D01*
X140658910Y-43425258D01*
G37*
G36*
X141493243Y-43425258D02*
G01*
X141422756Y-43421651D01*
X141354208Y-43410908D01*
X141287883Y-43393097D01*
X141226469Y-43368899D01*
X141169368Y-43338113D01*
X141119552Y-43302281D01*
X141206319Y-43147920D01*
X141267609Y-43189392D01*
X141338821Y-43220704D01*
X141415026Y-43239895D01*
X141493243Y-43246289D01*
X141553791Y-43242267D01*
X141600176Y-43231448D01*
X141635331Y-43215209D01*
X141663828Y-43191156D01*
X141680251Y-43162432D01*
X141685890Y-43127404D01*
X141685890Y-43126732D01*
X141679941Y-43090388D01*
X141663297Y-43063900D01*
X141637915Y-43044053D01*
X141604557Y-43029706D01*
X141511683Y-43009923D01*
X141507898Y-43009251D01*
X141504173Y-43008518D01*
X141489152Y-43006503D01*
X141393925Y-42987882D01*
X141323800Y-42967241D01*
X141282622Y-42947786D01*
X141245663Y-42920479D01*
X141212425Y-42884565D01*
X141188276Y-42842714D01*
X141172503Y-42787991D01*
X141166690Y-42716831D01*
X141166690Y-42716160D01*
X141171789Y-42653192D01*
X141186334Y-42598826D01*
X141209738Y-42551540D01*
X141242246Y-42510126D01*
X141283492Y-42475507D01*
X141334730Y-42447370D01*
X141390529Y-42428148D01*
X141456018Y-42415887D01*
X141532872Y-42411528D01*
X141586273Y-42414545D01*
X141641804Y-42423801D01*
X141696758Y-42438782D01*
X141750736Y-42459338D01*
X141802685Y-42484947D01*
X141851853Y-42515331D01*
X141772596Y-42673845D01*
X141713594Y-42638470D01*
X141652734Y-42612356D01*
X141590429Y-42595767D01*
X141532872Y-42590497D01*
X141475845Y-42594181D01*
X141432374Y-42604063D01*
X141399637Y-42618829D01*
X141372966Y-42640819D01*
X141357709Y-42666857D01*
X141352498Y-42698391D01*
X141352498Y-42699063D01*
X141358983Y-42738498D01*
X141377106Y-42767084D01*
X141404296Y-42788487D01*
X141437861Y-42803599D01*
X141539649Y-42828206D01*
X141545145Y-42829244D01*
X141550579Y-42830221D01*
X141558456Y-42831992D01*
X141566333Y-42833640D01*
X141656339Y-42855057D01*
X141723747Y-42878398D01*
X141763341Y-42899363D01*
X141798380Y-42927398D01*
X141829321Y-42963150D01*
X141851819Y-43004182D01*
X141866383Y-43056384D01*
X141871697Y-43122641D01*
X141871697Y-43123984D01*
X141866459Y-43185958D01*
X141851472Y-43239658D01*
X141827245Y-43286589D01*
X141793851Y-43327382D01*
X141751179Y-43361690D01*
X141697797Y-43389720D01*
X141640057Y-43408776D01*
X141572426Y-43420936D01*
X141493243Y-43425258D01*
G37*
G36*
X142123329Y-43234626D02*
G01*
X142361710Y-43234626D01*
X142421700Y-43229083D01*
X142468302Y-43213897D01*
X142504470Y-43190235D01*
X142531965Y-43157531D01*
X142548952Y-43116487D01*
X142555028Y-43064572D01*
X142555028Y-42772213D01*
X142548951Y-42720257D01*
X142531962Y-42679195D01*
X142504470Y-42646489D01*
X142468302Y-42622828D01*
X142421700Y-42607641D01*
X142361710Y-42602098D01*
X142123329Y-42602098D01*
X142123329Y-42421725D01*
X142357619Y-42421725D01*
X142439703Y-42426773D01*
X142509803Y-42441007D01*
X142569744Y-42463429D01*
X142624211Y-42495893D01*
X142668341Y-42536219D01*
X142703283Y-42585001D01*
X142728082Y-42640033D01*
X142743612Y-42703674D01*
X142749079Y-42777648D01*
X142749079Y-43059077D01*
X142743889Y-43129473D01*
X142729001Y-43191419D01*
X142704993Y-43246289D01*
X142671088Y-43295188D01*
X142627438Y-43336456D01*
X142572797Y-43370608D01*
X142512474Y-43394435D01*
X142441215Y-43409602D01*
X142356947Y-43415000D01*
X142123329Y-43415000D01*
X142123329Y-43234626D01*
G37*
G36*
X142029051Y-42421725D02*
G01*
X142216202Y-42421725D01*
X142216202Y-43415000D01*
X142029051Y-43415000D01*
X142029051Y-42421725D01*
G37*
G36*
X143194028Y-43415000D02*
G01*
X143006816Y-43415000D01*
X143006816Y-42641727D01*
X142885916Y-42687461D01*
X142885916Y-42488709D01*
X143034171Y-42421725D01*
X143194028Y-42421725D01*
X143194028Y-43415000D01*
G37*
G36*
X143669325Y-43425258D02*
G01*
X143609921Y-43421418D01*
X143556689Y-43410347D01*
X143508735Y-43392468D01*
X143464721Y-43367058D01*
X143427605Y-43335326D01*
X143396689Y-43296847D01*
X143373505Y-43253248D01*
X143358147Y-43203752D01*
X143350954Y-43147187D01*
X143544272Y-43147187D01*
X143551053Y-43176278D01*
X143562346Y-43199516D01*
X143578438Y-43218546D01*
X143598250Y-43232306D01*
X143621332Y-43240623D01*
X143648808Y-43243541D01*
X143683139Y-43239907D01*
X143710009Y-43229851D01*
X143731118Y-43213866D01*
X143746712Y-43192349D01*
X143756560Y-43165005D01*
X143760122Y-43130151D01*
X143760122Y-43106887D01*
X143753625Y-43054541D01*
X143736553Y-43019509D01*
X143718905Y-43002596D01*
X143696951Y-42992359D01*
X143669325Y-42988735D01*
X143585244Y-42988735D01*
X143585244Y-42808361D01*
X143669325Y-42808361D01*
X143701042Y-42801511D01*
X143724279Y-42781434D01*
X143738395Y-42750911D01*
X143743758Y-42705901D01*
X143743758Y-42688866D01*
X143737894Y-42646775D01*
X143722203Y-42618157D01*
X143697010Y-42599706D01*
X143661753Y-42593183D01*
X143637548Y-42596455D01*
X143615652Y-42606189D01*
X143596775Y-42621748D01*
X143580481Y-42643803D01*
X143568480Y-42670101D01*
X143560026Y-42703215D01*
X143367380Y-42703215D01*
X143376810Y-42643803D01*
X143393203Y-42591895D01*
X143416167Y-42546411D01*
X143446372Y-42505580D01*
X143481645Y-42472343D01*
X143522413Y-42446027D01*
X143567253Y-42427040D01*
X143615726Y-42415484D01*
X143668592Y-42411528D01*
X143734637Y-42416306D01*
X143789388Y-42429657D01*
X143834834Y-42450590D01*
X143872535Y-42478817D01*
X143903144Y-42514594D01*
X143925482Y-42557314D01*
X143939572Y-42608381D01*
X143944586Y-42669692D01*
X143944586Y-42699795D01*
X143940547Y-42744711D01*
X143928863Y-42784454D01*
X143909721Y-42820024D01*
X143883687Y-42850873D01*
X143851009Y-42876312D01*
X143810680Y-42896533D01*
X143855399Y-42912401D01*
X143891959Y-42937234D01*
X143921689Y-42971638D01*
X143942839Y-43012546D01*
X143956230Y-43061777D01*
X143961012Y-43121236D01*
X143961012Y-43151339D01*
X143956921Y-43208301D01*
X143945313Y-43257262D01*
X143926818Y-43299534D01*
X143900654Y-43337163D01*
X143867684Y-43368195D01*
X143827106Y-43393140D01*
X143782285Y-43410443D01*
X143730135Y-43421387D01*
X143669325Y-43425258D01*
G37*
G36*
X144501680Y-42414752D02*
G01*
X144561384Y-42429474D01*
X144610201Y-42452418D01*
X144650021Y-42483213D01*
X144682149Y-42522266D01*
X144705683Y-42568905D01*
X144720560Y-42624658D01*
X144725858Y-42691552D01*
X144725858Y-43143096D01*
X144720554Y-43209590D01*
X144705638Y-43265190D01*
X144681994Y-43311875D01*
X144649655Y-43351130D01*
X144609659Y-43382130D01*
X144560814Y-43405184D01*
X144501273Y-43419949D01*
X144428676Y-43425258D01*
X144355746Y-43419895D01*
X144296066Y-43404989D01*
X144247220Y-43381730D01*
X144207331Y-43350458D01*
X144175082Y-43310896D01*
X144151553Y-43264171D01*
X144136745Y-43208866D01*
X144131493Y-43143096D01*
X144131493Y-42739424D01*
X144318705Y-42739424D01*
X144318705Y-43095286D01*
X144322156Y-43143044D01*
X144331414Y-43179207D01*
X144345328Y-43206294D01*
X144365808Y-43227298D01*
X144392863Y-43240217D01*
X144428676Y-43244884D01*
X144464488Y-43240217D01*
X144491544Y-43227298D01*
X144512024Y-43206294D01*
X144525938Y-43179207D01*
X144535196Y-43143044D01*
X144538646Y-43095286D01*
X144538646Y-42739424D01*
X144535196Y-42691666D01*
X144525938Y-42655502D01*
X144512024Y-42628415D01*
X144491539Y-42607374D01*
X144464483Y-42594437D01*
X144428676Y-42589764D01*
X144392869Y-42594437D01*
X144365813Y-42607374D01*
X144345328Y-42628415D01*
X144331414Y-42655502D01*
X144322156Y-42691666D01*
X144318705Y-42739424D01*
X144131493Y-42739424D01*
X144131493Y-42691552D01*
X144136793Y-42625087D01*
X144151698Y-42569506D01*
X144175322Y-42522831D01*
X144207636Y-42483579D01*
X144247660Y-42452577D01*
X144296528Y-42429523D01*
X144356080Y-42414759D01*
X144428676Y-42409452D01*
X144501680Y-42414752D01*
G37*
G36*
X145168595Y-42828843D02*
G01*
X145205246Y-42824787D01*
X145258974Y-42828935D01*
X145305238Y-42840741D01*
X145345319Y-42859652D01*
X145380636Y-42886098D01*
X145409992Y-42919588D01*
X145433735Y-42961074D01*
X145450085Y-43006474D01*
X145460465Y-43059422D01*
X145464143Y-43121236D01*
X145464143Y-43121969D01*
X145460041Y-43184988D01*
X145448424Y-43239182D01*
X145430010Y-43285917D01*
X145403564Y-43328089D01*
X145370621Y-43362425D01*
X145330604Y-43389720D01*
X145285812Y-43408918D01*
X145233788Y-43420995D01*
X145173128Y-43425258D01*
X145112944Y-43421048D01*
X145061147Y-43409102D01*
X145016385Y-43390087D01*
X144976341Y-43363030D01*
X144943406Y-43329125D01*
X144916978Y-43287627D01*
X144898580Y-43241564D01*
X144886956Y-43187933D01*
X144883386Y-43133571D01*
X145069996Y-43133571D01*
X145069996Y-43134242D01*
X145073355Y-43168787D01*
X145082565Y-43195537D01*
X145096985Y-43216247D01*
X145116699Y-43231740D01*
X145141570Y-43241409D01*
X145173128Y-43244884D01*
X145205152Y-43241353D01*
X145230245Y-43231554D01*
X145250003Y-43215881D01*
X145264441Y-43194947D01*
X145273644Y-43168079D01*
X145276992Y-43133571D01*
X145276992Y-43132899D01*
X145273572Y-43092710D01*
X145264280Y-43061845D01*
X145250003Y-43038255D01*
X145229920Y-43020126D01*
X145204816Y-43009043D01*
X145173128Y-43005099D01*
X145141985Y-43009087D01*
X145117103Y-43020356D01*
X145096985Y-43038927D01*
X145082657Y-43062923D01*
X145073389Y-43093841D01*
X145069996Y-43133571D01*
X144883386Y-43133571D01*
X144882845Y-43125327D01*
X144882845Y-43124656D01*
X144886064Y-43070095D01*
X144896157Y-43010594D01*
X144912148Y-42950756D01*
X144934075Y-42889694D01*
X144942563Y-42869178D01*
X144951844Y-42849394D01*
X145153344Y-42421725D01*
X145365103Y-42421725D01*
X145168595Y-42828843D01*
G37*
D12*
X122000667Y-52462095D02*
X121662000Y-51978286D01*
X121420095Y-52462095D02*
X121420095Y-51446095D01*
X121420095Y-51446095D02*
X121807143Y-51446095D01*
X121807143Y-51446095D02*
X121903905Y-51494476D01*
X121903905Y-51494476D02*
X121952286Y-51542857D01*
X121952286Y-51542857D02*
X122000667Y-51639619D01*
X122000667Y-51639619D02*
X122000667Y-51784762D01*
X122000667Y-51784762D02*
X121952286Y-51881524D01*
X121952286Y-51881524D02*
X121903905Y-51929905D01*
X121903905Y-51929905D02*
X121807143Y-51978286D01*
X121807143Y-51978286D02*
X121420095Y-51978286D01*
X122968286Y-52462095D02*
X122387714Y-52462095D01*
X122678000Y-52462095D02*
X122678000Y-51446095D01*
X122678000Y-51446095D02*
X122581238Y-51591238D01*
X122581238Y-51591238D02*
X122484476Y-51688000D01*
X122484476Y-51688000D02*
X122387714Y-51736381D01*
X119242953Y-54272095D02*
X118662381Y-54272095D01*
X118952667Y-54272095D02*
X118952667Y-53256095D01*
X118952667Y-53256095D02*
X118855905Y-53401238D01*
X118855905Y-53401238D02*
X118759143Y-53498000D01*
X118759143Y-53498000D02*
X118662381Y-53546381D01*
X119871905Y-53256095D02*
X119968667Y-53256095D01*
X119968667Y-53256095D02*
X120065429Y-53304476D01*
X120065429Y-53304476D02*
X120113810Y-53352857D01*
X120113810Y-53352857D02*
X120162191Y-53449619D01*
X120162191Y-53449619D02*
X120210572Y-53643143D01*
X120210572Y-53643143D02*
X120210572Y-53885048D01*
X120210572Y-53885048D02*
X120162191Y-54078572D01*
X120162191Y-54078572D02*
X120113810Y-54175334D01*
X120113810Y-54175334D02*
X120065429Y-54223715D01*
X120065429Y-54223715D02*
X119968667Y-54272095D01*
X119968667Y-54272095D02*
X119871905Y-54272095D01*
X119871905Y-54272095D02*
X119775143Y-54223715D01*
X119775143Y-54223715D02*
X119726762Y-54175334D01*
X119726762Y-54175334D02*
X119678381Y-54078572D01*
X119678381Y-54078572D02*
X119630000Y-53885048D01*
X119630000Y-53885048D02*
X119630000Y-53643143D01*
X119630000Y-53643143D02*
X119678381Y-53449619D01*
X119678381Y-53449619D02*
X119726762Y-53352857D01*
X119726762Y-53352857D02*
X119775143Y-53304476D01*
X119775143Y-53304476D02*
X119871905Y-53256095D01*
X120646000Y-54272095D02*
X120646000Y-53256095D01*
X120742762Y-53885048D02*
X121033048Y-54272095D01*
X121033048Y-53594762D02*
X120646000Y-53981810D01*
X121226572Y-54368857D02*
X122000667Y-54368857D01*
X122436095Y-53256095D02*
X122532857Y-53256095D01*
X122532857Y-53256095D02*
X122629619Y-53304476D01*
X122629619Y-53304476D02*
X122678000Y-53352857D01*
X122678000Y-53352857D02*
X122726381Y-53449619D01*
X122726381Y-53449619D02*
X122774762Y-53643143D01*
X122774762Y-53643143D02*
X122774762Y-53885048D01*
X122774762Y-53885048D02*
X122726381Y-54078572D01*
X122726381Y-54078572D02*
X122678000Y-54175334D01*
X122678000Y-54175334D02*
X122629619Y-54223715D01*
X122629619Y-54223715D02*
X122532857Y-54272095D01*
X122532857Y-54272095D02*
X122436095Y-54272095D01*
X122436095Y-54272095D02*
X122339333Y-54223715D01*
X122339333Y-54223715D02*
X122290952Y-54175334D01*
X122290952Y-54175334D02*
X122242571Y-54078572D01*
X122242571Y-54078572D02*
X122194190Y-53885048D01*
X122194190Y-53885048D02*
X122194190Y-53643143D01*
X122194190Y-53643143D02*
X122242571Y-53449619D01*
X122242571Y-53449619D02*
X122290952Y-53352857D01*
X122290952Y-53352857D02*
X122339333Y-53304476D01*
X122339333Y-53304476D02*
X122436095Y-53256095D01*
X123645619Y-53594762D02*
X123645619Y-54272095D01*
X123403714Y-53207715D02*
X123161809Y-53933429D01*
X123161809Y-53933429D02*
X123790762Y-53933429D01*
X124371333Y-53256095D02*
X124468095Y-53256095D01*
X124468095Y-53256095D02*
X124564857Y-53304476D01*
X124564857Y-53304476D02*
X124613238Y-53352857D01*
X124613238Y-53352857D02*
X124661619Y-53449619D01*
X124661619Y-53449619D02*
X124710000Y-53643143D01*
X124710000Y-53643143D02*
X124710000Y-53885048D01*
X124710000Y-53885048D02*
X124661619Y-54078572D01*
X124661619Y-54078572D02*
X124613238Y-54175334D01*
X124613238Y-54175334D02*
X124564857Y-54223715D01*
X124564857Y-54223715D02*
X124468095Y-54272095D01*
X124468095Y-54272095D02*
X124371333Y-54272095D01*
X124371333Y-54272095D02*
X124274571Y-54223715D01*
X124274571Y-54223715D02*
X124226190Y-54175334D01*
X124226190Y-54175334D02*
X124177809Y-54078572D01*
X124177809Y-54078572D02*
X124129428Y-53885048D01*
X124129428Y-53885048D02*
X124129428Y-53643143D01*
X124129428Y-53643143D02*
X124177809Y-53449619D01*
X124177809Y-53449619D02*
X124226190Y-53352857D01*
X124226190Y-53352857D02*
X124274571Y-53304476D01*
X124274571Y-53304476D02*
X124371333Y-53256095D01*
X125097047Y-53352857D02*
X125145428Y-53304476D01*
X125145428Y-53304476D02*
X125242190Y-53256095D01*
X125242190Y-53256095D02*
X125484095Y-53256095D01*
X125484095Y-53256095D02*
X125580857Y-53304476D01*
X125580857Y-53304476D02*
X125629238Y-53352857D01*
X125629238Y-53352857D02*
X125677619Y-53449619D01*
X125677619Y-53449619D02*
X125677619Y-53546381D01*
X125677619Y-53546381D02*
X125629238Y-53691524D01*
X125629238Y-53691524D02*
X125048666Y-54272095D01*
X125048666Y-54272095D02*
X125677619Y-54272095D01*
D13*
X151376667Y-63783200D02*
X151519524Y-63830819D01*
X151519524Y-63830819D02*
X151757619Y-63830819D01*
X151757619Y-63830819D02*
X151852857Y-63783200D01*
X151852857Y-63783200D02*
X151900476Y-63735580D01*
X151900476Y-63735580D02*
X151948095Y-63640342D01*
X151948095Y-63640342D02*
X151948095Y-63545104D01*
X151948095Y-63545104D02*
X151900476Y-63449866D01*
X151900476Y-63449866D02*
X151852857Y-63402247D01*
X151852857Y-63402247D02*
X151757619Y-63354628D01*
X151757619Y-63354628D02*
X151567143Y-63307009D01*
X151567143Y-63307009D02*
X151471905Y-63259390D01*
X151471905Y-63259390D02*
X151424286Y-63211771D01*
X151424286Y-63211771D02*
X151376667Y-63116533D01*
X151376667Y-63116533D02*
X151376667Y-63021295D01*
X151376667Y-63021295D02*
X151424286Y-62926057D01*
X151424286Y-62926057D02*
X151471905Y-62878438D01*
X151471905Y-62878438D02*
X151567143Y-62830819D01*
X151567143Y-62830819D02*
X151805238Y-62830819D01*
X151805238Y-62830819D02*
X151948095Y-62878438D01*
X152281429Y-62830819D02*
X152519524Y-63830819D01*
X152519524Y-63830819D02*
X152710000Y-63116533D01*
X152710000Y-63116533D02*
X152900476Y-63830819D01*
X152900476Y-63830819D02*
X153138572Y-62830819D01*
X153471905Y-62926057D02*
X153519524Y-62878438D01*
X153519524Y-62878438D02*
X153614762Y-62830819D01*
X153614762Y-62830819D02*
X153852857Y-62830819D01*
X153852857Y-62830819D02*
X153948095Y-62878438D01*
X153948095Y-62878438D02*
X153995714Y-62926057D01*
X153995714Y-62926057D02*
X154043333Y-63021295D01*
X154043333Y-63021295D02*
X154043333Y-63116533D01*
X154043333Y-63116533D02*
X153995714Y-63259390D01*
X153995714Y-63259390D02*
X153424286Y-63830819D01*
X153424286Y-63830819D02*
X154043333Y-63830819D01*
X83919580Y-49416666D02*
X83967200Y-49464285D01*
X83967200Y-49464285D02*
X84014819Y-49607142D01*
X84014819Y-49607142D02*
X84014819Y-49702380D01*
X84014819Y-49702380D02*
X83967200Y-49845237D01*
X83967200Y-49845237D02*
X83871961Y-49940475D01*
X83871961Y-49940475D02*
X83776723Y-49988094D01*
X83776723Y-49988094D02*
X83586247Y-50035713D01*
X83586247Y-50035713D02*
X83443390Y-50035713D01*
X83443390Y-50035713D02*
X83252914Y-49988094D01*
X83252914Y-49988094D02*
X83157676Y-49940475D01*
X83157676Y-49940475D02*
X83062438Y-49845237D01*
X83062438Y-49845237D02*
X83014819Y-49702380D01*
X83014819Y-49702380D02*
X83014819Y-49607142D01*
X83014819Y-49607142D02*
X83062438Y-49464285D01*
X83062438Y-49464285D02*
X83110057Y-49416666D01*
X83014819Y-49083332D02*
X83014819Y-48464285D01*
X83014819Y-48464285D02*
X83395771Y-48797618D01*
X83395771Y-48797618D02*
X83395771Y-48654761D01*
X83395771Y-48654761D02*
X83443390Y-48559523D01*
X83443390Y-48559523D02*
X83491009Y-48511904D01*
X83491009Y-48511904D02*
X83586247Y-48464285D01*
X83586247Y-48464285D02*
X83824342Y-48464285D01*
X83824342Y-48464285D02*
X83919580Y-48511904D01*
X83919580Y-48511904D02*
X83967200Y-48559523D01*
X83967200Y-48559523D02*
X84014819Y-48654761D01*
X84014819Y-48654761D02*
X84014819Y-48940475D01*
X84014819Y-48940475D02*
X83967200Y-49035713D01*
X83967200Y-49035713D02*
X83919580Y-49083332D01*
D14*
X86325662Y-50064286D02*
X86325662Y-50498572D01*
X86325662Y-50281429D02*
X85565662Y-50281429D01*
X85565662Y-50281429D02*
X85674233Y-50353810D01*
X85674233Y-50353810D02*
X85746614Y-50426191D01*
X85746614Y-50426191D02*
X85782805Y-50498572D01*
X85565662Y-49593809D02*
X85565662Y-49521428D01*
X85565662Y-49521428D02*
X85601852Y-49449047D01*
X85601852Y-49449047D02*
X85638043Y-49412857D01*
X85638043Y-49412857D02*
X85710424Y-49376666D01*
X85710424Y-49376666D02*
X85855186Y-49340476D01*
X85855186Y-49340476D02*
X86036138Y-49340476D01*
X86036138Y-49340476D02*
X86180900Y-49376666D01*
X86180900Y-49376666D02*
X86253281Y-49412857D01*
X86253281Y-49412857D02*
X86289472Y-49449047D01*
X86289472Y-49449047D02*
X86325662Y-49521428D01*
X86325662Y-49521428D02*
X86325662Y-49593809D01*
X86325662Y-49593809D02*
X86289472Y-49666190D01*
X86289472Y-49666190D02*
X86253281Y-49702381D01*
X86253281Y-49702381D02*
X86180900Y-49738571D01*
X86180900Y-49738571D02*
X86036138Y-49774762D01*
X86036138Y-49774762D02*
X85855186Y-49774762D01*
X85855186Y-49774762D02*
X85710424Y-49738571D01*
X85710424Y-49738571D02*
X85638043Y-49702381D01*
X85638043Y-49702381D02*
X85601852Y-49666190D01*
X85601852Y-49666190D02*
X85565662Y-49593809D01*
X85818995Y-49014761D02*
X86325662Y-49014761D01*
X85891376Y-49014761D02*
X85855186Y-48978571D01*
X85855186Y-48978571D02*
X85818995Y-48906190D01*
X85818995Y-48906190D02*
X85818995Y-48797618D01*
X85818995Y-48797618D02*
X85855186Y-48725237D01*
X85855186Y-48725237D02*
X85927567Y-48689047D01*
X85927567Y-48689047D02*
X86325662Y-48689047D01*
X85927567Y-48073809D02*
X85927567Y-48327142D01*
X86325662Y-48327142D02*
X85565662Y-48327142D01*
X85565662Y-48327142D02*
X85565662Y-47965237D01*
D13*
X67937519Y-69879438D02*
X67461328Y-70212771D01*
X67937519Y-70450866D02*
X66937519Y-70450866D01*
X66937519Y-70450866D02*
X66937519Y-70069914D01*
X66937519Y-70069914D02*
X66985138Y-69974676D01*
X66985138Y-69974676D02*
X67032757Y-69927057D01*
X67032757Y-69927057D02*
X67127995Y-69879438D01*
X67127995Y-69879438D02*
X67270852Y-69879438D01*
X67270852Y-69879438D02*
X67366090Y-69927057D01*
X67366090Y-69927057D02*
X67413709Y-69974676D01*
X67413709Y-69974676D02*
X67461328Y-70069914D01*
X67461328Y-70069914D02*
X67461328Y-70450866D01*
X66937519Y-69593723D02*
X67937519Y-69260390D01*
X67937519Y-69260390D02*
X66937519Y-68927057D01*
X67032757Y-68641342D02*
X66985138Y-68593723D01*
X66985138Y-68593723D02*
X66937519Y-68498485D01*
X66937519Y-68498485D02*
X66937519Y-68260390D01*
X66937519Y-68260390D02*
X66985138Y-68165152D01*
X66985138Y-68165152D02*
X67032757Y-68117533D01*
X67032757Y-68117533D02*
X67127995Y-68069914D01*
X67127995Y-68069914D02*
X67223233Y-68069914D01*
X67223233Y-68069914D02*
X67366090Y-68117533D01*
X67366090Y-68117533D02*
X67937519Y-68688961D01*
X67937519Y-68688961D02*
X67937519Y-68069914D01*
X52413709Y-71046104D02*
X52461328Y-70903247D01*
X52461328Y-70903247D02*
X52508947Y-70855628D01*
X52508947Y-70855628D02*
X52604185Y-70808009D01*
X52604185Y-70808009D02*
X52747042Y-70808009D01*
X52747042Y-70808009D02*
X52842280Y-70855628D01*
X52842280Y-70855628D02*
X52889900Y-70903247D01*
X52889900Y-70903247D02*
X52937519Y-70998485D01*
X52937519Y-70998485D02*
X52937519Y-71379437D01*
X52937519Y-71379437D02*
X51937519Y-71379437D01*
X51937519Y-71379437D02*
X51937519Y-71046104D01*
X51937519Y-71046104D02*
X51985138Y-70950866D01*
X51985138Y-70950866D02*
X52032757Y-70903247D01*
X52032757Y-70903247D02*
X52127995Y-70855628D01*
X52127995Y-70855628D02*
X52223233Y-70855628D01*
X52223233Y-70855628D02*
X52318471Y-70903247D01*
X52318471Y-70903247D02*
X52366090Y-70950866D01*
X52366090Y-70950866D02*
X52413709Y-71046104D01*
X52413709Y-71046104D02*
X52413709Y-71379437D01*
X52937519Y-69855628D02*
X52937519Y-70427056D01*
X52937519Y-70141342D02*
X51937519Y-70141342D01*
X51937519Y-70141342D02*
X52080376Y-70236580D01*
X52080376Y-70236580D02*
X52175614Y-70331818D01*
X52175614Y-70331818D02*
X52223233Y-70427056D01*
X51937519Y-69236580D02*
X51937519Y-69141342D01*
X51937519Y-69141342D02*
X51985138Y-69046104D01*
X51985138Y-69046104D02*
X52032757Y-68998485D01*
X52032757Y-68998485D02*
X52127995Y-68950866D01*
X52127995Y-68950866D02*
X52318471Y-68903247D01*
X52318471Y-68903247D02*
X52556566Y-68903247D01*
X52556566Y-68903247D02*
X52747042Y-68950866D01*
X52747042Y-68950866D02*
X52842280Y-68998485D01*
X52842280Y-68998485D02*
X52889900Y-69046104D01*
X52889900Y-69046104D02*
X52937519Y-69141342D01*
X52937519Y-69141342D02*
X52937519Y-69236580D01*
X52937519Y-69236580D02*
X52889900Y-69331818D01*
X52889900Y-69331818D02*
X52842280Y-69379437D01*
X52842280Y-69379437D02*
X52747042Y-69427056D01*
X52747042Y-69427056D02*
X52556566Y-69474675D01*
X52556566Y-69474675D02*
X52318471Y-69474675D01*
X52318471Y-69474675D02*
X52127995Y-69427056D01*
X52127995Y-69427056D02*
X52032757Y-69379437D01*
X52032757Y-69379437D02*
X51985138Y-69331818D01*
X51985138Y-69331818D02*
X51937519Y-69236580D01*
X51937519Y-68284199D02*
X51937519Y-68188961D01*
X51937519Y-68188961D02*
X51985138Y-68093723D01*
X51985138Y-68093723D02*
X52032757Y-68046104D01*
X52032757Y-68046104D02*
X52127995Y-67998485D01*
X52127995Y-67998485D02*
X52318471Y-67950866D01*
X52318471Y-67950866D02*
X52556566Y-67950866D01*
X52556566Y-67950866D02*
X52747042Y-67998485D01*
X52747042Y-67998485D02*
X52842280Y-68046104D01*
X52842280Y-68046104D02*
X52889900Y-68093723D01*
X52889900Y-68093723D02*
X52937519Y-68188961D01*
X52937519Y-68188961D02*
X52937519Y-68284199D01*
X52937519Y-68284199D02*
X52889900Y-68379437D01*
X52889900Y-68379437D02*
X52842280Y-68427056D01*
X52842280Y-68427056D02*
X52747042Y-68474675D01*
X52747042Y-68474675D02*
X52556566Y-68522294D01*
X52556566Y-68522294D02*
X52318471Y-68522294D01*
X52318471Y-68522294D02*
X52127995Y-68474675D01*
X52127995Y-68474675D02*
X52032757Y-68427056D01*
X52032757Y-68427056D02*
X51985138Y-68379437D01*
X51985138Y-68379437D02*
X51937519Y-68284199D01*
X52937519Y-67522294D02*
X51937519Y-67522294D01*
X52556566Y-67427056D02*
X52937519Y-67141342D01*
X52270852Y-67141342D02*
X52651804Y-67522294D01*
X98919580Y-49416666D02*
X98967200Y-49464285D01*
X98967200Y-49464285D02*
X99014819Y-49607142D01*
X99014819Y-49607142D02*
X99014819Y-49702380D01*
X99014819Y-49702380D02*
X98967200Y-49845237D01*
X98967200Y-49845237D02*
X98871961Y-49940475D01*
X98871961Y-49940475D02*
X98776723Y-49988094D01*
X98776723Y-49988094D02*
X98586247Y-50035713D01*
X98586247Y-50035713D02*
X98443390Y-50035713D01*
X98443390Y-50035713D02*
X98252914Y-49988094D01*
X98252914Y-49988094D02*
X98157676Y-49940475D01*
X98157676Y-49940475D02*
X98062438Y-49845237D01*
X98062438Y-49845237D02*
X98014819Y-49702380D01*
X98014819Y-49702380D02*
X98014819Y-49607142D01*
X98014819Y-49607142D02*
X98062438Y-49464285D01*
X98062438Y-49464285D02*
X98110057Y-49416666D01*
X98014819Y-49083332D02*
X98014819Y-48416666D01*
X98014819Y-48416666D02*
X99014819Y-48845237D01*
D14*
X101325662Y-50064286D02*
X101325662Y-50498572D01*
X101325662Y-50281429D02*
X100565662Y-50281429D01*
X100565662Y-50281429D02*
X100674233Y-50353810D01*
X100674233Y-50353810D02*
X100746614Y-50426191D01*
X100746614Y-50426191D02*
X100782805Y-50498572D01*
X100565662Y-49593809D02*
X100565662Y-49521428D01*
X100565662Y-49521428D02*
X100601852Y-49449047D01*
X100601852Y-49449047D02*
X100638043Y-49412857D01*
X100638043Y-49412857D02*
X100710424Y-49376666D01*
X100710424Y-49376666D02*
X100855186Y-49340476D01*
X100855186Y-49340476D02*
X101036138Y-49340476D01*
X101036138Y-49340476D02*
X101180900Y-49376666D01*
X101180900Y-49376666D02*
X101253281Y-49412857D01*
X101253281Y-49412857D02*
X101289472Y-49449047D01*
X101289472Y-49449047D02*
X101325662Y-49521428D01*
X101325662Y-49521428D02*
X101325662Y-49593809D01*
X101325662Y-49593809D02*
X101289472Y-49666190D01*
X101289472Y-49666190D02*
X101253281Y-49702381D01*
X101253281Y-49702381D02*
X101180900Y-49738571D01*
X101180900Y-49738571D02*
X101036138Y-49774762D01*
X101036138Y-49774762D02*
X100855186Y-49774762D01*
X100855186Y-49774762D02*
X100710424Y-49738571D01*
X100710424Y-49738571D02*
X100638043Y-49702381D01*
X100638043Y-49702381D02*
X100601852Y-49666190D01*
X100601852Y-49666190D02*
X100565662Y-49593809D01*
X100818995Y-49014761D02*
X101325662Y-49014761D01*
X100891376Y-49014761D02*
X100855186Y-48978571D01*
X100855186Y-48978571D02*
X100818995Y-48906190D01*
X100818995Y-48906190D02*
X100818995Y-48797618D01*
X100818995Y-48797618D02*
X100855186Y-48725237D01*
X100855186Y-48725237D02*
X100927567Y-48689047D01*
X100927567Y-48689047D02*
X101325662Y-48689047D01*
X100927567Y-48073809D02*
X100927567Y-48327142D01*
X101325662Y-48327142D02*
X100565662Y-48327142D01*
X100565662Y-48327142D02*
X100565662Y-47965237D01*
D13*
X113937519Y-69879438D02*
X113461328Y-70212771D01*
X113937519Y-70450866D02*
X112937519Y-70450866D01*
X112937519Y-70450866D02*
X112937519Y-70069914D01*
X112937519Y-70069914D02*
X112985138Y-69974676D01*
X112985138Y-69974676D02*
X113032757Y-69927057D01*
X113032757Y-69927057D02*
X113127995Y-69879438D01*
X113127995Y-69879438D02*
X113270852Y-69879438D01*
X113270852Y-69879438D02*
X113366090Y-69927057D01*
X113366090Y-69927057D02*
X113413709Y-69974676D01*
X113413709Y-69974676D02*
X113461328Y-70069914D01*
X113461328Y-70069914D02*
X113461328Y-70450866D01*
X112937519Y-69593723D02*
X113937519Y-69260390D01*
X113937519Y-69260390D02*
X112937519Y-68927057D01*
X113270852Y-68165152D02*
X113937519Y-68165152D01*
X112889900Y-68403247D02*
X113604185Y-68641342D01*
X113604185Y-68641342D02*
X113604185Y-68022295D01*
X98413709Y-71046104D02*
X98461328Y-70903247D01*
X98461328Y-70903247D02*
X98508947Y-70855628D01*
X98508947Y-70855628D02*
X98604185Y-70808009D01*
X98604185Y-70808009D02*
X98747042Y-70808009D01*
X98747042Y-70808009D02*
X98842280Y-70855628D01*
X98842280Y-70855628D02*
X98889900Y-70903247D01*
X98889900Y-70903247D02*
X98937519Y-70998485D01*
X98937519Y-70998485D02*
X98937519Y-71379437D01*
X98937519Y-71379437D02*
X97937519Y-71379437D01*
X97937519Y-71379437D02*
X97937519Y-71046104D01*
X97937519Y-71046104D02*
X97985138Y-70950866D01*
X97985138Y-70950866D02*
X98032757Y-70903247D01*
X98032757Y-70903247D02*
X98127995Y-70855628D01*
X98127995Y-70855628D02*
X98223233Y-70855628D01*
X98223233Y-70855628D02*
X98318471Y-70903247D01*
X98318471Y-70903247D02*
X98366090Y-70950866D01*
X98366090Y-70950866D02*
X98413709Y-71046104D01*
X98413709Y-71046104D02*
X98413709Y-71379437D01*
X98937519Y-69855628D02*
X98937519Y-70427056D01*
X98937519Y-70141342D02*
X97937519Y-70141342D01*
X97937519Y-70141342D02*
X98080376Y-70236580D01*
X98080376Y-70236580D02*
X98175614Y-70331818D01*
X98175614Y-70331818D02*
X98223233Y-70427056D01*
X97937519Y-69236580D02*
X97937519Y-69141342D01*
X97937519Y-69141342D02*
X97985138Y-69046104D01*
X97985138Y-69046104D02*
X98032757Y-68998485D01*
X98032757Y-68998485D02*
X98127995Y-68950866D01*
X98127995Y-68950866D02*
X98318471Y-68903247D01*
X98318471Y-68903247D02*
X98556566Y-68903247D01*
X98556566Y-68903247D02*
X98747042Y-68950866D01*
X98747042Y-68950866D02*
X98842280Y-68998485D01*
X98842280Y-68998485D02*
X98889900Y-69046104D01*
X98889900Y-69046104D02*
X98937519Y-69141342D01*
X98937519Y-69141342D02*
X98937519Y-69236580D01*
X98937519Y-69236580D02*
X98889900Y-69331818D01*
X98889900Y-69331818D02*
X98842280Y-69379437D01*
X98842280Y-69379437D02*
X98747042Y-69427056D01*
X98747042Y-69427056D02*
X98556566Y-69474675D01*
X98556566Y-69474675D02*
X98318471Y-69474675D01*
X98318471Y-69474675D02*
X98127995Y-69427056D01*
X98127995Y-69427056D02*
X98032757Y-69379437D01*
X98032757Y-69379437D02*
X97985138Y-69331818D01*
X97985138Y-69331818D02*
X97937519Y-69236580D01*
X97937519Y-68284199D02*
X97937519Y-68188961D01*
X97937519Y-68188961D02*
X97985138Y-68093723D01*
X97985138Y-68093723D02*
X98032757Y-68046104D01*
X98032757Y-68046104D02*
X98127995Y-67998485D01*
X98127995Y-67998485D02*
X98318471Y-67950866D01*
X98318471Y-67950866D02*
X98556566Y-67950866D01*
X98556566Y-67950866D02*
X98747042Y-67998485D01*
X98747042Y-67998485D02*
X98842280Y-68046104D01*
X98842280Y-68046104D02*
X98889900Y-68093723D01*
X98889900Y-68093723D02*
X98937519Y-68188961D01*
X98937519Y-68188961D02*
X98937519Y-68284199D01*
X98937519Y-68284199D02*
X98889900Y-68379437D01*
X98889900Y-68379437D02*
X98842280Y-68427056D01*
X98842280Y-68427056D02*
X98747042Y-68474675D01*
X98747042Y-68474675D02*
X98556566Y-68522294D01*
X98556566Y-68522294D02*
X98318471Y-68522294D01*
X98318471Y-68522294D02*
X98127995Y-68474675D01*
X98127995Y-68474675D02*
X98032757Y-68427056D01*
X98032757Y-68427056D02*
X97985138Y-68379437D01*
X97985138Y-68379437D02*
X97937519Y-68284199D01*
X98937519Y-67522294D02*
X97937519Y-67522294D01*
X98556566Y-67427056D02*
X98937519Y-67141342D01*
X98270852Y-67141342D02*
X98651804Y-67522294D01*
X73919580Y-49416666D02*
X73967200Y-49464285D01*
X73967200Y-49464285D02*
X74014819Y-49607142D01*
X74014819Y-49607142D02*
X74014819Y-49702380D01*
X74014819Y-49702380D02*
X73967200Y-49845237D01*
X73967200Y-49845237D02*
X73871961Y-49940475D01*
X73871961Y-49940475D02*
X73776723Y-49988094D01*
X73776723Y-49988094D02*
X73586247Y-50035713D01*
X73586247Y-50035713D02*
X73443390Y-50035713D01*
X73443390Y-50035713D02*
X73252914Y-49988094D01*
X73252914Y-49988094D02*
X73157676Y-49940475D01*
X73157676Y-49940475D02*
X73062438Y-49845237D01*
X73062438Y-49845237D02*
X73014819Y-49702380D01*
X73014819Y-49702380D02*
X73014819Y-49607142D01*
X73014819Y-49607142D02*
X73062438Y-49464285D01*
X73062438Y-49464285D02*
X73110057Y-49416666D01*
X74014819Y-48464285D02*
X74014819Y-49035713D01*
X74014819Y-48749999D02*
X73014819Y-48749999D01*
X73014819Y-48749999D02*
X73157676Y-48845237D01*
X73157676Y-48845237D02*
X73252914Y-48940475D01*
X73252914Y-48940475D02*
X73300533Y-49035713D01*
D14*
X76325662Y-50064286D02*
X76325662Y-50498572D01*
X76325662Y-50281429D02*
X75565662Y-50281429D01*
X75565662Y-50281429D02*
X75674233Y-50353810D01*
X75674233Y-50353810D02*
X75746614Y-50426191D01*
X75746614Y-50426191D02*
X75782805Y-50498572D01*
X75565662Y-49593809D02*
X75565662Y-49521428D01*
X75565662Y-49521428D02*
X75601852Y-49449047D01*
X75601852Y-49449047D02*
X75638043Y-49412857D01*
X75638043Y-49412857D02*
X75710424Y-49376666D01*
X75710424Y-49376666D02*
X75855186Y-49340476D01*
X75855186Y-49340476D02*
X76036138Y-49340476D01*
X76036138Y-49340476D02*
X76180900Y-49376666D01*
X76180900Y-49376666D02*
X76253281Y-49412857D01*
X76253281Y-49412857D02*
X76289472Y-49449047D01*
X76289472Y-49449047D02*
X76325662Y-49521428D01*
X76325662Y-49521428D02*
X76325662Y-49593809D01*
X76325662Y-49593809D02*
X76289472Y-49666190D01*
X76289472Y-49666190D02*
X76253281Y-49702381D01*
X76253281Y-49702381D02*
X76180900Y-49738571D01*
X76180900Y-49738571D02*
X76036138Y-49774762D01*
X76036138Y-49774762D02*
X75855186Y-49774762D01*
X75855186Y-49774762D02*
X75710424Y-49738571D01*
X75710424Y-49738571D02*
X75638043Y-49702381D01*
X75638043Y-49702381D02*
X75601852Y-49666190D01*
X75601852Y-49666190D02*
X75565662Y-49593809D01*
X75818995Y-49014761D02*
X76325662Y-49014761D01*
X75891376Y-49014761D02*
X75855186Y-48978571D01*
X75855186Y-48978571D02*
X75818995Y-48906190D01*
X75818995Y-48906190D02*
X75818995Y-48797618D01*
X75818995Y-48797618D02*
X75855186Y-48725237D01*
X75855186Y-48725237D02*
X75927567Y-48689047D01*
X75927567Y-48689047D02*
X76325662Y-48689047D01*
X75927567Y-48073809D02*
X75927567Y-48327142D01*
X76325662Y-48327142D02*
X75565662Y-48327142D01*
X75565662Y-48327142D02*
X75565662Y-47965237D01*
D13*
X131146667Y-83783200D02*
X131289524Y-83830819D01*
X131289524Y-83830819D02*
X131527619Y-83830819D01*
X131527619Y-83830819D02*
X131622857Y-83783200D01*
X131622857Y-83783200D02*
X131670476Y-83735580D01*
X131670476Y-83735580D02*
X131718095Y-83640342D01*
X131718095Y-83640342D02*
X131718095Y-83545104D01*
X131718095Y-83545104D02*
X131670476Y-83449866D01*
X131670476Y-83449866D02*
X131622857Y-83402247D01*
X131622857Y-83402247D02*
X131527619Y-83354628D01*
X131527619Y-83354628D02*
X131337143Y-83307009D01*
X131337143Y-83307009D02*
X131241905Y-83259390D01*
X131241905Y-83259390D02*
X131194286Y-83211771D01*
X131194286Y-83211771D02*
X131146667Y-83116533D01*
X131146667Y-83116533D02*
X131146667Y-83021295D01*
X131146667Y-83021295D02*
X131194286Y-82926057D01*
X131194286Y-82926057D02*
X131241905Y-82878438D01*
X131241905Y-82878438D02*
X131337143Y-82830819D01*
X131337143Y-82830819D02*
X131575238Y-82830819D01*
X131575238Y-82830819D02*
X131718095Y-82878438D01*
X132051429Y-82830819D02*
X132289524Y-83830819D01*
X132289524Y-83830819D02*
X132480000Y-83116533D01*
X132480000Y-83116533D02*
X132670476Y-83830819D01*
X132670476Y-83830819D02*
X132908572Y-82830819D01*
X133194286Y-82830819D02*
X133813333Y-82830819D01*
X133813333Y-82830819D02*
X133480000Y-83211771D01*
X133480000Y-83211771D02*
X133622857Y-83211771D01*
X133622857Y-83211771D02*
X133718095Y-83259390D01*
X133718095Y-83259390D02*
X133765714Y-83307009D01*
X133765714Y-83307009D02*
X133813333Y-83402247D01*
X133813333Y-83402247D02*
X133813333Y-83640342D01*
X133813333Y-83640342D02*
X133765714Y-83735580D01*
X133765714Y-83735580D02*
X133718095Y-83783200D01*
X133718095Y-83783200D02*
X133622857Y-83830819D01*
X133622857Y-83830819D02*
X133337143Y-83830819D01*
X133337143Y-83830819D02*
X133241905Y-83783200D01*
X133241905Y-83783200D02*
X133194286Y-83735580D01*
X113937519Y-93839438D02*
X113461328Y-94172771D01*
X113937519Y-94410866D02*
X112937519Y-94410866D01*
X112937519Y-94410866D02*
X112937519Y-94029914D01*
X112937519Y-94029914D02*
X112985138Y-93934676D01*
X112985138Y-93934676D02*
X113032757Y-93887057D01*
X113032757Y-93887057D02*
X113127995Y-93839438D01*
X113127995Y-93839438D02*
X113270852Y-93839438D01*
X113270852Y-93839438D02*
X113366090Y-93887057D01*
X113366090Y-93887057D02*
X113413709Y-93934676D01*
X113413709Y-93934676D02*
X113461328Y-94029914D01*
X113461328Y-94029914D02*
X113461328Y-94410866D01*
X112937519Y-93553723D02*
X113937519Y-93220390D01*
X113937519Y-93220390D02*
X112937519Y-92887057D01*
X113366090Y-92410866D02*
X113318471Y-92506104D01*
X113318471Y-92506104D02*
X113270852Y-92553723D01*
X113270852Y-92553723D02*
X113175614Y-92601342D01*
X113175614Y-92601342D02*
X113127995Y-92601342D01*
X113127995Y-92601342D02*
X113032757Y-92553723D01*
X113032757Y-92553723D02*
X112985138Y-92506104D01*
X112985138Y-92506104D02*
X112937519Y-92410866D01*
X112937519Y-92410866D02*
X112937519Y-92220390D01*
X112937519Y-92220390D02*
X112985138Y-92125152D01*
X112985138Y-92125152D02*
X113032757Y-92077533D01*
X113032757Y-92077533D02*
X113127995Y-92029914D01*
X113127995Y-92029914D02*
X113175614Y-92029914D01*
X113175614Y-92029914D02*
X113270852Y-92077533D01*
X113270852Y-92077533D02*
X113318471Y-92125152D01*
X113318471Y-92125152D02*
X113366090Y-92220390D01*
X113366090Y-92220390D02*
X113366090Y-92410866D01*
X113366090Y-92410866D02*
X113413709Y-92506104D01*
X113413709Y-92506104D02*
X113461328Y-92553723D01*
X113461328Y-92553723D02*
X113556566Y-92601342D01*
X113556566Y-92601342D02*
X113747042Y-92601342D01*
X113747042Y-92601342D02*
X113842280Y-92553723D01*
X113842280Y-92553723D02*
X113889900Y-92506104D01*
X113889900Y-92506104D02*
X113937519Y-92410866D01*
X113937519Y-92410866D02*
X113937519Y-92220390D01*
X113937519Y-92220390D02*
X113889900Y-92125152D01*
X113889900Y-92125152D02*
X113842280Y-92077533D01*
X113842280Y-92077533D02*
X113747042Y-92029914D01*
X113747042Y-92029914D02*
X113556566Y-92029914D01*
X113556566Y-92029914D02*
X113461328Y-92077533D01*
X113461328Y-92077533D02*
X113413709Y-92125152D01*
X113413709Y-92125152D02*
X113366090Y-92220390D01*
X98413709Y-95006104D02*
X98461328Y-94863247D01*
X98461328Y-94863247D02*
X98508947Y-94815628D01*
X98508947Y-94815628D02*
X98604185Y-94768009D01*
X98604185Y-94768009D02*
X98747042Y-94768009D01*
X98747042Y-94768009D02*
X98842280Y-94815628D01*
X98842280Y-94815628D02*
X98889900Y-94863247D01*
X98889900Y-94863247D02*
X98937519Y-94958485D01*
X98937519Y-94958485D02*
X98937519Y-95339437D01*
X98937519Y-95339437D02*
X97937519Y-95339437D01*
X97937519Y-95339437D02*
X97937519Y-95006104D01*
X97937519Y-95006104D02*
X97985138Y-94910866D01*
X97985138Y-94910866D02*
X98032757Y-94863247D01*
X98032757Y-94863247D02*
X98127995Y-94815628D01*
X98127995Y-94815628D02*
X98223233Y-94815628D01*
X98223233Y-94815628D02*
X98318471Y-94863247D01*
X98318471Y-94863247D02*
X98366090Y-94910866D01*
X98366090Y-94910866D02*
X98413709Y-95006104D01*
X98413709Y-95006104D02*
X98413709Y-95339437D01*
X98937519Y-93815628D02*
X98937519Y-94387056D01*
X98937519Y-94101342D02*
X97937519Y-94101342D01*
X97937519Y-94101342D02*
X98080376Y-94196580D01*
X98080376Y-94196580D02*
X98175614Y-94291818D01*
X98175614Y-94291818D02*
X98223233Y-94387056D01*
X97937519Y-93196580D02*
X97937519Y-93101342D01*
X97937519Y-93101342D02*
X97985138Y-93006104D01*
X97985138Y-93006104D02*
X98032757Y-92958485D01*
X98032757Y-92958485D02*
X98127995Y-92910866D01*
X98127995Y-92910866D02*
X98318471Y-92863247D01*
X98318471Y-92863247D02*
X98556566Y-92863247D01*
X98556566Y-92863247D02*
X98747042Y-92910866D01*
X98747042Y-92910866D02*
X98842280Y-92958485D01*
X98842280Y-92958485D02*
X98889900Y-93006104D01*
X98889900Y-93006104D02*
X98937519Y-93101342D01*
X98937519Y-93101342D02*
X98937519Y-93196580D01*
X98937519Y-93196580D02*
X98889900Y-93291818D01*
X98889900Y-93291818D02*
X98842280Y-93339437D01*
X98842280Y-93339437D02*
X98747042Y-93387056D01*
X98747042Y-93387056D02*
X98556566Y-93434675D01*
X98556566Y-93434675D02*
X98318471Y-93434675D01*
X98318471Y-93434675D02*
X98127995Y-93387056D01*
X98127995Y-93387056D02*
X98032757Y-93339437D01*
X98032757Y-93339437D02*
X97985138Y-93291818D01*
X97985138Y-93291818D02*
X97937519Y-93196580D01*
X97937519Y-92244199D02*
X97937519Y-92148961D01*
X97937519Y-92148961D02*
X97985138Y-92053723D01*
X97985138Y-92053723D02*
X98032757Y-92006104D01*
X98032757Y-92006104D02*
X98127995Y-91958485D01*
X98127995Y-91958485D02*
X98318471Y-91910866D01*
X98318471Y-91910866D02*
X98556566Y-91910866D01*
X98556566Y-91910866D02*
X98747042Y-91958485D01*
X98747042Y-91958485D02*
X98842280Y-92006104D01*
X98842280Y-92006104D02*
X98889900Y-92053723D01*
X98889900Y-92053723D02*
X98937519Y-92148961D01*
X98937519Y-92148961D02*
X98937519Y-92244199D01*
X98937519Y-92244199D02*
X98889900Y-92339437D01*
X98889900Y-92339437D02*
X98842280Y-92387056D01*
X98842280Y-92387056D02*
X98747042Y-92434675D01*
X98747042Y-92434675D02*
X98556566Y-92482294D01*
X98556566Y-92482294D02*
X98318471Y-92482294D01*
X98318471Y-92482294D02*
X98127995Y-92434675D01*
X98127995Y-92434675D02*
X98032757Y-92387056D01*
X98032757Y-92387056D02*
X97985138Y-92339437D01*
X97985138Y-92339437D02*
X97937519Y-92244199D01*
X98937519Y-91482294D02*
X97937519Y-91482294D01*
X98556566Y-91387056D02*
X98937519Y-91101342D01*
X98270852Y-91101342D02*
X98651804Y-91482294D01*
X88919580Y-49416666D02*
X88967200Y-49464285D01*
X88967200Y-49464285D02*
X89014819Y-49607142D01*
X89014819Y-49607142D02*
X89014819Y-49702380D01*
X89014819Y-49702380D02*
X88967200Y-49845237D01*
X88967200Y-49845237D02*
X88871961Y-49940475D01*
X88871961Y-49940475D02*
X88776723Y-49988094D01*
X88776723Y-49988094D02*
X88586247Y-50035713D01*
X88586247Y-50035713D02*
X88443390Y-50035713D01*
X88443390Y-50035713D02*
X88252914Y-49988094D01*
X88252914Y-49988094D02*
X88157676Y-49940475D01*
X88157676Y-49940475D02*
X88062438Y-49845237D01*
X88062438Y-49845237D02*
X88014819Y-49702380D01*
X88014819Y-49702380D02*
X88014819Y-49607142D01*
X88014819Y-49607142D02*
X88062438Y-49464285D01*
X88062438Y-49464285D02*
X88110057Y-49416666D01*
X88348152Y-48559523D02*
X89014819Y-48559523D01*
X87967200Y-48797618D02*
X88681485Y-49035713D01*
X88681485Y-49035713D02*
X88681485Y-48416666D01*
D14*
X91325662Y-50064286D02*
X91325662Y-50498572D01*
X91325662Y-50281429D02*
X90565662Y-50281429D01*
X90565662Y-50281429D02*
X90674233Y-50353810D01*
X90674233Y-50353810D02*
X90746614Y-50426191D01*
X90746614Y-50426191D02*
X90782805Y-50498572D01*
X90565662Y-49593809D02*
X90565662Y-49521428D01*
X90565662Y-49521428D02*
X90601852Y-49449047D01*
X90601852Y-49449047D02*
X90638043Y-49412857D01*
X90638043Y-49412857D02*
X90710424Y-49376666D01*
X90710424Y-49376666D02*
X90855186Y-49340476D01*
X90855186Y-49340476D02*
X91036138Y-49340476D01*
X91036138Y-49340476D02*
X91180900Y-49376666D01*
X91180900Y-49376666D02*
X91253281Y-49412857D01*
X91253281Y-49412857D02*
X91289472Y-49449047D01*
X91289472Y-49449047D02*
X91325662Y-49521428D01*
X91325662Y-49521428D02*
X91325662Y-49593809D01*
X91325662Y-49593809D02*
X91289472Y-49666190D01*
X91289472Y-49666190D02*
X91253281Y-49702381D01*
X91253281Y-49702381D02*
X91180900Y-49738571D01*
X91180900Y-49738571D02*
X91036138Y-49774762D01*
X91036138Y-49774762D02*
X90855186Y-49774762D01*
X90855186Y-49774762D02*
X90710424Y-49738571D01*
X90710424Y-49738571D02*
X90638043Y-49702381D01*
X90638043Y-49702381D02*
X90601852Y-49666190D01*
X90601852Y-49666190D02*
X90565662Y-49593809D01*
X90818995Y-49014761D02*
X91325662Y-49014761D01*
X90891376Y-49014761D02*
X90855186Y-48978571D01*
X90855186Y-48978571D02*
X90818995Y-48906190D01*
X90818995Y-48906190D02*
X90818995Y-48797618D01*
X90818995Y-48797618D02*
X90855186Y-48725237D01*
X90855186Y-48725237D02*
X90927567Y-48689047D01*
X90927567Y-48689047D02*
X91325662Y-48689047D01*
X90927567Y-48073809D02*
X90927567Y-48327142D01*
X91325662Y-48327142D02*
X90565662Y-48327142D01*
X90565662Y-48327142D02*
X90565662Y-47965237D01*
D13*
X131146667Y-63783200D02*
X131289524Y-63830819D01*
X131289524Y-63830819D02*
X131527619Y-63830819D01*
X131527619Y-63830819D02*
X131622857Y-63783200D01*
X131622857Y-63783200D02*
X131670476Y-63735580D01*
X131670476Y-63735580D02*
X131718095Y-63640342D01*
X131718095Y-63640342D02*
X131718095Y-63545104D01*
X131718095Y-63545104D02*
X131670476Y-63449866D01*
X131670476Y-63449866D02*
X131622857Y-63402247D01*
X131622857Y-63402247D02*
X131527619Y-63354628D01*
X131527619Y-63354628D02*
X131337143Y-63307009D01*
X131337143Y-63307009D02*
X131241905Y-63259390D01*
X131241905Y-63259390D02*
X131194286Y-63211771D01*
X131194286Y-63211771D02*
X131146667Y-63116533D01*
X131146667Y-63116533D02*
X131146667Y-63021295D01*
X131146667Y-63021295D02*
X131194286Y-62926057D01*
X131194286Y-62926057D02*
X131241905Y-62878438D01*
X131241905Y-62878438D02*
X131337143Y-62830819D01*
X131337143Y-62830819D02*
X131575238Y-62830819D01*
X131575238Y-62830819D02*
X131718095Y-62878438D01*
X132051429Y-62830819D02*
X132289524Y-63830819D01*
X132289524Y-63830819D02*
X132480000Y-63116533D01*
X132480000Y-63116533D02*
X132670476Y-63830819D01*
X132670476Y-63830819D02*
X132908572Y-62830819D01*
X133813333Y-63830819D02*
X133241905Y-63830819D01*
X133527619Y-63830819D02*
X133527619Y-62830819D01*
X133527619Y-62830819D02*
X133432381Y-62973676D01*
X133432381Y-62973676D02*
X133337143Y-63068914D01*
X133337143Y-63068914D02*
X133241905Y-63116533D01*
X93919580Y-49416666D02*
X93967200Y-49464285D01*
X93967200Y-49464285D02*
X94014819Y-49607142D01*
X94014819Y-49607142D02*
X94014819Y-49702380D01*
X94014819Y-49702380D02*
X93967200Y-49845237D01*
X93967200Y-49845237D02*
X93871961Y-49940475D01*
X93871961Y-49940475D02*
X93776723Y-49988094D01*
X93776723Y-49988094D02*
X93586247Y-50035713D01*
X93586247Y-50035713D02*
X93443390Y-50035713D01*
X93443390Y-50035713D02*
X93252914Y-49988094D01*
X93252914Y-49988094D02*
X93157676Y-49940475D01*
X93157676Y-49940475D02*
X93062438Y-49845237D01*
X93062438Y-49845237D02*
X93014819Y-49702380D01*
X93014819Y-49702380D02*
X93014819Y-49607142D01*
X93014819Y-49607142D02*
X93062438Y-49464285D01*
X93062438Y-49464285D02*
X93110057Y-49416666D01*
X93443390Y-48845237D02*
X93395771Y-48940475D01*
X93395771Y-48940475D02*
X93348152Y-48988094D01*
X93348152Y-48988094D02*
X93252914Y-49035713D01*
X93252914Y-49035713D02*
X93205295Y-49035713D01*
X93205295Y-49035713D02*
X93110057Y-48988094D01*
X93110057Y-48988094D02*
X93062438Y-48940475D01*
X93062438Y-48940475D02*
X93014819Y-48845237D01*
X93014819Y-48845237D02*
X93014819Y-48654761D01*
X93014819Y-48654761D02*
X93062438Y-48559523D01*
X93062438Y-48559523D02*
X93110057Y-48511904D01*
X93110057Y-48511904D02*
X93205295Y-48464285D01*
X93205295Y-48464285D02*
X93252914Y-48464285D01*
X93252914Y-48464285D02*
X93348152Y-48511904D01*
X93348152Y-48511904D02*
X93395771Y-48559523D01*
X93395771Y-48559523D02*
X93443390Y-48654761D01*
X93443390Y-48654761D02*
X93443390Y-48845237D01*
X93443390Y-48845237D02*
X93491009Y-48940475D01*
X93491009Y-48940475D02*
X93538628Y-48988094D01*
X93538628Y-48988094D02*
X93633866Y-49035713D01*
X93633866Y-49035713D02*
X93824342Y-49035713D01*
X93824342Y-49035713D02*
X93919580Y-48988094D01*
X93919580Y-48988094D02*
X93967200Y-48940475D01*
X93967200Y-48940475D02*
X94014819Y-48845237D01*
X94014819Y-48845237D02*
X94014819Y-48654761D01*
X94014819Y-48654761D02*
X93967200Y-48559523D01*
X93967200Y-48559523D02*
X93919580Y-48511904D01*
X93919580Y-48511904D02*
X93824342Y-48464285D01*
X93824342Y-48464285D02*
X93633866Y-48464285D01*
X93633866Y-48464285D02*
X93538628Y-48511904D01*
X93538628Y-48511904D02*
X93491009Y-48559523D01*
X93491009Y-48559523D02*
X93443390Y-48654761D01*
D14*
X96325662Y-50064286D02*
X96325662Y-50498572D01*
X96325662Y-50281429D02*
X95565662Y-50281429D01*
X95565662Y-50281429D02*
X95674233Y-50353810D01*
X95674233Y-50353810D02*
X95746614Y-50426191D01*
X95746614Y-50426191D02*
X95782805Y-50498572D01*
X95565662Y-49593809D02*
X95565662Y-49521428D01*
X95565662Y-49521428D02*
X95601852Y-49449047D01*
X95601852Y-49449047D02*
X95638043Y-49412857D01*
X95638043Y-49412857D02*
X95710424Y-49376666D01*
X95710424Y-49376666D02*
X95855186Y-49340476D01*
X95855186Y-49340476D02*
X96036138Y-49340476D01*
X96036138Y-49340476D02*
X96180900Y-49376666D01*
X96180900Y-49376666D02*
X96253281Y-49412857D01*
X96253281Y-49412857D02*
X96289472Y-49449047D01*
X96289472Y-49449047D02*
X96325662Y-49521428D01*
X96325662Y-49521428D02*
X96325662Y-49593809D01*
X96325662Y-49593809D02*
X96289472Y-49666190D01*
X96289472Y-49666190D02*
X96253281Y-49702381D01*
X96253281Y-49702381D02*
X96180900Y-49738571D01*
X96180900Y-49738571D02*
X96036138Y-49774762D01*
X96036138Y-49774762D02*
X95855186Y-49774762D01*
X95855186Y-49774762D02*
X95710424Y-49738571D01*
X95710424Y-49738571D02*
X95638043Y-49702381D01*
X95638043Y-49702381D02*
X95601852Y-49666190D01*
X95601852Y-49666190D02*
X95565662Y-49593809D01*
X95818995Y-49014761D02*
X96325662Y-49014761D01*
X95891376Y-49014761D02*
X95855186Y-48978571D01*
X95855186Y-48978571D02*
X95818995Y-48906190D01*
X95818995Y-48906190D02*
X95818995Y-48797618D01*
X95818995Y-48797618D02*
X95855186Y-48725237D01*
X95855186Y-48725237D02*
X95927567Y-48689047D01*
X95927567Y-48689047D02*
X96325662Y-48689047D01*
X95927567Y-48073809D02*
X95927567Y-48327142D01*
X96325662Y-48327142D02*
X95565662Y-48327142D01*
X95565662Y-48327142D02*
X95565662Y-47965237D01*
D13*
X44937519Y-69879438D02*
X44461328Y-70212771D01*
X44937519Y-70450866D02*
X43937519Y-70450866D01*
X43937519Y-70450866D02*
X43937519Y-70069914D01*
X43937519Y-70069914D02*
X43985138Y-69974676D01*
X43985138Y-69974676D02*
X44032757Y-69927057D01*
X44032757Y-69927057D02*
X44127995Y-69879438D01*
X44127995Y-69879438D02*
X44270852Y-69879438D01*
X44270852Y-69879438D02*
X44366090Y-69927057D01*
X44366090Y-69927057D02*
X44413709Y-69974676D01*
X44413709Y-69974676D02*
X44461328Y-70069914D01*
X44461328Y-70069914D02*
X44461328Y-70450866D01*
X43937519Y-69593723D02*
X44937519Y-69260390D01*
X44937519Y-69260390D02*
X43937519Y-68927057D01*
X44937519Y-68069914D02*
X44937519Y-68641342D01*
X44937519Y-68355628D02*
X43937519Y-68355628D01*
X43937519Y-68355628D02*
X44080376Y-68450866D01*
X44080376Y-68450866D02*
X44175614Y-68546104D01*
X44175614Y-68546104D02*
X44223233Y-68641342D01*
X29413709Y-71046104D02*
X29461328Y-70903247D01*
X29461328Y-70903247D02*
X29508947Y-70855628D01*
X29508947Y-70855628D02*
X29604185Y-70808009D01*
X29604185Y-70808009D02*
X29747042Y-70808009D01*
X29747042Y-70808009D02*
X29842280Y-70855628D01*
X29842280Y-70855628D02*
X29889900Y-70903247D01*
X29889900Y-70903247D02*
X29937519Y-70998485D01*
X29937519Y-70998485D02*
X29937519Y-71379437D01*
X29937519Y-71379437D02*
X28937519Y-71379437D01*
X28937519Y-71379437D02*
X28937519Y-71046104D01*
X28937519Y-71046104D02*
X28985138Y-70950866D01*
X28985138Y-70950866D02*
X29032757Y-70903247D01*
X29032757Y-70903247D02*
X29127995Y-70855628D01*
X29127995Y-70855628D02*
X29223233Y-70855628D01*
X29223233Y-70855628D02*
X29318471Y-70903247D01*
X29318471Y-70903247D02*
X29366090Y-70950866D01*
X29366090Y-70950866D02*
X29413709Y-71046104D01*
X29413709Y-71046104D02*
X29413709Y-71379437D01*
X29937519Y-69855628D02*
X29937519Y-70427056D01*
X29937519Y-70141342D02*
X28937519Y-70141342D01*
X28937519Y-70141342D02*
X29080376Y-70236580D01*
X29080376Y-70236580D02*
X29175614Y-70331818D01*
X29175614Y-70331818D02*
X29223233Y-70427056D01*
X28937519Y-69236580D02*
X28937519Y-69141342D01*
X28937519Y-69141342D02*
X28985138Y-69046104D01*
X28985138Y-69046104D02*
X29032757Y-68998485D01*
X29032757Y-68998485D02*
X29127995Y-68950866D01*
X29127995Y-68950866D02*
X29318471Y-68903247D01*
X29318471Y-68903247D02*
X29556566Y-68903247D01*
X29556566Y-68903247D02*
X29747042Y-68950866D01*
X29747042Y-68950866D02*
X29842280Y-68998485D01*
X29842280Y-68998485D02*
X29889900Y-69046104D01*
X29889900Y-69046104D02*
X29937519Y-69141342D01*
X29937519Y-69141342D02*
X29937519Y-69236580D01*
X29937519Y-69236580D02*
X29889900Y-69331818D01*
X29889900Y-69331818D02*
X29842280Y-69379437D01*
X29842280Y-69379437D02*
X29747042Y-69427056D01*
X29747042Y-69427056D02*
X29556566Y-69474675D01*
X29556566Y-69474675D02*
X29318471Y-69474675D01*
X29318471Y-69474675D02*
X29127995Y-69427056D01*
X29127995Y-69427056D02*
X29032757Y-69379437D01*
X29032757Y-69379437D02*
X28985138Y-69331818D01*
X28985138Y-69331818D02*
X28937519Y-69236580D01*
X28937519Y-68284199D02*
X28937519Y-68188961D01*
X28937519Y-68188961D02*
X28985138Y-68093723D01*
X28985138Y-68093723D02*
X29032757Y-68046104D01*
X29032757Y-68046104D02*
X29127995Y-67998485D01*
X29127995Y-67998485D02*
X29318471Y-67950866D01*
X29318471Y-67950866D02*
X29556566Y-67950866D01*
X29556566Y-67950866D02*
X29747042Y-67998485D01*
X29747042Y-67998485D02*
X29842280Y-68046104D01*
X29842280Y-68046104D02*
X29889900Y-68093723D01*
X29889900Y-68093723D02*
X29937519Y-68188961D01*
X29937519Y-68188961D02*
X29937519Y-68284199D01*
X29937519Y-68284199D02*
X29889900Y-68379437D01*
X29889900Y-68379437D02*
X29842280Y-68427056D01*
X29842280Y-68427056D02*
X29747042Y-68474675D01*
X29747042Y-68474675D02*
X29556566Y-68522294D01*
X29556566Y-68522294D02*
X29318471Y-68522294D01*
X29318471Y-68522294D02*
X29127995Y-68474675D01*
X29127995Y-68474675D02*
X29032757Y-68427056D01*
X29032757Y-68427056D02*
X28985138Y-68379437D01*
X28985138Y-68379437D02*
X28937519Y-68284199D01*
X29937519Y-67522294D02*
X28937519Y-67522294D01*
X29556566Y-67427056D02*
X29937519Y-67141342D01*
X29270852Y-67141342D02*
X29651804Y-67522294D01*
X69214819Y-39771904D02*
X70024342Y-39771904D01*
X70024342Y-39771904D02*
X70119580Y-39724285D01*
X70119580Y-39724285D02*
X70167200Y-39676666D01*
X70167200Y-39676666D02*
X70214819Y-39581428D01*
X70214819Y-39581428D02*
X70214819Y-39390952D01*
X70214819Y-39390952D02*
X70167200Y-39295714D01*
X70167200Y-39295714D02*
X70119580Y-39248095D01*
X70119580Y-39248095D02*
X70024342Y-39200476D01*
X70024342Y-39200476D02*
X69214819Y-39200476D01*
X70214819Y-38200476D02*
X70214819Y-38771904D01*
X70214819Y-38486190D02*
X69214819Y-38486190D01*
X69214819Y-38486190D02*
X69357676Y-38581428D01*
X69357676Y-38581428D02*
X69452914Y-38676666D01*
X69452914Y-38676666D02*
X69500533Y-38771904D01*
X56516666Y-39580033D02*
X56516666Y-38880033D01*
X56516666Y-38880033D02*
X56750000Y-39380033D01*
X56750000Y-39380033D02*
X56983333Y-38880033D01*
X56983333Y-38880033D02*
X56983333Y-39580033D01*
X57316666Y-39580033D02*
X57316666Y-38880033D01*
X57649999Y-39580033D02*
X57649999Y-38880033D01*
X57649999Y-38880033D02*
X57883333Y-39380033D01*
X57883333Y-39380033D02*
X58116666Y-38880033D01*
X58116666Y-38880033D02*
X58116666Y-39580033D01*
X58383333Y-38880033D02*
X58849999Y-39580033D01*
X58849999Y-38880033D02*
X58383333Y-39580033D01*
X59516666Y-39580033D02*
X59283333Y-39246700D01*
X59116666Y-39580033D02*
X59116666Y-38880033D01*
X59116666Y-38880033D02*
X59383333Y-38880033D01*
X59383333Y-38880033D02*
X59450000Y-38913366D01*
X59450000Y-38913366D02*
X59483333Y-38946700D01*
X59483333Y-38946700D02*
X59516666Y-39013366D01*
X59516666Y-39013366D02*
X59516666Y-39113366D01*
X59516666Y-39113366D02*
X59483333Y-39180033D01*
X59483333Y-39180033D02*
X59450000Y-39213366D01*
X59450000Y-39213366D02*
X59383333Y-39246700D01*
X59383333Y-39246700D02*
X59116666Y-39246700D01*
X59716666Y-38880033D02*
X60116666Y-38880033D01*
X59916666Y-39580033D02*
X59916666Y-38880033D01*
X60716666Y-39580033D02*
X60316666Y-39580033D01*
X60516666Y-39580033D02*
X60516666Y-38880033D01*
X60516666Y-38880033D02*
X60449999Y-38980033D01*
X60449999Y-38980033D02*
X60383333Y-39046700D01*
X60383333Y-39046700D02*
X60316666Y-39080033D01*
X61150000Y-38880033D02*
X61216666Y-38880033D01*
X61216666Y-38880033D02*
X61283333Y-38913366D01*
X61283333Y-38913366D02*
X61316666Y-38946700D01*
X61316666Y-38946700D02*
X61350000Y-39013366D01*
X61350000Y-39013366D02*
X61383333Y-39146700D01*
X61383333Y-39146700D02*
X61383333Y-39313366D01*
X61383333Y-39313366D02*
X61350000Y-39446700D01*
X61350000Y-39446700D02*
X61316666Y-39513366D01*
X61316666Y-39513366D02*
X61283333Y-39546700D01*
X61283333Y-39546700D02*
X61216666Y-39580033D01*
X61216666Y-39580033D02*
X61150000Y-39580033D01*
X61150000Y-39580033D02*
X61083333Y-39546700D01*
X61083333Y-39546700D02*
X61050000Y-39513366D01*
X61050000Y-39513366D02*
X61016666Y-39446700D01*
X61016666Y-39446700D02*
X60983333Y-39313366D01*
X60983333Y-39313366D02*
X60983333Y-39146700D01*
X60983333Y-39146700D02*
X61016666Y-39013366D01*
X61016666Y-39013366D02*
X61050000Y-38946700D01*
X61050000Y-38946700D02*
X61083333Y-38913366D01*
X61083333Y-38913366D02*
X61150000Y-38880033D01*
X61983333Y-38880033D02*
X61850000Y-38880033D01*
X61850000Y-38880033D02*
X61783333Y-38913366D01*
X61783333Y-38913366D02*
X61750000Y-38946700D01*
X61750000Y-38946700D02*
X61683333Y-39046700D01*
X61683333Y-39046700D02*
X61650000Y-39180033D01*
X61650000Y-39180033D02*
X61650000Y-39446700D01*
X61650000Y-39446700D02*
X61683333Y-39513366D01*
X61683333Y-39513366D02*
X61716667Y-39546700D01*
X61716667Y-39546700D02*
X61783333Y-39580033D01*
X61783333Y-39580033D02*
X61916667Y-39580033D01*
X61916667Y-39580033D02*
X61983333Y-39546700D01*
X61983333Y-39546700D02*
X62016667Y-39513366D01*
X62016667Y-39513366D02*
X62050000Y-39446700D01*
X62050000Y-39446700D02*
X62050000Y-39280033D01*
X62050000Y-39280033D02*
X62016667Y-39213366D01*
X62016667Y-39213366D02*
X61983333Y-39180033D01*
X61983333Y-39180033D02*
X61916667Y-39146700D01*
X61916667Y-39146700D02*
X61783333Y-39146700D01*
X61783333Y-39146700D02*
X61716667Y-39180033D01*
X61716667Y-39180033D02*
X61683333Y-39213366D01*
X61683333Y-39213366D02*
X61650000Y-39280033D01*
X62316667Y-38946700D02*
X62350000Y-38913366D01*
X62350000Y-38913366D02*
X62416667Y-38880033D01*
X62416667Y-38880033D02*
X62583334Y-38880033D01*
X62583334Y-38880033D02*
X62650000Y-38913366D01*
X62650000Y-38913366D02*
X62683334Y-38946700D01*
X62683334Y-38946700D02*
X62716667Y-39013366D01*
X62716667Y-39013366D02*
X62716667Y-39080033D01*
X62716667Y-39080033D02*
X62683334Y-39180033D01*
X62683334Y-39180033D02*
X62283334Y-39580033D01*
X62283334Y-39580033D02*
X62716667Y-39580033D01*
X58199999Y-41104033D02*
X58199999Y-40404033D01*
X58199999Y-40404033D02*
X58366666Y-40404033D01*
X58366666Y-40404033D02*
X58466666Y-40437366D01*
X58466666Y-40437366D02*
X58533333Y-40504033D01*
X58533333Y-40504033D02*
X58566666Y-40570700D01*
X58566666Y-40570700D02*
X58599999Y-40704033D01*
X58599999Y-40704033D02*
X58599999Y-40804033D01*
X58599999Y-40804033D02*
X58566666Y-40937366D01*
X58566666Y-40937366D02*
X58533333Y-41004033D01*
X58533333Y-41004033D02*
X58466666Y-41070700D01*
X58466666Y-41070700D02*
X58366666Y-41104033D01*
X58366666Y-41104033D02*
X58199999Y-41104033D01*
X58799999Y-40404033D02*
X59033333Y-41104033D01*
X59033333Y-41104033D02*
X59266666Y-40404033D01*
X59833333Y-41104033D02*
X59499999Y-41104033D01*
X59499999Y-41104033D02*
X59499999Y-40404033D01*
X60366666Y-40404033D02*
X60233333Y-40404033D01*
X60233333Y-40404033D02*
X60166666Y-40437366D01*
X60166666Y-40437366D02*
X60133333Y-40470700D01*
X60133333Y-40470700D02*
X60066666Y-40570700D01*
X60066666Y-40570700D02*
X60033333Y-40704033D01*
X60033333Y-40704033D02*
X60033333Y-40970700D01*
X60033333Y-40970700D02*
X60066666Y-41037366D01*
X60066666Y-41037366D02*
X60100000Y-41070700D01*
X60100000Y-41070700D02*
X60166666Y-41104033D01*
X60166666Y-41104033D02*
X60300000Y-41104033D01*
X60300000Y-41104033D02*
X60366666Y-41070700D01*
X60366666Y-41070700D02*
X60400000Y-41037366D01*
X60400000Y-41037366D02*
X60433333Y-40970700D01*
X60433333Y-40970700D02*
X60433333Y-40804033D01*
X60433333Y-40804033D02*
X60400000Y-40737366D01*
X60400000Y-40737366D02*
X60366666Y-40704033D01*
X60366666Y-40704033D02*
X60300000Y-40670700D01*
X60300000Y-40670700D02*
X60166666Y-40670700D01*
X60166666Y-40670700D02*
X60100000Y-40704033D01*
X60100000Y-40704033D02*
X60066666Y-40737366D01*
X60066666Y-40737366D02*
X60033333Y-40804033D01*
X60700000Y-40904033D02*
X61033333Y-40904033D01*
X60633333Y-41104033D02*
X60866667Y-40404033D01*
X60866667Y-40404033D02*
X61100000Y-41104033D01*
D12*
X122000667Y-40462095D02*
X121662000Y-39978286D01*
X121420095Y-40462095D02*
X121420095Y-39446095D01*
X121420095Y-39446095D02*
X121807143Y-39446095D01*
X121807143Y-39446095D02*
X121903905Y-39494476D01*
X121903905Y-39494476D02*
X121952286Y-39542857D01*
X121952286Y-39542857D02*
X122000667Y-39639619D01*
X122000667Y-39639619D02*
X122000667Y-39784762D01*
X122000667Y-39784762D02*
X121952286Y-39881524D01*
X121952286Y-39881524D02*
X121903905Y-39929905D01*
X121903905Y-39929905D02*
X121807143Y-39978286D01*
X121807143Y-39978286D02*
X121420095Y-39978286D01*
X122871524Y-39784762D02*
X122871524Y-40462095D01*
X122629619Y-39397715D02*
X122387714Y-40123429D01*
X122387714Y-40123429D02*
X123016667Y-40123429D01*
X119242953Y-42172095D02*
X118662381Y-42172095D01*
X118952667Y-42172095D02*
X118952667Y-41156095D01*
X118952667Y-41156095D02*
X118855905Y-41301238D01*
X118855905Y-41301238D02*
X118759143Y-41398000D01*
X118759143Y-41398000D02*
X118662381Y-41446381D01*
X119871905Y-41156095D02*
X119968667Y-41156095D01*
X119968667Y-41156095D02*
X120065429Y-41204476D01*
X120065429Y-41204476D02*
X120113810Y-41252857D01*
X120113810Y-41252857D02*
X120162191Y-41349619D01*
X120162191Y-41349619D02*
X120210572Y-41543143D01*
X120210572Y-41543143D02*
X120210572Y-41785048D01*
X120210572Y-41785048D02*
X120162191Y-41978572D01*
X120162191Y-41978572D02*
X120113810Y-42075334D01*
X120113810Y-42075334D02*
X120065429Y-42123715D01*
X120065429Y-42123715D02*
X119968667Y-42172095D01*
X119968667Y-42172095D02*
X119871905Y-42172095D01*
X119871905Y-42172095D02*
X119775143Y-42123715D01*
X119775143Y-42123715D02*
X119726762Y-42075334D01*
X119726762Y-42075334D02*
X119678381Y-41978572D01*
X119678381Y-41978572D02*
X119630000Y-41785048D01*
X119630000Y-41785048D02*
X119630000Y-41543143D01*
X119630000Y-41543143D02*
X119678381Y-41349619D01*
X119678381Y-41349619D02*
X119726762Y-41252857D01*
X119726762Y-41252857D02*
X119775143Y-41204476D01*
X119775143Y-41204476D02*
X119871905Y-41156095D01*
X120646000Y-42172095D02*
X120646000Y-41156095D01*
X120742762Y-41785048D02*
X121033048Y-42172095D01*
X121033048Y-41494762D02*
X120646000Y-41881810D01*
X121226572Y-42268857D02*
X122000667Y-42268857D01*
X122436095Y-41156095D02*
X122532857Y-41156095D01*
X122532857Y-41156095D02*
X122629619Y-41204476D01*
X122629619Y-41204476D02*
X122678000Y-41252857D01*
X122678000Y-41252857D02*
X122726381Y-41349619D01*
X122726381Y-41349619D02*
X122774762Y-41543143D01*
X122774762Y-41543143D02*
X122774762Y-41785048D01*
X122774762Y-41785048D02*
X122726381Y-41978572D01*
X122726381Y-41978572D02*
X122678000Y-42075334D01*
X122678000Y-42075334D02*
X122629619Y-42123715D01*
X122629619Y-42123715D02*
X122532857Y-42172095D01*
X122532857Y-42172095D02*
X122436095Y-42172095D01*
X122436095Y-42172095D02*
X122339333Y-42123715D01*
X122339333Y-42123715D02*
X122290952Y-42075334D01*
X122290952Y-42075334D02*
X122242571Y-41978572D01*
X122242571Y-41978572D02*
X122194190Y-41785048D01*
X122194190Y-41785048D02*
X122194190Y-41543143D01*
X122194190Y-41543143D02*
X122242571Y-41349619D01*
X122242571Y-41349619D02*
X122290952Y-41252857D01*
X122290952Y-41252857D02*
X122339333Y-41204476D01*
X122339333Y-41204476D02*
X122436095Y-41156095D01*
X123645619Y-41494762D02*
X123645619Y-42172095D01*
X123403714Y-41107715D02*
X123161809Y-41833429D01*
X123161809Y-41833429D02*
X123790762Y-41833429D01*
X124371333Y-41156095D02*
X124468095Y-41156095D01*
X124468095Y-41156095D02*
X124564857Y-41204476D01*
X124564857Y-41204476D02*
X124613238Y-41252857D01*
X124613238Y-41252857D02*
X124661619Y-41349619D01*
X124661619Y-41349619D02*
X124710000Y-41543143D01*
X124710000Y-41543143D02*
X124710000Y-41785048D01*
X124710000Y-41785048D02*
X124661619Y-41978572D01*
X124661619Y-41978572D02*
X124613238Y-42075334D01*
X124613238Y-42075334D02*
X124564857Y-42123715D01*
X124564857Y-42123715D02*
X124468095Y-42172095D01*
X124468095Y-42172095D02*
X124371333Y-42172095D01*
X124371333Y-42172095D02*
X124274571Y-42123715D01*
X124274571Y-42123715D02*
X124226190Y-42075334D01*
X124226190Y-42075334D02*
X124177809Y-41978572D01*
X124177809Y-41978572D02*
X124129428Y-41785048D01*
X124129428Y-41785048D02*
X124129428Y-41543143D01*
X124129428Y-41543143D02*
X124177809Y-41349619D01*
X124177809Y-41349619D02*
X124226190Y-41252857D01*
X124226190Y-41252857D02*
X124274571Y-41204476D01*
X124274571Y-41204476D02*
X124371333Y-41156095D01*
X125097047Y-41252857D02*
X125145428Y-41204476D01*
X125145428Y-41204476D02*
X125242190Y-41156095D01*
X125242190Y-41156095D02*
X125484095Y-41156095D01*
X125484095Y-41156095D02*
X125580857Y-41204476D01*
X125580857Y-41204476D02*
X125629238Y-41252857D01*
X125629238Y-41252857D02*
X125677619Y-41349619D01*
X125677619Y-41349619D02*
X125677619Y-41446381D01*
X125677619Y-41446381D02*
X125629238Y-41591524D01*
X125629238Y-41591524D02*
X125048666Y-42172095D01*
X125048666Y-42172095D02*
X125677619Y-42172095D01*
D13*
X78919580Y-49416666D02*
X78967200Y-49464285D01*
X78967200Y-49464285D02*
X79014819Y-49607142D01*
X79014819Y-49607142D02*
X79014819Y-49702380D01*
X79014819Y-49702380D02*
X78967200Y-49845237D01*
X78967200Y-49845237D02*
X78871961Y-49940475D01*
X78871961Y-49940475D02*
X78776723Y-49988094D01*
X78776723Y-49988094D02*
X78586247Y-50035713D01*
X78586247Y-50035713D02*
X78443390Y-50035713D01*
X78443390Y-50035713D02*
X78252914Y-49988094D01*
X78252914Y-49988094D02*
X78157676Y-49940475D01*
X78157676Y-49940475D02*
X78062438Y-49845237D01*
X78062438Y-49845237D02*
X78014819Y-49702380D01*
X78014819Y-49702380D02*
X78014819Y-49607142D01*
X78014819Y-49607142D02*
X78062438Y-49464285D01*
X78062438Y-49464285D02*
X78110057Y-49416666D01*
X78110057Y-49035713D02*
X78062438Y-48988094D01*
X78062438Y-48988094D02*
X78014819Y-48892856D01*
X78014819Y-48892856D02*
X78014819Y-48654761D01*
X78014819Y-48654761D02*
X78062438Y-48559523D01*
X78062438Y-48559523D02*
X78110057Y-48511904D01*
X78110057Y-48511904D02*
X78205295Y-48464285D01*
X78205295Y-48464285D02*
X78300533Y-48464285D01*
X78300533Y-48464285D02*
X78443390Y-48511904D01*
X78443390Y-48511904D02*
X79014819Y-49083332D01*
X79014819Y-49083332D02*
X79014819Y-48464285D01*
D14*
X81325662Y-50064286D02*
X81325662Y-50498572D01*
X81325662Y-50281429D02*
X80565662Y-50281429D01*
X80565662Y-50281429D02*
X80674233Y-50353810D01*
X80674233Y-50353810D02*
X80746614Y-50426191D01*
X80746614Y-50426191D02*
X80782805Y-50498572D01*
X80565662Y-49593809D02*
X80565662Y-49521428D01*
X80565662Y-49521428D02*
X80601852Y-49449047D01*
X80601852Y-49449047D02*
X80638043Y-49412857D01*
X80638043Y-49412857D02*
X80710424Y-49376666D01*
X80710424Y-49376666D02*
X80855186Y-49340476D01*
X80855186Y-49340476D02*
X81036138Y-49340476D01*
X81036138Y-49340476D02*
X81180900Y-49376666D01*
X81180900Y-49376666D02*
X81253281Y-49412857D01*
X81253281Y-49412857D02*
X81289472Y-49449047D01*
X81289472Y-49449047D02*
X81325662Y-49521428D01*
X81325662Y-49521428D02*
X81325662Y-49593809D01*
X81325662Y-49593809D02*
X81289472Y-49666190D01*
X81289472Y-49666190D02*
X81253281Y-49702381D01*
X81253281Y-49702381D02*
X81180900Y-49738571D01*
X81180900Y-49738571D02*
X81036138Y-49774762D01*
X81036138Y-49774762D02*
X80855186Y-49774762D01*
X80855186Y-49774762D02*
X80710424Y-49738571D01*
X80710424Y-49738571D02*
X80638043Y-49702381D01*
X80638043Y-49702381D02*
X80601852Y-49666190D01*
X80601852Y-49666190D02*
X80565662Y-49593809D01*
X80818995Y-49014761D02*
X81325662Y-49014761D01*
X80891376Y-49014761D02*
X80855186Y-48978571D01*
X80855186Y-48978571D02*
X80818995Y-48906190D01*
X80818995Y-48906190D02*
X80818995Y-48797618D01*
X80818995Y-48797618D02*
X80855186Y-48725237D01*
X80855186Y-48725237D02*
X80927567Y-48689047D01*
X80927567Y-48689047D02*
X81325662Y-48689047D01*
X80927567Y-48073809D02*
X80927567Y-48327142D01*
X81325662Y-48327142D02*
X80565662Y-48327142D01*
X80565662Y-48327142D02*
X80565662Y-47965237D01*
D13*
X90937519Y-93839438D02*
X90461328Y-94172771D01*
X90937519Y-94410866D02*
X89937519Y-94410866D01*
X89937519Y-94410866D02*
X89937519Y-94029914D01*
X89937519Y-94029914D02*
X89985138Y-93934676D01*
X89985138Y-93934676D02*
X90032757Y-93887057D01*
X90032757Y-93887057D02*
X90127995Y-93839438D01*
X90127995Y-93839438D02*
X90270852Y-93839438D01*
X90270852Y-93839438D02*
X90366090Y-93887057D01*
X90366090Y-93887057D02*
X90413709Y-93934676D01*
X90413709Y-93934676D02*
X90461328Y-94029914D01*
X90461328Y-94029914D02*
X90461328Y-94410866D01*
X89937519Y-93553723D02*
X90937519Y-93220390D01*
X90937519Y-93220390D02*
X89937519Y-92887057D01*
X89937519Y-92648961D02*
X89937519Y-91982295D01*
X89937519Y-91982295D02*
X90937519Y-92410866D01*
X75413709Y-95006104D02*
X75461328Y-94863247D01*
X75461328Y-94863247D02*
X75508947Y-94815628D01*
X75508947Y-94815628D02*
X75604185Y-94768009D01*
X75604185Y-94768009D02*
X75747042Y-94768009D01*
X75747042Y-94768009D02*
X75842280Y-94815628D01*
X75842280Y-94815628D02*
X75889900Y-94863247D01*
X75889900Y-94863247D02*
X75937519Y-94958485D01*
X75937519Y-94958485D02*
X75937519Y-95339437D01*
X75937519Y-95339437D02*
X74937519Y-95339437D01*
X74937519Y-95339437D02*
X74937519Y-95006104D01*
X74937519Y-95006104D02*
X74985138Y-94910866D01*
X74985138Y-94910866D02*
X75032757Y-94863247D01*
X75032757Y-94863247D02*
X75127995Y-94815628D01*
X75127995Y-94815628D02*
X75223233Y-94815628D01*
X75223233Y-94815628D02*
X75318471Y-94863247D01*
X75318471Y-94863247D02*
X75366090Y-94910866D01*
X75366090Y-94910866D02*
X75413709Y-95006104D01*
X75413709Y-95006104D02*
X75413709Y-95339437D01*
X75937519Y-93815628D02*
X75937519Y-94387056D01*
X75937519Y-94101342D02*
X74937519Y-94101342D01*
X74937519Y-94101342D02*
X75080376Y-94196580D01*
X75080376Y-94196580D02*
X75175614Y-94291818D01*
X75175614Y-94291818D02*
X75223233Y-94387056D01*
X74937519Y-93196580D02*
X74937519Y-93101342D01*
X74937519Y-93101342D02*
X74985138Y-93006104D01*
X74985138Y-93006104D02*
X75032757Y-92958485D01*
X75032757Y-92958485D02*
X75127995Y-92910866D01*
X75127995Y-92910866D02*
X75318471Y-92863247D01*
X75318471Y-92863247D02*
X75556566Y-92863247D01*
X75556566Y-92863247D02*
X75747042Y-92910866D01*
X75747042Y-92910866D02*
X75842280Y-92958485D01*
X75842280Y-92958485D02*
X75889900Y-93006104D01*
X75889900Y-93006104D02*
X75937519Y-93101342D01*
X75937519Y-93101342D02*
X75937519Y-93196580D01*
X75937519Y-93196580D02*
X75889900Y-93291818D01*
X75889900Y-93291818D02*
X75842280Y-93339437D01*
X75842280Y-93339437D02*
X75747042Y-93387056D01*
X75747042Y-93387056D02*
X75556566Y-93434675D01*
X75556566Y-93434675D02*
X75318471Y-93434675D01*
X75318471Y-93434675D02*
X75127995Y-93387056D01*
X75127995Y-93387056D02*
X75032757Y-93339437D01*
X75032757Y-93339437D02*
X74985138Y-93291818D01*
X74985138Y-93291818D02*
X74937519Y-93196580D01*
X74937519Y-92244199D02*
X74937519Y-92148961D01*
X74937519Y-92148961D02*
X74985138Y-92053723D01*
X74985138Y-92053723D02*
X75032757Y-92006104D01*
X75032757Y-92006104D02*
X75127995Y-91958485D01*
X75127995Y-91958485D02*
X75318471Y-91910866D01*
X75318471Y-91910866D02*
X75556566Y-91910866D01*
X75556566Y-91910866D02*
X75747042Y-91958485D01*
X75747042Y-91958485D02*
X75842280Y-92006104D01*
X75842280Y-92006104D02*
X75889900Y-92053723D01*
X75889900Y-92053723D02*
X75937519Y-92148961D01*
X75937519Y-92148961D02*
X75937519Y-92244199D01*
X75937519Y-92244199D02*
X75889900Y-92339437D01*
X75889900Y-92339437D02*
X75842280Y-92387056D01*
X75842280Y-92387056D02*
X75747042Y-92434675D01*
X75747042Y-92434675D02*
X75556566Y-92482294D01*
X75556566Y-92482294D02*
X75318471Y-92482294D01*
X75318471Y-92482294D02*
X75127995Y-92434675D01*
X75127995Y-92434675D02*
X75032757Y-92387056D01*
X75032757Y-92387056D02*
X74985138Y-92339437D01*
X74985138Y-92339437D02*
X74937519Y-92244199D01*
X75937519Y-91482294D02*
X74937519Y-91482294D01*
X75556566Y-91387056D02*
X75937519Y-91101342D01*
X75270852Y-91101342D02*
X75651804Y-91482294D01*
X151376667Y-83783200D02*
X151519524Y-83830819D01*
X151519524Y-83830819D02*
X151757619Y-83830819D01*
X151757619Y-83830819D02*
X151852857Y-83783200D01*
X151852857Y-83783200D02*
X151900476Y-83735580D01*
X151900476Y-83735580D02*
X151948095Y-83640342D01*
X151948095Y-83640342D02*
X151948095Y-83545104D01*
X151948095Y-83545104D02*
X151900476Y-83449866D01*
X151900476Y-83449866D02*
X151852857Y-83402247D01*
X151852857Y-83402247D02*
X151757619Y-83354628D01*
X151757619Y-83354628D02*
X151567143Y-83307009D01*
X151567143Y-83307009D02*
X151471905Y-83259390D01*
X151471905Y-83259390D02*
X151424286Y-83211771D01*
X151424286Y-83211771D02*
X151376667Y-83116533D01*
X151376667Y-83116533D02*
X151376667Y-83021295D01*
X151376667Y-83021295D02*
X151424286Y-82926057D01*
X151424286Y-82926057D02*
X151471905Y-82878438D01*
X151471905Y-82878438D02*
X151567143Y-82830819D01*
X151567143Y-82830819D02*
X151805238Y-82830819D01*
X151805238Y-82830819D02*
X151948095Y-82878438D01*
X152281429Y-82830819D02*
X152519524Y-83830819D01*
X152519524Y-83830819D02*
X152710000Y-83116533D01*
X152710000Y-83116533D02*
X152900476Y-83830819D01*
X152900476Y-83830819D02*
X153138572Y-82830819D01*
X153948095Y-83164152D02*
X153948095Y-83830819D01*
X153710000Y-82783200D02*
X153471905Y-83497485D01*
X153471905Y-83497485D02*
X154090952Y-83497485D01*
X90937519Y-69879438D02*
X90461328Y-70212771D01*
X90937519Y-70450866D02*
X89937519Y-70450866D01*
X89937519Y-70450866D02*
X89937519Y-70069914D01*
X89937519Y-70069914D02*
X89985138Y-69974676D01*
X89985138Y-69974676D02*
X90032757Y-69927057D01*
X90032757Y-69927057D02*
X90127995Y-69879438D01*
X90127995Y-69879438D02*
X90270852Y-69879438D01*
X90270852Y-69879438D02*
X90366090Y-69927057D01*
X90366090Y-69927057D02*
X90413709Y-69974676D01*
X90413709Y-69974676D02*
X90461328Y-70069914D01*
X90461328Y-70069914D02*
X90461328Y-70450866D01*
X89937519Y-69593723D02*
X90937519Y-69260390D01*
X90937519Y-69260390D02*
X89937519Y-68927057D01*
X89937519Y-68688961D02*
X89937519Y-68069914D01*
X89937519Y-68069914D02*
X90318471Y-68403247D01*
X90318471Y-68403247D02*
X90318471Y-68260390D01*
X90318471Y-68260390D02*
X90366090Y-68165152D01*
X90366090Y-68165152D02*
X90413709Y-68117533D01*
X90413709Y-68117533D02*
X90508947Y-68069914D01*
X90508947Y-68069914D02*
X90747042Y-68069914D01*
X90747042Y-68069914D02*
X90842280Y-68117533D01*
X90842280Y-68117533D02*
X90889900Y-68165152D01*
X90889900Y-68165152D02*
X90937519Y-68260390D01*
X90937519Y-68260390D02*
X90937519Y-68546104D01*
X90937519Y-68546104D02*
X90889900Y-68641342D01*
X90889900Y-68641342D02*
X90842280Y-68688961D01*
X75413709Y-71046104D02*
X75461328Y-70903247D01*
X75461328Y-70903247D02*
X75508947Y-70855628D01*
X75508947Y-70855628D02*
X75604185Y-70808009D01*
X75604185Y-70808009D02*
X75747042Y-70808009D01*
X75747042Y-70808009D02*
X75842280Y-70855628D01*
X75842280Y-70855628D02*
X75889900Y-70903247D01*
X75889900Y-70903247D02*
X75937519Y-70998485D01*
X75937519Y-70998485D02*
X75937519Y-71379437D01*
X75937519Y-71379437D02*
X74937519Y-71379437D01*
X74937519Y-71379437D02*
X74937519Y-71046104D01*
X74937519Y-71046104D02*
X74985138Y-70950866D01*
X74985138Y-70950866D02*
X75032757Y-70903247D01*
X75032757Y-70903247D02*
X75127995Y-70855628D01*
X75127995Y-70855628D02*
X75223233Y-70855628D01*
X75223233Y-70855628D02*
X75318471Y-70903247D01*
X75318471Y-70903247D02*
X75366090Y-70950866D01*
X75366090Y-70950866D02*
X75413709Y-71046104D01*
X75413709Y-71046104D02*
X75413709Y-71379437D01*
X75937519Y-69855628D02*
X75937519Y-70427056D01*
X75937519Y-70141342D02*
X74937519Y-70141342D01*
X74937519Y-70141342D02*
X75080376Y-70236580D01*
X75080376Y-70236580D02*
X75175614Y-70331818D01*
X75175614Y-70331818D02*
X75223233Y-70427056D01*
X74937519Y-69236580D02*
X74937519Y-69141342D01*
X74937519Y-69141342D02*
X74985138Y-69046104D01*
X74985138Y-69046104D02*
X75032757Y-68998485D01*
X75032757Y-68998485D02*
X75127995Y-68950866D01*
X75127995Y-68950866D02*
X75318471Y-68903247D01*
X75318471Y-68903247D02*
X75556566Y-68903247D01*
X75556566Y-68903247D02*
X75747042Y-68950866D01*
X75747042Y-68950866D02*
X75842280Y-68998485D01*
X75842280Y-68998485D02*
X75889900Y-69046104D01*
X75889900Y-69046104D02*
X75937519Y-69141342D01*
X75937519Y-69141342D02*
X75937519Y-69236580D01*
X75937519Y-69236580D02*
X75889900Y-69331818D01*
X75889900Y-69331818D02*
X75842280Y-69379437D01*
X75842280Y-69379437D02*
X75747042Y-69427056D01*
X75747042Y-69427056D02*
X75556566Y-69474675D01*
X75556566Y-69474675D02*
X75318471Y-69474675D01*
X75318471Y-69474675D02*
X75127995Y-69427056D01*
X75127995Y-69427056D02*
X75032757Y-69379437D01*
X75032757Y-69379437D02*
X74985138Y-69331818D01*
X74985138Y-69331818D02*
X74937519Y-69236580D01*
X74937519Y-68284199D02*
X74937519Y-68188961D01*
X74937519Y-68188961D02*
X74985138Y-68093723D01*
X74985138Y-68093723D02*
X75032757Y-68046104D01*
X75032757Y-68046104D02*
X75127995Y-67998485D01*
X75127995Y-67998485D02*
X75318471Y-67950866D01*
X75318471Y-67950866D02*
X75556566Y-67950866D01*
X75556566Y-67950866D02*
X75747042Y-67998485D01*
X75747042Y-67998485D02*
X75842280Y-68046104D01*
X75842280Y-68046104D02*
X75889900Y-68093723D01*
X75889900Y-68093723D02*
X75937519Y-68188961D01*
X75937519Y-68188961D02*
X75937519Y-68284199D01*
X75937519Y-68284199D02*
X75889900Y-68379437D01*
X75889900Y-68379437D02*
X75842280Y-68427056D01*
X75842280Y-68427056D02*
X75747042Y-68474675D01*
X75747042Y-68474675D02*
X75556566Y-68522294D01*
X75556566Y-68522294D02*
X75318471Y-68522294D01*
X75318471Y-68522294D02*
X75127995Y-68474675D01*
X75127995Y-68474675D02*
X75032757Y-68427056D01*
X75032757Y-68427056D02*
X74985138Y-68379437D01*
X74985138Y-68379437D02*
X74937519Y-68284199D01*
X75937519Y-67522294D02*
X74937519Y-67522294D01*
X75556566Y-67427056D02*
X75937519Y-67141342D01*
X75270852Y-67141342D02*
X75651804Y-67522294D01*
X38146666Y-34754819D02*
X38146666Y-35469104D01*
X38146666Y-35469104D02*
X38099047Y-35611961D01*
X38099047Y-35611961D02*
X38003809Y-35707200D01*
X38003809Y-35707200D02*
X37860952Y-35754819D01*
X37860952Y-35754819D02*
X37765714Y-35754819D01*
X39146666Y-35754819D02*
X38575238Y-35754819D01*
X38860952Y-35754819D02*
X38860952Y-34754819D01*
X38860952Y-34754819D02*
X38765714Y-34897676D01*
X38765714Y-34897676D02*
X38670476Y-34992914D01*
X38670476Y-34992914D02*
X38575238Y-35040533D01*
X103919580Y-49416666D02*
X103967200Y-49464285D01*
X103967200Y-49464285D02*
X104014819Y-49607142D01*
X104014819Y-49607142D02*
X104014819Y-49702380D01*
X104014819Y-49702380D02*
X103967200Y-49845237D01*
X103967200Y-49845237D02*
X103871961Y-49940475D01*
X103871961Y-49940475D02*
X103776723Y-49988094D01*
X103776723Y-49988094D02*
X103586247Y-50035713D01*
X103586247Y-50035713D02*
X103443390Y-50035713D01*
X103443390Y-50035713D02*
X103252914Y-49988094D01*
X103252914Y-49988094D02*
X103157676Y-49940475D01*
X103157676Y-49940475D02*
X103062438Y-49845237D01*
X103062438Y-49845237D02*
X103014819Y-49702380D01*
X103014819Y-49702380D02*
X103014819Y-49607142D01*
X103014819Y-49607142D02*
X103062438Y-49464285D01*
X103062438Y-49464285D02*
X103110057Y-49416666D01*
X103014819Y-48559523D02*
X103014819Y-48749999D01*
X103014819Y-48749999D02*
X103062438Y-48845237D01*
X103062438Y-48845237D02*
X103110057Y-48892856D01*
X103110057Y-48892856D02*
X103252914Y-48988094D01*
X103252914Y-48988094D02*
X103443390Y-49035713D01*
X103443390Y-49035713D02*
X103824342Y-49035713D01*
X103824342Y-49035713D02*
X103919580Y-48988094D01*
X103919580Y-48988094D02*
X103967200Y-48940475D01*
X103967200Y-48940475D02*
X104014819Y-48845237D01*
X104014819Y-48845237D02*
X104014819Y-48654761D01*
X104014819Y-48654761D02*
X103967200Y-48559523D01*
X103967200Y-48559523D02*
X103919580Y-48511904D01*
X103919580Y-48511904D02*
X103824342Y-48464285D01*
X103824342Y-48464285D02*
X103586247Y-48464285D01*
X103586247Y-48464285D02*
X103491009Y-48511904D01*
X103491009Y-48511904D02*
X103443390Y-48559523D01*
X103443390Y-48559523D02*
X103395771Y-48654761D01*
X103395771Y-48654761D02*
X103395771Y-48845237D01*
X103395771Y-48845237D02*
X103443390Y-48940475D01*
X103443390Y-48940475D02*
X103491009Y-48988094D01*
X103491009Y-48988094D02*
X103586247Y-49035713D01*
D14*
X106325662Y-50064286D02*
X106325662Y-50498572D01*
X106325662Y-50281429D02*
X105565662Y-50281429D01*
X105565662Y-50281429D02*
X105674233Y-50353810D01*
X105674233Y-50353810D02*
X105746614Y-50426191D01*
X105746614Y-50426191D02*
X105782805Y-50498572D01*
X105565662Y-49593809D02*
X105565662Y-49521428D01*
X105565662Y-49521428D02*
X105601852Y-49449047D01*
X105601852Y-49449047D02*
X105638043Y-49412857D01*
X105638043Y-49412857D02*
X105710424Y-49376666D01*
X105710424Y-49376666D02*
X105855186Y-49340476D01*
X105855186Y-49340476D02*
X106036138Y-49340476D01*
X106036138Y-49340476D02*
X106180900Y-49376666D01*
X106180900Y-49376666D02*
X106253281Y-49412857D01*
X106253281Y-49412857D02*
X106289472Y-49449047D01*
X106289472Y-49449047D02*
X106325662Y-49521428D01*
X106325662Y-49521428D02*
X106325662Y-49593809D01*
X106325662Y-49593809D02*
X106289472Y-49666190D01*
X106289472Y-49666190D02*
X106253281Y-49702381D01*
X106253281Y-49702381D02*
X106180900Y-49738571D01*
X106180900Y-49738571D02*
X106036138Y-49774762D01*
X106036138Y-49774762D02*
X105855186Y-49774762D01*
X105855186Y-49774762D02*
X105710424Y-49738571D01*
X105710424Y-49738571D02*
X105638043Y-49702381D01*
X105638043Y-49702381D02*
X105601852Y-49666190D01*
X105601852Y-49666190D02*
X105565662Y-49593809D01*
X105818995Y-49014761D02*
X106325662Y-49014761D01*
X105891376Y-49014761D02*
X105855186Y-48978571D01*
X105855186Y-48978571D02*
X105818995Y-48906190D01*
X105818995Y-48906190D02*
X105818995Y-48797618D01*
X105818995Y-48797618D02*
X105855186Y-48725237D01*
X105855186Y-48725237D02*
X105927567Y-48689047D01*
X105927567Y-48689047D02*
X106325662Y-48689047D01*
X105927567Y-48073809D02*
X105927567Y-48327142D01*
X106325662Y-48327142D02*
X105565662Y-48327142D01*
X105565662Y-48327142D02*
X105565662Y-47965237D01*
D12*
X43332095Y-39979332D02*
X42848286Y-40317999D01*
X43332095Y-40559904D02*
X42316095Y-40559904D01*
X42316095Y-40559904D02*
X42316095Y-40172856D01*
X42316095Y-40172856D02*
X42364476Y-40076094D01*
X42364476Y-40076094D02*
X42412857Y-40027713D01*
X42412857Y-40027713D02*
X42509619Y-39979332D01*
X42509619Y-39979332D02*
X42654762Y-39979332D01*
X42654762Y-39979332D02*
X42751524Y-40027713D01*
X42751524Y-40027713D02*
X42799905Y-40076094D01*
X42799905Y-40076094D02*
X42848286Y-40172856D01*
X42848286Y-40172856D02*
X42848286Y-40559904D01*
X42316095Y-39108475D02*
X42316095Y-39301999D01*
X42316095Y-39301999D02*
X42364476Y-39398761D01*
X42364476Y-39398761D02*
X42412857Y-39447142D01*
X42412857Y-39447142D02*
X42558000Y-39543904D01*
X42558000Y-39543904D02*
X42751524Y-39592285D01*
X42751524Y-39592285D02*
X43138572Y-39592285D01*
X43138572Y-39592285D02*
X43235334Y-39543904D01*
X43235334Y-39543904D02*
X43283715Y-39495523D01*
X43283715Y-39495523D02*
X43332095Y-39398761D01*
X43332095Y-39398761D02*
X43332095Y-39205237D01*
X43332095Y-39205237D02*
X43283715Y-39108475D01*
X43283715Y-39108475D02*
X43235334Y-39060094D01*
X43235334Y-39060094D02*
X43138572Y-39011713D01*
X43138572Y-39011713D02*
X42896667Y-39011713D01*
X42896667Y-39011713D02*
X42799905Y-39060094D01*
X42799905Y-39060094D02*
X42751524Y-39108475D01*
X42751524Y-39108475D02*
X42703143Y-39205237D01*
X42703143Y-39205237D02*
X42703143Y-39398761D01*
X42703143Y-39398761D02*
X42751524Y-39495523D01*
X42751524Y-39495523D02*
X42799905Y-39543904D01*
X42799905Y-39543904D02*
X42896667Y-39592285D01*
X39732095Y-42737046D02*
X39732095Y-43317618D01*
X39732095Y-43027332D02*
X38716095Y-43027332D01*
X38716095Y-43027332D02*
X38861238Y-43124094D01*
X38861238Y-43124094D02*
X38958000Y-43220856D01*
X38958000Y-43220856D02*
X39006381Y-43317618D01*
X38716095Y-42108094D02*
X38716095Y-42011332D01*
X38716095Y-42011332D02*
X38764476Y-41914570D01*
X38764476Y-41914570D02*
X38812857Y-41866189D01*
X38812857Y-41866189D02*
X38909619Y-41817808D01*
X38909619Y-41817808D02*
X39103143Y-41769427D01*
X39103143Y-41769427D02*
X39345048Y-41769427D01*
X39345048Y-41769427D02*
X39538572Y-41817808D01*
X39538572Y-41817808D02*
X39635334Y-41866189D01*
X39635334Y-41866189D02*
X39683715Y-41914570D01*
X39683715Y-41914570D02*
X39732095Y-42011332D01*
X39732095Y-42011332D02*
X39732095Y-42108094D01*
X39732095Y-42108094D02*
X39683715Y-42204856D01*
X39683715Y-42204856D02*
X39635334Y-42253237D01*
X39635334Y-42253237D02*
X39538572Y-42301618D01*
X39538572Y-42301618D02*
X39345048Y-42349999D01*
X39345048Y-42349999D02*
X39103143Y-42349999D01*
X39103143Y-42349999D02*
X38909619Y-42301618D01*
X38909619Y-42301618D02*
X38812857Y-42253237D01*
X38812857Y-42253237D02*
X38764476Y-42204856D01*
X38764476Y-42204856D02*
X38716095Y-42108094D01*
X39732095Y-41333999D02*
X38716095Y-41333999D01*
X39345048Y-41237237D02*
X39732095Y-40946951D01*
X39054762Y-40946951D02*
X39441810Y-41333999D01*
X39828857Y-40753428D02*
X39828857Y-39979332D01*
X38716095Y-39543904D02*
X38716095Y-39447142D01*
X38716095Y-39447142D02*
X38764476Y-39350380D01*
X38764476Y-39350380D02*
X38812857Y-39301999D01*
X38812857Y-39301999D02*
X38909619Y-39253618D01*
X38909619Y-39253618D02*
X39103143Y-39205237D01*
X39103143Y-39205237D02*
X39345048Y-39205237D01*
X39345048Y-39205237D02*
X39538572Y-39253618D01*
X39538572Y-39253618D02*
X39635334Y-39301999D01*
X39635334Y-39301999D02*
X39683715Y-39350380D01*
X39683715Y-39350380D02*
X39732095Y-39447142D01*
X39732095Y-39447142D02*
X39732095Y-39543904D01*
X39732095Y-39543904D02*
X39683715Y-39640666D01*
X39683715Y-39640666D02*
X39635334Y-39689047D01*
X39635334Y-39689047D02*
X39538572Y-39737428D01*
X39538572Y-39737428D02*
X39345048Y-39785809D01*
X39345048Y-39785809D02*
X39103143Y-39785809D01*
X39103143Y-39785809D02*
X38909619Y-39737428D01*
X38909619Y-39737428D02*
X38812857Y-39689047D01*
X38812857Y-39689047D02*
X38764476Y-39640666D01*
X38764476Y-39640666D02*
X38716095Y-39543904D01*
X39054762Y-38334380D02*
X39732095Y-38334380D01*
X38667715Y-38576285D02*
X39393429Y-38818190D01*
X39393429Y-38818190D02*
X39393429Y-38189237D01*
X38716095Y-37608666D02*
X38716095Y-37511904D01*
X38716095Y-37511904D02*
X38764476Y-37415142D01*
X38764476Y-37415142D02*
X38812857Y-37366761D01*
X38812857Y-37366761D02*
X38909619Y-37318380D01*
X38909619Y-37318380D02*
X39103143Y-37269999D01*
X39103143Y-37269999D02*
X39345048Y-37269999D01*
X39345048Y-37269999D02*
X39538572Y-37318380D01*
X39538572Y-37318380D02*
X39635334Y-37366761D01*
X39635334Y-37366761D02*
X39683715Y-37415142D01*
X39683715Y-37415142D02*
X39732095Y-37511904D01*
X39732095Y-37511904D02*
X39732095Y-37608666D01*
X39732095Y-37608666D02*
X39683715Y-37705428D01*
X39683715Y-37705428D02*
X39635334Y-37753809D01*
X39635334Y-37753809D02*
X39538572Y-37802190D01*
X39538572Y-37802190D02*
X39345048Y-37850571D01*
X39345048Y-37850571D02*
X39103143Y-37850571D01*
X39103143Y-37850571D02*
X38909619Y-37802190D01*
X38909619Y-37802190D02*
X38812857Y-37753809D01*
X38812857Y-37753809D02*
X38764476Y-37705428D01*
X38764476Y-37705428D02*
X38716095Y-37608666D01*
X38812857Y-36882952D02*
X38764476Y-36834571D01*
X38764476Y-36834571D02*
X38716095Y-36737809D01*
X38716095Y-36737809D02*
X38716095Y-36495904D01*
X38716095Y-36495904D02*
X38764476Y-36399142D01*
X38764476Y-36399142D02*
X38812857Y-36350761D01*
X38812857Y-36350761D02*
X38909619Y-36302380D01*
X38909619Y-36302380D02*
X39006381Y-36302380D01*
X39006381Y-36302380D02*
X39151524Y-36350761D01*
X39151524Y-36350761D02*
X39732095Y-36931333D01*
X39732095Y-36931333D02*
X39732095Y-36302380D01*
D13*
X108919580Y-49416666D02*
X108967200Y-49464285D01*
X108967200Y-49464285D02*
X109014819Y-49607142D01*
X109014819Y-49607142D02*
X109014819Y-49702380D01*
X109014819Y-49702380D02*
X108967200Y-49845237D01*
X108967200Y-49845237D02*
X108871961Y-49940475D01*
X108871961Y-49940475D02*
X108776723Y-49988094D01*
X108776723Y-49988094D02*
X108586247Y-50035713D01*
X108586247Y-50035713D02*
X108443390Y-50035713D01*
X108443390Y-50035713D02*
X108252914Y-49988094D01*
X108252914Y-49988094D02*
X108157676Y-49940475D01*
X108157676Y-49940475D02*
X108062438Y-49845237D01*
X108062438Y-49845237D02*
X108014819Y-49702380D01*
X108014819Y-49702380D02*
X108014819Y-49607142D01*
X108014819Y-49607142D02*
X108062438Y-49464285D01*
X108062438Y-49464285D02*
X108110057Y-49416666D01*
X108014819Y-48511904D02*
X108014819Y-48988094D01*
X108014819Y-48988094D02*
X108491009Y-49035713D01*
X108491009Y-49035713D02*
X108443390Y-48988094D01*
X108443390Y-48988094D02*
X108395771Y-48892856D01*
X108395771Y-48892856D02*
X108395771Y-48654761D01*
X108395771Y-48654761D02*
X108443390Y-48559523D01*
X108443390Y-48559523D02*
X108491009Y-48511904D01*
X108491009Y-48511904D02*
X108586247Y-48464285D01*
X108586247Y-48464285D02*
X108824342Y-48464285D01*
X108824342Y-48464285D02*
X108919580Y-48511904D01*
X108919580Y-48511904D02*
X108967200Y-48559523D01*
X108967200Y-48559523D02*
X109014819Y-48654761D01*
X109014819Y-48654761D02*
X109014819Y-48892856D01*
X109014819Y-48892856D02*
X108967200Y-48988094D01*
X108967200Y-48988094D02*
X108919580Y-49035713D01*
D14*
X111325662Y-50064286D02*
X111325662Y-50498572D01*
X111325662Y-50281429D02*
X110565662Y-50281429D01*
X110565662Y-50281429D02*
X110674233Y-50353810D01*
X110674233Y-50353810D02*
X110746614Y-50426191D01*
X110746614Y-50426191D02*
X110782805Y-50498572D01*
X110565662Y-49593809D02*
X110565662Y-49521428D01*
X110565662Y-49521428D02*
X110601852Y-49449047D01*
X110601852Y-49449047D02*
X110638043Y-49412857D01*
X110638043Y-49412857D02*
X110710424Y-49376666D01*
X110710424Y-49376666D02*
X110855186Y-49340476D01*
X110855186Y-49340476D02*
X111036138Y-49340476D01*
X111036138Y-49340476D02*
X111180900Y-49376666D01*
X111180900Y-49376666D02*
X111253281Y-49412857D01*
X111253281Y-49412857D02*
X111289472Y-49449047D01*
X111289472Y-49449047D02*
X111325662Y-49521428D01*
X111325662Y-49521428D02*
X111325662Y-49593809D01*
X111325662Y-49593809D02*
X111289472Y-49666190D01*
X111289472Y-49666190D02*
X111253281Y-49702381D01*
X111253281Y-49702381D02*
X111180900Y-49738571D01*
X111180900Y-49738571D02*
X111036138Y-49774762D01*
X111036138Y-49774762D02*
X110855186Y-49774762D01*
X110855186Y-49774762D02*
X110710424Y-49738571D01*
X110710424Y-49738571D02*
X110638043Y-49702381D01*
X110638043Y-49702381D02*
X110601852Y-49666190D01*
X110601852Y-49666190D02*
X110565662Y-49593809D01*
X110818995Y-49014761D02*
X111325662Y-49014761D01*
X110891376Y-49014761D02*
X110855186Y-48978571D01*
X110855186Y-48978571D02*
X110818995Y-48906190D01*
X110818995Y-48906190D02*
X110818995Y-48797618D01*
X110818995Y-48797618D02*
X110855186Y-48725237D01*
X110855186Y-48725237D02*
X110927567Y-48689047D01*
X110927567Y-48689047D02*
X111325662Y-48689047D01*
X110927567Y-48073809D02*
X110927567Y-48327142D01*
X111325662Y-48327142D02*
X110565662Y-48327142D01*
X110565662Y-48327142D02*
X110565662Y-47965237D01*
D13*
%TO.C,R5*%
X32480000Y-37310000D02*
X32480000Y-43310000D01*
X32480000Y-43310000D02*
X34480000Y-43310000D01*
X34480000Y-37310000D02*
X32480000Y-37310000D01*
X34480000Y-43310000D02*
X34480000Y-37310000D01*
%TO.C,R3*%
X119170000Y-43000000D02*
X119170000Y-45000000D01*
X119170000Y-45000000D02*
X125170000Y-45000000D01*
X125170000Y-43000000D02*
X119170000Y-43000000D01*
X125170000Y-45000000D02*
X125170000Y-43000000D01*
%TO.C,R2*%
X119170000Y-47000000D02*
X119170000Y-49000000D01*
X119170000Y-49000000D02*
X125170000Y-49000000D01*
X125170000Y-47000000D02*
X119170000Y-47000000D01*
X125170000Y-49000000D02*
X125170000Y-47000000D01*
D15*
%TO.C,RV5*%
X32112700Y-86624200D02*
X32112700Y-91344200D01*
X32112700Y-86624200D02*
X33602700Y-86624200D01*
X32112700Y-95154200D02*
X32112700Y-98214200D01*
X32112700Y-98214200D02*
X41852700Y-98214200D01*
X35322700Y-86624200D02*
X36152700Y-86624200D01*
X37772700Y-86624200D02*
X38302700Y-86624200D01*
X40672700Y-86624200D02*
X41852700Y-86624200D01*
X41852700Y-95154200D02*
X41852700Y-98214200D01*
X41862700Y-86624200D02*
X41862700Y-91344200D01*
%TO.C,RV6*%
X55112700Y-86624200D02*
X55112700Y-91344200D01*
X55112700Y-86624200D02*
X56602700Y-86624200D01*
X55112700Y-95154200D02*
X55112700Y-98214200D01*
X55112700Y-98214200D02*
X64852700Y-98214200D01*
X58322700Y-86624200D02*
X59152700Y-86624200D01*
X60772700Y-86624200D02*
X61302700Y-86624200D01*
X63672700Y-86624200D02*
X64852700Y-86624200D01*
X64852700Y-95154200D02*
X64852700Y-98214200D01*
X64862700Y-86624200D02*
X64862700Y-91344200D01*
%TO.C,SSD1306*%
X129040000Y-26005000D02*
X156540000Y-26005000D01*
X129040000Y-53805000D02*
X129040000Y-26005000D01*
X129440000Y-30505000D02*
X156140000Y-30505000D01*
X129440000Y-49765000D02*
X129440000Y-30505000D01*
X130920000Y-31605000D02*
X154660000Y-31605000D01*
X130920000Y-44809000D02*
X130920000Y-31605000D01*
X135840000Y-50805000D02*
X135840000Y-53805000D01*
X135840000Y-53805000D02*
X129040000Y-53805000D01*
X149740000Y-50805000D02*
X135840000Y-50805000D01*
X149740000Y-53805000D02*
X149740000Y-50805000D01*
X154660000Y-31605000D02*
X154660000Y-44809000D01*
X154660000Y-44809000D02*
X130920000Y-44809000D01*
X156140000Y-30505000D02*
X156140000Y-49765000D01*
X156140000Y-49765000D02*
X129440000Y-49765000D01*
X156540000Y-26005000D02*
X156540000Y-53805000D01*
X156540000Y-53805000D02*
X149740000Y-53805000D01*
D13*
%TO.C,R1*%
X119170000Y-51100000D02*
X119170000Y-53100000D01*
X119170000Y-53100000D02*
X125170000Y-53100000D01*
X125170000Y-51100000D02*
X119170000Y-51100000D01*
X125170000Y-53100000D02*
X125170000Y-51100000D01*
D15*
%TO.C,SW2*%
X145725000Y-64265000D02*
X159695000Y-64265000D01*
X145725000Y-78235000D02*
X145725000Y-64265000D01*
X159695000Y-64265000D02*
X159695000Y-78235000D01*
X159695000Y-78235000D02*
X145725000Y-78235000D01*
%TO.C,C3*%
X84560000Y-47230000D02*
X84560000Y-51270000D01*
X84560000Y-51270000D02*
X87400000Y-51270000D01*
X85980000Y-46540000D02*
X85980000Y-47230000D01*
X85980000Y-51960000D02*
X85980000Y-51270000D01*
X87400000Y-47230000D02*
X84560000Y-47230000D01*
X87400000Y-51270000D02*
X87400000Y-47230000D01*
%TO.C,RV2*%
X55112700Y-62664200D02*
X55112700Y-67384200D01*
X55112700Y-62664200D02*
X56602700Y-62664200D01*
X55112700Y-71194200D02*
X55112700Y-74254200D01*
X55112700Y-74254200D02*
X64852700Y-74254200D01*
X58322700Y-62664200D02*
X59152700Y-62664200D01*
X60772700Y-62664200D02*
X61302700Y-62664200D01*
X63672700Y-62664200D02*
X64852700Y-62664200D01*
X64852700Y-71194200D02*
X64852700Y-74254200D01*
X64862700Y-62664200D02*
X64862700Y-67384200D01*
%TO.C,C7*%
X99560000Y-47230000D02*
X99560000Y-51270000D01*
X99560000Y-51270000D02*
X102400000Y-51270000D01*
X100980000Y-46540000D02*
X100980000Y-47230000D01*
X100980000Y-51960000D02*
X100980000Y-51270000D01*
X102400000Y-47230000D02*
X99560000Y-47230000D01*
X102400000Y-51270000D02*
X102400000Y-47230000D01*
%TO.C,RV4*%
X101112700Y-62664200D02*
X101112700Y-67384200D01*
X101112700Y-62664200D02*
X102602700Y-62664200D01*
X101112700Y-71194200D02*
X101112700Y-74254200D01*
X101112700Y-74254200D02*
X110852700Y-74254200D01*
X104322700Y-62664200D02*
X105152700Y-62664200D01*
X106772700Y-62664200D02*
X107302700Y-62664200D01*
X109672700Y-62664200D02*
X110852700Y-62664200D01*
X110852700Y-71194200D02*
X110852700Y-74254200D01*
X110862700Y-62664200D02*
X110862700Y-67384200D01*
%TO.C,C1*%
X74560000Y-47230000D02*
X74560000Y-51270000D01*
X74560000Y-51270000D02*
X77400000Y-51270000D01*
X75980000Y-46540000D02*
X75980000Y-47230000D01*
X75980000Y-51960000D02*
X75980000Y-51270000D01*
X77400000Y-47230000D02*
X74560000Y-47230000D01*
X77400000Y-51270000D02*
X77400000Y-47230000D01*
%TO.C,SW3*%
X125495000Y-84265000D02*
X139465000Y-84265000D01*
X125495000Y-98235000D02*
X125495000Y-84265000D01*
X139465000Y-84265000D02*
X139465000Y-98235000D01*
X139465000Y-98235000D02*
X125495000Y-98235000D01*
%TO.C,RV8*%
X101112700Y-86624200D02*
X101112700Y-91344200D01*
X101112700Y-86624200D02*
X102602700Y-86624200D01*
X101112700Y-95154200D02*
X101112700Y-98214200D01*
X101112700Y-98214200D02*
X110852700Y-98214200D01*
X104322700Y-86624200D02*
X105152700Y-86624200D01*
X106772700Y-86624200D02*
X107302700Y-86624200D01*
X109672700Y-86624200D02*
X110852700Y-86624200D01*
X110852700Y-95154200D02*
X110852700Y-98214200D01*
X110862700Y-86624200D02*
X110862700Y-91344200D01*
%TO.C,C4*%
X89560000Y-47230000D02*
X89560000Y-51270000D01*
X89560000Y-51270000D02*
X92400000Y-51270000D01*
X90980000Y-46540000D02*
X90980000Y-47230000D01*
X90980000Y-51960000D02*
X90980000Y-51270000D01*
X92400000Y-47230000D02*
X89560000Y-47230000D01*
X92400000Y-51270000D02*
X92400000Y-47230000D01*
%TO.C,SW1*%
X125495000Y-64265000D02*
X139465000Y-64265000D01*
X125495000Y-78235000D02*
X125495000Y-64265000D01*
X139465000Y-64265000D02*
X139465000Y-78235000D01*
X139465000Y-78235000D02*
X125495000Y-78235000D01*
%TO.C,C8*%
X94560000Y-47230000D02*
X94560000Y-51270000D01*
X94560000Y-51270000D02*
X97400000Y-51270000D01*
X95980000Y-46540000D02*
X95980000Y-47230000D01*
X95980000Y-51960000D02*
X95980000Y-51270000D01*
X97400000Y-47230000D02*
X94560000Y-47230000D01*
X97400000Y-51270000D02*
X97400000Y-47230000D01*
%TO.C,RV1*%
X32112700Y-62664200D02*
X32112700Y-67384200D01*
X32112700Y-62664200D02*
X33602700Y-62664200D01*
X32112700Y-71194200D02*
X32112700Y-74254200D01*
X32112700Y-74254200D02*
X41852700Y-74254200D01*
X35322700Y-62664200D02*
X36152700Y-62664200D01*
X37772700Y-62664200D02*
X38302700Y-62664200D01*
X40672700Y-62664200D02*
X41852700Y-62664200D01*
X41852700Y-71194200D02*
X41852700Y-74254200D01*
X41862700Y-62664200D02*
X41862700Y-67384200D01*
D13*
%TO.C,U1*%
X50710000Y-21230000D02*
X68490000Y-21230000D01*
X50710000Y-56790000D02*
X50710000Y-21230000D01*
X54520000Y-43455000D02*
X54520000Y-33295000D01*
X54520000Y-43455000D02*
X64680000Y-43455000D01*
X55790000Y-19960000D02*
X63410000Y-19960000D01*
X55790000Y-21230000D02*
X55790000Y-19960000D01*
X55790000Y-26310000D02*
X55790000Y-21230000D01*
X55790000Y-26310000D02*
X63410000Y-26310000D01*
X58330000Y-49170000D02*
X60870000Y-49170000D01*
X58330000Y-53742000D02*
X58330000Y-49170000D01*
X60870000Y-49170000D02*
X60870000Y-53742000D01*
X60870000Y-53742000D02*
X58330000Y-53742000D01*
X61505000Y-44090000D02*
X64680000Y-44090000D01*
X61505000Y-46630000D02*
X61505000Y-44090000D01*
X63410000Y-19960000D02*
X63410000Y-21230000D01*
X63410000Y-26310000D02*
X63410000Y-21230000D01*
X64680000Y-33295000D02*
X54520000Y-33295000D01*
X64680000Y-43455000D02*
X64680000Y-33295000D01*
X64680000Y-44090000D02*
X64680000Y-46630000D01*
X64680000Y-46630000D02*
X61505000Y-46630000D01*
X68490000Y-21230000D02*
X68490000Y-56790000D01*
X68490000Y-56790000D02*
X50710000Y-56790000D01*
D16*
X59346000Y-37613000D02*
X58965000Y-37867000D01*
X58711000Y-37613000D01*
X59092000Y-37359000D01*
X59346000Y-37613000D01*
G36*
X59346000Y-37613000D02*
G01*
X58965000Y-37867000D01*
X58711000Y-37613000D01*
X59092000Y-37359000D01*
X59346000Y-37613000D01*
G37*
X59473000Y-36851000D02*
X59092000Y-37105000D01*
X58838000Y-36851000D01*
X59219000Y-36597000D01*
X59473000Y-36851000D01*
G36*
X59473000Y-36851000D02*
G01*
X59092000Y-37105000D01*
X58838000Y-36851000D01*
X59219000Y-36597000D01*
X59473000Y-36851000D01*
G37*
X59727000Y-35327000D02*
X59346000Y-35581000D01*
X59092000Y-35327000D01*
X59473000Y-35073000D01*
X59727000Y-35327000D01*
G36*
X59727000Y-35327000D02*
G01*
X59346000Y-35581000D01*
X59092000Y-35327000D01*
X59473000Y-35073000D01*
X59727000Y-35327000D01*
G37*
X59854000Y-37232000D02*
X59473000Y-37486000D01*
X59219000Y-37232000D01*
X59600000Y-36978000D01*
X59854000Y-37232000D01*
G36*
X59854000Y-37232000D02*
G01*
X59473000Y-37486000D01*
X59219000Y-37232000D01*
X59600000Y-36978000D01*
X59854000Y-37232000D01*
G37*
X59981000Y-36470000D02*
X59600000Y-36724000D01*
X59346000Y-36470000D01*
X59727000Y-36216000D01*
X59981000Y-36470000D01*
G36*
X59981000Y-36470000D02*
G01*
X59600000Y-36724000D01*
X59346000Y-36470000D01*
X59727000Y-36216000D01*
X59981000Y-36470000D01*
G37*
X60108000Y-35708000D02*
X59727000Y-35962000D01*
X59473000Y-35708000D01*
X59854000Y-35454000D01*
X60108000Y-35708000D01*
G36*
X60108000Y-35708000D02*
G01*
X59727000Y-35962000D01*
X59473000Y-35708000D01*
X59854000Y-35454000D01*
X60108000Y-35708000D01*
G37*
X60362000Y-36851000D02*
X59981000Y-37105000D01*
X59727000Y-36851000D01*
X60108000Y-36597000D01*
X60362000Y-36851000D01*
G36*
X60362000Y-36851000D02*
G01*
X59981000Y-37105000D01*
X59727000Y-36851000D01*
X60108000Y-36597000D01*
X60362000Y-36851000D01*
G37*
X60489000Y-36089000D02*
X60108000Y-36343000D01*
X59854000Y-36089000D01*
X60235000Y-35835000D01*
X60489000Y-36089000D01*
G36*
X60489000Y-36089000D02*
G01*
X60108000Y-36343000D01*
X59854000Y-36089000D01*
X60235000Y-35835000D01*
X60489000Y-36089000D01*
G37*
D13*
%TO.C,R4*%
X119170000Y-39000000D02*
X119170000Y-41000000D01*
X119170000Y-41000000D02*
X125170000Y-41000000D01*
X125170000Y-39000000D02*
X119170000Y-39000000D01*
X125170000Y-41000000D02*
X125170000Y-39000000D01*
D15*
%TO.C,C2*%
X79560000Y-47230000D02*
X79560000Y-51270000D01*
X79560000Y-51270000D02*
X82400000Y-51270000D01*
X80980000Y-46540000D02*
X80980000Y-47230000D01*
X80980000Y-51960000D02*
X80980000Y-51270000D01*
X82400000Y-47230000D02*
X79560000Y-47230000D01*
X82400000Y-51270000D02*
X82400000Y-47230000D01*
%TO.C,RV7*%
X78112700Y-86624200D02*
X78112700Y-91344200D01*
X78112700Y-86624200D02*
X79602700Y-86624200D01*
X78112700Y-95154200D02*
X78112700Y-98214200D01*
X78112700Y-98214200D02*
X87852700Y-98214200D01*
X81322700Y-86624200D02*
X82152700Y-86624200D01*
X83772700Y-86624200D02*
X84302700Y-86624200D01*
X86672700Y-86624200D02*
X87852700Y-86624200D01*
X87852700Y-95154200D02*
X87852700Y-98214200D01*
X87862700Y-86624200D02*
X87862700Y-91344200D01*
%TO.C,SW4*%
X145725000Y-84265000D02*
X159695000Y-84265000D01*
X145725000Y-98235000D02*
X145725000Y-84265000D01*
X159695000Y-84265000D02*
X159695000Y-98235000D01*
X159695000Y-98235000D02*
X145725000Y-98235000D01*
%TO.C,RV3*%
X78112700Y-62664200D02*
X78112700Y-67384200D01*
X78112700Y-62664200D02*
X79602700Y-62664200D01*
X78112700Y-71194200D02*
X78112700Y-74254200D01*
X78112700Y-74254200D02*
X87852700Y-74254200D01*
X81322700Y-62664200D02*
X82152700Y-62664200D01*
X83772700Y-62664200D02*
X84302700Y-62664200D01*
X86672700Y-62664200D02*
X87852700Y-62664200D01*
X87852700Y-71194200D02*
X87852700Y-74254200D01*
X87862700Y-62664200D02*
X87862700Y-67384200D01*
%TO.C,J1*%
X32480000Y-23200000D02*
X33980000Y-23200000D01*
X32480000Y-34200000D02*
X32480000Y-23200000D01*
X33980000Y-22000000D02*
X35480000Y-22000000D01*
X33980000Y-23200000D02*
X33980000Y-22000000D01*
X35480000Y-20200000D02*
X41480000Y-20200000D01*
X35480000Y-22000000D02*
X35480000Y-20200000D01*
X36480000Y-20200000D02*
X36480000Y-23200000D01*
X36480000Y-23200000D02*
X40480000Y-23200000D01*
X40480000Y-23200000D02*
X40480000Y-20200000D01*
X41480000Y-20200000D02*
X41480000Y-22000000D01*
X41480000Y-22000000D02*
X42980000Y-22000000D01*
X42980000Y-22000000D02*
X42980000Y-23200000D01*
X42980000Y-23200000D02*
X44480000Y-23200000D01*
X44480000Y-23200000D02*
X44480000Y-34200000D01*
X44480000Y-34200000D02*
X32480000Y-34200000D01*
%TO.C,C6*%
X104560000Y-47230000D02*
X104560000Y-51270000D01*
X104560000Y-51270000D02*
X107400000Y-51270000D01*
X105980000Y-46540000D02*
X105980000Y-47230000D01*
X105980000Y-51960000D02*
X105980000Y-51270000D01*
X107400000Y-47230000D02*
X104560000Y-47230000D01*
X107400000Y-51270000D02*
X107400000Y-47230000D01*
D13*
%TO.C,R6*%
X39980000Y-36810000D02*
X39980000Y-42810000D01*
X39980000Y-42810000D02*
X41980000Y-42810000D01*
X41980000Y-36810000D02*
X39980000Y-36810000D01*
X41980000Y-42810000D02*
X41980000Y-36810000D01*
D15*
%TO.C,C5*%
X109560000Y-47230000D02*
X109560000Y-51270000D01*
X109560000Y-51270000D02*
X112400000Y-51270000D01*
X110980000Y-46540000D02*
X110980000Y-47230000D01*
X110980000Y-51960000D02*
X110980000Y-51270000D01*
X112400000Y-47230000D02*
X109560000Y-47230000D01*
X112400000Y-51270000D02*
X112400000Y-47230000D01*
%TD*%
M02*
