%TF.GenerationSoftware,KiCad,Pcbnew,9.0.2*%
%TF.CreationDate,2025-08-22T18:27:53+01:00*%
%TF.ProjectId,MC8P_MIDI_CONTROLLER,4d433850-5f4d-4494-9449-5f434f4e5452,rev?*%
%TF.SameCoordinates,Original*%
%TF.FileFunction,Soldermask,Top*%
%TF.FilePolarity,Negative*%
%FSLAX46Y46*%
G04 Gerber Fmt 4.6, Leading zero omitted, Abs format (unit mm)*
G04 Created by KiCad (PCBNEW 9.0.2) date 2025-08-22 18:27:53*
%MOMM*%
%LPD*%
G01*
G04 APERTURE LIST*
%ADD10C,0.200000*%
%ADD11C,1.397000*%
%ADD12O,2.780000X3.240000*%
%ADD13R,2.000000X2.000000*%
%ADD14C,2.000000*%
%ADD15C,2.800000*%
%ADD16C,1.600000*%
%ADD17C,5.000000*%
%ADD18C,1.700000*%
%ADD19C,4.000000*%
%ADD20C,2.200000*%
%ADD21C,1.200000*%
%ADD22O,1.200000X2.200000*%
%ADD23O,1.600000X2.300000*%
%ADD24O,2.200000X1.200000*%
%ADD25O,1.600000X2.500000*%
G04 APERTURE END LIST*
D10*
G36*
X31904825Y-104156725D02*
G01*
X32146015Y-104156725D01*
X31939508Y-105150000D01*
X31773178Y-105150000D01*
X31933524Y-104378742D01*
X31931020Y-104422461D01*
X31617046Y-105039357D01*
X31455357Y-105039357D01*
X31395029Y-104436139D01*
X31413653Y-104378742D01*
X31253307Y-105150000D01*
X31086917Y-105150000D01*
X31293424Y-104156725D01*
X31534675Y-104156725D01*
X31580532Y-104826195D01*
X31904825Y-104156725D01*
G37*
G36*
X32506517Y-105160258D02*
G01*
X32433599Y-105154901D01*
X32374162Y-105140044D01*
X32325717Y-105116905D01*
X32284387Y-105083701D01*
X32253287Y-105042060D01*
X32231744Y-104990509D01*
X32221329Y-104934726D01*
X32220802Y-104868633D01*
X32231988Y-104789986D01*
X32288653Y-104517411D01*
X32309443Y-104440861D01*
X32337266Y-104374464D01*
X32371756Y-104316948D01*
X32414519Y-104265623D01*
X32463231Y-104223624D01*
X32518424Y-104190247D01*
X32578443Y-104166313D01*
X32644373Y-104151602D01*
X32717299Y-104146528D01*
X32777179Y-104151330D01*
X32828429Y-104164973D01*
X32872576Y-104186828D01*
X32911016Y-104217327D01*
X32942535Y-104255980D01*
X32967465Y-104304003D01*
X32983709Y-104356155D01*
X32992919Y-104417418D01*
X32994087Y-104489445D01*
X32804310Y-104489445D01*
X32799893Y-104442434D01*
X32788679Y-104405425D01*
X32770036Y-104374247D01*
X32745631Y-104352119D01*
X32715548Y-104338481D01*
X32678342Y-104333679D01*
X32628950Y-104339221D01*
X32586324Y-104355233D01*
X32549351Y-104381379D01*
X32518180Y-104418065D01*
X32494902Y-104462434D01*
X32478490Y-104517411D01*
X32421826Y-104789986D01*
X32415360Y-104845961D01*
X32420239Y-104889087D01*
X32436283Y-104925596D01*
X32462309Y-104951552D01*
X32497312Y-104967252D01*
X32545413Y-104973046D01*
X32584406Y-104968529D01*
X32621311Y-104954972D01*
X32655019Y-104933076D01*
X32686463Y-104902032D01*
X32713019Y-104864316D01*
X32736167Y-104817341D01*
X32925943Y-104817341D01*
X32895095Y-104887954D01*
X32860235Y-104949461D01*
X32821530Y-105002782D01*
X32776732Y-105050757D01*
X32729051Y-105089555D01*
X32678220Y-105119958D01*
X32623581Y-105142324D01*
X32566578Y-105155733D01*
X32506517Y-105160258D01*
G37*
G36*
X33586142Y-104150469D02*
G01*
X33633832Y-104161535D01*
X33673998Y-104178951D01*
X33709463Y-104203882D01*
X33736456Y-104234176D01*
X33755881Y-104270481D01*
X33766867Y-104310461D01*
X33769605Y-104355663D01*
X33763147Y-104407440D01*
X33757773Y-104433391D01*
X33745784Y-104472786D01*
X33726279Y-104510779D01*
X33698545Y-104547819D01*
X33647700Y-104594572D01*
X33588208Y-104628785D01*
X33624765Y-104655021D01*
X33653722Y-104687868D01*
X33675708Y-104728192D01*
X33689008Y-104772287D01*
X33693007Y-104818525D01*
X33687431Y-104867899D01*
X33684012Y-104884263D01*
X33668594Y-104937620D01*
X33645878Y-104985788D01*
X33615746Y-105029466D01*
X33579037Y-105067791D01*
X33536584Y-105099928D01*
X33487763Y-105126125D01*
X33435503Y-105144885D01*
X33379353Y-105156339D01*
X33318625Y-105160258D01*
X33257920Y-105156109D01*
X33206815Y-105144458D01*
X33163714Y-105126125D01*
X33125607Y-105099769D01*
X33096678Y-105067769D01*
X33075908Y-105029466D01*
X33064142Y-104987157D01*
X33061176Y-104939244D01*
X33066903Y-104893318D01*
X33253344Y-104893318D01*
X33258846Y-104922182D01*
X33272630Y-104946682D01*
X33294078Y-104964863D01*
X33321395Y-104975917D01*
X33356116Y-104979884D01*
X33391771Y-104976009D01*
X33424443Y-104964558D01*
X33453525Y-104946022D01*
X33477566Y-104921144D01*
X33495532Y-104891256D01*
X33506631Y-104856969D01*
X33508585Y-104847383D01*
X33511142Y-104815134D01*
X33505104Y-104788642D01*
X33491098Y-104766314D01*
X33469506Y-104749380D01*
X33442377Y-104739088D01*
X33406980Y-104735336D01*
X33370808Y-104738928D01*
X33338592Y-104749380D01*
X33309993Y-104766342D01*
X33286568Y-104789009D01*
X33269129Y-104816447D01*
X33258602Y-104848054D01*
X33256465Y-104858312D01*
X33253344Y-104893318D01*
X33066903Y-104893318D01*
X33068032Y-104884263D01*
X33071451Y-104867899D01*
X33085709Y-104819976D01*
X33108521Y-104773448D01*
X33140633Y-104727826D01*
X33179056Y-104687334D01*
X33221427Y-104654498D01*
X33268128Y-104628785D01*
X33236701Y-104606783D01*
X33211828Y-104579664D01*
X33192901Y-104546842D01*
X33181203Y-104510736D01*
X33177545Y-104474089D01*
X33359843Y-104474089D01*
X33363932Y-104500375D01*
X33375096Y-104522962D01*
X33392569Y-104539637D01*
X33415288Y-104549921D01*
X33444776Y-104553620D01*
X33475167Y-104550084D01*
X33502784Y-104539637D01*
X33527206Y-104522863D01*
X33547725Y-104500069D01*
X33563122Y-104472750D01*
X33573065Y-104440901D01*
X33575080Y-104431376D01*
X33577904Y-104401013D01*
X33573431Y-104376360D01*
X33562070Y-104355423D01*
X33544305Y-104339846D01*
X33521547Y-104330297D01*
X33491915Y-104326840D01*
X33461543Y-104330142D01*
X33434091Y-104339846D01*
X33409805Y-104355499D01*
X33389638Y-104376727D01*
X33374636Y-104402248D01*
X33365092Y-104432048D01*
X33363016Y-104442306D01*
X33359843Y-104474089D01*
X33177545Y-104474089D01*
X33177456Y-104473200D01*
X33181788Y-104433391D01*
X33187161Y-104407440D01*
X33201647Y-104357186D01*
X33223000Y-104311749D01*
X33251336Y-104270481D01*
X33285884Y-104234168D01*
X33325693Y-104203742D01*
X33371320Y-104178951D01*
X33420203Y-104161122D01*
X33472681Y-104150247D01*
X33529406Y-104146528D01*
X33586142Y-104150469D01*
G37*
G36*
X34031325Y-104584394D02*
G01*
X34342124Y-104584394D01*
X34373792Y-104580530D01*
X34403063Y-104569007D01*
X34429041Y-104550643D01*
X34451179Y-104525654D01*
X34467816Y-104495872D01*
X34478534Y-104461418D01*
X34482345Y-104425644D01*
X34478412Y-104396205D01*
X34466900Y-104370807D01*
X34448736Y-104352486D01*
X34424782Y-104341165D01*
X34393538Y-104337098D01*
X34082739Y-104337098D01*
X34120230Y-104156725D01*
X34426266Y-104156725D01*
X34485866Y-104161303D01*
X34536031Y-104174199D01*
X34578429Y-104194644D01*
X34615195Y-104223450D01*
X34643299Y-104258768D01*
X34663426Y-104301561D01*
X34674270Y-104348058D01*
X34676254Y-104400853D01*
X34668250Y-104461418D01*
X34651682Y-104520280D01*
X34627948Y-104573215D01*
X34597053Y-104620969D01*
X34559299Y-104663393D01*
X34516351Y-104698642D01*
X34467726Y-104727154D01*
X34415314Y-104747884D01*
X34359600Y-104760436D01*
X34299870Y-104764706D01*
X33993834Y-104764706D01*
X34031325Y-104584394D01*
G37*
G36*
X34036760Y-104156725D02*
G01*
X34219820Y-104156725D01*
X34013312Y-105150000D01*
X33830252Y-105150000D01*
X34036760Y-104156725D01*
G37*
G36*
X35894776Y-104156725D02*
G01*
X36135966Y-104156725D01*
X35929459Y-105150000D01*
X35763129Y-105150000D01*
X35923475Y-104378742D01*
X35920971Y-104422461D01*
X35606997Y-105039357D01*
X35445308Y-105039357D01*
X35384980Y-104436139D01*
X35403604Y-104378742D01*
X35243258Y-105150000D01*
X35076868Y-105150000D01*
X35283375Y-104156725D01*
X35524626Y-104156725D01*
X35570483Y-104826195D01*
X35894776Y-104156725D01*
G37*
G36*
X36343572Y-105150000D02*
G01*
X36153796Y-105150000D01*
X36360303Y-104156725D01*
X36550080Y-104156725D01*
X36343572Y-105150000D01*
G37*
G36*
X36681788Y-104969626D02*
G01*
X36914979Y-104969626D01*
X36973685Y-104964304D01*
X37022671Y-104949283D01*
X37063845Y-104925235D01*
X37097853Y-104892136D01*
X37122998Y-104850817D01*
X37139438Y-104799572D01*
X37200254Y-104507213D01*
X37205026Y-104454005D01*
X37196651Y-104413295D01*
X37176929Y-104381489D01*
X37147071Y-104358158D01*
X37104993Y-104342851D01*
X37046503Y-104337098D01*
X36813312Y-104337098D01*
X36850804Y-104156725D01*
X37079965Y-104156725D01*
X37160291Y-104161921D01*
X37225684Y-104176275D01*
X37278778Y-104198429D01*
X37325263Y-104230844D01*
X37359975Y-104271010D01*
X37384169Y-104320001D01*
X37396824Y-104373922D01*
X37398983Y-104437384D01*
X37388871Y-104512648D01*
X37330375Y-104794077D01*
X37310955Y-104863672D01*
X37283568Y-104925766D01*
X37248309Y-104981289D01*
X37204841Y-105030328D01*
X37153420Y-105071654D01*
X37093154Y-105105608D01*
X37028167Y-105129735D01*
X36955162Y-105144762D01*
X36872786Y-105150000D01*
X36644296Y-105150000D01*
X36681788Y-104969626D01*
G37*
G36*
X36758602Y-104156725D02*
G01*
X36941662Y-104156725D01*
X36735155Y-105150000D01*
X36552095Y-105150000D01*
X36758602Y-104156725D01*
G37*
G36*
X37633175Y-105150000D02*
G01*
X37443398Y-105150000D01*
X37649905Y-104156725D01*
X37839682Y-104156725D01*
X37633175Y-105150000D01*
G37*
G36*
X38546154Y-105160258D02*
G01*
X38473236Y-105154901D01*
X38413799Y-105140044D01*
X38365354Y-105116905D01*
X38324024Y-105083701D01*
X38292924Y-105042060D01*
X38271381Y-104990509D01*
X38260966Y-104934726D01*
X38260439Y-104868633D01*
X38271625Y-104789986D01*
X38328290Y-104517411D01*
X38349080Y-104440861D01*
X38376903Y-104374464D01*
X38411393Y-104316948D01*
X38454156Y-104265623D01*
X38502868Y-104223624D01*
X38558061Y-104190247D01*
X38618080Y-104166313D01*
X38684010Y-104151602D01*
X38756936Y-104146528D01*
X38816816Y-104151330D01*
X38868066Y-104164973D01*
X38912213Y-104186828D01*
X38950653Y-104217327D01*
X38982172Y-104255980D01*
X39007102Y-104304003D01*
X39023346Y-104356155D01*
X39032556Y-104417418D01*
X39033724Y-104489445D01*
X38843948Y-104489445D01*
X38839530Y-104442434D01*
X38828316Y-104405425D01*
X38809673Y-104374247D01*
X38785268Y-104352119D01*
X38755185Y-104338481D01*
X38717979Y-104333679D01*
X38668587Y-104339221D01*
X38625961Y-104355233D01*
X38588988Y-104381379D01*
X38557817Y-104418065D01*
X38534540Y-104462434D01*
X38518128Y-104517411D01*
X38461463Y-104789986D01*
X38454997Y-104845961D01*
X38459876Y-104889087D01*
X38475920Y-104925596D01*
X38501946Y-104951552D01*
X38536949Y-104967252D01*
X38585050Y-104973046D01*
X38624043Y-104968529D01*
X38660949Y-104954972D01*
X38694656Y-104933076D01*
X38726100Y-104902032D01*
X38752657Y-104864316D01*
X38775804Y-104817341D01*
X38965580Y-104817341D01*
X38934733Y-104887954D01*
X38899873Y-104949461D01*
X38861167Y-105002782D01*
X38816369Y-105050757D01*
X38768688Y-105089555D01*
X38717857Y-105119958D01*
X38663219Y-105142324D01*
X38606215Y-105155733D01*
X38546154Y-105160258D01*
G37*
G36*
X39560355Y-104435146D02*
G01*
X39611182Y-104447446D01*
X39652513Y-104466547D01*
X39687995Y-104494090D01*
X39714595Y-104528549D01*
X39732991Y-104571083D01*
X39742078Y-104617223D01*
X39742852Y-104671594D01*
X39733846Y-104736008D01*
X39709361Y-104853550D01*
X39692127Y-104916674D01*
X39668872Y-104971548D01*
X39639874Y-105019207D01*
X39603964Y-105061556D01*
X39562772Y-105096328D01*
X39515799Y-105124049D01*
X39464866Y-105143837D01*
X39408656Y-105156039D01*
X39346233Y-105160258D01*
X39283810Y-105155773D01*
X39233006Y-105143351D01*
X39191688Y-105124049D01*
X39156323Y-105096269D01*
X39129793Y-105061495D01*
X39111454Y-105018536D01*
X39102501Y-104971921D01*
X39101878Y-104916850D01*
X39105189Y-104893344D01*
X39289366Y-104893344D01*
X39293461Y-104923582D01*
X39304406Y-104946789D01*
X39322376Y-104964459D01*
X39347719Y-104975705D01*
X39383053Y-104979884D01*
X39418760Y-104976043D01*
X39449412Y-104964993D01*
X39476109Y-104946789D01*
X39497831Y-104922540D01*
X39514600Y-104891906D01*
X39526240Y-104853550D01*
X39550725Y-104736008D01*
X39554906Y-104696733D01*
X39550522Y-104666837D01*
X39539124Y-104643806D01*
X39520748Y-104626290D01*
X39495130Y-104615147D01*
X39459745Y-104611017D01*
X39424474Y-104614819D01*
X39394162Y-104625764D01*
X39367726Y-104643806D01*
X39346286Y-104667782D01*
X39329719Y-104698075D01*
X39318206Y-104736008D01*
X39293721Y-104853550D01*
X39289366Y-104893344D01*
X39105189Y-104893344D01*
X39111088Y-104851474D01*
X39135146Y-104736008D01*
X39152253Y-104673337D01*
X39175442Y-104618696D01*
X39204450Y-104571083D01*
X39240372Y-104528716D01*
X39281523Y-104494053D01*
X39328403Y-104466547D01*
X39379278Y-104446966D01*
X39435468Y-104434884D01*
X39497908Y-104430704D01*
X39560355Y-104435146D01*
G37*
G36*
X39978517Y-104440901D02*
G01*
X40161638Y-104440901D01*
X40014237Y-105150000D01*
X39831116Y-105150000D01*
X39978517Y-104440901D01*
G37*
G36*
X40321372Y-104720315D02*
G01*
X40324761Y-104686168D01*
X40320229Y-104660041D01*
X40309038Y-104639715D01*
X40291535Y-104624532D01*
X40266849Y-104614697D01*
X40232468Y-104611017D01*
X40199681Y-104614423D01*
X40171840Y-104624163D01*
X40147899Y-104640081D01*
X40128448Y-104661351D01*
X40113529Y-104688158D01*
X40103264Y-104721659D01*
X40121887Y-104564549D01*
X40170315Y-104504147D01*
X40217875Y-104464166D01*
X40253007Y-104445741D01*
X40291694Y-104434552D01*
X40334806Y-104430704D01*
X40388453Y-104436039D01*
X40430437Y-104450755D01*
X40463352Y-104473951D01*
X40488801Y-104506175D01*
X40505301Y-104543947D01*
X40514391Y-104590555D01*
X40514823Y-104648245D01*
X40504555Y-104719644D01*
X40415101Y-105150000D01*
X40232041Y-105150000D01*
X40321372Y-104720315D01*
G37*
G36*
X40805767Y-105153419D02*
G01*
X40747270Y-105147122D01*
X40707943Y-105130735D01*
X40682302Y-105105975D01*
X40667251Y-105072693D01*
X40661873Y-105027372D01*
X40669052Y-104965535D01*
X40821032Y-104234638D01*
X41004153Y-104234638D01*
X40861821Y-104919129D01*
X40859637Y-104943474D01*
X40863531Y-104959063D01*
X40873302Y-104969337D01*
X40890031Y-104973046D01*
X40935460Y-104973046D01*
X40897969Y-105153419D01*
X40805767Y-105153419D01*
G37*
G36*
X40706605Y-104440901D02*
G01*
X41046102Y-104440901D01*
X41012885Y-104600758D01*
X40673387Y-104600758D01*
X40706605Y-104440901D01*
G37*
G36*
X41216339Y-104440901D02*
G01*
X41412772Y-104440901D01*
X41265371Y-105150000D01*
X41068939Y-105150000D01*
X41216339Y-104440901D01*
G37*
G36*
X41565546Y-104638372D02*
G01*
X41553362Y-104626546D01*
X41537030Y-104617855D01*
X41517999Y-104612852D01*
X41493677Y-104611017D01*
X41458189Y-104615194D01*
X41427400Y-104627321D01*
X41400193Y-104647592D01*
X41378305Y-104674002D01*
X41361054Y-104707333D01*
X41348719Y-104749014D01*
X41373021Y-104564549D01*
X41418863Y-104507025D01*
X41468093Y-104465875D01*
X41504671Y-104445899D01*
X41540417Y-104434444D01*
X41575987Y-104430704D01*
X41617602Y-104434393D01*
X41651519Y-104444687D01*
X41680854Y-104462081D01*
X41704153Y-104486025D01*
X41565546Y-104638372D01*
G37*
G36*
X42143468Y-104435146D02*
G01*
X42194294Y-104447446D01*
X42235626Y-104466547D01*
X42271107Y-104494090D01*
X42297707Y-104528549D01*
X42316104Y-104571083D01*
X42325190Y-104617223D01*
X42325965Y-104671594D01*
X42316959Y-104736008D01*
X42292473Y-104853550D01*
X42275240Y-104916674D01*
X42251984Y-104971548D01*
X42222986Y-105019207D01*
X42187076Y-105061556D01*
X42145885Y-105096328D01*
X42098911Y-105124049D01*
X42047978Y-105143837D01*
X41991768Y-105156039D01*
X41929345Y-105160258D01*
X41866922Y-105155773D01*
X41816119Y-105143351D01*
X41774801Y-105124049D01*
X41739435Y-105096269D01*
X41712905Y-105061495D01*
X41694567Y-105018536D01*
X41685614Y-104971921D01*
X41684991Y-104916850D01*
X41688302Y-104893344D01*
X41872478Y-104893344D01*
X41876573Y-104923582D01*
X41887519Y-104946789D01*
X41905489Y-104964459D01*
X41930831Y-104975705D01*
X41966165Y-104979884D01*
X42001873Y-104976043D01*
X42032524Y-104964993D01*
X42059221Y-104946789D01*
X42080943Y-104922540D01*
X42097713Y-104891906D01*
X42109352Y-104853550D01*
X42133838Y-104736008D01*
X42138018Y-104696733D01*
X42133635Y-104666837D01*
X42122236Y-104643806D01*
X42103860Y-104626290D01*
X42078242Y-104615147D01*
X42042857Y-104611017D01*
X42007586Y-104614819D01*
X41977275Y-104625764D01*
X41950839Y-104643806D01*
X41929398Y-104667782D01*
X41912832Y-104698075D01*
X41901318Y-104736008D01*
X41876833Y-104853550D01*
X41872478Y-104893344D01*
X41688302Y-104893344D01*
X41694200Y-104851474D01*
X41718258Y-104736008D01*
X41735366Y-104673337D01*
X41758554Y-104618696D01*
X41787562Y-104571083D01*
X41823484Y-104528716D01*
X41864636Y-104494053D01*
X41911516Y-104466547D01*
X41962390Y-104446966D01*
X42018581Y-104434884D01*
X42081020Y-104430704D01*
X42143468Y-104435146D01*
G37*
G36*
X42646076Y-104915710D02*
G01*
X42645021Y-104939697D01*
X42652060Y-104955643D01*
X42666350Y-104965754D01*
X42690223Y-104969626D01*
X42720997Y-104969626D01*
X42683506Y-105150000D01*
X42589961Y-105150000D01*
X42536631Y-105143798D01*
X42498097Y-105127084D01*
X42470526Y-105100846D01*
X42453483Y-105066281D01*
X42446957Y-105021309D01*
X42453307Y-104962116D01*
X42620736Y-104156725D01*
X42803857Y-104156725D01*
X42646076Y-104915710D01*
G37*
G36*
X43050542Y-104915710D02*
G01*
X43049488Y-104939697D01*
X43056526Y-104955643D01*
X43070816Y-104965754D01*
X43094689Y-104969626D01*
X43125464Y-104969626D01*
X43087972Y-105150000D01*
X42994427Y-105150000D01*
X42941097Y-105143798D01*
X42902563Y-105127084D01*
X42874993Y-105100846D01*
X42857950Y-105066281D01*
X42851423Y-105021309D01*
X42857773Y-104962116D01*
X43025202Y-104156725D01*
X43208323Y-104156725D01*
X43050542Y-104915710D01*
G37*
G36*
X43518389Y-105160258D02*
G01*
X43452407Y-105155643D01*
X43398593Y-105142859D01*
X43354747Y-105123011D01*
X43316963Y-105094326D01*
X43288562Y-105058500D01*
X43268773Y-105014384D01*
X43258833Y-104966353D01*
X43257746Y-104909742D01*
X43267063Y-104842620D01*
X43283672Y-104762691D01*
X43302153Y-104694050D01*
X43326631Y-104634547D01*
X43356762Y-104583051D01*
X43394154Y-104536899D01*
X43436611Y-104499338D01*
X43484562Y-104469661D01*
X43536878Y-104448326D01*
X43594358Y-104435223D01*
X43657974Y-104430704D01*
X43716944Y-104436337D01*
X43764863Y-104452089D01*
X43804031Y-104477172D01*
X43835475Y-104511461D01*
X43859095Y-104555657D01*
X43874556Y-104612055D01*
X43880108Y-104671075D01*
X43877140Y-104741526D01*
X43863932Y-104825523D01*
X43854284Y-104871990D01*
X43379904Y-104871990D01*
X43406160Y-104745594D01*
X43713478Y-104745594D01*
X43714944Y-104729169D01*
X43715087Y-104688662D01*
X43708661Y-104657782D01*
X43696870Y-104634281D01*
X43678881Y-104616112D01*
X43654810Y-104604851D01*
X43622620Y-104600758D01*
X43580127Y-104605423D01*
X43543606Y-104618861D01*
X43511734Y-104641058D01*
X43485930Y-104670476D01*
X43465766Y-104707946D01*
X43451528Y-104755181D01*
X43432782Y-104845307D01*
X43427992Y-104893008D01*
X43434095Y-104929310D01*
X43449269Y-104957353D01*
X43473154Y-104978408D01*
X43506432Y-104991945D01*
X43552339Y-104996981D01*
X43589050Y-104993745D01*
X43627871Y-104983670D01*
X43665534Y-104967604D01*
X43701266Y-104945751D01*
X43798292Y-105054378D01*
X43731095Y-105099437D01*
X43660416Y-105132597D01*
X43587175Y-105153561D01*
X43518389Y-105160258D01*
G37*
G36*
X44120875Y-104440901D02*
G01*
X44317308Y-104440901D01*
X44169907Y-105150000D01*
X43973475Y-105150000D01*
X44120875Y-104440901D01*
G37*
G36*
X44470081Y-104638372D02*
G01*
X44457898Y-104626546D01*
X44441566Y-104617855D01*
X44422535Y-104612852D01*
X44398213Y-104611017D01*
X44362725Y-104615194D01*
X44331936Y-104627321D01*
X44304729Y-104647592D01*
X44282841Y-104674002D01*
X44265590Y-104707333D01*
X44253255Y-104749014D01*
X44277557Y-104564549D01*
X44323399Y-104507025D01*
X44372629Y-104465875D01*
X44409207Y-104445899D01*
X44444953Y-104434444D01*
X44480523Y-104430704D01*
X44522138Y-104434393D01*
X44556055Y-104444687D01*
X44585390Y-104462081D01*
X44608689Y-104486025D01*
X44470081Y-104638372D01*
G37*
G36*
X31082398Y-106642848D02*
G01*
X31265458Y-106642848D01*
X31226563Y-106830000D01*
X31043503Y-106830000D01*
X31082398Y-106642848D01*
G37*
G36*
X31887911Y-105836725D02*
G01*
X32004232Y-105836725D01*
X32169218Y-106830000D01*
X31972114Y-106830000D01*
X31880584Y-106151676D01*
X31507015Y-106830000D01*
X31309911Y-106830000D01*
X31887911Y-105836725D01*
G37*
G36*
X31558916Y-106490502D02*
G01*
X32070055Y-106490502D01*
X32032564Y-106670814D01*
X31521425Y-106670814D01*
X31558916Y-106490502D01*
G37*
G36*
X32634867Y-106423518D02*
G01*
X32622716Y-106391461D01*
X32416697Y-105836725D01*
X32609771Y-105836725D01*
X32749417Y-106213164D01*
X32765537Y-106257555D01*
X32978639Y-106830000D01*
X32785504Y-106830000D01*
X32634867Y-106423518D01*
G37*
G36*
X32679441Y-106218599D02*
G01*
X32977356Y-105836725D01*
X33170430Y-105836725D01*
X32732320Y-106398239D01*
X32395265Y-106830000D01*
X32202191Y-106830000D01*
X32679441Y-106218599D01*
G37*
G36*
X33365580Y-106840258D02*
G01*
X33297063Y-106836613D01*
X33232590Y-106825908D01*
X33171142Y-106808002D01*
X33116331Y-106783899D01*
X33066818Y-106753049D01*
X33025655Y-106717281D01*
X33142587Y-106562920D01*
X33193703Y-106604253D01*
X33257076Y-106635704D01*
X33327010Y-106654794D01*
X33402766Y-106661289D01*
X33461864Y-106657404D01*
X33509668Y-106646698D01*
X33548213Y-106630209D01*
X33581260Y-106605996D01*
X33603350Y-106577038D01*
X33615929Y-106542404D01*
X33616113Y-106541732D01*
X33617729Y-106504806D01*
X33607076Y-106478900D01*
X33586469Y-106459128D01*
X33556700Y-106444706D01*
X33469933Y-106424923D01*
X33466392Y-106424251D01*
X33462911Y-106423518D01*
X33448684Y-106421503D01*
X33359004Y-106402789D01*
X33295055Y-106382241D01*
X33258713Y-106362701D01*
X33228354Y-106335458D01*
X33203342Y-106299565D01*
X33188634Y-106258827D01*
X33184298Y-106204435D01*
X33193450Y-106131831D01*
X33193572Y-106131160D01*
X33211372Y-106068945D01*
X33236844Y-106014414D01*
X33269898Y-105966540D01*
X33310557Y-105924932D01*
X33358264Y-105890283D01*
X33413879Y-105862370D01*
X33473317Y-105842925D01*
X33540033Y-105830769D01*
X33615136Y-105826528D01*
X33667027Y-105829579D01*
X33719122Y-105838801D01*
X33769937Y-105853848D01*
X33818285Y-105874338D01*
X33863863Y-105900004D01*
X33905540Y-105930331D01*
X33795081Y-106088845D01*
X33744867Y-106053573D01*
X33690546Y-106027356D01*
X33633535Y-106010857D01*
X33577889Y-106005497D01*
X33522231Y-106009057D01*
X33477483Y-106018837D01*
X33441662Y-106033829D01*
X33410848Y-106055956D01*
X33390460Y-106082207D01*
X33379014Y-106113391D01*
X33378892Y-106114063D01*
X33377116Y-106154129D01*
X33388784Y-106182084D01*
X33410864Y-106203416D01*
X33440685Y-106218599D01*
X33535085Y-106243206D01*
X33540214Y-106244244D01*
X33545404Y-106245221D01*
X33552732Y-106246992D01*
X33560059Y-106248640D01*
X33644002Y-106270161D01*
X33704773Y-106293398D01*
X33739167Y-106314403D01*
X33767519Y-106342362D01*
X33790380Y-106378150D01*
X33803684Y-106418146D01*
X33807325Y-106470073D01*
X33798684Y-106537641D01*
X33798440Y-106538984D01*
X33780724Y-106600205D01*
X33754953Y-106654073D01*
X33721137Y-106701589D01*
X33679708Y-106742601D01*
X33630678Y-106776934D01*
X33573065Y-106804720D01*
X33511717Y-106823994D01*
X33442922Y-106836051D01*
X33365580Y-106840258D01*
G37*
G36*
X34475603Y-106830000D02*
G01*
X34285826Y-106830000D01*
X34492334Y-105836725D01*
X34682110Y-105836725D01*
X34475603Y-106830000D01*
G37*
G36*
X34818154Y-106120901D02*
G01*
X35001275Y-106120901D01*
X34853874Y-106830000D01*
X34670753Y-106830000D01*
X34818154Y-106120901D01*
G37*
G36*
X35161010Y-106400315D02*
G01*
X35164398Y-106366168D01*
X35159867Y-106340041D01*
X35148675Y-106319715D01*
X35131172Y-106304532D01*
X35106486Y-106294697D01*
X35072105Y-106291017D01*
X35039318Y-106294423D01*
X35011477Y-106304163D01*
X34987536Y-106320081D01*
X34968086Y-106341351D01*
X34953166Y-106368158D01*
X34942901Y-106401659D01*
X34961524Y-106244549D01*
X35009952Y-106184147D01*
X35057512Y-106144166D01*
X35092644Y-106125741D01*
X35131331Y-106114552D01*
X35174443Y-106110704D01*
X35228090Y-106116039D01*
X35270074Y-106130755D01*
X35302989Y-106153951D01*
X35328438Y-106186175D01*
X35344938Y-106223947D01*
X35354028Y-106270555D01*
X35354460Y-106328245D01*
X35344192Y-106399644D01*
X35254738Y-106830000D01*
X35071678Y-106830000D01*
X35161010Y-106400315D01*
G37*
G36*
X35715502Y-106840258D02*
G01*
X35654152Y-106837395D01*
X35596800Y-106829023D01*
X35542082Y-106814867D01*
X35493485Y-106795867D01*
X35449380Y-106771332D01*
X35413557Y-106743232D01*
X35556439Y-106599129D01*
X35601706Y-106628174D01*
X35650839Y-106649687D01*
X35702137Y-106663065D01*
X35751467Y-106667395D01*
X35812162Y-106663288D01*
X35854049Y-106652740D01*
X35885551Y-106633964D01*
X35897890Y-106612074D01*
X35898213Y-106590314D01*
X35890013Y-106575926D01*
X35875287Y-106565712D01*
X35854171Y-106558463D01*
X35788653Y-106549242D01*
X35764839Y-106546556D01*
X35740354Y-106543747D01*
X35734858Y-106542770D01*
X35729241Y-106542404D01*
X35658028Y-106530139D01*
X35610233Y-106517124D01*
X35583469Y-106504104D01*
X35561264Y-106485119D01*
X35543066Y-106459422D01*
X35532525Y-106429975D01*
X35529503Y-106389858D01*
X35536472Y-106335408D01*
X35549813Y-106289675D01*
X35569365Y-106249402D01*
X35595151Y-106213836D01*
X35626724Y-106183220D01*
X35664083Y-106157642D01*
X35707991Y-106137021D01*
X35780230Y-106117623D01*
X35867177Y-106110704D01*
X35919456Y-106113454D01*
X35970125Y-106121634D01*
X36019068Y-106135074D01*
X36064159Y-106153080D01*
X36106064Y-106175809D01*
X36142744Y-106202234D01*
X36005662Y-106338155D01*
X35964050Y-106315148D01*
X35919078Y-106297855D01*
X35872499Y-106287033D01*
X35827243Y-106283506D01*
X35774697Y-106287144D01*
X35738278Y-106296512D01*
X35710954Y-106313061D01*
X35700054Y-106332660D01*
X35700909Y-106348556D01*
X35710678Y-106360382D01*
X35726481Y-106368616D01*
X35748414Y-106374731D01*
X35817534Y-106384623D01*
X35829258Y-106385966D01*
X35841043Y-106387309D01*
X35846905Y-106388042D01*
X35852827Y-106388714D01*
X35927605Y-106400368D01*
X35979284Y-106413321D01*
X36008645Y-106426634D01*
X36033121Y-106446412D01*
X36053351Y-106473405D01*
X36065248Y-106504624D01*
X36068886Y-106547425D01*
X36061533Y-106605907D01*
X36047678Y-106653444D01*
X36027334Y-106695337D01*
X36000472Y-106732363D01*
X35967607Y-106764177D01*
X35928464Y-106790902D01*
X35882198Y-106812597D01*
X35833091Y-106827578D01*
X35777824Y-106836973D01*
X35715502Y-106840258D01*
G37*
G36*
X36371294Y-106833419D02*
G01*
X36312797Y-106827122D01*
X36273470Y-106810735D01*
X36247829Y-106785975D01*
X36232778Y-106752693D01*
X36227400Y-106707372D01*
X36234579Y-106645535D01*
X36386559Y-105914638D01*
X36569680Y-105914638D01*
X36427348Y-106599129D01*
X36425164Y-106623474D01*
X36429057Y-106639063D01*
X36438829Y-106649337D01*
X36455558Y-106653046D01*
X36500987Y-106653046D01*
X36463496Y-106833419D01*
X36371294Y-106833419D01*
G37*
G36*
X36272131Y-106120901D02*
G01*
X36611629Y-106120901D01*
X36578412Y-106280758D01*
X36238914Y-106280758D01*
X36272131Y-106120901D01*
G37*
G36*
X36781866Y-106120901D02*
G01*
X36978299Y-106120901D01*
X36830898Y-106830000D01*
X36634466Y-106830000D01*
X36781866Y-106120901D01*
G37*
G36*
X37131072Y-106318372D02*
G01*
X37118889Y-106306546D01*
X37102557Y-106297855D01*
X37083526Y-106292852D01*
X37059204Y-106291017D01*
X37023716Y-106295194D01*
X36992927Y-106307321D01*
X36965720Y-106327592D01*
X36943832Y-106354002D01*
X36926581Y-106387333D01*
X36914246Y-106429014D01*
X36938548Y-106244549D01*
X36984390Y-106187025D01*
X37033620Y-106145875D01*
X37070198Y-106125899D01*
X37105944Y-106114444D01*
X37141514Y-106110704D01*
X37183129Y-106114393D01*
X37217046Y-106124687D01*
X37246381Y-106142081D01*
X37269680Y-106166025D01*
X37131072Y-106318372D01*
G37*
G36*
X37777034Y-106120901D02*
G01*
X37959422Y-106120901D01*
X37812021Y-106830000D01*
X37629633Y-106830000D01*
X37777034Y-106120901D01*
G37*
G36*
X37472341Y-106551990D02*
G01*
X37468939Y-106585723D01*
X37473288Y-106611516D01*
X37484125Y-106631552D01*
X37501187Y-106646591D01*
X37525050Y-106656275D01*
X37558070Y-106659884D01*
X37591270Y-106656471D01*
X37619301Y-106646737D01*
X37643250Y-106630881D01*
X37662730Y-106609533D01*
X37677808Y-106582294D01*
X37688312Y-106547899D01*
X37665476Y-106702932D01*
X37628535Y-106756354D01*
X37580601Y-106800629D01*
X37543487Y-106822781D01*
X37504386Y-106835857D01*
X37462449Y-106840258D01*
X37407505Y-106835011D01*
X37364605Y-106820580D01*
X37331099Y-106797966D01*
X37305279Y-106766802D01*
X37288279Y-106729904D01*
X37278767Y-106684473D01*
X37277920Y-106628313D01*
X37287754Y-106558829D01*
X37378796Y-106120901D01*
X37561917Y-106120901D01*
X37472341Y-106551990D01*
G37*
G36*
X38902627Y-106420832D02*
G01*
X38907414Y-106379520D01*
X38903799Y-106348411D01*
X38893529Y-106324844D01*
X38876234Y-106306677D01*
X38851909Y-106295244D01*
X38818058Y-106291017D01*
X38784122Y-106294786D01*
X38755161Y-106305622D01*
X38730069Y-106323501D01*
X38709876Y-106347097D01*
X38693973Y-106377242D01*
X38682625Y-106415336D01*
X38682625Y-106251388D01*
X38716226Y-106208724D01*
X38751783Y-106174315D01*
X38789420Y-106147280D01*
X38830664Y-106126668D01*
X38871850Y-106114666D01*
X38913618Y-106110704D01*
X38962324Y-106115118D01*
X39001859Y-106127427D01*
X39034091Y-106146913D01*
X39060222Y-106173825D01*
X39079897Y-106208529D01*
X39092953Y-106252793D01*
X39097969Y-106299308D01*
X39096078Y-106354533D01*
X39085931Y-106420099D01*
X39000690Y-106830000D01*
X38817569Y-106830000D01*
X38902627Y-106420832D01*
G37*
G36*
X38156465Y-106120901D02*
G01*
X38339586Y-106120901D01*
X38192185Y-106830000D01*
X38009064Y-106830000D01*
X38156465Y-106120901D01*
G37*
G36*
X38498405Y-106420832D02*
G01*
X38503056Y-106379594D01*
X38499103Y-106348490D01*
X38488269Y-106324844D01*
X38470361Y-106306716D01*
X38445257Y-106295257D01*
X38410416Y-106291017D01*
X38377630Y-106294423D01*
X38349789Y-106304163D01*
X38325847Y-106320081D01*
X38306397Y-106341351D01*
X38291478Y-106368158D01*
X38281212Y-106401659D01*
X38299836Y-106244549D01*
X38347827Y-106185408D01*
X38397411Y-106144837D01*
X38434076Y-106125789D01*
X38472303Y-106114499D01*
X38512754Y-106110704D01*
X38560499Y-106115104D01*
X38599360Y-106127398D01*
X38631151Y-106146913D01*
X38656883Y-106173785D01*
X38676243Y-106208480D01*
X38689036Y-106252793D01*
X38693858Y-106299296D01*
X38691841Y-106354523D01*
X38681648Y-106420099D01*
X38596407Y-106830000D01*
X38413347Y-106830000D01*
X38498405Y-106420832D01*
G37*
G36*
X39503037Y-106840258D02*
G01*
X39437055Y-106835643D01*
X39383240Y-106822859D01*
X39339394Y-106803011D01*
X39301610Y-106774326D01*
X39273209Y-106738500D01*
X39253421Y-106694384D01*
X39243481Y-106646353D01*
X39242393Y-106589742D01*
X39251711Y-106522620D01*
X39268319Y-106442691D01*
X39286801Y-106374050D01*
X39311279Y-106314547D01*
X39341409Y-106263051D01*
X39378802Y-106216899D01*
X39421258Y-106179338D01*
X39469209Y-106149661D01*
X39521525Y-106128326D01*
X39579006Y-106115223D01*
X39642622Y-106110704D01*
X39701592Y-106116337D01*
X39749511Y-106132089D01*
X39788679Y-106157172D01*
X39820123Y-106191461D01*
X39843743Y-106235657D01*
X39859204Y-106292055D01*
X39864756Y-106351075D01*
X39861788Y-106421526D01*
X39848579Y-106505523D01*
X39838932Y-106551990D01*
X39364551Y-106551990D01*
X39390807Y-106425594D01*
X39698126Y-106425594D01*
X39699591Y-106409169D01*
X39699734Y-106368662D01*
X39693308Y-106337782D01*
X39681517Y-106314281D01*
X39663529Y-106296112D01*
X39639457Y-106284851D01*
X39607267Y-106280758D01*
X39564774Y-106285423D01*
X39528253Y-106298861D01*
X39496381Y-106321058D01*
X39470578Y-106350476D01*
X39450414Y-106387946D01*
X39436175Y-106435181D01*
X39417430Y-106525307D01*
X39412639Y-106573008D01*
X39418743Y-106609310D01*
X39433916Y-106637353D01*
X39457802Y-106658408D01*
X39491080Y-106671945D01*
X39536987Y-106676981D01*
X39573697Y-106673745D01*
X39612519Y-106663670D01*
X39650181Y-106647604D01*
X39685914Y-106625751D01*
X39782939Y-106734378D01*
X39715742Y-106779437D01*
X39645064Y-106812597D01*
X39571822Y-106833561D01*
X39503037Y-106840258D01*
G37*
G36*
X40105523Y-106120901D02*
G01*
X40288644Y-106120901D01*
X40141243Y-106830000D01*
X39958122Y-106830000D01*
X40105523Y-106120901D01*
G37*
G36*
X40448379Y-106400315D02*
G01*
X40451767Y-106366168D01*
X40447236Y-106340041D01*
X40436045Y-106319715D01*
X40418541Y-106304532D01*
X40393855Y-106294697D01*
X40359474Y-106291017D01*
X40326688Y-106294423D01*
X40298847Y-106304163D01*
X40274905Y-106320081D01*
X40255455Y-106341351D01*
X40240535Y-106368158D01*
X40230270Y-106401659D01*
X40248893Y-106244549D01*
X40297321Y-106184147D01*
X40344881Y-106144166D01*
X40380014Y-106125741D01*
X40418700Y-106114552D01*
X40461812Y-106110704D01*
X40515459Y-106116039D01*
X40557443Y-106130755D01*
X40590358Y-106153951D01*
X40615807Y-106186175D01*
X40632308Y-106223947D01*
X40641397Y-106270555D01*
X40641829Y-106328245D01*
X40631561Y-106399644D01*
X40542107Y-106830000D01*
X40359047Y-106830000D01*
X40448379Y-106400315D01*
G37*
G36*
X40932773Y-106833419D02*
G01*
X40874276Y-106827122D01*
X40834949Y-106810735D01*
X40809309Y-106785975D01*
X40794257Y-106752693D01*
X40788879Y-106707372D01*
X40796058Y-106645535D01*
X40948039Y-105914638D01*
X41131160Y-105914638D01*
X40988827Y-106599129D01*
X40986643Y-106623474D01*
X40990537Y-106639063D01*
X41000308Y-106649337D01*
X41017037Y-106653046D01*
X41062466Y-106653046D01*
X41024975Y-106833419D01*
X40932773Y-106833419D01*
G37*
G36*
X40833611Y-106120901D02*
G01*
X41173108Y-106120901D01*
X41139891Y-106280758D01*
X40800394Y-106280758D01*
X40833611Y-106120901D01*
G37*
G36*
X41459117Y-106840258D02*
G01*
X41397767Y-106837395D01*
X41340415Y-106829023D01*
X41285697Y-106814867D01*
X41237100Y-106795867D01*
X41192995Y-106771332D01*
X41157172Y-106743232D01*
X41300054Y-106599129D01*
X41345320Y-106628174D01*
X41394453Y-106649687D01*
X41445751Y-106663065D01*
X41495081Y-106667395D01*
X41555777Y-106663288D01*
X41597663Y-106652740D01*
X41629166Y-106633964D01*
X41641505Y-106612074D01*
X41641828Y-106590314D01*
X41633628Y-106575926D01*
X41618902Y-106565712D01*
X41597786Y-106558463D01*
X41532267Y-106549242D01*
X41508454Y-106546556D01*
X41483968Y-106543747D01*
X41478473Y-106542770D01*
X41472855Y-106542404D01*
X41401643Y-106530139D01*
X41353848Y-106517124D01*
X41327083Y-106504104D01*
X41304879Y-106485119D01*
X41286681Y-106459422D01*
X41276139Y-106429975D01*
X41273118Y-106389858D01*
X41280087Y-106335408D01*
X41293428Y-106289675D01*
X41312980Y-106249402D01*
X41338766Y-106213836D01*
X41370339Y-106183220D01*
X41407698Y-106157642D01*
X41451606Y-106137021D01*
X41523845Y-106117623D01*
X41610792Y-106110704D01*
X41663071Y-106113454D01*
X41713740Y-106121634D01*
X41762683Y-106135074D01*
X41807773Y-106153080D01*
X41849679Y-106175809D01*
X41886359Y-106202234D01*
X41749277Y-106338155D01*
X41707665Y-106315148D01*
X41662693Y-106297855D01*
X41616114Y-106287033D01*
X41570858Y-106283506D01*
X41518312Y-106287144D01*
X41481892Y-106296512D01*
X41454569Y-106313061D01*
X41443668Y-106332660D01*
X41444524Y-106348556D01*
X41454293Y-106360382D01*
X41470096Y-106368616D01*
X41492028Y-106374731D01*
X41561149Y-106384623D01*
X41572873Y-106385966D01*
X41584658Y-106387309D01*
X41590519Y-106388042D01*
X41596442Y-106388714D01*
X41671220Y-106400368D01*
X41722899Y-106413321D01*
X41752260Y-106426634D01*
X41776736Y-106446412D01*
X41796966Y-106473405D01*
X41808863Y-106504624D01*
X41812500Y-106547425D01*
X41805148Y-106605907D01*
X41791293Y-106653444D01*
X41770949Y-106695337D01*
X41744087Y-106732363D01*
X41711222Y-106764177D01*
X41672079Y-106790902D01*
X41625812Y-106812597D01*
X41576706Y-106827578D01*
X41521439Y-106836973D01*
X41459117Y-106840258D01*
G37*
D11*
%TO.C,R5*%
X33480000Y-44120000D03*
X33480000Y-36500000D03*
%TD*%
%TO.C,R3*%
X125980000Y-44000000D03*
X118360000Y-44000000D03*
%TD*%
%TO.C,R2*%
X125980000Y-48000000D03*
X118360000Y-48000000D03*
%TD*%
D12*
%TO.C,RV5*%
X41782700Y-93244200D03*
X32182700Y-93244200D03*
D13*
X39482700Y-85744200D03*
D14*
X36982700Y-85744200D03*
X34482700Y-85744200D03*
%TD*%
D12*
%TO.C,RV6*%
X64782700Y-93244200D03*
X55182700Y-93244200D03*
D13*
X62482700Y-85744200D03*
D14*
X59982700Y-85744200D03*
X57482700Y-85744200D03*
%TD*%
D15*
%TO.C,SSD1306*%
X154540000Y-51805000D03*
X154540000Y-28305000D03*
X131040000Y-51805000D03*
X131040000Y-28305000D03*
D16*
X146600000Y-28305000D03*
X144060000Y-28305000D03*
X141520000Y-28305000D03*
X138980000Y-28305000D03*
%TD*%
D17*
%TO.C,REF\u002A\u002A*%
X25980000Y-26000000D03*
%TD*%
D11*
%TO.C,R1*%
X125980000Y-52100000D03*
X118360000Y-52100000D03*
%TD*%
D18*
%TO.C,SW2*%
X147630000Y-71250000D03*
D19*
X152710000Y-71250000D03*
D18*
X157790000Y-71250000D03*
D20*
X155250000Y-66170000D03*
X148900000Y-68710000D03*
%TD*%
D16*
%TO.C,C3*%
X85980000Y-53000000D03*
X85980000Y-45500000D03*
%TD*%
D17*
%TO.C,REF\u002A\u002A*%
X168980000Y-26000000D03*
%TD*%
D12*
%TO.C,RV2*%
X64782700Y-69284200D03*
X55182700Y-69284200D03*
D13*
X62482700Y-61784200D03*
D14*
X59982700Y-61784200D03*
X57482700Y-61784200D03*
%TD*%
D16*
%TO.C,C7*%
X100980000Y-53000000D03*
X100980000Y-45500000D03*
%TD*%
D12*
%TO.C,RV4*%
X110782700Y-69284200D03*
X101182700Y-69284200D03*
D13*
X108482700Y-61784200D03*
D14*
X105982700Y-61784200D03*
X103482700Y-61784200D03*
%TD*%
D16*
%TO.C,C1*%
X75980000Y-53000000D03*
X75980000Y-45500000D03*
%TD*%
D18*
%TO.C,SW3*%
X127400000Y-91250000D03*
D19*
X132480000Y-91250000D03*
D18*
X137560000Y-91250000D03*
D20*
X135020000Y-86170000D03*
X128670000Y-88710000D03*
%TD*%
D12*
%TO.C,RV8*%
X110782700Y-93244200D03*
X101182700Y-93244200D03*
D13*
X108482700Y-85744200D03*
D14*
X105982700Y-85744200D03*
X103482700Y-85744200D03*
%TD*%
D16*
%TO.C,C4*%
X90980000Y-53000000D03*
X90980000Y-45500000D03*
%TD*%
D18*
%TO.C,SW1*%
X127400000Y-71250000D03*
D19*
X132480000Y-71250000D03*
D18*
X137560000Y-71250000D03*
D20*
X135020000Y-66170000D03*
X128670000Y-68710000D03*
%TD*%
D17*
%TO.C,*%
X25980000Y-106000000D03*
%TD*%
D16*
%TO.C,C8*%
X95980000Y-53000000D03*
X95980000Y-45500000D03*
%TD*%
D12*
%TO.C,RV1*%
X41782700Y-69284200D03*
X32182700Y-69284200D03*
D13*
X39482700Y-61784200D03*
D14*
X36982700Y-61784200D03*
X34482700Y-61784200D03*
%TD*%
D16*
%TO.C,U1*%
X51980000Y-22500000D03*
X51980000Y-25040000D03*
X51980000Y-27580000D03*
X51980000Y-30120000D03*
X51980000Y-32660000D03*
X51980000Y-35200000D03*
X51980000Y-37740000D03*
X51980000Y-40280000D03*
X51980000Y-42820000D03*
X51980000Y-45360000D03*
X51980000Y-47900000D03*
X51980000Y-50440000D03*
X51980000Y-52980000D03*
X51980000Y-55520000D03*
X54520000Y-55520000D03*
X57060000Y-55520000D03*
X59600000Y-55520000D03*
X62140000Y-55520000D03*
X64680000Y-55520000D03*
X67220000Y-55520000D03*
X67220000Y-52980000D03*
X67220000Y-50440000D03*
X67220000Y-47900000D03*
X67220000Y-45360000D03*
X67220000Y-42820000D03*
X67220000Y-40280000D03*
X67220000Y-37740000D03*
X67220000Y-35200000D03*
X67220000Y-32660000D03*
X67220000Y-30120000D03*
X67220000Y-27580000D03*
X67220000Y-25040000D03*
X67220000Y-22500000D03*
X64680000Y-25040000D03*
X64680000Y-50440000D03*
X64680000Y-47900000D03*
X62140000Y-50440000D03*
X62140000Y-47900000D03*
X59600000Y-50440000D03*
X59600000Y-47900000D03*
X57060000Y-50440000D03*
X57060000Y-47900000D03*
X54520000Y-50440000D03*
X54520000Y-47900000D03*
%TD*%
D11*
%TO.C,R4*%
X125980000Y-40000000D03*
X118360000Y-40000000D03*
%TD*%
D16*
%TO.C,C2*%
X80980000Y-53000000D03*
X80980000Y-45500000D03*
%TD*%
D12*
%TO.C,RV7*%
X87782700Y-93244200D03*
X78182700Y-93244200D03*
D13*
X85482700Y-85744200D03*
D14*
X82982700Y-85744200D03*
X80482700Y-85744200D03*
%TD*%
D18*
%TO.C,SW4*%
X147630000Y-91250000D03*
D19*
X152710000Y-91250000D03*
D18*
X157790000Y-91250000D03*
D20*
X155250000Y-86170000D03*
X148900000Y-88710000D03*
%TD*%
D12*
%TO.C,RV3*%
X87782700Y-69284200D03*
X78182700Y-69284200D03*
D13*
X85482700Y-61784200D03*
D14*
X82982700Y-61784200D03*
X80482700Y-61784200D03*
%TD*%
D21*
%TO.C,J1*%
X43480000Y-26500000D03*
X43480000Y-24000000D03*
X38480000Y-31500000D03*
X33480000Y-26500000D03*
X33480000Y-24000000D03*
D22*
X43480000Y-31500000D03*
D23*
X40980000Y-31500000D03*
D24*
X38480000Y-26500000D03*
D22*
X33480000Y-31500000D03*
D25*
X35980000Y-31500000D03*
%TD*%
D17*
%TO.C,REF\u002A\u002A*%
X168980000Y-106000000D03*
%TD*%
D16*
%TO.C,C6*%
X105980000Y-53000000D03*
X105980000Y-45500000D03*
%TD*%
D11*
%TO.C,R6*%
X40980000Y-43620000D03*
X40980000Y-36000000D03*
%TD*%
D16*
%TO.C,C5*%
X110980000Y-53000000D03*
X110980000Y-45500000D03*
%TD*%
M02*
