M48
; DRILL file {KiCad 9.0.2} date 2025-08-22T18:27:50+0100
; FORMAT={-:-/ absolute / inch / decimal}
; #@! TF.CreationDate,2025-08-22T18:27:50+01:00
; #@! TF.GenerationSoftware,Kicad,Pcbnew,9.0.2
; #@! TF.FileFunction,Plated,1,2,PTH
FMAT,2
INCH
; #@! TA.AperFunction,Plated,PTH,ComponentDrill
T1C0.0157
; #@! TA.AperFunction,Plated,PTH,ComponentDrill
T2C0.0315
; #@! TA.AperFunction,Plated,PTH,ComponentDrill
T3C0.0320
; #@! TA.AperFunction,Plated,PTH,ComponentDrill
T4C0.0394
; #@! TA.AperFunction,Plated,PTH,ComponentDrill
T5C0.0433
; #@! TA.AperFunction,Plated,PTH,ComponentDrill
T6C0.0591
; #@! TA.AperFunction,Plated,PTH,ComponentDrill
T7C0.1260
%
G90
G05
T2
X2.9913Y-1.7913
X2.9913Y-2.0866
X3.1882Y-1.7913
X3.1882Y-2.0866
X3.385Y-1.7913
X3.385Y-2.0866
X3.5819Y-1.7913
X3.5819Y-2.0866
X3.7787Y-1.7913
X3.7787Y-2.0866
X3.9756Y-1.7913
X3.9756Y-2.0866
X4.1724Y-1.7913
X4.1724Y-2.0866
X4.3693Y-1.7913
X4.3693Y-2.0866
X5.4717Y-1.1144
X5.5717Y-1.1144
X5.6717Y-1.1144
X5.7717Y-1.1144
T3
X1.3181Y-1.437
X1.3181Y-1.737
X1.6134Y-1.4173
X1.6134Y-1.7173
X4.6598Y-1.5748
X4.6598Y-1.7323
X4.6598Y-1.8898
X4.6598Y-2.0512
X4.9598Y-1.5748
X4.9598Y-1.7323
X4.9598Y-1.8898
X4.9598Y-2.0512
T4
X1.3576Y-2.4324
X1.3576Y-3.3758
X1.456Y-2.4324
X1.456Y-3.3758
X1.5544Y-2.4324
X1.5544Y-3.3758
X2.2631Y-2.4324
X2.2631Y-3.3758
X2.3615Y-2.4324
X2.3615Y-3.3758
X2.4599Y-2.4324
X2.4599Y-3.3758
X3.1686Y-2.4324
X3.1686Y-3.3758
X3.267Y-2.4324
X3.267Y-3.3758
X3.3655Y-2.4324
X3.3655Y-3.3758
X4.0741Y-2.4324
X4.0741Y-3.3758
X4.1725Y-2.4324
X4.1725Y-3.3758
X4.271Y-2.4324
X4.271Y-3.3758
T5
X2.0465Y-0.8858
X2.0465Y-0.9858
X2.0465Y-1.0858
X2.0465Y-1.1858
X2.0465Y-1.2858
X2.0465Y-1.3858
X2.0465Y-1.4858
X2.0465Y-1.5858
X2.0465Y-1.6858
X2.0465Y-1.7858
X2.0465Y-1.8858
X2.0465Y-1.9858
X2.0465Y-2.0858
X2.0465Y-2.1858
X2.1465Y-1.8858
X2.1465Y-1.9858
X2.1465Y-2.1858
X2.2465Y-1.8858
X2.2465Y-1.9858
X2.2465Y-2.1858
X2.3465Y-1.8858
X2.3465Y-1.9858
X2.3465Y-2.1858
X2.4465Y-1.8858
X2.4465Y-1.9858
X2.4465Y-2.1858
X2.5465Y-0.9858
X2.5465Y-1.8858
X2.5465Y-1.9858
X2.5465Y-2.1858
X2.6465Y-0.8858
X2.6465Y-0.9858
X2.6465Y-1.0858
X2.6465Y-1.1858
X2.6465Y-1.2858
X2.6465Y-1.3858
X2.6465Y-1.4858
X2.6465Y-1.5858
X2.6465Y-1.6858
X2.6465Y-1.7858
X2.6465Y-1.8858
X2.6465Y-1.9858
X2.6465Y-2.0858
X2.6465Y-2.1858
T6
X5.0657Y-2.7051
X5.0657Y-3.4925
X5.3157Y-2.6051
X5.3157Y-3.3925
X5.8622Y-2.7051
X5.8622Y-3.4925
X6.1122Y-2.6051
X6.1122Y-3.3925
T7
X1.0228Y-1.0236
X1.0228Y-4.1732
X6.6528Y-1.0236
X6.6528Y-4.1732
T1
G00X1.3181Y-1.2205
M15
G01X1.3181Y-1.2598
M16
G05
G00X1.5346Y-1.0433
M15
G01X1.4953Y-1.0433
M16
G05
G00X1.7118Y-1.2598
M15
G01X1.7118Y-1.2205
M16
G05
T2
G00X1.4165Y-1.2264
M15
G01X1.4165Y-1.2539
M16
G05
G00X1.6134Y-1.2539
M15
G01X1.6134Y-1.2264
M16
G05
T5
G00X1.267Y-2.7041
M15
G01X1.267Y-2.7513
M16
G05
G00X1.267Y-3.6474
M15
G01X1.267Y-3.6947
M16
G05
G00X1.645Y-2.7041
M15
G01X1.645Y-2.7513
M16
G05
G00X1.645Y-3.6474
M15
G01X1.645Y-3.6947
M16
G05
G00X2.1725Y-2.7041
M15
G01X2.1725Y-2.7513
M16
G05
G00X2.1725Y-3.6474
M15
G01X2.1725Y-3.6947
M16
G05
G00X2.5505Y-2.7041
M15
G01X2.5505Y-2.7513
M16
G05
G00X2.5505Y-3.6474
M15
G01X2.5505Y-3.6947
M16
G05
G00X3.0781Y-2.7041
M15
G01X3.0781Y-2.7513
M16
G05
G00X3.0781Y-3.6474
M15
G01X3.0781Y-3.6947
M16
G05
G00X3.456Y-2.7041
M15
G01X3.456Y-2.7513
M16
G05
G00X3.456Y-3.6474
M15
G01X3.456Y-3.6947
M16
G05
G00X3.9836Y-2.7041
M15
G01X3.9836Y-2.7513
M16
G05
G00X3.9836Y-3.6474
M15
G01X3.9836Y-3.6947
M16
G05
G00X4.3615Y-2.7041
M15
G01X4.3615Y-2.7513
M16
G05
G00X4.3615Y-3.6474
M15
G01X4.3615Y-3.6947
M16
G05
M30
