%TF.GenerationSoftware,KiCad,Pcbnew,9.0.1*%
%TF.CreationDate,2025-10-30T12:57:53+00:00*%
%TF.ProjectId,MC8P_MIDI_CONTROLLER,4d433850-5f4d-4494-9449-5f434f4e5452,rev?*%
%TF.SameCoordinates,Original*%
%TF.FileFunction,Legend,Top*%
%TF.FilePolarity,Positive*%
%FSLAX46Y46*%
G04 Gerber Fmt 4.6, Leading zero omitted, Abs format (unit mm)*
G04 Created by KiCad (PCBNEW 9.0.1) date 2025-10-30 12:57:53*
%MOMM*%
%LPD*%
G01*
G04 APERTURE LIST*
%ADD10C,0.300000*%
%ADD11C,0.200000*%
%ADD12C,0.152400*%
%ADD13C,0.150000*%
%ADD14C,0.114000*%
%ADD15C,0.120000*%
%ADD16C,0.100000*%
G04 APERTURE END LIST*
D10*
X21980000Y-22000000D02*
X172980000Y-22000000D01*
X172980000Y-110000000D01*
X21980000Y-110000000D01*
X21980000Y-22000000D01*
D11*
G36*
X158491078Y-26005950D02*
G01*
X158815555Y-25336053D01*
X159056867Y-25336053D01*
X158850237Y-26330000D01*
X158683786Y-26330000D01*
X158844253Y-25558192D01*
X158841872Y-25601973D01*
X158527653Y-26219235D01*
X158365781Y-26219235D01*
X158305392Y-25615650D01*
X158324077Y-25558192D01*
X158163609Y-26330000D01*
X157997097Y-26330000D01*
X158203726Y-25336053D01*
X158445099Y-25336053D01*
X158491078Y-26005950D01*
G37*
G36*
X159455837Y-26330000D02*
G01*
X159549382Y-25880165D01*
X159551995Y-25848147D01*
X159546223Y-25823610D01*
X159533018Y-25804328D01*
X159513530Y-25790388D01*
X159485985Y-25781137D01*
X159447655Y-25777644D01*
X159408651Y-25780737D01*
X159367971Y-25790284D01*
X159328855Y-25805781D01*
X159292988Y-25826859D01*
X159203046Y-25712737D01*
X159259413Y-25670048D01*
X159328281Y-25637205D01*
X159403755Y-25617015D01*
X159485146Y-25610155D01*
X159554113Y-25615295D01*
X159608118Y-25629312D01*
X159650182Y-25650768D01*
X159682617Y-25679214D01*
X159706481Y-25715085D01*
X159720762Y-25758068D01*
X159724929Y-25810194D01*
X159717116Y-25874059D01*
X159622350Y-26330000D01*
X159455837Y-26330000D01*
G37*
G36*
X159260443Y-26340258D02*
G01*
X159204131Y-26336127D01*
X159161294Y-26325009D01*
X159129040Y-26308241D01*
X159105166Y-26286280D01*
X159088475Y-26258578D01*
X159078571Y-26223337D01*
X159076438Y-26178331D01*
X159084100Y-26120806D01*
X159099080Y-26069106D01*
X159119979Y-26026357D01*
X159146506Y-25991179D01*
X159178866Y-25962597D01*
X159229918Y-25934748D01*
X159294254Y-25916795D01*
X159375237Y-25910268D01*
X159549138Y-25910268D01*
X159528744Y-26053150D01*
X159346233Y-26053150D01*
X159307825Y-26057689D01*
X159280715Y-26069820D01*
X159261058Y-26090330D01*
X159249269Y-26120806D01*
X159247904Y-26143118D01*
X159253222Y-26159723D01*
X159264778Y-26172463D01*
X159291852Y-26184286D01*
X159339944Y-26189193D01*
X159408165Y-26184313D01*
X159452357Y-26172096D01*
X159476065Y-26157985D01*
X159491376Y-26140414D01*
X159499740Y-26118790D01*
X159492352Y-26221983D01*
X159473995Y-26258534D01*
X159442953Y-26288661D01*
X159403707Y-26311321D01*
X159357652Y-26327618D01*
X159309036Y-26337115D01*
X159260443Y-26340258D01*
G37*
G36*
X159976075Y-25523387D02*
G01*
X160015031Y-25336053D01*
X160198274Y-25336053D01*
X160159318Y-25523387D01*
X159976075Y-25523387D01*
G37*
G36*
X159808402Y-26330000D02*
G01*
X159955925Y-25620413D01*
X160139168Y-25620413D01*
X159991645Y-26330000D01*
X159808402Y-26330000D01*
G37*
G36*
X160169210Y-26330000D02*
G01*
X160316732Y-25620413D01*
X160499975Y-25620413D01*
X160352453Y-26330000D01*
X160169210Y-26330000D01*
G37*
G36*
X160570440Y-26330000D02*
G01*
X160659832Y-25900010D01*
X160663281Y-25865362D01*
X160658740Y-25839158D01*
X160647559Y-25819043D01*
X160630045Y-25804038D01*
X160605320Y-25794298D01*
X160570867Y-25790650D01*
X160537998Y-25794059D01*
X160510119Y-25803802D01*
X160486176Y-25819715D01*
X160466726Y-25841023D01*
X160451806Y-25867870D01*
X160441540Y-25901414D01*
X160460225Y-25744183D01*
X160506837Y-25685744D01*
X160554014Y-25645020D01*
X160589043Y-25625903D01*
X160628446Y-25614209D01*
X160673266Y-25610155D01*
X160727076Y-25615500D01*
X160769142Y-25630235D01*
X160802079Y-25653451D01*
X160827505Y-25685687D01*
X160843975Y-25723482D01*
X160853037Y-25770128D01*
X160853439Y-25827869D01*
X160843137Y-25899338D01*
X160753622Y-26330000D01*
X160570440Y-26330000D01*
G37*
G36*
X161419550Y-26330000D02*
G01*
X161457102Y-26149504D01*
X161767352Y-26149504D01*
X161808253Y-26145780D01*
X161842391Y-26135266D01*
X161871094Y-26118424D01*
X161894834Y-26095287D01*
X161912310Y-26066620D01*
X161923667Y-26031290D01*
X161924094Y-26029214D01*
X161927448Y-25992098D01*
X161921637Y-25963660D01*
X161907913Y-25941409D01*
X161887108Y-25925033D01*
X161857795Y-25914300D01*
X161817055Y-25910268D01*
X161506806Y-25910268D01*
X161544297Y-25729834D01*
X161854546Y-25729834D01*
X161891435Y-25726337D01*
X161922383Y-25716429D01*
X161948580Y-25700464D01*
X161970140Y-25678654D01*
X161986229Y-25651428D01*
X161996879Y-25617665D01*
X161999541Y-25586076D01*
X161994045Y-25561869D01*
X161981369Y-25542866D01*
X161962540Y-25529098D01*
X161935942Y-25519986D01*
X161898937Y-25516549D01*
X161588688Y-25516549D01*
X161626179Y-25336053D01*
X161942474Y-25336053D01*
X162014018Y-25341302D01*
X162070076Y-25355613D01*
X162113757Y-25377497D01*
X162147455Y-25406456D01*
X162172422Y-25443119D01*
X162187403Y-25487010D01*
X162191907Y-25540208D01*
X162184030Y-25605392D01*
X162166888Y-25660594D01*
X162140460Y-25707936D01*
X162104468Y-25748640D01*
X162060744Y-25781138D01*
X162009303Y-25805210D01*
X161948702Y-25820692D01*
X162008085Y-25836208D01*
X162051734Y-25861527D01*
X162083097Y-25896285D01*
X162102523Y-25939224D01*
X162109760Y-25991789D01*
X162102819Y-26057241D01*
X162102392Y-26059317D01*
X162084144Y-26122051D01*
X162058058Y-26175463D01*
X162024314Y-26220901D01*
X161982530Y-26259291D01*
X161934605Y-26289397D01*
X161880202Y-26311416D01*
X161818194Y-26325178D01*
X161747202Y-26330000D01*
X161419550Y-26330000D01*
G37*
G36*
X161339316Y-26330000D02*
G01*
X161545945Y-25336053D01*
X161729189Y-25336053D01*
X161522559Y-26330000D01*
X161339316Y-26330000D01*
G37*
G36*
X162730183Y-25616021D02*
G01*
X162786068Y-25632068D01*
X162829668Y-25656838D01*
X162863330Y-25690144D01*
X162887161Y-25731122D01*
X162901178Y-25780720D01*
X162904448Y-25841297D01*
X162894777Y-25915764D01*
X162870352Y-26033306D01*
X162850127Y-26105038D01*
X162822307Y-26165753D01*
X162787266Y-26217007D01*
X162744873Y-26259963D01*
X162695342Y-26294532D01*
X162639952Y-26319472D01*
X162577625Y-26334893D01*
X162506980Y-26340258D01*
X162435685Y-26334333D01*
X162379877Y-26318115D01*
X162336317Y-26293053D01*
X162302671Y-26259291D01*
X162278941Y-26217839D01*
X162265015Y-26167688D01*
X162261851Y-26106475D01*
X162266212Y-26073023D01*
X162450176Y-26073023D01*
X162454426Y-26103264D01*
X162465642Y-26126545D01*
X162483858Y-26144334D01*
X162509186Y-26155598D01*
X162544105Y-26159762D01*
X162579684Y-26155914D01*
X162610299Y-26144831D01*
X162637039Y-26126545D01*
X162658767Y-26102260D01*
X162675535Y-26071623D01*
X162687170Y-26033306D01*
X162711594Y-25915764D01*
X162715803Y-25876449D01*
X162711417Y-25846536D01*
X162699993Y-25823501D01*
X162681616Y-25805939D01*
X162656051Y-25794782D01*
X162620797Y-25790650D01*
X162585487Y-25794458D01*
X162555113Y-25805422D01*
X162528595Y-25823501D01*
X162507080Y-25847486D01*
X162490454Y-25877799D01*
X162478892Y-25915764D01*
X162454468Y-26033306D01*
X162450176Y-26073023D01*
X162266212Y-26073023D01*
X162271652Y-26031290D01*
X162295649Y-25915764D01*
X162315805Y-25844386D01*
X162343566Y-25783956D01*
X162378566Y-25732926D01*
X162420945Y-25690144D01*
X162470458Y-25655714D01*
X162525834Y-25630868D01*
X162588148Y-25615501D01*
X162658777Y-25610155D01*
X162730183Y-25616021D01*
G37*
G36*
X163373493Y-26330000D02*
G01*
X163467038Y-25880165D01*
X163469650Y-25848147D01*
X163463878Y-25823610D01*
X163450673Y-25804328D01*
X163431185Y-25790388D01*
X163403640Y-25781137D01*
X163365310Y-25777644D01*
X163326306Y-25780737D01*
X163285626Y-25790284D01*
X163246510Y-25805781D01*
X163210644Y-25826859D01*
X163120701Y-25712737D01*
X163177068Y-25670048D01*
X163245937Y-25637205D01*
X163321410Y-25617015D01*
X163402802Y-25610155D01*
X163471769Y-25615295D01*
X163525773Y-25629312D01*
X163567837Y-25650768D01*
X163600272Y-25679214D01*
X163624136Y-25715085D01*
X163638417Y-25758068D01*
X163642584Y-25810194D01*
X163634771Y-25874059D01*
X163540005Y-26330000D01*
X163373493Y-26330000D01*
G37*
G36*
X163178098Y-26340258D02*
G01*
X163121786Y-26336127D01*
X163078949Y-26325009D01*
X163046696Y-26308241D01*
X163022821Y-26286280D01*
X163006130Y-26258578D01*
X162996226Y-26223337D01*
X162994093Y-26178331D01*
X163001755Y-26120806D01*
X163016735Y-26069106D01*
X163037634Y-26026357D01*
X163064161Y-25991179D01*
X163096521Y-25962597D01*
X163147573Y-25934748D01*
X163211909Y-25916795D01*
X163292892Y-25910268D01*
X163466793Y-25910268D01*
X163446399Y-26053150D01*
X163263889Y-26053150D01*
X163225480Y-26057689D01*
X163198370Y-26069820D01*
X163178713Y-26090330D01*
X163166924Y-26120806D01*
X163165560Y-26143118D01*
X163170877Y-26159723D01*
X163182434Y-26172463D01*
X163209507Y-26184286D01*
X163257599Y-26189193D01*
X163325821Y-26184313D01*
X163370012Y-26172096D01*
X163393720Y-26157985D01*
X163409031Y-26140414D01*
X163417395Y-26118790D01*
X163410007Y-26221983D01*
X163391650Y-26258534D01*
X163360609Y-26288661D01*
X163321362Y-26311321D01*
X163275307Y-26327618D01*
X163226691Y-26337115D01*
X163178098Y-26340258D01*
G37*
G36*
X163736132Y-26330000D02*
G01*
X163883655Y-25620413D01*
X164080270Y-25620413D01*
X163932748Y-26330000D01*
X163736132Y-26330000D01*
G37*
G36*
X164233044Y-25818005D02*
G01*
X164221213Y-25806337D01*
X164204895Y-25797611D01*
X164185768Y-25792522D01*
X164161176Y-25790650D01*
X164125767Y-25794823D01*
X164094995Y-25806946D01*
X164067753Y-25827226D01*
X164045790Y-25853682D01*
X164028500Y-25887037D01*
X164016157Y-25928709D01*
X164040520Y-25744183D01*
X164086114Y-25687108D01*
X164135408Y-25645753D01*
X164172053Y-25625530D01*
X164207876Y-25613938D01*
X164243547Y-25610155D01*
X164285059Y-25613854D01*
X164319018Y-25624199D01*
X164348376Y-25641587D01*
X164371774Y-25665537D01*
X164233044Y-25818005D01*
G37*
G36*
X164693869Y-26330000D02*
G01*
X164900499Y-25336053D01*
X165083681Y-25336053D01*
X164877052Y-26330000D01*
X164693869Y-26330000D01*
G37*
G36*
X164530593Y-26340258D02*
G01*
X164476506Y-26334639D01*
X164434125Y-26319096D01*
X164400809Y-26294445D01*
X164375010Y-26259902D01*
X164358634Y-26219820D01*
X164349807Y-26170317D01*
X164349879Y-26109053D01*
X164360966Y-26033306D01*
X164384536Y-25919855D01*
X164404209Y-25846034D01*
X164429203Y-25784370D01*
X164458971Y-25733179D01*
X164493285Y-25691060D01*
X164534905Y-25655287D01*
X164579726Y-25630318D01*
X164628517Y-25615291D01*
X164682390Y-25610155D01*
X164717875Y-25614042D01*
X164748881Y-25625315D01*
X164776423Y-25644043D01*
X164799065Y-25668797D01*
X164817161Y-25700335D01*
X164830523Y-25740031D01*
X164783812Y-25897262D01*
X164787790Y-25862392D01*
X164784545Y-25835652D01*
X164774201Y-25813097D01*
X164757434Y-25797062D01*
X164735118Y-25787390D01*
X164704433Y-25783811D01*
X164671519Y-25787870D01*
X164642718Y-25799723D01*
X164616994Y-25819715D01*
X164596396Y-25845553D01*
X164579830Y-25878643D01*
X164567657Y-25920526D01*
X164544210Y-26033306D01*
X164539119Y-26075858D01*
X164542351Y-26107825D01*
X164552086Y-26131919D01*
X164568863Y-26150667D01*
X164592318Y-26162321D01*
X164624810Y-26166601D01*
X164656297Y-26163244D01*
X164683306Y-26153595D01*
X164706788Y-26137748D01*
X164726232Y-26115982D01*
X164740698Y-26089494D01*
X164750717Y-26056570D01*
X164726293Y-26218564D01*
X164701897Y-26255026D01*
X164673990Y-26284771D01*
X164642395Y-26308506D01*
X164607247Y-26326161D01*
X164570192Y-26336698D01*
X164530593Y-26340258D01*
G37*
D12*
X122000667Y-44462095D02*
X121662000Y-43978286D01*
X121420095Y-44462095D02*
X121420095Y-43446095D01*
X121420095Y-43446095D02*
X121807143Y-43446095D01*
X121807143Y-43446095D02*
X121903905Y-43494476D01*
X121903905Y-43494476D02*
X121952286Y-43542857D01*
X121952286Y-43542857D02*
X122000667Y-43639619D01*
X122000667Y-43639619D02*
X122000667Y-43784762D01*
X122000667Y-43784762D02*
X121952286Y-43881524D01*
X121952286Y-43881524D02*
X121903905Y-43929905D01*
X121903905Y-43929905D02*
X121807143Y-43978286D01*
X121807143Y-43978286D02*
X121420095Y-43978286D01*
X122339333Y-43446095D02*
X122968286Y-43446095D01*
X122968286Y-43446095D02*
X122629619Y-43833143D01*
X122629619Y-43833143D02*
X122774762Y-43833143D01*
X122774762Y-43833143D02*
X122871524Y-43881524D01*
X122871524Y-43881524D02*
X122919905Y-43929905D01*
X122919905Y-43929905D02*
X122968286Y-44026667D01*
X122968286Y-44026667D02*
X122968286Y-44268572D01*
X122968286Y-44268572D02*
X122919905Y-44365334D01*
X122919905Y-44365334D02*
X122871524Y-44413715D01*
X122871524Y-44413715D02*
X122774762Y-44462095D01*
X122774762Y-44462095D02*
X122484476Y-44462095D01*
X122484476Y-44462095D02*
X122387714Y-44413715D01*
X122387714Y-44413715D02*
X122339333Y-44365334D01*
X119242953Y-46172095D02*
X118662381Y-46172095D01*
X118952667Y-46172095D02*
X118952667Y-45156095D01*
X118952667Y-45156095D02*
X118855905Y-45301238D01*
X118855905Y-45301238D02*
X118759143Y-45398000D01*
X118759143Y-45398000D02*
X118662381Y-45446381D01*
X119871905Y-45156095D02*
X119968667Y-45156095D01*
X119968667Y-45156095D02*
X120065429Y-45204476D01*
X120065429Y-45204476D02*
X120113810Y-45252857D01*
X120113810Y-45252857D02*
X120162191Y-45349619D01*
X120162191Y-45349619D02*
X120210572Y-45543143D01*
X120210572Y-45543143D02*
X120210572Y-45785048D01*
X120210572Y-45785048D02*
X120162191Y-45978572D01*
X120162191Y-45978572D02*
X120113810Y-46075334D01*
X120113810Y-46075334D02*
X120065429Y-46123715D01*
X120065429Y-46123715D02*
X119968667Y-46172095D01*
X119968667Y-46172095D02*
X119871905Y-46172095D01*
X119871905Y-46172095D02*
X119775143Y-46123715D01*
X119775143Y-46123715D02*
X119726762Y-46075334D01*
X119726762Y-46075334D02*
X119678381Y-45978572D01*
X119678381Y-45978572D02*
X119630000Y-45785048D01*
X119630000Y-45785048D02*
X119630000Y-45543143D01*
X119630000Y-45543143D02*
X119678381Y-45349619D01*
X119678381Y-45349619D02*
X119726762Y-45252857D01*
X119726762Y-45252857D02*
X119775143Y-45204476D01*
X119775143Y-45204476D02*
X119871905Y-45156095D01*
X120646000Y-46172095D02*
X120646000Y-45156095D01*
X120742762Y-45785048D02*
X121033048Y-46172095D01*
X121033048Y-45494762D02*
X120646000Y-45881810D01*
X121226572Y-46268857D02*
X122000667Y-46268857D01*
X122436095Y-45156095D02*
X122532857Y-45156095D01*
X122532857Y-45156095D02*
X122629619Y-45204476D01*
X122629619Y-45204476D02*
X122678000Y-45252857D01*
X122678000Y-45252857D02*
X122726381Y-45349619D01*
X122726381Y-45349619D02*
X122774762Y-45543143D01*
X122774762Y-45543143D02*
X122774762Y-45785048D01*
X122774762Y-45785048D02*
X122726381Y-45978572D01*
X122726381Y-45978572D02*
X122678000Y-46075334D01*
X122678000Y-46075334D02*
X122629619Y-46123715D01*
X122629619Y-46123715D02*
X122532857Y-46172095D01*
X122532857Y-46172095D02*
X122436095Y-46172095D01*
X122436095Y-46172095D02*
X122339333Y-46123715D01*
X122339333Y-46123715D02*
X122290952Y-46075334D01*
X122290952Y-46075334D02*
X122242571Y-45978572D01*
X122242571Y-45978572D02*
X122194190Y-45785048D01*
X122194190Y-45785048D02*
X122194190Y-45543143D01*
X122194190Y-45543143D02*
X122242571Y-45349619D01*
X122242571Y-45349619D02*
X122290952Y-45252857D01*
X122290952Y-45252857D02*
X122339333Y-45204476D01*
X122339333Y-45204476D02*
X122436095Y-45156095D01*
X123645619Y-45494762D02*
X123645619Y-46172095D01*
X123403714Y-45107715D02*
X123161809Y-45833429D01*
X123161809Y-45833429D02*
X123790762Y-45833429D01*
X124371333Y-45156095D02*
X124468095Y-45156095D01*
X124468095Y-45156095D02*
X124564857Y-45204476D01*
X124564857Y-45204476D02*
X124613238Y-45252857D01*
X124613238Y-45252857D02*
X124661619Y-45349619D01*
X124661619Y-45349619D02*
X124710000Y-45543143D01*
X124710000Y-45543143D02*
X124710000Y-45785048D01*
X124710000Y-45785048D02*
X124661619Y-45978572D01*
X124661619Y-45978572D02*
X124613238Y-46075334D01*
X124613238Y-46075334D02*
X124564857Y-46123715D01*
X124564857Y-46123715D02*
X124468095Y-46172095D01*
X124468095Y-46172095D02*
X124371333Y-46172095D01*
X124371333Y-46172095D02*
X124274571Y-46123715D01*
X124274571Y-46123715D02*
X124226190Y-46075334D01*
X124226190Y-46075334D02*
X124177809Y-45978572D01*
X124177809Y-45978572D02*
X124129428Y-45785048D01*
X124129428Y-45785048D02*
X124129428Y-45543143D01*
X124129428Y-45543143D02*
X124177809Y-45349619D01*
X124177809Y-45349619D02*
X124226190Y-45252857D01*
X124226190Y-45252857D02*
X124274571Y-45204476D01*
X124274571Y-45204476D02*
X124371333Y-45156095D01*
X125097047Y-45252857D02*
X125145428Y-45204476D01*
X125145428Y-45204476D02*
X125242190Y-45156095D01*
X125242190Y-45156095D02*
X125484095Y-45156095D01*
X125484095Y-45156095D02*
X125580857Y-45204476D01*
X125580857Y-45204476D02*
X125629238Y-45252857D01*
X125629238Y-45252857D02*
X125677619Y-45349619D01*
X125677619Y-45349619D02*
X125677619Y-45446381D01*
X125677619Y-45446381D02*
X125629238Y-45591524D01*
X125629238Y-45591524D02*
X125048666Y-46172095D01*
X125048666Y-46172095D02*
X125677619Y-46172095D01*
X35832095Y-40479332D02*
X35348286Y-40817999D01*
X35832095Y-41059904D02*
X34816095Y-41059904D01*
X34816095Y-41059904D02*
X34816095Y-40672856D01*
X34816095Y-40672856D02*
X34864476Y-40576094D01*
X34864476Y-40576094D02*
X34912857Y-40527713D01*
X34912857Y-40527713D02*
X35009619Y-40479332D01*
X35009619Y-40479332D02*
X35154762Y-40479332D01*
X35154762Y-40479332D02*
X35251524Y-40527713D01*
X35251524Y-40527713D02*
X35299905Y-40576094D01*
X35299905Y-40576094D02*
X35348286Y-40672856D01*
X35348286Y-40672856D02*
X35348286Y-41059904D01*
X34816095Y-39560094D02*
X34816095Y-40043904D01*
X34816095Y-40043904D02*
X35299905Y-40092285D01*
X35299905Y-40092285D02*
X35251524Y-40043904D01*
X35251524Y-40043904D02*
X35203143Y-39947142D01*
X35203143Y-39947142D02*
X35203143Y-39705237D01*
X35203143Y-39705237D02*
X35251524Y-39608475D01*
X35251524Y-39608475D02*
X35299905Y-39560094D01*
X35299905Y-39560094D02*
X35396667Y-39511713D01*
X35396667Y-39511713D02*
X35638572Y-39511713D01*
X35638572Y-39511713D02*
X35735334Y-39560094D01*
X35735334Y-39560094D02*
X35783715Y-39608475D01*
X35783715Y-39608475D02*
X35832095Y-39705237D01*
X35832095Y-39705237D02*
X35832095Y-39947142D01*
X35832095Y-39947142D02*
X35783715Y-40043904D01*
X35783715Y-40043904D02*
X35735334Y-40092285D01*
X32232095Y-43237046D02*
X32232095Y-43817618D01*
X32232095Y-43527332D02*
X31216095Y-43527332D01*
X31216095Y-43527332D02*
X31361238Y-43624094D01*
X31361238Y-43624094D02*
X31458000Y-43720856D01*
X31458000Y-43720856D02*
X31506381Y-43817618D01*
X31216095Y-42608094D02*
X31216095Y-42511332D01*
X31216095Y-42511332D02*
X31264476Y-42414570D01*
X31264476Y-42414570D02*
X31312857Y-42366189D01*
X31312857Y-42366189D02*
X31409619Y-42317808D01*
X31409619Y-42317808D02*
X31603143Y-42269427D01*
X31603143Y-42269427D02*
X31845048Y-42269427D01*
X31845048Y-42269427D02*
X32038572Y-42317808D01*
X32038572Y-42317808D02*
X32135334Y-42366189D01*
X32135334Y-42366189D02*
X32183715Y-42414570D01*
X32183715Y-42414570D02*
X32232095Y-42511332D01*
X32232095Y-42511332D02*
X32232095Y-42608094D01*
X32232095Y-42608094D02*
X32183715Y-42704856D01*
X32183715Y-42704856D02*
X32135334Y-42753237D01*
X32135334Y-42753237D02*
X32038572Y-42801618D01*
X32038572Y-42801618D02*
X31845048Y-42849999D01*
X31845048Y-42849999D02*
X31603143Y-42849999D01*
X31603143Y-42849999D02*
X31409619Y-42801618D01*
X31409619Y-42801618D02*
X31312857Y-42753237D01*
X31312857Y-42753237D02*
X31264476Y-42704856D01*
X31264476Y-42704856D02*
X31216095Y-42608094D01*
X32232095Y-41833999D02*
X31216095Y-41833999D01*
X31845048Y-41737237D02*
X32232095Y-41446951D01*
X31554762Y-41446951D02*
X31941810Y-41833999D01*
X32328857Y-41253428D02*
X32328857Y-40479332D01*
X31216095Y-40043904D02*
X31216095Y-39947142D01*
X31216095Y-39947142D02*
X31264476Y-39850380D01*
X31264476Y-39850380D02*
X31312857Y-39801999D01*
X31312857Y-39801999D02*
X31409619Y-39753618D01*
X31409619Y-39753618D02*
X31603143Y-39705237D01*
X31603143Y-39705237D02*
X31845048Y-39705237D01*
X31845048Y-39705237D02*
X32038572Y-39753618D01*
X32038572Y-39753618D02*
X32135334Y-39801999D01*
X32135334Y-39801999D02*
X32183715Y-39850380D01*
X32183715Y-39850380D02*
X32232095Y-39947142D01*
X32232095Y-39947142D02*
X32232095Y-40043904D01*
X32232095Y-40043904D02*
X32183715Y-40140666D01*
X32183715Y-40140666D02*
X32135334Y-40189047D01*
X32135334Y-40189047D02*
X32038572Y-40237428D01*
X32038572Y-40237428D02*
X31845048Y-40285809D01*
X31845048Y-40285809D02*
X31603143Y-40285809D01*
X31603143Y-40285809D02*
X31409619Y-40237428D01*
X31409619Y-40237428D02*
X31312857Y-40189047D01*
X31312857Y-40189047D02*
X31264476Y-40140666D01*
X31264476Y-40140666D02*
X31216095Y-40043904D01*
X31554762Y-38834380D02*
X32232095Y-38834380D01*
X31167715Y-39076285D02*
X31893429Y-39318190D01*
X31893429Y-39318190D02*
X31893429Y-38689237D01*
X31216095Y-38108666D02*
X31216095Y-38011904D01*
X31216095Y-38011904D02*
X31264476Y-37915142D01*
X31264476Y-37915142D02*
X31312857Y-37866761D01*
X31312857Y-37866761D02*
X31409619Y-37818380D01*
X31409619Y-37818380D02*
X31603143Y-37769999D01*
X31603143Y-37769999D02*
X31845048Y-37769999D01*
X31845048Y-37769999D02*
X32038572Y-37818380D01*
X32038572Y-37818380D02*
X32135334Y-37866761D01*
X32135334Y-37866761D02*
X32183715Y-37915142D01*
X32183715Y-37915142D02*
X32232095Y-38011904D01*
X32232095Y-38011904D02*
X32232095Y-38108666D01*
X32232095Y-38108666D02*
X32183715Y-38205428D01*
X32183715Y-38205428D02*
X32135334Y-38253809D01*
X32135334Y-38253809D02*
X32038572Y-38302190D01*
X32038572Y-38302190D02*
X31845048Y-38350571D01*
X31845048Y-38350571D02*
X31603143Y-38350571D01*
X31603143Y-38350571D02*
X31409619Y-38302190D01*
X31409619Y-38302190D02*
X31312857Y-38253809D01*
X31312857Y-38253809D02*
X31264476Y-38205428D01*
X31264476Y-38205428D02*
X31216095Y-38108666D01*
X31312857Y-37382952D02*
X31264476Y-37334571D01*
X31264476Y-37334571D02*
X31216095Y-37237809D01*
X31216095Y-37237809D02*
X31216095Y-36995904D01*
X31216095Y-36995904D02*
X31264476Y-36899142D01*
X31264476Y-36899142D02*
X31312857Y-36850761D01*
X31312857Y-36850761D02*
X31409619Y-36802380D01*
X31409619Y-36802380D02*
X31506381Y-36802380D01*
X31506381Y-36802380D02*
X31651524Y-36850761D01*
X31651524Y-36850761D02*
X32232095Y-37431333D01*
X32232095Y-37431333D02*
X32232095Y-36802380D01*
D13*
X67937519Y-93839438D02*
X67461328Y-94172771D01*
X67937519Y-94410866D02*
X66937519Y-94410866D01*
X66937519Y-94410866D02*
X66937519Y-94029914D01*
X66937519Y-94029914D02*
X66985138Y-93934676D01*
X66985138Y-93934676D02*
X67032757Y-93887057D01*
X67032757Y-93887057D02*
X67127995Y-93839438D01*
X67127995Y-93839438D02*
X67270852Y-93839438D01*
X67270852Y-93839438D02*
X67366090Y-93887057D01*
X67366090Y-93887057D02*
X67413709Y-93934676D01*
X67413709Y-93934676D02*
X67461328Y-94029914D01*
X67461328Y-94029914D02*
X67461328Y-94410866D01*
X66937519Y-93553723D02*
X67937519Y-93220390D01*
X67937519Y-93220390D02*
X66937519Y-92887057D01*
X66937519Y-92125152D02*
X66937519Y-92315628D01*
X66937519Y-92315628D02*
X66985138Y-92410866D01*
X66985138Y-92410866D02*
X67032757Y-92458485D01*
X67032757Y-92458485D02*
X67175614Y-92553723D01*
X67175614Y-92553723D02*
X67366090Y-92601342D01*
X67366090Y-92601342D02*
X67747042Y-92601342D01*
X67747042Y-92601342D02*
X67842280Y-92553723D01*
X67842280Y-92553723D02*
X67889900Y-92506104D01*
X67889900Y-92506104D02*
X67937519Y-92410866D01*
X67937519Y-92410866D02*
X67937519Y-92220390D01*
X67937519Y-92220390D02*
X67889900Y-92125152D01*
X67889900Y-92125152D02*
X67842280Y-92077533D01*
X67842280Y-92077533D02*
X67747042Y-92029914D01*
X67747042Y-92029914D02*
X67508947Y-92029914D01*
X67508947Y-92029914D02*
X67413709Y-92077533D01*
X67413709Y-92077533D02*
X67366090Y-92125152D01*
X67366090Y-92125152D02*
X67318471Y-92220390D01*
X67318471Y-92220390D02*
X67318471Y-92410866D01*
X67318471Y-92410866D02*
X67366090Y-92506104D01*
X67366090Y-92506104D02*
X67413709Y-92553723D01*
X67413709Y-92553723D02*
X67508947Y-92601342D01*
X52413709Y-95006104D02*
X52461328Y-94863247D01*
X52461328Y-94863247D02*
X52508947Y-94815628D01*
X52508947Y-94815628D02*
X52604185Y-94768009D01*
X52604185Y-94768009D02*
X52747042Y-94768009D01*
X52747042Y-94768009D02*
X52842280Y-94815628D01*
X52842280Y-94815628D02*
X52889900Y-94863247D01*
X52889900Y-94863247D02*
X52937519Y-94958485D01*
X52937519Y-94958485D02*
X52937519Y-95339437D01*
X52937519Y-95339437D02*
X51937519Y-95339437D01*
X51937519Y-95339437D02*
X51937519Y-95006104D01*
X51937519Y-95006104D02*
X51985138Y-94910866D01*
X51985138Y-94910866D02*
X52032757Y-94863247D01*
X52032757Y-94863247D02*
X52127995Y-94815628D01*
X52127995Y-94815628D02*
X52223233Y-94815628D01*
X52223233Y-94815628D02*
X52318471Y-94863247D01*
X52318471Y-94863247D02*
X52366090Y-94910866D01*
X52366090Y-94910866D02*
X52413709Y-95006104D01*
X52413709Y-95006104D02*
X52413709Y-95339437D01*
X52937519Y-93815628D02*
X52937519Y-94387056D01*
X52937519Y-94101342D02*
X51937519Y-94101342D01*
X51937519Y-94101342D02*
X52080376Y-94196580D01*
X52080376Y-94196580D02*
X52175614Y-94291818D01*
X52175614Y-94291818D02*
X52223233Y-94387056D01*
X51937519Y-93196580D02*
X51937519Y-93101342D01*
X51937519Y-93101342D02*
X51985138Y-93006104D01*
X51985138Y-93006104D02*
X52032757Y-92958485D01*
X52032757Y-92958485D02*
X52127995Y-92910866D01*
X52127995Y-92910866D02*
X52318471Y-92863247D01*
X52318471Y-92863247D02*
X52556566Y-92863247D01*
X52556566Y-92863247D02*
X52747042Y-92910866D01*
X52747042Y-92910866D02*
X52842280Y-92958485D01*
X52842280Y-92958485D02*
X52889900Y-93006104D01*
X52889900Y-93006104D02*
X52937519Y-93101342D01*
X52937519Y-93101342D02*
X52937519Y-93196580D01*
X52937519Y-93196580D02*
X52889900Y-93291818D01*
X52889900Y-93291818D02*
X52842280Y-93339437D01*
X52842280Y-93339437D02*
X52747042Y-93387056D01*
X52747042Y-93387056D02*
X52556566Y-93434675D01*
X52556566Y-93434675D02*
X52318471Y-93434675D01*
X52318471Y-93434675D02*
X52127995Y-93387056D01*
X52127995Y-93387056D02*
X52032757Y-93339437D01*
X52032757Y-93339437D02*
X51985138Y-93291818D01*
X51985138Y-93291818D02*
X51937519Y-93196580D01*
X51937519Y-92244199D02*
X51937519Y-92148961D01*
X51937519Y-92148961D02*
X51985138Y-92053723D01*
X51985138Y-92053723D02*
X52032757Y-92006104D01*
X52032757Y-92006104D02*
X52127995Y-91958485D01*
X52127995Y-91958485D02*
X52318471Y-91910866D01*
X52318471Y-91910866D02*
X52556566Y-91910866D01*
X52556566Y-91910866D02*
X52747042Y-91958485D01*
X52747042Y-91958485D02*
X52842280Y-92006104D01*
X52842280Y-92006104D02*
X52889900Y-92053723D01*
X52889900Y-92053723D02*
X52937519Y-92148961D01*
X52937519Y-92148961D02*
X52937519Y-92244199D01*
X52937519Y-92244199D02*
X52889900Y-92339437D01*
X52889900Y-92339437D02*
X52842280Y-92387056D01*
X52842280Y-92387056D02*
X52747042Y-92434675D01*
X52747042Y-92434675D02*
X52556566Y-92482294D01*
X52556566Y-92482294D02*
X52318471Y-92482294D01*
X52318471Y-92482294D02*
X52127995Y-92434675D01*
X52127995Y-92434675D02*
X52032757Y-92387056D01*
X52032757Y-92387056D02*
X51985138Y-92339437D01*
X51985138Y-92339437D02*
X51937519Y-92244199D01*
X52937519Y-91482294D02*
X51937519Y-91482294D01*
X52556566Y-91387056D02*
X52937519Y-91101342D01*
X52270852Y-91101342D02*
X52651804Y-91482294D01*
X101109580Y-33416666D02*
X101157200Y-33464285D01*
X101157200Y-33464285D02*
X101204819Y-33607142D01*
X101204819Y-33607142D02*
X101204819Y-33702380D01*
X101204819Y-33702380D02*
X101157200Y-33845237D01*
X101157200Y-33845237D02*
X101061961Y-33940475D01*
X101061961Y-33940475D02*
X100966723Y-33988094D01*
X100966723Y-33988094D02*
X100776247Y-34035713D01*
X100776247Y-34035713D02*
X100633390Y-34035713D01*
X100633390Y-34035713D02*
X100442914Y-33988094D01*
X100442914Y-33988094D02*
X100347676Y-33940475D01*
X100347676Y-33940475D02*
X100252438Y-33845237D01*
X100252438Y-33845237D02*
X100204819Y-33702380D01*
X100204819Y-33702380D02*
X100204819Y-33607142D01*
X100204819Y-33607142D02*
X100252438Y-33464285D01*
X100252438Y-33464285D02*
X100300057Y-33416666D01*
X101204819Y-32940475D02*
X101204819Y-32749999D01*
X101204819Y-32749999D02*
X101157200Y-32654761D01*
X101157200Y-32654761D02*
X101109580Y-32607142D01*
X101109580Y-32607142D02*
X100966723Y-32511904D01*
X100966723Y-32511904D02*
X100776247Y-32464285D01*
X100776247Y-32464285D02*
X100395295Y-32464285D01*
X100395295Y-32464285D02*
X100300057Y-32511904D01*
X100300057Y-32511904D02*
X100252438Y-32559523D01*
X100252438Y-32559523D02*
X100204819Y-32654761D01*
X100204819Y-32654761D02*
X100204819Y-32845237D01*
X100204819Y-32845237D02*
X100252438Y-32940475D01*
X100252438Y-32940475D02*
X100300057Y-32988094D01*
X100300057Y-32988094D02*
X100395295Y-33035713D01*
X100395295Y-33035713D02*
X100633390Y-33035713D01*
X100633390Y-33035713D02*
X100728628Y-32988094D01*
X100728628Y-32988094D02*
X100776247Y-32940475D01*
X100776247Y-32940475D02*
X100823866Y-32845237D01*
X100823866Y-32845237D02*
X100823866Y-32654761D01*
X100823866Y-32654761D02*
X100776247Y-32559523D01*
X100776247Y-32559523D02*
X100728628Y-32511904D01*
X100728628Y-32511904D02*
X100633390Y-32464285D01*
X98454819Y-34797619D02*
X98454819Y-35369047D01*
X98454819Y-35083333D02*
X97454819Y-35083333D01*
X97454819Y-35083333D02*
X97597676Y-35178571D01*
X97597676Y-35178571D02*
X97692914Y-35273809D01*
X97692914Y-35273809D02*
X97740533Y-35369047D01*
X97454819Y-34178571D02*
X97454819Y-34083333D01*
X97454819Y-34083333D02*
X97502438Y-33988095D01*
X97502438Y-33988095D02*
X97550057Y-33940476D01*
X97550057Y-33940476D02*
X97645295Y-33892857D01*
X97645295Y-33892857D02*
X97835771Y-33845238D01*
X97835771Y-33845238D02*
X98073866Y-33845238D01*
X98073866Y-33845238D02*
X98264342Y-33892857D01*
X98264342Y-33892857D02*
X98359580Y-33940476D01*
X98359580Y-33940476D02*
X98407200Y-33988095D01*
X98407200Y-33988095D02*
X98454819Y-34083333D01*
X98454819Y-34083333D02*
X98454819Y-34178571D01*
X98454819Y-34178571D02*
X98407200Y-34273809D01*
X98407200Y-34273809D02*
X98359580Y-34321428D01*
X98359580Y-34321428D02*
X98264342Y-34369047D01*
X98264342Y-34369047D02*
X98073866Y-34416666D01*
X98073866Y-34416666D02*
X97835771Y-34416666D01*
X97835771Y-34416666D02*
X97645295Y-34369047D01*
X97645295Y-34369047D02*
X97550057Y-34321428D01*
X97550057Y-34321428D02*
X97502438Y-34273809D01*
X97502438Y-34273809D02*
X97454819Y-34178571D01*
X97454819Y-33226190D02*
X97454819Y-33130952D01*
X97454819Y-33130952D02*
X97502438Y-33035714D01*
X97502438Y-33035714D02*
X97550057Y-32988095D01*
X97550057Y-32988095D02*
X97645295Y-32940476D01*
X97645295Y-32940476D02*
X97835771Y-32892857D01*
X97835771Y-32892857D02*
X98073866Y-32892857D01*
X98073866Y-32892857D02*
X98264342Y-32940476D01*
X98264342Y-32940476D02*
X98359580Y-32988095D01*
X98359580Y-32988095D02*
X98407200Y-33035714D01*
X98407200Y-33035714D02*
X98454819Y-33130952D01*
X98454819Y-33130952D02*
X98454819Y-33226190D01*
X98454819Y-33226190D02*
X98407200Y-33321428D01*
X98407200Y-33321428D02*
X98359580Y-33369047D01*
X98359580Y-33369047D02*
X98264342Y-33416666D01*
X98264342Y-33416666D02*
X98073866Y-33464285D01*
X98073866Y-33464285D02*
X97835771Y-33464285D01*
X97835771Y-33464285D02*
X97645295Y-33416666D01*
X97645295Y-33416666D02*
X97550057Y-33369047D01*
X97550057Y-33369047D02*
X97502438Y-33321428D01*
X97502438Y-33321428D02*
X97454819Y-33226190D01*
X97788152Y-32464285D02*
X98454819Y-32464285D01*
X97883390Y-32464285D02*
X97835771Y-32416666D01*
X97835771Y-32416666D02*
X97788152Y-32321428D01*
X97788152Y-32321428D02*
X97788152Y-32178571D01*
X97788152Y-32178571D02*
X97835771Y-32083333D01*
X97835771Y-32083333D02*
X97931009Y-32035714D01*
X97931009Y-32035714D02*
X98454819Y-32035714D01*
X97931009Y-31226190D02*
X97931009Y-31559523D01*
X98454819Y-31559523D02*
X97454819Y-31559523D01*
X97454819Y-31559523D02*
X97454819Y-31083333D01*
X90937519Y-69879438D02*
X90461328Y-70212771D01*
X90937519Y-70450866D02*
X89937519Y-70450866D01*
X89937519Y-70450866D02*
X89937519Y-70069914D01*
X89937519Y-70069914D02*
X89985138Y-69974676D01*
X89985138Y-69974676D02*
X90032757Y-69927057D01*
X90032757Y-69927057D02*
X90127995Y-69879438D01*
X90127995Y-69879438D02*
X90270852Y-69879438D01*
X90270852Y-69879438D02*
X90366090Y-69927057D01*
X90366090Y-69927057D02*
X90413709Y-69974676D01*
X90413709Y-69974676D02*
X90461328Y-70069914D01*
X90461328Y-70069914D02*
X90461328Y-70450866D01*
X89937519Y-69593723D02*
X90937519Y-69260390D01*
X90937519Y-69260390D02*
X89937519Y-68927057D01*
X89937519Y-68688961D02*
X89937519Y-68069914D01*
X89937519Y-68069914D02*
X90318471Y-68403247D01*
X90318471Y-68403247D02*
X90318471Y-68260390D01*
X90318471Y-68260390D02*
X90366090Y-68165152D01*
X90366090Y-68165152D02*
X90413709Y-68117533D01*
X90413709Y-68117533D02*
X90508947Y-68069914D01*
X90508947Y-68069914D02*
X90747042Y-68069914D01*
X90747042Y-68069914D02*
X90842280Y-68117533D01*
X90842280Y-68117533D02*
X90889900Y-68165152D01*
X90889900Y-68165152D02*
X90937519Y-68260390D01*
X90937519Y-68260390D02*
X90937519Y-68546104D01*
X90937519Y-68546104D02*
X90889900Y-68641342D01*
X90889900Y-68641342D02*
X90842280Y-68688961D01*
X75413709Y-71046104D02*
X75461328Y-70903247D01*
X75461328Y-70903247D02*
X75508947Y-70855628D01*
X75508947Y-70855628D02*
X75604185Y-70808009D01*
X75604185Y-70808009D02*
X75747042Y-70808009D01*
X75747042Y-70808009D02*
X75842280Y-70855628D01*
X75842280Y-70855628D02*
X75889900Y-70903247D01*
X75889900Y-70903247D02*
X75937519Y-70998485D01*
X75937519Y-70998485D02*
X75937519Y-71379437D01*
X75937519Y-71379437D02*
X74937519Y-71379437D01*
X74937519Y-71379437D02*
X74937519Y-71046104D01*
X74937519Y-71046104D02*
X74985138Y-70950866D01*
X74985138Y-70950866D02*
X75032757Y-70903247D01*
X75032757Y-70903247D02*
X75127995Y-70855628D01*
X75127995Y-70855628D02*
X75223233Y-70855628D01*
X75223233Y-70855628D02*
X75318471Y-70903247D01*
X75318471Y-70903247D02*
X75366090Y-70950866D01*
X75366090Y-70950866D02*
X75413709Y-71046104D01*
X75413709Y-71046104D02*
X75413709Y-71379437D01*
X75937519Y-69855628D02*
X75937519Y-70427056D01*
X75937519Y-70141342D02*
X74937519Y-70141342D01*
X74937519Y-70141342D02*
X75080376Y-70236580D01*
X75080376Y-70236580D02*
X75175614Y-70331818D01*
X75175614Y-70331818D02*
X75223233Y-70427056D01*
X74937519Y-69236580D02*
X74937519Y-69141342D01*
X74937519Y-69141342D02*
X74985138Y-69046104D01*
X74985138Y-69046104D02*
X75032757Y-68998485D01*
X75032757Y-68998485D02*
X75127995Y-68950866D01*
X75127995Y-68950866D02*
X75318471Y-68903247D01*
X75318471Y-68903247D02*
X75556566Y-68903247D01*
X75556566Y-68903247D02*
X75747042Y-68950866D01*
X75747042Y-68950866D02*
X75842280Y-68998485D01*
X75842280Y-68998485D02*
X75889900Y-69046104D01*
X75889900Y-69046104D02*
X75937519Y-69141342D01*
X75937519Y-69141342D02*
X75937519Y-69236580D01*
X75937519Y-69236580D02*
X75889900Y-69331818D01*
X75889900Y-69331818D02*
X75842280Y-69379437D01*
X75842280Y-69379437D02*
X75747042Y-69427056D01*
X75747042Y-69427056D02*
X75556566Y-69474675D01*
X75556566Y-69474675D02*
X75318471Y-69474675D01*
X75318471Y-69474675D02*
X75127995Y-69427056D01*
X75127995Y-69427056D02*
X75032757Y-69379437D01*
X75032757Y-69379437D02*
X74985138Y-69331818D01*
X74985138Y-69331818D02*
X74937519Y-69236580D01*
X74937519Y-68284199D02*
X74937519Y-68188961D01*
X74937519Y-68188961D02*
X74985138Y-68093723D01*
X74985138Y-68093723D02*
X75032757Y-68046104D01*
X75032757Y-68046104D02*
X75127995Y-67998485D01*
X75127995Y-67998485D02*
X75318471Y-67950866D01*
X75318471Y-67950866D02*
X75556566Y-67950866D01*
X75556566Y-67950866D02*
X75747042Y-67998485D01*
X75747042Y-67998485D02*
X75842280Y-68046104D01*
X75842280Y-68046104D02*
X75889900Y-68093723D01*
X75889900Y-68093723D02*
X75937519Y-68188961D01*
X75937519Y-68188961D02*
X75937519Y-68284199D01*
X75937519Y-68284199D02*
X75889900Y-68379437D01*
X75889900Y-68379437D02*
X75842280Y-68427056D01*
X75842280Y-68427056D02*
X75747042Y-68474675D01*
X75747042Y-68474675D02*
X75556566Y-68522294D01*
X75556566Y-68522294D02*
X75318471Y-68522294D01*
X75318471Y-68522294D02*
X75127995Y-68474675D01*
X75127995Y-68474675D02*
X75032757Y-68427056D01*
X75032757Y-68427056D02*
X74985138Y-68379437D01*
X74985138Y-68379437D02*
X74937519Y-68284199D01*
X75937519Y-67522294D02*
X74937519Y-67522294D01*
X75556566Y-67427056D02*
X75937519Y-67141342D01*
X75270852Y-67141342D02*
X75651804Y-67522294D01*
X90937519Y-93839438D02*
X90461328Y-94172771D01*
X90937519Y-94410866D02*
X89937519Y-94410866D01*
X89937519Y-94410866D02*
X89937519Y-94029914D01*
X89937519Y-94029914D02*
X89985138Y-93934676D01*
X89985138Y-93934676D02*
X90032757Y-93887057D01*
X90032757Y-93887057D02*
X90127995Y-93839438D01*
X90127995Y-93839438D02*
X90270852Y-93839438D01*
X90270852Y-93839438D02*
X90366090Y-93887057D01*
X90366090Y-93887057D02*
X90413709Y-93934676D01*
X90413709Y-93934676D02*
X90461328Y-94029914D01*
X90461328Y-94029914D02*
X90461328Y-94410866D01*
X89937519Y-93553723D02*
X90937519Y-93220390D01*
X90937519Y-93220390D02*
X89937519Y-92887057D01*
X89937519Y-92648961D02*
X89937519Y-91982295D01*
X89937519Y-91982295D02*
X90937519Y-92410866D01*
X75413709Y-95006104D02*
X75461328Y-94863247D01*
X75461328Y-94863247D02*
X75508947Y-94815628D01*
X75508947Y-94815628D02*
X75604185Y-94768009D01*
X75604185Y-94768009D02*
X75747042Y-94768009D01*
X75747042Y-94768009D02*
X75842280Y-94815628D01*
X75842280Y-94815628D02*
X75889900Y-94863247D01*
X75889900Y-94863247D02*
X75937519Y-94958485D01*
X75937519Y-94958485D02*
X75937519Y-95339437D01*
X75937519Y-95339437D02*
X74937519Y-95339437D01*
X74937519Y-95339437D02*
X74937519Y-95006104D01*
X74937519Y-95006104D02*
X74985138Y-94910866D01*
X74985138Y-94910866D02*
X75032757Y-94863247D01*
X75032757Y-94863247D02*
X75127995Y-94815628D01*
X75127995Y-94815628D02*
X75223233Y-94815628D01*
X75223233Y-94815628D02*
X75318471Y-94863247D01*
X75318471Y-94863247D02*
X75366090Y-94910866D01*
X75366090Y-94910866D02*
X75413709Y-95006104D01*
X75413709Y-95006104D02*
X75413709Y-95339437D01*
X75937519Y-93815628D02*
X75937519Y-94387056D01*
X75937519Y-94101342D02*
X74937519Y-94101342D01*
X74937519Y-94101342D02*
X75080376Y-94196580D01*
X75080376Y-94196580D02*
X75175614Y-94291818D01*
X75175614Y-94291818D02*
X75223233Y-94387056D01*
X74937519Y-93196580D02*
X74937519Y-93101342D01*
X74937519Y-93101342D02*
X74985138Y-93006104D01*
X74985138Y-93006104D02*
X75032757Y-92958485D01*
X75032757Y-92958485D02*
X75127995Y-92910866D01*
X75127995Y-92910866D02*
X75318471Y-92863247D01*
X75318471Y-92863247D02*
X75556566Y-92863247D01*
X75556566Y-92863247D02*
X75747042Y-92910866D01*
X75747042Y-92910866D02*
X75842280Y-92958485D01*
X75842280Y-92958485D02*
X75889900Y-93006104D01*
X75889900Y-93006104D02*
X75937519Y-93101342D01*
X75937519Y-93101342D02*
X75937519Y-93196580D01*
X75937519Y-93196580D02*
X75889900Y-93291818D01*
X75889900Y-93291818D02*
X75842280Y-93339437D01*
X75842280Y-93339437D02*
X75747042Y-93387056D01*
X75747042Y-93387056D02*
X75556566Y-93434675D01*
X75556566Y-93434675D02*
X75318471Y-93434675D01*
X75318471Y-93434675D02*
X75127995Y-93387056D01*
X75127995Y-93387056D02*
X75032757Y-93339437D01*
X75032757Y-93339437D02*
X74985138Y-93291818D01*
X74985138Y-93291818D02*
X74937519Y-93196580D01*
X74937519Y-92244199D02*
X74937519Y-92148961D01*
X74937519Y-92148961D02*
X74985138Y-92053723D01*
X74985138Y-92053723D02*
X75032757Y-92006104D01*
X75032757Y-92006104D02*
X75127995Y-91958485D01*
X75127995Y-91958485D02*
X75318471Y-91910866D01*
X75318471Y-91910866D02*
X75556566Y-91910866D01*
X75556566Y-91910866D02*
X75747042Y-91958485D01*
X75747042Y-91958485D02*
X75842280Y-92006104D01*
X75842280Y-92006104D02*
X75889900Y-92053723D01*
X75889900Y-92053723D02*
X75937519Y-92148961D01*
X75937519Y-92148961D02*
X75937519Y-92244199D01*
X75937519Y-92244199D02*
X75889900Y-92339437D01*
X75889900Y-92339437D02*
X75842280Y-92387056D01*
X75842280Y-92387056D02*
X75747042Y-92434675D01*
X75747042Y-92434675D02*
X75556566Y-92482294D01*
X75556566Y-92482294D02*
X75318471Y-92482294D01*
X75318471Y-92482294D02*
X75127995Y-92434675D01*
X75127995Y-92434675D02*
X75032757Y-92387056D01*
X75032757Y-92387056D02*
X74985138Y-92339437D01*
X74985138Y-92339437D02*
X74937519Y-92244199D01*
X75937519Y-91482294D02*
X74937519Y-91482294D01*
X75556566Y-91387056D02*
X75937519Y-91101342D01*
X75270852Y-91101342D02*
X75651804Y-91482294D01*
X78919580Y-49416666D02*
X78967200Y-49464285D01*
X78967200Y-49464285D02*
X79014819Y-49607142D01*
X79014819Y-49607142D02*
X79014819Y-49702380D01*
X79014819Y-49702380D02*
X78967200Y-49845237D01*
X78967200Y-49845237D02*
X78871961Y-49940475D01*
X78871961Y-49940475D02*
X78776723Y-49988094D01*
X78776723Y-49988094D02*
X78586247Y-50035713D01*
X78586247Y-50035713D02*
X78443390Y-50035713D01*
X78443390Y-50035713D02*
X78252914Y-49988094D01*
X78252914Y-49988094D02*
X78157676Y-49940475D01*
X78157676Y-49940475D02*
X78062438Y-49845237D01*
X78062438Y-49845237D02*
X78014819Y-49702380D01*
X78014819Y-49702380D02*
X78014819Y-49607142D01*
X78014819Y-49607142D02*
X78062438Y-49464285D01*
X78062438Y-49464285D02*
X78110057Y-49416666D01*
X78110057Y-49035713D02*
X78062438Y-48988094D01*
X78062438Y-48988094D02*
X78014819Y-48892856D01*
X78014819Y-48892856D02*
X78014819Y-48654761D01*
X78014819Y-48654761D02*
X78062438Y-48559523D01*
X78062438Y-48559523D02*
X78110057Y-48511904D01*
X78110057Y-48511904D02*
X78205295Y-48464285D01*
X78205295Y-48464285D02*
X78300533Y-48464285D01*
X78300533Y-48464285D02*
X78443390Y-48511904D01*
X78443390Y-48511904D02*
X79014819Y-49083332D01*
X79014819Y-49083332D02*
X79014819Y-48464285D01*
D14*
X81325662Y-50064286D02*
X81325662Y-50498572D01*
X81325662Y-50281429D02*
X80565662Y-50281429D01*
X80565662Y-50281429D02*
X80674233Y-50353810D01*
X80674233Y-50353810D02*
X80746614Y-50426191D01*
X80746614Y-50426191D02*
X80782805Y-50498572D01*
X80565662Y-49593809D02*
X80565662Y-49521428D01*
X80565662Y-49521428D02*
X80601852Y-49449047D01*
X80601852Y-49449047D02*
X80638043Y-49412857D01*
X80638043Y-49412857D02*
X80710424Y-49376666D01*
X80710424Y-49376666D02*
X80855186Y-49340476D01*
X80855186Y-49340476D02*
X81036138Y-49340476D01*
X81036138Y-49340476D02*
X81180900Y-49376666D01*
X81180900Y-49376666D02*
X81253281Y-49412857D01*
X81253281Y-49412857D02*
X81289472Y-49449047D01*
X81289472Y-49449047D02*
X81325662Y-49521428D01*
X81325662Y-49521428D02*
X81325662Y-49593809D01*
X81325662Y-49593809D02*
X81289472Y-49666190D01*
X81289472Y-49666190D02*
X81253281Y-49702381D01*
X81253281Y-49702381D02*
X81180900Y-49738571D01*
X81180900Y-49738571D02*
X81036138Y-49774762D01*
X81036138Y-49774762D02*
X80855186Y-49774762D01*
X80855186Y-49774762D02*
X80710424Y-49738571D01*
X80710424Y-49738571D02*
X80638043Y-49702381D01*
X80638043Y-49702381D02*
X80601852Y-49666190D01*
X80601852Y-49666190D02*
X80565662Y-49593809D01*
X80818995Y-49014761D02*
X81325662Y-49014761D01*
X80891376Y-49014761D02*
X80855186Y-48978571D01*
X80855186Y-48978571D02*
X80818995Y-48906190D01*
X80818995Y-48906190D02*
X80818995Y-48797618D01*
X80818995Y-48797618D02*
X80855186Y-48725237D01*
X80855186Y-48725237D02*
X80927567Y-48689047D01*
X80927567Y-48689047D02*
X81325662Y-48689047D01*
X80927567Y-48073809D02*
X80927567Y-48327142D01*
X81325662Y-48327142D02*
X80565662Y-48327142D01*
X80565662Y-48327142D02*
X80565662Y-47965237D01*
D13*
X108919580Y-49416666D02*
X108967200Y-49464285D01*
X108967200Y-49464285D02*
X109014819Y-49607142D01*
X109014819Y-49607142D02*
X109014819Y-49702380D01*
X109014819Y-49702380D02*
X108967200Y-49845237D01*
X108967200Y-49845237D02*
X108871961Y-49940475D01*
X108871961Y-49940475D02*
X108776723Y-49988094D01*
X108776723Y-49988094D02*
X108586247Y-50035713D01*
X108586247Y-50035713D02*
X108443390Y-50035713D01*
X108443390Y-50035713D02*
X108252914Y-49988094D01*
X108252914Y-49988094D02*
X108157676Y-49940475D01*
X108157676Y-49940475D02*
X108062438Y-49845237D01*
X108062438Y-49845237D02*
X108014819Y-49702380D01*
X108014819Y-49702380D02*
X108014819Y-49607142D01*
X108014819Y-49607142D02*
X108062438Y-49464285D01*
X108062438Y-49464285D02*
X108110057Y-49416666D01*
X108014819Y-48511904D02*
X108014819Y-48988094D01*
X108014819Y-48988094D02*
X108491009Y-49035713D01*
X108491009Y-49035713D02*
X108443390Y-48988094D01*
X108443390Y-48988094D02*
X108395771Y-48892856D01*
X108395771Y-48892856D02*
X108395771Y-48654761D01*
X108395771Y-48654761D02*
X108443390Y-48559523D01*
X108443390Y-48559523D02*
X108491009Y-48511904D01*
X108491009Y-48511904D02*
X108586247Y-48464285D01*
X108586247Y-48464285D02*
X108824342Y-48464285D01*
X108824342Y-48464285D02*
X108919580Y-48511904D01*
X108919580Y-48511904D02*
X108967200Y-48559523D01*
X108967200Y-48559523D02*
X109014819Y-48654761D01*
X109014819Y-48654761D02*
X109014819Y-48892856D01*
X109014819Y-48892856D02*
X108967200Y-48988094D01*
X108967200Y-48988094D02*
X108919580Y-49035713D01*
D14*
X111325662Y-50064286D02*
X111325662Y-50498572D01*
X111325662Y-50281429D02*
X110565662Y-50281429D01*
X110565662Y-50281429D02*
X110674233Y-50353810D01*
X110674233Y-50353810D02*
X110746614Y-50426191D01*
X110746614Y-50426191D02*
X110782805Y-50498572D01*
X110565662Y-49593809D02*
X110565662Y-49521428D01*
X110565662Y-49521428D02*
X110601852Y-49449047D01*
X110601852Y-49449047D02*
X110638043Y-49412857D01*
X110638043Y-49412857D02*
X110710424Y-49376666D01*
X110710424Y-49376666D02*
X110855186Y-49340476D01*
X110855186Y-49340476D02*
X111036138Y-49340476D01*
X111036138Y-49340476D02*
X111180900Y-49376666D01*
X111180900Y-49376666D02*
X111253281Y-49412857D01*
X111253281Y-49412857D02*
X111289472Y-49449047D01*
X111289472Y-49449047D02*
X111325662Y-49521428D01*
X111325662Y-49521428D02*
X111325662Y-49593809D01*
X111325662Y-49593809D02*
X111289472Y-49666190D01*
X111289472Y-49666190D02*
X111253281Y-49702381D01*
X111253281Y-49702381D02*
X111180900Y-49738571D01*
X111180900Y-49738571D02*
X111036138Y-49774762D01*
X111036138Y-49774762D02*
X110855186Y-49774762D01*
X110855186Y-49774762D02*
X110710424Y-49738571D01*
X110710424Y-49738571D02*
X110638043Y-49702381D01*
X110638043Y-49702381D02*
X110601852Y-49666190D01*
X110601852Y-49666190D02*
X110565662Y-49593809D01*
X110818995Y-49014761D02*
X111325662Y-49014761D01*
X110891376Y-49014761D02*
X110855186Y-48978571D01*
X110855186Y-48978571D02*
X110818995Y-48906190D01*
X110818995Y-48906190D02*
X110818995Y-48797618D01*
X110818995Y-48797618D02*
X110855186Y-48725237D01*
X110855186Y-48725237D02*
X110927567Y-48689047D01*
X110927567Y-48689047D02*
X111325662Y-48689047D01*
X110927567Y-48073809D02*
X110927567Y-48327142D01*
X111325662Y-48327142D02*
X110565662Y-48327142D01*
X110565662Y-48327142D02*
X110565662Y-47965237D01*
D13*
X113937519Y-93839438D02*
X113461328Y-94172771D01*
X113937519Y-94410866D02*
X112937519Y-94410866D01*
X112937519Y-94410866D02*
X112937519Y-94029914D01*
X112937519Y-94029914D02*
X112985138Y-93934676D01*
X112985138Y-93934676D02*
X113032757Y-93887057D01*
X113032757Y-93887057D02*
X113127995Y-93839438D01*
X113127995Y-93839438D02*
X113270852Y-93839438D01*
X113270852Y-93839438D02*
X113366090Y-93887057D01*
X113366090Y-93887057D02*
X113413709Y-93934676D01*
X113413709Y-93934676D02*
X113461328Y-94029914D01*
X113461328Y-94029914D02*
X113461328Y-94410866D01*
X112937519Y-93553723D02*
X113937519Y-93220390D01*
X113937519Y-93220390D02*
X112937519Y-92887057D01*
X113366090Y-92410866D02*
X113318471Y-92506104D01*
X113318471Y-92506104D02*
X113270852Y-92553723D01*
X113270852Y-92553723D02*
X113175614Y-92601342D01*
X113175614Y-92601342D02*
X113127995Y-92601342D01*
X113127995Y-92601342D02*
X113032757Y-92553723D01*
X113032757Y-92553723D02*
X112985138Y-92506104D01*
X112985138Y-92506104D02*
X112937519Y-92410866D01*
X112937519Y-92410866D02*
X112937519Y-92220390D01*
X112937519Y-92220390D02*
X112985138Y-92125152D01*
X112985138Y-92125152D02*
X113032757Y-92077533D01*
X113032757Y-92077533D02*
X113127995Y-92029914D01*
X113127995Y-92029914D02*
X113175614Y-92029914D01*
X113175614Y-92029914D02*
X113270852Y-92077533D01*
X113270852Y-92077533D02*
X113318471Y-92125152D01*
X113318471Y-92125152D02*
X113366090Y-92220390D01*
X113366090Y-92220390D02*
X113366090Y-92410866D01*
X113366090Y-92410866D02*
X113413709Y-92506104D01*
X113413709Y-92506104D02*
X113461328Y-92553723D01*
X113461328Y-92553723D02*
X113556566Y-92601342D01*
X113556566Y-92601342D02*
X113747042Y-92601342D01*
X113747042Y-92601342D02*
X113842280Y-92553723D01*
X113842280Y-92553723D02*
X113889900Y-92506104D01*
X113889900Y-92506104D02*
X113937519Y-92410866D01*
X113937519Y-92410866D02*
X113937519Y-92220390D01*
X113937519Y-92220390D02*
X113889900Y-92125152D01*
X113889900Y-92125152D02*
X113842280Y-92077533D01*
X113842280Y-92077533D02*
X113747042Y-92029914D01*
X113747042Y-92029914D02*
X113556566Y-92029914D01*
X113556566Y-92029914D02*
X113461328Y-92077533D01*
X113461328Y-92077533D02*
X113413709Y-92125152D01*
X113413709Y-92125152D02*
X113366090Y-92220390D01*
X98413709Y-95006104D02*
X98461328Y-94863247D01*
X98461328Y-94863247D02*
X98508947Y-94815628D01*
X98508947Y-94815628D02*
X98604185Y-94768009D01*
X98604185Y-94768009D02*
X98747042Y-94768009D01*
X98747042Y-94768009D02*
X98842280Y-94815628D01*
X98842280Y-94815628D02*
X98889900Y-94863247D01*
X98889900Y-94863247D02*
X98937519Y-94958485D01*
X98937519Y-94958485D02*
X98937519Y-95339437D01*
X98937519Y-95339437D02*
X97937519Y-95339437D01*
X97937519Y-95339437D02*
X97937519Y-95006104D01*
X97937519Y-95006104D02*
X97985138Y-94910866D01*
X97985138Y-94910866D02*
X98032757Y-94863247D01*
X98032757Y-94863247D02*
X98127995Y-94815628D01*
X98127995Y-94815628D02*
X98223233Y-94815628D01*
X98223233Y-94815628D02*
X98318471Y-94863247D01*
X98318471Y-94863247D02*
X98366090Y-94910866D01*
X98366090Y-94910866D02*
X98413709Y-95006104D01*
X98413709Y-95006104D02*
X98413709Y-95339437D01*
X98937519Y-93815628D02*
X98937519Y-94387056D01*
X98937519Y-94101342D02*
X97937519Y-94101342D01*
X97937519Y-94101342D02*
X98080376Y-94196580D01*
X98080376Y-94196580D02*
X98175614Y-94291818D01*
X98175614Y-94291818D02*
X98223233Y-94387056D01*
X97937519Y-93196580D02*
X97937519Y-93101342D01*
X97937519Y-93101342D02*
X97985138Y-93006104D01*
X97985138Y-93006104D02*
X98032757Y-92958485D01*
X98032757Y-92958485D02*
X98127995Y-92910866D01*
X98127995Y-92910866D02*
X98318471Y-92863247D01*
X98318471Y-92863247D02*
X98556566Y-92863247D01*
X98556566Y-92863247D02*
X98747042Y-92910866D01*
X98747042Y-92910866D02*
X98842280Y-92958485D01*
X98842280Y-92958485D02*
X98889900Y-93006104D01*
X98889900Y-93006104D02*
X98937519Y-93101342D01*
X98937519Y-93101342D02*
X98937519Y-93196580D01*
X98937519Y-93196580D02*
X98889900Y-93291818D01*
X98889900Y-93291818D02*
X98842280Y-93339437D01*
X98842280Y-93339437D02*
X98747042Y-93387056D01*
X98747042Y-93387056D02*
X98556566Y-93434675D01*
X98556566Y-93434675D02*
X98318471Y-93434675D01*
X98318471Y-93434675D02*
X98127995Y-93387056D01*
X98127995Y-93387056D02*
X98032757Y-93339437D01*
X98032757Y-93339437D02*
X97985138Y-93291818D01*
X97985138Y-93291818D02*
X97937519Y-93196580D01*
X97937519Y-92244199D02*
X97937519Y-92148961D01*
X97937519Y-92148961D02*
X97985138Y-92053723D01*
X97985138Y-92053723D02*
X98032757Y-92006104D01*
X98032757Y-92006104D02*
X98127995Y-91958485D01*
X98127995Y-91958485D02*
X98318471Y-91910866D01*
X98318471Y-91910866D02*
X98556566Y-91910866D01*
X98556566Y-91910866D02*
X98747042Y-91958485D01*
X98747042Y-91958485D02*
X98842280Y-92006104D01*
X98842280Y-92006104D02*
X98889900Y-92053723D01*
X98889900Y-92053723D02*
X98937519Y-92148961D01*
X98937519Y-92148961D02*
X98937519Y-92244199D01*
X98937519Y-92244199D02*
X98889900Y-92339437D01*
X98889900Y-92339437D02*
X98842280Y-92387056D01*
X98842280Y-92387056D02*
X98747042Y-92434675D01*
X98747042Y-92434675D02*
X98556566Y-92482294D01*
X98556566Y-92482294D02*
X98318471Y-92482294D01*
X98318471Y-92482294D02*
X98127995Y-92434675D01*
X98127995Y-92434675D02*
X98032757Y-92387056D01*
X98032757Y-92387056D02*
X97985138Y-92339437D01*
X97985138Y-92339437D02*
X97937519Y-92244199D01*
X98937519Y-91482294D02*
X97937519Y-91482294D01*
X98556566Y-91387056D02*
X98937519Y-91101342D01*
X98270852Y-91101342D02*
X98651804Y-91482294D01*
D12*
X121810667Y-48462095D02*
X121472000Y-47978286D01*
X121230095Y-48462095D02*
X121230095Y-47446095D01*
X121230095Y-47446095D02*
X121617143Y-47446095D01*
X121617143Y-47446095D02*
X121713905Y-47494476D01*
X121713905Y-47494476D02*
X121762286Y-47542857D01*
X121762286Y-47542857D02*
X121810667Y-47639619D01*
X121810667Y-47639619D02*
X121810667Y-47784762D01*
X121810667Y-47784762D02*
X121762286Y-47881524D01*
X121762286Y-47881524D02*
X121713905Y-47929905D01*
X121713905Y-47929905D02*
X121617143Y-47978286D01*
X121617143Y-47978286D02*
X121230095Y-47978286D01*
X122197714Y-47542857D02*
X122246095Y-47494476D01*
X122246095Y-47494476D02*
X122342857Y-47446095D01*
X122342857Y-47446095D02*
X122584762Y-47446095D01*
X122584762Y-47446095D02*
X122681524Y-47494476D01*
X122681524Y-47494476D02*
X122729905Y-47542857D01*
X122729905Y-47542857D02*
X122778286Y-47639619D01*
X122778286Y-47639619D02*
X122778286Y-47736381D01*
X122778286Y-47736381D02*
X122729905Y-47881524D01*
X122729905Y-47881524D02*
X122149333Y-48462095D01*
X122149333Y-48462095D02*
X122778286Y-48462095D01*
X119242953Y-50172095D02*
X118662381Y-50172095D01*
X118952667Y-50172095D02*
X118952667Y-49156095D01*
X118952667Y-49156095D02*
X118855905Y-49301238D01*
X118855905Y-49301238D02*
X118759143Y-49398000D01*
X118759143Y-49398000D02*
X118662381Y-49446381D01*
X119871905Y-49156095D02*
X119968667Y-49156095D01*
X119968667Y-49156095D02*
X120065429Y-49204476D01*
X120065429Y-49204476D02*
X120113810Y-49252857D01*
X120113810Y-49252857D02*
X120162191Y-49349619D01*
X120162191Y-49349619D02*
X120210572Y-49543143D01*
X120210572Y-49543143D02*
X120210572Y-49785048D01*
X120210572Y-49785048D02*
X120162191Y-49978572D01*
X120162191Y-49978572D02*
X120113810Y-50075334D01*
X120113810Y-50075334D02*
X120065429Y-50123715D01*
X120065429Y-50123715D02*
X119968667Y-50172095D01*
X119968667Y-50172095D02*
X119871905Y-50172095D01*
X119871905Y-50172095D02*
X119775143Y-50123715D01*
X119775143Y-50123715D02*
X119726762Y-50075334D01*
X119726762Y-50075334D02*
X119678381Y-49978572D01*
X119678381Y-49978572D02*
X119630000Y-49785048D01*
X119630000Y-49785048D02*
X119630000Y-49543143D01*
X119630000Y-49543143D02*
X119678381Y-49349619D01*
X119678381Y-49349619D02*
X119726762Y-49252857D01*
X119726762Y-49252857D02*
X119775143Y-49204476D01*
X119775143Y-49204476D02*
X119871905Y-49156095D01*
X120646000Y-50172095D02*
X120646000Y-49156095D01*
X120742762Y-49785048D02*
X121033048Y-50172095D01*
X121033048Y-49494762D02*
X120646000Y-49881810D01*
X121226572Y-50268857D02*
X122000667Y-50268857D01*
X122436095Y-49156095D02*
X122532857Y-49156095D01*
X122532857Y-49156095D02*
X122629619Y-49204476D01*
X122629619Y-49204476D02*
X122678000Y-49252857D01*
X122678000Y-49252857D02*
X122726381Y-49349619D01*
X122726381Y-49349619D02*
X122774762Y-49543143D01*
X122774762Y-49543143D02*
X122774762Y-49785048D01*
X122774762Y-49785048D02*
X122726381Y-49978572D01*
X122726381Y-49978572D02*
X122678000Y-50075334D01*
X122678000Y-50075334D02*
X122629619Y-50123715D01*
X122629619Y-50123715D02*
X122532857Y-50172095D01*
X122532857Y-50172095D02*
X122436095Y-50172095D01*
X122436095Y-50172095D02*
X122339333Y-50123715D01*
X122339333Y-50123715D02*
X122290952Y-50075334D01*
X122290952Y-50075334D02*
X122242571Y-49978572D01*
X122242571Y-49978572D02*
X122194190Y-49785048D01*
X122194190Y-49785048D02*
X122194190Y-49543143D01*
X122194190Y-49543143D02*
X122242571Y-49349619D01*
X122242571Y-49349619D02*
X122290952Y-49252857D01*
X122290952Y-49252857D02*
X122339333Y-49204476D01*
X122339333Y-49204476D02*
X122436095Y-49156095D01*
X123645619Y-49494762D02*
X123645619Y-50172095D01*
X123403714Y-49107715D02*
X123161809Y-49833429D01*
X123161809Y-49833429D02*
X123790762Y-49833429D01*
X124371333Y-49156095D02*
X124468095Y-49156095D01*
X124468095Y-49156095D02*
X124564857Y-49204476D01*
X124564857Y-49204476D02*
X124613238Y-49252857D01*
X124613238Y-49252857D02*
X124661619Y-49349619D01*
X124661619Y-49349619D02*
X124710000Y-49543143D01*
X124710000Y-49543143D02*
X124710000Y-49785048D01*
X124710000Y-49785048D02*
X124661619Y-49978572D01*
X124661619Y-49978572D02*
X124613238Y-50075334D01*
X124613238Y-50075334D02*
X124564857Y-50123715D01*
X124564857Y-50123715D02*
X124468095Y-50172095D01*
X124468095Y-50172095D02*
X124371333Y-50172095D01*
X124371333Y-50172095D02*
X124274571Y-50123715D01*
X124274571Y-50123715D02*
X124226190Y-50075334D01*
X124226190Y-50075334D02*
X124177809Y-49978572D01*
X124177809Y-49978572D02*
X124129428Y-49785048D01*
X124129428Y-49785048D02*
X124129428Y-49543143D01*
X124129428Y-49543143D02*
X124177809Y-49349619D01*
X124177809Y-49349619D02*
X124226190Y-49252857D01*
X124226190Y-49252857D02*
X124274571Y-49204476D01*
X124274571Y-49204476D02*
X124371333Y-49156095D01*
X125097047Y-49252857D02*
X125145428Y-49204476D01*
X125145428Y-49204476D02*
X125242190Y-49156095D01*
X125242190Y-49156095D02*
X125484095Y-49156095D01*
X125484095Y-49156095D02*
X125580857Y-49204476D01*
X125580857Y-49204476D02*
X125629238Y-49252857D01*
X125629238Y-49252857D02*
X125677619Y-49349619D01*
X125677619Y-49349619D02*
X125677619Y-49446381D01*
X125677619Y-49446381D02*
X125629238Y-49591524D01*
X125629238Y-49591524D02*
X125048666Y-50172095D01*
X125048666Y-50172095D02*
X125677619Y-50172095D01*
D13*
X105859580Y-33892857D02*
X105907200Y-33940476D01*
X105907200Y-33940476D02*
X105954819Y-34083333D01*
X105954819Y-34083333D02*
X105954819Y-34178571D01*
X105954819Y-34178571D02*
X105907200Y-34321428D01*
X105907200Y-34321428D02*
X105811961Y-34416666D01*
X105811961Y-34416666D02*
X105716723Y-34464285D01*
X105716723Y-34464285D02*
X105526247Y-34511904D01*
X105526247Y-34511904D02*
X105383390Y-34511904D01*
X105383390Y-34511904D02*
X105192914Y-34464285D01*
X105192914Y-34464285D02*
X105097676Y-34416666D01*
X105097676Y-34416666D02*
X105002438Y-34321428D01*
X105002438Y-34321428D02*
X104954819Y-34178571D01*
X104954819Y-34178571D02*
X104954819Y-34083333D01*
X104954819Y-34083333D02*
X105002438Y-33940476D01*
X105002438Y-33940476D02*
X105050057Y-33892857D01*
X105954819Y-32940476D02*
X105954819Y-33511904D01*
X105954819Y-33226190D02*
X104954819Y-33226190D01*
X104954819Y-33226190D02*
X105097676Y-33321428D01*
X105097676Y-33321428D02*
X105192914Y-33416666D01*
X105192914Y-33416666D02*
X105240533Y-33511904D01*
X105050057Y-32559523D02*
X105002438Y-32511904D01*
X105002438Y-32511904D02*
X104954819Y-32416666D01*
X104954819Y-32416666D02*
X104954819Y-32178571D01*
X104954819Y-32178571D02*
X105002438Y-32083333D01*
X105002438Y-32083333D02*
X105050057Y-32035714D01*
X105050057Y-32035714D02*
X105145295Y-31988095D01*
X105145295Y-31988095D02*
X105240533Y-31988095D01*
X105240533Y-31988095D02*
X105383390Y-32035714D01*
X105383390Y-32035714D02*
X105954819Y-32607142D01*
X105954819Y-32607142D02*
X105954819Y-31988095D01*
X103454819Y-34321428D02*
X103454819Y-34892856D01*
X103454819Y-34607142D02*
X102454819Y-34607142D01*
X102454819Y-34607142D02*
X102597676Y-34702380D01*
X102597676Y-34702380D02*
X102692914Y-34797618D01*
X102692914Y-34797618D02*
X102740533Y-34892856D01*
X102454819Y-33702380D02*
X102454819Y-33607142D01*
X102454819Y-33607142D02*
X102502438Y-33511904D01*
X102502438Y-33511904D02*
X102550057Y-33464285D01*
X102550057Y-33464285D02*
X102645295Y-33416666D01*
X102645295Y-33416666D02*
X102835771Y-33369047D01*
X102835771Y-33369047D02*
X103073866Y-33369047D01*
X103073866Y-33369047D02*
X103264342Y-33416666D01*
X103264342Y-33416666D02*
X103359580Y-33464285D01*
X103359580Y-33464285D02*
X103407200Y-33511904D01*
X103407200Y-33511904D02*
X103454819Y-33607142D01*
X103454819Y-33607142D02*
X103454819Y-33702380D01*
X103454819Y-33702380D02*
X103407200Y-33797618D01*
X103407200Y-33797618D02*
X103359580Y-33845237D01*
X103359580Y-33845237D02*
X103264342Y-33892856D01*
X103264342Y-33892856D02*
X103073866Y-33940475D01*
X103073866Y-33940475D02*
X102835771Y-33940475D01*
X102835771Y-33940475D02*
X102645295Y-33892856D01*
X102645295Y-33892856D02*
X102550057Y-33845237D01*
X102550057Y-33845237D02*
X102502438Y-33797618D01*
X102502438Y-33797618D02*
X102454819Y-33702380D01*
X102788152Y-32511904D02*
X103454819Y-32511904D01*
X102788152Y-32940475D02*
X103311961Y-32940475D01*
X103311961Y-32940475D02*
X103407200Y-32892856D01*
X103407200Y-32892856D02*
X103454819Y-32797618D01*
X103454819Y-32797618D02*
X103454819Y-32654761D01*
X103454819Y-32654761D02*
X103407200Y-32559523D01*
X103407200Y-32559523D02*
X103359580Y-32511904D01*
X102931009Y-31702380D02*
X102931009Y-32035713D01*
X103454819Y-32035713D02*
X102454819Y-32035713D01*
X102454819Y-32035713D02*
X102454819Y-31559523D01*
X44937519Y-93839438D02*
X44461328Y-94172771D01*
X44937519Y-94410866D02*
X43937519Y-94410866D01*
X43937519Y-94410866D02*
X43937519Y-94029914D01*
X43937519Y-94029914D02*
X43985138Y-93934676D01*
X43985138Y-93934676D02*
X44032757Y-93887057D01*
X44032757Y-93887057D02*
X44127995Y-93839438D01*
X44127995Y-93839438D02*
X44270852Y-93839438D01*
X44270852Y-93839438D02*
X44366090Y-93887057D01*
X44366090Y-93887057D02*
X44413709Y-93934676D01*
X44413709Y-93934676D02*
X44461328Y-94029914D01*
X44461328Y-94029914D02*
X44461328Y-94410866D01*
X43937519Y-93553723D02*
X44937519Y-93220390D01*
X44937519Y-93220390D02*
X43937519Y-92887057D01*
X43937519Y-92077533D02*
X43937519Y-92553723D01*
X43937519Y-92553723D02*
X44413709Y-92601342D01*
X44413709Y-92601342D02*
X44366090Y-92553723D01*
X44366090Y-92553723D02*
X44318471Y-92458485D01*
X44318471Y-92458485D02*
X44318471Y-92220390D01*
X44318471Y-92220390D02*
X44366090Y-92125152D01*
X44366090Y-92125152D02*
X44413709Y-92077533D01*
X44413709Y-92077533D02*
X44508947Y-92029914D01*
X44508947Y-92029914D02*
X44747042Y-92029914D01*
X44747042Y-92029914D02*
X44842280Y-92077533D01*
X44842280Y-92077533D02*
X44889900Y-92125152D01*
X44889900Y-92125152D02*
X44937519Y-92220390D01*
X44937519Y-92220390D02*
X44937519Y-92458485D01*
X44937519Y-92458485D02*
X44889900Y-92553723D01*
X44889900Y-92553723D02*
X44842280Y-92601342D01*
X29413709Y-95006104D02*
X29461328Y-94863247D01*
X29461328Y-94863247D02*
X29508947Y-94815628D01*
X29508947Y-94815628D02*
X29604185Y-94768009D01*
X29604185Y-94768009D02*
X29747042Y-94768009D01*
X29747042Y-94768009D02*
X29842280Y-94815628D01*
X29842280Y-94815628D02*
X29889900Y-94863247D01*
X29889900Y-94863247D02*
X29937519Y-94958485D01*
X29937519Y-94958485D02*
X29937519Y-95339437D01*
X29937519Y-95339437D02*
X28937519Y-95339437D01*
X28937519Y-95339437D02*
X28937519Y-95006104D01*
X28937519Y-95006104D02*
X28985138Y-94910866D01*
X28985138Y-94910866D02*
X29032757Y-94863247D01*
X29032757Y-94863247D02*
X29127995Y-94815628D01*
X29127995Y-94815628D02*
X29223233Y-94815628D01*
X29223233Y-94815628D02*
X29318471Y-94863247D01*
X29318471Y-94863247D02*
X29366090Y-94910866D01*
X29366090Y-94910866D02*
X29413709Y-95006104D01*
X29413709Y-95006104D02*
X29413709Y-95339437D01*
X29937519Y-93815628D02*
X29937519Y-94387056D01*
X29937519Y-94101342D02*
X28937519Y-94101342D01*
X28937519Y-94101342D02*
X29080376Y-94196580D01*
X29080376Y-94196580D02*
X29175614Y-94291818D01*
X29175614Y-94291818D02*
X29223233Y-94387056D01*
X28937519Y-93196580D02*
X28937519Y-93101342D01*
X28937519Y-93101342D02*
X28985138Y-93006104D01*
X28985138Y-93006104D02*
X29032757Y-92958485D01*
X29032757Y-92958485D02*
X29127995Y-92910866D01*
X29127995Y-92910866D02*
X29318471Y-92863247D01*
X29318471Y-92863247D02*
X29556566Y-92863247D01*
X29556566Y-92863247D02*
X29747042Y-92910866D01*
X29747042Y-92910866D02*
X29842280Y-92958485D01*
X29842280Y-92958485D02*
X29889900Y-93006104D01*
X29889900Y-93006104D02*
X29937519Y-93101342D01*
X29937519Y-93101342D02*
X29937519Y-93196580D01*
X29937519Y-93196580D02*
X29889900Y-93291818D01*
X29889900Y-93291818D02*
X29842280Y-93339437D01*
X29842280Y-93339437D02*
X29747042Y-93387056D01*
X29747042Y-93387056D02*
X29556566Y-93434675D01*
X29556566Y-93434675D02*
X29318471Y-93434675D01*
X29318471Y-93434675D02*
X29127995Y-93387056D01*
X29127995Y-93387056D02*
X29032757Y-93339437D01*
X29032757Y-93339437D02*
X28985138Y-93291818D01*
X28985138Y-93291818D02*
X28937519Y-93196580D01*
X28937519Y-92244199D02*
X28937519Y-92148961D01*
X28937519Y-92148961D02*
X28985138Y-92053723D01*
X28985138Y-92053723D02*
X29032757Y-92006104D01*
X29032757Y-92006104D02*
X29127995Y-91958485D01*
X29127995Y-91958485D02*
X29318471Y-91910866D01*
X29318471Y-91910866D02*
X29556566Y-91910866D01*
X29556566Y-91910866D02*
X29747042Y-91958485D01*
X29747042Y-91958485D02*
X29842280Y-92006104D01*
X29842280Y-92006104D02*
X29889900Y-92053723D01*
X29889900Y-92053723D02*
X29937519Y-92148961D01*
X29937519Y-92148961D02*
X29937519Y-92244199D01*
X29937519Y-92244199D02*
X29889900Y-92339437D01*
X29889900Y-92339437D02*
X29842280Y-92387056D01*
X29842280Y-92387056D02*
X29747042Y-92434675D01*
X29747042Y-92434675D02*
X29556566Y-92482294D01*
X29556566Y-92482294D02*
X29318471Y-92482294D01*
X29318471Y-92482294D02*
X29127995Y-92434675D01*
X29127995Y-92434675D02*
X29032757Y-92387056D01*
X29032757Y-92387056D02*
X28985138Y-92339437D01*
X28985138Y-92339437D02*
X28937519Y-92244199D01*
X29937519Y-91482294D02*
X28937519Y-91482294D01*
X29556566Y-91387056D02*
X29937519Y-91101342D01*
X29270852Y-91101342D02*
X29651804Y-91482294D01*
X44937519Y-69879438D02*
X44461328Y-70212771D01*
X44937519Y-70450866D02*
X43937519Y-70450866D01*
X43937519Y-70450866D02*
X43937519Y-70069914D01*
X43937519Y-70069914D02*
X43985138Y-69974676D01*
X43985138Y-69974676D02*
X44032757Y-69927057D01*
X44032757Y-69927057D02*
X44127995Y-69879438D01*
X44127995Y-69879438D02*
X44270852Y-69879438D01*
X44270852Y-69879438D02*
X44366090Y-69927057D01*
X44366090Y-69927057D02*
X44413709Y-69974676D01*
X44413709Y-69974676D02*
X44461328Y-70069914D01*
X44461328Y-70069914D02*
X44461328Y-70450866D01*
X43937519Y-69593723D02*
X44937519Y-69260390D01*
X44937519Y-69260390D02*
X43937519Y-68927057D01*
X44937519Y-68069914D02*
X44937519Y-68641342D01*
X44937519Y-68355628D02*
X43937519Y-68355628D01*
X43937519Y-68355628D02*
X44080376Y-68450866D01*
X44080376Y-68450866D02*
X44175614Y-68546104D01*
X44175614Y-68546104D02*
X44223233Y-68641342D01*
X29413709Y-71046104D02*
X29461328Y-70903247D01*
X29461328Y-70903247D02*
X29508947Y-70855628D01*
X29508947Y-70855628D02*
X29604185Y-70808009D01*
X29604185Y-70808009D02*
X29747042Y-70808009D01*
X29747042Y-70808009D02*
X29842280Y-70855628D01*
X29842280Y-70855628D02*
X29889900Y-70903247D01*
X29889900Y-70903247D02*
X29937519Y-70998485D01*
X29937519Y-70998485D02*
X29937519Y-71379437D01*
X29937519Y-71379437D02*
X28937519Y-71379437D01*
X28937519Y-71379437D02*
X28937519Y-71046104D01*
X28937519Y-71046104D02*
X28985138Y-70950866D01*
X28985138Y-70950866D02*
X29032757Y-70903247D01*
X29032757Y-70903247D02*
X29127995Y-70855628D01*
X29127995Y-70855628D02*
X29223233Y-70855628D01*
X29223233Y-70855628D02*
X29318471Y-70903247D01*
X29318471Y-70903247D02*
X29366090Y-70950866D01*
X29366090Y-70950866D02*
X29413709Y-71046104D01*
X29413709Y-71046104D02*
X29413709Y-71379437D01*
X29937519Y-69855628D02*
X29937519Y-70427056D01*
X29937519Y-70141342D02*
X28937519Y-70141342D01*
X28937519Y-70141342D02*
X29080376Y-70236580D01*
X29080376Y-70236580D02*
X29175614Y-70331818D01*
X29175614Y-70331818D02*
X29223233Y-70427056D01*
X28937519Y-69236580D02*
X28937519Y-69141342D01*
X28937519Y-69141342D02*
X28985138Y-69046104D01*
X28985138Y-69046104D02*
X29032757Y-68998485D01*
X29032757Y-68998485D02*
X29127995Y-68950866D01*
X29127995Y-68950866D02*
X29318471Y-68903247D01*
X29318471Y-68903247D02*
X29556566Y-68903247D01*
X29556566Y-68903247D02*
X29747042Y-68950866D01*
X29747042Y-68950866D02*
X29842280Y-68998485D01*
X29842280Y-68998485D02*
X29889900Y-69046104D01*
X29889900Y-69046104D02*
X29937519Y-69141342D01*
X29937519Y-69141342D02*
X29937519Y-69236580D01*
X29937519Y-69236580D02*
X29889900Y-69331818D01*
X29889900Y-69331818D02*
X29842280Y-69379437D01*
X29842280Y-69379437D02*
X29747042Y-69427056D01*
X29747042Y-69427056D02*
X29556566Y-69474675D01*
X29556566Y-69474675D02*
X29318471Y-69474675D01*
X29318471Y-69474675D02*
X29127995Y-69427056D01*
X29127995Y-69427056D02*
X29032757Y-69379437D01*
X29032757Y-69379437D02*
X28985138Y-69331818D01*
X28985138Y-69331818D02*
X28937519Y-69236580D01*
X28937519Y-68284199D02*
X28937519Y-68188961D01*
X28937519Y-68188961D02*
X28985138Y-68093723D01*
X28985138Y-68093723D02*
X29032757Y-68046104D01*
X29032757Y-68046104D02*
X29127995Y-67998485D01*
X29127995Y-67998485D02*
X29318471Y-67950866D01*
X29318471Y-67950866D02*
X29556566Y-67950866D01*
X29556566Y-67950866D02*
X29747042Y-67998485D01*
X29747042Y-67998485D02*
X29842280Y-68046104D01*
X29842280Y-68046104D02*
X29889900Y-68093723D01*
X29889900Y-68093723D02*
X29937519Y-68188961D01*
X29937519Y-68188961D02*
X29937519Y-68284199D01*
X29937519Y-68284199D02*
X29889900Y-68379437D01*
X29889900Y-68379437D02*
X29842280Y-68427056D01*
X29842280Y-68427056D02*
X29747042Y-68474675D01*
X29747042Y-68474675D02*
X29556566Y-68522294D01*
X29556566Y-68522294D02*
X29318471Y-68522294D01*
X29318471Y-68522294D02*
X29127995Y-68474675D01*
X29127995Y-68474675D02*
X29032757Y-68427056D01*
X29032757Y-68427056D02*
X28985138Y-68379437D01*
X28985138Y-68379437D02*
X28937519Y-68284199D01*
X29937519Y-67522294D02*
X28937519Y-67522294D01*
X29556566Y-67427056D02*
X29937519Y-67141342D01*
X29270852Y-67141342D02*
X29651804Y-67522294D01*
D12*
X43332095Y-39979332D02*
X42848286Y-40317999D01*
X43332095Y-40559904D02*
X42316095Y-40559904D01*
X42316095Y-40559904D02*
X42316095Y-40172856D01*
X42316095Y-40172856D02*
X42364476Y-40076094D01*
X42364476Y-40076094D02*
X42412857Y-40027713D01*
X42412857Y-40027713D02*
X42509619Y-39979332D01*
X42509619Y-39979332D02*
X42654762Y-39979332D01*
X42654762Y-39979332D02*
X42751524Y-40027713D01*
X42751524Y-40027713D02*
X42799905Y-40076094D01*
X42799905Y-40076094D02*
X42848286Y-40172856D01*
X42848286Y-40172856D02*
X42848286Y-40559904D01*
X42316095Y-39108475D02*
X42316095Y-39301999D01*
X42316095Y-39301999D02*
X42364476Y-39398761D01*
X42364476Y-39398761D02*
X42412857Y-39447142D01*
X42412857Y-39447142D02*
X42558000Y-39543904D01*
X42558000Y-39543904D02*
X42751524Y-39592285D01*
X42751524Y-39592285D02*
X43138572Y-39592285D01*
X43138572Y-39592285D02*
X43235334Y-39543904D01*
X43235334Y-39543904D02*
X43283715Y-39495523D01*
X43283715Y-39495523D02*
X43332095Y-39398761D01*
X43332095Y-39398761D02*
X43332095Y-39205237D01*
X43332095Y-39205237D02*
X43283715Y-39108475D01*
X43283715Y-39108475D02*
X43235334Y-39060094D01*
X43235334Y-39060094D02*
X43138572Y-39011713D01*
X43138572Y-39011713D02*
X42896667Y-39011713D01*
X42896667Y-39011713D02*
X42799905Y-39060094D01*
X42799905Y-39060094D02*
X42751524Y-39108475D01*
X42751524Y-39108475D02*
X42703143Y-39205237D01*
X42703143Y-39205237D02*
X42703143Y-39398761D01*
X42703143Y-39398761D02*
X42751524Y-39495523D01*
X42751524Y-39495523D02*
X42799905Y-39543904D01*
X42799905Y-39543904D02*
X42896667Y-39592285D01*
X39732095Y-42737046D02*
X39732095Y-43317618D01*
X39732095Y-43027332D02*
X38716095Y-43027332D01*
X38716095Y-43027332D02*
X38861238Y-43124094D01*
X38861238Y-43124094D02*
X38958000Y-43220856D01*
X38958000Y-43220856D02*
X39006381Y-43317618D01*
X38716095Y-42108094D02*
X38716095Y-42011332D01*
X38716095Y-42011332D02*
X38764476Y-41914570D01*
X38764476Y-41914570D02*
X38812857Y-41866189D01*
X38812857Y-41866189D02*
X38909619Y-41817808D01*
X38909619Y-41817808D02*
X39103143Y-41769427D01*
X39103143Y-41769427D02*
X39345048Y-41769427D01*
X39345048Y-41769427D02*
X39538572Y-41817808D01*
X39538572Y-41817808D02*
X39635334Y-41866189D01*
X39635334Y-41866189D02*
X39683715Y-41914570D01*
X39683715Y-41914570D02*
X39732095Y-42011332D01*
X39732095Y-42011332D02*
X39732095Y-42108094D01*
X39732095Y-42108094D02*
X39683715Y-42204856D01*
X39683715Y-42204856D02*
X39635334Y-42253237D01*
X39635334Y-42253237D02*
X39538572Y-42301618D01*
X39538572Y-42301618D02*
X39345048Y-42349999D01*
X39345048Y-42349999D02*
X39103143Y-42349999D01*
X39103143Y-42349999D02*
X38909619Y-42301618D01*
X38909619Y-42301618D02*
X38812857Y-42253237D01*
X38812857Y-42253237D02*
X38764476Y-42204856D01*
X38764476Y-42204856D02*
X38716095Y-42108094D01*
X39732095Y-41333999D02*
X38716095Y-41333999D01*
X39345048Y-41237237D02*
X39732095Y-40946951D01*
X39054762Y-40946951D02*
X39441810Y-41333999D01*
X39828857Y-40753428D02*
X39828857Y-39979332D01*
X38716095Y-39543904D02*
X38716095Y-39447142D01*
X38716095Y-39447142D02*
X38764476Y-39350380D01*
X38764476Y-39350380D02*
X38812857Y-39301999D01*
X38812857Y-39301999D02*
X38909619Y-39253618D01*
X38909619Y-39253618D02*
X39103143Y-39205237D01*
X39103143Y-39205237D02*
X39345048Y-39205237D01*
X39345048Y-39205237D02*
X39538572Y-39253618D01*
X39538572Y-39253618D02*
X39635334Y-39301999D01*
X39635334Y-39301999D02*
X39683715Y-39350380D01*
X39683715Y-39350380D02*
X39732095Y-39447142D01*
X39732095Y-39447142D02*
X39732095Y-39543904D01*
X39732095Y-39543904D02*
X39683715Y-39640666D01*
X39683715Y-39640666D02*
X39635334Y-39689047D01*
X39635334Y-39689047D02*
X39538572Y-39737428D01*
X39538572Y-39737428D02*
X39345048Y-39785809D01*
X39345048Y-39785809D02*
X39103143Y-39785809D01*
X39103143Y-39785809D02*
X38909619Y-39737428D01*
X38909619Y-39737428D02*
X38812857Y-39689047D01*
X38812857Y-39689047D02*
X38764476Y-39640666D01*
X38764476Y-39640666D02*
X38716095Y-39543904D01*
X39054762Y-38334380D02*
X39732095Y-38334380D01*
X38667715Y-38576285D02*
X39393429Y-38818190D01*
X39393429Y-38818190D02*
X39393429Y-38189237D01*
X38716095Y-37608666D02*
X38716095Y-37511904D01*
X38716095Y-37511904D02*
X38764476Y-37415142D01*
X38764476Y-37415142D02*
X38812857Y-37366761D01*
X38812857Y-37366761D02*
X38909619Y-37318380D01*
X38909619Y-37318380D02*
X39103143Y-37269999D01*
X39103143Y-37269999D02*
X39345048Y-37269999D01*
X39345048Y-37269999D02*
X39538572Y-37318380D01*
X39538572Y-37318380D02*
X39635334Y-37366761D01*
X39635334Y-37366761D02*
X39683715Y-37415142D01*
X39683715Y-37415142D02*
X39732095Y-37511904D01*
X39732095Y-37511904D02*
X39732095Y-37608666D01*
X39732095Y-37608666D02*
X39683715Y-37705428D01*
X39683715Y-37705428D02*
X39635334Y-37753809D01*
X39635334Y-37753809D02*
X39538572Y-37802190D01*
X39538572Y-37802190D02*
X39345048Y-37850571D01*
X39345048Y-37850571D02*
X39103143Y-37850571D01*
X39103143Y-37850571D02*
X38909619Y-37802190D01*
X38909619Y-37802190D02*
X38812857Y-37753809D01*
X38812857Y-37753809D02*
X38764476Y-37705428D01*
X38764476Y-37705428D02*
X38716095Y-37608666D01*
X38812857Y-36882952D02*
X38764476Y-36834571D01*
X38764476Y-36834571D02*
X38716095Y-36737809D01*
X38716095Y-36737809D02*
X38716095Y-36495904D01*
X38716095Y-36495904D02*
X38764476Y-36399142D01*
X38764476Y-36399142D02*
X38812857Y-36350761D01*
X38812857Y-36350761D02*
X38909619Y-36302380D01*
X38909619Y-36302380D02*
X39006381Y-36302380D01*
X39006381Y-36302380D02*
X39151524Y-36350761D01*
X39151524Y-36350761D02*
X39732095Y-36931333D01*
X39732095Y-36931333D02*
X39732095Y-36302380D01*
D13*
X93919580Y-49416666D02*
X93967200Y-49464285D01*
X93967200Y-49464285D02*
X94014819Y-49607142D01*
X94014819Y-49607142D02*
X94014819Y-49702380D01*
X94014819Y-49702380D02*
X93967200Y-49845237D01*
X93967200Y-49845237D02*
X93871961Y-49940475D01*
X93871961Y-49940475D02*
X93776723Y-49988094D01*
X93776723Y-49988094D02*
X93586247Y-50035713D01*
X93586247Y-50035713D02*
X93443390Y-50035713D01*
X93443390Y-50035713D02*
X93252914Y-49988094D01*
X93252914Y-49988094D02*
X93157676Y-49940475D01*
X93157676Y-49940475D02*
X93062438Y-49845237D01*
X93062438Y-49845237D02*
X93014819Y-49702380D01*
X93014819Y-49702380D02*
X93014819Y-49607142D01*
X93014819Y-49607142D02*
X93062438Y-49464285D01*
X93062438Y-49464285D02*
X93110057Y-49416666D01*
X93443390Y-48845237D02*
X93395771Y-48940475D01*
X93395771Y-48940475D02*
X93348152Y-48988094D01*
X93348152Y-48988094D02*
X93252914Y-49035713D01*
X93252914Y-49035713D02*
X93205295Y-49035713D01*
X93205295Y-49035713D02*
X93110057Y-48988094D01*
X93110057Y-48988094D02*
X93062438Y-48940475D01*
X93062438Y-48940475D02*
X93014819Y-48845237D01*
X93014819Y-48845237D02*
X93014819Y-48654761D01*
X93014819Y-48654761D02*
X93062438Y-48559523D01*
X93062438Y-48559523D02*
X93110057Y-48511904D01*
X93110057Y-48511904D02*
X93205295Y-48464285D01*
X93205295Y-48464285D02*
X93252914Y-48464285D01*
X93252914Y-48464285D02*
X93348152Y-48511904D01*
X93348152Y-48511904D02*
X93395771Y-48559523D01*
X93395771Y-48559523D02*
X93443390Y-48654761D01*
X93443390Y-48654761D02*
X93443390Y-48845237D01*
X93443390Y-48845237D02*
X93491009Y-48940475D01*
X93491009Y-48940475D02*
X93538628Y-48988094D01*
X93538628Y-48988094D02*
X93633866Y-49035713D01*
X93633866Y-49035713D02*
X93824342Y-49035713D01*
X93824342Y-49035713D02*
X93919580Y-48988094D01*
X93919580Y-48988094D02*
X93967200Y-48940475D01*
X93967200Y-48940475D02*
X94014819Y-48845237D01*
X94014819Y-48845237D02*
X94014819Y-48654761D01*
X94014819Y-48654761D02*
X93967200Y-48559523D01*
X93967200Y-48559523D02*
X93919580Y-48511904D01*
X93919580Y-48511904D02*
X93824342Y-48464285D01*
X93824342Y-48464285D02*
X93633866Y-48464285D01*
X93633866Y-48464285D02*
X93538628Y-48511904D01*
X93538628Y-48511904D02*
X93491009Y-48559523D01*
X93491009Y-48559523D02*
X93443390Y-48654761D01*
D14*
X96325662Y-50064286D02*
X96325662Y-50498572D01*
X96325662Y-50281429D02*
X95565662Y-50281429D01*
X95565662Y-50281429D02*
X95674233Y-50353810D01*
X95674233Y-50353810D02*
X95746614Y-50426191D01*
X95746614Y-50426191D02*
X95782805Y-50498572D01*
X95565662Y-49593809D02*
X95565662Y-49521428D01*
X95565662Y-49521428D02*
X95601852Y-49449047D01*
X95601852Y-49449047D02*
X95638043Y-49412857D01*
X95638043Y-49412857D02*
X95710424Y-49376666D01*
X95710424Y-49376666D02*
X95855186Y-49340476D01*
X95855186Y-49340476D02*
X96036138Y-49340476D01*
X96036138Y-49340476D02*
X96180900Y-49376666D01*
X96180900Y-49376666D02*
X96253281Y-49412857D01*
X96253281Y-49412857D02*
X96289472Y-49449047D01*
X96289472Y-49449047D02*
X96325662Y-49521428D01*
X96325662Y-49521428D02*
X96325662Y-49593809D01*
X96325662Y-49593809D02*
X96289472Y-49666190D01*
X96289472Y-49666190D02*
X96253281Y-49702381D01*
X96253281Y-49702381D02*
X96180900Y-49738571D01*
X96180900Y-49738571D02*
X96036138Y-49774762D01*
X96036138Y-49774762D02*
X95855186Y-49774762D01*
X95855186Y-49774762D02*
X95710424Y-49738571D01*
X95710424Y-49738571D02*
X95638043Y-49702381D01*
X95638043Y-49702381D02*
X95601852Y-49666190D01*
X95601852Y-49666190D02*
X95565662Y-49593809D01*
X95818995Y-49014761D02*
X96325662Y-49014761D01*
X95891376Y-49014761D02*
X95855186Y-48978571D01*
X95855186Y-48978571D02*
X95818995Y-48906190D01*
X95818995Y-48906190D02*
X95818995Y-48797618D01*
X95818995Y-48797618D02*
X95855186Y-48725237D01*
X95855186Y-48725237D02*
X95927567Y-48689047D01*
X95927567Y-48689047D02*
X96325662Y-48689047D01*
X95927567Y-48073809D02*
X95927567Y-48327142D01*
X96325662Y-48327142D02*
X95565662Y-48327142D01*
X95565662Y-48327142D02*
X95565662Y-47965237D01*
D13*
X88919580Y-49416666D02*
X88967200Y-49464285D01*
X88967200Y-49464285D02*
X89014819Y-49607142D01*
X89014819Y-49607142D02*
X89014819Y-49702380D01*
X89014819Y-49702380D02*
X88967200Y-49845237D01*
X88967200Y-49845237D02*
X88871961Y-49940475D01*
X88871961Y-49940475D02*
X88776723Y-49988094D01*
X88776723Y-49988094D02*
X88586247Y-50035713D01*
X88586247Y-50035713D02*
X88443390Y-50035713D01*
X88443390Y-50035713D02*
X88252914Y-49988094D01*
X88252914Y-49988094D02*
X88157676Y-49940475D01*
X88157676Y-49940475D02*
X88062438Y-49845237D01*
X88062438Y-49845237D02*
X88014819Y-49702380D01*
X88014819Y-49702380D02*
X88014819Y-49607142D01*
X88014819Y-49607142D02*
X88062438Y-49464285D01*
X88062438Y-49464285D02*
X88110057Y-49416666D01*
X88348152Y-48559523D02*
X89014819Y-48559523D01*
X87967200Y-48797618D02*
X88681485Y-49035713D01*
X88681485Y-49035713D02*
X88681485Y-48416666D01*
D14*
X91325662Y-50064286D02*
X91325662Y-50498572D01*
X91325662Y-50281429D02*
X90565662Y-50281429D01*
X90565662Y-50281429D02*
X90674233Y-50353810D01*
X90674233Y-50353810D02*
X90746614Y-50426191D01*
X90746614Y-50426191D02*
X90782805Y-50498572D01*
X90565662Y-49593809D02*
X90565662Y-49521428D01*
X90565662Y-49521428D02*
X90601852Y-49449047D01*
X90601852Y-49449047D02*
X90638043Y-49412857D01*
X90638043Y-49412857D02*
X90710424Y-49376666D01*
X90710424Y-49376666D02*
X90855186Y-49340476D01*
X90855186Y-49340476D02*
X91036138Y-49340476D01*
X91036138Y-49340476D02*
X91180900Y-49376666D01*
X91180900Y-49376666D02*
X91253281Y-49412857D01*
X91253281Y-49412857D02*
X91289472Y-49449047D01*
X91289472Y-49449047D02*
X91325662Y-49521428D01*
X91325662Y-49521428D02*
X91325662Y-49593809D01*
X91325662Y-49593809D02*
X91289472Y-49666190D01*
X91289472Y-49666190D02*
X91253281Y-49702381D01*
X91253281Y-49702381D02*
X91180900Y-49738571D01*
X91180900Y-49738571D02*
X91036138Y-49774762D01*
X91036138Y-49774762D02*
X90855186Y-49774762D01*
X90855186Y-49774762D02*
X90710424Y-49738571D01*
X90710424Y-49738571D02*
X90638043Y-49702381D01*
X90638043Y-49702381D02*
X90601852Y-49666190D01*
X90601852Y-49666190D02*
X90565662Y-49593809D01*
X90818995Y-49014761D02*
X91325662Y-49014761D01*
X90891376Y-49014761D02*
X90855186Y-48978571D01*
X90855186Y-48978571D02*
X90818995Y-48906190D01*
X90818995Y-48906190D02*
X90818995Y-48797618D01*
X90818995Y-48797618D02*
X90855186Y-48725237D01*
X90855186Y-48725237D02*
X90927567Y-48689047D01*
X90927567Y-48689047D02*
X91325662Y-48689047D01*
X90927567Y-48073809D02*
X90927567Y-48327142D01*
X91325662Y-48327142D02*
X90565662Y-48327142D01*
X90565662Y-48327142D02*
X90565662Y-47965237D01*
D13*
X109359580Y-31392857D02*
X109407200Y-31440476D01*
X109407200Y-31440476D02*
X109454819Y-31583333D01*
X109454819Y-31583333D02*
X109454819Y-31678571D01*
X109454819Y-31678571D02*
X109407200Y-31821428D01*
X109407200Y-31821428D02*
X109311961Y-31916666D01*
X109311961Y-31916666D02*
X109216723Y-31964285D01*
X109216723Y-31964285D02*
X109026247Y-32011904D01*
X109026247Y-32011904D02*
X108883390Y-32011904D01*
X108883390Y-32011904D02*
X108692914Y-31964285D01*
X108692914Y-31964285D02*
X108597676Y-31916666D01*
X108597676Y-31916666D02*
X108502438Y-31821428D01*
X108502438Y-31821428D02*
X108454819Y-31678571D01*
X108454819Y-31678571D02*
X108454819Y-31583333D01*
X108454819Y-31583333D02*
X108502438Y-31440476D01*
X108502438Y-31440476D02*
X108550057Y-31392857D01*
X109454819Y-30440476D02*
X109454819Y-31011904D01*
X109454819Y-30726190D02*
X108454819Y-30726190D01*
X108454819Y-30726190D02*
X108597676Y-30821428D01*
X108597676Y-30821428D02*
X108692914Y-30916666D01*
X108692914Y-30916666D02*
X108740533Y-31011904D01*
X108454819Y-30107142D02*
X108454819Y-29488095D01*
X108454819Y-29488095D02*
X108835771Y-29821428D01*
X108835771Y-29821428D02*
X108835771Y-29678571D01*
X108835771Y-29678571D02*
X108883390Y-29583333D01*
X108883390Y-29583333D02*
X108931009Y-29535714D01*
X108931009Y-29535714D02*
X109026247Y-29488095D01*
X109026247Y-29488095D02*
X109264342Y-29488095D01*
X109264342Y-29488095D02*
X109359580Y-29535714D01*
X109359580Y-29535714D02*
X109407200Y-29583333D01*
X109407200Y-29583333D02*
X109454819Y-29678571D01*
X109454819Y-29678571D02*
X109454819Y-29964285D01*
X109454819Y-29964285D02*
X109407200Y-30059523D01*
X109407200Y-30059523D02*
X109359580Y-30107142D01*
X107954819Y-31547619D02*
X107954819Y-32119047D01*
X107954819Y-31833333D02*
X106954819Y-31833333D01*
X106954819Y-31833333D02*
X107097676Y-31928571D01*
X107097676Y-31928571D02*
X107192914Y-32023809D01*
X107192914Y-32023809D02*
X107240533Y-32119047D01*
X106954819Y-30928571D02*
X106954819Y-30833333D01*
X106954819Y-30833333D02*
X107002438Y-30738095D01*
X107002438Y-30738095D02*
X107050057Y-30690476D01*
X107050057Y-30690476D02*
X107145295Y-30642857D01*
X107145295Y-30642857D02*
X107335771Y-30595238D01*
X107335771Y-30595238D02*
X107573866Y-30595238D01*
X107573866Y-30595238D02*
X107764342Y-30642857D01*
X107764342Y-30642857D02*
X107859580Y-30690476D01*
X107859580Y-30690476D02*
X107907200Y-30738095D01*
X107907200Y-30738095D02*
X107954819Y-30833333D01*
X107954819Y-30833333D02*
X107954819Y-30928571D01*
X107954819Y-30928571D02*
X107907200Y-31023809D01*
X107907200Y-31023809D02*
X107859580Y-31071428D01*
X107859580Y-31071428D02*
X107764342Y-31119047D01*
X107764342Y-31119047D02*
X107573866Y-31166666D01*
X107573866Y-31166666D02*
X107335771Y-31166666D01*
X107335771Y-31166666D02*
X107145295Y-31119047D01*
X107145295Y-31119047D02*
X107050057Y-31071428D01*
X107050057Y-31071428D02*
X107002438Y-31023809D01*
X107002438Y-31023809D02*
X106954819Y-30928571D01*
X106954819Y-29976190D02*
X106954819Y-29880952D01*
X106954819Y-29880952D02*
X107002438Y-29785714D01*
X107002438Y-29785714D02*
X107050057Y-29738095D01*
X107050057Y-29738095D02*
X107145295Y-29690476D01*
X107145295Y-29690476D02*
X107335771Y-29642857D01*
X107335771Y-29642857D02*
X107573866Y-29642857D01*
X107573866Y-29642857D02*
X107764342Y-29690476D01*
X107764342Y-29690476D02*
X107859580Y-29738095D01*
X107859580Y-29738095D02*
X107907200Y-29785714D01*
X107907200Y-29785714D02*
X107954819Y-29880952D01*
X107954819Y-29880952D02*
X107954819Y-29976190D01*
X107954819Y-29976190D02*
X107907200Y-30071428D01*
X107907200Y-30071428D02*
X107859580Y-30119047D01*
X107859580Y-30119047D02*
X107764342Y-30166666D01*
X107764342Y-30166666D02*
X107573866Y-30214285D01*
X107573866Y-30214285D02*
X107335771Y-30214285D01*
X107335771Y-30214285D02*
X107145295Y-30166666D01*
X107145295Y-30166666D02*
X107050057Y-30119047D01*
X107050057Y-30119047D02*
X107002438Y-30071428D01*
X107002438Y-30071428D02*
X106954819Y-29976190D01*
X107288152Y-28785714D02*
X107954819Y-28785714D01*
X107288152Y-29214285D02*
X107811961Y-29214285D01*
X107811961Y-29214285D02*
X107907200Y-29166666D01*
X107907200Y-29166666D02*
X107954819Y-29071428D01*
X107954819Y-29071428D02*
X107954819Y-28928571D01*
X107954819Y-28928571D02*
X107907200Y-28833333D01*
X107907200Y-28833333D02*
X107859580Y-28785714D01*
X107431009Y-27976190D02*
X107431009Y-28309523D01*
X107954819Y-28309523D02*
X106954819Y-28309523D01*
X106954819Y-28309523D02*
X106954819Y-27833333D01*
X69214819Y-39771904D02*
X70024342Y-39771904D01*
X70024342Y-39771904D02*
X70119580Y-39724285D01*
X70119580Y-39724285D02*
X70167200Y-39676666D01*
X70167200Y-39676666D02*
X70214819Y-39581428D01*
X70214819Y-39581428D02*
X70214819Y-39390952D01*
X70214819Y-39390952D02*
X70167200Y-39295714D01*
X70167200Y-39295714D02*
X70119580Y-39248095D01*
X70119580Y-39248095D02*
X70024342Y-39200476D01*
X70024342Y-39200476D02*
X69214819Y-39200476D01*
X70214819Y-38200476D02*
X70214819Y-38771904D01*
X70214819Y-38486190D02*
X69214819Y-38486190D01*
X69214819Y-38486190D02*
X69357676Y-38581428D01*
X69357676Y-38581428D02*
X69452914Y-38676666D01*
X69452914Y-38676666D02*
X69500533Y-38771904D01*
X56516666Y-39580033D02*
X56516666Y-38880033D01*
X56516666Y-38880033D02*
X56750000Y-39380033D01*
X56750000Y-39380033D02*
X56983333Y-38880033D01*
X56983333Y-38880033D02*
X56983333Y-39580033D01*
X57316666Y-39580033D02*
X57316666Y-38880033D01*
X57649999Y-39580033D02*
X57649999Y-38880033D01*
X57649999Y-38880033D02*
X57883333Y-39380033D01*
X57883333Y-39380033D02*
X58116666Y-38880033D01*
X58116666Y-38880033D02*
X58116666Y-39580033D01*
X58383333Y-38880033D02*
X58849999Y-39580033D01*
X58849999Y-38880033D02*
X58383333Y-39580033D01*
X59516666Y-39580033D02*
X59283333Y-39246700D01*
X59116666Y-39580033D02*
X59116666Y-38880033D01*
X59116666Y-38880033D02*
X59383333Y-38880033D01*
X59383333Y-38880033D02*
X59450000Y-38913366D01*
X59450000Y-38913366D02*
X59483333Y-38946700D01*
X59483333Y-38946700D02*
X59516666Y-39013366D01*
X59516666Y-39013366D02*
X59516666Y-39113366D01*
X59516666Y-39113366D02*
X59483333Y-39180033D01*
X59483333Y-39180033D02*
X59450000Y-39213366D01*
X59450000Y-39213366D02*
X59383333Y-39246700D01*
X59383333Y-39246700D02*
X59116666Y-39246700D01*
X59716666Y-38880033D02*
X60116666Y-38880033D01*
X59916666Y-39580033D02*
X59916666Y-38880033D01*
X60716666Y-39580033D02*
X60316666Y-39580033D01*
X60516666Y-39580033D02*
X60516666Y-38880033D01*
X60516666Y-38880033D02*
X60449999Y-38980033D01*
X60449999Y-38980033D02*
X60383333Y-39046700D01*
X60383333Y-39046700D02*
X60316666Y-39080033D01*
X61150000Y-38880033D02*
X61216666Y-38880033D01*
X61216666Y-38880033D02*
X61283333Y-38913366D01*
X61283333Y-38913366D02*
X61316666Y-38946700D01*
X61316666Y-38946700D02*
X61350000Y-39013366D01*
X61350000Y-39013366D02*
X61383333Y-39146700D01*
X61383333Y-39146700D02*
X61383333Y-39313366D01*
X61383333Y-39313366D02*
X61350000Y-39446700D01*
X61350000Y-39446700D02*
X61316666Y-39513366D01*
X61316666Y-39513366D02*
X61283333Y-39546700D01*
X61283333Y-39546700D02*
X61216666Y-39580033D01*
X61216666Y-39580033D02*
X61150000Y-39580033D01*
X61150000Y-39580033D02*
X61083333Y-39546700D01*
X61083333Y-39546700D02*
X61050000Y-39513366D01*
X61050000Y-39513366D02*
X61016666Y-39446700D01*
X61016666Y-39446700D02*
X60983333Y-39313366D01*
X60983333Y-39313366D02*
X60983333Y-39146700D01*
X60983333Y-39146700D02*
X61016666Y-39013366D01*
X61016666Y-39013366D02*
X61050000Y-38946700D01*
X61050000Y-38946700D02*
X61083333Y-38913366D01*
X61083333Y-38913366D02*
X61150000Y-38880033D01*
X61983333Y-38880033D02*
X61850000Y-38880033D01*
X61850000Y-38880033D02*
X61783333Y-38913366D01*
X61783333Y-38913366D02*
X61750000Y-38946700D01*
X61750000Y-38946700D02*
X61683333Y-39046700D01*
X61683333Y-39046700D02*
X61650000Y-39180033D01*
X61650000Y-39180033D02*
X61650000Y-39446700D01*
X61650000Y-39446700D02*
X61683333Y-39513366D01*
X61683333Y-39513366D02*
X61716667Y-39546700D01*
X61716667Y-39546700D02*
X61783333Y-39580033D01*
X61783333Y-39580033D02*
X61916667Y-39580033D01*
X61916667Y-39580033D02*
X61983333Y-39546700D01*
X61983333Y-39546700D02*
X62016667Y-39513366D01*
X62016667Y-39513366D02*
X62050000Y-39446700D01*
X62050000Y-39446700D02*
X62050000Y-39280033D01*
X62050000Y-39280033D02*
X62016667Y-39213366D01*
X62016667Y-39213366D02*
X61983333Y-39180033D01*
X61983333Y-39180033D02*
X61916667Y-39146700D01*
X61916667Y-39146700D02*
X61783333Y-39146700D01*
X61783333Y-39146700D02*
X61716667Y-39180033D01*
X61716667Y-39180033D02*
X61683333Y-39213366D01*
X61683333Y-39213366D02*
X61650000Y-39280033D01*
X62316667Y-38946700D02*
X62350000Y-38913366D01*
X62350000Y-38913366D02*
X62416667Y-38880033D01*
X62416667Y-38880033D02*
X62583334Y-38880033D01*
X62583334Y-38880033D02*
X62650000Y-38913366D01*
X62650000Y-38913366D02*
X62683334Y-38946700D01*
X62683334Y-38946700D02*
X62716667Y-39013366D01*
X62716667Y-39013366D02*
X62716667Y-39080033D01*
X62716667Y-39080033D02*
X62683334Y-39180033D01*
X62683334Y-39180033D02*
X62283334Y-39580033D01*
X62283334Y-39580033D02*
X62716667Y-39580033D01*
X58199999Y-41104033D02*
X58199999Y-40404033D01*
X58199999Y-40404033D02*
X58366666Y-40404033D01*
X58366666Y-40404033D02*
X58466666Y-40437366D01*
X58466666Y-40437366D02*
X58533333Y-40504033D01*
X58533333Y-40504033D02*
X58566666Y-40570700D01*
X58566666Y-40570700D02*
X58599999Y-40704033D01*
X58599999Y-40704033D02*
X58599999Y-40804033D01*
X58599999Y-40804033D02*
X58566666Y-40937366D01*
X58566666Y-40937366D02*
X58533333Y-41004033D01*
X58533333Y-41004033D02*
X58466666Y-41070700D01*
X58466666Y-41070700D02*
X58366666Y-41104033D01*
X58366666Y-41104033D02*
X58199999Y-41104033D01*
X58799999Y-40404033D02*
X59033333Y-41104033D01*
X59033333Y-41104033D02*
X59266666Y-40404033D01*
X59833333Y-41104033D02*
X59499999Y-41104033D01*
X59499999Y-41104033D02*
X59499999Y-40404033D01*
X60366666Y-40404033D02*
X60233333Y-40404033D01*
X60233333Y-40404033D02*
X60166666Y-40437366D01*
X60166666Y-40437366D02*
X60133333Y-40470700D01*
X60133333Y-40470700D02*
X60066666Y-40570700D01*
X60066666Y-40570700D02*
X60033333Y-40704033D01*
X60033333Y-40704033D02*
X60033333Y-40970700D01*
X60033333Y-40970700D02*
X60066666Y-41037366D01*
X60066666Y-41037366D02*
X60100000Y-41070700D01*
X60100000Y-41070700D02*
X60166666Y-41104033D01*
X60166666Y-41104033D02*
X60300000Y-41104033D01*
X60300000Y-41104033D02*
X60366666Y-41070700D01*
X60366666Y-41070700D02*
X60400000Y-41037366D01*
X60400000Y-41037366D02*
X60433333Y-40970700D01*
X60433333Y-40970700D02*
X60433333Y-40804033D01*
X60433333Y-40804033D02*
X60400000Y-40737366D01*
X60400000Y-40737366D02*
X60366666Y-40704033D01*
X60366666Y-40704033D02*
X60300000Y-40670700D01*
X60300000Y-40670700D02*
X60166666Y-40670700D01*
X60166666Y-40670700D02*
X60100000Y-40704033D01*
X60100000Y-40704033D02*
X60066666Y-40737366D01*
X60066666Y-40737366D02*
X60033333Y-40804033D01*
X60700000Y-40904033D02*
X61033333Y-40904033D01*
X60633333Y-41104033D02*
X60866667Y-40404033D01*
X60866667Y-40404033D02*
X61100000Y-41104033D01*
X151376667Y-83783200D02*
X151519524Y-83830819D01*
X151519524Y-83830819D02*
X151757619Y-83830819D01*
X151757619Y-83830819D02*
X151852857Y-83783200D01*
X151852857Y-83783200D02*
X151900476Y-83735580D01*
X151900476Y-83735580D02*
X151948095Y-83640342D01*
X151948095Y-83640342D02*
X151948095Y-83545104D01*
X151948095Y-83545104D02*
X151900476Y-83449866D01*
X151900476Y-83449866D02*
X151852857Y-83402247D01*
X151852857Y-83402247D02*
X151757619Y-83354628D01*
X151757619Y-83354628D02*
X151567143Y-83307009D01*
X151567143Y-83307009D02*
X151471905Y-83259390D01*
X151471905Y-83259390D02*
X151424286Y-83211771D01*
X151424286Y-83211771D02*
X151376667Y-83116533D01*
X151376667Y-83116533D02*
X151376667Y-83021295D01*
X151376667Y-83021295D02*
X151424286Y-82926057D01*
X151424286Y-82926057D02*
X151471905Y-82878438D01*
X151471905Y-82878438D02*
X151567143Y-82830819D01*
X151567143Y-82830819D02*
X151805238Y-82830819D01*
X151805238Y-82830819D02*
X151948095Y-82878438D01*
X152281429Y-82830819D02*
X152519524Y-83830819D01*
X152519524Y-83830819D02*
X152710000Y-83116533D01*
X152710000Y-83116533D02*
X152900476Y-83830819D01*
X152900476Y-83830819D02*
X153138572Y-82830819D01*
X153948095Y-83164152D02*
X153948095Y-83830819D01*
X153710000Y-82783200D02*
X153471905Y-83497485D01*
X153471905Y-83497485D02*
X154090952Y-83497485D01*
X103919580Y-49416666D02*
X103967200Y-49464285D01*
X103967200Y-49464285D02*
X104014819Y-49607142D01*
X104014819Y-49607142D02*
X104014819Y-49702380D01*
X104014819Y-49702380D02*
X103967200Y-49845237D01*
X103967200Y-49845237D02*
X103871961Y-49940475D01*
X103871961Y-49940475D02*
X103776723Y-49988094D01*
X103776723Y-49988094D02*
X103586247Y-50035713D01*
X103586247Y-50035713D02*
X103443390Y-50035713D01*
X103443390Y-50035713D02*
X103252914Y-49988094D01*
X103252914Y-49988094D02*
X103157676Y-49940475D01*
X103157676Y-49940475D02*
X103062438Y-49845237D01*
X103062438Y-49845237D02*
X103014819Y-49702380D01*
X103014819Y-49702380D02*
X103014819Y-49607142D01*
X103014819Y-49607142D02*
X103062438Y-49464285D01*
X103062438Y-49464285D02*
X103110057Y-49416666D01*
X103014819Y-48559523D02*
X103014819Y-48749999D01*
X103014819Y-48749999D02*
X103062438Y-48845237D01*
X103062438Y-48845237D02*
X103110057Y-48892856D01*
X103110057Y-48892856D02*
X103252914Y-48988094D01*
X103252914Y-48988094D02*
X103443390Y-49035713D01*
X103443390Y-49035713D02*
X103824342Y-49035713D01*
X103824342Y-49035713D02*
X103919580Y-48988094D01*
X103919580Y-48988094D02*
X103967200Y-48940475D01*
X103967200Y-48940475D02*
X104014819Y-48845237D01*
X104014819Y-48845237D02*
X104014819Y-48654761D01*
X104014819Y-48654761D02*
X103967200Y-48559523D01*
X103967200Y-48559523D02*
X103919580Y-48511904D01*
X103919580Y-48511904D02*
X103824342Y-48464285D01*
X103824342Y-48464285D02*
X103586247Y-48464285D01*
X103586247Y-48464285D02*
X103491009Y-48511904D01*
X103491009Y-48511904D02*
X103443390Y-48559523D01*
X103443390Y-48559523D02*
X103395771Y-48654761D01*
X103395771Y-48654761D02*
X103395771Y-48845237D01*
X103395771Y-48845237D02*
X103443390Y-48940475D01*
X103443390Y-48940475D02*
X103491009Y-48988094D01*
X103491009Y-48988094D02*
X103586247Y-49035713D01*
D14*
X106325662Y-50064286D02*
X106325662Y-50498572D01*
X106325662Y-50281429D02*
X105565662Y-50281429D01*
X105565662Y-50281429D02*
X105674233Y-50353810D01*
X105674233Y-50353810D02*
X105746614Y-50426191D01*
X105746614Y-50426191D02*
X105782805Y-50498572D01*
X105565662Y-49593809D02*
X105565662Y-49521428D01*
X105565662Y-49521428D02*
X105601852Y-49449047D01*
X105601852Y-49449047D02*
X105638043Y-49412857D01*
X105638043Y-49412857D02*
X105710424Y-49376666D01*
X105710424Y-49376666D02*
X105855186Y-49340476D01*
X105855186Y-49340476D02*
X106036138Y-49340476D01*
X106036138Y-49340476D02*
X106180900Y-49376666D01*
X106180900Y-49376666D02*
X106253281Y-49412857D01*
X106253281Y-49412857D02*
X106289472Y-49449047D01*
X106289472Y-49449047D02*
X106325662Y-49521428D01*
X106325662Y-49521428D02*
X106325662Y-49593809D01*
X106325662Y-49593809D02*
X106289472Y-49666190D01*
X106289472Y-49666190D02*
X106253281Y-49702381D01*
X106253281Y-49702381D02*
X106180900Y-49738571D01*
X106180900Y-49738571D02*
X106036138Y-49774762D01*
X106036138Y-49774762D02*
X105855186Y-49774762D01*
X105855186Y-49774762D02*
X105710424Y-49738571D01*
X105710424Y-49738571D02*
X105638043Y-49702381D01*
X105638043Y-49702381D02*
X105601852Y-49666190D01*
X105601852Y-49666190D02*
X105565662Y-49593809D01*
X105818995Y-49014761D02*
X106325662Y-49014761D01*
X105891376Y-49014761D02*
X105855186Y-48978571D01*
X105855186Y-48978571D02*
X105818995Y-48906190D01*
X105818995Y-48906190D02*
X105818995Y-48797618D01*
X105818995Y-48797618D02*
X105855186Y-48725237D01*
X105855186Y-48725237D02*
X105927567Y-48689047D01*
X105927567Y-48689047D02*
X106325662Y-48689047D01*
X105927567Y-48073809D02*
X105927567Y-48327142D01*
X106325662Y-48327142D02*
X105565662Y-48327142D01*
X105565662Y-48327142D02*
X105565662Y-47965237D01*
D13*
X38146666Y-34754819D02*
X38146666Y-35469104D01*
X38146666Y-35469104D02*
X38099047Y-35611961D01*
X38099047Y-35611961D02*
X38003809Y-35707200D01*
X38003809Y-35707200D02*
X37860952Y-35754819D01*
X37860952Y-35754819D02*
X37765714Y-35754819D01*
X39146666Y-35754819D02*
X38575238Y-35754819D01*
X38860952Y-35754819D02*
X38860952Y-34754819D01*
X38860952Y-34754819D02*
X38765714Y-34897676D01*
X38765714Y-34897676D02*
X38670476Y-34992914D01*
X38670476Y-34992914D02*
X38575238Y-35040533D01*
X83919580Y-49416666D02*
X83967200Y-49464285D01*
X83967200Y-49464285D02*
X84014819Y-49607142D01*
X84014819Y-49607142D02*
X84014819Y-49702380D01*
X84014819Y-49702380D02*
X83967200Y-49845237D01*
X83967200Y-49845237D02*
X83871961Y-49940475D01*
X83871961Y-49940475D02*
X83776723Y-49988094D01*
X83776723Y-49988094D02*
X83586247Y-50035713D01*
X83586247Y-50035713D02*
X83443390Y-50035713D01*
X83443390Y-50035713D02*
X83252914Y-49988094D01*
X83252914Y-49988094D02*
X83157676Y-49940475D01*
X83157676Y-49940475D02*
X83062438Y-49845237D01*
X83062438Y-49845237D02*
X83014819Y-49702380D01*
X83014819Y-49702380D02*
X83014819Y-49607142D01*
X83014819Y-49607142D02*
X83062438Y-49464285D01*
X83062438Y-49464285D02*
X83110057Y-49416666D01*
X83014819Y-49083332D02*
X83014819Y-48464285D01*
X83014819Y-48464285D02*
X83395771Y-48797618D01*
X83395771Y-48797618D02*
X83395771Y-48654761D01*
X83395771Y-48654761D02*
X83443390Y-48559523D01*
X83443390Y-48559523D02*
X83491009Y-48511904D01*
X83491009Y-48511904D02*
X83586247Y-48464285D01*
X83586247Y-48464285D02*
X83824342Y-48464285D01*
X83824342Y-48464285D02*
X83919580Y-48511904D01*
X83919580Y-48511904D02*
X83967200Y-48559523D01*
X83967200Y-48559523D02*
X84014819Y-48654761D01*
X84014819Y-48654761D02*
X84014819Y-48940475D01*
X84014819Y-48940475D02*
X83967200Y-49035713D01*
X83967200Y-49035713D02*
X83919580Y-49083332D01*
D14*
X86325662Y-50064286D02*
X86325662Y-50498572D01*
X86325662Y-50281429D02*
X85565662Y-50281429D01*
X85565662Y-50281429D02*
X85674233Y-50353810D01*
X85674233Y-50353810D02*
X85746614Y-50426191D01*
X85746614Y-50426191D02*
X85782805Y-50498572D01*
X85565662Y-49593809D02*
X85565662Y-49521428D01*
X85565662Y-49521428D02*
X85601852Y-49449047D01*
X85601852Y-49449047D02*
X85638043Y-49412857D01*
X85638043Y-49412857D02*
X85710424Y-49376666D01*
X85710424Y-49376666D02*
X85855186Y-49340476D01*
X85855186Y-49340476D02*
X86036138Y-49340476D01*
X86036138Y-49340476D02*
X86180900Y-49376666D01*
X86180900Y-49376666D02*
X86253281Y-49412857D01*
X86253281Y-49412857D02*
X86289472Y-49449047D01*
X86289472Y-49449047D02*
X86325662Y-49521428D01*
X86325662Y-49521428D02*
X86325662Y-49593809D01*
X86325662Y-49593809D02*
X86289472Y-49666190D01*
X86289472Y-49666190D02*
X86253281Y-49702381D01*
X86253281Y-49702381D02*
X86180900Y-49738571D01*
X86180900Y-49738571D02*
X86036138Y-49774762D01*
X86036138Y-49774762D02*
X85855186Y-49774762D01*
X85855186Y-49774762D02*
X85710424Y-49738571D01*
X85710424Y-49738571D02*
X85638043Y-49702381D01*
X85638043Y-49702381D02*
X85601852Y-49666190D01*
X85601852Y-49666190D02*
X85565662Y-49593809D01*
X85818995Y-49014761D02*
X86325662Y-49014761D01*
X85891376Y-49014761D02*
X85855186Y-48978571D01*
X85855186Y-48978571D02*
X85818995Y-48906190D01*
X85818995Y-48906190D02*
X85818995Y-48797618D01*
X85818995Y-48797618D02*
X85855186Y-48725237D01*
X85855186Y-48725237D02*
X85927567Y-48689047D01*
X85927567Y-48689047D02*
X86325662Y-48689047D01*
X85927567Y-48073809D02*
X85927567Y-48327142D01*
X86325662Y-48327142D02*
X85565662Y-48327142D01*
X85565662Y-48327142D02*
X85565662Y-47965237D01*
D13*
X131146667Y-83783200D02*
X131289524Y-83830819D01*
X131289524Y-83830819D02*
X131527619Y-83830819D01*
X131527619Y-83830819D02*
X131622857Y-83783200D01*
X131622857Y-83783200D02*
X131670476Y-83735580D01*
X131670476Y-83735580D02*
X131718095Y-83640342D01*
X131718095Y-83640342D02*
X131718095Y-83545104D01*
X131718095Y-83545104D02*
X131670476Y-83449866D01*
X131670476Y-83449866D02*
X131622857Y-83402247D01*
X131622857Y-83402247D02*
X131527619Y-83354628D01*
X131527619Y-83354628D02*
X131337143Y-83307009D01*
X131337143Y-83307009D02*
X131241905Y-83259390D01*
X131241905Y-83259390D02*
X131194286Y-83211771D01*
X131194286Y-83211771D02*
X131146667Y-83116533D01*
X131146667Y-83116533D02*
X131146667Y-83021295D01*
X131146667Y-83021295D02*
X131194286Y-82926057D01*
X131194286Y-82926057D02*
X131241905Y-82878438D01*
X131241905Y-82878438D02*
X131337143Y-82830819D01*
X131337143Y-82830819D02*
X131575238Y-82830819D01*
X131575238Y-82830819D02*
X131718095Y-82878438D01*
X132051429Y-82830819D02*
X132289524Y-83830819D01*
X132289524Y-83830819D02*
X132480000Y-83116533D01*
X132480000Y-83116533D02*
X132670476Y-83830819D01*
X132670476Y-83830819D02*
X132908572Y-82830819D01*
X133194286Y-82830819D02*
X133813333Y-82830819D01*
X133813333Y-82830819D02*
X133480000Y-83211771D01*
X133480000Y-83211771D02*
X133622857Y-83211771D01*
X133622857Y-83211771D02*
X133718095Y-83259390D01*
X133718095Y-83259390D02*
X133765714Y-83307009D01*
X133765714Y-83307009D02*
X133813333Y-83402247D01*
X133813333Y-83402247D02*
X133813333Y-83640342D01*
X133813333Y-83640342D02*
X133765714Y-83735580D01*
X133765714Y-83735580D02*
X133718095Y-83783200D01*
X133718095Y-83783200D02*
X133622857Y-83830819D01*
X133622857Y-83830819D02*
X133337143Y-83830819D01*
X133337143Y-83830819D02*
X133241905Y-83783200D01*
X133241905Y-83783200D02*
X133194286Y-83735580D01*
X151376667Y-63783200D02*
X151519524Y-63830819D01*
X151519524Y-63830819D02*
X151757619Y-63830819D01*
X151757619Y-63830819D02*
X151852857Y-63783200D01*
X151852857Y-63783200D02*
X151900476Y-63735580D01*
X151900476Y-63735580D02*
X151948095Y-63640342D01*
X151948095Y-63640342D02*
X151948095Y-63545104D01*
X151948095Y-63545104D02*
X151900476Y-63449866D01*
X151900476Y-63449866D02*
X151852857Y-63402247D01*
X151852857Y-63402247D02*
X151757619Y-63354628D01*
X151757619Y-63354628D02*
X151567143Y-63307009D01*
X151567143Y-63307009D02*
X151471905Y-63259390D01*
X151471905Y-63259390D02*
X151424286Y-63211771D01*
X151424286Y-63211771D02*
X151376667Y-63116533D01*
X151376667Y-63116533D02*
X151376667Y-63021295D01*
X151376667Y-63021295D02*
X151424286Y-62926057D01*
X151424286Y-62926057D02*
X151471905Y-62878438D01*
X151471905Y-62878438D02*
X151567143Y-62830819D01*
X151567143Y-62830819D02*
X151805238Y-62830819D01*
X151805238Y-62830819D02*
X151948095Y-62878438D01*
X152281429Y-62830819D02*
X152519524Y-63830819D01*
X152519524Y-63830819D02*
X152710000Y-63116533D01*
X152710000Y-63116533D02*
X152900476Y-63830819D01*
X152900476Y-63830819D02*
X153138572Y-62830819D01*
X153471905Y-62926057D02*
X153519524Y-62878438D01*
X153519524Y-62878438D02*
X153614762Y-62830819D01*
X153614762Y-62830819D02*
X153852857Y-62830819D01*
X153852857Y-62830819D02*
X153948095Y-62878438D01*
X153948095Y-62878438D02*
X153995714Y-62926057D01*
X153995714Y-62926057D02*
X154043333Y-63021295D01*
X154043333Y-63021295D02*
X154043333Y-63116533D01*
X154043333Y-63116533D02*
X153995714Y-63259390D01*
X153995714Y-63259390D02*
X153424286Y-63830819D01*
X153424286Y-63830819D02*
X154043333Y-63830819D01*
X67937519Y-69879438D02*
X67461328Y-70212771D01*
X67937519Y-70450866D02*
X66937519Y-70450866D01*
X66937519Y-70450866D02*
X66937519Y-70069914D01*
X66937519Y-70069914D02*
X66985138Y-69974676D01*
X66985138Y-69974676D02*
X67032757Y-69927057D01*
X67032757Y-69927057D02*
X67127995Y-69879438D01*
X67127995Y-69879438D02*
X67270852Y-69879438D01*
X67270852Y-69879438D02*
X67366090Y-69927057D01*
X67366090Y-69927057D02*
X67413709Y-69974676D01*
X67413709Y-69974676D02*
X67461328Y-70069914D01*
X67461328Y-70069914D02*
X67461328Y-70450866D01*
X66937519Y-69593723D02*
X67937519Y-69260390D01*
X67937519Y-69260390D02*
X66937519Y-68927057D01*
X67032757Y-68641342D02*
X66985138Y-68593723D01*
X66985138Y-68593723D02*
X66937519Y-68498485D01*
X66937519Y-68498485D02*
X66937519Y-68260390D01*
X66937519Y-68260390D02*
X66985138Y-68165152D01*
X66985138Y-68165152D02*
X67032757Y-68117533D01*
X67032757Y-68117533D02*
X67127995Y-68069914D01*
X67127995Y-68069914D02*
X67223233Y-68069914D01*
X67223233Y-68069914D02*
X67366090Y-68117533D01*
X67366090Y-68117533D02*
X67937519Y-68688961D01*
X67937519Y-68688961D02*
X67937519Y-68069914D01*
X52413709Y-71046104D02*
X52461328Y-70903247D01*
X52461328Y-70903247D02*
X52508947Y-70855628D01*
X52508947Y-70855628D02*
X52604185Y-70808009D01*
X52604185Y-70808009D02*
X52747042Y-70808009D01*
X52747042Y-70808009D02*
X52842280Y-70855628D01*
X52842280Y-70855628D02*
X52889900Y-70903247D01*
X52889900Y-70903247D02*
X52937519Y-70998485D01*
X52937519Y-70998485D02*
X52937519Y-71379437D01*
X52937519Y-71379437D02*
X51937519Y-71379437D01*
X51937519Y-71379437D02*
X51937519Y-71046104D01*
X51937519Y-71046104D02*
X51985138Y-70950866D01*
X51985138Y-70950866D02*
X52032757Y-70903247D01*
X52032757Y-70903247D02*
X52127995Y-70855628D01*
X52127995Y-70855628D02*
X52223233Y-70855628D01*
X52223233Y-70855628D02*
X52318471Y-70903247D01*
X52318471Y-70903247D02*
X52366090Y-70950866D01*
X52366090Y-70950866D02*
X52413709Y-71046104D01*
X52413709Y-71046104D02*
X52413709Y-71379437D01*
X52937519Y-69855628D02*
X52937519Y-70427056D01*
X52937519Y-70141342D02*
X51937519Y-70141342D01*
X51937519Y-70141342D02*
X52080376Y-70236580D01*
X52080376Y-70236580D02*
X52175614Y-70331818D01*
X52175614Y-70331818D02*
X52223233Y-70427056D01*
X51937519Y-69236580D02*
X51937519Y-69141342D01*
X51937519Y-69141342D02*
X51985138Y-69046104D01*
X51985138Y-69046104D02*
X52032757Y-68998485D01*
X52032757Y-68998485D02*
X52127995Y-68950866D01*
X52127995Y-68950866D02*
X52318471Y-68903247D01*
X52318471Y-68903247D02*
X52556566Y-68903247D01*
X52556566Y-68903247D02*
X52747042Y-68950866D01*
X52747042Y-68950866D02*
X52842280Y-68998485D01*
X52842280Y-68998485D02*
X52889900Y-69046104D01*
X52889900Y-69046104D02*
X52937519Y-69141342D01*
X52937519Y-69141342D02*
X52937519Y-69236580D01*
X52937519Y-69236580D02*
X52889900Y-69331818D01*
X52889900Y-69331818D02*
X52842280Y-69379437D01*
X52842280Y-69379437D02*
X52747042Y-69427056D01*
X52747042Y-69427056D02*
X52556566Y-69474675D01*
X52556566Y-69474675D02*
X52318471Y-69474675D01*
X52318471Y-69474675D02*
X52127995Y-69427056D01*
X52127995Y-69427056D02*
X52032757Y-69379437D01*
X52032757Y-69379437D02*
X51985138Y-69331818D01*
X51985138Y-69331818D02*
X51937519Y-69236580D01*
X51937519Y-68284199D02*
X51937519Y-68188961D01*
X51937519Y-68188961D02*
X51985138Y-68093723D01*
X51985138Y-68093723D02*
X52032757Y-68046104D01*
X52032757Y-68046104D02*
X52127995Y-67998485D01*
X52127995Y-67998485D02*
X52318471Y-67950866D01*
X52318471Y-67950866D02*
X52556566Y-67950866D01*
X52556566Y-67950866D02*
X52747042Y-67998485D01*
X52747042Y-67998485D02*
X52842280Y-68046104D01*
X52842280Y-68046104D02*
X52889900Y-68093723D01*
X52889900Y-68093723D02*
X52937519Y-68188961D01*
X52937519Y-68188961D02*
X52937519Y-68284199D01*
X52937519Y-68284199D02*
X52889900Y-68379437D01*
X52889900Y-68379437D02*
X52842280Y-68427056D01*
X52842280Y-68427056D02*
X52747042Y-68474675D01*
X52747042Y-68474675D02*
X52556566Y-68522294D01*
X52556566Y-68522294D02*
X52318471Y-68522294D01*
X52318471Y-68522294D02*
X52127995Y-68474675D01*
X52127995Y-68474675D02*
X52032757Y-68427056D01*
X52032757Y-68427056D02*
X51985138Y-68379437D01*
X51985138Y-68379437D02*
X51937519Y-68284199D01*
X52937519Y-67522294D02*
X51937519Y-67522294D01*
X52556566Y-67427056D02*
X52937519Y-67141342D01*
X52270852Y-67141342D02*
X52651804Y-67522294D01*
D12*
X122000667Y-52462095D02*
X121662000Y-51978286D01*
X121420095Y-52462095D02*
X121420095Y-51446095D01*
X121420095Y-51446095D02*
X121807143Y-51446095D01*
X121807143Y-51446095D02*
X121903905Y-51494476D01*
X121903905Y-51494476D02*
X121952286Y-51542857D01*
X121952286Y-51542857D02*
X122000667Y-51639619D01*
X122000667Y-51639619D02*
X122000667Y-51784762D01*
X122000667Y-51784762D02*
X121952286Y-51881524D01*
X121952286Y-51881524D02*
X121903905Y-51929905D01*
X121903905Y-51929905D02*
X121807143Y-51978286D01*
X121807143Y-51978286D02*
X121420095Y-51978286D01*
X122968286Y-52462095D02*
X122387714Y-52462095D01*
X122678000Y-52462095D02*
X122678000Y-51446095D01*
X122678000Y-51446095D02*
X122581238Y-51591238D01*
X122581238Y-51591238D02*
X122484476Y-51688000D01*
X122484476Y-51688000D02*
X122387714Y-51736381D01*
X119242953Y-54272095D02*
X118662381Y-54272095D01*
X118952667Y-54272095D02*
X118952667Y-53256095D01*
X118952667Y-53256095D02*
X118855905Y-53401238D01*
X118855905Y-53401238D02*
X118759143Y-53498000D01*
X118759143Y-53498000D02*
X118662381Y-53546381D01*
X119871905Y-53256095D02*
X119968667Y-53256095D01*
X119968667Y-53256095D02*
X120065429Y-53304476D01*
X120065429Y-53304476D02*
X120113810Y-53352857D01*
X120113810Y-53352857D02*
X120162191Y-53449619D01*
X120162191Y-53449619D02*
X120210572Y-53643143D01*
X120210572Y-53643143D02*
X120210572Y-53885048D01*
X120210572Y-53885048D02*
X120162191Y-54078572D01*
X120162191Y-54078572D02*
X120113810Y-54175334D01*
X120113810Y-54175334D02*
X120065429Y-54223715D01*
X120065429Y-54223715D02*
X119968667Y-54272095D01*
X119968667Y-54272095D02*
X119871905Y-54272095D01*
X119871905Y-54272095D02*
X119775143Y-54223715D01*
X119775143Y-54223715D02*
X119726762Y-54175334D01*
X119726762Y-54175334D02*
X119678381Y-54078572D01*
X119678381Y-54078572D02*
X119630000Y-53885048D01*
X119630000Y-53885048D02*
X119630000Y-53643143D01*
X119630000Y-53643143D02*
X119678381Y-53449619D01*
X119678381Y-53449619D02*
X119726762Y-53352857D01*
X119726762Y-53352857D02*
X119775143Y-53304476D01*
X119775143Y-53304476D02*
X119871905Y-53256095D01*
X120646000Y-54272095D02*
X120646000Y-53256095D01*
X120742762Y-53885048D02*
X121033048Y-54272095D01*
X121033048Y-53594762D02*
X120646000Y-53981810D01*
X121226572Y-54368857D02*
X122000667Y-54368857D01*
X122436095Y-53256095D02*
X122532857Y-53256095D01*
X122532857Y-53256095D02*
X122629619Y-53304476D01*
X122629619Y-53304476D02*
X122678000Y-53352857D01*
X122678000Y-53352857D02*
X122726381Y-53449619D01*
X122726381Y-53449619D02*
X122774762Y-53643143D01*
X122774762Y-53643143D02*
X122774762Y-53885048D01*
X122774762Y-53885048D02*
X122726381Y-54078572D01*
X122726381Y-54078572D02*
X122678000Y-54175334D01*
X122678000Y-54175334D02*
X122629619Y-54223715D01*
X122629619Y-54223715D02*
X122532857Y-54272095D01*
X122532857Y-54272095D02*
X122436095Y-54272095D01*
X122436095Y-54272095D02*
X122339333Y-54223715D01*
X122339333Y-54223715D02*
X122290952Y-54175334D01*
X122290952Y-54175334D02*
X122242571Y-54078572D01*
X122242571Y-54078572D02*
X122194190Y-53885048D01*
X122194190Y-53885048D02*
X122194190Y-53643143D01*
X122194190Y-53643143D02*
X122242571Y-53449619D01*
X122242571Y-53449619D02*
X122290952Y-53352857D01*
X122290952Y-53352857D02*
X122339333Y-53304476D01*
X122339333Y-53304476D02*
X122436095Y-53256095D01*
X123645619Y-53594762D02*
X123645619Y-54272095D01*
X123403714Y-53207715D02*
X123161809Y-53933429D01*
X123161809Y-53933429D02*
X123790762Y-53933429D01*
X124371333Y-53256095D02*
X124468095Y-53256095D01*
X124468095Y-53256095D02*
X124564857Y-53304476D01*
X124564857Y-53304476D02*
X124613238Y-53352857D01*
X124613238Y-53352857D02*
X124661619Y-53449619D01*
X124661619Y-53449619D02*
X124710000Y-53643143D01*
X124710000Y-53643143D02*
X124710000Y-53885048D01*
X124710000Y-53885048D02*
X124661619Y-54078572D01*
X124661619Y-54078572D02*
X124613238Y-54175334D01*
X124613238Y-54175334D02*
X124564857Y-54223715D01*
X124564857Y-54223715D02*
X124468095Y-54272095D01*
X124468095Y-54272095D02*
X124371333Y-54272095D01*
X124371333Y-54272095D02*
X124274571Y-54223715D01*
X124274571Y-54223715D02*
X124226190Y-54175334D01*
X124226190Y-54175334D02*
X124177809Y-54078572D01*
X124177809Y-54078572D02*
X124129428Y-53885048D01*
X124129428Y-53885048D02*
X124129428Y-53643143D01*
X124129428Y-53643143D02*
X124177809Y-53449619D01*
X124177809Y-53449619D02*
X124226190Y-53352857D01*
X124226190Y-53352857D02*
X124274571Y-53304476D01*
X124274571Y-53304476D02*
X124371333Y-53256095D01*
X125097047Y-53352857D02*
X125145428Y-53304476D01*
X125145428Y-53304476D02*
X125242190Y-53256095D01*
X125242190Y-53256095D02*
X125484095Y-53256095D01*
X125484095Y-53256095D02*
X125580857Y-53304476D01*
X125580857Y-53304476D02*
X125629238Y-53352857D01*
X125629238Y-53352857D02*
X125677619Y-53449619D01*
X125677619Y-53449619D02*
X125677619Y-53546381D01*
X125677619Y-53546381D02*
X125629238Y-53691524D01*
X125629238Y-53691524D02*
X125048666Y-54272095D01*
X125048666Y-54272095D02*
X125677619Y-54272095D01*
D13*
X98919580Y-49416666D02*
X98967200Y-49464285D01*
X98967200Y-49464285D02*
X99014819Y-49607142D01*
X99014819Y-49607142D02*
X99014819Y-49702380D01*
X99014819Y-49702380D02*
X98967200Y-49845237D01*
X98967200Y-49845237D02*
X98871961Y-49940475D01*
X98871961Y-49940475D02*
X98776723Y-49988094D01*
X98776723Y-49988094D02*
X98586247Y-50035713D01*
X98586247Y-50035713D02*
X98443390Y-50035713D01*
X98443390Y-50035713D02*
X98252914Y-49988094D01*
X98252914Y-49988094D02*
X98157676Y-49940475D01*
X98157676Y-49940475D02*
X98062438Y-49845237D01*
X98062438Y-49845237D02*
X98014819Y-49702380D01*
X98014819Y-49702380D02*
X98014819Y-49607142D01*
X98014819Y-49607142D02*
X98062438Y-49464285D01*
X98062438Y-49464285D02*
X98110057Y-49416666D01*
X98014819Y-49083332D02*
X98014819Y-48416666D01*
X98014819Y-48416666D02*
X99014819Y-48845237D01*
D14*
X101325662Y-50064286D02*
X101325662Y-50498572D01*
X101325662Y-50281429D02*
X100565662Y-50281429D01*
X100565662Y-50281429D02*
X100674233Y-50353810D01*
X100674233Y-50353810D02*
X100746614Y-50426191D01*
X100746614Y-50426191D02*
X100782805Y-50498572D01*
X100565662Y-49593809D02*
X100565662Y-49521428D01*
X100565662Y-49521428D02*
X100601852Y-49449047D01*
X100601852Y-49449047D02*
X100638043Y-49412857D01*
X100638043Y-49412857D02*
X100710424Y-49376666D01*
X100710424Y-49376666D02*
X100855186Y-49340476D01*
X100855186Y-49340476D02*
X101036138Y-49340476D01*
X101036138Y-49340476D02*
X101180900Y-49376666D01*
X101180900Y-49376666D02*
X101253281Y-49412857D01*
X101253281Y-49412857D02*
X101289472Y-49449047D01*
X101289472Y-49449047D02*
X101325662Y-49521428D01*
X101325662Y-49521428D02*
X101325662Y-49593809D01*
X101325662Y-49593809D02*
X101289472Y-49666190D01*
X101289472Y-49666190D02*
X101253281Y-49702381D01*
X101253281Y-49702381D02*
X101180900Y-49738571D01*
X101180900Y-49738571D02*
X101036138Y-49774762D01*
X101036138Y-49774762D02*
X100855186Y-49774762D01*
X100855186Y-49774762D02*
X100710424Y-49738571D01*
X100710424Y-49738571D02*
X100638043Y-49702381D01*
X100638043Y-49702381D02*
X100601852Y-49666190D01*
X100601852Y-49666190D02*
X100565662Y-49593809D01*
X100818995Y-49014761D02*
X101325662Y-49014761D01*
X100891376Y-49014761D02*
X100855186Y-48978571D01*
X100855186Y-48978571D02*
X100818995Y-48906190D01*
X100818995Y-48906190D02*
X100818995Y-48797618D01*
X100818995Y-48797618D02*
X100855186Y-48725237D01*
X100855186Y-48725237D02*
X100927567Y-48689047D01*
X100927567Y-48689047D02*
X101325662Y-48689047D01*
X100927567Y-48073809D02*
X100927567Y-48327142D01*
X101325662Y-48327142D02*
X100565662Y-48327142D01*
X100565662Y-48327142D02*
X100565662Y-47965237D01*
D12*
X122000667Y-40462095D02*
X121662000Y-39978286D01*
X121420095Y-40462095D02*
X121420095Y-39446095D01*
X121420095Y-39446095D02*
X121807143Y-39446095D01*
X121807143Y-39446095D02*
X121903905Y-39494476D01*
X121903905Y-39494476D02*
X121952286Y-39542857D01*
X121952286Y-39542857D02*
X122000667Y-39639619D01*
X122000667Y-39639619D02*
X122000667Y-39784762D01*
X122000667Y-39784762D02*
X121952286Y-39881524D01*
X121952286Y-39881524D02*
X121903905Y-39929905D01*
X121903905Y-39929905D02*
X121807143Y-39978286D01*
X121807143Y-39978286D02*
X121420095Y-39978286D01*
X122871524Y-39784762D02*
X122871524Y-40462095D01*
X122629619Y-39397715D02*
X122387714Y-40123429D01*
X122387714Y-40123429D02*
X123016667Y-40123429D01*
X119242953Y-42172095D02*
X118662381Y-42172095D01*
X118952667Y-42172095D02*
X118952667Y-41156095D01*
X118952667Y-41156095D02*
X118855905Y-41301238D01*
X118855905Y-41301238D02*
X118759143Y-41398000D01*
X118759143Y-41398000D02*
X118662381Y-41446381D01*
X119871905Y-41156095D02*
X119968667Y-41156095D01*
X119968667Y-41156095D02*
X120065429Y-41204476D01*
X120065429Y-41204476D02*
X120113810Y-41252857D01*
X120113810Y-41252857D02*
X120162191Y-41349619D01*
X120162191Y-41349619D02*
X120210572Y-41543143D01*
X120210572Y-41543143D02*
X120210572Y-41785048D01*
X120210572Y-41785048D02*
X120162191Y-41978572D01*
X120162191Y-41978572D02*
X120113810Y-42075334D01*
X120113810Y-42075334D02*
X120065429Y-42123715D01*
X120065429Y-42123715D02*
X119968667Y-42172095D01*
X119968667Y-42172095D02*
X119871905Y-42172095D01*
X119871905Y-42172095D02*
X119775143Y-42123715D01*
X119775143Y-42123715D02*
X119726762Y-42075334D01*
X119726762Y-42075334D02*
X119678381Y-41978572D01*
X119678381Y-41978572D02*
X119630000Y-41785048D01*
X119630000Y-41785048D02*
X119630000Y-41543143D01*
X119630000Y-41543143D02*
X119678381Y-41349619D01*
X119678381Y-41349619D02*
X119726762Y-41252857D01*
X119726762Y-41252857D02*
X119775143Y-41204476D01*
X119775143Y-41204476D02*
X119871905Y-41156095D01*
X120646000Y-42172095D02*
X120646000Y-41156095D01*
X120742762Y-41785048D02*
X121033048Y-42172095D01*
X121033048Y-41494762D02*
X120646000Y-41881810D01*
X121226572Y-42268857D02*
X122000667Y-42268857D01*
X122436095Y-41156095D02*
X122532857Y-41156095D01*
X122532857Y-41156095D02*
X122629619Y-41204476D01*
X122629619Y-41204476D02*
X122678000Y-41252857D01*
X122678000Y-41252857D02*
X122726381Y-41349619D01*
X122726381Y-41349619D02*
X122774762Y-41543143D01*
X122774762Y-41543143D02*
X122774762Y-41785048D01*
X122774762Y-41785048D02*
X122726381Y-41978572D01*
X122726381Y-41978572D02*
X122678000Y-42075334D01*
X122678000Y-42075334D02*
X122629619Y-42123715D01*
X122629619Y-42123715D02*
X122532857Y-42172095D01*
X122532857Y-42172095D02*
X122436095Y-42172095D01*
X122436095Y-42172095D02*
X122339333Y-42123715D01*
X122339333Y-42123715D02*
X122290952Y-42075334D01*
X122290952Y-42075334D02*
X122242571Y-41978572D01*
X122242571Y-41978572D02*
X122194190Y-41785048D01*
X122194190Y-41785048D02*
X122194190Y-41543143D01*
X122194190Y-41543143D02*
X122242571Y-41349619D01*
X122242571Y-41349619D02*
X122290952Y-41252857D01*
X122290952Y-41252857D02*
X122339333Y-41204476D01*
X122339333Y-41204476D02*
X122436095Y-41156095D01*
X123645619Y-41494762D02*
X123645619Y-42172095D01*
X123403714Y-41107715D02*
X123161809Y-41833429D01*
X123161809Y-41833429D02*
X123790762Y-41833429D01*
X124371333Y-41156095D02*
X124468095Y-41156095D01*
X124468095Y-41156095D02*
X124564857Y-41204476D01*
X124564857Y-41204476D02*
X124613238Y-41252857D01*
X124613238Y-41252857D02*
X124661619Y-41349619D01*
X124661619Y-41349619D02*
X124710000Y-41543143D01*
X124710000Y-41543143D02*
X124710000Y-41785048D01*
X124710000Y-41785048D02*
X124661619Y-41978572D01*
X124661619Y-41978572D02*
X124613238Y-42075334D01*
X124613238Y-42075334D02*
X124564857Y-42123715D01*
X124564857Y-42123715D02*
X124468095Y-42172095D01*
X124468095Y-42172095D02*
X124371333Y-42172095D01*
X124371333Y-42172095D02*
X124274571Y-42123715D01*
X124274571Y-42123715D02*
X124226190Y-42075334D01*
X124226190Y-42075334D02*
X124177809Y-41978572D01*
X124177809Y-41978572D02*
X124129428Y-41785048D01*
X124129428Y-41785048D02*
X124129428Y-41543143D01*
X124129428Y-41543143D02*
X124177809Y-41349619D01*
X124177809Y-41349619D02*
X124226190Y-41252857D01*
X124226190Y-41252857D02*
X124274571Y-41204476D01*
X124274571Y-41204476D02*
X124371333Y-41156095D01*
X125097047Y-41252857D02*
X125145428Y-41204476D01*
X125145428Y-41204476D02*
X125242190Y-41156095D01*
X125242190Y-41156095D02*
X125484095Y-41156095D01*
X125484095Y-41156095D02*
X125580857Y-41204476D01*
X125580857Y-41204476D02*
X125629238Y-41252857D01*
X125629238Y-41252857D02*
X125677619Y-41349619D01*
X125677619Y-41349619D02*
X125677619Y-41446381D01*
X125677619Y-41446381D02*
X125629238Y-41591524D01*
X125629238Y-41591524D02*
X125048666Y-42172095D01*
X125048666Y-42172095D02*
X125677619Y-42172095D01*
D13*
X113937519Y-69879438D02*
X113461328Y-70212771D01*
X113937519Y-70450866D02*
X112937519Y-70450866D01*
X112937519Y-70450866D02*
X112937519Y-70069914D01*
X112937519Y-70069914D02*
X112985138Y-69974676D01*
X112985138Y-69974676D02*
X113032757Y-69927057D01*
X113032757Y-69927057D02*
X113127995Y-69879438D01*
X113127995Y-69879438D02*
X113270852Y-69879438D01*
X113270852Y-69879438D02*
X113366090Y-69927057D01*
X113366090Y-69927057D02*
X113413709Y-69974676D01*
X113413709Y-69974676D02*
X113461328Y-70069914D01*
X113461328Y-70069914D02*
X113461328Y-70450866D01*
X112937519Y-69593723D02*
X113937519Y-69260390D01*
X113937519Y-69260390D02*
X112937519Y-68927057D01*
X113270852Y-68165152D02*
X113937519Y-68165152D01*
X112889900Y-68403247D02*
X113604185Y-68641342D01*
X113604185Y-68641342D02*
X113604185Y-68022295D01*
X98413709Y-71046104D02*
X98461328Y-70903247D01*
X98461328Y-70903247D02*
X98508947Y-70855628D01*
X98508947Y-70855628D02*
X98604185Y-70808009D01*
X98604185Y-70808009D02*
X98747042Y-70808009D01*
X98747042Y-70808009D02*
X98842280Y-70855628D01*
X98842280Y-70855628D02*
X98889900Y-70903247D01*
X98889900Y-70903247D02*
X98937519Y-70998485D01*
X98937519Y-70998485D02*
X98937519Y-71379437D01*
X98937519Y-71379437D02*
X97937519Y-71379437D01*
X97937519Y-71379437D02*
X97937519Y-71046104D01*
X97937519Y-71046104D02*
X97985138Y-70950866D01*
X97985138Y-70950866D02*
X98032757Y-70903247D01*
X98032757Y-70903247D02*
X98127995Y-70855628D01*
X98127995Y-70855628D02*
X98223233Y-70855628D01*
X98223233Y-70855628D02*
X98318471Y-70903247D01*
X98318471Y-70903247D02*
X98366090Y-70950866D01*
X98366090Y-70950866D02*
X98413709Y-71046104D01*
X98413709Y-71046104D02*
X98413709Y-71379437D01*
X98937519Y-69855628D02*
X98937519Y-70427056D01*
X98937519Y-70141342D02*
X97937519Y-70141342D01*
X97937519Y-70141342D02*
X98080376Y-70236580D01*
X98080376Y-70236580D02*
X98175614Y-70331818D01*
X98175614Y-70331818D02*
X98223233Y-70427056D01*
X97937519Y-69236580D02*
X97937519Y-69141342D01*
X97937519Y-69141342D02*
X97985138Y-69046104D01*
X97985138Y-69046104D02*
X98032757Y-68998485D01*
X98032757Y-68998485D02*
X98127995Y-68950866D01*
X98127995Y-68950866D02*
X98318471Y-68903247D01*
X98318471Y-68903247D02*
X98556566Y-68903247D01*
X98556566Y-68903247D02*
X98747042Y-68950866D01*
X98747042Y-68950866D02*
X98842280Y-68998485D01*
X98842280Y-68998485D02*
X98889900Y-69046104D01*
X98889900Y-69046104D02*
X98937519Y-69141342D01*
X98937519Y-69141342D02*
X98937519Y-69236580D01*
X98937519Y-69236580D02*
X98889900Y-69331818D01*
X98889900Y-69331818D02*
X98842280Y-69379437D01*
X98842280Y-69379437D02*
X98747042Y-69427056D01*
X98747042Y-69427056D02*
X98556566Y-69474675D01*
X98556566Y-69474675D02*
X98318471Y-69474675D01*
X98318471Y-69474675D02*
X98127995Y-69427056D01*
X98127995Y-69427056D02*
X98032757Y-69379437D01*
X98032757Y-69379437D02*
X97985138Y-69331818D01*
X97985138Y-69331818D02*
X97937519Y-69236580D01*
X97937519Y-68284199D02*
X97937519Y-68188961D01*
X97937519Y-68188961D02*
X97985138Y-68093723D01*
X97985138Y-68093723D02*
X98032757Y-68046104D01*
X98032757Y-68046104D02*
X98127995Y-67998485D01*
X98127995Y-67998485D02*
X98318471Y-67950866D01*
X98318471Y-67950866D02*
X98556566Y-67950866D01*
X98556566Y-67950866D02*
X98747042Y-67998485D01*
X98747042Y-67998485D02*
X98842280Y-68046104D01*
X98842280Y-68046104D02*
X98889900Y-68093723D01*
X98889900Y-68093723D02*
X98937519Y-68188961D01*
X98937519Y-68188961D02*
X98937519Y-68284199D01*
X98937519Y-68284199D02*
X98889900Y-68379437D01*
X98889900Y-68379437D02*
X98842280Y-68427056D01*
X98842280Y-68427056D02*
X98747042Y-68474675D01*
X98747042Y-68474675D02*
X98556566Y-68522294D01*
X98556566Y-68522294D02*
X98318471Y-68522294D01*
X98318471Y-68522294D02*
X98127995Y-68474675D01*
X98127995Y-68474675D02*
X98032757Y-68427056D01*
X98032757Y-68427056D02*
X97985138Y-68379437D01*
X97985138Y-68379437D02*
X97937519Y-68284199D01*
X98937519Y-67522294D02*
X97937519Y-67522294D01*
X98556566Y-67427056D02*
X98937519Y-67141342D01*
X98270852Y-67141342D02*
X98651804Y-67522294D01*
X73919580Y-49416666D02*
X73967200Y-49464285D01*
X73967200Y-49464285D02*
X74014819Y-49607142D01*
X74014819Y-49607142D02*
X74014819Y-49702380D01*
X74014819Y-49702380D02*
X73967200Y-49845237D01*
X73967200Y-49845237D02*
X73871961Y-49940475D01*
X73871961Y-49940475D02*
X73776723Y-49988094D01*
X73776723Y-49988094D02*
X73586247Y-50035713D01*
X73586247Y-50035713D02*
X73443390Y-50035713D01*
X73443390Y-50035713D02*
X73252914Y-49988094D01*
X73252914Y-49988094D02*
X73157676Y-49940475D01*
X73157676Y-49940475D02*
X73062438Y-49845237D01*
X73062438Y-49845237D02*
X73014819Y-49702380D01*
X73014819Y-49702380D02*
X73014819Y-49607142D01*
X73014819Y-49607142D02*
X73062438Y-49464285D01*
X73062438Y-49464285D02*
X73110057Y-49416666D01*
X74014819Y-48464285D02*
X74014819Y-49035713D01*
X74014819Y-48749999D02*
X73014819Y-48749999D01*
X73014819Y-48749999D02*
X73157676Y-48845237D01*
X73157676Y-48845237D02*
X73252914Y-48940475D01*
X73252914Y-48940475D02*
X73300533Y-49035713D01*
D14*
X76325662Y-50064286D02*
X76325662Y-50498572D01*
X76325662Y-50281429D02*
X75565662Y-50281429D01*
X75565662Y-50281429D02*
X75674233Y-50353810D01*
X75674233Y-50353810D02*
X75746614Y-50426191D01*
X75746614Y-50426191D02*
X75782805Y-50498572D01*
X75565662Y-49593809D02*
X75565662Y-49521428D01*
X75565662Y-49521428D02*
X75601852Y-49449047D01*
X75601852Y-49449047D02*
X75638043Y-49412857D01*
X75638043Y-49412857D02*
X75710424Y-49376666D01*
X75710424Y-49376666D02*
X75855186Y-49340476D01*
X75855186Y-49340476D02*
X76036138Y-49340476D01*
X76036138Y-49340476D02*
X76180900Y-49376666D01*
X76180900Y-49376666D02*
X76253281Y-49412857D01*
X76253281Y-49412857D02*
X76289472Y-49449047D01*
X76289472Y-49449047D02*
X76325662Y-49521428D01*
X76325662Y-49521428D02*
X76325662Y-49593809D01*
X76325662Y-49593809D02*
X76289472Y-49666190D01*
X76289472Y-49666190D02*
X76253281Y-49702381D01*
X76253281Y-49702381D02*
X76180900Y-49738571D01*
X76180900Y-49738571D02*
X76036138Y-49774762D01*
X76036138Y-49774762D02*
X75855186Y-49774762D01*
X75855186Y-49774762D02*
X75710424Y-49738571D01*
X75710424Y-49738571D02*
X75638043Y-49702381D01*
X75638043Y-49702381D02*
X75601852Y-49666190D01*
X75601852Y-49666190D02*
X75565662Y-49593809D01*
X75818995Y-49014761D02*
X76325662Y-49014761D01*
X75891376Y-49014761D02*
X75855186Y-48978571D01*
X75855186Y-48978571D02*
X75818995Y-48906190D01*
X75818995Y-48906190D02*
X75818995Y-48797618D01*
X75818995Y-48797618D02*
X75855186Y-48725237D01*
X75855186Y-48725237D02*
X75927567Y-48689047D01*
X75927567Y-48689047D02*
X76325662Y-48689047D01*
X75927567Y-48073809D02*
X75927567Y-48327142D01*
X76325662Y-48327142D02*
X75565662Y-48327142D01*
X75565662Y-48327142D02*
X75565662Y-47965237D01*
D13*
X131146667Y-63783200D02*
X131289524Y-63830819D01*
X131289524Y-63830819D02*
X131527619Y-63830819D01*
X131527619Y-63830819D02*
X131622857Y-63783200D01*
X131622857Y-63783200D02*
X131670476Y-63735580D01*
X131670476Y-63735580D02*
X131718095Y-63640342D01*
X131718095Y-63640342D02*
X131718095Y-63545104D01*
X131718095Y-63545104D02*
X131670476Y-63449866D01*
X131670476Y-63449866D02*
X131622857Y-63402247D01*
X131622857Y-63402247D02*
X131527619Y-63354628D01*
X131527619Y-63354628D02*
X131337143Y-63307009D01*
X131337143Y-63307009D02*
X131241905Y-63259390D01*
X131241905Y-63259390D02*
X131194286Y-63211771D01*
X131194286Y-63211771D02*
X131146667Y-63116533D01*
X131146667Y-63116533D02*
X131146667Y-63021295D01*
X131146667Y-63021295D02*
X131194286Y-62926057D01*
X131194286Y-62926057D02*
X131241905Y-62878438D01*
X131241905Y-62878438D02*
X131337143Y-62830819D01*
X131337143Y-62830819D02*
X131575238Y-62830819D01*
X131575238Y-62830819D02*
X131718095Y-62878438D01*
X132051429Y-62830819D02*
X132289524Y-63830819D01*
X132289524Y-63830819D02*
X132480000Y-63116533D01*
X132480000Y-63116533D02*
X132670476Y-63830819D01*
X132670476Y-63830819D02*
X132908572Y-62830819D01*
X133813333Y-63830819D02*
X133241905Y-63830819D01*
X133527619Y-63830819D02*
X133527619Y-62830819D01*
X133527619Y-62830819D02*
X133432381Y-62973676D01*
X133432381Y-62973676D02*
X133337143Y-63068914D01*
X133337143Y-63068914D02*
X133241905Y-63116533D01*
D11*
G36*
X140659215Y-43425258D02*
G01*
X140588666Y-43421651D01*
X140520058Y-43410908D01*
X140453724Y-43393083D01*
X140392563Y-43368899D01*
X140335603Y-43338118D01*
X140285279Y-43302220D01*
X140372046Y-43147737D01*
X140433397Y-43189208D01*
X140504670Y-43220521D01*
X140580939Y-43239758D01*
X140659215Y-43246167D01*
X140719805Y-43242144D01*
X140766208Y-43231324D01*
X140801364Y-43215087D01*
X140829901Y-43190993D01*
X140846341Y-43162247D01*
X140851984Y-43127220D01*
X140851984Y-43126549D01*
X140845253Y-43087483D01*
X140826643Y-43060542D01*
X140798301Y-43041124D01*
X140760026Y-43026714D01*
X140670145Y-43008274D01*
X140552542Y-42986048D01*
X140495108Y-42968660D01*
X140443182Y-42943672D01*
X140398503Y-42908743D01*
X140362826Y-42860629D01*
X140346794Y-42823330D01*
X140336272Y-42776012D01*
X140332418Y-42716343D01*
X140332418Y-42715671D01*
X140338925Y-42644234D01*
X140357339Y-42584264D01*
X140386904Y-42533526D01*
X140428100Y-42490479D01*
X140477562Y-42457383D01*
X140537670Y-42432529D01*
X140610560Y-42416543D01*
X140698843Y-42410795D01*
X140779356Y-42417421D01*
X140862913Y-42437845D01*
X140943437Y-42470573D01*
X141018069Y-42514720D01*
X140938751Y-42673295D01*
X140879637Y-42637466D01*
X140818767Y-42611441D01*
X140756466Y-42595086D01*
X140698843Y-42589886D01*
X140641780Y-42593577D01*
X140598268Y-42603479D01*
X140565487Y-42618279D01*
X140538820Y-42640271D01*
X140523561Y-42666328D01*
X140518348Y-42697903D01*
X140518348Y-42698574D01*
X140521787Y-42729258D01*
X140531269Y-42752858D01*
X140546375Y-42771053D01*
X140577638Y-42791977D01*
X140619525Y-42807629D01*
X140716612Y-42829855D01*
X140830734Y-42856844D01*
X140885446Y-42876563D01*
X140934660Y-42903005D01*
X140976771Y-42938371D01*
X141009887Y-42985682D01*
X141024735Y-43021870D01*
X141034401Y-43066810D01*
X141037913Y-43122397D01*
X141037913Y-43123801D01*
X141031242Y-43193922D01*
X141012297Y-43253037D01*
X140981702Y-43303345D01*
X140938751Y-43346306D01*
X140887777Y-43379004D01*
X140825744Y-43403650D01*
X140750444Y-43419539D01*
X140659215Y-43425258D01*
G37*
G36*
X141493548Y-43425258D02*
G01*
X141423000Y-43421651D01*
X141354391Y-43410908D01*
X141288058Y-43393083D01*
X141226896Y-43368899D01*
X141169936Y-43338118D01*
X141119613Y-43302220D01*
X141206380Y-43147737D01*
X141267730Y-43189208D01*
X141339004Y-43220521D01*
X141415272Y-43239758D01*
X141493548Y-43246167D01*
X141554138Y-43242144D01*
X141600541Y-43231324D01*
X141635698Y-43215087D01*
X141664234Y-43190993D01*
X141680674Y-43162247D01*
X141686317Y-43127220D01*
X141686317Y-43126549D01*
X141679587Y-43087483D01*
X141660977Y-43060542D01*
X141632635Y-43041124D01*
X141594360Y-43026714D01*
X141504478Y-43008274D01*
X141386875Y-42986048D01*
X141329441Y-42968660D01*
X141277516Y-42943672D01*
X141232836Y-42908743D01*
X141197160Y-42860629D01*
X141181128Y-42823330D01*
X141170606Y-42776012D01*
X141166752Y-42716343D01*
X141166752Y-42715671D01*
X141173258Y-42644234D01*
X141191673Y-42584264D01*
X141221238Y-42533526D01*
X141262434Y-42490479D01*
X141311896Y-42457383D01*
X141372003Y-42432529D01*
X141444893Y-42416543D01*
X141533177Y-42410795D01*
X141613690Y-42417421D01*
X141697247Y-42437845D01*
X141777770Y-42470573D01*
X141852402Y-42514720D01*
X141773084Y-42673295D01*
X141713971Y-42637466D01*
X141653100Y-42611441D01*
X141590800Y-42595086D01*
X141533177Y-42589886D01*
X141476113Y-42593577D01*
X141432601Y-42603479D01*
X141399820Y-42618279D01*
X141373153Y-42640271D01*
X141357894Y-42666328D01*
X141352681Y-42697903D01*
X141352681Y-42698574D01*
X141356120Y-42729258D01*
X141365603Y-42752858D01*
X141380708Y-42771053D01*
X141411971Y-42791977D01*
X141453859Y-42807629D01*
X141550946Y-42829855D01*
X141665068Y-42856844D01*
X141719779Y-42876563D01*
X141768993Y-42903005D01*
X141811104Y-42938371D01*
X141844220Y-42985682D01*
X141859068Y-43021870D01*
X141868735Y-43066810D01*
X141872247Y-43122397D01*
X141872247Y-43123801D01*
X141865576Y-43193922D01*
X141846631Y-43253037D01*
X141816035Y-43303345D01*
X141773084Y-43346306D01*
X141722111Y-43379004D01*
X141660077Y-43403650D01*
X141584778Y-43419539D01*
X141493548Y-43425258D01*
G37*
G36*
X142123451Y-43415000D02*
G01*
X142123451Y-43234504D01*
X142362015Y-43234504D01*
X142422018Y-43228921D01*
X142468662Y-43213618D01*
X142504897Y-43189747D01*
X142532472Y-43156830D01*
X142549459Y-43115837D01*
X142555516Y-43064328D01*
X142555516Y-42771725D01*
X142549433Y-42719774D01*
X142532425Y-42678712D01*
X142504897Y-42646001D01*
X142468686Y-42622304D01*
X142422043Y-42607098D01*
X142362015Y-42601549D01*
X142123451Y-42601549D01*
X142123451Y-42421053D01*
X142357924Y-42421053D01*
X142451893Y-42427705D01*
X142529676Y-42446267D01*
X142594101Y-42475308D01*
X142647413Y-42514354D01*
X142691027Y-42564163D01*
X142722691Y-42623224D01*
X142742574Y-42693393D01*
X142749628Y-42777220D01*
X142749628Y-43058832D01*
X142744499Y-43128384D01*
X142729736Y-43190056D01*
X142705848Y-43245129D01*
X142672195Y-43294335D01*
X142628952Y-43335859D01*
X142574934Y-43370242D01*
X142515196Y-43394161D01*
X142443430Y-43409501D01*
X142357252Y-43415000D01*
X142123451Y-43415000D01*
G37*
G36*
X142029112Y-43415000D02*
G01*
X142029112Y-42421053D01*
X142216446Y-42421053D01*
X142216446Y-43415000D01*
X142029112Y-43415000D01*
G37*
G36*
X143194272Y-42421053D02*
G01*
X143194272Y-43415000D01*
X143006938Y-43415000D01*
X143006938Y-42641177D01*
X142885977Y-42686973D01*
X142885977Y-42488037D01*
X143034293Y-42421053D01*
X143194272Y-42421053D01*
G37*
G36*
X143669569Y-43425258D02*
G01*
X143610577Y-43421427D01*
X143557539Y-43410365D01*
X143509590Y-43392468D01*
X143465487Y-43367061D01*
X143428356Y-43335520D01*
X143397483Y-43297458D01*
X143374275Y-43254263D01*
X143358644Y-43204540D01*
X143351015Y-43147004D01*
X143544456Y-43147004D01*
X143556908Y-43188713D01*
X143578650Y-43218140D01*
X143609273Y-43236861D01*
X143649053Y-43243419D01*
X143683379Y-43239780D01*
X143710272Y-43229706D01*
X143731424Y-43213682D01*
X143747053Y-43192161D01*
X143756920Y-43164817D01*
X143760488Y-43129968D01*
X143760488Y-43106704D01*
X143753977Y-43054301D01*
X143736858Y-43019204D01*
X143719173Y-43002289D01*
X143697198Y-42992052D01*
X143669569Y-42988429D01*
X143585488Y-42988429D01*
X143585488Y-42807995D01*
X143669569Y-42807995D01*
X143701333Y-42801129D01*
X143724585Y-42781006D01*
X143738702Y-42750432D01*
X143744063Y-42705413D01*
X143744063Y-42688316D01*
X143738199Y-42646225D01*
X143722509Y-42617608D01*
X143697315Y-42599156D01*
X143662059Y-42592634D01*
X143626708Y-42599753D01*
X143596724Y-42621332D01*
X143574816Y-42654416D01*
X143560148Y-42702665D01*
X143367380Y-42702665D01*
X143378766Y-42634243D01*
X143398928Y-42576661D01*
X143427245Y-42528143D01*
X143463794Y-42487365D01*
X143507987Y-42453962D01*
X143556295Y-42430243D01*
X143609557Y-42415778D01*
X143668897Y-42410795D01*
X143734936Y-42415576D01*
X143789698Y-42428936D01*
X143835167Y-42449888D01*
X143872901Y-42478145D01*
X143903541Y-42513984D01*
X143925898Y-42556757D01*
X143939997Y-42607866D01*
X143945014Y-42669204D01*
X143945014Y-42699246D01*
X143940974Y-42744203D01*
X143929290Y-42783987D01*
X143910148Y-42819596D01*
X143884074Y-42850486D01*
X143851374Y-42875944D01*
X143811047Y-42896167D01*
X143855801Y-42912042D01*
X143892380Y-42936895D01*
X143922116Y-42971332D01*
X143943266Y-43012280D01*
X143956658Y-43061552D01*
X143961439Y-43121053D01*
X143961439Y-43151156D01*
X143956129Y-43215839D01*
X143941185Y-43269904D01*
X143917448Y-43315312D01*
X143884869Y-43353511D01*
X143844776Y-43383673D01*
X143796670Y-43405987D01*
X143738950Y-43420185D01*
X143669569Y-43425258D01*
G37*
G36*
X144503058Y-42414132D02*
G01*
X144563227Y-42429117D01*
X144612011Y-42452398D01*
X144651425Y-42483579D01*
X144683218Y-42523107D01*
X144706452Y-42569839D01*
X144721091Y-42625197D01*
X144726286Y-42691064D01*
X144726286Y-43142913D01*
X144721085Y-43208381D01*
X144706407Y-43263585D01*
X144683063Y-43310360D01*
X144651059Y-43350092D01*
X144611474Y-43381453D01*
X144562670Y-43404826D01*
X144502681Y-43419842D01*
X144428981Y-43425258D01*
X144354527Y-43419748D01*
X144294215Y-43404502D01*
X144245404Y-43380812D01*
X144206048Y-43349054D01*
X144174263Y-43308855D01*
X144151146Y-43262023D01*
X144136666Y-43207275D01*
X144131554Y-43142913D01*
X144131554Y-42738935D01*
X144318889Y-42738935D01*
X144318889Y-43095102D01*
X144322173Y-43141053D01*
X144331106Y-43176952D01*
X144344717Y-43204829D01*
X144364926Y-43226516D01*
X144392265Y-43239897D01*
X144429164Y-43244762D01*
X144466054Y-43239891D01*
X144493302Y-43226508D01*
X144513367Y-43204829D01*
X144526877Y-43176966D01*
X144535749Y-43141066D01*
X144539013Y-43095102D01*
X144539013Y-42738935D01*
X144535717Y-42692513D01*
X144526788Y-42656552D01*
X144513245Y-42628904D01*
X144493135Y-42607354D01*
X144465916Y-42594053D01*
X144429164Y-42589214D01*
X144392403Y-42594047D01*
X144365093Y-42607346D01*
X144344839Y-42628904D01*
X144331195Y-42656566D01*
X144322206Y-42692528D01*
X144318889Y-42738935D01*
X144131554Y-42738935D01*
X144131554Y-42691064D01*
X144136756Y-42625594D01*
X144151436Y-42570402D01*
X144174779Y-42523648D01*
X144206781Y-42483946D01*
X144246429Y-42452550D01*
X144295270Y-42429159D01*
X144355262Y-42414136D01*
X144428920Y-42408719D01*
X144503058Y-42414132D01*
G37*
G36*
X145168907Y-42828274D02*
G01*
X145205551Y-42824359D01*
X145266342Y-42829676D01*
X145317324Y-42844693D01*
X145360366Y-42868705D01*
X145396793Y-42901967D01*
X145425103Y-42942278D01*
X145446238Y-42991031D01*
X145459776Y-43049922D01*
X145464632Y-43121053D01*
X145464632Y-43121725D01*
X145459259Y-43193738D01*
X145444204Y-43253723D01*
X145420498Y-43303805D01*
X145388367Y-43345635D01*
X145347937Y-43379431D01*
X145299755Y-43404129D01*
X145242262Y-43419713D01*
X145173372Y-43425258D01*
X145104813Y-43419785D01*
X145047532Y-43404398D01*
X144999478Y-43380016D01*
X144959110Y-43346673D01*
X144926989Y-43305332D01*
X144903307Y-43255805D01*
X144888272Y-43196451D01*
X144883536Y-43133510D01*
X145070180Y-43133510D01*
X145070180Y-43134059D01*
X145073542Y-43168687D01*
X145082756Y-43195450D01*
X145097168Y-43216125D01*
X145116923Y-43231611D01*
X145141872Y-43241284D01*
X145173555Y-43244762D01*
X145205948Y-43241216D01*
X145231070Y-43231417D01*
X145250614Y-43215819D01*
X145264856Y-43194940D01*
X145273971Y-43167967D01*
X145277298Y-43133143D01*
X145277298Y-43132655D01*
X145273922Y-43092692D01*
X145264739Y-43061868D01*
X145250614Y-43038194D01*
X145230719Y-43020004D01*
X145205545Y-43008843D01*
X145173433Y-43004855D01*
X145142238Y-43008832D01*
X145117315Y-43020065D01*
X145097168Y-43038560D01*
X145082866Y-43062450D01*
X145073585Y-43093445D01*
X145070180Y-43133510D01*
X144883536Y-43133510D01*
X144882906Y-43125144D01*
X144882906Y-43124473D01*
X144887357Y-43059615D01*
X144901347Y-42988796D01*
X144923135Y-42918316D01*
X144951905Y-42848967D01*
X145153589Y-42421053D01*
X145365469Y-42421053D01*
X145168907Y-42828274D01*
G37*
D13*
%TO.C,R3*%
X119170000Y-43000000D02*
X119170000Y-45000000D01*
X119170000Y-45000000D02*
X125170000Y-45000000D01*
X125170000Y-43000000D02*
X119170000Y-43000000D01*
X125170000Y-45000000D02*
X125170000Y-43000000D01*
%TO.C,R5*%
X32480000Y-37310000D02*
X32480000Y-43310000D01*
X32480000Y-43310000D02*
X34480000Y-43310000D01*
X34480000Y-37310000D02*
X32480000Y-37310000D01*
X34480000Y-43310000D02*
X34480000Y-37310000D01*
D15*
%TO.C,RV6*%
X55112700Y-86624200D02*
X55112700Y-91344200D01*
X55112700Y-86624200D02*
X56602700Y-86624200D01*
X55112700Y-95154200D02*
X55112700Y-98214200D01*
X55112700Y-98214200D02*
X64852700Y-98214200D01*
X58322700Y-86624200D02*
X59152700Y-86624200D01*
X60772700Y-86624200D02*
X61302700Y-86624200D01*
X63672700Y-86624200D02*
X64852700Y-86624200D01*
X64852700Y-95154200D02*
X64852700Y-98214200D01*
X64862700Y-86624200D02*
X64862700Y-91344200D01*
%TO.C,C9*%
X96880000Y-30630000D02*
X96880000Y-35870000D01*
X97217000Y-30630000D02*
X96880000Y-30630000D01*
X97217000Y-35870000D02*
X96880000Y-35870000D01*
X99620000Y-30630000D02*
X99283000Y-30630000D01*
X99620000Y-30630000D02*
X99620000Y-35870000D01*
X99620000Y-35870000D02*
X99283000Y-35870000D01*
%TO.C,RV3*%
X78112700Y-62664200D02*
X78112700Y-67384200D01*
X78112700Y-62664200D02*
X79602700Y-62664200D01*
X78112700Y-71194200D02*
X78112700Y-74254200D01*
X78112700Y-74254200D02*
X87852700Y-74254200D01*
X81322700Y-62664200D02*
X82152700Y-62664200D01*
X83772700Y-62664200D02*
X84302700Y-62664200D01*
X86672700Y-62664200D02*
X87852700Y-62664200D01*
X87852700Y-71194200D02*
X87852700Y-74254200D01*
X87862700Y-62664200D02*
X87862700Y-67384200D01*
%TO.C,RV7*%
X78112700Y-86624200D02*
X78112700Y-91344200D01*
X78112700Y-86624200D02*
X79602700Y-86624200D01*
X78112700Y-95154200D02*
X78112700Y-98214200D01*
X78112700Y-98214200D02*
X87852700Y-98214200D01*
X81322700Y-86624200D02*
X82152700Y-86624200D01*
X83772700Y-86624200D02*
X84302700Y-86624200D01*
X86672700Y-86624200D02*
X87852700Y-86624200D01*
X87852700Y-95154200D02*
X87852700Y-98214200D01*
X87862700Y-86624200D02*
X87862700Y-91344200D01*
%TO.C,C2*%
X79560000Y-47230000D02*
X79560000Y-51270000D01*
X79560000Y-51270000D02*
X82400000Y-51270000D01*
X80980000Y-46540000D02*
X80980000Y-47230000D01*
X80980000Y-51960000D02*
X80980000Y-51270000D01*
X82400000Y-47230000D02*
X79560000Y-47230000D01*
X82400000Y-51270000D02*
X82400000Y-47230000D01*
%TO.C,C5*%
X109560000Y-47230000D02*
X109560000Y-51270000D01*
X109560000Y-51270000D02*
X112400000Y-51270000D01*
X110980000Y-46540000D02*
X110980000Y-47230000D01*
X110980000Y-51960000D02*
X110980000Y-51270000D01*
X112400000Y-47230000D02*
X109560000Y-47230000D01*
X112400000Y-51270000D02*
X112400000Y-47230000D01*
%TO.C,RV8*%
X101112700Y-86624200D02*
X101112700Y-91344200D01*
X101112700Y-86624200D02*
X102602700Y-86624200D01*
X101112700Y-95154200D02*
X101112700Y-98214200D01*
X101112700Y-98214200D02*
X110852700Y-98214200D01*
X104322700Y-86624200D02*
X105152700Y-86624200D01*
X106772700Y-86624200D02*
X107302700Y-86624200D01*
X109672700Y-86624200D02*
X110852700Y-86624200D01*
X110852700Y-95154200D02*
X110852700Y-98214200D01*
X110862700Y-86624200D02*
X110862700Y-91344200D01*
D13*
%TO.C,R2*%
X119170000Y-47000000D02*
X119170000Y-49000000D01*
X119170000Y-49000000D02*
X125170000Y-49000000D01*
X125170000Y-47000000D02*
X119170000Y-47000000D01*
X125170000Y-49000000D02*
X125170000Y-47000000D01*
D15*
%TO.C,C12*%
X101630000Y-30630000D02*
X101630000Y-35870000D01*
X101967000Y-30630000D02*
X101630000Y-30630000D01*
X101967000Y-35870000D02*
X101630000Y-35870000D01*
X104370000Y-30630000D02*
X104033000Y-30630000D01*
X104370000Y-30630000D02*
X104370000Y-35870000D01*
X104370000Y-35870000D02*
X104033000Y-35870000D01*
%TO.C,RV5*%
X32112700Y-86624200D02*
X32112700Y-91344200D01*
X32112700Y-86624200D02*
X33602700Y-86624200D01*
X32112700Y-95154200D02*
X32112700Y-98214200D01*
X32112700Y-98214200D02*
X41852700Y-98214200D01*
X35322700Y-86624200D02*
X36152700Y-86624200D01*
X37772700Y-86624200D02*
X38302700Y-86624200D01*
X40672700Y-86624200D02*
X41852700Y-86624200D01*
X41852700Y-95154200D02*
X41852700Y-98214200D01*
X41862700Y-86624200D02*
X41862700Y-91344200D01*
%TO.C,RV1*%
X32112700Y-62664200D02*
X32112700Y-67384200D01*
X32112700Y-62664200D02*
X33602700Y-62664200D01*
X32112700Y-71194200D02*
X32112700Y-74254200D01*
X32112700Y-74254200D02*
X41852700Y-74254200D01*
X35322700Y-62664200D02*
X36152700Y-62664200D01*
X37772700Y-62664200D02*
X38302700Y-62664200D01*
X40672700Y-62664200D02*
X41852700Y-62664200D01*
X41852700Y-71194200D02*
X41852700Y-74254200D01*
X41862700Y-62664200D02*
X41862700Y-67384200D01*
D13*
%TO.C,R6*%
X39980000Y-36810000D02*
X39980000Y-42810000D01*
X39980000Y-42810000D02*
X41980000Y-42810000D01*
X41980000Y-36810000D02*
X39980000Y-36810000D01*
X41980000Y-42810000D02*
X41980000Y-36810000D01*
D15*
%TO.C,C8*%
X94560000Y-47230000D02*
X94560000Y-51270000D01*
X94560000Y-51270000D02*
X97400000Y-51270000D01*
X95980000Y-46540000D02*
X95980000Y-47230000D01*
X95980000Y-51960000D02*
X95980000Y-51270000D01*
X97400000Y-47230000D02*
X94560000Y-47230000D01*
X97400000Y-51270000D02*
X97400000Y-47230000D01*
%TO.C,C4*%
X89560000Y-47230000D02*
X89560000Y-51270000D01*
X89560000Y-51270000D02*
X92400000Y-51270000D01*
X90980000Y-46540000D02*
X90980000Y-47230000D01*
X90980000Y-51960000D02*
X90980000Y-51270000D01*
X92400000Y-47230000D02*
X89560000Y-47230000D01*
X92400000Y-51270000D02*
X92400000Y-47230000D01*
%TO.C,C13*%
X107660000Y-34500000D02*
X106420000Y-34500000D01*
X107660000Y-34540000D02*
X106420000Y-34540000D01*
X107660000Y-34580000D02*
X106422000Y-34580000D01*
X107660000Y-34620000D02*
X106423000Y-34620000D01*
X107660000Y-34660000D02*
X106426000Y-34660000D01*
X107660000Y-34700000D02*
X106429000Y-34700000D01*
X107660000Y-34740000D02*
X106434000Y-34740000D01*
X107660000Y-34780000D02*
X106439000Y-34780000D01*
X107660000Y-34820000D02*
X106444000Y-34820000D01*
X107660000Y-34860000D02*
X106451000Y-34860000D01*
X107660000Y-34900000D02*
X106458000Y-34900000D01*
X107660000Y-34940000D02*
X106466000Y-34940000D01*
X107660000Y-34980000D02*
X106475000Y-34980000D01*
X107660000Y-35020000D02*
X106485000Y-35020000D01*
X107660000Y-35060000D02*
X106495000Y-35060000D01*
X107660000Y-35100000D02*
X106507000Y-35100000D01*
X107660000Y-35140000D02*
X106519000Y-35140000D01*
X107660000Y-35180000D02*
X106532000Y-35180000D01*
X107660000Y-35220000D02*
X106546000Y-35220000D01*
X107660000Y-35260000D02*
X106561000Y-35260000D01*
X107660000Y-35300000D02*
X106577000Y-35300000D01*
X107660000Y-35340000D02*
X106594000Y-35340000D01*
X107660000Y-35380000D02*
X106611000Y-35380000D01*
X107660000Y-35420000D02*
X106630000Y-35420000D01*
X107660000Y-35460000D02*
X106650000Y-35460000D01*
X107660000Y-35500000D02*
X106671000Y-35500000D01*
X107660000Y-35540000D02*
X106693000Y-35540000D01*
X107660000Y-35580000D02*
X106716000Y-35580000D01*
X107660000Y-35620000D02*
X106740000Y-35620000D01*
X107660000Y-35660000D02*
X106766000Y-35660000D01*
X107660000Y-35700000D02*
X106792000Y-35700000D01*
X107660000Y-35740000D02*
X106820000Y-35740000D01*
X107660000Y-35780000D02*
X106850000Y-35780000D01*
X107660000Y-35820000D02*
X106881000Y-35820000D01*
X107660000Y-35860000D02*
X106914000Y-35860000D01*
X107660000Y-35900000D02*
X106948000Y-35900000D01*
X107660000Y-35940000D02*
X106984000Y-35940000D01*
X107660000Y-35980000D02*
X107022000Y-35980000D01*
X107660000Y-36020000D02*
X107062000Y-36020000D01*
X107660000Y-36060000D02*
X107104000Y-36060000D01*
X108870000Y-36580000D02*
X108130000Y-36580000D01*
X109037000Y-36540000D02*
X107963000Y-36540000D01*
X109163000Y-36500000D02*
X107837000Y-36500000D01*
X109268000Y-36460000D02*
X107732000Y-36460000D01*
X109359000Y-36420000D02*
X107641000Y-36420000D01*
X109440000Y-36380000D02*
X107560000Y-36380000D01*
X109513000Y-36340000D02*
X107487000Y-36340000D01*
X109580000Y-36300000D02*
X107420000Y-36300000D01*
X109642000Y-36260000D02*
X107358000Y-36260000D01*
X109695000Y-32230199D02*
X109695000Y-32630199D01*
X109699000Y-36220000D02*
X107301000Y-36220000D01*
X109753000Y-36180000D02*
X107247000Y-36180000D01*
X109803000Y-36140000D02*
X107197000Y-36140000D01*
X109851000Y-36100000D02*
X107149000Y-36100000D01*
X109895000Y-32430199D02*
X109495000Y-32430199D01*
X109896000Y-36060000D02*
X109340000Y-36060000D01*
X109938000Y-36020000D02*
X109340000Y-36020000D01*
X109978000Y-35980000D02*
X109340000Y-35980000D01*
X110016000Y-35940000D02*
X109340000Y-35940000D01*
X110052000Y-35900000D02*
X109340000Y-35900000D01*
X110086000Y-35860000D02*
X109340000Y-35860000D01*
X110119000Y-35820000D02*
X109340000Y-35820000D01*
X110150000Y-35780000D02*
X109340000Y-35780000D01*
X110180000Y-35740000D02*
X109340000Y-35740000D01*
X110208000Y-35700000D02*
X109340000Y-35700000D01*
X110234000Y-35660000D02*
X109340000Y-35660000D01*
X110260000Y-35620000D02*
X109340000Y-35620000D01*
X110284000Y-35580000D02*
X109340000Y-35580000D01*
X110307000Y-35540000D02*
X109340000Y-35540000D01*
X110329000Y-35500000D02*
X109340000Y-35500000D01*
X110350000Y-35460000D02*
X109340000Y-35460000D01*
X110370000Y-35420000D02*
X109340000Y-35420000D01*
X110389000Y-35380000D02*
X109340000Y-35380000D01*
X110406000Y-35340000D02*
X109340000Y-35340000D01*
X110423000Y-35300000D02*
X109340000Y-35300000D01*
X110439000Y-35260000D02*
X109340000Y-35260000D01*
X110454000Y-35220000D02*
X109340000Y-35220000D01*
X110468000Y-35180000D02*
X109340000Y-35180000D01*
X110481000Y-35140000D02*
X109340000Y-35140000D01*
X110493000Y-35100000D02*
X109340000Y-35100000D01*
X110505000Y-35060000D02*
X109340000Y-35060000D01*
X110515000Y-35020000D02*
X109340000Y-35020000D01*
X110525000Y-34980000D02*
X109340000Y-34980000D01*
X110534000Y-34940000D02*
X109340000Y-34940000D01*
X110542000Y-34900000D02*
X109340000Y-34900000D01*
X110549000Y-34860000D02*
X109340000Y-34860000D01*
X110556000Y-34820000D02*
X109340000Y-34820000D01*
X110561000Y-34780000D02*
X109340000Y-34780000D01*
X110566000Y-34740000D02*
X109340000Y-34740000D01*
X110571000Y-34700000D02*
X109340000Y-34700000D01*
X110574000Y-34660000D02*
X109340000Y-34660000D01*
X110577000Y-34620000D02*
X109340000Y-34620000D01*
X110578000Y-34580000D02*
X109340000Y-34580000D01*
X110580000Y-34500000D02*
X109340000Y-34500000D01*
X110580000Y-34540000D02*
X109340000Y-34540000D01*
X110620000Y-34500000D02*
G75*
G02*
X106380000Y-34500000I-2120000J0D01*
G01*
X106380000Y-34500000D02*
G75*
G02*
X110620000Y-34500000I2120000J0D01*
G01*
D13*
%TO.C,U1*%
X50710000Y-21230000D02*
X68490000Y-21230000D01*
X50710000Y-56790000D02*
X50710000Y-21230000D01*
X54520000Y-43455000D02*
X54520000Y-33295000D01*
X54520000Y-43455000D02*
X64680000Y-43455000D01*
X55790000Y-19960000D02*
X63410000Y-19960000D01*
X55790000Y-21230000D02*
X55790000Y-19960000D01*
X55790000Y-26310000D02*
X55790000Y-21230000D01*
X55790000Y-26310000D02*
X63410000Y-26310000D01*
X58330000Y-49170000D02*
X60870000Y-49170000D01*
X58330000Y-53742000D02*
X58330000Y-49170000D01*
X60870000Y-49170000D02*
X60870000Y-53742000D01*
X60870000Y-53742000D02*
X58330000Y-53742000D01*
X61505000Y-44090000D02*
X64680000Y-44090000D01*
X61505000Y-46630000D02*
X61505000Y-44090000D01*
X63410000Y-19960000D02*
X63410000Y-21230000D01*
X63410000Y-26310000D02*
X63410000Y-21230000D01*
X64680000Y-33295000D02*
X54520000Y-33295000D01*
X64680000Y-43455000D02*
X64680000Y-33295000D01*
X64680000Y-44090000D02*
X64680000Y-46630000D01*
X64680000Y-46630000D02*
X61505000Y-46630000D01*
X68490000Y-21230000D02*
X68490000Y-56790000D01*
X68490000Y-56790000D02*
X50710000Y-56790000D01*
D16*
X59346000Y-37613000D02*
X58965000Y-37867000D01*
X58711000Y-37613000D01*
X59092000Y-37359000D01*
X59346000Y-37613000D01*
G36*
X59346000Y-37613000D02*
G01*
X58965000Y-37867000D01*
X58711000Y-37613000D01*
X59092000Y-37359000D01*
X59346000Y-37613000D01*
G37*
X59473000Y-36851000D02*
X59092000Y-37105000D01*
X58838000Y-36851000D01*
X59219000Y-36597000D01*
X59473000Y-36851000D01*
G36*
X59473000Y-36851000D02*
G01*
X59092000Y-37105000D01*
X58838000Y-36851000D01*
X59219000Y-36597000D01*
X59473000Y-36851000D01*
G37*
X59727000Y-35327000D02*
X59346000Y-35581000D01*
X59092000Y-35327000D01*
X59473000Y-35073000D01*
X59727000Y-35327000D01*
G36*
X59727000Y-35327000D02*
G01*
X59346000Y-35581000D01*
X59092000Y-35327000D01*
X59473000Y-35073000D01*
X59727000Y-35327000D01*
G37*
X59854000Y-37232000D02*
X59473000Y-37486000D01*
X59219000Y-37232000D01*
X59600000Y-36978000D01*
X59854000Y-37232000D01*
G36*
X59854000Y-37232000D02*
G01*
X59473000Y-37486000D01*
X59219000Y-37232000D01*
X59600000Y-36978000D01*
X59854000Y-37232000D01*
G37*
X59981000Y-36470000D02*
X59600000Y-36724000D01*
X59346000Y-36470000D01*
X59727000Y-36216000D01*
X59981000Y-36470000D01*
G36*
X59981000Y-36470000D02*
G01*
X59600000Y-36724000D01*
X59346000Y-36470000D01*
X59727000Y-36216000D01*
X59981000Y-36470000D01*
G37*
X60108000Y-35708000D02*
X59727000Y-35962000D01*
X59473000Y-35708000D01*
X59854000Y-35454000D01*
X60108000Y-35708000D01*
G36*
X60108000Y-35708000D02*
G01*
X59727000Y-35962000D01*
X59473000Y-35708000D01*
X59854000Y-35454000D01*
X60108000Y-35708000D01*
G37*
X60362000Y-36851000D02*
X59981000Y-37105000D01*
X59727000Y-36851000D01*
X60108000Y-36597000D01*
X60362000Y-36851000D01*
G36*
X60362000Y-36851000D02*
G01*
X59981000Y-37105000D01*
X59727000Y-36851000D01*
X60108000Y-36597000D01*
X60362000Y-36851000D01*
G37*
X60489000Y-36089000D02*
X60108000Y-36343000D01*
X59854000Y-36089000D01*
X60235000Y-35835000D01*
X60489000Y-36089000D01*
G36*
X60489000Y-36089000D02*
G01*
X60108000Y-36343000D01*
X59854000Y-36089000D01*
X60235000Y-35835000D01*
X60489000Y-36089000D01*
G37*
D15*
%TO.C,SW4*%
X145725000Y-84265000D02*
X159695000Y-84265000D01*
X145725000Y-98235000D02*
X145725000Y-84265000D01*
X159695000Y-84265000D02*
X159695000Y-98235000D01*
X159695000Y-98235000D02*
X145725000Y-98235000D01*
%TO.C,C6*%
X104560000Y-47230000D02*
X104560000Y-51270000D01*
X104560000Y-51270000D02*
X107400000Y-51270000D01*
X105980000Y-46540000D02*
X105980000Y-47230000D01*
X105980000Y-51960000D02*
X105980000Y-51270000D01*
X107400000Y-47230000D02*
X104560000Y-47230000D01*
X107400000Y-51270000D02*
X107400000Y-47230000D01*
%TO.C,J1*%
X32480000Y-23200000D02*
X33980000Y-23200000D01*
X32480000Y-34200000D02*
X32480000Y-23200000D01*
X33980000Y-22000000D02*
X35480000Y-22000000D01*
X33980000Y-23200000D02*
X33980000Y-22000000D01*
X35480000Y-20200000D02*
X41480000Y-20200000D01*
X35480000Y-22000000D02*
X35480000Y-20200000D01*
X36480000Y-20200000D02*
X36480000Y-23200000D01*
X36480000Y-23200000D02*
X40480000Y-23200000D01*
X40480000Y-23200000D02*
X40480000Y-20200000D01*
X41480000Y-20200000D02*
X41480000Y-22000000D01*
X41480000Y-22000000D02*
X42980000Y-22000000D01*
X42980000Y-22000000D02*
X42980000Y-23200000D01*
X42980000Y-23200000D02*
X44480000Y-23200000D01*
X44480000Y-23200000D02*
X44480000Y-34200000D01*
X44480000Y-34200000D02*
X32480000Y-34200000D01*
%TO.C,C3*%
X84560000Y-47230000D02*
X84560000Y-51270000D01*
X84560000Y-51270000D02*
X87400000Y-51270000D01*
X85980000Y-46540000D02*
X85980000Y-47230000D01*
X85980000Y-51960000D02*
X85980000Y-51270000D01*
X87400000Y-47230000D02*
X84560000Y-47230000D01*
X87400000Y-51270000D02*
X87400000Y-47230000D01*
%TO.C,SW3*%
X125495000Y-84265000D02*
X139465000Y-84265000D01*
X125495000Y-98235000D02*
X125495000Y-84265000D01*
X139465000Y-84265000D02*
X139465000Y-98235000D01*
X139465000Y-98235000D02*
X125495000Y-98235000D01*
%TO.C,SW2*%
X145725000Y-64265000D02*
X159695000Y-64265000D01*
X145725000Y-78235000D02*
X145725000Y-64265000D01*
X159695000Y-64265000D02*
X159695000Y-78235000D01*
X159695000Y-78235000D02*
X145725000Y-78235000D01*
%TO.C,RV2*%
X55112700Y-62664200D02*
X55112700Y-67384200D01*
X55112700Y-62664200D02*
X56602700Y-62664200D01*
X55112700Y-71194200D02*
X55112700Y-74254200D01*
X55112700Y-74254200D02*
X64852700Y-74254200D01*
X58322700Y-62664200D02*
X59152700Y-62664200D01*
X60772700Y-62664200D02*
X61302700Y-62664200D01*
X63672700Y-62664200D02*
X64852700Y-62664200D01*
X64852700Y-71194200D02*
X64852700Y-74254200D01*
X64862700Y-62664200D02*
X64862700Y-67384200D01*
D13*
%TO.C,R1*%
X119170000Y-51100000D02*
X119170000Y-53100000D01*
X119170000Y-53100000D02*
X125170000Y-53100000D01*
X125170000Y-51100000D02*
X119170000Y-51100000D01*
X125170000Y-53100000D02*
X125170000Y-51100000D01*
D15*
%TO.C,C7*%
X99560000Y-47230000D02*
X99560000Y-51270000D01*
X99560000Y-51270000D02*
X102400000Y-51270000D01*
X100980000Y-46540000D02*
X100980000Y-47230000D01*
X100980000Y-51960000D02*
X100980000Y-51270000D01*
X102400000Y-47230000D02*
X99560000Y-47230000D01*
X102400000Y-51270000D02*
X102400000Y-47230000D01*
D13*
%TO.C,R4*%
X119170000Y-39000000D02*
X119170000Y-41000000D01*
X119170000Y-41000000D02*
X125170000Y-41000000D01*
X125170000Y-39000000D02*
X119170000Y-39000000D01*
X125170000Y-41000000D02*
X125170000Y-39000000D01*
D15*
%TO.C,RV4*%
X101112700Y-62664200D02*
X101112700Y-67384200D01*
X101112700Y-62664200D02*
X102602700Y-62664200D01*
X101112700Y-71194200D02*
X101112700Y-74254200D01*
X101112700Y-74254200D02*
X110852700Y-74254200D01*
X104322700Y-62664200D02*
X105152700Y-62664200D01*
X106772700Y-62664200D02*
X107302700Y-62664200D01*
X109672700Y-62664200D02*
X110852700Y-62664200D01*
X110852700Y-71194200D02*
X110852700Y-74254200D01*
X110862700Y-62664200D02*
X110862700Y-67384200D01*
%TO.C,C1*%
X74560000Y-47230000D02*
X74560000Y-51270000D01*
X74560000Y-51270000D02*
X77400000Y-51270000D01*
X75980000Y-46540000D02*
X75980000Y-47230000D01*
X75980000Y-51960000D02*
X75980000Y-51270000D01*
X77400000Y-47230000D02*
X74560000Y-47230000D01*
X77400000Y-51270000D02*
X77400000Y-47230000D01*
%TO.C,SW1*%
X125495000Y-64265000D02*
X139465000Y-64265000D01*
X125495000Y-78235000D02*
X125495000Y-64265000D01*
X139465000Y-64265000D02*
X139465000Y-78235000D01*
X139465000Y-78235000D02*
X125495000Y-78235000D01*
%TO.C,SSD1306*%
X129040000Y-26005000D02*
X156540000Y-26005000D01*
X129040000Y-53805000D02*
X129040000Y-26005000D01*
X129440000Y-30505000D02*
X156140000Y-30505000D01*
X129440000Y-49765000D02*
X129440000Y-30505000D01*
X130920000Y-31605000D02*
X154660000Y-31605000D01*
X130920000Y-44809000D02*
X130920000Y-31605000D01*
X135840000Y-50805000D02*
X135840000Y-53805000D01*
X135840000Y-53805000D02*
X129040000Y-53805000D01*
X149740000Y-50805000D02*
X135840000Y-50805000D01*
X149740000Y-53805000D02*
X149740000Y-50805000D01*
X154660000Y-31605000D02*
X154660000Y-44809000D01*
X154660000Y-44809000D02*
X130920000Y-44809000D01*
X156140000Y-30505000D02*
X156140000Y-49765000D01*
X156140000Y-49765000D02*
X129440000Y-49765000D01*
X156540000Y-26005000D02*
X156540000Y-53805000D01*
X156540000Y-53805000D02*
X149740000Y-53805000D01*
%TD*%
M02*
