M48
; DRILL file {KiCad 9.0.1} date 2025-08-14T16:41:59+0100
; FORMAT={-:-/ absolute / metric / decimal}
; #@! TF.CreationDate,2025-08-14T16:41:59+01:00
; #@! TF.GenerationSoftware,Kicad,Pcbnew,9.0.1
; #@! TF.FileFunction,NonPlated,1,2,NPTH
FMAT,2
METRIC
; #@! TA.AperFunction,NonPlated,NPTH,ComponentDrill
T1C1.200
; #@! TA.AperFunction,NonPlated,NPTH,ComponentDrill
T2C1.700
; #@! TA.AperFunction,NonPlated,NPTH,ComponentDrill
T3C2.500
; #@! TA.AperFunction,NonPlated,NPTH,ComponentDrill
T4C4.000
%
G90
G05
T1
X44.247Y-163.66
X44.247Y-173.66
X46.747Y-163.66
X46.747Y-173.66
X51.747Y-168.66
T2
X89.748Y-49.35
X89.748Y-59.51
X89.748Y-69.58
X89.748Y-79.74
X109.747Y-49.35
X109.747Y-59.51
X109.747Y-69.58
X109.747Y-79.74
T3
X48.552Y-52.6
X48.552Y-76.1
X72.052Y-52.6
X72.052Y-76.1
X140.552Y-52.6
X140.552Y-76.1
X164.052Y-52.6
X164.052Y-76.1
T4
X89.748Y-54.43
X89.748Y-74.66
X109.747Y-54.43
X109.747Y-74.66
M30
