%TF.GenerationSoftware,KiCad,Pcbnew,9.0.1*%
%TF.CreationDate,2025-08-15T13:52:11+01:00*%
%TF.ProjectId,MC8P_MIDI_CONTROLLER,4d433850-5f4d-4494-9449-5f434f4e5452,rev?*%
%TF.SameCoordinates,Original*%
%TF.FileFunction,Soldermask,Bot*%
%TF.FilePolarity,Negative*%
%FSLAX46Y46*%
G04 Gerber Fmt 4.6, Leading zero omitted, Abs format (unit mm)*
G04 Created by KiCad (PCBNEW 9.0.1) date 2025-08-15 13:52:11*
%MOMM*%
%LPD*%
G01*
G04 APERTURE LIST*
%ADD10C,8.000000*%
%ADD11C,5.000000*%
%ADD12C,2.800000*%
%ADD13O,2.780000X3.240000*%
%ADD14R,2.000000X2.000000*%
%ADD15C,2.000000*%
%ADD16C,1.397000*%
%ADD17C,1.600000*%
%ADD18C,1.700000*%
%ADD19C,4.000000*%
%ADD20C,2.200000*%
%ADD21C,1.200000*%
%ADD22O,1.200000X2.200000*%
%ADD23O,1.600000X2.300000*%
%ADD24O,2.200000X1.200000*%
%ADD25O,1.600000X2.500000*%
G04 APERTURE END LIST*
D10*
%TO.C,REF\u002A\u002A*%
X82980000Y-161284200D03*
%TD*%
%TO.C,REF\u002A\u002A*%
X105982700Y-161284200D03*
%TD*%
D11*
%TO.C,*%
X169000000Y-210000000D03*
%TD*%
D10*
%TO.C,REF\u002A\u002A*%
X82982700Y-185244200D03*
%TD*%
D11*
%TO.C,*%
X169000000Y-290000000D03*
%TD*%
%TO.C,*%
X26000000Y-210000000D03*
%TD*%
%TO.C,*%
X168980000Y-198000000D03*
%TD*%
D10*
%TO.C,REF\u002A\u002A*%
X59982700Y-185244200D03*
%TD*%
D11*
%TO.C,*%
X26000000Y-290000000D03*
%TD*%
%TO.C,*%
X25980000Y-198000000D03*
%TD*%
D10*
%TO.C,REF\u002A\u002A*%
X59980000Y-161284200D03*
%TD*%
D11*
%TO.C,*%
X168980000Y-118000000D03*
%TD*%
D10*
%TO.C,REF\u002A\u002A*%
X36982700Y-185244200D03*
%TD*%
%TO.C,REF\u002A\u002A*%
X36982700Y-161284200D03*
%TD*%
%TO.C,REF\u002A\u002A*%
X105982700Y-185244200D03*
%TD*%
D11*
%TO.C,*%
X25980000Y-118000000D03*
%TD*%
D12*
%TO.C,SSD1306*%
X154540000Y-143805000D03*
X154540000Y-120305000D03*
X131040000Y-143805000D03*
X131040000Y-120305000D03*
%TD*%
D11*
%TO.C,REF\u002A\u002A*%
X168980000Y-106000000D03*
%TD*%
D13*
%TO.C,RV3*%
X87782700Y-69284200D03*
X78182700Y-69284200D03*
D14*
X85482700Y-61784200D03*
D15*
X82982700Y-61784200D03*
X80482700Y-61784200D03*
%TD*%
D16*
%TO.C,R3*%
X125980000Y-44000000D03*
X118360000Y-44000000D03*
%TD*%
%TO.C,R5*%
X33480000Y-44120000D03*
X33480000Y-36500000D03*
%TD*%
D17*
%TO.C,C1*%
X75980000Y-53000000D03*
X75980000Y-45500000D03*
%TD*%
D18*
%TO.C,SW2*%
X147630000Y-69500000D03*
D19*
X152710000Y-69500000D03*
D18*
X157790000Y-69500000D03*
D20*
X155250000Y-64420000D03*
X148900000Y-66960000D03*
%TD*%
D12*
%TO.C,SSD1306*%
X154540000Y-51805000D03*
X154540000Y-28305000D03*
X131040000Y-51805000D03*
X131040000Y-28305000D03*
D17*
X146600000Y-28305000D03*
X144060000Y-28305000D03*
X141520000Y-28305000D03*
X138980000Y-28305000D03*
%TD*%
D18*
%TO.C,SW1*%
X127400000Y-69500000D03*
D19*
X132480000Y-69500000D03*
D18*
X137560000Y-69500000D03*
D20*
X135020000Y-64420000D03*
X128670000Y-66960000D03*
%TD*%
D13*
%TO.C,RV4*%
X110782700Y-69284200D03*
X101182700Y-69284200D03*
D14*
X108482700Y-61784200D03*
D15*
X105982700Y-61784200D03*
X103482700Y-61784200D03*
%TD*%
D11*
%TO.C,REF\u002A\u002A*%
X25980000Y-26000000D03*
%TD*%
D16*
%TO.C,R1*%
X125980000Y-52100000D03*
X118360000Y-52100000D03*
%TD*%
%TO.C,R4*%
X125980000Y-40000000D03*
X118360000Y-40000000D03*
%TD*%
D18*
%TO.C,SW4*%
X147630000Y-89500000D03*
D19*
X152710000Y-89500000D03*
D18*
X157790000Y-89500000D03*
D20*
X155250000Y-84420000D03*
X148900000Y-86960000D03*
%TD*%
D17*
%TO.C,C4*%
X90980000Y-53000000D03*
X90980000Y-45500000D03*
%TD*%
D11*
%TO.C,REF\u002A\u002A*%
X168980000Y-26000000D03*
%TD*%
D17*
%TO.C,U1*%
X51980000Y-22500000D03*
X51980000Y-25040000D03*
X51980000Y-27580000D03*
X51980000Y-30120000D03*
X51980000Y-32660000D03*
X51980000Y-35200000D03*
X51980000Y-37740000D03*
X51980000Y-40280000D03*
X51980000Y-42820000D03*
X51980000Y-45360000D03*
X51980000Y-47900000D03*
X51980000Y-50440000D03*
X51980000Y-52980000D03*
X51980000Y-55520000D03*
X54520000Y-55520000D03*
X57060000Y-55520000D03*
X59600000Y-55520000D03*
X62140000Y-55520000D03*
X64680000Y-55520000D03*
X67220000Y-55520000D03*
X67220000Y-52980000D03*
X67220000Y-50440000D03*
X67220000Y-47900000D03*
X67220000Y-45360000D03*
X67220000Y-42820000D03*
X67220000Y-40280000D03*
X67220000Y-37740000D03*
X67220000Y-35200000D03*
X67220000Y-32660000D03*
X67220000Y-30120000D03*
X67220000Y-27580000D03*
X67220000Y-25040000D03*
X67220000Y-22500000D03*
X64680000Y-25040000D03*
X64680000Y-50440000D03*
X64680000Y-47900000D03*
X62140000Y-50440000D03*
X62140000Y-47900000D03*
X59600000Y-50440000D03*
X59600000Y-47900000D03*
X57060000Y-50440000D03*
X57060000Y-47900000D03*
X54520000Y-50440000D03*
X54520000Y-47900000D03*
%TD*%
%TO.C,C8*%
X95980000Y-53000000D03*
X95980000Y-45500000D03*
%TD*%
%TO.C,C3*%
X85980000Y-53000000D03*
X85980000Y-45500000D03*
%TD*%
D13*
%TO.C,RV2*%
X64782700Y-69284200D03*
X55182700Y-69284200D03*
D14*
X62482700Y-61784200D03*
D15*
X59982700Y-61784200D03*
X57482700Y-61784200D03*
%TD*%
D21*
%TO.C,J1*%
X43480000Y-26500000D03*
X43480000Y-24000000D03*
X38480000Y-31500000D03*
X33480000Y-26500000D03*
X33480000Y-24000000D03*
D22*
X43480000Y-31500000D03*
D23*
X40980000Y-31500000D03*
D24*
X38480000Y-26500000D03*
D22*
X33480000Y-31500000D03*
D25*
X35980000Y-31500000D03*
%TD*%
D18*
%TO.C,SW3*%
X127400000Y-89500000D03*
D19*
X132480000Y-89500000D03*
D18*
X137560000Y-89500000D03*
D20*
X135020000Y-84420000D03*
X128670000Y-86960000D03*
%TD*%
D11*
%TO.C,*%
X25980000Y-106000000D03*
%TD*%
D17*
%TO.C,C7*%
X100980000Y-53000000D03*
X100980000Y-45500000D03*
%TD*%
%TO.C,C6*%
X105980000Y-53000000D03*
X105980000Y-45500000D03*
%TD*%
D13*
%TO.C,RV5*%
X41782700Y-93244200D03*
X32182700Y-93244200D03*
D14*
X39482700Y-85744200D03*
D15*
X36982700Y-85744200D03*
X34482700Y-85744200D03*
%TD*%
D16*
%TO.C,R2*%
X125980000Y-48000000D03*
X118360000Y-48000000D03*
%TD*%
%TO.C,R6*%
X40980000Y-43620000D03*
X40980000Y-36000000D03*
%TD*%
D13*
%TO.C,RV1*%
X41782700Y-69284200D03*
X32182700Y-69284200D03*
D14*
X39482700Y-61784200D03*
D15*
X36982700Y-61784200D03*
X34482700Y-61784200D03*
%TD*%
D13*
%TO.C,RV7*%
X87782700Y-93244200D03*
X78182700Y-93244200D03*
D14*
X85482700Y-85744200D03*
D15*
X82982700Y-85744200D03*
X80482700Y-85744200D03*
%TD*%
D17*
%TO.C,C2*%
X80980000Y-53000000D03*
X80980000Y-45500000D03*
%TD*%
D13*
%TO.C,RV8*%
X110782700Y-93244200D03*
X101182700Y-93244200D03*
D14*
X108482700Y-85744200D03*
D15*
X105982700Y-85744200D03*
X103482700Y-85744200D03*
%TD*%
D13*
%TO.C,RV6*%
X64782700Y-93244200D03*
X55182700Y-93244200D03*
D14*
X62482700Y-85744200D03*
D15*
X59982700Y-85744200D03*
X57482700Y-85744200D03*
%TD*%
D17*
%TO.C,C5*%
X110980000Y-53000000D03*
X110980000Y-45500000D03*
%TD*%
M02*
