M48
; DRILL file {KiCad 9.0.1} date 2025-08-14T15:11:10+0100
; FORMAT={-:-/ absolute / metric / decimal}
; #@! TF.CreationDate,2025-08-14T15:11:10+01:00
; #@! TF.GenerationSoftware,Kicad,Pcbnew,9.0.1
; #@! TF.FileFunction,NonPlated,1,2,NPTH
FMAT,2
METRIC
; #@! TA.AperFunction,NonPlated,NPTH,ComponentDrill
T1C1.200
; #@! TA.AperFunction,NonPlated,NPTH,ComponentDrill
T2C1.700
; #@! TA.AperFunction,NonPlated,NPTH,ComponentDrill
T3C2.500
; #@! TA.AperFunction,NonPlated,NPTH,ComponentDrill
T4C4.000
%
G90
G05
T1
X43.48Y-34.0
X43.48Y-36.5
X48.48Y-41.5
X53.48Y-34.0
X53.48Y-36.5
T2
X137.4Y-79.5
X137.4Y-99.5
X147.56Y-79.5
X147.56Y-99.5
X157.63Y-79.5
X157.63Y-99.5
X167.79Y-79.5
X167.79Y-99.5
T3
X141.04Y-38.305
X141.04Y-61.805
X141.04Y-130.305
X141.04Y-153.805
X164.54Y-38.305
X164.54Y-61.805
X164.54Y-130.305
X164.54Y-153.805
T4
X142.48Y-79.5
X142.48Y-99.5
X162.71Y-79.5
X162.71Y-99.5
M30
