M48
; DRILL file {KiCad 9.0.1} date 2025-08-15T13:52:13+0100
; FORMAT={-:-/ absolute / metric / decimal}
; #@! TF.CreationDate,2025-08-15T13:52:13+01:00
; #@! TF.GenerationSoftware,Kicad,Pcbnew,9.0.1
; #@! TF.FileFunction,NonPlated,1,2,NPTH
FMAT,2
METRIC
; #@! TA.AperFunction,NonPlated,NPTH,ComponentDrill
T1C1.200
; #@! TA.AperFunction,NonPlated,NPTH,ComponentDrill
T2C1.700
; #@! TA.AperFunction,NonPlated,NPTH,ComponentDrill
T3C2.500
; #@! TA.AperFunction,NonPlated,NPTH,ComponentDrill
T4C4.000
%
G90
G05
T1
X33.48Y-24.0
X33.48Y-26.5
X38.48Y-31.5
X43.48Y-24.0
X43.48Y-26.5
T2
X127.4Y-69.5
X127.4Y-89.5
X137.56Y-69.5
X137.56Y-89.5
X147.63Y-69.5
X147.63Y-89.5
X157.79Y-69.5
X157.79Y-89.5
T3
X131.04Y-28.305
X131.04Y-51.805
X131.04Y-120.305
X131.04Y-143.805
X154.54Y-28.305
X154.54Y-51.805
X154.54Y-120.305
X154.54Y-143.805
T4
X132.48Y-69.5
X132.48Y-89.5
X152.71Y-69.5
X152.71Y-89.5
M30
