%TF.GenerationSoftware,KiCad,Pcbnew,9.0.1*%
%TF.CreationDate,2025-08-15T13:52:10+01:00*%
%TF.ProjectId,MC8P_MIDI_CONTROLLER,4d433850-5f4d-4494-9449-5f434f4e5452,rev?*%
%TF.SameCoordinates,Original*%
%TF.FileFunction,Legend,Bot*%
%TF.FilePolarity,Positive*%
%FSLAX46Y46*%
G04 Gerber Fmt 4.6, Leading zero omitted, Abs format (unit mm)*
G04 Created by KiCad (PCBNEW 9.0.1) date 2025-08-15 13:52:10*
%MOMM*%
%LPD*%
G01*
G04 APERTURE LIST*
%ADD10C,0.300000*%
%ADD11C,0.200000*%
G04 APERTURE END LIST*
D10*
X22000000Y-206000000D02*
X173000000Y-206000000D01*
X173000000Y-294000000D01*
X22000000Y-294000000D01*
X22000000Y-206000000D01*
X172980000Y-114000000D02*
X21980000Y-114000000D01*
X21980000Y-202000000D01*
X172980000Y-202000000D01*
X172980000Y-114000000D01*
D11*
G36*
X164873021Y-118330000D02*
G01*
X164666392Y-117336053D01*
X164483148Y-117336053D01*
X164689778Y-118330000D01*
X164873021Y-118330000D01*
G37*
G36*
X164724155Y-117935547D02*
G01*
X164686664Y-117755113D01*
X164188531Y-117755113D01*
X164226022Y-117935547D01*
X164724155Y-117935547D01*
G37*
G36*
X164637021Y-117516549D02*
G01*
X164599530Y-117336053D01*
X164027819Y-117336053D01*
X164065310Y-117516549D01*
X164637021Y-117516549D01*
G37*
G36*
X164103839Y-118330000D02*
G01*
X163956317Y-117620413D01*
X163759701Y-117620413D01*
X163907224Y-118330000D01*
X164103839Y-118330000D01*
G37*
G36*
X163606927Y-117818005D02*
G01*
X163618758Y-117806337D01*
X163635076Y-117797611D01*
X163654204Y-117792522D01*
X163678796Y-117790650D01*
X163714204Y-117794823D01*
X163744977Y-117806946D01*
X163772219Y-117827226D01*
X163794181Y-117853682D01*
X163811472Y-117887037D01*
X163823815Y-117928709D01*
X163799452Y-117744183D01*
X163753858Y-117687108D01*
X163704563Y-117645753D01*
X163667919Y-117625530D01*
X163632095Y-117613938D01*
X163596425Y-117610155D01*
X163554913Y-117613854D01*
X163520954Y-117624199D01*
X163491595Y-117641587D01*
X163468197Y-117665537D01*
X163606927Y-117818005D01*
G37*
G36*
X163162081Y-117615501D02*
G01*
X163224396Y-117630868D01*
X163279772Y-117655714D01*
X163329284Y-117690144D01*
X163371663Y-117732926D01*
X163406663Y-117783956D01*
X163434425Y-117844386D01*
X163454581Y-117915764D01*
X163478578Y-118031290D01*
X163488378Y-118106475D01*
X163485215Y-118167688D01*
X163471289Y-118217839D01*
X163447559Y-118259291D01*
X163413913Y-118293053D01*
X163370353Y-118318115D01*
X163314545Y-118334333D01*
X163243250Y-118340258D01*
X163172605Y-118334893D01*
X163110278Y-118319472D01*
X163054887Y-118294532D01*
X163005357Y-118259963D01*
X162962964Y-118217007D01*
X162927923Y-118165753D01*
X162900102Y-118105038D01*
X162879877Y-118033306D01*
X162855453Y-117915764D01*
X162850347Y-117876449D01*
X163034426Y-117876449D01*
X163038635Y-117915764D01*
X163063060Y-118033306D01*
X163074694Y-118071623D01*
X163091463Y-118102260D01*
X163113190Y-118126545D01*
X163139931Y-118144831D01*
X163170546Y-118155914D01*
X163206125Y-118159762D01*
X163241044Y-118155598D01*
X163266372Y-118144334D01*
X163284588Y-118126545D01*
X163295804Y-118103264D01*
X163300054Y-118073023D01*
X163295762Y-118033306D01*
X163271338Y-117915764D01*
X163259776Y-117877799D01*
X163243150Y-117847486D01*
X163221634Y-117823501D01*
X163195117Y-117805422D01*
X163164743Y-117794458D01*
X163129433Y-117790650D01*
X163094178Y-117794782D01*
X163068613Y-117805939D01*
X163050237Y-117823501D01*
X163038812Y-117846536D01*
X163034426Y-117876449D01*
X162850347Y-117876449D01*
X162845781Y-117841297D01*
X162849052Y-117780720D01*
X162863069Y-117731122D01*
X162886899Y-117690144D01*
X162920561Y-117656838D01*
X162964162Y-117632068D01*
X163020047Y-117616021D01*
X163091453Y-117610155D01*
X163162081Y-117615501D01*
G37*
G36*
X162758550Y-118330000D02*
G01*
X162611027Y-117620413D01*
X162427784Y-117620413D01*
X162575307Y-118330000D01*
X162758550Y-118330000D01*
G37*
G36*
X162357320Y-118330000D02*
G01*
X162267927Y-117900010D01*
X162264478Y-117865362D01*
X162269020Y-117839158D01*
X162280200Y-117819043D01*
X162297715Y-117804038D01*
X162322439Y-117794298D01*
X162356892Y-117790650D01*
X162389761Y-117794059D01*
X162417640Y-117803802D01*
X162441584Y-117819715D01*
X162461033Y-117841023D01*
X162475953Y-117867870D01*
X162486219Y-117901414D01*
X162467534Y-117744183D01*
X162420922Y-117685744D01*
X162373745Y-117645020D01*
X162338716Y-117625903D01*
X162299314Y-117614209D01*
X162254494Y-117610155D01*
X162200683Y-117615500D01*
X162158618Y-117630235D01*
X162125680Y-117653451D01*
X162100254Y-117685687D01*
X162083784Y-117723482D01*
X162074722Y-117770128D01*
X162074320Y-117827869D01*
X162084623Y-117899338D01*
X162174138Y-118330000D01*
X162357320Y-118330000D01*
G37*
G36*
X161783777Y-118333419D02*
G01*
X161843310Y-118326937D01*
X161882728Y-118310159D01*
X161907913Y-118284876D01*
X161922518Y-118251046D01*
X161927613Y-118205902D01*
X161920553Y-118145413D01*
X161768450Y-117413967D01*
X161585268Y-117413967D01*
X161727662Y-118098946D01*
X161729776Y-118122746D01*
X161725891Y-118138574D01*
X161716082Y-118149138D01*
X161699391Y-118152923D01*
X161653961Y-118152923D01*
X161691514Y-118333419D01*
X161783777Y-118333419D01*
G37*
G36*
X161916217Y-117780392D02*
G01*
X161882939Y-117620413D01*
X161543258Y-117620413D01*
X161576536Y-117780392D01*
X161916217Y-117780392D01*
G37*
G36*
X160968433Y-117944462D02*
G01*
X160930942Y-117763967D01*
X160620081Y-117763967D01*
X160588352Y-117760190D01*
X160559524Y-117749018D01*
X160532765Y-117730017D01*
X160510718Y-117705396D01*
X160494294Y-117676000D01*
X160483428Y-117640929D01*
X160479494Y-117603480D01*
X160483779Y-117573983D01*
X160495029Y-117550376D01*
X160512989Y-117531994D01*
X160536859Y-117520655D01*
X160568607Y-117516549D01*
X160879467Y-117516549D01*
X160841976Y-117336053D01*
X160535757Y-117336053D01*
X160475331Y-117340670D01*
X160424989Y-117353614D01*
X160382922Y-117374033D01*
X160346442Y-117402771D01*
X160318453Y-117437896D01*
X160298292Y-117480340D01*
X160287434Y-117526410D01*
X160285448Y-117579400D01*
X160293590Y-117640929D01*
X160310309Y-117700263D01*
X160334155Y-117753325D01*
X160365092Y-117800908D01*
X160402842Y-117843179D01*
X160445674Y-117878348D01*
X160494052Y-117906849D01*
X160546201Y-117927579D01*
X160602003Y-117940168D01*
X160662213Y-117944462D01*
X160968433Y-117944462D01*
G37*
G36*
X161132198Y-118330000D02*
G01*
X160925568Y-117336053D01*
X160742325Y-117336053D01*
X160948954Y-118330000D01*
X161132198Y-118330000D01*
G37*
G36*
X159926493Y-118330000D02*
G01*
X159832948Y-117880165D01*
X159830335Y-117848147D01*
X159836107Y-117823610D01*
X159849312Y-117804328D01*
X159868800Y-117790388D01*
X159896345Y-117781137D01*
X159934675Y-117777644D01*
X159973679Y-117780737D01*
X160014359Y-117790284D01*
X160053476Y-117805781D01*
X160089342Y-117826859D01*
X160179284Y-117712737D01*
X160122917Y-117670048D01*
X160054049Y-117637205D01*
X159978575Y-117617015D01*
X159897184Y-117610155D01*
X159828217Y-117615295D01*
X159774212Y-117629312D01*
X159732148Y-117650768D01*
X159699713Y-117679214D01*
X159675849Y-117715085D01*
X159661568Y-117758068D01*
X159657401Y-117810194D01*
X159665214Y-117874059D01*
X159759980Y-118330000D01*
X159926493Y-118330000D01*
G37*
G36*
X160121887Y-118340258D02*
G01*
X160178199Y-118336127D01*
X160221037Y-118325009D01*
X160253290Y-118308241D01*
X160277165Y-118286280D01*
X160293855Y-118258578D01*
X160303759Y-118223337D01*
X160305893Y-118178331D01*
X160298230Y-118120806D01*
X160283251Y-118069106D01*
X160262351Y-118026357D01*
X160235824Y-117991179D01*
X160203464Y-117962597D01*
X160152412Y-117934748D01*
X160088076Y-117916795D01*
X160007093Y-117910268D01*
X159833192Y-117910268D01*
X159853586Y-118053150D01*
X160036097Y-118053150D01*
X160074506Y-118057689D01*
X160101615Y-118069820D01*
X160121272Y-118090330D01*
X160133061Y-118120806D01*
X160134426Y-118143118D01*
X160129108Y-118159723D01*
X160117552Y-118172463D01*
X160090479Y-118184286D01*
X160042386Y-118189193D01*
X159974165Y-118184313D01*
X159929973Y-118172096D01*
X159906265Y-118157985D01*
X159890954Y-118140414D01*
X159882590Y-118118790D01*
X159889979Y-118221983D01*
X159908335Y-118258534D01*
X159939377Y-118288661D01*
X159978623Y-118311321D01*
X160024678Y-118327618D01*
X160073295Y-118337115D01*
X160121887Y-118340258D01*
G37*
G36*
X159563853Y-118330000D02*
G01*
X159416331Y-117620413D01*
X159233087Y-117620413D01*
X159380610Y-118330000D01*
X159563853Y-118330000D01*
G37*
G36*
X159162623Y-118330000D02*
G01*
X159073230Y-117900010D01*
X159069782Y-117865362D01*
X159074323Y-117839158D01*
X159085504Y-117819043D01*
X159103018Y-117804038D01*
X159127742Y-117794298D01*
X159162196Y-117790650D01*
X159195065Y-117794059D01*
X159222943Y-117803802D01*
X159246887Y-117819715D01*
X159266337Y-117841023D01*
X159281257Y-117867870D01*
X159291523Y-117901414D01*
X159272838Y-117744183D01*
X159226226Y-117685744D01*
X159179049Y-117645020D01*
X159144020Y-117625903D01*
X159104617Y-117614209D01*
X159059797Y-117610155D01*
X159005987Y-117615500D01*
X158963921Y-117630235D01*
X158930984Y-117653451D01*
X158905558Y-117685687D01*
X158889088Y-117723482D01*
X158880026Y-117770128D01*
X158879624Y-117827869D01*
X158889926Y-117899338D01*
X158979441Y-118330000D01*
X159162623Y-118330000D01*
G37*
G36*
X158486864Y-118340258D02*
G01*
X158562538Y-118334156D01*
X158621847Y-118317466D01*
X158668173Y-118291733D01*
X158703996Y-118257215D01*
X158729539Y-118214528D01*
X158744636Y-118162903D01*
X158748366Y-118099874D01*
X158738435Y-118022376D01*
X158721765Y-117942386D01*
X158700048Y-117864276D01*
X158670756Y-117798421D01*
X158634362Y-117743099D01*
X158590851Y-117696983D01*
X158539537Y-117659394D01*
X158482580Y-117632461D01*
X158418904Y-117615897D01*
X158347096Y-117610155D01*
X158292391Y-117614826D01*
X158247520Y-117627885D01*
X158210576Y-117648528D01*
X158180191Y-117676839D01*
X158155671Y-117713775D01*
X158136046Y-117765188D01*
X158125730Y-117828841D01*
X158126496Y-117907722D01*
X158141017Y-118005279D01*
X158150725Y-118051746D01*
X158625472Y-118051746D01*
X158599155Y-117925289D01*
X158291592Y-117925289D01*
X158290127Y-117908925D01*
X158290037Y-117868776D01*
X158296382Y-117837916D01*
X158308018Y-117814220D01*
X158325832Y-117795914D01*
X158349950Y-117784540D01*
X158382512Y-117780392D01*
X158425123Y-117785067D01*
X158461701Y-117798528D01*
X158493581Y-117820753D01*
X158519349Y-117850166D01*
X158539493Y-117887636D01*
X158553726Y-117934876D01*
X158572472Y-118025123D01*
X158577298Y-118072869D01*
X158571211Y-118109188D01*
X158556046Y-118137231D01*
X158532159Y-118158283D01*
X158498863Y-118171821D01*
X158452915Y-118176859D01*
X158416143Y-118173622D01*
X158377260Y-118163548D01*
X158339588Y-118147484D01*
X158303804Y-118125629D01*
X158206718Y-118234317D01*
X158273931Y-118279383D01*
X158344715Y-118312597D01*
X158418017Y-118333560D01*
X158486864Y-118340258D01*
G37*
G36*
X157642090Y-117336053D02*
G01*
X157799993Y-118095526D01*
X157800894Y-118118967D01*
X157793703Y-118135155D01*
X157779314Y-118145563D01*
X157755724Y-118149504D01*
X157724949Y-118149504D01*
X157762501Y-118330000D01*
X157856107Y-118330000D01*
X157909473Y-118323790D01*
X157948025Y-118307056D01*
X157975603Y-118280785D01*
X157992678Y-118246214D01*
X157999226Y-118201224D01*
X157992883Y-118141994D01*
X157825333Y-117336053D01*
X157642090Y-117336053D01*
G37*
G36*
X164312787Y-210330000D02*
G01*
X164275235Y-210149504D01*
X163964986Y-210149504D01*
X163924084Y-210145780D01*
X163889946Y-210135266D01*
X163861243Y-210118424D01*
X163837503Y-210095287D01*
X163820027Y-210066620D01*
X163808670Y-210031290D01*
X163808243Y-210029214D01*
X163804889Y-209992098D01*
X163810700Y-209963660D01*
X163824424Y-209941409D01*
X163845229Y-209925033D01*
X163874542Y-209914300D01*
X163915282Y-209910268D01*
X164225532Y-209910268D01*
X164188040Y-209729834D01*
X163877791Y-209729834D01*
X163840903Y-209726337D01*
X163809955Y-209716429D01*
X163783757Y-209700464D01*
X163762197Y-209678654D01*
X163746108Y-209651428D01*
X163735458Y-209617665D01*
X163732797Y-209586076D01*
X163738292Y-209561869D01*
X163750968Y-209542866D01*
X163769797Y-209529098D01*
X163796395Y-209519986D01*
X163833400Y-209516549D01*
X164143649Y-209516549D01*
X164106158Y-209336053D01*
X163789863Y-209336053D01*
X163718319Y-209341302D01*
X163662261Y-209355613D01*
X163618580Y-209377497D01*
X163584883Y-209406456D01*
X163559915Y-209443119D01*
X163544934Y-209487010D01*
X163540431Y-209540208D01*
X163548307Y-209605392D01*
X163565449Y-209660594D01*
X163591877Y-209707936D01*
X163627869Y-209748640D01*
X163671594Y-209781138D01*
X163723034Y-209805210D01*
X163783635Y-209820692D01*
X163724252Y-209836208D01*
X163680603Y-209861527D01*
X163649241Y-209896285D01*
X163629814Y-209939224D01*
X163622578Y-209991789D01*
X163629518Y-210057241D01*
X163629945Y-210059317D01*
X163648193Y-210122051D01*
X163674280Y-210175463D01*
X163708023Y-210220901D01*
X163749808Y-210259291D01*
X163797732Y-210289397D01*
X163852135Y-210311416D01*
X163914143Y-210325178D01*
X163985136Y-210330000D01*
X164312787Y-210330000D01*
G37*
G36*
X164393021Y-210330000D02*
G01*
X164186392Y-209336053D01*
X164003148Y-209336053D01*
X164209778Y-210330000D01*
X164393021Y-210330000D01*
G37*
G36*
X163120882Y-210330000D02*
G01*
X163027337Y-209880165D01*
X163024724Y-209848147D01*
X163030497Y-209823610D01*
X163043702Y-209804328D01*
X163063189Y-209790388D01*
X163090735Y-209781137D01*
X163129064Y-209777644D01*
X163168069Y-209780737D01*
X163208749Y-209790284D01*
X163247865Y-209805781D01*
X163283731Y-209826859D01*
X163373674Y-209712737D01*
X163317307Y-209670048D01*
X163248438Y-209637205D01*
X163172964Y-209617015D01*
X163091573Y-209610155D01*
X163022606Y-209615295D01*
X162968602Y-209629312D01*
X162926538Y-209650768D01*
X162894103Y-209679214D01*
X162870239Y-209715085D01*
X162855957Y-209758068D01*
X162851791Y-209810194D01*
X162859603Y-209874059D01*
X162954370Y-210330000D01*
X163120882Y-210330000D01*
G37*
G36*
X163316277Y-210340258D02*
G01*
X163372588Y-210336127D01*
X163415426Y-210325009D01*
X163447679Y-210308241D01*
X163471554Y-210286280D01*
X163488245Y-210258578D01*
X163498149Y-210223337D01*
X163500282Y-210178331D01*
X163492620Y-210120806D01*
X163477640Y-210069106D01*
X163456741Y-210026357D01*
X163430214Y-209991179D01*
X163397854Y-209962597D01*
X163346802Y-209934748D01*
X163282465Y-209916795D01*
X163201482Y-209910268D01*
X163027581Y-209910268D01*
X163047976Y-210053150D01*
X163230486Y-210053150D01*
X163268895Y-210057689D01*
X163296004Y-210069820D01*
X163315662Y-210090330D01*
X163327451Y-210120806D01*
X163328815Y-210143118D01*
X163323497Y-210159723D01*
X163311941Y-210172463D01*
X163284868Y-210184286D01*
X163236775Y-210189193D01*
X163168554Y-210184313D01*
X163124363Y-210172096D01*
X163100655Y-210157985D01*
X163085344Y-210140414D01*
X163076980Y-210118790D01*
X163084368Y-210221983D01*
X163102725Y-210258534D01*
X163133766Y-210288661D01*
X163173013Y-210311321D01*
X163219068Y-210327618D01*
X163267684Y-210337115D01*
X163316277Y-210340258D01*
G37*
G36*
X162466861Y-210340258D02*
G01*
X162541170Y-210333987D01*
X162599437Y-210316802D01*
X162645025Y-210290184D01*
X162680329Y-210254223D01*
X162705059Y-210210284D01*
X162719526Y-210156965D01*
X162722656Y-210091724D01*
X162712081Y-210011446D01*
X162696327Y-209935547D01*
X162674882Y-209859271D01*
X162645521Y-209794826D01*
X162608660Y-209740540D01*
X162564192Y-209695151D01*
X162512136Y-209658519D01*
X162454013Y-209632126D01*
X162388702Y-209615823D01*
X162314759Y-209610155D01*
X162258494Y-209613666D01*
X162209405Y-209623664D01*
X162166442Y-209639586D01*
X162127378Y-209662553D01*
X162096915Y-209690473D01*
X162073935Y-209723667D01*
X162216634Y-209841209D01*
X162238999Y-209820207D01*
X162267925Y-209804023D01*
X162300575Y-209794074D01*
X162337168Y-209790650D01*
X162382089Y-209795127D01*
X162420126Y-209807888D01*
X162452695Y-209828630D01*
X162479296Y-209856591D01*
X162499451Y-209891731D01*
X162513084Y-209935547D01*
X162528838Y-210011446D01*
X162533655Y-210058279D01*
X162527912Y-210093799D01*
X162513450Y-210121111D01*
X162490533Y-210141637D01*
X162458406Y-210154841D01*
X162413860Y-210159762D01*
X162376569Y-210156195D01*
X162339000Y-210145291D01*
X162303534Y-210127867D01*
X162271345Y-210104441D01*
X162178960Y-210228822D01*
X162215624Y-210261310D01*
X162257767Y-210288747D01*
X162306027Y-210311193D01*
X162383266Y-210332886D01*
X162466861Y-210340258D01*
G37*
G36*
X161941067Y-210280785D02*
G01*
X161922993Y-210074338D01*
X161504911Y-209620413D01*
X161310982Y-209620413D01*
X161941067Y-210280785D01*
G37*
G36*
X162061662Y-210330000D02*
G01*
X161855033Y-209336053D01*
X161671789Y-209336053D01*
X161878419Y-210330000D01*
X162061662Y-210330000D01*
G37*
G36*
X161636374Y-210330000D02*
G01*
X161735415Y-209963574D01*
X161564933Y-209870640D01*
X161424494Y-210330000D01*
X161636374Y-210330000D01*
G37*
G36*
X160769801Y-209944462D02*
G01*
X160732309Y-209763967D01*
X160421449Y-209763967D01*
X160389720Y-209760190D01*
X160360891Y-209749018D01*
X160334132Y-209730017D01*
X160312085Y-209705396D01*
X160295662Y-209676000D01*
X160284795Y-209640929D01*
X160280862Y-209603480D01*
X160285146Y-209573983D01*
X160296397Y-209550376D01*
X160314357Y-209531994D01*
X160338227Y-209520655D01*
X160369975Y-209516549D01*
X160680835Y-209516549D01*
X160643344Y-209336053D01*
X160337124Y-209336053D01*
X160276699Y-209340670D01*
X160226357Y-209353614D01*
X160184289Y-209374033D01*
X160147810Y-209402771D01*
X160119821Y-209437896D01*
X160099659Y-209480340D01*
X160088802Y-209526410D01*
X160086816Y-209579400D01*
X160094958Y-209640929D01*
X160111677Y-209700263D01*
X160135523Y-209753325D01*
X160166460Y-209800908D01*
X160204210Y-209843179D01*
X160247042Y-209878348D01*
X160295420Y-209906849D01*
X160347569Y-209927579D01*
X160403371Y-209940168D01*
X160463581Y-209944462D01*
X160769801Y-209944462D01*
G37*
G36*
X160933565Y-210330000D02*
G01*
X160726936Y-209336053D01*
X160543693Y-209336053D01*
X160750322Y-210330000D01*
X160933565Y-210330000D01*
G37*
G36*
X159727861Y-210330000D02*
G01*
X159634316Y-209880165D01*
X159631703Y-209848147D01*
X159637475Y-209823610D01*
X159650680Y-209804328D01*
X159670168Y-209790388D01*
X159697713Y-209781137D01*
X159736043Y-209777644D01*
X159775047Y-209780737D01*
X159815727Y-209790284D01*
X159854843Y-209805781D01*
X159890710Y-209826859D01*
X159980652Y-209712737D01*
X159924285Y-209670048D01*
X159855416Y-209637205D01*
X159779943Y-209617015D01*
X159698551Y-209610155D01*
X159629585Y-209615295D01*
X159575580Y-209629312D01*
X159533516Y-209650768D01*
X159501081Y-209679214D01*
X159477217Y-209715085D01*
X159462936Y-209758068D01*
X159458769Y-209810194D01*
X159466582Y-209874059D01*
X159561348Y-210330000D01*
X159727861Y-210330000D01*
G37*
G36*
X159923255Y-210340258D02*
G01*
X159979567Y-210336127D01*
X160022404Y-210325009D01*
X160054657Y-210308241D01*
X160078532Y-210286280D01*
X160095223Y-210258578D01*
X160105127Y-210223337D01*
X160107260Y-210178331D01*
X160099598Y-210120806D01*
X160084618Y-210069106D01*
X160063719Y-210026357D01*
X160037192Y-209991179D01*
X160004832Y-209962597D01*
X159953780Y-209934748D01*
X159889444Y-209916795D01*
X159808461Y-209910268D01*
X159634560Y-209910268D01*
X159654954Y-210053150D01*
X159837465Y-210053150D01*
X159875873Y-210057689D01*
X159902983Y-210069820D01*
X159922640Y-210090330D01*
X159934429Y-210120806D01*
X159935793Y-210143118D01*
X159930476Y-210159723D01*
X159918920Y-210172463D01*
X159891846Y-210184286D01*
X159843754Y-210189193D01*
X159775532Y-210184313D01*
X159731341Y-210172096D01*
X159707633Y-210157985D01*
X159692322Y-210140414D01*
X159683958Y-210118790D01*
X159691346Y-210221983D01*
X159709703Y-210258534D01*
X159740744Y-210288661D01*
X159779991Y-210311321D01*
X159826046Y-210327618D01*
X159874662Y-210337115D01*
X159923255Y-210340258D01*
G37*
G36*
X159365221Y-210330000D02*
G01*
X159217698Y-209620413D01*
X159034455Y-209620413D01*
X159181978Y-210330000D01*
X159365221Y-210330000D01*
G37*
G36*
X158963991Y-210330000D02*
G01*
X158874598Y-209900010D01*
X158871149Y-209865362D01*
X158875691Y-209839158D01*
X158886871Y-209819043D01*
X158904386Y-209804038D01*
X158929110Y-209794298D01*
X158963564Y-209790650D01*
X158996432Y-209794059D01*
X159024311Y-209803802D01*
X159048255Y-209819715D01*
X159067705Y-209841023D01*
X159082624Y-209867870D01*
X159092890Y-209901414D01*
X159074206Y-209744183D01*
X159027594Y-209685744D01*
X158980416Y-209645020D01*
X158945387Y-209625903D01*
X158905985Y-209614209D01*
X158861165Y-209610155D01*
X158807355Y-209615500D01*
X158765289Y-209630235D01*
X158732352Y-209653451D01*
X158706926Y-209685687D01*
X158690455Y-209723482D01*
X158681394Y-209770128D01*
X158680991Y-209827869D01*
X158691294Y-209899338D01*
X158780809Y-210330000D01*
X158963991Y-210330000D01*
G37*
G36*
X158288232Y-210340258D02*
G01*
X158363906Y-210334156D01*
X158423215Y-210317466D01*
X158469541Y-210291733D01*
X158505364Y-210257215D01*
X158530907Y-210214528D01*
X158546004Y-210162903D01*
X158549734Y-210099874D01*
X158539802Y-210022376D01*
X158523133Y-209942386D01*
X158501416Y-209864276D01*
X158472124Y-209798421D01*
X158435730Y-209743099D01*
X158392219Y-209696983D01*
X158340904Y-209659394D01*
X158283948Y-209632461D01*
X158220272Y-209615897D01*
X158148464Y-209610155D01*
X158093759Y-209614826D01*
X158048888Y-209627885D01*
X158011943Y-209648528D01*
X157981559Y-209676839D01*
X157957039Y-209713775D01*
X157937413Y-209765188D01*
X157927098Y-209828841D01*
X157927863Y-209907722D01*
X157942384Y-210005279D01*
X157952093Y-210051746D01*
X158426840Y-210051746D01*
X158400523Y-209925289D01*
X158092960Y-209925289D01*
X158091495Y-209908925D01*
X158091404Y-209868776D01*
X158097750Y-209837916D01*
X158109385Y-209814220D01*
X158127200Y-209795914D01*
X158151318Y-209784540D01*
X158183879Y-209780392D01*
X158226491Y-209785067D01*
X158263069Y-209798528D01*
X158294949Y-209820753D01*
X158320716Y-209850166D01*
X158340861Y-209887636D01*
X158355094Y-209934876D01*
X158373839Y-210025123D01*
X158378665Y-210072869D01*
X158372579Y-210109188D01*
X158357414Y-210137231D01*
X158333527Y-210158283D01*
X158300231Y-210171821D01*
X158254282Y-210176859D01*
X158217510Y-210173622D01*
X158178628Y-210163548D01*
X158140956Y-210147484D01*
X158105172Y-210125629D01*
X158008086Y-210234317D01*
X158075299Y-210279383D01*
X158146083Y-210312597D01*
X158219385Y-210333560D01*
X158288232Y-210340258D01*
G37*
G36*
X157443457Y-209336053D02*
G01*
X157601360Y-210095526D01*
X157602262Y-210118967D01*
X157595071Y-210135155D01*
X157580681Y-210145563D01*
X157557091Y-210149504D01*
X157526317Y-210149504D01*
X157563869Y-210330000D01*
X157657475Y-210330000D01*
X157710841Y-210323790D01*
X157749393Y-210307056D01*
X157776971Y-210280785D01*
X157794046Y-210246214D01*
X157800594Y-210201224D01*
X157794251Y-210141994D01*
X157626700Y-209336053D01*
X157443457Y-209336053D01*
G37*
G36*
X164379040Y-26005951D02*
G01*
X164054563Y-25336054D01*
X163813251Y-25336054D01*
X164019881Y-26330000D01*
X164186332Y-26330000D01*
X164025865Y-25558193D01*
X164028246Y-25601974D01*
X164342465Y-26219236D01*
X164504337Y-26219236D01*
X164564726Y-25615651D01*
X164546041Y-25558193D01*
X164706509Y-26330000D01*
X164873021Y-26330000D01*
X164666392Y-25336054D01*
X164425019Y-25336054D01*
X164379040Y-26005951D01*
G37*
G36*
X163414281Y-26330000D02*
G01*
X163320736Y-25880166D01*
X163318123Y-25848148D01*
X163323895Y-25823611D01*
X163337100Y-25804329D01*
X163356588Y-25790389D01*
X163384133Y-25781138D01*
X163422463Y-25777645D01*
X163461467Y-25780738D01*
X163502147Y-25790285D01*
X163541263Y-25805782D01*
X163577130Y-25826860D01*
X163667072Y-25712738D01*
X163610705Y-25670049D01*
X163541837Y-25637206D01*
X163466363Y-25617016D01*
X163384972Y-25610156D01*
X163316005Y-25615296D01*
X163262000Y-25629313D01*
X163219936Y-25650769D01*
X163187501Y-25679215D01*
X163163637Y-25715086D01*
X163149356Y-25758069D01*
X163145189Y-25810195D01*
X163153002Y-25874060D01*
X163247768Y-26330000D01*
X163414281Y-26330000D01*
G37*
G36*
X163609675Y-26340259D02*
G01*
X163665987Y-26336128D01*
X163708824Y-26325010D01*
X163741078Y-26308242D01*
X163764952Y-26286281D01*
X163781643Y-26258579D01*
X163791547Y-26223338D01*
X163793680Y-26178332D01*
X163786018Y-26120807D01*
X163771038Y-26069107D01*
X163750139Y-26026358D01*
X163723612Y-25991180D01*
X163691252Y-25962598D01*
X163640200Y-25934749D01*
X163575864Y-25916796D01*
X163494881Y-25910269D01*
X163320980Y-25910269D01*
X163341374Y-26053151D01*
X163523885Y-26053151D01*
X163562293Y-26057690D01*
X163589403Y-26069821D01*
X163609060Y-26090331D01*
X163620849Y-26120807D01*
X163622214Y-26143119D01*
X163616896Y-26159724D01*
X163605340Y-26172464D01*
X163578266Y-26184287D01*
X163530174Y-26189194D01*
X163461953Y-26184314D01*
X163417761Y-26172097D01*
X163394053Y-26157986D01*
X163378742Y-26140415D01*
X163370378Y-26118791D01*
X163377766Y-26221984D01*
X163396123Y-26258535D01*
X163427165Y-26288662D01*
X163466411Y-26311322D01*
X163512466Y-26327619D01*
X163561082Y-26337116D01*
X163609675Y-26340259D01*
G37*
G36*
X162894043Y-25523388D02*
G01*
X162855087Y-25336054D01*
X162671844Y-25336054D01*
X162710800Y-25523388D01*
X162894043Y-25523388D01*
G37*
G36*
X163061716Y-26330000D02*
G01*
X162914193Y-25620414D01*
X162730950Y-25620414D01*
X162878473Y-26330000D01*
X163061716Y-26330000D01*
G37*
G36*
X162700908Y-26330000D02*
G01*
X162553386Y-25620414D01*
X162370143Y-25620414D01*
X162517665Y-26330000D01*
X162700908Y-26330000D01*
G37*
G36*
X162299678Y-26330000D02*
G01*
X162210286Y-25900011D01*
X162206837Y-25865363D01*
X162211378Y-25839159D01*
X162222559Y-25819044D01*
X162240073Y-25804039D01*
X162264798Y-25794299D01*
X162299251Y-25790651D01*
X162332120Y-25794060D01*
X162359999Y-25803803D01*
X162383942Y-25819716D01*
X162403392Y-25841024D01*
X162418312Y-25867871D01*
X162428578Y-25901415D01*
X162409893Y-25744184D01*
X162363281Y-25685745D01*
X162316104Y-25645021D01*
X162281075Y-25625904D01*
X162241672Y-25614210D01*
X162196852Y-25610156D01*
X162143042Y-25615501D01*
X162100976Y-25630236D01*
X162068039Y-25653452D01*
X162042613Y-25685688D01*
X162026143Y-25723483D01*
X162017081Y-25770129D01*
X162016679Y-25827870D01*
X162026981Y-25899339D01*
X162116496Y-26330000D01*
X162299678Y-26330000D01*
G37*
G36*
X161450568Y-26330000D02*
G01*
X161413016Y-26149505D01*
X161102766Y-26149505D01*
X161061865Y-26145781D01*
X161027727Y-26135267D01*
X160999024Y-26118425D01*
X160975284Y-26095288D01*
X160957808Y-26066621D01*
X160946451Y-26031291D01*
X160946024Y-26029215D01*
X160942670Y-25992099D01*
X160948481Y-25963661D01*
X160962205Y-25941410D01*
X160983010Y-25925034D01*
X161012323Y-25914301D01*
X161053063Y-25910269D01*
X161363312Y-25910269D01*
X161325821Y-25729835D01*
X161015572Y-25729835D01*
X160978683Y-25726338D01*
X160947735Y-25716430D01*
X160921538Y-25700465D01*
X160899978Y-25678655D01*
X160883889Y-25651429D01*
X160873239Y-25617666D01*
X160870577Y-25586077D01*
X160876073Y-25561870D01*
X160888749Y-25542867D01*
X160907578Y-25529099D01*
X160934176Y-25519987D01*
X160971181Y-25516550D01*
X161281430Y-25516550D01*
X161243939Y-25336054D01*
X160927644Y-25336054D01*
X160856100Y-25341303D01*
X160800042Y-25355614D01*
X160756361Y-25377498D01*
X160722663Y-25406457D01*
X160697696Y-25443120D01*
X160682715Y-25487011D01*
X160678211Y-25540209D01*
X160686088Y-25605393D01*
X160703230Y-25660595D01*
X160729658Y-25707937D01*
X160765650Y-25748641D01*
X160809374Y-25781139D01*
X160860815Y-25805211D01*
X160921416Y-25820693D01*
X160862033Y-25836209D01*
X160818384Y-25861528D01*
X160787021Y-25896286D01*
X160767595Y-25939225D01*
X160760358Y-25991790D01*
X160767299Y-26057242D01*
X160767726Y-26059318D01*
X160785974Y-26122052D01*
X160812060Y-26175464D01*
X160845804Y-26220902D01*
X160887588Y-26259292D01*
X160935513Y-26289398D01*
X160989916Y-26311417D01*
X161051924Y-26325179D01*
X161122916Y-26330000D01*
X161450568Y-26330000D01*
G37*
G36*
X161530802Y-26330000D02*
G01*
X161324173Y-25336054D01*
X161140929Y-25336054D01*
X161347559Y-26330000D01*
X161530802Y-26330000D01*
G37*
G36*
X160281970Y-25615502D02*
G01*
X160344284Y-25630869D01*
X160399660Y-25655715D01*
X160449173Y-25690145D01*
X160491552Y-25732927D01*
X160526552Y-25783957D01*
X160554313Y-25844387D01*
X160574469Y-25915765D01*
X160598466Y-26031291D01*
X160608267Y-26106476D01*
X160605103Y-26167689D01*
X160591177Y-26217840D01*
X160567447Y-26259292D01*
X160533801Y-26293054D01*
X160490241Y-26318116D01*
X160434433Y-26334334D01*
X160363138Y-26340259D01*
X160292493Y-26334894D01*
X160230166Y-26319473D01*
X160174776Y-26294533D01*
X160125245Y-26259964D01*
X160082852Y-26217008D01*
X160047811Y-26165754D01*
X160019991Y-26105039D01*
X159999766Y-26033307D01*
X159975341Y-25915765D01*
X159970235Y-25876450D01*
X160154315Y-25876450D01*
X160158524Y-25915765D01*
X160182948Y-26033307D01*
X160194583Y-26071624D01*
X160211351Y-26102261D01*
X160233079Y-26126546D01*
X160259819Y-26144832D01*
X160290434Y-26155915D01*
X160326013Y-26159763D01*
X160360932Y-26155599D01*
X160386260Y-26144335D01*
X160404476Y-26126546D01*
X160415692Y-26103265D01*
X160419942Y-26073024D01*
X160415650Y-26033307D01*
X160391226Y-25915765D01*
X160379664Y-25877800D01*
X160363038Y-25847487D01*
X160341523Y-25823502D01*
X160315005Y-25805423D01*
X160284631Y-25794459D01*
X160249321Y-25790651D01*
X160214067Y-25794783D01*
X160188502Y-25805940D01*
X160170125Y-25823502D01*
X160158701Y-25846537D01*
X160154315Y-25876450D01*
X159970235Y-25876450D01*
X159965670Y-25841298D01*
X159968940Y-25780721D01*
X159982957Y-25731123D01*
X160006788Y-25690145D01*
X160040450Y-25656839D01*
X160084050Y-25632069D01*
X160139935Y-25616022D01*
X160211341Y-25610156D01*
X160281970Y-25615502D01*
G37*
G36*
X159496625Y-26330000D02*
G01*
X159403080Y-25880166D01*
X159400468Y-25848148D01*
X159406240Y-25823611D01*
X159419445Y-25804329D01*
X159438933Y-25790389D01*
X159466478Y-25781138D01*
X159504808Y-25777645D01*
X159543812Y-25780738D01*
X159584492Y-25790285D01*
X159623608Y-25805782D01*
X159659474Y-25826860D01*
X159749417Y-25712738D01*
X159693050Y-25670049D01*
X159624181Y-25637206D01*
X159548708Y-25617016D01*
X159467316Y-25610156D01*
X159398349Y-25615296D01*
X159344345Y-25629313D01*
X159302281Y-25650769D01*
X159269846Y-25679215D01*
X159245982Y-25715086D01*
X159231701Y-25758069D01*
X159227534Y-25810195D01*
X159235347Y-25874060D01*
X159330113Y-26330000D01*
X159496625Y-26330000D01*
G37*
G36*
X159692020Y-26340259D02*
G01*
X159748332Y-26336128D01*
X159791169Y-26325010D01*
X159823422Y-26308242D01*
X159847297Y-26286281D01*
X159863988Y-26258579D01*
X159873892Y-26223338D01*
X159876025Y-26178332D01*
X159868363Y-26120807D01*
X159853383Y-26069107D01*
X159832484Y-26026358D01*
X159805957Y-25991180D01*
X159773597Y-25962598D01*
X159722545Y-25934749D01*
X159658209Y-25916796D01*
X159577226Y-25910269D01*
X159403325Y-25910269D01*
X159423719Y-26053151D01*
X159606229Y-26053151D01*
X159644638Y-26057690D01*
X159671748Y-26069821D01*
X159691405Y-26090331D01*
X159703194Y-26120807D01*
X159704558Y-26143119D01*
X159699241Y-26159724D01*
X159687684Y-26172464D01*
X159660611Y-26184287D01*
X159612519Y-26189194D01*
X159544297Y-26184314D01*
X159500106Y-26172097D01*
X159476398Y-26157986D01*
X159461087Y-26140415D01*
X159452723Y-26118791D01*
X159460111Y-26221984D01*
X159478468Y-26258535D01*
X159509509Y-26288662D01*
X159548756Y-26311322D01*
X159594811Y-26327619D01*
X159643427Y-26337116D01*
X159692020Y-26340259D01*
G37*
G36*
X159133986Y-26330000D02*
G01*
X158986463Y-25620414D01*
X158789848Y-25620414D01*
X158937370Y-26330000D01*
X159133986Y-26330000D01*
G37*
G36*
X158637074Y-25818006D02*
G01*
X158648905Y-25806338D01*
X158665223Y-25797612D01*
X158684350Y-25792523D01*
X158708942Y-25790651D01*
X158744351Y-25794824D01*
X158775123Y-25806947D01*
X158802365Y-25827227D01*
X158824328Y-25853683D01*
X158841618Y-25887038D01*
X158853961Y-25928710D01*
X158829598Y-25744184D01*
X158784004Y-25687109D01*
X158734710Y-25645754D01*
X158698065Y-25625531D01*
X158662242Y-25613939D01*
X158626571Y-25610156D01*
X158585059Y-25613855D01*
X158551100Y-25624200D01*
X158521742Y-25641588D01*
X158498344Y-25665538D01*
X158637074Y-25818006D01*
G37*
G36*
X158176249Y-26330000D02*
G01*
X157969619Y-25336054D01*
X157786437Y-25336054D01*
X157993066Y-26330000D01*
X158176249Y-26330000D01*
G37*
G36*
X158339525Y-26340259D02*
G01*
X158393612Y-26334640D01*
X158435993Y-26319097D01*
X158469309Y-26294446D01*
X158495108Y-26259903D01*
X158511484Y-26219821D01*
X158520311Y-26170318D01*
X158520239Y-26109054D01*
X158509152Y-26033307D01*
X158485582Y-25919856D01*
X158465909Y-25846035D01*
X158440915Y-25784371D01*
X158411147Y-25733180D01*
X158376833Y-25691061D01*
X158335213Y-25655288D01*
X158290392Y-25630319D01*
X158241601Y-25615292D01*
X158187728Y-25610156D01*
X158152243Y-25614043D01*
X158121237Y-25625316D01*
X158093695Y-25644044D01*
X158071053Y-25668798D01*
X158052957Y-25700336D01*
X158039595Y-25740032D01*
X158086306Y-25897263D01*
X158082328Y-25862393D01*
X158085573Y-25835653D01*
X158095917Y-25813098D01*
X158112684Y-25797063D01*
X158135000Y-25787391D01*
X158165685Y-25783812D01*
X158198599Y-25787871D01*
X158227400Y-25799724D01*
X158253124Y-25819716D01*
X158273722Y-25845554D01*
X158290288Y-25878644D01*
X158302461Y-25920527D01*
X158325908Y-26033307D01*
X158330999Y-26075859D01*
X158327767Y-26107826D01*
X158318032Y-26131920D01*
X158301255Y-26150668D01*
X158277800Y-26162322D01*
X158245308Y-26166602D01*
X158213821Y-26163245D01*
X158186812Y-26153596D01*
X158163330Y-26137749D01*
X158143886Y-26115983D01*
X158129420Y-26089495D01*
X158119401Y-26056571D01*
X158143825Y-26218565D01*
X158168221Y-26255027D01*
X158196128Y-26284772D01*
X158227723Y-26308507D01*
X158262871Y-26326162D01*
X158299926Y-26336699D01*
X158339525Y-26340259D01*
G37*
D10*
X172980000Y-22000000D02*
X21980000Y-22000000D01*
X21980000Y-110000000D01*
X172980000Y-110000000D01*
X172980000Y-22000000D01*
M02*
