M48
; DRILL file {KiCad 9.0.1} date 2025-08-18T11:22:18+0100
; FORMAT={-:-/ absolute / metric / decimal}
; #@! TF.CreationDate,2025-08-18T11:22:18+01:00
; #@! TF.GenerationSoftware,Kicad,Pcbnew,9.0.1
; #@! TF.FileFunction,Plated,1,2,PTH
FMAT,2
METRIC
; #@! TA.AperFunction,Plated,PTH,ComponentDrill
T1C0.400
; #@! TA.AperFunction,Plated,PTH,ComponentDrill
T2C0.800
; #@! TA.AperFunction,Plated,PTH,ComponentDrill
T3C0.813
; #@! TA.AperFunction,Plated,PTH,ComponentDrill
T4C1.000
; #@! TA.AperFunction,Plated,PTH,ComponentDrill
T5C1.100
; #@! TA.AperFunction,Plated,PTH,ComponentDrill
T6C1.500
; #@! TA.AperFunction,Plated,PTH,ComponentDrill
T7C3.200
; #@! TA.AperFunction,Plated,PTH,ComponentDrill
T8C7.000
%
G90
G05
T2
X75.98Y-45.5
X75.98Y-53.0
X80.98Y-45.5
X80.98Y-53.0
X85.98Y-45.5
X85.98Y-53.0
X90.98Y-45.5
X90.98Y-53.0
X95.98Y-45.5
X95.98Y-53.0
X100.98Y-45.5
X100.98Y-53.0
X105.98Y-45.5
X105.98Y-53.0
X110.98Y-45.5
X110.98Y-53.0
X138.98Y-28.305
X141.52Y-28.305
X144.06Y-28.305
X146.6Y-28.305
T3
X33.48Y-36.5
X33.48Y-44.12
X40.98Y-36.0
X40.98Y-43.62
X118.36Y-40.0
X118.36Y-44.0
X118.36Y-48.0
X118.36Y-52.1
X125.98Y-40.0
X125.98Y-44.0
X125.98Y-48.0
X125.98Y-52.1
T4
X34.483Y-61.784
X34.483Y-85.744
X36.983Y-61.784
X36.983Y-85.744
X39.483Y-61.784
X39.483Y-85.744
X57.483Y-61.784
X57.483Y-85.744
X59.983Y-61.784
X59.983Y-85.744
X62.483Y-61.784
X62.483Y-85.744
X80.483Y-61.784
X80.483Y-85.744
X82.983Y-61.784
X82.983Y-85.744
X85.483Y-61.784
X85.483Y-85.744
X103.483Y-61.784
X103.483Y-85.744
X105.983Y-61.784
X105.983Y-85.744
X108.483Y-61.784
X108.483Y-85.744
T5
X51.98Y-22.5
X51.98Y-25.04
X51.98Y-27.58
X51.98Y-30.12
X51.98Y-32.66
X51.98Y-35.2
X51.98Y-37.74
X51.98Y-40.28
X51.98Y-42.82
X51.98Y-45.36
X51.98Y-47.9
X51.98Y-50.44
X51.98Y-52.98
X51.98Y-55.52
X54.52Y-47.9
X54.52Y-50.44
X54.52Y-55.52
X57.06Y-47.9
X57.06Y-50.44
X57.06Y-55.52
X59.6Y-47.9
X59.6Y-50.44
X59.6Y-55.52
X62.14Y-47.9
X62.14Y-50.44
X62.14Y-55.52
X64.68Y-25.04
X64.68Y-47.9
X64.68Y-50.44
X64.68Y-55.52
X67.22Y-22.5
X67.22Y-25.04
X67.22Y-27.58
X67.22Y-30.12
X67.22Y-32.66
X67.22Y-35.2
X67.22Y-37.74
X67.22Y-40.28
X67.22Y-42.82
X67.22Y-45.36
X67.22Y-47.9
X67.22Y-50.44
X67.22Y-52.98
X67.22Y-55.52
T6
X128.67Y-68.46
X128.67Y-88.46
X135.02Y-65.92
X135.02Y-85.92
X148.9Y-68.46
X148.9Y-88.46
X155.25Y-65.92
X155.25Y-85.92
T7
X25.98Y-26.0
X25.98Y-106.0
X25.98Y-118.0
X25.98Y-198.0
X26.0Y-210.0
X26.0Y-290.0
X168.98Y-26.0
X168.98Y-106.0
X168.98Y-118.0
X168.98Y-198.0
X169.0Y-210.0
X169.0Y-290.0
T8
X36.983Y-161.284
X36.983Y-185.244
X59.98Y-161.284
X59.983Y-185.244
X82.98Y-161.284
X82.983Y-185.244
X105.983Y-161.284
X105.983Y-185.244
T1
G00X33.48Y-31.0
M15
G01X33.48Y-32.0
M16
G05
G00X38.98Y-26.5
M15
G01X37.98Y-26.5
M16
G05
G00X43.48Y-32.0
M15
G01X43.48Y-31.0
M16
G05
T2
G00X35.98Y-31.15
M15
G01X35.98Y-31.85
M16
G05
G00X40.98Y-31.85
M15
G01X40.98Y-31.15
M16
G05
T5
G00X32.183Y-68.684
M15
G01X32.183Y-69.884
M16
G05
G00X32.183Y-92.644
M15
G01X32.183Y-93.844
M16
G05
G00X41.783Y-68.684
M15
G01X41.783Y-69.884
M16
G05
G00X41.783Y-92.644
M15
G01X41.783Y-93.844
M16
G05
G00X55.183Y-68.684
M15
G01X55.183Y-69.884
M16
G05
G00X55.183Y-92.644
M15
G01X55.183Y-93.844
M16
G05
G00X64.783Y-68.684
M15
G01X64.783Y-69.884
M16
G05
G00X64.783Y-92.644
M15
G01X64.783Y-93.844
M16
G05
G00X78.183Y-68.684
M15
G01X78.183Y-69.884
M16
G05
G00X78.183Y-92.644
M15
G01X78.183Y-93.844
M16
G05
G00X87.783Y-68.684
M15
G01X87.783Y-69.884
M16
G05
G00X87.783Y-92.644
M15
G01X87.783Y-93.844
M16
G05
G00X101.183Y-68.684
M15
G01X101.183Y-69.884
M16
G05
G00X101.183Y-92.644
M15
G01X101.183Y-93.844
M16
G05
G00X110.783Y-68.684
M15
G01X110.783Y-69.884
M16
G05
G00X110.783Y-92.644
M15
G01X110.783Y-93.844
M16
G05
M30
