M48
; DRILL file {KiCad 9.0.1} date 2025-08-14T15:11:10+0100
; FORMAT={-:-/ absolute / metric / decimal}
; #@! TF.CreationDate,2025-08-14T15:11:10+01:00
; #@! TF.GenerationSoftware,Kicad,Pcbnew,9.0.1
; #@! TF.FileFunction,Plated,1,2,PTH
FMAT,2
METRIC
; #@! TA.AperFunction,Plated,PTH,ComponentDrill
T1C0.400
; #@! TA.AperFunction,Plated,PTH,ComponentDrill
T2C0.800
; #@! TA.AperFunction,Plated,PTH,ComponentDrill
T3C0.813
; #@! TA.AperFunction,Plated,PTH,ComponentDrill
T4C1.000
; #@! TA.AperFunction,Plated,PTH,ComponentDrill
T5C1.100
; #@! TA.AperFunction,Plated,PTH,ComponentDrill
T6C1.500
; #@! TA.AperFunction,Plated,PTH,ComponentDrill
T7C3.200
; #@! TA.AperFunction,Plated,PTH,ComponentDrill
T8C7.000
%
G90
G05
T2
X85.98Y-55.5
X85.98Y-63.0
X90.98Y-55.5
X90.98Y-63.0
X95.98Y-55.5
X95.98Y-63.0
X100.98Y-55.5
X100.98Y-63.0
X105.98Y-55.5
X105.98Y-63.0
X110.98Y-55.5
X110.98Y-63.0
X115.98Y-55.5
X115.98Y-63.0
X120.98Y-55.5
X120.98Y-63.0
X148.98Y-38.305
X151.52Y-38.305
X154.06Y-38.305
X156.6Y-38.305
T3
X43.48Y-46.5
X43.48Y-54.12
X50.98Y-46.0
X50.98Y-53.62
X128.36Y-50.0
X128.36Y-54.0
X128.36Y-58.0
X128.36Y-62.1
X135.98Y-50.0
X135.98Y-54.0
X135.98Y-58.0
X135.98Y-62.1
T4
X44.483Y-71.784
X44.483Y-95.744
X46.983Y-71.784
X46.983Y-95.744
X49.483Y-71.784
X49.483Y-95.744
X67.483Y-71.784
X67.483Y-95.744
X69.983Y-71.784
X69.983Y-95.744
X72.483Y-71.784
X72.483Y-95.744
X90.483Y-71.784
X90.483Y-95.744
X92.983Y-71.784
X92.983Y-95.744
X95.483Y-71.784
X95.483Y-95.744
X113.483Y-71.784
X113.483Y-95.744
X115.983Y-71.784
X115.983Y-95.744
X118.483Y-71.784
X118.483Y-95.744
T5
X61.98Y-32.5
X61.98Y-35.04
X61.98Y-37.58
X61.98Y-40.12
X61.98Y-42.66
X61.98Y-45.2
X61.98Y-47.74
X61.98Y-50.28
X61.98Y-52.82
X61.98Y-55.36
X61.98Y-57.9
X61.98Y-60.44
X61.98Y-62.98
X61.98Y-65.52
X64.52Y-57.9
X64.52Y-60.44
X64.52Y-65.52
X67.06Y-57.9
X67.06Y-60.44
X67.06Y-65.52
X69.6Y-57.9
X69.6Y-60.44
X69.6Y-65.52
X72.14Y-57.9
X72.14Y-60.44
X72.14Y-65.52
X74.68Y-35.04
X74.68Y-57.9
X74.68Y-60.44
X74.68Y-65.52
X77.22Y-32.5
X77.22Y-35.04
X77.22Y-37.58
X77.22Y-40.12
X77.22Y-42.66
X77.22Y-45.2
X77.22Y-47.74
X77.22Y-50.28
X77.22Y-52.82
X77.22Y-55.36
X77.22Y-57.9
X77.22Y-60.44
X77.22Y-62.98
X77.22Y-65.52
T6
X138.67Y-76.96
X138.67Y-96.96
X145.02Y-74.42
X145.02Y-94.42
X158.9Y-76.96
X158.9Y-96.96
X165.25Y-74.42
X165.25Y-94.42
T7
X35.98Y-36.0
X35.98Y-116.0
X35.98Y-128.0
X35.98Y-208.0
X178.98Y-36.0
X178.98Y-116.0
X178.98Y-128.0
X178.98Y-208.0
X190.98Y-36.0
X190.98Y-179.0
X270.98Y-36.0
X270.98Y-179.0
T8
X46.983Y-171.284
X46.983Y-195.244
X69.98Y-171.284
X69.983Y-195.244
X92.98Y-171.284
X92.983Y-195.244
X115.983Y-171.284
X115.983Y-195.244
T1
G00X43.48Y-41.0
M15
G01X43.48Y-42.0
M16
G05
G00X48.98Y-36.5
M15
G01X47.98Y-36.5
M16
G05
G00X53.48Y-42.0
M15
G01X53.48Y-41.0
M16
G05
T2
G00X45.98Y-41.15
M15
G01X45.98Y-41.85
M16
G05
G00X50.98Y-41.85
M15
G01X50.98Y-41.15
M16
G05
T5
G00X42.183Y-78.684
M15
G01X42.183Y-79.884
M16
G05
G00X42.183Y-102.644
M15
G01X42.183Y-103.844
M16
G05
G00X51.783Y-78.684
M15
G01X51.783Y-79.884
M16
G05
G00X51.783Y-102.644
M15
G01X51.783Y-103.844
M16
G05
G00X65.183Y-78.684
M15
G01X65.183Y-79.884
M16
G05
G00X65.183Y-102.644
M15
G01X65.183Y-103.844
M16
G05
G00X74.783Y-78.684
M15
G01X74.783Y-79.884
M16
G05
G00X74.783Y-102.644
M15
G01X74.783Y-103.844
M16
G05
G00X88.183Y-78.684
M15
G01X88.183Y-79.884
M16
G05
G00X88.183Y-102.644
M15
G01X88.183Y-103.844
M16
G05
G00X97.783Y-78.684
M15
G01X97.783Y-79.884
M16
G05
G00X97.783Y-102.644
M15
G01X97.783Y-103.844
M16
G05
G00X111.183Y-78.684
M15
G01X111.183Y-79.884
M16
G05
G00X111.183Y-102.644
M15
G01X111.183Y-103.844
M16
G05
G00X120.783Y-78.684
M15
G01X120.783Y-79.884
M16
G05
G00X120.783Y-102.644
M15
G01X120.783Y-103.844
M16
G05
M30
