M48
; DRILL file {KiCad 9.0.1} date 2025-08-14T16:41:59+0100
; FORMAT={-:-/ absolute / metric / decimal}
; #@! TF.CreationDate,2025-08-14T16:41:59+01:00
; #@! TF.GenerationSoftware,Kicad,Pcbnew,9.0.1
; #@! TF.FileFunction,Plated,1,2,PTH
FMAT,2
METRIC
; #@! TA.AperFunction,Plated,PTH,ComponentDrill
T1C0.400
; #@! TA.AperFunction,Plated,PTH,ComponentDrill
T2C0.800
; #@! TA.AperFunction,Plated,PTH,ComponentDrill
T3C0.813
; #@! TA.AperFunction,Plated,PTH,ComponentDrill
T4C1.000
; #@! TA.AperFunction,Plated,PTH,ComponentDrill
T5C1.100
; #@! TA.AperFunction,Plated,PTH,ComponentDrill
T6C1.500
; #@! TA.AperFunction,Plated,PTH,ComponentDrill
T7C3.200
; #@! TA.AperFunction,Plated,PTH,ComponentDrill
T8C7.000
%
G90
G05
T2
X48.552Y-60.54
X48.552Y-63.08
X48.552Y-65.62
X48.552Y-68.16
X65.748Y-96.16
X65.748Y-101.16
X65.748Y-106.16
X65.748Y-111.16
X65.748Y-116.16
X65.748Y-121.16
X65.748Y-126.16
X65.748Y-131.16
X73.248Y-96.16
X73.248Y-101.16
X73.248Y-106.16
X73.248Y-111.16
X73.248Y-116.16
X73.248Y-121.16
X73.248Y-126.16
X73.248Y-131.16
T3
X56.247Y-166.16
X56.747Y-173.66
X60.247Y-81.16
X60.247Y-88.78
X63.867Y-166.16
X64.248Y-81.16
X64.248Y-88.78
X64.367Y-173.66
X68.248Y-81.16
X68.248Y-88.78
X72.347Y-81.16
X72.347Y-88.78
T4
X82.032Y-98.657
X82.032Y-101.157
X82.032Y-103.657
X82.032Y-121.657
X82.032Y-124.157
X82.032Y-126.657
X82.032Y-144.657
X82.032Y-147.157
X82.032Y-149.657
X82.032Y-167.657
X82.032Y-170.157
X82.032Y-172.657
X105.992Y-98.657
X105.992Y-101.157
X105.992Y-103.657
X105.992Y-121.657
X105.992Y-124.157
X105.992Y-126.657
X105.992Y-144.657
X105.992Y-147.157
X105.992Y-149.657
X105.992Y-167.657
X105.992Y-170.157
X105.992Y-172.657
T5
X42.747Y-139.92
X42.747Y-155.16
X45.288Y-139.92
X45.288Y-142.46
X45.288Y-155.16
X47.828Y-139.92
X47.828Y-155.16
X50.367Y-139.92
X50.367Y-155.16
X52.907Y-139.92
X52.907Y-155.16
X55.447Y-139.92
X55.447Y-155.16
X57.987Y-139.92
X57.987Y-155.16
X60.527Y-139.92
X60.527Y-155.16
X63.067Y-139.92
X63.067Y-155.16
X65.608Y-139.92
X65.608Y-155.16
X68.147Y-139.92
X68.147Y-142.46
X68.147Y-145.0
X68.147Y-147.54
X68.147Y-150.08
X68.147Y-152.62
X68.147Y-155.16
X70.688Y-139.92
X70.688Y-142.46
X70.688Y-145.0
X70.688Y-147.54
X70.688Y-150.08
X70.688Y-152.62
X70.688Y-155.16
X73.227Y-139.92
X73.227Y-155.16
X75.767Y-139.92
X75.767Y-142.46
X75.767Y-145.0
X75.767Y-147.54
X75.767Y-150.08
X75.767Y-152.62
X75.767Y-155.16
T6
X84.667Y-51.89
X84.667Y-72.12
X87.207Y-58.24
X87.207Y-78.47
X104.667Y-51.89
X104.667Y-72.12
X107.207Y-58.24
X107.207Y-78.47
T7
X46.247Y-38.16
X46.247Y-181.16
X126.247Y-38.16
X126.247Y-181.16
X138.248Y-38.16
X138.248Y-181.16
X218.248Y-38.16
X218.248Y-181.16
X230.248Y-38.14
X230.248Y-181.14
X310.248Y-38.14
X310.248Y-181.14
T8
X181.532Y-101.157
X181.532Y-124.16
X181.532Y-147.16
X181.532Y-170.157
X205.492Y-101.157
X205.492Y-124.157
X205.492Y-147.157
X205.492Y-170.157
T1
G00X46.747Y-168.16
M15
G01X46.747Y-169.16
M16
G05
G00X52.247Y-163.66
M15
G01X51.247Y-163.66
M16
G05
G00X51.247Y-173.66
M15
G01X52.247Y-173.66
M16
G05
T2
G00X52.097Y-166.16
M15
G01X51.398Y-166.16
M16
G05
G00X51.398Y-171.16
M15
G01X52.097Y-171.16
M16
G05
T5
G00X88.932Y-96.357
M15
G01X90.132Y-96.357
M16
G05
G00X88.932Y-105.957
M15
G01X90.132Y-105.957
M16
G05
G00X88.932Y-119.357
M15
G01X90.132Y-119.357
M16
G05
G00X88.932Y-128.957
M15
G01X90.132Y-128.957
M16
G05
G00X88.932Y-142.357
M15
G01X90.132Y-142.357
M16
G05
G00X88.932Y-151.957
M15
G01X90.132Y-151.957
M16
G05
G00X88.932Y-165.357
M15
G01X90.132Y-165.357
M16
G05
G00X88.932Y-174.957
M15
G01X90.132Y-174.957
M16
G05
G00X112.892Y-96.357
M15
G01X114.092Y-96.357
M16
G05
G00X112.892Y-105.957
M15
G01X114.092Y-105.957
M16
G05
G00X112.892Y-119.357
M15
G01X114.092Y-119.357
M16
G05
G00X112.892Y-128.957
M15
G01X114.092Y-128.957
M16
G05
G00X112.892Y-142.357
M15
G01X114.092Y-142.357
M16
G05
G00X112.892Y-151.957
M15
G01X114.092Y-151.957
M16
G05
G00X112.892Y-165.357
M15
G01X114.092Y-165.357
M16
G05
G00X112.892Y-174.957
M15
G01X114.092Y-174.957
M16
G05
M30
